<svg xmlns="http://www.w3.org/2000/svg" viewBox="0 0 512 512" width="192px" height="192px"><path fill="#74CCCF" d="M258.7,184.7c-4.5-0.4-9-0.5-13.4-0.2c-1.5,0.1-3.3,0.1-4.8,0.4c-0.1,0.4-0.2,0.7-0.3,1.1c7.2-0.2,14.4-0.5,21.6-0.8C260.8,185,259.8,184.8,258.7,184.7z"/><path fill="#14B6B9" d="M326.2,161.5c-4.1-3.4-9-5.5-14-7.3c-14.4-5.1-29.8-5.7-44.9-5.8c-16.1,0-32.2,1.1-48.3,1.3c-16.4,0.2-32.9,0.2-49.3,0.4c-19,0.3-38.4-0.2-57.2,3.5c-12.7,2.5-32.2,8.1-33.5,23.6c44.3,7.9,89.2,10.1,134.1,9.4c5.8-0.1,11.5-0.2,17.3-0.3c-2.4-4.2-1.3-9.1,4-11c4.8-1.8,10.5-1.8,15.5-1.8c11.6,0.1,23.1,1.2,30.7,10.8c0,0,0,0,0.1,0c14.4-0.9,33.3-1.2,44.9-11.2C330.1,169.1,331.1,165.5,326.2,161.5z"/><path fill="#FEBF10" d="M318,364.4c-0.1-21.6-3.5-43.2-9.3-63.9c-7.6,0-15.3-0.2-23,0.1c0,1.7,0.1,3.3,0.2,5c0.5,7.1-10.5,7.9-11,0.8c-0.1-1.7-0.2-3.3-0.2-5c-6.2,0.7-12.4,1.8-18.5,3.8c-0.7,0.2-1.3,0.3-1.9,0.3c-1.9,5.2-0.2,11.7,0.7,16.9c1,5.8,1.7,11.6,2.1,17.5c0.4,6.5,0.6,13,1.6,19.4c0.5,3.3,0.6,9.4,4.2,11c7.9,3.4,18,0.3,26.2,0.2c8.7-0.1,20.3,2.1,28.3-2.1c0.6-0.3,1.2-0.5,1.8-0.6C318.5,367,318,365.8,318,364.4z"/><path fill="#74CCCF" d="M419.8,269.8c-1.1-12.4-3.1-25.1-8.4-36.6c-5.4-11.7-14.9-22.1-27.2-26.6c-14.3-5.3-28.1,0.2-39.7,8.9c-4.3,3.2-8.7-1.3-8.5-5.6c0.6-9.6-1.3-19.2-3.2-28.7c-8,7.1-19.2,10.1-29.6,11.8c-5.6,0.9-11.2,1.5-16.8,1.9c1.7,4.8,2.7,9.8,3.5,14.9c1.5,10.2,2.2,20.2,1.6,30.4c-0.9,16.5-4.5,33-5.5,49.5c8-0.3,16-0.2,24-0.2c1.9,0,3.4,0.8,4.4,2c1.9,0.1,3.6,1.2,4.2,3.6c6.3,22.2,10.2,45.3,10.3,68.4c0,3.3-2.4,5.3-5,5.7c2.6,2.2,3.4,6.3-0.4,8.3c-11.1,5.8-23.7,3.3-35.7,4c-10,0.6-22.5,3.4-31.5-2.3c-5.6-3.6-7.1-9.8-8.1-16c-1.3-7.4-1.6-15-2-22.5c-0.5-6.9-1.5-13.6-2.6-20.4c-1.1-6.8-1.5-13.3,0.9-19.8c0.9-2.5,3-3.4,5-3.1c0.5-1.2,1.5-2.1,3.1-2.7c7.3-2.3,14.8-3.7,22.3-4.4c1.5-28.8,9.9-57.1,2.9-86c-0.8-3.2-1.8-6.1-3.2-8.8c-2.5,0.1-5.1,0.2-7.6,0.3c-63.8,2.3-127.6,3.3-190.8-8c0,0.9,0,1.8,0,2.7c0.1,6.2,0.4,12.4,0.6,18.6c0.7,21.4,0.8,42.7,1.1,64.1c0.3,25.4,2,50.8,5.1,75.9c1.5,12.1,3.9,24.2,4.8,36.4c0.7,10.1,0.8,20.5,2.8,30.5c0.8,0.8,1.2,1.9,1.2,3.4v1.7c0.3,0.5,0.7,1.1,1.1,1.6c1.6,2.1,1.3,4.3,0.1,5.9c0.9,3.6,2.1,7.2,3.8,10.5c8.3,16.9,26.2,25.3,43.7,29.3c21.3,4.9,43.5,5.6,65.2,7.6c29.5,2.6,60.2,5.1,89.4-1.8c23.1-5.4,54.3-16.1,57.8-43.5c0.4-2.9,2.5-4.3,4.7-4.3c1.4-0.9,3.2-1.3,5.2-0.5c0.5,0.2,1,0.3,1.5,0.5c9.8,2.2,20.6-0.6,29.5-4.9c10-4.9,15.8-12.5,19.2-23.2c4-12.5,5.3-25.7,5.7-38.8c0.4-14.1,0.7-28.1,1.6-42.2C421.4,301.3,421.3,285.7,419.8,269.8z M364.3,398.1c-3.4,1-7.1-1.1-7.3-4.8c-2.2-32.6,0.5-65.6-3.2-98c-1.5-12.8-3.7-25.3-6.8-37.7c-1.4-5.7-6-18.3-0.7-23.3c2.2-2.1,5.1-1.9,7.2-0.6c0.8-0.8,2-1.3,3.5-1.3c16.7,0.4,26.2,17,32,30.6c5.7,13.3,11,28.8,11.9,43.4C403,338.5,401.5,386.6,364.3,398.1z"/><path d="M429.6,258.3c-3.6-25.3-14.5-49.6-38.8-60.9c-14.8-6.8-30.5-4-44,3.5c-0.8-10.6-3.2-20.9-4.8-31.5c-0.2-1.4-0.8-2.4-1.6-3.2c-0.1-4.6-2.4-9.1-6.9-13.1c-9.2-8.3-23.3-11.8-35.2-13.8c-12.7-2.1-26.3-2.6-39.2-1.9c-14.9,0.8-29.9,1.1-44.8,1.2c-24.6,0.2-49.2,0-73.7,0.9c-23,0.8-62.2,4.4-70.9,29.6c-0.1,0.1-0.2,0.1-0.3,0.2c-4.3,2.4-3.8,9.8-4,13.9c-0.3,7.3,0.1,14.6,0.3,21.8c0.8,21.1,1.2,42.1,1.3,63.2c0,26.7,1.8,53.3,4.9,79.8c1.5,12.8,4,25.5,5,38.3c0.9,12.1,1.1,24.1,4,35.9c0,0.3,0,0.7,0.1,1c3,20.3,13.7,36.6,31.7,46.6c17,9.5,37.4,12.3,56.5,14.1c26.9,2.5,54,5.4,81,5.6c28.3,0.3,57.9-3.9,83.3-17.1c13.8-7.2,26-19.9,29.6-35.2c17.7,3.8,39.6-4.3,51.2-17.4c7.7-8.7,10.9-21.8,13-33c2.4-12.8,2.6-26,2.7-39.1c0.1-15.1,1.6-30.1,2.1-45.2C432.6,287.8,431.7,273,429.6,258.3z M112.5,153.6c18.7-3.7,38.2-3.3,57.2-3.5c16.4-0.2,32.9-0.2,49.3-0.4c16.1-0.2,32.2-1.3,48.3-1.3c15.1,0,30.5,0.7,44.9,5.8c5,1.8,9.9,3.9,14,7.3c4.9,4,3.9,7.6-0.6,11.5c-11.5,10-30.5,10.3-44.9,11.2c0,0,0,0-0.1,0c-7.6-9.6-19.1-10.6-30.7-10.8c-5.1-0.1-10.7-0.1-15.5,1.8c-5.2,2-6.4,6.9-4,11c-5.8,0.1-11.5,0.2-17.3,0.3c-44.9,0.7-89.9-1.5-134.1-9.4C80.4,161.7,99.8,156.1,112.5,153.6z M285.9,305.5c-0.1-1.7-0.2-3.3-0.2-5c7.6-0.3,15.3-0.2,23-0.1c5.7,20.8,9.1,42.4,9.3,63.9c0,1.5,0.5,2.6,1.3,3.4c-0.6,0.1-1.2,0.3-1.8,0.6c-8,4.1-19.7,2-28.3,2.1c-8.3,0.1-18.3,3.3-26.2-0.2c-3.6-1.6-3.7-7.7-4.2-11c-1-6.4-1.2-13-1.6-19.4c-0.4-5.9-1-11.7-2.1-17.5c-0.9-5.2-2.6-11.7-0.7-16.9c0.6,0,1.2-0.1,1.9-0.3c6.1-1.9,12.2-3.1,18.5-3.8c0,1.7,0.1,3.3,0.2,5C275.4,313.4,286.4,312.6,285.9,305.5z M261.7,185.2c-7.2,0.3-14.4,0.6-21.6,0.8c0.1-0.4,0.2-0.7,0.3-1.1c1.4-0.2,3.3-0.3,4.8-0.4c4.5-0.2,9-0.1,13.4,0.2C259.8,184.8,260.8,185,261.7,185.2z M420.4,317.3c-0.9,14.1-1.2,28.1-1.6,42.2c-0.4,13.1-1.7,26.3-5.7,38.8c-3.4,10.6-9.2,18.2-19.2,23.2c-8.9,4.3-19.7,7.1-29.5,4.9c-0.5-0.1-1-0.3-1.5-0.5c-2-0.7-3.8-0.4-5.2,0.5c-2.2,0.1-4.3,1.4-4.7,4.3c-3.5,27.4-34.7,38.1-57.8,43.5c-29.2,6.8-59.8,4.3-89.4,1.8c-21.7-1.9-43.9-2.6-65.2-7.6c-17.5-4.1-35.4-12.4-43.7-29.3c-1.7-3.4-2.9-6.9-3.8-10.5c1.2-1.6,1.4-3.8-0.1-5.9c-0.4-0.5-0.7-1.1-1.1-1.6v-1.7c0-1.5-0.5-2.6-1.2-3.4c-2.1-10-2.1-20.3-2.8-30.5c-0.9-12.2-3.3-24.2-4.8-36.4c-3.1-25.2-4.8-50.6-5.1-75.9c-0.3-21.4-0.4-42.7-1.1-64.1c-0.2-6.2-0.5-12.4-0.6-18.6c0-0.9,0-1.8,0-2.7c63.1,11.3,126.9,10.3,190.8,8c2.5-0.1,5-0.2,7.6-0.3c1.4,2.6,2.4,5.6,3.2,8.8c7.1,28.9-1.4,57.3-2.9,86c-7.5,0.7-15,2.1-22.3,4.4c-1.6,0.5-2.6,1.5-3.1,2.7c-2-0.3-4,0.5-5,3.1c-2.4,6.5-2,13.1-0.9,19.8c1.1,6.8,2.1,13.5,2.6,20.4c0.5,7.5,0.8,15.1,2,22.5c1,6.2,2.5,12.4,8.1,16c9,5.7,21.5,2.9,31.5,2.3c12-0.8,24.6,1.7,35.7-4c3.8-2,3-6.1,0.4-8.3c2.6-0.4,5-2.3,5-5.7c-0.1-23.1-4-46.2-10.3-68.4c-0.7-2.4-2.4-3.5-4.2-3.6c-1-1.2-2.4-2-4.4-2c-8,0-16-0.1-24,0.2c1.1-16.5,4.6-33,5.5-49.5c0.6-10.3-0.2-20.3-1.6-30.4c-0.7-5-1.7-10.1-3.5-14.9c5.6-0.4,11.3-1,16.8-1.9c10.4-1.7,21.6-4.6,29.6-11.8c1.8,9.5,3.7,19.1,3.2,28.7c-0.3,4.3,4.2,8.8,8.5,5.6c11.6-8.7,25.4-14.1,39.7-8.9c12.4,4.5,21.8,14.9,27.2,26.6c5.3,11.4,7.2,24.1,8.4,36.6C421.3,285.7,421.4,301.3,420.4,317.3z"/><path d="M401 306.5c-.9-14.6-6.2-30.1-11.9-43.4-5.9-13.6-15.4-30.2-32-30.6-1.6 0-2.7.5-3.5 1.3-2.1-1.3-4.9-1.5-7.2.6-5.3 5-.7 17.6.7 23.3 3 12.5 5.3 25 6.8 37.7 3.7 32.5.9 65.4 3.2 98 .3 3.6 3.9 5.8 7.3 4.8C401.5 386.6 403 338.5 401 306.5zM367.5 384.8c-1.3-28.2.4-56.6-2.2-84.7-1.2-13.2-3.1-26.6-6.3-39.5-1-3.9-2-7.8-2.9-11.8-.4-2-.7-4-1-6.1v0c.8.4 1.6.7 2.6.7 11.9.3 19 18.6 22.6 27.5 4.7 11.7 8.9 24.8 9.7 37.4C391.6 332.7 391.8 371.2 367.5 384.8zM168.5 88.3c-4.2-3.6-11.1-5.6-12.9-11.2-1.1-3.5 2.2-11.5 5.6-13 6.5-2.7 2.9-13.1-3.6-10.4-11.3 4.7-16.2 21.2-10.3 31.5 3.2 5.7 10.1 8.1 14.9 12.1 7.3 6.2 0 12.7-4.9 16.9-1.9 1.7-1.6 4.8-.4 6.7.6 1 1.3 1.8 2.4 2.3.5.2.9.3 1.4.5 1.9.1 2 .1.3 0 4.3 2.1 7.9-1.6 7.8-5.3 3.5-3.4 6.4-7.2 7.3-12.2C177.2 99.7 173.4 92.5 168.5 88.3zM211.4 85.3c-4.5-4.3-9.3-8.3-13.2-13.2-1.1-1.4-2.9-3.9-3.1-5.1-.1-.5-.2-.8-.2-.8 0 0 .1.1.3-.1-.2.4 1.6-.8 2.2-1 6.6-2.5 3-12.9-3.6-10.4-5.7 2.1-9.9 6.2-9.7 12.6.2 6 5.1 11.3 8.9 15.4 4.2 4.6 9 8.6 13.4 12.9.8.8 1.3 1.3 1.5 1.6.4.5.6.6.7.7 0 .1-.1.4.1 1.2.9 4.6-3.3 7.8-7 9.5-6.4 2.9-2.8 13.3 3.6 10.4 8.3-3.8 14.2-9.8 14.5-19.4C219.9 93.4 215.6 89.3 211.4 85.3zM260.3 84.8c-4.8-5.5-10.2-10.4-15.2-15.7-2-2.2-4-4.4-5.5-7-.1-.1-.3-.7-.4-1.1 4.8-4.3-1.1-12.6-6.7-8.7-13.3 9.3 5.8 25.5 12.5 32.1 2.3 2.3 4.7 4.6 6.9 7.1 1 1.1 1.9 2.3 2.7 3.6.1.2.2.4.3.4 0 .1.1.2.2.4 0 .1.1.1.1.2 0 .1 0 .1 0 .2.2 3.2-4.6 5.8-6.7 7.4-3.6 2.6-7 5.6-8.8 9.7-2.8 6.5 7 11.4 9.9 4.9 1.5-3.4 4.8-5.3 7.7-7.5 3.3-2.5 6.2-5.4 7.8-9.3C267.5 95 264.6 89.7 260.3 84.8z"/></svg>