<svg xmlns="http://www.w3.org/2000/svg" viewBox="0 0 100 100" width="100px" height="100px"><path fill="#a1d3a2" d="M14.836,68.727L7.129,38.114c-0.581-2.314,0.835-4.678,3.148-5.259L72.898,17.13	c2.313-0.58,4.68,0.834,5.262,3.143l7.707,30.613c0.585,2.314-0.835,4.678-3.148,5.259L20.102,71.87	C17.785,72.451,15.417,71.037,14.836,68.727z"/><path fill="#1f212b" d="M16.307,72.237c-1.225-0.732-2.091-1.893-2.438-3.268L6.162,38.355	c-0.718-2.851,1.022-5.753,3.873-6.47L72.656,16.16c2.847-0.713,5.757,1.024,6.475,3.868l7.707,30.617	c0.347,1.375,0.133,2.809-0.601,4.032s-1.896,2.088-3.272,2.435L20.344,72.836C19.915,72.945,19.478,73,19.045,73	C18.089,73,17.149,72.743,16.307,72.237z M82.477,55.179c0.858-0.218,1.587-0.76,2.048-1.523c0.46-0.767,0.593-1.663,0.374-2.524	l-7.707-30.613c-0.452-1.784-2.274-2.867-4.053-2.423L10.522,33.821c-0.862,0.218-1.587,0.756-2.048,1.523	c-0.46,0.767-0.593,1.663-0.378,2.524l7.711,30.613c0.215,0.861,0.757,1.585,1.525,2.045c0.768,0.46,1.665,0.596,2.524,0.378	L82.477,55.179z"/><path fill="#60be92" d="M21.284,36.217l-4.762,1.196c0.612,2.442-0.733,4.881-3.003,5.45l4.696,18.655	c2.27-0.569,4.614,0.947,5.227,3.385l53.034-13.318c-0.612-2.438,0.733-4.881,3.003-5.45L74.782,27.48	c-2.27,0.569-4.61-0.947-5.227-3.385l-39.39,9.894l-0.121-0.483l-8.881,2.228L21.284,36.217z"/><path fill="#1f212b" d="M22.957,65.026c-0.265-1.06-0.897-1.955-1.779-2.524c-0.87-0.565-1.88-0.74-2.84-0.499	c-0.129,0.031-0.265,0.012-0.378-0.058c-0.117-0.066-0.199-0.175-0.23-0.304l-4.696-18.655c-0.035-0.129-0.012-0.265,0.055-0.378	c0.07-0.117,0.179-0.199,0.308-0.23c2.001-0.502,3.187-2.676,2.641-4.842c-0.066-0.269,0.094-0.541,0.363-0.608l4.762-1.196	c0.273-0.066,0.538,0.097,0.608,0.362c0.066,0.269-0.098,0.538-0.363,0.608l-4.302,1.079c0.367,2.357-0.889,4.632-2.988,5.414	l4.466,17.743c1.08-0.144,2.176,0.101,3.14,0.725c0.956,0.619,1.673,1.543,2.059,2.637l52.11-13.084	c-0.179-1.145,0.016-2.302,0.566-3.299c0.55-1.001,1.4-1.737,2.422-2.119l-4.466-17.743c-2.212,0.296-4.404-1.11-5.199-3.362	l-38.93,9.777c-0.265,0.066-0.538-0.097-0.605-0.362c-0.066-0.265,0.094-0.538,0.363-0.604l39.394-9.894	c0.265-0.066,0.538,0.097,0.605,0.362c0.546,2.17,2.625,3.525,4.618,3.019c0.269-0.062,0.538,0.097,0.608,0.362l4.696,18.658	c0.031,0.129,0.012,0.261-0.059,0.378c-0.066,0.113-0.176,0.195-0.304,0.226c-0.963,0.242-1.771,0.873-2.27,1.78	c-0.503,0.919-0.64,2.006-0.371,3.066c0.031,0.129,0.012,0.265-0.059,0.378c-0.066,0.113-0.176,0.195-0.304,0.23L23.561,65.385	c-0.039,0.012-0.082,0.016-0.121,0.016C23.218,65.4,23.015,65.252,22.957,65.026z"/><path fill="#1f212b" d="M27.013,34.779c-0.066-0.269,0.098-0.541,0.363-0.608l0.889-0.222	c0.273-0.066,0.538,0.097,0.608,0.362c0.066,0.265-0.098,0.538-0.363,0.604l-0.889,0.226c-0.043,0.008-0.082,0.012-0.121,0.012	C27.275,35.153,27.072,35.005,27.013,34.779z"/><path fill="#a1d3a2" d="M44.927,36.76c-4.55,1.145-7.312,5.762-6.167,10.314s5.761,7.313,10.312,6.169	c4.55-1.145,7.312-5.762,6.167-10.314C54.094,38.377,49.477,35.615,44.927,36.76z"/><path fill="#1f212b" d="M38.275,47.191c-0.586-2.328-0.23-4.75,1.004-6.813c1.234-2.063,3.199-3.52,5.527-4.106	c4.812-1.207,9.71,1.723,10.921,6.532c1.211,4.813-1.719,9.712-6.531,10.923C48.462,53.91,47.728,54,47.001,54	C42.978,54,39.303,51.269,38.275,47.191z M45.052,37.24c-2.07,0.52-3.816,1.817-4.914,3.653c-1.098,1.832-1.414,3.985-0.891,6.055	c1.074,4.278,5.429,6.884,9.702,5.805c4.281-1.074,6.882-5.43,5.808-9.704c-0.91-3.625-4.179-6.051-7.757-6.051	C46.357,36.998,45.704,37.076,45.052,37.24z"/><path fill="#a1d3a2" d="M61.765,37.595c-1.605,0.402-2.578,2.035-2.175,3.64c0.406,1.605,2.035,2.582,3.64,2.175	c1.605-0.402,2.582-2.035,2.175-3.64C65.003,38.165,63.374,37.193,61.765,37.595z"/><path fill="#1f212b" d="M59.105,41.352c-0.469-1.871,0.672-3.773,2.543-4.245c1.875-0.473,3.777,0.668,4.246,2.539	c0.227,0.906,0.09,1.847-0.391,2.652c-0.48,0.801-1.242,1.367-2.148,1.597C63.07,43.965,62.781,44,62.499,44	C60.933,44,59.508,42.938,59.105,41.352z M61.89,38.079c-1.336,0.336-2.148,1.695-1.812,3.031c0.16,0.648,0.566,1.191,1.14,1.535	c0.574,0.344,1.246,0.441,1.89,0.277c0.648-0.16,1.195-0.566,1.535-1.14c0.344-0.57,0.441-1.242,0.281-1.89	c-0.285-1.133-1.308-1.89-2.425-1.89C62.3,38.001,62.093,38.025,61.89,38.079z M59.582,41.231h0.012H59.582z"/><path fill="#a1d3a2" d="M29.773,45.591c-1.609,0.402-2.582,2.031-2.179,3.64c0.406,1.605,2.035,2.578,3.64,2.175	s2.582-2.031,2.175-3.64C33.007,46.161,31.378,45.189,29.773,45.591z"/><path fill="#1f212b" d="M27.105,49.352c-0.469-1.871,0.672-3.773,2.543-4.245c1.875-0.473,3.777,0.668,4.245,2.539	c0.473,1.871-0.668,3.777-2.539,4.249C31.069,51.965,30.78,52,30.499,52C28.933,52,27.508,50.938,27.105,49.352z M29.89,46.079	c-1.336,0.336-2.148,1.695-1.812,3.031c0.16,0.648,0.566,1.191,1.14,1.535c0.57,0.34,1.246,0.441,1.89,0.277	c1.336-0.336,2.152-1.695,1.816-3.031c-0.285-1.133-1.308-1.89-2.425-1.89C30.3,46.001,30.093,46.025,29.89,46.079z M27.582,49.231	h0.012H27.582z"/><path fill="#fef6aa" d="M67,55c0,7.18,5.82,13,13,13s13-5.82,13-13s-5.82-13-13-13S67,47.82,67,55z"/><path fill="#f9e65c" d="M71.5,55c0,4.695,3.805,8.5,8.5,8.5s8.5-3.805,8.5-8.5s-3.805-8.5-8.5-8.5S71.5,50.305,71.5,55z"/><path fill="#1f212b" d="M66,55c0-7.723,6.281-14,14-14c7.723,0,14,6.277,14,14c0,7.719-6.277,14-14,14	C72.281,69,66,62.719,66,55z M68,55c0,6.617,5.383,12,12,12s12-5.383,12-12s-5.383-12-12-12S68,48.383,68,55z"/><path fill="#1f212b" d="M71,55c0-4.965,4.039-9,9-9c4.965,0,9,4.035,9,9c0,4.961-4.035,9-9,9C75.039,64,71,59.961,71,55z M72,55c0,4.41,3.59,8,8,8s8-3.59,8-8s-3.59-8-8-8S72,50.59,72,55z"/><path fill="#fef6aa" d="M44,73c0,7.18,5.82,13,13,13s13-5.82,13-13s-5.82-13-13-13S44,65.82,44,73z"/><path fill="#f9e65c" d="M48.5,73c0,4.695,3.805,8.5,8.5,8.5s8.5-3.805,8.5-8.5s-3.805-8.5-8.5-8.5S48.5,68.305,48.5,73z"/><path fill="#1f212b" d="M43,73c0-7.723,6.281-14,14-14c7.723,0,14,6.277,14,14c0,7.719-6.277,14-14,14	C49.281,87,43,80.719,43,73z M45,73c0,6.617,5.383,12,12,12s12-5.383,12-12s-5.383-12-12-12S45,66.383,45,73z"/><path fill="#1f212b" d="M48,73c0-4.965,4.039-9,9-9c4.965,0,9,4.035,9,9c0,4.961-4.035,9-9,9C52.039,82,48,77.961,48,73z M49,73c0,4.41,3.59,8,8,8s8-3.59,8-8s-3.59-8-8-8S49,68.59,49,73z"/></svg>