<svg xmlns="http://www.w3.org/2000/svg" viewBox="0 0 512 512" width="48px" height="48px"><path fill="#14B6B9" d="M190.5 244.7c-2.6-10.7-5.2-21.4-7.5-32.1-12.5.6-25.1.9-37.6 1.3-10.8.3-21.5.7-32.3 1.3 0 .2-.1.4-.2.7 0 0 0 0 0 0 0 .2 0 .5 0 .7.1 1.6.3 3.1.6 4.7.7 4 2 9.1 3.3 13.7 1.4 5.3 3 10.6 4.6 15.8 23.7 1 47.4 2.1 71.1 2.8C191.8 250.6 191.2 247.7 190.5 244.7zM206.4 309.2c-7.9.2-15.7.4-23.6.7-13.7.4-27.3.8-41 1 .7 1.9 1.4 3.7 2.1 5.6 3 7.5 5.5 15.7 10 21.7 5.4-.2 10.9-.2 16.3-.1 15 .1 30.1.1 45 .7.1 0 .2 0 .3 0C212 329 209.1 319.1 206.4 309.2zM259.9 307.1c-14 .8-28.1 1.3-42.2 1.7 2.7 9.9 5.8 19.8 9.5 29.3.2.4.3.8.3 1.2 11.4.8 22.8 1.9 34.1 3.1 1 .1 1.9.2 2.9.3 0-.1 0-.2 0-.3v-2c0-1.5.3-2.9 1.4-4.1.9-1.1 2.3-1.7 3.7-1.9 1.5-.1 3 .4 4.1 1.4.4.3.7.7 1 1.1.2-10.3.7-20.6 1.6-30.9C270.7 306.5 265.3 306.8 259.9 307.1zM198.4 279.5c-1.4-4.9-2.5-9.9-3.6-14.9-23.4-.7-46.7-1.7-70.1-2.7 1.4 4.4 2.8 8.7 4.3 13.1 2.8 8.4 5.7 16.8 8.7 25.1 21.9-.3 43.9-.7 65.8-1.4C201.9 292.2 200.2 285.8 198.4 279.5zM368.2 218.5c-1.3-4.4-3.7-7.5-6.9-9.6-.4-.2-.8-.4-1.2-.7-7.4-4.2-17.9-4-26.3-3.5-10.8.6-21.5 1.3-32.3 1.7 0 1.6-.7 3.1-2.4 4.3-.9.6-2.3 3.4-3 5.8-1.2 4.3-2 8.7-2.6 13.1-1 7.5-1.5 15.1-1.7 22.7 6-.6 12.1-1.3 18.1-2.2 7-1 14-2.4 21-3.8 5.9-1.2 12.7-3.7 18.8-3.8 2.6 0 5.2-.3 7.7-.6.2 0 .5-.1.7-.1.8-.8 2-1.3 3.5-1.3 1.8 0 4.1-.1 5.8.8.1-.7.2-1.3.3-2C368.9 232.7 370.1 225.1 368.2 218.5zM242.3 207.2c-8.4.5-16.8 2.1-25.2 3-7.7.8-15.4 1.4-23.1 1.8 2.3 10.9 5.1 21.7 7.7 32.6.7 3.1 1.4 6.2 2.1 9.3 8 .2 16 .4 24.1.5 17.7.2 35.3 0 52.9-1.3.3-10.1.8-20.2 2.5-30.1.9-5.2 2-11.6 5-16.6C273 206.5 257.6 206.3 242.3 207.2zM352.1 253.4c-5.6.3-11.2 2-16.7 3.1-6.3 1.3-12.6 2.6-18.9 3.6-8.3 1.3-16.7 2.3-25 3.1 0 2.4-.1 4.7-.1 7.1 0 7.3-2 14.9-2.9 22.2-.1.6-.1 1.1-.2 1.7 13.7-.9 27.4-1.7 41.1-1.5 7.4.1 15 .2 22.3 1.6 2.1.4 4.4.9 6.6 1.8 1.4-7.9 2.7-15.9 3.8-23.9 1-6.8 2.2-13.5 3.3-20.2C361.4 253.4 355.8 253.2 352.1 253.4zM355.4 307.1c0-.1-.1-.2-.1-.2-.3-.2-.8-.5-1-.6-3.8-1.7-10.9-2.3-16.2-2.5-8.8-.4-17.6-.2-26.4.2-8.2.3-16.4.8-24.6 1.4-1.1 12.7-1.7 25.5-1.8 38.2 0 .3 0 .6-.1.9 7.8.5 15.6.7 23.5.3 11.9-.5 23.8-1.6 35.8-2 .1-.4.2-.8.4-1.2 5-10.8 8.3-22.1 10.9-33.7C355.8 307.6 355.6 307.4 355.4 307.1zM232.6 265.4c-8.8-.1-17.6-.3-26.5-.5.9 4.1 1.9 8.3 3.1 12.4 1.9 6.9 3.7 13.9 5.6 20.9 19.9-.7 39.7-1.7 59.6-3.1 1-.1 1.9-.1 2.9-.2.2-1.5.3-3 .5-4.5.9-7.1 2.7-14.3 2.7-21.4 0-1.6 0-3.3 0-4.9C264.6 265.2 248.7 265.6 232.6 265.4z"/><path fill="#BCBCBC" d="M447.5,114.8c-15.4-3.9-32.2-4.5-47.8-1.4c-40.4,7.9-31,56.6-30.3,87.5c1.6,1.3,3.1,2.8,4.5,4.5c12.2,15.8,3.6,39.4,0.9,56.8c-4.2,27.2-7.4,54.9-18.2,80.4c1.6,0.3,3.2,1.1,4.1,2.5c4.4-0.4,9.9,3,13.7,4.7c2.3,1,6.2,2.7,8.4,0.5c2.1-2.1,3.5-4.6,4.6-7.4c6.4-16.2,5.2-34.8,6.7-51.9c2.3-27.4,2.1-54.6,2.1-82c0-21.5,0.2-48.4,21.5-60.2c16.8-9.3,36.6-10.1,55.5-10.2c0-0.1,0-0.1,0-0.2C473.6,124.3,459.3,117.7,447.5,114.8z"/><path fill="#D6E5E5" d="M374.4,379.2c-4.2-11.2-18.7-15.5-29.6-15.4c-5.5,0.1-11.7,0.8-16.2,3.7c-4.1,2.6-5.7,5.3-5.1,10.1c0.4,3.1-1.6,5-4,5.6c0.4,3.9,1.6,7.7,3.5,11.1c6.8,11.7,20.9,20.4,34.7,17.5c6.4-1.3,11.5-6,14.1-11.8C374.6,394,376.9,385.6,374.4,379.2z"/><path fill="#BCBCBC" d="M313.6,355.6c-13.6,0.7-26.9,0.2-40.4-1.1c-14.3-1.3-28.6-3.1-42.9-4.1c-13.5-1-26.9-0.9-40.4-1.2c-24-0.4-47.6,0.2-71.4,2.6c-6,0.6-15.2,1.4-19.4,6.3c-5.1,5.9,1.3,14,8,14.4c0.5,0,0.9,0.1,1.4,0.2c5.8-10.6,20.7-15.1,33.7-14.1c13.7,1,29.3,7.2,36.7,19.4c0.5,0.8,0.9,1.6,1.3,2.4c42.8,0,85.5-1.8,128.3-2c0-1.2,0.1-2.4,0.2-3.6c0.2-2.9,2.2-4.2,4.4-4.3c2.3-8.7,10.4-13.8,19.5-16.1C326.2,354.9,319.9,355.3,313.6,355.6z"/><path fill="#14B6B9" d="M104.7 231.9c-.9-3.9-3.3-10.6-2.9-16-18.1 1.3-36.2 3.4-54 7.3-.4.1-.8.1-1.1.1.6 1 .9 2.3.7 3.7 0 .2-.1.2-.1.2 0 .1.1.3.1.7 0-.2.3 1.6.2 1.1.5 1.8 1 3.6 1.7 5.3 1.6 4.2 3.5 8.3 5.5 12.3 1.3 2.6 2.6 5.2 4 7.7-.5-2.9 1-6 4.8-5.9 15.4.5 30.7 1.1 46.1 1.8C107.9 244.2 106.2 238.1 104.7 231.9zM117 273.6c-1.3-4.1-2.6-8.1-3.9-12.2-16.2-.7-32.4-1.4-48.6-1.9-1.5 0-2.7-.6-3.6-1.4 2.9 5.3 5.9 10.6 9 15.8 5.2 8.9 11 17.7 16.5 26.6 10.3 0 20.6-.1 30.9-.2 3 0 6-.1 9-.1C122.9 291.3 119.9 282.5 117 273.6zM132.9 318.4c-1-2.4-1.9-4.9-2.8-7.3-12.5.2-25 .3-37.5.4 5.4 9.8 10 19.9 12.5 30.7.1.3.1.6.1.9 3-.8 6.1-1.4 9.1-1.8 3.7-.5 7.5-.2 11.1-.7 5.2-.8 10.5-1.3 15.8-1.7C137.9 332.4 135.4 324.8 132.9 318.4z"/><path fill="#D6E5E5" d="M170.1,385c-6.6-11-21.2-16-33.5-15.5c-11.8,0.5-21.7,5.4-19.1,18.1c0.8,3.7-2,5.7-5,5.6c4.1,16.2,21,25.9,38.1,23.5c7.5-1,16.2-4.4,19.8-11.7C173.3,399.1,173.6,390.8,170.1,385z"/><path d="M417.3,100.6c-15.1,0.2-31.6,2.6-43.3,13c-15.1,13.6-17.1,35.4-17,54.4c0.1,9.2,0.8,18.3,1.2,27.5c-9.3-2.6-20-2.2-29-1.6c-15,1-29.8,1.6-44.8,1.7c-16,0-32.9-1.1-48.8,1.3c-63.5,9.7-128.4,2.4-191.5,16c-4.2,0.9-4.5,5-2.6,7.8c-2.3,0-4.5,1.3-5,4.3c-1.1,7.2,2.9,15,5.8,21.3c4.7,10.2,10.3,20,15.9,29.8c4.8,8.4,9.7,16.8,14.8,25c8.9,14.1,17.8,28.5,21.7,44.8c0.1,0.5,0.3,1,0.5,1.4c-1.6,1.1-3.2,2.3-4.5,3.7c-3.1,3.2-3.7,7.1-4.4,11.2c-1.5,8.5,6,17.5,14.2,20.3c-0.2,2.4-0.1,4.8-0.1,7.1c0,10.8,7.5,22.2,15.6,28.6c14.7,11.7,36.5,13,52.7,3.7c10.9-6.3,15.8-18.6,14.5-30.4c42.2-0.1,84.3-1.8,126.4-2c2.8,11,9.8,20.4,20,26.9c12.3,8,29.6,9.7,41.9,0.9c12.2-8.7,18.5-29.2,12.7-43.2c-2.3-5.5-6.3-9.9-11.1-13.2c4.1,1.3,8.4,1.6,12.7,0.2c7.5-2.5,11.2-11.8,13.4-18.5c5.4-16.6,4.3-34.6,6-51.8c2.8-28.1,2.1-56.2,2.1-84.4c0-11.9,0.2-24.7,4.6-35.9c3.7-9.2,12.9-14.1,21.9-16.9c14.2-4.5,29.8-4.3,44.6-4.3c2.5,0,4.4-2.2,5-4.4C492,108.4,443.1,100.2,417.3,100.6z M293.5,229.5c0.6-4.4,1.4-8.8,2.6-13.1c0.7-2.4,2.2-5.2,3-5.8c1.7-1.1,2.4-2.7,2.4-4.3c10.8-0.4,21.5-1.1,32.3-1.7c8.4-0.4,18.9-0.7,26.3,3.5c0.4,0.3,0.8,0.5,1.2,0.7c3.2,2.1,5.7,5.2,6.9,9.6c1.9,6.6,0.7,14.2-0.4,20.8c-0.1,0.7-0.2,1.3-0.3,2c-1.7-0.9-4-0.7-5.8-0.8c-1.6,0-2.7,0.5-3.5,1.3c-0.2,0-0.5,0.1-0.7,0.1c-2.6,0.3-5.2,0.5-7.7,0.6c-6,0.1-12.8,2.6-18.8,3.8c-7,1.4-13.9,2.7-21,3.8c-6,0.9-12.1,1.6-18.1,2.2C292,244.6,292.5,237,293.5,229.5z M288.6,292.5c0.9-7.3,2.9-14.9,2.9-22.2c0-2.4,0-4.7,0.1-7.1c8.3-0.8,16.7-1.8,25-3.1c6.3-1,12.6-2.4,18.9-3.6c5.5-1.1,11.1-2.8,16.7-3.1c3.7-0.2,9.3,0,13.4-1.5c-1.2,6.7-2.3,13.4-3.3,20.2c-1.2,8-2.4,15.9-3.8,23.9c-2.2-0.9-4.5-1.4-6.6-1.8c-7.3-1.4-14.9-1.5-22.3-1.6c-13.7-0.1-27.4,0.6-41.1,1.5C288.5,293.6,288.5,293.1,288.6,292.5z M356,307.9c-2.6,11.5-6,22.9-10.9,33.7c-0.2,0.4-0.3,0.8-0.4,1.2c-11.9,0.5-23.8,1.5-35.8,2c-7.9,0.3-15.7,0.1-23.5-0.3c0-0.3,0.1-0.6,0.1-0.9c0-12.8,0.6-25.5,1.8-38.2c8.2-0.5,16.4-1.1,24.6-1.4c8.8-0.4,17.6-0.5,26.4-0.2c5.3,0.2,12.4,0.8,16.2,2.5c0.2,0.1,0.7,0.4,1,0.6c0,0.1,0.1,0.1,0.1,0.2C355.6,307.4,355.8,307.6,356,307.9z M217.1,210.2c8.4-0.8,16.8-2.5,25.2-3c15.3-0.9,30.6-0.7,45.9-0.8c-3,4.9-4.1,11.4-5,16.6c-1.7,9.9-2.2,20.1-2.5,30.1c-17.6,1.2-35.2,1.5-52.9,1.3c-8-0.1-16-0.3-24.1-0.5c-0.7-3.1-1.4-6.2-2.1-9.3c-2.6-10.9-5.4-21.7-7.7-32.6C201.7,211.6,209.4,211,217.1,210.2z M264.5,342.7c-1-0.1-1.9-0.2-2.9-0.3c-11.4-1.2-22.7-2.3-34.1-3.1c-0.1-0.4-0.2-0.8-0.3-1.2c-3.8-9.6-6.8-19.4-9.5-29.3c14.1-0.4,28.2-0.9,42.2-1.7c5.4-0.3,10.9-0.7,16.3-1c-0.9,10.3-1.4,20.6-1.6,30.9c-0.3-0.4-0.6-0.8-1-1.1c-1.1-1-2.6-1.5-4.1-1.4c-1.4,0.1-2.8,0.8-3.7,1.9c-1,1.2-1.4,2.5-1.4,4.1v2C264.5,342.5,264.5,342.6,264.5,342.7z M274.4,295.1c-19.8,1.4-39.7,2.4-59.6,3.1c-1.8-7-3.6-14-5.6-20.9c-1.1-4.1-2.1-8.2-3.1-12.4c8.8,0.2,17.6,0.4,26.5,0.5c16,0.2,32-0.2,47.9-1.3c0,1.6,0,3.3,0,4.9c0,7.1-1.8,14.3-2.7,21.4c-0.2,1.5-0.4,3-0.5,4.5C276.3,295,275.3,295.1,274.4,295.1z M182.8,309.8c7.8-0.2,15.7-0.4,23.6-0.7c2.7,10,5.6,19.9,9.2,29.5c-0.1,0-0.2,0-0.3,0c-15-0.6-30-0.5-45-0.7c-5.4,0-10.9,0-16.3,0.1c-4.6-6-7-14.2-10-21.7c-0.7-1.8-1.4-3.7-2.1-5.6C155.5,310.6,169.2,310.2,182.8,309.8z M137.8,300c-3-8.3-5.9-16.7-8.7-25.1c-1.5-4.3-2.9-8.7-4.3-13.1c23.3,1,46.7,2,70.1,2.7c1.1,5,2.2,10,3.6,14.9c1.8,6.3,3.5,12.7,5.1,19.1C181.6,299.3,159.7,299.7,137.8,300z M112.9,215.9C112.9,215.9,112.9,215.9,112.9,215.9c0.1-0.3,0.1-0.5,0.2-0.7c10.8-0.6,21.5-1,32.3-1.3c12.6-0.4,25.1-0.7,37.6-1.3c2.2,10.8,4.9,21.4,7.5,32.1c0.7,3,1.4,5.9,2,8.9c-23.7-0.7-47.4-1.8-71.1-2.8c-1.6-5.3-3.1-10.5-4.6-15.8c-1.3-4.6-2.5-9.7-3.3-13.7c-0.3-1.5-0.5-3.1-0.6-4.7C112.9,216.4,112.9,216.2,112.9,215.9z M58.8,254.4c-1.4-2.6-2.7-5.1-4-7.7c-2-4-3.9-8.1-5.5-12.3c-0.7-1.7-1.2-3.5-1.7-5.3c0.1,0.6-0.2-1.2-0.2-1.1c-0.1-0.5-0.1-0.7-0.1-0.7c0,0,0,0,0.1-0.2c0.2-1.5-0.1-2.7-0.7-3.7c0.4,0,0.7-0.1,1.1-0.1c17.8-3.8,35.9-6,54-7.3c-0.4,5.4,1.9,12.1,2.9,16c1.5,6.2,3.2,12.3,5,18.4c-15.4-0.7-30.7-1.3-46.1-1.8C59.8,248.4,58.3,251.5,58.8,254.4z M69.8,273.9c-3-5.2-6.1-10.5-9-15.8c0.9,0.8,2.1,1.3,3.6,1.4c16.2,0.5,32.4,1.2,48.6,1.9c1.3,4.1,2.6,8.1,3.9,12.2c2.9,8.9,6,17.8,9.1,26.6c-3,0-6,0.1-9,0.1c-10.3,0.1-20.6,0.2-30.9,0.2C80.8,291.5,74.9,282.7,69.8,273.9z M92.7,311.5c12.5,0,25-0.2,37.5-0.4c0.9,2.5,1.8,4.9,2.8,7.3c2.5,6.4,4.9,13.9,8.4,20.4c-5.3,0.4-10.5,0.9-15.8,1.7c-3.6,0.5-7.4,0.3-11.1,0.7c-3.1,0.4-6.1,1-9.1,1.8c0-0.3-0.1-0.6-0.1-0.9C102.6,331.4,98.1,321.3,92.7,311.5z M170.4,405.1c-3.6,7.3-12.3,10.6-19.8,11.7c-17.1,2.4-34-7.4-38.1-23.5c3,0,5.8-1.9,5-5.6c-2.6-12.6,7.3-17.6,19.1-18.1c12.4-0.5,26.9,4.4,33.5,15.5C173.6,390.8,173.3,399.1,170.4,405.1z M313,370.6c-2.2,0.1-4.1,1.4-4.4,4.3c-0.1,1.2-0.2,2.4-0.2,3.6c-42.8,0.2-85.5,1.9-128.3,2c-0.4-0.8-0.8-1.6-1.3-2.4c-7.4-12.3-23-18.4-36.7-19.4c-13-1-27.9,3.5-33.7,14.1c-0.4-0.1-0.9-0.2-1.4-0.2c-6.7-0.4-13.1-8.5-8-14.4c4.2-4.9,13.4-5.7,19.4-6.3c23.8-2.3,47.5-3,71.4-2.6c13.5,0.2,27,0.2,40.4,1.2c14.3,1.1,28.6,2.8,42.9,4.1c13.5,1.3,26.9,1.7,40.4,1.1c6.3-0.3,12.6-0.7,18.9-1.1C323.4,356.8,315.2,361.9,313,370.6z M374.4,379.2c2.5,6.5,0.2,14.8-2.5,20.8c-2.7,5.8-7.8,10.5-14.1,11.8c-13.8,2.9-27.9-5.9-34.7-17.5c-1.9-3.3-3.1-7.2-3.5-11.1c2.4-0.5,4.3-2.4,4-5.6c-0.5-4.7,1.1-7.5,5.1-10.1c4.5-2.9,10.8-3.6,16.2-3.7C355.8,363.7,370.2,368,374.4,379.2z M473.4,138.5c-18.9,0.1-38.7,0.9-55.5,10.2c-21.3,11.8-21.6,38.7-21.5,60.2c0,27.5,0.2,54.6-2.1,82c-1.4,17.1-0.3,35.7-6.7,51.9c-1.1,2.8-2.5,5.3-4.6,7.4c-2.2,2.2-6.1,0.5-8.4-0.5c-3.8-1.6-9.3-5-13.7-4.7c-0.9-1.4-2.5-2.3-4.1-2.5c10.8-25.5,14-53.2,18.2-80.4c2.7-17.4,11.3-41-0.9-56.8c-1.3-1.7-2.8-3.2-4.5-4.5c-0.7-30.9-10.1-79.6,30.3-87.5c15.6-3.1,32.4-2.4,47.8,1.4c11.8,3,26,9.5,25.9,23.6C473.4,138.4,473.4,138.5,473.4,138.5z"/><path d="M255.1,138.3c-3.9-16.6-18.4-25.3-34.3-23.2c-1.6-8.9-3-17.8-3.9-26.7c-0.4-4.2-1-9.2-0.4-13.9c5.5-0.2,11.6,0.4,15.9,3.7c5.6,4.3,12.9-3.9,7.3-8.3c-5.8-4.4-12.7-6.3-19.9-6.5c-0.4-4.3-7.6-6.7-10.7-1.8c-0.5,0.9-1,1.8-1.4,2.7c-4.6,0.8-9.2,2-13.3,3.4c-0.9,0.3-1.9,0.7-2.8,1c0-0.1,0-0.2,0-0.3c0-0.3,0.1-0.5,0.1-0.7c2.3-2,3.1-5.5-0.1-7.7c-9.2-6.3-11,4.7-11.2,14.1c-10.2,6-18.8,14.5-22.4,25.9c-2.6,8.4-0.2,17.4,3.8,24.9c4.2,8,12.5,11.5,21.2,11.5c0.3,0,0.7,0,1,0c-0.4,8.6-0.7,17.2-0.5,25.8c0,1.2,0.1,2.3,0.1,3.6c-1.6-0.4-3.2-0.9-4.8-1.4c-0.8-2.1-2.6-3.8-5.4-3.8h-6c-5.4,0-6.9,8.3-2,10.4c6.1,2.6,12.6,4.9,19.3,6.6c0.8,4.3,2.2,8.3,4.6,11.6c4.2,5.7,13.4-0.5,9.1-6.2c-0.7-0.9-1.3-2-1.7-3.1c6.6,0.9,13.2,1.3,19.7,0.9c0.1,0.4,0.2,0.7,0.3,1.1c1.7,6.4,11,3.6,10.6-2.4c1.6-0.3,3.1-0.7,4.7-1.1C250.1,173.5,259.3,156.2,255.1,138.3z M172.1,120.5c-9.3-12.7-1.6-25.2,8.8-33.4c0.8,12.7,3.4,25.5,3.5,38.2C179.7,125.6,175.2,124.7,172.1,120.5z M193.4,104.3c-0.8-7.7-1.5-15.3-1.8-23c0-0.2,0-0.5,0-0.7c4.4-2.1,9.1-3.6,13.8-4.7c-0.1,3.3,0,6.5,0.2,9.5c0.6,10.3,2.4,20.5,4.2,30.7c0.1,0.5,0.2,1.1,0.3,1.6c-4.9,1.6-9.7,3.5-14.6,5.1C195.4,116.7,194.1,110.4,193.4,104.3z M205.5,169.5c-3.6-0.3-7.1-0.7-10.7-1.3c-0.1-2-0.1-3.9-0.2-5.7c-0.4-9.3,0-18.7,0.4-28c4.7-1.3,9.3-3.1,13.8-4.6c1-0.4,2.1-0.7,3.1-1.1c0.7,5.1,1.3,10.2,1.5,15.5c0.3,8.5,0.3,17.1,1.2,25.6C211.5,169.9,208.4,169.7,205.5,169.5z M238.1,163.5c-3.6,2.8-8,4.5-12.7,5.4c-1-8.4-0.8-17.1-1-25.4c-0.2-5.9-0.9-11.8-1.8-17.6c2.8-0.4,5.7-0.4,8.6,0.2C246.7,129.6,249.8,154.2,238.1,163.5z"/></svg>