<svg xmlns="http://www.w3.org/2000/svg"  viewBox="0 0 100 100" width="48px" height="48px"><path fill="#c7ede6" d="M87.215,56.71C88.35,54.555,89,52.105,89,49.5c0-6.621-4.159-12.257-10.001-14.478 C78.999,35.015,79,35.008,79,35c0-11.598-9.402-21-21-21c-9.784,0-17.981,6.701-20.313,15.757C36.211,29.272,34.638,29,33,29 c-7.692,0-14.023,5.793-14.89,13.252C12.906,43.353,9,47.969,9,53.5C9,59.851,14.149,65,20.5,65c0.177,0,0.352-0.012,0.526-0.022 C21.022,65.153,21,65.324,21,65.5C21,76.822,30.178,86,41.5,86c6.437,0,12.175-2.972,15.934-7.614C59.612,80.611,62.64,82,66,82 c4.65,0,8.674-2.65,10.666-6.518C77.718,75.817,78.837,76,80,76c6.075,0,11-4.925,11-11C91,61.689,89.53,58.727,87.215,56.71z"/><path fill="#fdfcef" d="M66.5,40.5V41h-3v-0.5c0,0-4.242,0-5.5,0c-2.485,0-4.5-2.015-4.5-4.5 c0-2.333,1.782-4.229,4.055-4.455C57.533,31.364,57.5,31.187,57.5,31c0-2.485,2.015-4.5,4.5-4.5c1.438,0,2.703,0.686,3.527,1.736 C65.667,25.6,67.829,23.5,70.5,23.5c2.761,0,5,2.239,5,5c0,0.446-0.077,0.87-0.187,1.282c0.642-0.777,1.6-1.282,2.687-1.282 c1.781,0,3.234,1.335,3.455,3.055C81.636,31.533,81.813,31.5,82,31.5c2.485,0,4.5,2.015,4.5,4.5s-2.015,4.5-4.5,4.5s-9.5,0-9.5,0 H66.5z"/><path fill="#472b29" d="M70.5,23c3.033,0,5.5,2.467,5.5,5.5c0,0.016,0,0.031,0,0.047C76.602,28.192,77.29,28,78,28 c1.831,0,3.411,1.261,3.858,3.005C81.905,31.002,81.952,31,82,31c2.757,0,5,2.243,5,5s-2.243,5-5,5H66.5 c-0.276,0-0.5-0.224-0.5-0.5s0.224-0.5,0.5-0.5H82c2.206,0,4-1.794,4-4s-1.794-4-4-4c-0.117,0-0.23,0.017-0.343,0.032 l-0.141,0.019c-0.021,0.003-0.041,0.004-0.062,0.004c-0.246,0-0.462-0.185-0.495-0.437C80.768,30.125,79.496,29,78,29 c-0.885,0-1.723,0.401-2.301,1.1c-0.098,0.118-0.241,0.182-0.386,0.182c-0.078,0-0.156-0.018-0.228-0.056 c-0.209-0.107-0.314-0.346-0.254-0.573C74.946,29.218,75,28.852,75,28.5c0-2.481-2.019-4.5-4.5-4.5 c-2.381,0-4.347,1.872-4.474,4.263c-0.011,0.208-0.15,0.387-0.349,0.45c-0.05,0.016-0.101,0.024-0.152,0.024 c-0.15,0-0.296-0.069-0.392-0.192C64.362,27.563,63.221,27,62,27c-2.206,0-4,1.794-4,4c0,0.117,0.017,0.23,0.032,0.343 l0.019,0.141c0.016,0.134-0.022,0.268-0.106,0.373c-0.084,0.105-0.207,0.172-0.34,0.185C55.549,32.247,54,33.949,54,36 c0,2.206,1.794,4,4,4h5.5c0.276,0,0.5,0.224,0.5,0.5S63.776,41,63.5,41H58c-2.757,0-5-2.243-5-5c0-2.397,1.689-4.413,4.003-4.877 C57.001,31.082,57,31.041,57,31c0-2.757,2.243-5,5-5c1.176,0,2.293,0.416,3.183,1.164C65.781,24.76,67.945,23,70.5,23L70.5,23z"/><path fill="#472b29" d="M72 30c1.403 0 2.609.999 2.913 2.341C75.28 32.119 75.699 32 76.125 32c1.202 0 2.198.897 2.353 2.068C78.681 34.022 78.874 34 79.063 34c1.529 0 2.811 1.2 2.918 2.732C81.99 36.87 81.886 36.99 81.749 37c-.006 0-.012 0-.018 0-.13 0-.24-.101-.249-.232-.089-1.271-1.151-2.268-2.419-2.268-.229 0-.47.042-.738.127-.022.007-.045.01-.067.01-.055 0-.11-.02-.156-.054C78.038 34.537 78 34.455 78 34.375c0-1.034-.841-1.875-1.875-1.875-.447 0-.885.168-1.231.473-.047.041-.106.063-.165.063-.032 0-.063-.006-.093-.019-.088-.035-.148-.117-.155-.212C74.377 31.512 73.288 30.5 72 30.5c-.208 0-.425.034-.682.107-.023.007-.047.01-.07.01-.109 0-.207-.073-.239-.182-.038-.133.039-.271.172-.309C71.483 30.04 71.744 30 72 30L72 30zM58.117 31.5c1.326 0 2.508.897 2.874 2.182.038.133-.039.271-.172.309C60.795 33.997 60.772 34 60.75 34c-.109 0-.209-.072-.24-.182C60.205 32.748 59.221 32 58.117 32c-.117 0-.23.014-.342.029-.012.002-.023.003-.035.003-.121 0-.229-.092-.246-.217-.019-.137.077-.263.214-.281C57.842 31.516 57.978 31.5 58.117 31.5L58.117 31.5z"/><path fill="#fff" d="M15.5 55h-10C5.224 55 5 54.776 5 54.5S5.224 54 5.5 54h10c.276 0 .5.224.5.5S15.777 55 15.5 55zM18.5 55h-1c-.276 0-.5-.224-.5-.5s.224-.5.5-.5h1c.276 0 .5.224.5.5S18.777 55 18.5 55zM23.491 57H14.5c-.276 0-.5-.224-.5-.5s.224-.5.5-.5h8.991c.276 0 .5.224.5.5S23.767 57 23.491 57zM12.5 57h-1c-.276 0-.5-.224-.5-.5s.224-.5.5-.5h1c.276 0 .5.224.5.5S12.777 57 12.5 57zM9.5 57h-2C7.224 57 7 56.776 7 56.5S7.224 56 7.5 56h2c.276 0 .5.224.5.5S9.777 57 9.5 57zM15.5 59h-2c-.276 0-.5-.224-.5-.5s.224-.5.5-.5h2c.276 0 .5.224.5.5S15.776 59 15.5 59zM18.5 50c-.177 0-.823 0-1 0-.276 0-.5.224-.5.5 0 .276.224.5.5.5.177 0 .823 0 1 0 .276 0 .5-.224.5-.5C19 50.224 18.776 50 18.5 50zM18.5 52c-.177 0-4.823 0-5 0-.276 0-.5.224-.5.5 0 .276.224.5.5.5.177 0 4.823 0 5 0 .276 0 .5-.224.5-.5C19 52.224 18.776 52 18.5 52zM23.5 54c-.177 0-2.823 0-3 0-.276 0-.5.224-.5.5 0 .276.224.5.5.5.177 0 2.823 0 3 0 .276 0 .5-.224.5-.5C24 54.224 23.776 54 23.5 54z"/><g><path fill="#fff" d="M88.5 67h-10c-.276 0-.5-.224-.5-.5s.224-.5.5-.5h10c.276 0 .5.224.5.5S88.776 67 88.5 67zM92.5 67h-2c-.276 0-.5-.224-.5-.5s.224-.5.5-.5h2c.276 0 .5.224.5.5S92.776 67 92.5 67zM97.5 69h-10c-.276 0-.5-.224-.5-.5s.224-.5.5-.5h10c.276 0 .5.224.5.5S97.777 69 97.5 69zM85.5 69h-1c-.276 0-.5-.224-.5-.5s.224-.5.5-.5h1c.276 0 .5.224.5.5S85.776 69 85.5 69zM82.47 69H80.5c-.276 0-.5-.224-.5-.5s.224-.5.5-.5h1.97c.276 0 .5.224.5.5S82.746 69 82.47 69zM91.5 65h-5c-.276 0-.5-.224-.5-.5s.224-.5.5-.5h5c.276 0 .5.224.5.5S91.777 65 91.5 65zM88.5 71h-2c-.276 0-.5-.224-.5-.5s.224-.5.5-.5h2c.276 0 .5.224.5.5S88.776 71 88.5 71z"/></g><g><path fill="#f9e65c" d="M32.847,68.3c-2.838,0-5.147-2.309-5.147-5.147V41.848c0-2.839,2.309-5.147,5.147-5.147h37.305 c2.839,0,5.147,2.309,5.147,5.147v21.305c0,2.839-2.309,5.147-5.147,5.147H32.847z"/><path fill="#472b29" d="M70.153,37.4c2.452,0,4.447,1.995,4.447,4.447v21.306c0,2.452-1.995,4.447-4.447,4.447H32.847 c-2.452,0-4.447-1.995-4.447-4.447V41.847c0-2.452,1.995-4.447,4.447-4.447H70.153 M70.153,36H32.847 C29.618,36,27,38.618,27,41.847v21.306C27,66.382,29.618,69,32.847,69h37.305C73.382,69,76,66.382,76,63.153V41.847 C76,38.618,73.382,36,70.153,36L70.153,36z"/><path fill="#bb7a54" d="M28.333 41.625H74.666V47.625H28.333z"/><path fill="#fefdef" d="M31.5 50.5H55.5V54.5H31.5z"/><path fill="#472b29" d="M55.5,55h-24c-0.276,0-0.5-0.224-0.5-0.5v-4c0-0.276,0.224-0.5,0.5-0.5h24 c0.276,0,0.5,0.224,0.5,0.5v4C56,54.776,55.776,55,55.5,55z M32,54h23v-3H32V54z"/><path fill="#fefdef" d="M59.5 50.5H67.5V54.5H59.5z"/><path fill="#472b29" d="M67.5,55h-8c-0.276,0-0.5-0.224-0.5-0.5v-4c0-0.276,0.224-0.5,0.5-0.5h8c0.276,0,0.5,0.224,0.5,0.5 v4C68,54.776,67.776,55,67.5,55z M60,54h7v-3h-7V54z"/><path fill="#ceccbe" d="M38.333,64.5h-4.667c-1.197,0-2.167-0.97-2.167-2.167v-2.667c0-1.197,0.97-2.167,2.167-2.167h4.667 c1.197,0,2.167,0.97,2.167,2.167v2.667C40.5,63.53,39.53,64.5,38.333,64.5z"/><path fill="#472b29" d="M38.333 65h-4.667C32.196 65 31 63.804 31 62.333v-2.666C31 58.196 32.196 57 33.667 57h4.667C39.804 57 41 58.196 41 59.667v2.666C41 63.804 39.804 65 38.333 65zM33.667 58C32.748 58 32 58.748 32 59.667v2.666C32 63.252 32.748 64 33.667 64h4.667C39.252 64 40 63.252 40 62.333v-2.666C40 58.748 39.252 58 38.333 58H33.667zM59.5 59h-14c-.276 0-.5-.224-.5-.5s.224-.5.5-.5h14c.276 0 .5.224.5.5S59.776 59 59.5 59zM66.5 62h-21c-.276 0-.5-.224-.5-.5s.224-.5.5-.5h21c.276 0 .5.224.5.5S66.776 62 66.5 62zM54.5 65h-9c-.276 0-.5-.224-.5-.5s.224-.5.5-.5h9c.276 0 .5.224.5.5S54.776 65 54.5 65zM63.5 65h-6c-.276 0-.5-.224-.5-.5s.224-.5.5-.5h6c.276 0 .5.224.5.5S63.776 65 63.5 65zM70.5 59h-8c-.276 0-.5-.224-.5-.5s.224-.5.5-.5h8c.276 0 .5.224.5.5S70.776 59 70.5 59zM35.5 42h-8c-.276 0-.5-.224-.5-.5s.224-.5.5-.5h8c.276 0 .5.224.5.5S35.776 42 35.5 42z"/><g><path fill="#472b29" d="M44.5,48h-17c-0.276,0-0.5-0.224-0.5-0.5s0.224-0.5,0.5-0.5h17c0.276,0,0.5,0.224,0.5,0.5 S44.776,48,44.5,48z"/></g><g><path fill="#472b29" d="M75.5,48h-28c-0.276,0-0.5-0.224-0.5-0.5s0.224-0.5,0.5-0.5h28c0.276,0,0.5,0.224,0.5,0.5 S75.776,48,75.5,48z"/></g><g><path fill="#472b29" d="M44.5,42h-5c-0.276,0-0.5-0.224-0.5-0.5s0.224-0.5,0.5-0.5h5c0.276,0,0.5,0.224,0.5,0.5 S44.776,42,44.5,42z"/></g><g><path fill="#472b29" d="M75.5,42h-27c-0.276,0-0.5-0.224-0.5-0.5s0.224-0.5,0.5-0.5h27c0.276,0,0.5,0.224,0.5,0.5 S75.776,42,75.5,42z"/></g></g><g><path fill="#fdfcef" d="M21.5,76.5c0,0-1.567,0-3.5,0s-3.5-1.567-3.5-3.5c0-1.781,1.335-3.234,3.055-3.455 C17.527,69.366,17.5,69.187,17.5,69c0-1.933,1.567-3.5,3.5-3.5c1.032,0,1.95,0.455,2.59,1.165c0.384-1.808,1.987-3.165,3.91-3.165 c2.209,0,4,1.791,4,4c0,0.191-0.03,0.374-0.056,0.558C31.872,67.714,32.408,67.5,33,67.5c1.228,0,2.245,0.887,2.455,2.055 C35.634,69.527,35.813,69.5,36,69.5c1.933,0,3.5,1.567,3.5,3.5s-1.567,3.5-3.5,3.5s-7.5,0-7.5,0V77h-7V76.5z"/><path fill="#472b29" d="M19.75 72c.138 0 .25-.112.25-.25 0-1.223-.995-2.218-2.218-2.218-.034.009-.737-.001-1.244.136-.133.036-.212.173-.176.306.036.134.173.213.306.176.444-.12 1.1-.12 1.113-.118.948 0 1.719.771 1.719 1.718C19.5 71.888 19.612 72 19.75 72zM26.5 76A.5.5 0 1 0 26.5 77 .5.5 0 1 0 26.5 76z"/><path fill="#472b29" d="M18,77h3.5c0.276,0,0.5-0.224,0.5-0.5S21.776,76,21.5,76H18c-1.654,0-3-1.346-3-3 c0-1.496,1.125-2.768,2.618-2.959c0.134-0.018,0.255-0.088,0.336-0.196s0.115-0.244,0.094-0.377C18.025,69.314,18,69.16,18,69 c0-1.654,1.346-3,3-3c0.85,0,1.638,0.355,2.219,1c0.125,0.139,0.321,0.198,0.5,0.148c0.182-0.049,0.321-0.195,0.36-0.379 C24.42,65.165,25.859,64,27.5,64c1.93,0,3.5,1.57,3.5,3.5c0,0.143-0.021,0.28-0.041,0.418c-0.029,0.203,0.063,0.438,0.242,0.54 c0.179,0.102,0.396,0.118,0.556-0.01C32.122,68.155,32.551,68,33,68c0.966,0,1.792,0.691,1.963,1.644 c0.048,0.267,0.296,0.446,0.569,0.405C35.686,70.025,35.84,70,36,70c1.654,0,3,1.346,3,3s-1.346,3-3,3h-7.5 c-0.276,0-0.5,0.224-0.5,0.5s0.224,0.5,0.5,0.5H36c2.206,0,4-1.794,4-4s-1.794-4-4-4c-0.059,0-0.116,0.002-0.174,0.006 C35.412,67.82,34.289,67,33,67c-0.349,0-0.689,0.061-1.011,0.18C31.824,64.847,29.874,63,27.5,63 c-1.831,0-3.466,1.127-4.153,2.774C22.667,65.276,21.845,65,21,65c-2.206,0-4,1.794-4,4c0,0.048,0.001,0.095,0.004,0.142 C15.261,69.59,14,71.169,14,73C14,75.206,15.794,77,18,77z"/><path fill="#472b29" d="M23.5,76c0.159,0,0.841,0,1,0c0.276,0,0.5,0.224,0.5,0.5c0,0.276-0.224,0.5-0.5,0.5 c-0.159,0-0.841,0-1,0c-0.276,0-0.5-0.224-0.5-0.5C23,76.224,23.224,76,23.5,76z"/></g></svg>