<svg xmlns="http://www.w3.org/2000/svg" viewBox="0 0 512 512" width="48px" height="48px"><path fill="#F6851F" d="M414,343.4c-1.6-2-3.4-3.9-5.2-5.8c-10.4,5.2-22.7,7.4-33.9,8.7c-23.6,2.9-47.7,4.6-71.4,5.8c-21.6,1.1-43.4,1.6-65,4.4c-11.5,1.5-23,3.2-34.5,4.6c-28,3.3-58.5,7.1-86.3,0.8c-1.6-0.4-3.3-0.8-5-1.3c-0.6,1.4-2,2.4-4,2.5c-17.5,0.6,4.1,32,8,36.8c6.8,8.5,15,17.2,25.1,21.7c9.6,4.3,19.5,8,29.7,10.9c13.6,3.9,27.5,6.8,41.6,7.8c14.8,1,28.9-1.5,43.5-3.4c15.8-2.1,31.7-3.8,47.6-5.5c13-1.4,26.1-2.3,39-4.6c22.7-4,46.7-12.2,61.2-31.3c7.2-9.5,12.4-22.5,13.9-34.3C419.1,354.5,418.4,348.8,414,343.4z"/><path fill="#EF4823" d="M419.3,195.1c-0.8,0.2-1.7,0.3-2.5,0.4c-8.8,1.4-17.8,1.2-26.6,0.8c-21-0.9-42-1.4-63-3.1c-15.7-1.3-31.3-3-47-3.7c-16-0.7-32.1-0.5-48.1,0c-24.4,0.8-49,1.9-73.3,5.2c-16.3,2.3-32.9,4.4-49.4,4.4c-4.9,0-13,0.2-20.1-1.3c-6.2,6-11.6,15.2-4.9,23.1c4.8,5.6,15.4,4.1,21.9,3.7c0.7,0,1.3-0.1,2-0.1c0.8-0.3,1.7-0.3,2.5-0.1c11.7-0.5,23.3-0.3,35-0.3c16.1-0.1,32.2-0.2,48.3-0.7c32.2-1,64.2-4.2,96.4-5.9c16.3-0.9,32.6-1,48.9-0.4c16.4,0.6,32.9,1.5,49.4,0.6c10.7-0.6,19.5-1.8,27.9-9c2.6-2.2,5.8-5.3,6.1-8.9C422.8,197.7,421.2,196.2,419.3,195.1z"/><path fill="#71C598" d="M233.1,269.7c-3-0.5-6-1-9-1.5c-0.3,0.9-0.9,1.8-1.9,2.6c-6.1,4.5-15,5.1-22.3,5.5c-6.3,0.4-12.7,0.6-19,1.1c0,0.2,0,0.5-0.1,0.7c-1.8,8.8-4.2,18.2-4.4,27.2c-0.1,6.4-10.1,7.2-10,0.8c0.2-9.3,2.3-18.6,4.1-27.7c-3.9,0.4-7.9,0.8-11.8,1.1c-5.8,8.4-12.4,16.2-19.6,23.5c-4.5,4.6-12.1-2-7.5-6.6c5-5,9.7-10.3,14-15.9c-11.9,0.7-23.8,0.6-35.8-1.6c-1.8-0.3-3.6-0.7-5.4-1.2c-0.2,0.2-0.5,0.5-0.7,0.7c-5.2,4.1-12.8,5.2-19,6.8c-6.8,1.8-14.9,3.5-20.4,8.3c-6,5.2,0.7,15,6.3,17.4c8.7,3.9,19-0.2,28-0.8c7.5-0.5,16.2,0.5,20.3,7.8c3.1,5.5,3.4,11.6,5.8,17.3c2.5,6.1,11,3.9,15.8,0.8c8.8-5.7,17-14.3,28.5-9.9c4,1.6,7.5,5.2,11.8,6c4.4,0.9,10.2,0.3,13.4-3.3c3.4-3.9,6.7-8.1,9.7-12.3c2.3-3.2,5.3-6.6,9.3-7.7c8.3-2.3,17.3,1.8,24.8-3.9c6.3-4.9,9.2-12.7,14.6-18.4c4.7-5.1,11.1-8.3,17.9-8.4C258.3,274,245.5,271.8,233.1,269.7z"/><path fill="#ED2224" d="M188.2,262.2c-12.7-2.3-25.2-5.2-37.9-7.5c-10.2-1.8-20.6-3.8-30.3-7.8c-4.7-1.9-12.4-5.4-16-10.3c-1.7,0.6-3.7,0.4-5-0.7c-0.7,0-1.4,0-1.8,0.2c-1.8,0.6-3.5,1.2-5.1,2.3c-2.8,2.1-5.4,5-5.8,8.6c-0.6,5.9,2.2,11.7,7,15.1c9,6.6,21.8,7.7,32.6,8.5c9.2,0.7,18.4,0.1,27.5-0.8c1.4-1.4,3.2-1.3,4.8-0.5c7.9-0.8,15.8-1.8,23.7-2.3c6.6-0.4,13.3-0.4,19.9-1.1c1.9-0.2,3.9-0.3,6-0.6C201.2,264.5,194.7,263.4,188.2,262.2z"/><path fill="#FEBF10" d="M161.9 233.9c-15.1.1-30.2-.3-45.3.2 1 .7 2.1 1.3 3.2 1.8 4.3 2.1 8.7 3.7 13.3 4.9 8.8 2.4 17.8 3.7 26.7 5.4 5.2 1 10.4 2 15.6 3.1-.1-.5-.1-1.1 0-1.8 1.3-7.3 8.4-11.6 14.7-14.3C180.8 233.6 171.4 233.8 161.9 233.9zM228.8 240.3c-4-3.7-9.2-3.3-14.6-2.7-6.6.7-13.3 2.1-19.4 4.7-3.2 1.3-8.8 3.6-9.5 7.3-.1.7-.3 1.2-.6 1.7 5.5 1.1 11 2.1 16.5 3 12.4 2 24.8 3.9 37.2 6.1C238.1 253.2 234 245.1 228.8 240.3z"/><path fill="#F6851F" d="M425.7 172.4c-.7-5.5-2-10.9-3.5-16.3-2.8-9.8-5.8-20.2-10.3-29.4-5-10.1-12.6-18.3-23-23-9.9-4.5-20.8-6.3-31.4-8.4-3.5-.7-7.1-1.4-10.6-2.1 3.2 2.6 2.6 8.9-2.5 8.9-5.9 0-7-8.5-2.1-9.8-24.3-4.9-48.5-9.6-73.5-10.9-28-1.5-56.6-.3-83.9 6.5-25.4 6.4-47.1 17.9-66.1 35.9-16.1 15.2-33.6 37-34 60.4.3 1.2.3 1.1 1.1 1.6.6.3 1.1.6 1.7.8 1.8-.7 3.5 0 4.7 1.4 5.1 1 10.2 1.2 15.4 1.2 13.2 0 26.4-1.3 39.5-3 50.9-6.4 102.7-9.5 154-5.2 15.8 1.3 31.6 3 47.4 3.7 10.1.5 20.2.5 30.3 1.1 9.2.6 18.5 1.2 27.7.7 1.6-.1 4.1-.1 6.7-.4 1.2-1.9 3.6-3.2 6.3-2 .4.2.8.4 1.2.6 1-.4 1.9-.8 2.6-1.3.3-.7.8-1.4 1.6-1.9C426.5 180.4 426 174.6 425.7 172.4zM143.3 148.6c-6.4 0-7.2-10-.8-10C149 138.6 149.8 148.6 143.3 148.6zM183.8 97.5c-.1.8-.6 2.1-1.3 2.7-1 .9-1 1-2.2 1.5-.5.2-1 .3-1.5.3-.3 0-.6 0-.9 0-1.4 0-2.6-.3-3.7-1.2-1-.9-1.6-2.1-1.7-3.4-.1-1.3.3-2.7 1.2-3.7.3-.3.7-.7 1.1-.9.1-.2.3-.4.4-.6.9-1 2.1-1.6 3.4-1.7 1.3-.1 2.7.3 3.7 1.2.9.8 1.7 2.1 1.7 3.4C183.9 96 183.9 96.8 183.8 97.5zM204.9 116.2c0 1.4-.3 2.6-1.2 3.7-.9 1-2.1 1.6-3.4 1.7-1.3.1-2.7-.3-3.7-1.2-.9-.8-1.7-2.1-1.7-3.4v-1.5c0-1.4.3-2.6 1.2-3.7.9-1 2.1-1.6 3.4-1.7 1.3-.1 2.7.3 3.7 1.2.9.8 1.7 2.1 1.7 3.4V116.2zM222.8 105.1c-6.4 0-7.2-10-.8-10C228.5 95.1 229.3 105.1 222.8 105.1zM245.7 121.4c-.8.9-2.1 1.7-3.4 1.7h-1.5c-1.4 0-2.6-.3-3.7-1.2-1-.9-1.6-2.1-1.7-3.4-.1-1.3.3-2.7 1.2-3.7.8-.9 2.1-1.7 3.4-1.7h1.5c1.4 0 2.6.3 3.7 1.2 1 .9 1.6 2.1 1.7 3.4C247 119.1 246.6 120.4 245.7 121.4zM257.4 134.2c0 1.4-.3 2.6-1.2 3.7-.9 1-2.1 1.6-3.4 1.7-1.3.1-2.7-.3-3.7-1.2-.9-.8-1.7-2.1-1.7-3.4v-1.5c0-1.4.3-2.6 1.2-3.7.9-1 2.1-1.6 3.4-1.7 1.3-.1 2.7.3 3.7 1.2.9.8 1.7 2.1 1.7 3.4V134.2zM273.8 102.1c-6.4 0-7.2-10-.8-10C279.5 92.1 280.3 102.1 273.8 102.1zM303.9 138.7c0 1.4-.3 2.6-1.2 3.7-.9 1-2.1 1.6-3.4 1.7-1.3.1-2.7-.3-3.7-1.2-.9-.8-1.7-2.1-1.7-3.4V138c0-1.4.3-2.6 1.2-3.7.9-1 2.1-1.6 3.4-1.7 1.3-.1 2.7.3 3.7 1.2.9.8 1.7 2.1 1.7 3.4V138.7zM311.3 109.5c-.2.8-.6 2.1-1.3 2.7-1 .9-1 1-2.2 1.5-.5.2-1 .3-1.5.3-.3 0-.6 0-.9 0-1.4 0-2.6-.3-3.7-1.2-1-.9-1.6-2.1-1.7-3.4-.1-1.3.3-2.7 1.2-3.7.3-.3.7-.7 1.1-.9.1-.2.3-.4.4-.6.9-1 2.1-1.6 3.4-1.7 1.3-.1 2.7.3 3.7 1.2.9.8 1.7 2.1 1.7 3.4C311.4 108 311.4 108.8 311.3 109.5zM335.3 138.1c-6.4 0-7.2-10-.8-10C341 128.1 341.8 138.1 335.3 138.1zM377.4 132.7c0 1.4-.3 2.6-1.2 3.7-.9 1-2.1 1.6-3.4 1.7-1.3.1-2.7-.3-3.7-1.2-.9-.8-1.7-2.1-1.7-3.4V132c0-1.4.3-2.6 1.2-3.7.9-1 2.1-1.6 3.4-1.7 1.3-.1 2.7.3 3.7 1.2.9.8 1.7 2.1 1.7 3.4V132.7zM276.4 228.4c-.5 1.1-1.4 2-2.9 2.5-3.7 1.2 1.7 5.2 3.7 5.7 3.4.9 6.9 1.1 10.4.4 5.1-.9 12.1-3.9 12.2-9.9C292.1 227.4 284.3 227.8 276.4 228.4z"/><path fill="#71C598" d="M438.1,269.2c-0.2-1.7-0.1-5-1.2-6.4c-2.4-3.3-6.2-6.2-9.7-8.2c-0.8-0.4-1.4-1-1.8-1.6c-2,0.9-4.2,1.7-6.3,2.3c-13.2,3.7-27,3.2-40.6,4c1.7,6.9,4.5,13.8,8.6,19.5c3.8,5.3-4.5,10.8-8.3,5.6c-5.1-7.1-8.3-15.7-10.3-24.2c-15,1.6-30,3.7-45,2.3c-0.5,0-0.9-0.1-1.3-0.3c-4,6.1-8,12.2-13.6,16.9c-6.9,5.7-14.2,5.8-21.7,4c5.4,3.2,10.4,7.1,16,10.1c4.2,2.3,8.8,4.3,13.6,2.3c4.4-1.9,8.1-5.1,12.5-7.2c10.4-5,20.8-2.6,28.9,5.2c2.3,2.2,5,4.4,7.9,6.1c0.2-0.1,0.4-0.1,0.6-0.2c3.1-1.2,5.4,0.7,6.2,3.1c3.9,1,8,0.8,11.9-1.3c8.2-4.6,14.1-12,21.5-17.7c4.1-3.2,8.5-5.7,13.8-6.3c4.5-0.5,12.1,1.1,16-1.6C438.2,273.8,438.4,272.1,438.1,269.2z"/><path fill="#FEBF10" d="M349.5,299.4c-6.2-5.5-13.5-4.2-20.1,0.1c-9,5.9-17.6,9.1-27.9,4.2c-8.8-4.2-16.3-12.5-25.8-15.1c-9.1-2.5-14.7,2.1-19.6,9.3c-3.6,5.3-7.1,10.7-12.1,14.5c21.8-0.3,43.8-1.2,65.5-3.2c14.6-1.4,30.1-2.5,44.6-6.1C352.5,302,351.1,300.7,349.5,299.4z"/><path fill="#EF4823" d="M411.1,292.8c-0.2-0.1-0.3-0.3-0.5-0.5c-1.7,1.4-3.4,2.9-5,4.5c-5.7,5.3-12.1,11.2-19.4,14.2h5.3c2.7,0,5.2,1.7,5.4,4.6c0.2,2.6-1.9,5.4-4.6,5.4h-13.5c-2.7,0-5.2-1.7-5.4-4.6c-0.1-1.2,0.3-2.4,1-3.4c-1.7-0.2-3.4-0.5-5.2-1.1c-1.4-0.5-2.8-1-4.1-1.6c-17.1,5.7-36.1,7.1-53.8,8.8c-1.7,0.2-3.4,0.3-5.1,0.4c1.2,0.8,2,2,2.1,3.6c0.2,2.6-1.9,5.4-4.6,5.4h-10.5c-2.7,0-5.2-1.7-5.4-4.6c-0.1-1.1,0.2-2.1,0.8-3.1c-18.5,1.1-37,1.6-55.4,1.7c-3.1,0-4.8-2.2-5.2-4.6c-1.4,0.1-2.8,0-4.3,0c-2.8-0.2-6.7-1-9.1,1c-2.2,1.8-3.2,4.5-5.1,6.5c-1.8,1.8-3.3,3.7-4.9,5.7c-2.6,3.4-5.3,6.6-9.2,8.5c-4.9,2.4-11.5,3.5-16.8,2.1c-4.4-1.2-7.6-3.6-11.6-5.7c-10-5.2-18.1,7.9-26.9,10.8c-7,2.3-16,3.7-21.5-2.5c-4.3-4.8-4.9-11.1-6.7-17c-0.7-2.4-1.5-5-3.7-6.4c-1.7-1.1-4.3-1.3-6.7-1.2c-2.2,4.5-4.2,9.7-4,14.2c0.1,3.7,1.2,7,3.3,9.2c6.7,7,17.7,9.2,27.5,10.5c27.9,3.5,56.8-0.1,84.5-3.7c10-1.3,20-2.9,30.1-4c16.2-1.7,32.5-2.4,48.8-3.2c-1.8-3-0.8-7.6,3.6-7.6h18c3.7,0,5.5,3.3,5.2,6.1c2.4-0.2,4.7-0.3,7.1-0.5c10.8-0.8,21.6-2,32.4-2.8c10.2-0.8,20.7-1.6,30.7-4c4.3-1,8.8-2.2,13.1-4c-2.2-4.5,4.7-8.9,8.6-4.9c1-0.8,1.9-1.6,2.8-2.6C422.3,312.9,420.6,301.2,411.1,292.8z M226.6,345.3c-4.5-3.1-10.7-1.8-15.8-1.8c-6.4,0.1-7.2-9.9-0.8-10c8.4-0.1,15.9-0.8,23.2,4.2C238.5,341.5,231.9,348.9,226.6,345.3z M266.1,335.8c-6.9,1.6-13.8,1.8-20.8,1.8c-6.4,0-7.2-10-0.8-10c6,0,12.3,0.1,18.2-1.2C269,324.9,272.4,334.4,266.1,335.8z M351.8,334.6h-15c-6.4,0-7.2-10-0.8-10h15C357.5,324.6,358.3,334.6,351.8,334.6z"/><path fill="#FEBF10" d="M309.9,226.7c0.1,13.7-15.2,21.3-27.5,20.6c-6.4-0.4-13.1-2-17.1-7.5c-2.4-3.3-3.3-7.1-2.6-10.5c-1.4,0.1-2.8,0.2-4.3,0.3c-8.2,0.6-16.4,1.2-24.6,1.7c0.9,0.7,1.7,1.4,2.5,2.3c5.2,5.8,9.8,13.2,11.4,21.1c0.4,0.7,0.6,1.5,0.6,2.4v3.4c0,0.6-0.1,1.1-0.2,1.6c11.6,2.3,23.2,5.3,34.4,9.3c4.8,1.7,12.5,5,17.3,1.7c4.1-2.8,7.3-6.7,10.2-10.8c6.1-8.6,11.3-17.2,19.5-24c4.9-4,10.1-7.7,15.7-10.7c0.3-0.1,0.5-0.3,0.8-0.5C334,226.8,322,226.5,309.9,226.7z"/><path fill="#ED2224" d="M422.1,217.1c-0.8,0.6-1.6,1.2-2.4,1.8c-6.9,4.7-14,7.4-22.3,8.1c-10.6,0.9-21.2,1-31.8,0.8c-0.4,1.8-1.8,3.3-4.3,3.3c-2.4,0-6.8,2.9-8.9,4.1c-3.1,1.6-6.1,3.4-8.9,5.3c-5.2,3.6-10.5,7.5-14.5,12.4c13.1,0.6,26.3-1.4,39.3-2.8c12.6-1.3,25.3-0.8,37.9-2.4c7.8-1,22.1-3.1,24.6-12.6C432.6,227.5,428.1,221.2,422.1,217.1z"/><path fill="#010101" d="M446.4,259.9c-1.4-5.1-7.2-9.7-12.1-12.7c3.7-3.6,6.3-8.2,6.8-13.9c0.8-9.7-4.7-17.8-12-23.4c1.7-2.5,3-5.2,3.5-8.2c0.7-4.2-0.7-7.7-3-10.5c1.8-1.2,3.3-2.8,4.4-4.8c0.2-0.4,0.4-0.8,0.5-1.2c2.2-4.6,1.7-10.5,1-15.5c-1.3-9.3-4.1-18.3-7-27.2c-5.9-17.8-13-34.5-29.6-44.7c-7.7-4.7-16.7-7.2-25.4-9.3c-10.9-2.6-22-4.5-32.9-7C310,74.6,278.7,71,247.4,70.8c-38.5-0.1-79.5,6.3-112.5,27.1c-16,10.1-30.4,24.3-41.6,39.6c-11.1,15.1-20.2,33.7-18.3,53c0.2,2.4,1.8,3.8,3.6,4.3c-4.5,5.4-7.1,11.6-6.8,19.6c0.4,8.3,5,14.6,11.9,17.9c-5.4,4.9-7.8,12.1-7.1,19.5c1,10.2,7.4,16.9,15.5,21.2c-3.5,1.1-7.4,1.8-10.7,2.7c-7.2,1.9-14.6,4-20.9,8.1c-16.6,10.7-5.8,32.6,9.9,37.6c6.3,2,13.2,1,19.8-0.1c-3,8.3-3.8,17.2,0.9,25.2c2.1,3.7,5.3,6.5,8.9,8.7c-4.9,2.7-7.5,7.9-7.7,14.6c-0.3,10.1,5.9,20.5,11.2,28.7c7.4,11.5,17.4,21.7,28.7,29.4c5,3.4,11.5,5.4,17.1,7.6c6.7,2.6,13.5,4.8,20.3,6.8c13.6,4,27.5,6.7,41.6,7.8c14.5,1.2,28.1-0.8,42.4-2.7c29.1-4,58.6-5.6,87.6-10.1c26.9-4.2,54.5-13.8,71.6-36.2c8.3-11,13.8-25.8,15.5-39.4c0.9-7.3,0-13.9-3.5-20.3c-1.9-3.4-4.5-6.3-7.3-9.2c3.1-2.5,5.8-5.5,8-9c7.6-12.1,3.9-26.1-5.5-35.6c1-0.3,2.1-0.4,3.3-0.5c8.2-0.5,15.9,0.2,21.9-6.5C450,275.1,448.1,266.1,446.4,259.9z M430.6,235.1c-2.4,9.5-16.7,11.6-24.6,12.6c-12.5,1.6-25.3,1.1-37.9,2.4c-13,1.3-26.2,3.4-39.3,2.8c4.1-4.9,9.3-8.9,14.5-12.4c2.9-2,5.9-3.7,8.9-5.3c2.1-1.1,6.5-4.1,8.9-4.1c2.5,0,3.9-1.5,4.3-3.3c10.6,0.2,21.2,0.1,31.8-0.8c8.3-0.7,15.4-3.4,22.3-8.1c0.8-0.6,1.6-1.2,2.4-1.8C428.1,221.2,432.6,227.5,430.6,235.1z M248.2,262.2c0.1-0.5,0.2-1,0.2-1.6v-3.4c0-1-0.2-1.8-0.6-2.4c-1.6-7.9-6.2-15.3-11.4-21.1c-0.8-0.9-1.7-1.7-2.5-2.3c8.2-0.5,16.4-1.1,24.6-1.7c1.4-0.1,2.8-0.2,4.3-0.3c-0.7,3.3,0.2,7.1,2.6,10.5c4,5.5,10.7,7.1,17.1,7.5c12.3,0.7,27.6-6.9,27.5-20.6c12-0.3,24.1,0.1,36.1,0.5c-0.3,0.2-0.6,0.3-0.8,0.5c-5.6,3-10.8,6.7-15.7,10.7c-8.2,6.8-13.4,15.4-19.5,24c-2.9,4.1-6.1,7.9-10.2,10.8c-4.8,3.3-12.5,0-17.3-1.7C271.3,267.5,259.8,264.5,248.2,262.2z M301.5,303.7c10.3,4.8,18.9,1.6,27.9-4.2c6.6-4.3,13.9-5.6,20.1-0.1c1.5,1.4,3,2.6,4.5,3.8c-14.5,3.6-30,4.7-44.6,6.1c-21.7,2-43.6,3-65.5,3.2c5-3.9,8.5-9.3,12.1-14.5c4.9-7.2,10.5-11.8,19.6-9.3C285.2,291.2,292.7,299.6,301.5,303.7z M175.5,249.4c-5.2-1.1-10.4-2.1-15.6-3.1c-8.9-1.7-17.9-3.1-26.7-5.4c-4.6-1.2-9-2.8-13.3-4.9c-1.1-0.6-2.2-1.2-3.2-1.8c15.1-0.5,30.2,0,45.3-0.2c9.4-0.1,18.9-0.3,28.3-0.6c-6.3,2.7-13.4,7-14.7,14.3C175.4,248.3,175.4,248.9,175.5,249.4z M185.3,249.5c0.7-3.7,6.3-6,9.5-7.3c6.2-2.6,12.8-4,19.4-4.7c5.4-0.6,10.6-1,14.6,2.7c5.2,4.8,9.2,12.9,9.6,20.1c-12.4-2.2-24.8-4-37.2-6.1c-5.5-0.9-11-2-16.5-3C185,250.8,185.2,250.2,185.3,249.5z M273.6,230.8c1.5-0.5,2.4-1.4,2.9-2.5c7.8-0.5,15.7-1,23.5-1.3c-0.1,6-7.1,8.9-12.2,9.9c-3.5,0.7-7,0.5-10.4-0.4C275.3,236,269.9,232,273.6,230.8z M118.7,123.8c19-18,40.7-29.5,66.1-35.9c27.3-6.8,55.9-8,83.9-6.5c25,1.3,49.1,6,73.5,10.9c-4.9,1.3-3.8,9.8,2.1,9.8c5.1,0,5.7-6.3,2.5-8.9c3.5,0.7,7.1,1.4,10.6,2.1c10.6,2.1,21.5,4,31.4,8.4c10.4,4.7,18,12.8,23,23c4.5,9.2,7.5,19.6,10.3,29.4c1.5,5.3,2.9,10.8,3.5,16.3c0.3,2.2,0.8,8-0.6,9c-0.7,0.6-1.3,1.2-1.6,1.9c-0.7,0.5-1.6,1-2.6,1.3c-0.4-0.2-0.8-0.4-1.2-0.6c-2.7-1.2-5.1,0.1-6.3,2c-2.6,0.2-5.1,0.3-6.7,0.4c-9.2,0.5-18.5-0.1-27.7-0.7c-10.1-0.6-20.2-0.6-30.3-1.1c-15.8-0.7-31.6-2.4-47.4-3.7c-51.3-4.2-103-1.2-154,5.2c-13.1,1.7-26.3,3-39.5,3c-5.1,0-10.3-0.3-15.4-1.2c-1.2-1.3-2.9-2-4.7-1.4c-0.6-0.2-1.1-0.5-1.7-0.8c-0.8-0.5-0.9-0.5-1.1-1.6C85.1,160.9,102.6,139.1,118.7,123.8z M84.4,221c-6.7-7.8-1.3-17.1,4.9-23.1c7.1,1.5,15.2,1.3,20.1,1.3c16.5,0,33-2.2,49.4-4.4c24.2-3.4,48.8-4.5,73.3-5.2c16-0.5,32.1-0.8,48.1,0c15.7,0.7,31.4,2.4,47,3.7c20.9,1.7,42,2.2,63,3.1c8.9,0.4,17.9,0.5,26.6-0.8c0.8-0.1,1.7-0.3,2.5-0.4c1.9,1.1,3.5,2.7,3.4,4.7c-0.3,3.6-3.5,6.7-6.1,8.9c-8.4,7.1-17.2,8.3-27.9,9c-16.4,0.9-32.9,0-49.4-0.6c-16.3-0.6-32.6-0.4-48.9,0.4c-32.2,1.7-64.2,4.9-96.4,5.9c-16.1,0.5-32.2,0.7-48.3,0.7c-11.7,0.1-23.4-0.2-35,0.3c-0.8-0.2-1.6-0.1-2.5,0.1c-0.7,0-1.3,0.1-2,0.1C99.8,225.1,89.2,226.6,84.4,221z M86.3,247c0.3-3.7,3-6.5,5.8-8.6c1.5-1.1,3.3-1.8,5.1-2.3c0.4-0.1,1.1-0.2,1.8-0.2c1.3,1.1,3.3,1.3,5,0.7c3.7,4.9,11.4,8.4,16,10.3c9.6,4,20.1,6,30.3,7.8c12.7,2.3,25.2,5.2,37.9,7.5c6.5,1.2,13,2.2,19.6,3.3c-2,0.3-4.1,0.4-6,0.6c-6.6,0.6-13.3,0.6-19.9,1.1c-7.9,0.5-15.8,1.4-23.7,2.3c-1.5-0.8-3.3-0.9-4.8,0.5c-9.1,0.9-18.3,1.5-27.5,0.8c-10.8-0.8-23.6-1.9-32.6-8.5C88.6,258.7,85.8,253,86.3,247z M70.6,310.8c-5.6-2.5-12.3-12.2-6.3-17.4c5.5-4.8,13.6-6.5,20.4-8.3c6.2-1.7,13.8-2.8,19-6.8c0.3-0.2,0.5-0.5,0.7-0.7c1.8,0.5,3.6,0.9,5.4,1.2c12,2.2,23.9,2.3,35.8,1.6c-4.4,5.6-9,10.9-14,15.9c-4.5,4.6,3,11.2,7.5,6.6c7.2-7.3,13.8-15.1,19.6-23.5c3.9-0.4,7.9-0.8,11.8-1.1c-1.9,9.1-4,18.5-4.1,27.7c-0.1,6.4,9.8,5.6,10-0.8c0.2-9,2.7-18.4,4.4-27.2c0-0.2,0.1-0.5,0.1-0.7c6.3-0.4,12.7-0.7,19-1.1c7.3-0.5,16.1-1,22.3-5.5c1-0.7,1.6-1.6,1.9-2.6c3,0.5,6,1,9,1.5c12.4,2.2,25.2,4.3,37.3,8.1c-6.8,0.1-13.2,3.3-17.9,8.4c-5.4,5.7-8.3,13.6-14.6,18.4c-7.5,5.8-16.5,1.6-24.8,3.9c-4,1.1-7,4.5-9.3,7.7c-3,4.2-6.3,8.4-9.7,12.3c-3.2,3.6-9,4.2-13.4,3.3c-4.3-0.9-7.7-4.5-11.8-6c-11.4-4.4-19.7,4.2-28.5,9.9c-4.8,3.1-13.3,5.4-15.8-0.8c-2.4-5.7-2.7-11.8-5.8-17.3c-4.1-7.2-12.8-8.3-20.3-7.8C89.6,310.6,79.3,314.6,70.6,310.8z M418.2,361.2c-1.5,11.8-6.7,24.8-13.9,34.3c-14.5,19.1-38.4,27.3-61.2,31.3c-12.9,2.3-26,3.2-39,4.6c-15.9,1.7-31.7,3.4-47.6,5.5c-14.6,1.9-28.7,4.4-43.5,3.4c-14.1-1-28-3.9-41.6-7.8c-10.1-2.9-20-6.6-29.7-10.9c-10-4.4-18.3-13.2-25.1-21.7c-3.8-4.8-25.5-36.2-8-36.8c2-0.1,3.4-1.1,4-2.5c1.7,0.5,3.3,0.9,5,1.3c27.8,6.3,58.3,2.5,86.3-0.8c11.5-1.4,23-3.1,34.5-4.6c21.5-2.8,43.3-3.3,65-4.4c23.8-1.2,47.8-2.9,71.4-5.8c11.1-1.4,23.5-3.5,33.9-8.7c1.8,1.9,3.5,3.8,5.2,5.8C418.4,348.8,419.1,354.5,418.2,361.2z M413.5,322.3c-0.9,0.9-1.8,1.8-2.8,2.6c-3.9-3.9-10.8,0.4-8.6,4.9c-4.3,1.8-8.9,3-13.1,4c-10,2.4-20.4,3.2-30.7,4c-10.8,0.9-21.6,2-32.4,2.8c-2.4,0.2-4.7,0.3-7.1,0.5c0.4-2.8-1.5-6.1-5.2-6.1h-18c-4.4,0-5.4,4.6-3.6,7.6c-16.3,0.8-32.6,1.5-48.8,3.2c-10.1,1.1-20,2.7-30.1,4c-27.7,3.6-56.6,7.2-84.5,3.7c-9.8-1.2-20.8-3.5-27.5-10.5c-2.1-2.2-3.2-5.5-3.3-9.2c-0.1-4.4,1.8-9.7,4-14.2c2.4-0.1,5,0,6.7,1.2c2.1,1.4,3,4,3.7,6.4c1.8,5.9,2.4,12.2,6.7,17c5.5,6.2,14.5,4.8,21.5,2.5c8.9-2.9,17-15.9,26.9-10.8c3.9,2,7.2,4.4,11.6,5.7c5.3,1.5,12,0.3,16.8-2.1c3.9-1.9,6.6-5.1,9.2-8.5c1.5-2,3.1-3.9,4.9-5.7c1.9-2,2.9-4.7,5.1-6.5c2.4-1.9,6.3-1.1,9.1-1c1.4,0.1,2.9,0.1,4.3,0c0.3,2.4,2.1,4.6,5.2,4.6c18.4,0,37-0.5,55.4-1.7c-0.6,0.9-0.9,2-0.8,3.1c0.2,2.9,2.6,4.6,5.4,4.6h10.5c2.7,0,4.8-2.8,4.6-5.4c-0.1-1.6-0.9-2.8-2.1-3.6c1.7-0.1,3.4-0.3,5.1-0.4c17.7-1.7,36.7-3.1,53.8-8.8c1.3,0.6,2.6,1.1,4.1,1.6c1.8,0.6,3.5,1,5.2,1.1c-0.7,1-1.1,2.2-1,3.4c0.2,2.9,2.6,4.6,5.4,4.6h13.5c2.7,0,4.8-2.8,4.6-5.4c-0.2-2.9-2.6-4.6-5.4-4.6h-5.3c7.2-3,13.7-8.9,19.4-14.2c1.7-1.6,3.3-3.1,5-4.5c0.1,0.2,0.3,0.3,0.5,0.5C420.6,301.2,422.3,312.9,413.5,322.3z M435.6,275.6c-3.9,2.7-11.5,1.1-16,1.6c-5.3,0.6-9.7,3.1-13.8,6.3c-7.4,5.6-13.3,13.1-21.5,17.7c-3.9,2.2-8,2.4-11.9,1.3c-0.8-2.4-3.1-4.3-6.2-3.1c-0.2,0.1-0.4,0.1-0.6,0.2c-2.9-1.7-5.6-3.9-7.9-6.1c-8.1-7.8-18.5-10.2-28.9-5.2c-4.4,2.1-8.1,5.3-12.5,7.2c-4.7,2-9.3,0-13.6-2.3c-5.6-3-10.6-6.9-16-10.1c7.5,1.8,14.8,1.7,21.7-4c5.6-4.7,9.6-10.8,13.6-16.9c0.4,0.1,0.8,0.2,1.3,0.3c15.1,1.3,30.1-0.7,45-2.3c2,8.6,5.2,17.1,10.3,24.2c3.7,5.2,12-0.3,8.3-5.6c-4.1-5.7-6.8-12.6-8.6-19.5c13.6-0.8,27.4-0.3,40.6-4c2.1-0.6,4.3-1.4,6.3-2.3c0.4,0.6,1,1.2,1.8,1.6c3.5,1.9,7.3,4.9,9.7,8.2c1,1.4,1,4.7,1.2,6.4C438.4,272.1,438.2,273.8,435.6,275.6z"/><path fill="#010101" d="M203.2 111.3c-1-.9-2.4-1.3-3.7-1.2-1.3.1-2.5.7-3.4 1.7-.9 1.1-1.2 2.3-1.2 3.7v1.5c0 1.2.8 2.6 1.7 3.4 1 .9 2.4 1.3 3.7 1.2 1.3-.1 2.5-.7 3.4-1.7.9-1.1 1.2-2.3 1.2-3.7v-1.5C204.9 113.5 204.1 112.1 203.2 111.3zM222 95.1c-6.4 0-5.6 10 .8 10C229.3 105.1 228.5 95.1 222 95.1zM255.7 129.3c-1-.9-2.3-1.3-3.7-1.2-1.3.1-2.5.7-3.4 1.7-.9 1.1-1.2 2.3-1.2 3.7v1.5c0 1.2.8 2.6 1.7 3.4 1 .9 2.4 1.3 3.7 1.2 1.3-.1 2.5-.7 3.4-1.7.9-1.1 1.2-2.3 1.2-3.7v-1.5C257.4 131.5 256.6 130.1 255.7 129.3zM273 92.1c-6.4 0-5.6 10 .8 10C280.3 102.1 279.5 92.1 273 92.1zM245.2 114.3c-1.1-.9-2.3-1.2-3.7-1.2H240c-1.2 0-2.6.8-3.4 1.7-.9 1-1.3 2.4-1.2 3.7.1 1.3.7 2.5 1.7 3.4 1.1.9 2.3 1.2 3.7 1.2h1.5c1.2 0 2.6-.8 3.4-1.7.9-1 1.3-2.3 1.2-3.7C246.8 116.4 246.2 115.2 245.2 114.3zM183.9 95.2c0-1.2-.8-2.6-1.7-3.4-1-.9-2.3-1.3-3.7-1.2-1.3.1-2.5.7-3.4 1.7-.2.2-.3.4-.4.6-.4.3-.8.6-1.1.9-.9 1-1.3 2.4-1.2 3.7.1 1.3.7 2.5 1.7 3.4 1.1.9 2.3 1.2 3.7 1.2.3 0 .6 0 .9 0 .5-.1 1-.1 1.5-.3 1.2-.5 1.3-.6 2.2-1.5.7-.6 1.2-1.9 1.3-2.7C183.9 96.8 183.9 96 183.9 95.2zM142.6 138.6c-6.4 0-5.6 10 .8 10C149.8 148.6 149 138.6 142.6 138.6zM334.5 128.1c-6.4 0-5.6 10 .8 10C341.8 138.1 341 128.1 334.5 128.1zM311.4 107.2c0-1.2-.8-2.6-1.7-3.4-1-.9-2.4-1.3-3.7-1.2-1.3.1-2.5.7-3.4 1.7-.2.2-.3.4-.4.6-.4.3-.8.6-1.1.9-.9 1-1.3 2.4-1.2 3.7.1 1.3.7 2.5 1.7 3.4 1.1.9 2.3 1.2 3.7 1.2.3 0 .6 0 .9 0 .5-.1 1-.1 1.5-.3 1.2-.5 1.3-.6 2.2-1.5.7-.6 1.2-1.9 1.3-2.7C311.4 108.8 311.4 108 311.4 107.2zM302.2 133.8c-1-.9-2.3-1.3-3.7-1.2-1.3.1-2.5.7-3.4 1.7-.9 1.1-1.2 2.3-1.2 3.7v1.5c0 1.2.8 2.6 1.7 3.4 1 .9 2.4 1.3 3.7 1.2 1.3-.1 2.5-.7 3.4-1.7.9-1.1 1.2-2.3 1.2-3.7v-1.5C303.9 136 303.1 134.6 302.2 133.8zM375.7 127.8c-1-.9-2.3-1.3-3.7-1.2-1.3.1-2.5.7-3.4 1.7-.9 1.1-1.2 2.3-1.2 3.7v1.5c0 1.2.8 2.6 1.7 3.4 1 .9 2.4 1.3 3.7 1.2 1.3-.1 2.5-.7 3.4-1.7.9-1.1 1.2-2.3 1.2-3.7v-1.5C377.4 130 376.6 128.6 375.7 127.8zM262.8 326.4c-5.9 1.4-12.2 1.2-18.2 1.2-6.4 0-5.6 10 .8 10 7 0 13.9-.2 20.8-1.8C272.4 334.4 269 324.9 262.8 326.4zM351 324.6h-15c-6.4 0-5.6 10 .8 10h15C358.3 334.6 357.5 324.6 351 324.6zM233.2 337.8c-7.3-5-14.8-4.3-23.2-4.2-6.4.1-5.7 10.1.8 10 5.1-.1 11.3-1.3 15.8 1.8C231.9 348.9 238.5 341.5 233.2 337.8z"/></svg>