<svg xmlns="http://www.w3.org/2000/svg" viewBox="0 0 512 512" width="48px" height="48px"><path fill="#EF4823" d="M229.9 57.4c-11 15.1-22.5 29.7-33.6 44.7-11.2 15.1-21.9 30.7-33.8 45.3-3.2 3.9-6.5 7.6-9.5 11.6-1.5 1.9-2.9 3.9-4.1 6.1 8.6-.4 17.2-.7 25.8-.8 12.3-.2 24.6-.6 36.9-.8.1-.2.3-.4.4-.6.7-1.8 1.5-3.5 2.1-5.3 1.5-4.1 3-8.3 4.3-12.5 2.4-7.7 4.6-15.4 6.6-23.2 4.2-16.2 7.9-32.5 12.1-48.7 3.3-12.7 6.6-25.5 8.3-38.5C240.4 42.4 235.3 50 229.9 57.4zM283.1 164.7c-.1-.4-.2-.8-.2-1.2-8.8-23.7-12.7-48.8-16.6-73.7-2.1-13.5-4-27.1-6-40.7-.8-5.5-2.2-10.8-3.8-16.1-.2 1.6-.3 3.2-.5 4.8-1.6 14.4-5.9 29.3-9.8 43.2-4.2 14.8-7.1 29.9-11 44.8-2 7.8-4.2 15.5-6.7 23.1-1.1 3.4-2.2 6.8-3.4 10.1-.5 1.5-1.1 3-1.6 4.5 15.1.1 30.1 1.2 45.2 1.4 4.8.1 9.7.1 14.5.1C283.2 164.9 283.2 164.8 283.1 164.7zM448.1 165.5c-2.1-2.2-4.2-4.4-6.4-6.5-8.7-8.6-18.3-16.2-27.4-24.2-9.2-8.1-17.8-16.7-26.1-25.7-8-8.7-15.3-18.1-24.2-25.8-8.5-7.4-17.6-13.9-26.4-20.8-9.3-7.3-18.4-14.6-28.4-20.9-9.8-6.2-19.7-12.1-30.2-17.1-1.1-.5-2.2-1.1-3.4-1.7 6.7 8.4 12.8 17.3 18.6 26.3 9 13.9 18.5 27.1 29 39.9 10.8 13.1 22 26 32.8 39 9.5 11.5 18.5 23.2 27 35.3 10.3-.2 20.6-.2 30.9.4 11.9.6 23.8 1.9 35.6 3.5C449.2 166.6 448.6 166.1 448.1 165.5z"/><path fill="#14B6B9" d="M289.5,271c-1.1-10.5-1.8-21-2.8-31.5c-1-10.2-2.7-20.3-3.7-30.5c-0.9-9.6-0.1-19.2-1.2-28.7c-0.2-1.9,0.4-3.3,1.4-4.3c-5.9,0-11.8-0.1-17.7-0.2c-7.6-0.1-15.2-0.5-22.8-0.8c0.4,11.6,3.4,22.6,4.5,34c0.9,8.8-0.6,18.8,3.1,27c0.2,0.5,0.4,1,0.5,1.5c4.4,3.7,7.5,10,9.8,14.6c4,8.1,8.4,18.2,7,27.6c-1.4,9.6-8.7,14.7-17,15.5c0,5.9,0,11.7,0.5,17.6c0.4,4.8,1.5,9.5,1.9,14.3c0.4,4.5,0.6,9,1.2,13.5c0,0.1,0,0.3,0.1,0.4c0.4-0.7,0.7-1.4,1.1-2.1c3.1-5.9,7.5-14.5,14.4-16.9c0.7-9.6,5.5-25.5,17.1-25.5c1.7,0,3.3,0.4,4.6,1C291.3,288.7,290.5,279.8,289.5,271z"/><path fill="#EF4823" d="M347,134.2c-10.9-13.1-22.1-25.9-32.8-39c-10.5-12.8-20-26-29-39.9c-5.8-8.9-11.7-17.8-18.4-26.1c1.9,6.3,3.7,12.5,4.6,19.1c1.9,13,3.7,26,5.7,38.9c3.9,25.7,7.9,51.6,17.4,75.9c0.3,0.7,0.4,1.4,0.4,2c23.6-0.2,47.1-0.8,70.7-1.3c1.4,0,2.8-0.1,4.2-0.1C362.6,153.5,355.1,143.8,347,134.2z"/><path fill="#14B6B9" d="M297.2,397.5c-0.2-9.2-2.2-18.3-3.6-27.5c-5.9,6-12.8,10.7-21.5,11.8c-5.4,0.7-10.8-0.1-15.1-2.6c0.9,12.4,3.7,24.7,3.8,37.1c0,0.6-0.1,1.2-0.2,1.8c5.7,1.7,13.2,0.7,18.6,1.1c6.6,0.5,15.6,2.3,19.2-4.7C296.4,409.3,297.3,402.1,297.2,397.5z"/><path fill="#FEBF10" d="M252.4 259.1c-1.5-3.4-6-13.4-9-13.6-3.2-.3-4.7-2.9-4.6-5.5-1.2-1-2-2.4-2.1-4.4-.1-3.3-1-6.6-2.3-9.6-.5-1.3-1.3-2.4-2.1-3.6-.5-.7-1.9-1.3-1.3-1.7-3.2 1.7-3.8 9.8-3.8 12.8-.1 2.3-2 4.7-4.2 5-16.6 1.9-27.1 12.7-36.9 25.9-3.4 4.6-7.3 9.7-12.6 11.8-3.1 1.2-6.5 1.5-9.8 1.8-10.3.9-20.7.9-31 .4-5.2-.2-18.2.6-20.7-5.9-.1-.3-.2-.5-.2-.8-.3-.4-.5-.8-.7-1.2-4.4-10.4-15.4-14.7-24.8-10.7-4.5 1.9-8.8 4.3-12.9 6.9-2 1.2-3.8 2.6-5.6 4.2-.3.2-.7.7-1.1 1.1.1.4.1.8.1 1.2 4.1 5.6 8.7 11 12 17.1.5-1.6 1.1-3.1 1.9-4.6 2.3-4.6 7-7.2 11.8-7.7 8.7-1 18.3 5.4 14.7 14.5.5 1.4.5 3.1-.4 4.7-2.5 4.6-4.1 12.8-4.9 19-1 7.3-1.7 16 1.1 23 .7 1.8 2 3.9 3.9 4.3 3.2.7 4.5-2.6 5.6-5.2 3.2-7.7 4.1-16.9 11.3-21.9 8.5-5.9 20.8-3 30.4-2.8 9.7.2 16.4 4.8 18.7 15 1.5 6.5-1.2 19.6 7.9 19.9 4.1.2 6.8-2.8 8.7-7.3 5.8-13.3 5.9-29.3 8.3-43.5 2.3-13.2 6.1-29.9 19.1-35.7 3.2-1.4 6 .6 7.1 3.2 0 0 .1.1.1.1 5.2 7.3 10.7 14.8 19.2 18 6.3 2.4 13.8 1 14.4-7C258.1 270.8 254.6 264 252.4 259.1zM460 358.7c-.4-.4-.8-.8-1.1-1.1-1.8-1.5-3.8-2.9-5.9-4.2-4.4-2.6-8.9-5-13.6-6.9-9.9-4-21.5.3-26.1 10.7-.2.5-.5.9-.7 1.2-.1.2-.2.5-.3.8-2.7 6.5-16.3 5.7-21.8 5.9-10.8.5-21.8.4-32.6-.4-3.5-.3-7.1-.5-10.4-1.8-5.6-2.1-9.7-7.2-13.3-11.8-10.3-13.3-21.3-24-38.9-25.9-2.3-.3-4.4-2.7-4.4-5-.1-3-.7-11.1-4-12.8.6.4-.8 1-1.4 1.7-.9 1.2-1.6 2.3-2.2 3.6-1.3 3-2.3 6.3-2.4 9.6-.1 1.9-.9 3.4-2.2 4.4.1 2.6-1.5 5.3-4.9 5.5-3.1.2-7.9 10.3-9.4 13.6-2.3 4.9-6 11.6-5.5 17.2.7 8 8.6 9.4 15.2 7 8.9-3.2 14.7-10.7 20.2-18 0 0 .1-.1.1-.1 1.1-2.6 4.1-4.6 7.5-3.2 12.5 5.2 16.9 19.6 19.5 32.1.9.9 1.5 2 1.6 3.4.1.9-.1 1.8-.5 2.6 2.2 13.6 2.6 28.5 8.4 41.1 2.1 4.5 4.9 7.4 9.2 7.3 9.6-.4 6.7-13.4 8.3-19.9 2.5-10.2 9.5-14.8 19.7-15 10.1-.2 23-3.1 32 2.8 7.6 5 8.6 14.1 11.9 21.9 1.1 2.6 2.5 5.9 5.9 5.2 2-.4 3.4-2.6 4.1-4.3 2.9-7 2.2-15.7 1.2-23-.9-6.2-2.5-14.4-5.2-19-.9-1.6-1-3.3-.5-4.7-3.8-9.2 6.3-15.5 15.5-14.5 5 .5 10 3.1 12.4 7.7.8 1.5 1.4 3.1 2 4.6 3.5-6.2 8.3-11.5 12.7-17.1C459.9 359.5 459.9 359.1 460 358.7z"/><path fill="#74CCCF" d="M424.2,439.1c-2.1,1.3-4.5,2.1-6.9,2.3c-0.2,0.4-0.5,0.7-0.8,1.1c-16.6,18.5-42.6,18.5-65.6,18.4c-13.7-0.1-27.4,0.8-41.1,0.7c-16-0.1-32-0.7-48-1c-27.1-0.6-54.6,1.4-81.5-2.3c-12.6-1.7-25.4-4.5-36.8-10.2c-6.4-3.2-13-7.2-18.1-12.5c0,0,0,0,0,0c0.4,9,1.4,19,7.1,26.4c6.2,8,16.7,11.4,26.3,13.2c11.2,2.1,22.5,2.5,33.9,2.4c28.4-0.1,56.7,0.6,85.1,0.6c32.4,0,64.9-0.7,97.2-3.5c12.1-1.1,27.4-1.3,37.4-9.1C420.2,459.5,425.6,449,424.2,439.1z"/><path fill="#EF4823" d="M304 364.5c.6 5.1 1.5 10.1 2.4 15.2.5-.2 1-.3 1.6-.3h2.1C308.8 373.9 307 368.5 304 364.5zM216.5 50.3c-16.6 14.5-32.4 29.8-48.1 45.2-15.7 15.6-31.3 31.3-47.8 46.1-6.6 5.9-13.4 11.1-20.6 16.2-3.4 2.4-8.4 5.6-11.3 9.5 13.1.8 26.3 0 39.4-1 2.8-.2 5.7-.4 8.5-.6.6-2.9 2.3-5.8 3.8-8.1 3.4-5.1 7.3-9.9 11.3-14.5 11.7-13.8 22-29 32.8-43.6 12.3-16.6 25-32.8 37.1-49.4 2.4-3.4 4.8-6.8 7.2-10.2C224.6 43.4 220.5 46.8 216.5 50.3z"/><path fill="#3AB37C" d="M396.1,414.6c-2.9-4.4-8.7-4.1-13.4-3.8c-5,0.3-10.1,0.3-15.1,0.6c-3.7,0.2-7.3,0.6-8.3,4.8c-1,4.3-0.8,8.7-1.6,13c-1.5,9.5-7.2,17.4-17.7,17.1c-6.7-0.2-12.4-2.9-16.3-8.4c-8.6-12.2-9.1-29.4-11.3-43.6c-0.2-1.2-0.4-2.6-0.6-4h-3.1c-0.3,0-0.7,0-1-0.1c0.1,1.5,0.3,3,0.3,4.5c0.1,3.3,0,6.6,0.1,9.8c0.1,1.8,0.1,3.6,0.4,5.4c0.1,0.3,0.1,0.6,0.1,0.7c0,0,0.1,0,0.2,0.1c3.5,2.4,2.3,6.3-0.5,8.2c-0.1,0.1-0.1,0.3-0.2,0.4c-5.7,11.4-17.7,12.1-29,11c-10.3-1.1-22.2,1.2-30.6-6.3c-3.2-2.9-1.8-7.1,1.1-8.9c-0.3-7.8-1.5-15.5-2.5-23.2c-0.9,0.4-1.9,0.5-3,0.3c-11.8-1.8-22.9,0.7-34.5,2.1c-11.1,1.3-22.3,1.8-33.6,1.9c-13.2,0.1-35.1-3.1-44.8,8.7c-8.6,10.5-0.9,21.9,8.5,28.5c10.1,7,22.6,10.7,34.6,12.8c26.6,4.6,53.8,2.7,80.6,3.2c16,0.3,32,0.9,48,1.1c13.8,0.2,27.5-0.7,41.3-0.6c20.4,0,46.3,2.5,62-13C400.6,430.8,400.8,421.6,396.1,414.6z"/><path d="M445.9,337.5c-16.1-7.2-35.1-1.8-42.5,14.9c-0.1,0.2-0.1,0.3-0.2,0.5c-0.1,0-0.1,0-0.2,0.1c0.7-0.2-1,0.2-1,0.2c-0.9,0.2-1.8,0.3-2.8,0.4c-4.5,0.5-9.1,0.7-13.7,0.9c-1.7,0.1-3.4,0.1-5,0.1c0.7-1.6,0.5-3.5-0.8-5c0-0.1-0.1-0.2-0.1-0.2c-0.2-0.7-0.3-1.7-0.4-2.5c-0.4-2.8-0.6-5.7-0.8-8.6c-0.4-4.9-0.3-9.8-0.7-14.6c-1.5-19.4-2.3-38.9-3.1-58.4c-0.8-19.7-2.1-39.3-2.6-59c-0.2-5.9-0.1-11.8-0.3-17.7c-0.1-2.6-0.1-5.2-0.1-7.7c0-0.9,0-1.7,0.1-2.6c1-1,1.6-2.2,1.5-3.6c12.1-0.2,24.1-0.4,36.2-0.1c15.8,0.5,31.4,2.4,47,4.8c4.7,0.7,7.2-3.9,6.2-7.3c3-4.2-4.5-11.9-7.1-14.7c-7-7.5-14.7-14.3-22.5-21c-10.3-8.8-20.4-17.8-29.9-27.5c-9.2-9.5-17.5-19.9-26.8-29.2c-8.7-8.7-18.9-15.8-28.7-23.3c-10.1-7.8-19.8-15.7-30.5-22.7c-10.6-6.9-21.7-13.5-33.1-19c-5-2.4-9.9-4.9-14.1-8.4c-1.9-1.6-3-3.8-4.8-5.4c-1.7-1.5-3.8-1.4-5.9-1.4c-0.1,0-0.1,0-0.2,0c-1.6-0.3-3.3,0.2-4.7,1.8c-13.7,16.4-31.7,29.3-47.7,43.4c-16.9,14.9-33,30.5-48.9,46.3c-16.3,16.2-32.6,32.5-49.9,47.6c-9.4,8.2-26.5,15.4-30.9,28.2c-4.8,1.7-5.5,9.8,0.6,10.5c19.2,2.5,38.5,1.3,57.9-0.1c-4.4,13.3-1.1,28.1,1,41.5c1.1,7.2,1.7,14.3,2.6,21.5c1.1,9.1,2.5,18.3,2.2,27.4c-1.2,0-2.5-0.1-3.7-0.1c-4.3-0.1-8.7-0.3-13-0.9c-0.9-0.1-1.7-0.2-2.6-0.4c0,0-1.6-0.4-1-0.2c-0.1,0-0.1,0-0.2-0.1c-0.1-0.2-0.1-0.3-0.2-0.5c-7-16.7-25.1-22.1-40.4-14.9c-6.5,3.1-29,13.5-23.4,24.3c-0.1,1.2,0.2,2.5,1.1,3.7c4.7,6.7,11.7,13.2,14,21.4c0.7,2.5,2.5,3.8,4.4,4.1c2.2,2.8,7.5,3.1,9.4-1.3c1.7-3.8,2.1-11.9,6.3-13.6c1.4-0.6,3.4-0.7,4.8-0.2c0.1,0,0.2,0.1,0.4,0.2c-1,1.7-1,3.4-0.4,4.8c-3.1,6.9-4.5,14.9-5.3,22.4c-1,9.1-1.6,20,2.6,28.4c3.9,7.7,13.2,13.2,21,7.7c8.3-5.9,7.4-16.6,12.5-24.6c2.8-4.4,8.2-4.1,12.7-3.8c4.8,0.3,9.6,0.3,14.3,0.6c3.5,0.2,6.9,0.6,7.9,4.8c1,4.3,0.8,8.7,1.5,13c1.5,9.5,6.9,17.4,16.8,17.1c6.3-0.2,11.8-2.9,15.5-8.4c8.2-12.2,8.7-29.4,10.7-43.6c1.4-9.9,2.7-25.7,10.8-33c6,8.1,13,16,22.3,19.3c0,6.6,0,13.2,0.5,19.8c0.4,5.6,1.6,11,2,16.5c0.6,8.2,0.4,18.7,5.4,25.7c0.2,0.3,0.5,0.6,0.7,0.9c-0.6,2.8-0.8,5.5-0.6,8.3c-1.2,1-2,2.4-2.1,4.2c-0.2,4.1-0.1,8.1,0.3,12.1c-15.7-2.3-30.8,1.6-46.4,2.9c-14.7,1.3-29.5,0.6-44.3,1.1c-10,0.4-20.7,2.5-28.7,8.9c-2.9,2.3-5.3,5.2-7,8.3c-2.5,0.4-4.9,2.4-4.9,5.7c-0.1,21.4-4,46.7,11.9,63.8c14.6,15.7,41.7,16.2,61.5,16.4c27.5,0.3,55.1,0.5,82.6,0.6c32.5,0.2,65-0.4,97.3-2.8c17.1-1.3,37.5-1.5,51.7-12.5c12.6-9.8,20.1-29.8,12.7-44.7c0,0,0,0,0-0.1c3.1-8,2.6-17.7,1.6-25.9c-0.9-7.4-2.4-15.4-5.6-22.4c0.6-1.4,0.6-3.1-0.4-4.8c0.2-0.1,0.3-0.1,0.4-0.2c1.5-0.5,3.6-0.3,5.1,0.2c4.5,1.7,4.9,9.8,6.7,13.6c2,4.4,7.6,4.1,9.9,1.3c2-0.3,4-1.6,4.7-4.1c2.4-8.2,9.8-14.7,14.7-21.4c0.9-1.2,1.2-2.5,1.1-3.7C476.4,350.9,452.8,340.5,445.9,337.5z M279,24.4c10.4,5,20.4,10.9,30.2,17.1c10,6.3,19.2,13.6,28.4,20.9c8.8,7,18,13.4,26.4,20.8c8.9,7.8,16.2,17.2,24.2,25.8c8.3,9,17,17.6,26.1,25.7c9.1,8.1,18.7,15.7,27.4,24.2c2.2,2.1,4.3,4.3,6.4,6.5c0.5,0.6,1.1,1.1,1.6,1.7c-11.8-1.6-23.7-2.8-35.6-3.5c-10.3-0.5-20.6-0.5-30.9-0.4c-8.6-12.2-17.5-23.9-27-35.3c-10.9-13.1-22-25.9-32.8-39c-10.5-12.8-20-26-29-39.9c-5.9-9-11.9-17.9-18.6-26.3C276.7,23.3,277.9,23.9,279,24.4z M285.1,55.2c9,13.9,18.6,27.1,29,39.9c10.8,13.2,22,26,32.8,39c8,9.6,15.5,19.4,22.8,29.4c-1.4,0-2.8,0.1-4.2,0.1c-23.6,0.4-47.1,1.1-70.7,1.3c0-0.6-0.2-1.3-0.4-2c-9.6-24.3-13.5-50.2-17.4-75.9c-2-13-3.8-26-5.7-38.9c-0.9-6.5-2.8-12.8-4.6-19.1C273.4,37.4,279.3,46.3,285.1,55.2z M297.8,240.4c-0.5-10.2-2.5-20.4-3.7-30.5c-1.1-10.2-0.2-20.4-1.3-30.5c-0.2-1.5-0.8-2.6-1.6-3.4c23.3-0.1,46.6-0.8,69.8-1.2c0,0.2-0.1,0.4-0.1,0.6c-0.7,5.4-0.3,11.1-0.2,16.5c0.6,20.8,1.6,41.5,2.4,62.3c0.9,23.4,1.8,46.8,3.6,70.2c0.4,6,0.5,12,1,18c0.3,3.4,0.3,8.5,2.1,12.1c-4.3-0.1-8.7-0.3-13-0.8c-1.4-0.1-2.8-0.3-4.3-0.6c-0.2,0-0.7-0.2-1-0.3c-0.8-0.3-1.5-0.7-2.2-1.2c-5.3-4-8.8-10.4-13-15.4c-8.9-10.7-21.2-18.5-34.9-21c-0.3-1.9-0.7-3.9-1.3-5.8c1.6-0.9,2.7-2.6,2.7-4.9C302.7,283,298.9,261.8,297.8,240.4z M298.4,414.5c-3.6,7-12.6,5.2-19.2,4.7c-5.3-0.4-12.8,0.7-18.6-1.1c0.2-0.5,0.2-1.1,0.2-1.8c-0.1-12.5-3-24.7-3.8-37.1c4.4,2.4,9.8,3.3,15.1,2.6c8.6-1.1,15.6-5.9,21.5-11.8c1.4,9.1,3.3,18.3,3.6,27.5C297.3,402.1,296.4,409.3,298.4,414.5z M260.8,252.1c-2.3-4.7-5.4-11-9.8-14.6c-0.1-0.5-0.2-1-0.5-1.5c-3.7-8.2-2.2-18.2-3.1-27c-1.1-11.5-4.2-22.4-4.5-34c7.6,0.3,15.2,0.7,22.8,0.8c5.9,0.1,11.8,0.2,17.7,0.2c-1,1-1.6,2.4-1.4,4.3c1,9.5,0.3,19.2,1.2,28.7c1,10.2,2.6,20.3,3.7,30.5c1.1,10.5,1.7,21,2.8,31.5c0.9,8.8,1.8,17.7,2.1,26.5c-1.4-0.7-2.9-1-4.6-1c-11.6,0-16.4,15.9-17.1,25.5c-6.9,2.4-11.3,11-14.4,16.9c-0.3,0.7-0.7,1.4-1.1,2.1c0-0.1,0-0.3-0.1-0.4c-0.6-4.5-0.8-9-1.2-13.5c-0.4-4.8-1.4-9.5-1.9-14.3c-0.5-5.8-0.5-11.7-0.5-17.6c8.3-0.8,15.6-5.9,17-15.5C269.2,270.4,264.8,260.3,260.8,252.1z M246.3,81c3.9-13.9,8.3-28.8,9.8-43.2c0.2-1.6,0.3-3.2,0.5-4.8c1.6,5.3,3,10.6,3.8,16.1c2,13.6,3.9,27.1,6,40.7c3.8,24.9,7.7,50.1,16.6,73.7c0,0.4,0.1,0.8,0.2,1.2c0,0.1,0.1,0.2,0.1,0.4c-4.8,0-9.7,0-14.5-0.1c-15.1-0.2-30.1-1.3-45.2-1.4c0.6-1.5,1.1-3,1.6-4.5c1.2-3.3,2.3-6.7,3.4-10.1c2.5-7.6,4.6-15.4,6.7-23.1C239.1,110.9,242.1,95.8,246.3,81z M150.4,244.9c-0.9-7.6-1.5-15.3-2.6-23c-1.1-7.2-2.4-14.4-3.2-21.6c-0.7-6.1-1.5-13.2,0.6-19.1c0.6-1.8,0.4-3.5-0.4-4.8c8.9-0.6,17.8-1.1,26.7-1.2c15.3-0.1,30.6-0.7,46-0.9c4.8,0,9.5,0.1,14.3,0.2c0.2,12.5,3.5,24.3,4.7,36.6c0,0,0,0.1,0,0.1c-1.7-1-3.6-1.6-5.7-1.6c-8.5,0-12.5,10.3-13.7,18.6c-13,2.6-24.6,10.3-33.1,21c-4,5.1-7.3,11.5-12.4,15.4c-0.6,0.5-1.3,0.9-2.1,1.2c-0.3,0.1-0.8,0.3-1,0.3c-1.3,0.3-2.7,0.5-4,0.6c-4.2,0.5-8.5,0.7-12.7,0.8C152.1,260.1,151.4,252.5,150.4,244.9z M245.3,34.7c-1.7,13-5,25.8-8.3,38.5c-4.2,16.2-8,32.5-12.1,48.7c-2,7.8-4.2,15.5-6.6,23.2c-1.3,4.2-2.8,8.4-4.3,12.5c-0.6,1.8-1.5,3.5-2.1,5.3c-0.2,0.2-0.3,0.4-0.4,0.6c-12.3,0.1-24.6,0.6-36.9,0.8c-8.6,0.1-17.2,0.4-25.8,0.8c1.2-2.1,2.6-4.1,4.1-6.1c3-4,6.4-7.7,9.5-11.6c11.8-14.6,22.6-30.2,33.8-45.3c11.1-15,22.6-29.7,33.6-44.7C235.3,50,240.4,42.4,245.3,34.7z M140.5,157.7c-1.5,2.3-3.1,5.1-3.8,8.1c-2.8,0.2-5.7,0.4-8.5,0.6c-13.1,1-26.3,1.8-39.4,1c2.8-3.9,7.9-7.1,11.3-9.5c7.2-5.2,13.9-10.3,20.6-16.2c16.6-14.7,32.1-30.5,47.8-46.1c15.6-15.5,31.5-30.8,48.1-45.2c4-3.5,8.1-6.9,12.3-10.3c-2.3,3.4-4.7,6.8-7.2,10.2c-12.1,16.7-24.8,32.9-37.1,49.4c-10.8,14.6-21.1,29.8-32.8,43.6C147.7,147.8,143.9,152.6,140.5,157.7z M243.2,283.4c-8.5-3.2-13.9-10.7-19.2-18c0,0-0.1-0.1-0.1-0.1c-1.1-2.6-3.9-4.6-7.1-3.2c-13,5.7-16.8,22.5-19.1,35.7c-2.5,14.2-2.5,30.2-8.3,43.5c-2,4.5-4.6,7.4-8.7,7.3c-9.1-0.4-6.4-13.4-7.9-19.9c-2.4-10.2-9-14.8-18.7-15c-9.6-0.2-21.9-3.1-30.4,2.8c-7.2,5-8.1,14.1-11.3,21.9c-1.1,2.6-2.4,5.9-5.6,5.2c-1.9-0.4-3.2-2.6-3.9-4.3c-2.8-7-2.1-15.7-1.1-23c0.8-6.2,2.4-14.4,4.9-19c0.9-1.6,0.9-3.3,0.4-4.7c3.6-9.2-6-15.5-14.7-14.5c-4.8,0.5-9.5,3.1-11.8,7.7c-0.8,1.5-1.4,3.1-1.9,4.6c-3.3-6.2-7.9-11.5-12-17.1c0-0.4,0-0.8-0.1-1.2c0.3-0.4,0.8-0.8,1.1-1.1c1.8-1.5,3.6-2.9,5.6-4.2c4.1-2.6,8.4-5,12.9-6.9c9.4-4,20.4,0.3,24.8,10.7c0.2,0.5,0.4,0.9,0.7,1.2c0.1,0.2,0.1,0.5,0.2,0.8c2.6,6.5,15.5,5.7,20.7,5.9c10.3,0.5,20.7,0.4,31-0.4c3.3-0.3,6.7-0.5,9.8-1.8c5.3-2.1,9.2-7.2,12.6-11.8c9.7-13.3,20.3-24,36.9-25.9c2.2-0.3,4.2-2.7,4.2-5c0.1-3,0.6-11.1,3.8-12.8c-0.5,0.4,0.8,1,1.3,1.7c0.8,1.1,1.5,2.3,2.1,3.6c1.3,3,2.2,6.3,2.3,9.6c0.1,1.9,0.9,3.4,2.1,4.4c-0.1,2.6,1.4,5.3,4.6,5.5c3,0.2,7.5,10.3,9,13.6c2.2,4.9,5.7,11.6,5.3,17.2C257.1,284.4,249.6,285.8,243.2,283.4z M131.4,405c9.7-11.8,31.6-8.6,44.8-8.7c11.2-0.1,22.4-0.6,33.6-1.9c11.6-1.4,22.7-3.8,34.5-2.1c1.1,0.2,2.1,0,3-0.3c1,7.7,2.2,15.4,2.5,23.2c-2.9,1.7-4.3,6-1.1,8.9c8.4,7.5,20.3,5.2,30.6,6.3c11.3,1.2,23.3,0.4,29-11c0.1-0.1,0.1-0.3,0.2-0.4c2.8-1.9,4.1-5.8,0.5-8.2c-0.1-0.1-0.2-0.1-0.2-0.1c0-0.1,0-0.4-0.1-0.7c-0.3-1.8-0.4-3.6-0.4-5.4c-0.1-3.3,0-6.6-0.1-9.8c-0.1-1.5-0.2-3-0.3-4.5c0.3,0,0.7,0.1,1,0.1h3.1c0.2,1.4,0.4,2.7,0.6,4c2.2,14.2,2.7,31.4,11.3,43.6c3.9,5.5,9.6,8.2,16.3,8.4c10.5,0.3,16.2-7.7,17.7-17.1c0.7-4.3,0.5-8.7,1.6-13c1-4.2,4.6-4.6,8.3-4.8c5-0.3,10-0.3,15.1-0.6c4.7-0.3,10.5-0.5,13.4,3.8c4.7,7,4.5,16.2,10.4,22.3c-15.8,15.5-41.7,13-62,13c-13.8,0-27.5,0.8-41.3,0.6c-16-0.2-32-0.8-48-1.1c-26.9-0.5-54,1.4-80.6-3.2c-12-2.1-24.5-5.8-34.6-12.8C130.5,426.9,122.8,415.5,131.4,405z M304,364.5c3,4.1,4.8,9.4,6,14.9h-2.1c-0.6,0-1.1,0.1-1.6,0.3C305.5,374.6,304.5,369.5,304,364.5z M412.5,465.6c-10,7.8-25.3,8-37.4,9.1c-32.3,2.8-64.8,3.5-97.2,3.5c-28.4,0-56.7-0.8-85.1-0.6c-11.3,0.1-22.7-0.3-33.9-2.4c-9.6-1.8-20.1-5.2-26.3-13.2c-5.7-7.3-6.7-17.4-7.1-26.4c0,0,0,0,0,0c5.1,5.3,11.7,9.4,18.1,12.5c11.4,5.7,24.2,8.5,36.8,10.2c26.9,3.6,54.4,1.7,81.5,2.3c16,0.3,32,0.9,48,1c13.7,0.1,27.4-0.7,41.1-0.7c23,0.1,49,0.1,65.6-18.4c0.3-0.3,0.6-0.7,0.8-1.1c2.4-0.2,4.8-1,6.9-2.3C425.6,449,420.2,459.5,412.5,465.6z M459.9,359.9c-4.3,5.6-9.2,11-12.7,17.1c-0.6-1.6-1.2-3.1-2-4.6c-2.5-4.6-7.4-7.2-12.4-7.7c-9.2-1-19.3,5.4-15.5,14.5c-0.5,1.4-0.5,3.1,0.5,4.7c2.7,4.6,4.3,12.8,5.2,19c1,7.3,1.8,16-1.2,23c-0.7,1.8-2.1,3.9-4.1,4.3c-3.3,0.7-4.7-2.6-5.9-5.2c-3.4-7.7-4.3-16.9-11.9-21.9c-9-5.9-21.9-3-32-2.8c-10.2,0.2-17.2,4.8-19.7,15c-1.6,6.5,1.3,19.6-8.3,19.9c-4.3,0.2-7.1-2.8-9.2-7.3c-5.8-12.5-6.1-27.5-8.4-41.1c0.4-0.8,0.5-1.7,0.5-2.6c-0.1-1.4-0.7-2.6-1.6-3.4c-2.5-12.5-6.9-26.9-19.5-32.1c-3.4-1.4-6.3,0.6-7.5,3.2c0,0-0.1,0.1-0.1,0.1c-5.5,7.3-11.3,14.8-20.2,18c-6.7,2.4-14.6,1-15.2-7c-0.5-5.6,3.3-12.3,5.5-17.2c1.6-3.4,6.3-13.4,9.4-13.6c3.4-0.3,5-2.9,4.9-5.5c1.2-1,2.1-2.4,2.2-4.4c0.1-3.3,1.1-6.6,2.4-9.6c0.6-1.3,1.4-2.4,2.2-3.6c0.6-0.7,2-1.3,1.4-1.7c3.4,1.7,4,9.8,4,12.8c0.1,2.3,2.1,4.7,4.4,5c17.5,1.9,28.6,12.7,38.9,25.9c3.6,4.6,7.7,9.7,13.3,11.8c3.3,1.2,6.9,1.5,10.4,1.8c10.8,0.9,21.8,0.9,32.6,0.4c5.5-0.2,19.1,0.6,21.8-5.9c0.1-0.3,0.2-0.5,0.3-0.8c0.3-0.4,0.5-0.8,0.7-1.2c4.6-10.4,16.2-14.7,26.1-10.7c4.7,1.9,9.2,4.3,13.6,6.9c2.1,1.2,4,2.6,5.9,4.2c0.3,0.2,0.8,0.7,1.1,1.1C459.9,359.1,459.9,359.5,459.9,359.9z"/></svg>