<svg xmlns="http://www.w3.org/2000/svg" viewBox="0 0 48 48" width="48px" height="48px"><path fill="#71c598" d="M15.594,30.281c0,0,2.883-7.531,8.629-7.031s6.965,2.219,7.996,6.063s0.64,4.252,0.64,4.252 s-15.672-0.158-17.578,0.717C15.219,32.406,15.438,31.094,15.594,30.281z"/><path fill="#2b8c5e" d="M22.073,44.314c0.108-2.6-1.191-4.978-2.666-6.863c-0.857-1.094-1.82-2.119-2.982-2.653 c-1.164-0.535-2.441-0.54-3.685-0.515c-2.194,0.045-4.616,0.282-6.148,2.194c-1.423,1.776-1.65,4.471-1.799,6.946 C4.792,43.423,15.689,45.12,22.073,44.314z"/><path fill="#4b7bb2" d="M26.515,44.439c-0.296-4.122,2.659-8.293,5.749-9.653c1.551-0.683,3.27-0.58,4.851-0.017 c3.437,1.224,5.107,3.859,6.353,7.981c0.406,1.344-1.539,1.771-2.188,1.781C38.364,44.578,32.627,44.603,26.515,44.439z"/><path fill="#fcbf95" d="M13.511,25.533c-1.187,0-1.77,0.484-2.508,1.525c-1.14,1.607-1.363,3.864-0.561,5.678 c0.209,0.473,0.491,0.926,0.895,1.235c0.648,0.495,1.504,0.553,2.309,0.575c0.554,0.015,1.14,0.015,1.622-0.27 c0.332-0.197,0.585-0.513,0.788-0.85c0.641-1.066,0.836-2.385,0.66-3.628c-0.176-1.243-0.705-2.413-1.408-3.436 C15.008,25.928,14.73,25.533,13.511,25.533z"/><path fill="#fcbf95" d="M32.229,27.723c-0.432,0.625-0.636,1.368-0.739,2.109c-0.158,1.135-0.1,2.324,0.379,3.374 c0.479,1.051,1.423,1.945,2.594,2.209c1.795,0.405,3.72-0.847,4.281-2.52c0.562-1.673-0.073-3.57-1.303-4.88 c-0.449-0.478-0.988-0.9-1.626-1.105C35.178,26.705,33.475,25.921,32.229,27.723z"/><path fill="#fcbf95" d="M14.501,3.566c-1.465-0.148-2.468-0.034-3.211,1.251c-0.743,1.285-0.803,2.906-0.334,4.317 c0.256,0.772,0.671,1.504,1.28,2.038c0.608,0.534,1.423,0.853,2.224,0.765c1.249-0.137,2.221-1.207,2.732-2.367 c0.162-0.368,0.292-0.756,0.324-1.157c0.047-0.585-0.116-1.164-0.281-1.727c-0.199-0.68-0.409-1.369-0.795-1.962 S15.196,3.664,14.501,3.566z"/><path fill="#fcbf95" d="M33.491,4.464c-1.394-0.052-2.554,0.583-2.891,1.977c-0.093,0.385-0.108,0.784-0.105,1.181 c0.006,0.912,0.11,1.839,0.454,2.679c0.344,0.841,0.821,1.594,1.632,1.962c0.811,0.368,1.832,0.296,2.506-0.296 c0.363-0.319,0.607-0.76,0.791-1.213c0.527-1.301,0.608-2.803,0.147-4.13S34.733,4.511,33.491,4.464z"/><path fill="#f58420" d="M22.474,21.028c-5.164-0.383-10.389-0.864-15.692-0.513c-0.675,0.045-1.217-0.574-1.04-1.227 c0.888-3.291,2.648-6.559,5.741-7.109c0.874-0.155,1.766-0.172,2.653-0.188c1.801-0.032,3.805,0.01,5.106,1.256 c0.691,0.662,1.075,1.575,1.44,2.46C21.171,16.894,21.984,19.842,22.474,21.028z"/><path fill="#73a1b2" d="M25.606,21.094c1.391-0.229,2.925-0.236,4.335-0.262c1.596-0.03,3.202-0.004,4.774,0.28 c0.652,0.118,1.296,0.279,1.953,0.36c1.426,0.176,2.948-0.013,4.37-0.22c-0.029-1.412-0.456-2.765-1.197-3.968 c-0.74-1.202-1.708-2.248-2.723-3.23c-0.615-0.595-1.279-1.186-2.098-1.431c-0.851-0.254-1.766-0.105-2.629,0.104 c-1.829,0.442-3.685,1.207-4.836,2.695c-0.327,0.423-0.588,0.893-0.819,1.374C26.095,18.128,25.792,19.627,25.606,21.094z"/><path fill="#fcbf95" d="M22.459,16.349c-0.956,0.986-1.524,2.724-1.477,4.122c0.038,1.124,0.395,2.268,1.151,3.075 c0.756,0.807,1.946,1.214,2.974,0.853c1.333-0.468,2.026-2.004,2.253-3.443c0.158-0.998,0.16-2.041-0.148-3.001 c-0.308-0.96-0.955-1.829-1.845-2.245S23.151,15.636,22.459,16.349z"/><path fill="#010101" d="M43.95,42.61c-1.294-4.28-3.004-6.635-5.768-7.922c0.46-0.456,0.827-1.01,1.036-1.634 c0.583-1.735,0.029-3.848-1.412-5.382c-0.579-0.615-1.197-1.031-1.837-1.238l-0.16-0.055c-0.686-0.24-2.461-0.849-3.807,0.821 c-0.471-1.204-1.271-2.471-2.222-3.111c-0.962-0.656-1.587-0.911-2.547-1.072c0.293-0.58,0.461-1.172,0.555-1.624 c0.595-0.031,1.195-0.046,1.792-0.054l0.37-0.01c1.42-0.03,3.08-0.02,4.68,0.27c0.22,0.04,0.45,0.09,0.68,0.14 c0.43,0.09,0.86,0.17,1.3,0.23c0.42,0.05,0.84,0.07,1.27,0.07c1.09,0,2.18-0.14,3.23-0.29c0.25-0.04,0.43-0.26,0.43-0.51 c-0.03-1.46-0.47-2.92-1.27-4.22c-0.84-1.35-1.94-2.49-2.8-3.33c-0.579-0.553-1.207-1.099-1.984-1.417 c0.34-0.323,0.622-0.756,0.856-1.333c0.586-1.445,0.643-3.079,0.156-4.481c-0.692-1.995-2.006-2.458-2.987-2.495c0,0,0,0,0,0 c-1.743-0.062-3.023,0.816-3.395,2.359c-0.11,0.454-0.122,0.912-0.12,1.302c0.009,1.157,0.165,2.067,0.491,2.865 c0.238,0.581,0.635,1.339,1.333,1.872c-2.146,0.586-3.677,1.486-4.659,2.757c-0.201,0.25-0.387,0.551-0.569,0.881 c-0.304-0.305-0.636-0.57-1.011-0.745c-1.045-0.486-2.607-0.154-3.48,0.745c-0.193,0.199-0.369,0.435-0.534,0.686 c-0.154-0.461-0.3-0.867-0.426-1.168c-0.36-0.89-0.77-1.89-1.55-2.63c-0.877-0.84-2.007-1.192-3.214-1.328 c0.511-0.452,0.951-1.058,1.273-1.79c0.216-0.491,0.333-0.91,0.365-1.318c0.056-0.695-0.141-1.367-0.299-1.907 c-0.185-0.631-0.415-1.416-0.856-2.095c-0.498-0.764-1.528-1.273-2.288-1.381c-0.007-0.001-0.014-0.002-0.02-0.002 C13.2,2.934,11.8,2.936,10.857,4.567c-0.773,1.338-0.914,3.104-0.376,4.725c0.309,0.93,0.801,1.709,1.425,2.257 c0.024,0.021,0.051,0.035,0.075,0.055c-0.197,0.023-0.394,0.049-0.591,0.086c-2.79,0.49-4.97,3.15-6.13,7.47 c-0.13,0.46-0.02,0.93,0.28,1.3c0.31,0.38,0.78,0.59,1.27,0.55c4.641-0.304,9.282,0.035,13.773,0.378 c0.107,0.598,0.306,1.146,0.576,1.633c-1.222,0.385-2.701,1.755-3.469,2.628c-0.373,0.427-0.879,1.048-1.239,1.702 c-0.209-0.428-0.444-0.854-0.732-1.273c-0.394-0.572-0.831-1.046-2.208-1.046c-1.409,0-2.136,0.637-2.916,1.736 c-1.25,1.761-1.489,4.182-0.61,6.169c0.177,0.399,0.381,0.725,0.609,0.997C8.909,34.173,7.34,34.754,6.2,36.17 C4.73,38,4.46,40.63,4.29,43.39c-0.01,0.26,0.17,0.49,0.43,0.53c0.35,0.05,7.25,1.11,13.26,1.11c1.47,0,2.9-0.06,4.16-0.22 c0.24-0.03,0.42-0.23,0.43-0.48c0.1-2.3-0.84-4.71-2.77-7.19c-0.719-0.918-1.717-2.036-2.965-2.68 c3.88-0.247,13.302-0.724,15.055-0.11c0.04,0.01,0.07,0.02,0.1,0.02c-3.14,1.41-6.3,5.65-5.97,10.11c0.01,0.25,0.22,0.45,0.48,0.46 c3.48,0.09,6.96,0.13,9.92,0.13c1.87,0,3.54-0.02,4.87-0.04c0.44-0.01,1.83-0.22,2.45-1.05C44.03,43.58,44.1,43.11,43.95,42.61z M32.64,28.008c0.496-0.717,1.057-0.94,1.62-0.94c0.414,0,0.829,0.121,1.22,0.257l0.182,0.062c0.484,0.156,0.947,0.475,1.416,0.973 c1.191,1.269,1.66,2.987,1.192,4.378c-0.503,1.499-2.228,2.52-3.697,2.192c-0.942-0.213-1.804-0.951-2.249-1.929 c-0.391-0.858-0.505-1.9-0.338-3.099C32.096,29.104,32.311,28.484,32.64,28.008z M31.412,10.111 c-0.277-0.676-0.409-1.469-0.417-2.493c-0.002-0.328,0.007-0.711,0.091-1.061c0.34-1.409,1.612-1.597,2.262-1.597 c0.044,0,0.086,0.001,0.124,0.003c0.987,0.037,1.668,0.634,2.081,1.823c0.409,1.177,0.358,2.554-0.138,3.778 c-0.19,0.468-0.405,0.804-0.657,1.025c-0.5,0.437-1.291,0.525-1.97,0.217C32.216,11.548,31.779,11.009,31.412,10.111z M27.95,15.73 c0.9-1.17,2.4-2,4.56-2.52c0.79-0.19,1.62-0.33,2.37-0.11c0.71,0.22,1.33,0.77,1.89,1.31c0.83,0.8,1.87,1.88,2.65,3.13 c0.62,1.02,1,2.15,1.09,3.28c-1.25,0.18-2.56,0.3-3.78,0.16c-0.41-0.06-0.82-0.14-1.22-0.22c-0.24-0.05-0.47-0.1-0.71-0.14 c-1.32-0.24-2.68-0.3-3.92-0.3c-0.32,0-0.64,0.01-0.95,0.01l-0.37,0.01c-0.545,0.008-1.09,0.03-1.635,0.054 c0.083-0.954,0.01-1.826-0.236-2.592c-0.108-0.335-0.256-0.643-0.424-0.934C27.49,16.406,27.716,16.036,27.95,15.73z M22.818,16.698C22.818,16.697,22.818,16.697,22.818,16.698c0.403-0.417,1.082-0.666,1.676-0.666c0.243,0,0.472,0.042,0.662,0.131 c0.704,0.329,1.295,1.057,1.581,1.945c0.252,0.784,0.296,1.716,0.131,2.77c-0.093,0.59-0.507,2.551-1.926,3.049 c-0.792,0.281-1.776-0.011-2.443-0.723c-0.618-0.659-0.979-1.636-1.017-2.75C21.438,19.121,21.999,17.542,22.818,16.698z M11.431,8.978c-0.449-1.354-0.34-2.815,0.293-3.91c0.468-0.81,1.015-1.054,1.904-1.054c0.244,0,0.513,0.019,0.813,0.048 c0.594,0.088,1.301,0.506,1.582,0.936c0.334,0.514,0.522,1.107,0.734,1.83c0.142,0.484,0.303,1.034,0.262,1.547 c-0.023,0.293-0.113,0.609-0.283,0.994c-0.407,0.923-1.233,1.952-2.329,2.072c-0.623,0.067-1.304-0.174-1.84-0.644 C12.076,10.367,11.683,9.737,11.431,8.978z M6.75,20.02c-0.17,0.01-0.33-0.06-0.44-0.19c-0.05-0.07-0.14-0.21-0.09-0.41 c0.62-2.28,2.13-6.17,5.35-6.75c0.84-0.15,1.72-0.16,2.57-0.18c1.79-0.03,3.62,0.03,4.76,1.12c0.62,0.6,0.99,1.5,1.32,2.29 c0.196,0.464,0.445,1.243,0.703,2.061c-0.289,0.775-0.449,1.62-0.438,2.415c-3.223-0.24-6.514-0.486-9.835-0.486 C9.35,19.89,8.05,19.93,6.75,20.02z M11.411,27.348c0.732-1.032,1.184-1.314,2.101-1.314c0.963,0,1.121,0.23,1.384,0.612 c0.726,1.056,1.171,2.14,1.325,3.224c0.171,1.207-0.04,2.379-0.593,3.3c-0.196,0.327-0.397,0.549-0.613,0.677 c-0.355,0.21-0.823,0.218-1.354,0.201c-0.766-0.021-1.497-0.073-2.019-0.474c-0.286-0.219-0.529-0.559-0.742-1.039 C10.172,30.889,10.377,28.805,11.411,27.348z M19.01,37.76c1.66,2.12,2.53,4.18,2.57,6.11C16.04,44.45,7.38,43.29,5.32,43 c0.16-2.43,0.45-4.7,1.66-6.21c1.236-1.54,3.137-1.883,4.961-1.98c0.544,0.17,1.124,0.22,1.692,0.237 c0.1,0.003,0.209,0.006,0.327,0.006c0.328,0,0.711-0.028,1.085-0.144c0.405,0.073,0.8,0.171,1.175,0.341 C17.37,35.78,18.32,36.87,19.01,37.76z M16.581,33.48c0.589-1.083,0.821-2.399,0.629-3.752c-0.043-0.306-0.107-0.612-0.191-0.916 c0-0.001,0-0.002,0-0.003c-0.06-0.38,0.35-1.3,1.41-2.5c1.34-1.49,2.77-2.4,3.35-2.4c0.007,0,0.01,0,0.014,0 c0.686,0.719,1.619,1.119,2.524,1.119c0.327,0,0.649-0.052,0.955-0.159c0.56-0.196,0.99-0.539,1.338-0.938 c1.104,0.151,1.639,0.325,2.608,0.977c0.945,0.646,1.8,2.236,2.121,3.461c-0.156,0.412-0.273,0.871-0.346,1.394 c-0.182,1.308-0.056,2.468,0.352,3.463C27.878,32.757,18.268,33.359,16.581,33.48z M42.93,43.39c-0.31,0.41-1.23,0.63-1.66,0.64 c-3.31,0.05-8.76,0.06-14.27-0.08c-0.05-3.77,2.72-7.5,5.47-8.71c0.097-0.042,0.193-0.075,0.29-0.11 c0.475,0.373,1.016,0.644,1.593,0.774c0.261,0.06,0.526,0.088,0.792,0.088c0.74,0,1.476-0.229,2.13-0.613 c2.792,1.11,4.427,3.25,5.716,7.512C43.07,43.15,43,43.29,42.93,43.39z"/></svg>