<svg xmlns="http://www.w3.org/2000/svg" viewBox="0 0 48 48" width="48px" height="48px"><path fill="#d6e5e5" d="M 39.476563 21.242188 C 39.488281 21.160156 39.496094 21.066406 39.496094 20.980469 C 39.496094 20.710938 39.488281 20.4375 39.460938 20.15625 C 39.414063 19.613281 39.335938 19.070313 39.261719 18.523438 C 39.085938 17.324219 38.804688 16.078125 38.785156 14.851563 C 36.101563 14.886719 33.421875 15.28125 30.742188 15.429688 C 29.570313 15.496094 28.40625 15.570313 27.234375 15.636719 C 27.195313 16.660156 27.507813 17.710938 27.589844 18.722656 C 27.683594 19.855469 27.769531 20.992188 27.863281 22.132813 C 27.890625 22.460938 27.917969 22.789063 27.9375 23.117188 C 27.984375 23.042969 28.058594 22.976563 28.164063 22.941406 C 28.921875 22.601563 29.8125 22.714844 30.609375 22.78125 C 31.632813 22.855469 32.652344 22.707031 33.664063 22.601563 C 34.726563 22.5 35.726563 22.367188 36.757813 22.105469 C 37.613281 21.882813 38.464844 21.636719 39.347656 21.507813 C 39.355469 21.507813 39.367188 21.507813 39.382813 21.507813 C 39.402344 21.441406 39.429688 21.375 39.46875 21.308594 C 39.414063 21.421875 39.46875 21.308594 39.476563 21.242188 Z"/><path fill="#ef4823" d="M 25.339844 14.738281 C 25.875 14.699219 26.398438 14.671875 26.933594 14.644531 C 26.960938 14.550781 27.019531 14.464844 27.113281 14.390625 C 27.179688 14.335938 27.253906 14.289063 27.328125 14.25 C 26.644531 14.351563 25.976563 14.503906 25.339844 14.738281 Z M 32.476563 13.085938 C 32.128906 13.226563 31.78125 13.339844 31.433594 13.445313 C 31.050781 13.554688 30.664063 13.648438 30.28125 13.734375 C 31.050781 13.601563 31.800781 13.351563 32.539063 13.097656 C 32.523438 13.097656 32.503906 13.085938 32.476563 13.085938 Z"/><path fill="#d6e5e5" d="M 19.632813 22.460938 C 19.5 21.328125 19.367188 20.203125 19.164063 19.085938 C 18.984375 18.132813 18.816406 17.164063 18.816406 16.199219 C 16.988281 16.3125 15.167969 16.425781 13.351563 16.566406 C 11.945313 16.667969 10.539063 16.828125 9.132813 16.894531 C 8.632813 16.921875 8.128906 16.941406 7.632813 16.894531 C 7.480469 16.882813 7.320313 16.867188 7.171875 16.867188 L 7.152344 16.867188 C 7.152344 16.875 7.144531 16.882813 7.144531 16.894531 C 7.117188 16.996094 7.097656 17.101563 7.085938 17.203125 C 7.070313 17.445313 7.070313 17.691406 7.085938 17.933594 C 7.125 18.476563 7.191406 19.023438 7.285156 19.554688 C 7.507813 20.980469 7.566406 22.40625 7.574219 23.851563 C 7.59375 23.867188 7.613281 23.898438 7.621094 23.925781 C 8.511719 23.605469 9.507813 23.597656 10.433594 23.53125 C 11.023438 23.492188 11.605469 23.390625 12.207031 23.382813 C 12.84375 23.371094 13.480469 23.417969 14.117188 23.464844 C 15.160156 23.550781 16.210938 23.625 17.25 23.652344 C 18.074219 23.671875 18.9375 23.679688 19.753906 23.511719 C 19.714844 23.15625 19.679688 22.808594 19.632813 22.460938 Z"/><path fill="#ef4823" d="M 39.636719 9.367188 C 39.007813 9.476563 38.382813 9.636719 37.773438 9.835938 C 37.648438 9.871094 37.527344 9.910156 37.414063 9.964844 C 37.367188 9.984375 37.351563 9.992188 37.351563 9.984375 C 37.332031 9.992188 37.292969 10.023438 37.210938 10.078125 C 36.722656 10.398438 36.253906 10.734375 35.785156 11.0625 C 35.335938 11.382813 34.894531 11.710938 34.425781 12 C 34.011719 12.320313 33.554688 12.589844 33.074219 12.816406 C 33 12.871094 32.925781 12.917969 32.851563 12.976563 C 32.851563 12.976563 32.851563 12.976563 32.839844 12.976563 C 33.046875 12.910156 33.242188 12.835938 33.441406 12.769531 C 34.574219 12.382813 35.652344 11.980469 36.835938 11.792969 C 37.867188 11.632813 38.90625 11.578125 39.957031 11.558594 C 40.023438 10.753906 40.117188 9.976563 40.425781 9.234375 C 40.164063 9.28125 39.898438 9.320313 39.636719 9.367188 Z"/><path fill="#d6e5e5" d="M 39.066406 38.296875 C 38.972656 37.285156 38.71875 36.308594 38.585938 35.304688 C 38.398438 33.882813 38.34375 32.457031 38.257813 31.023438 C 38.175781 29.625 38.0625 28.238281 37.96875 26.839844 C 37.875 25.554688 37.761719 24.261719 37.433594 23.007813 C 37.171875 23.070313 36.910156 23.148438 36.648438 23.210938 C 35.691406 23.445313 34.742188 23.558594 33.757813 23.644531 C 32.792969 23.738281 31.808594 23.898438 30.835938 23.832031 C 30.09375 23.785156 29.210938 23.605469 28.507813 23.925781 C 28.292969 24.019531 28.117188 23.960938 27.992188 23.832031 C 28.039063 24.414063 28.078125 24.992188 28.132813 25.566406 C 28.238281 26.710938 28.398438 27.84375 28.492188 28.976563 C 28.667969 31.292969 28.640625 33.609375 28.734375 35.925781 C 28.808594 37.835938 29.0625 39.742188 29.128906 41.644531 C 29.738281 41.585938 30.347656 41.632813 30.945313 41.71875 C 31.613281 41.8125 32.316406 41.980469 32.992188 41.945313 C 33.957031 41.898438 34.929688 41.945313 35.898438 41.859375 C 36.757813 41.785156 37.828125 41.679688 38.445313 40.996094 C 39.113281 40.273438 39.148438 39.234375 39.066406 38.296875 Z M 20.597656 37.179688 C 20.457031 34.695313 20.363281 32.222656 20.230469 29.738281 C 20.136719 27.992188 20.015625 26.269531 19.855469 24.535156 C 18.085938 24.871094 16.199219 24.617188 14.417969 24.515625 C 13.761719 24.476563 13.117188 24.402344 12.46875 24.402344 C 11.859375 24.414063 11.269531 24.496094 10.660156 24.542969 C 10.144531 24.582031 9.609375 24.589844 9.085938 24.648438 C 9.085938 24.683594 9.085938 24.710938 9.074219 24.75 C 8.851563 26.164063 9.101563 27.589844 9.375 28.976563 C 9.65625 30.414063 9.816406 31.835938 9.945313 33.289063 C 10.078125 34.742188 10.097656 36.214844 10.246094 37.660156 C 10.3125 38.324219 10.453125 38.980469 10.480469 39.648438 C 10.5 40.164063 10.480469 40.660156 10.472656 41.175781 C 10.460938 41.585938 10.425781 42.242188 10.847656 42.488281 C 11.183594 42.683594 11.558594 42.789063 11.945313 42.84375 C 12.835938 42.976563 13.742188 42.929688 14.632813 42.84375 C 16.707031 42.648438 18.730469 41.960938 20.8125 41.859375 C 20.773438 40.304688 20.679688 38.738281 20.597656 37.179688 Z"/><path fill="#ef4823" d="M 15.328125 10.265625 C 15.046875 9.476563 15.046875 8.484375 15.703125 7.875 C 17.371094 6.320313 19.695313 7.59375 20.886719 9.074219 C 21.132813 9.375 21.355469 9.695313 21.570313 10.023438 C 21.261719 9.242188 20.878906 8.484375 20.410156 7.78125 C 19.808594 6.871094 19.132813 5.980469 18.320313 5.25 C 17.570313 4.574219 16.585938 3.863281 15.523438 3.890625 C 13.5 3.929688 11.773438 6.007813 11.605469 7.941406 C 11.511719 8.980469 11.679688 10.003906 12.300781 10.855469 C 12.898438 11.679688 13.742188 12.289063 14.691406 12.664063 C 15.160156 12.851563 15.65625 12.984375 16.152344 13.097656 C 16.960938 13.210938 17.765625 13.332031 18.542969 13.546875 C 19.539063 13.753906 20.523438 13.996094 21.488281 14.289063 C 20.222656 13.554688 18.695313 13.210938 17.417969 12.488281 C 16.554688 11.980469 15.683594 11.257813 15.328125 10.265625 Z M 13.914063 13.761719 C 12.589844 13.445313 11.410156 12.84375 10.152344 12.328125 C 9.523438 12.066406 8.867188 11.832031 8.183594 11.746094 C 7.679688 11.691406 6.929688 11.625 6.496094 11.960938 C 6.214844 12.179688 6.1875 12.570313 6.160156 12.898438 C 6.140625 13.132813 6.121094 13.367188 6.085938 13.59375 C 7.039063 13.621094 7.996094 13.398438 8.953125 13.367188 C 10.144531 13.332031 11.351563 13.414063 12.535156 13.59375 C 13.152344 13.6875 13.773438 13.78125 14.398438 13.867188 C 14.242188 13.835938 14.070313 13.800781 13.914063 13.761719 Z M 35.335938 7.667969 C 35.117188 5.710938 33.582031 3.851563 31.480469 3.984375 C 29.148438 4.125 27.207031 5.746094 25.894531 7.585938 C 25.21875 8.523438 24.710938 9.542969 24.320313 10.621094 C 23.992188 11.511719 23.671875 12.460938 23.558594 13.414063 C 23.605469 13.554688 23.644531 13.695313 23.664063 13.835938 C 23.710938 13.773438 23.757813 13.707031 23.8125 13.640625 C 23.832031 13.398438 23.851563 13.152344 23.898438 12.917969 C 24.28125 10.667969 25.480469 8.464844 27.226563 6.984375 C 27.945313 6.375 28.753906 5.898438 29.71875 5.886719 C 30.496094 5.878906 31.414063 6.066406 31.960938 6.675781 C 33.476563 8.371094 31.78125 10.433594 30.28125 11.410156 C 29.363281 12.007813 28.414063 12.375 27.355469 12.65625 C 26.578125 12.863281 25.835938 13.179688 25.21875 13.667969 C 27.414063 12.929688 29.878906 12.992188 32.042969 12.132813 C 32.230469 12.054688 32.410156 11.980469 32.585938 11.886719 C 32.960938 11.625 33.367188 11.398438 33.757813 11.164063 C 34.808594 10.351563 35.511719 9.1875 35.335938 7.667969 Z M 27.683594 35.652344 C 27.609375 33.335938 27.636719 31.011719 27.429688 28.707031 C 27.328125 27.5625 27.167969 26.4375 27.074219 25.292969 C 26.980469 24.160156 26.90625 23.015625 26.8125 21.882813 C 26.710938 20.746094 26.632813 19.613281 26.539063 18.476563 C 26.464844 17.550781 26.230469 16.648438 26.222656 15.722656 C 25.433594 15.769531 24.648438 15.816406 23.859375 15.871094 C 23.691406 16.003906 23.457031 16.039063 23.269531 15.910156 C 22.855469 15.9375 22.453125 15.964844 22.039063 15.992188 C 21.308594 16.039063 20.570313 16.085938 19.835938 16.132813 C 19.847656 17.101563 20.015625 18.054688 20.183594 19.011719 C 20.390625 20.136719 20.523438 21.253906 20.652344 22.386719 C 20.925781 24.804688 21.113281 27.226563 21.242188 29.664063 C 21.375 32.148438 21.46875 34.621094 21.609375 37.105469 C 21.703125 38.710938 21.789063 40.304688 21.804688 41.90625 C 22.050781 42 22.179688 42.253906 22.164063 42.476563 C 22.882813 42.742188 23.785156 42.601563 24.507813 42.535156 C 25.707031 42.421875 26.878906 42.132813 28.078125 42.066406 C 28.050781 39.917969 27.75 37.789063 27.683594 35.652344 Z"/><path fill="#010101" d="M 41.484375 8.445313 C 40.875 7.949219 39.722656 8.296875 39.046875 8.445313 C 38.242188 8.617188 37.332031 8.785156 36.628906 9.234375 C 36.476563 9.328125 36.335938 9.421875 36.195313 9.523438 C 36.75 7.640625 36.132813 5.558594 34.734375 4.191406 C 33.121094 2.605469 30.730469 2.71875 28.828125 3.65625 C 26.914063 4.59375 25.433594 6.253906 24.367188 8.0625 C 23.8125 8.992188 23.429688 10.003906 23.089844 11.035156 C 23.070313 11.082031 23.0625 11.128906 23.042969 11.175781 C 22.566406 9.542969 21.851563 8.007813 20.859375 6.601563 C 19.660156 4.914063 17.914063 3 15.703125 2.867188 C 13.546875 2.746094 11.746094 4.5 10.96875 6.375 C 10.171875 8.277344 10.546875 10.425781 11.878906 11.960938 C 11.148438 11.644531 10.414063 11.296875 9.648438 11.042969 C 8.492188 10.660156 6.75 10.332031 5.746094 11.25 C 5.335938 11.625 5.222656 12.121094 5.15625 12.636719 L 5.15625 14.476563 C 5.222656 14.523438 5.289063 14.558594 5.363281 14.570313 C 6.488281 14.71875 7.601563 14.511719 8.71875 14.417969 C 9.917969 14.316406 11.148438 14.4375 12.335938 14.617188 C 14.117188 14.878906 15.929688 15.121094 17.738281 15.242188 C 15.695313 15.375 13.648438 15.507813 11.605469 15.664063 C 10.875 15.722656 10.144531 15.796875 9.414063 15.84375 C 8.792969 15.882813 8.203125 15.917969 7.742188 15.871094 C 7.398438 15.84375 7.023438 15.789063 6.675781 15.871094 C 6.414063 15.9375 6.242188 16.164063 6.226563 16.40625 C 6.085938 16.707031 6.054688 17.070313 6.046875 17.398438 C 6.019531 18.085938 6.121094 18.769531 6.226563 19.445313 C 6.335938 20.195313 6.449219 20.933594 6.496094 21.683594 C 6.535156 22.273438 6.542969 22.867188 6.542969 23.457031 C 6.542969 23.945313 6.414063 24.507813 6.898438 24.789063 C 7.011719 24.851563 7.132813 24.863281 7.257813 24.824219 C 7.367188 24.976563 7.566406 25.058594 7.800781 24.957031 C 7.875 24.929688 7.941406 24.898438 8.015625 24.871094 C 7.855469 26.222656 8.054688 27.554688 8.304688 28.894531 C 8.585938 30.382813 8.773438 31.867188 8.914063 33.382813 C 9.046875 34.894531 9.074219 36.414063 9.234375 37.921875 C 9.308594 38.585938 9.429688 39.242188 9.460938 39.910156 C 9.488281 40.5 9.421875 41.089844 9.441406 41.679688 C 9.515625 44.023438 12.28125 44.035156 14.015625 43.941406 C 16.351563 43.820313 18.589844 43.023438 20.925781 42.898438 C 20.945313 42.917969 20.960938 42.9375 20.980469 42.957031 C 21.898438 43.714844 23.128906 43.6875 24.253906 43.59375 C 25.707031 43.472656 27.121094 43.097656 28.585938 43.078125 C 28.808594 43.078125 28.949219 42.957031 29.007813 42.796875 C 29.035156 42.769531 29.0625 42.730469 29.082031 42.695313 C 30.46875 42.535156 31.808594 43.039063 33.1875 42.976563 C 34.210938 42.917969 35.230469 42.964844 36.242188 42.871094 C 37.191406 42.789063 38.230469 42.570313 38.972656 41.933594 C 39.769531 41.25 40.085938 40.265625 40.132813 39.242188 C 40.179688 38.175781 39.964844 37.117188 39.769531 36.066406 C 39.515625 34.734375 39.441406 33.375 39.367188 32.023438 C 39.28125 30.554688 39.160156 29.089844 39.066406 27.617188 C 38.972656 26.203125 38.878906 24.777344 38.585938 23.390625 C 38.539063 23.175781 38.492188 22.96875 38.4375 22.753906 C 38.773438 22.667969 39.113281 22.601563 39.460938 22.546875 C 39.683594 22.519531 39.824219 22.367188 39.882813 22.199219 C 40.023438 22.21875 40.164063 22.164063 40.273438 22.003906 C 40.539063 21.617188 40.546875 21.167969 40.546875 20.71875 C 40.539063 20.101563 40.453125 19.480469 40.367188 18.863281 C 40.292969 18.335938 40.226563 17.8125 40.164063 17.289063 C 40.039063 16.351563 39.777344 15.402344 39.835938 14.445313 C 39.863281 14.0625 39.515625 13.828125 39.226563 13.847656 C 39.1875 13.835938 39.160156 13.835938 39.121094 13.835938 L 38.925781 13.835938 C 38.90625 13.835938 38.886719 13.835938 38.867188 13.835938 C 37.492188 13.855469 36.121094 13.976563 34.753906 14.109375 C 33.882813 14.195313 33.007813 14.269531 32.136719 14.324219 C 32.699219 14.148438 33.261719 13.949219 33.824219 13.761719 C 34.921875 13.386719 35.960938 13.003906 37.117188 12.824219 C 38.242188 12.648438 39.382813 12.617188 40.507813 12.617188 C 40.714844 12.617188 40.960938 12.414063 40.976563 12.207031 C 41.035156 11.492188 41.0625 10.773438 41.25 10.078125 C 41.34375 9.582031 42.019531 8.878906 41.484375 8.445313 Z M 22.507813 13.566406 C 22.507813 13.613281 22.5 13.660156 22.5 13.707031 C 21.542969 13.050781 20.410156 12.617188 19.320313 12.207031 C 18.523438 11.898438 17.726563 11.550781 17.070313 10.976563 C 16.507813 10.480469 15.9375 9.589844 16.273438 8.820313 C 16.585938 8.128906 17.558594 8.128906 18.179688 8.289063 C 19.011719 8.503906 19.6875 9.195313 20.203125 9.851563 C 20.726563 10.519531 21.140625 11.269531 21.609375 11.980469 C 21.917969 12.460938 22.292969 12.992188 22.507813 13.566406 Z M 12.535156 13.59375 C 11.363281 13.414063 10.144531 13.320313 8.953125 13.367188 C 7.996094 13.40625 7.039063 13.621094 6.085938 13.59375 C 6.113281 13.359375 6.132813 13.125 6.160156 12.898438 C 6.1875 12.570313 6.214844 12.179688 6.496094 11.960938 C 6.929688 11.625 7.679688 11.691406 8.183594 11.746094 C 8.867188 11.832031 9.523438 12.066406 10.152344 12.328125 C 11.398438 12.84375 12.589844 13.433594 13.914063 13.761719 C 14.070313 13.800781 14.242188 13.835938 14.398438 13.875 C 13.78125 13.78125 13.152344 13.6875 12.535156 13.59375 Z M 16.164063 13.097656 C 15.664063 12.984375 15.167969 12.851563 14.699219 12.664063 C 13.753906 12.289063 12.910156 11.691406 12.308594 10.855469 C 11.691406 9.992188 11.511719 8.972656 11.617188 7.941406 C 11.792969 6.007813 13.507813 3.929688 15.535156 3.890625 C 16.59375 3.871094 17.578125 4.574219 18.328125 5.25 C 19.144531 5.980469 19.808594 6.871094 20.417969 7.78125 C 20.878906 8.484375 21.261719 9.234375 21.582031 10.023438 C 21.367188 9.695313 21.140625 9.382813 20.898438 9.074219 C 19.707031 7.59375 17.382813 6.308594 15.710938 7.875 C 15.054688 8.484375 15.054688 9.488281 15.335938 10.265625 C 15.695313 11.257813 16.554688 11.980469 17.445313 12.488281 C 18.710938 13.210938 20.25 13.554688 21.515625 14.289063 C 20.550781 13.996094 19.566406 13.753906 18.570313 13.546875 C 17.773438 13.332031 16.96875 13.210938 16.164063 13.097656 Z M 7.621094 23.914063 C 7.601563 23.886719 7.59375 23.859375 7.574219 23.839844 C 7.566406 22.398438 7.507813 20.972656 7.285156 19.546875 C 7.199219 19.011719 7.125 18.46875 7.085938 17.925781 C 7.070313 17.679688 7.070313 17.4375 7.085938 17.195313 C 7.097656 17.089844 7.117188 16.988281 7.144531 16.882813 C 7.144531 16.875 7.152344 16.867188 7.152344 16.855469 L 7.171875 16.855469 C 7.320313 16.855469 7.480469 16.875 7.632813 16.882813 C 8.128906 16.929688 8.632813 16.902344 9.132813 16.882813 C 10.539063 16.820313 11.945313 16.660156 13.351563 16.554688 C 15.167969 16.414063 16.996094 16.304688 18.816406 16.191406 C 18.824219 17.164063 18.992188 18.121094 19.164063 19.078125 C 19.367188 20.203125 19.5 21.320313 19.632813 22.453125 C 19.667969 22.800781 19.707031 23.148438 19.742188 23.503906 C 18.929688 23.671875 18.066406 23.664063 17.242188 23.644531 C 16.199219 23.625 15.148438 23.539063 14.109375 23.457031 C 13.472656 23.398438 12.835938 23.363281 12.195313 23.371094 C 11.605469 23.382813 11.015625 23.476563 10.425781 23.523438 C 9.496094 23.585938 8.503906 23.597656 7.621094 23.914063 Z M 14.617188 42.851563 C 13.726563 42.9375 12.816406 42.976563 11.925781 42.851563 C 11.539063 42.796875 11.164063 42.703125 10.828125 42.496094 C 10.414063 42.253906 10.445313 41.585938 10.453125 41.183594 C 10.460938 40.667969 10.480469 40.171875 10.460938 39.65625 C 10.433594 38.992188 10.292969 38.335938 10.226563 37.667969 C 10.078125 36.226563 10.058594 34.753906 9.929688 33.300781 C 9.796875 31.847656 9.636719 30.421875 9.355469 28.988281 C 9.085938 27.589844 8.832031 26.175781 9.054688 24.757813 C 9.066406 24.722656 9.066406 24.683594 9.066406 24.65625 C 9.589844 24.601563 10.125 24.582031 10.640625 24.554688 C 11.25 24.515625 11.839844 24.421875 12.449219 24.414063 C 13.105469 24.402344 13.753906 24.488281 14.398438 24.523438 C 16.179688 24.628906 18.066406 24.882813 19.835938 24.542969 C 19.996094 26.277344 20.117188 28.003906 20.210938 29.746094 C 20.34375 32.230469 20.4375 34.707031 20.578125 37.191406 C 20.671875 38.757813 20.757813 40.3125 20.773438 41.878906 C 18.710938 41.972656 16.6875 42.648438 14.617188 42.851563 Z M 24.523438 42.523438 C 23.804688 42.589844 22.902344 42.730469 22.179688 42.46875 C 22.191406 42.242188 22.070313 41.980469 21.824219 41.898438 C 21.804688 40.292969 21.722656 38.699219 21.628906 37.097656 C 21.476563 34.621094 21.382813 32.136719 21.261719 29.652344 C 21.132813 27.214844 20.953125 24.796875 20.671875 22.378906 C 20.539063 21.242188 20.410156 20.117188 20.203125 19.003906 C 20.023438 18.054688 19.867188 17.089844 19.855469 16.125 C 20.585938 16.078125 21.328125 16.03125 22.058594 15.984375 C 22.472656 15.957031 22.875 15.929688 23.289063 15.898438 C 23.476563 16.03125 23.710938 15.984375 23.878906 15.863281 C 24.664063 15.816406 25.453125 15.757813 26.242188 15.710938 C 26.25 16.640625 26.476563 17.539063 26.558594 18.46875 C 26.652344 19.601563 26.726563 20.738281 26.832031 21.871094 C 26.933594 23.007813 27.007813 24.148438 27.09375 25.285156 C 27.1875 26.429688 27.347656 27.5625 27.449219 28.695313 C 27.65625 31.003906 27.636719 33.328125 27.703125 35.644531 C 27.769531 37.78125 28.070313 39.917969 28.117188 42.054688 C 26.898438 42.121094 25.726563 42.414063 24.523438 42.523438 Z M 25.339844 14.738281 C 25.976563 14.503906 26.644531 14.363281 27.328125 14.25 C 27.253906 14.296875 27.1875 14.335938 27.113281 14.390625 C 27.019531 14.464844 26.960938 14.550781 26.933594 14.644531 C 26.398438 14.671875 25.875 14.699219 25.339844 14.738281 Z M 38.578125 35.304688 C 38.710938 36.308594 38.960938 37.285156 39.054688 38.296875 C 39.148438 39.242188 39.113281 40.285156 38.4375 41.015625 C 37.820313 41.691406 36.75 41.804688 35.886719 41.878906 C 34.921875 41.960938 33.945313 41.914063 32.980469 41.960938 C 32.304688 42 31.601563 41.820313 30.9375 41.738281 C 30.335938 41.652344 29.726563 41.605469 29.117188 41.664063 C 29.054688 39.75 28.800781 37.847656 28.726563 35.945313 C 28.632813 33.628906 28.660156 31.304688 28.480469 28.996094 C 28.398438 27.851563 28.226563 26.71875 28.125 25.585938 C 28.078125 25.003906 28.03125 24.421875 27.984375 23.851563 C 28.105469 23.980469 28.285156 24.039063 28.5 23.945313 C 29.203125 23.625 30.074219 23.804688 30.824219 23.851563 C 31.800781 23.914063 32.785156 23.757813 33.75 23.664063 C 34.734375 23.570313 35.679688 23.457031 36.636719 23.230469 C 36.898438 23.164063 37.164063 23.101563 37.425781 23.023438 C 37.753906 24.28125 37.867188 25.566406 37.960938 26.859375 C 38.054688 28.257813 38.164063 29.644531 38.25 31.039063 C 38.34375 32.445313 38.398438 33.882813 38.578125 35.304688 Z M 38.792969 14.859375 C 38.8125 16.085938 39.09375 17.324219 39.273438 18.535156 C 39.347656 19.078125 39.421875 19.613281 39.46875 20.164063 C 39.496094 20.4375 39.507813 20.710938 39.507813 20.992188 C 39.507813 21.085938 39.496094 21.167969 39.488281 21.253906 C 39.476563 21.320313 39.421875 21.429688 39.496094 21.320313 C 39.449219 21.382813 39.421875 21.449219 39.414063 21.515625 C 39.402344 21.515625 39.394531 21.515625 39.375 21.515625 C 38.492188 21.636719 37.640625 21.890625 36.789063 22.117188 C 35.757813 22.386719 34.742188 22.519531 33.695313 22.613281 C 32.671875 22.707031 31.660156 22.867188 30.636719 22.789063 C 29.839844 22.734375 28.941406 22.613281 28.191406 22.949219 C 28.085938 22.996094 28.023438 23.0625 27.964844 23.128906 C 27.9375 22.800781 27.917969 22.472656 27.890625 22.144531 C 27.796875 21.007813 27.710938 19.875 27.617188 18.730469 C 27.535156 17.71875 27.226563 16.667969 27.261719 15.648438 C 28.433594 15.570313 29.597656 15.507813 30.769531 15.441406 C 33.429688 15.289063 36.101563 14.898438 38.792969 14.859375 Z M 30.289063 13.734375 C 30.675781 13.648438 31.058594 13.554688 31.445313 13.445313 C 31.789063 13.339844 32.136719 13.226563 32.484375 13.085938 C 32.503906 13.085938 32.53125 13.097656 32.550781 13.097656 C 31.808594 13.351563 31.058594 13.59375 30.289063 13.734375 Z M 32.042969 12.148438 C 29.867188 13.011719 27.402344 12.945313 25.21875 13.6875 C 25.835938 13.191406 26.585938 12.871094 27.355469 12.675781 C 28.40625 12.394531 29.363281 12.027344 30.28125 11.429688 C 31.78125 10.453125 33.476563 8.390625 31.960938 6.695313 C 31.414063 6.085938 30.496094 5.898438 29.71875 5.90625 C 28.742188 5.914063 27.9375 6.394531 27.226563 7.003906 C 25.480469 8.484375 24.28125 10.6875 23.898438 12.9375 C 23.859375 13.171875 23.832031 13.414063 23.8125 13.660156 C 23.765625 13.726563 23.710938 13.789063 23.664063 13.855469 C 23.632813 13.714844 23.597656 13.574219 23.558594 13.433594 C 23.671875 12.476563 23.992188 11.53125 24.320313 10.640625 C 24.722656 9.554688 25.21875 8.539063 25.894531 7.601563 C 27.207031 5.765625 29.148438 4.144531 31.480469 4.003906 C 33.582031 3.871094 35.117188 5.726563 35.335938 7.6875 C 35.503906 9.207031 34.808594 10.367188 33.75 11.203125 C 33.355469 11.4375 32.960938 11.664063 32.578125 11.925781 C 32.410156 11.992188 32.222656 12.074219 32.042969 12.148438 Z M 25.003906 12.570313 C 25.332031 11.117188 26.089844 9.75 27.039063 8.632813 C 27.617188 7.949219 28.351563 7.238281 29.242188 7.003906 C 29.859375 6.835938 30.648438 6.9375 31.152344 7.351563 C 31.753906 7.847656 31.519531 8.71875 31.132813 9.273438 C 30.5625 10.085938 29.652344 10.679688 28.773438 11.109375 C 27.871094 11.550781 26.878906 11.671875 25.960938 12.066406 C 25.613281 12.207031 25.292969 12.375 25.003906 12.570313 Z M 39.957031 11.578125 C 38.914063 11.585938 37.875 11.644531 36.835938 11.8125 C 35.644531 12 34.566406 12.402344 33.441406 12.789063 C 33.242188 12.851563 33.039063 12.929688 32.839844 12.992188 C 32.839844 12.992188 32.839844 12.992188 32.851563 12.992188 C 32.925781 12.9375 33 12.882813 33.074219 12.835938 C 33.554688 12.609375 34.011719 12.335938 34.425781 12.019531 C 34.894531 11.726563 35.335938 11.398438 35.785156 11.082031 C 36.253906 10.742188 36.722656 10.414063 37.210938 10.097656 C 37.292969 10.039063 37.332031 10.011719 37.351563 10.003906 C 37.351563 10.003906 37.367188 10.003906 37.414063 9.984375 C 37.539063 9.9375 37.660156 9.898438 37.773438 9.851563 C 38.382813 9.65625 39.007813 9.496094 39.636719 9.382813 C 39.898438 9.335938 40.164063 9.300781 40.425781 9.28125 C 40.117188 9.992188 40.023438 10.773438 39.957031 11.578125 Z"/></svg>