<svg xmlns="http://www.w3.org/2000/svg" viewBox="0 0 512 512" width="192px" height="192px"><path fill="#BCBCBC" d="M300.9,66.8c-0.1-3.4-0.2-7.7-0.9-11.5c-2.5-1-3.6-3.5-3.4-6.2c0.3-4.1-6.4-5.4-10.4-5.5c-1.4,6.3-4.8,13.2-10.4,14.8c-9.4,2.6-19.4,1.6-29.1,0.9c-7.8-0.6-17.8,0.8-24.6-3.6c-2.2-1.5-3.8-3.4-4.9-5.5c-1.3,0.2-2.7,0.3-4,0.5c-1.2,0.2-2.7,0.3-3.7,0.6c-0.4,0.1-0.8,0.2-1.1,0.3c-0.8,1.2-1.9,1.8-3.1,2c-0.3,5.1-0.9,10.1-1,15.2c-0.1,5.6-0.6,13.1,2.8,18c4.5,6.5,15.8,5.2,22.7,4.9c10.3-0.6,20.5-2.2,30.7-3.5c7.1-0.9,14.2-0.5,21.3-0.7c4.7-0.1,13.9,0.4,17.2-3.9C301.3,80.2,301,71.4,300.9,66.8z M223.4,81.8c-0.2,1.1-0.7,2-1.4,2.8c-1.1,1.3-2.9,2-4.6,2c-1.5,0-2.9-0.3-4.1-1.4c-1.1-0.9-1.7-2.3-1.9-3.7c-0.1-1.5,0.4-3,1.4-4.1c0.2-0.3,0.5-0.5,0.8-0.7c0.1-0.1,0.1-0.2,0.2-0.3c0.9-1.1,2.3-1.7,3.7-1.9c1.5-0.1,3,0.4,4.1,1.4c1,0.9,1.9,2.3,1.9,3.7C223.5,80.4,223.5,81.1,223.4,81.8z M238.4,85.7c-7.1,0-7.9-11-0.8-11C244.6,74.7,245.5,85.7,238.4,85.7z M266.1,82.8c-0.9,1-2.3,1.9-3.7,1.9h-1c-1.5,0-2.9-0.3-4.1-1.4c-1.1-0.9-1.7-2.3-1.9-3.7c-0.1-1.5,0.4-3,1.4-4.1c0.9-1,2.3-1.9,3.7-1.9h1c1.5,0,2.9,0.3,4.1,1.4c1.1,0.9,1.7,2.3,1.9,3.7C267.6,80.2,267.1,81.7,266.1,82.8z M280.4,82.7c-7.1,0-7.9-11-0.8-11C286.6,71.7,287.5,82.7,280.4,82.7z"/><path fill="#BCBCBC" d="M276.1,36.6c-0.6-9.3-19.4-7-26-6.9c-4,0-8.4,1.1-12.3,1.9c-2.5,0.5-5.1,1-7.5,2c-0.6,0.2-1.3,0.5-1.9,0.8c-0.4,1.7-1.5,3-2.9,3.6c0,3.7,0.4,7.9,3.9,9.1c2.7,0.9,5.8,0.6,8.6,0.7c3.2,0.2,6.3,0.4,9.5,0.6c7.1,0.5,14.5,1.2,21.6,0.2c3-0.4,4.1-1.3,5.4-4.2C275.4,42,276.3,39.2,276.1,36.6z"/><path fill="#EF4823" d="M330.6,169.3c-2.3-12.6-11.6-31.1-27-24.2c-11.9,5.3-20.6,17.9-25.6,29.5c-1.9,4.4-8.6,3.7-10.1-0.6c-4.6-13.6-12.7-30.3-29.4-30.5c-14.7-0.2-32.5,7.9-29,25.2c3.2,16.1,13.8,30.5,24.3,42.7c5,5.8,10.4,10.2,16.2,15.1c4.5,3.7,8.7,7.8,11.6,12.8c9.1-4.8,17.9-10.1,26.6-15.6c7.7-4.9,15.7-9.2,22.9-14.9C323,199.1,333.5,185.6,330.6,169.3z"/><path fill="#D6E5E5" d="M397.6,411.7c-0.6-6.6-1.1-13.1-1.9-19.6c-1.7-15-2.6-29.8-3.2-44.9c-1.2-29.5-2.4-58.9-3.6-88.4c-0.6-14.9-0.8-29.9-2.2-44.8c-1.3-14.1-3.7-28.2-5-42.3c-1.4-14.7-1.1-29.4-1.8-44.2c-0.5-12.7-1.2-25.3-1.4-38c-18.1-0.2-36.2-1.7-54.3-2.5c-4.8-0.2-9.7-0.4-14.6-0.6c-0.3,0.7-0.7,1.5-1.1,2.1c-8.8,14.2-30.5,8.3-44.2,10c-12.4,1.6-24.8,3.9-37.2,4.1c-9.2,0.1-20.5,0.2-27.2-7.3c-1.3-1.4-2.4-3-3.2-4.6c-8,0.5-16,0.7-24,0.9c-8.7,0.2-17.5,0.8-25.9,3.6c-1.2,0.4-2.3,0.4-3.3,0.1c0.4,27.7,3.8,55.5,6.7,83c3.1,30,6.3,59.9,7.9,90c1.6,30.5,2.7,60.9,4.2,91.4c0.7,14.8,1.5,29.6,3.3,44.4c1.5,12.3,3,24.7,3,37.1c5.9-1.8,12.2-2.3,18.2-3.8c9-2.2,18-4.3,27.2-5.5c20-2.4,40.3-3.2,60.4-2.9c21.1,0.3,42.3,1.5,63.4,0.2c10.1-0.6,20-2.1,30.1-3.1c8.1-0.8,16.2-1.4,24.2-2.7c1.4-2.4,4.8-3.6,7.4-2.4C399.2,418,397.8,414,397.6,411.7z M199.5,154.5c5.9-16.9,29.1-25.1,45.5-21.1c14,3.3,22.7,13.6,28.6,25.7c6.7-11,16.5-21.2,28.2-25c18.8-6,32.2,9.2,37.6,25.9c6.4,19.8-0.7,38.8-15.8,52.4c-7.6,6.9-16,11.9-24.6,17.4c-11.1,7.1-22.2,14.1-34,20c-2.2,1.1-4.4,0.7-6-0.4c-2.4,0.4-5-0.5-6.3-3.3c-3.3-7.8-12.3-12.8-18.6-18c-7.2-5.9-13.6-14.7-19-22.3c-5.8-8.2-10.4-16.8-14-26.2C198.2,171.5,196.6,162.8,199.5,154.5z M292.6,296.7h29c7.1,0,7.9,11,0.8,11h-29C286.4,307.7,285.5,296.7,292.6,296.7z M281.1,292c-20.6-0.8-41,2.6-61.6,2.7c-7.1,0-7.9-10.9-0.8-11c19.9-0.1,39.7-3.6,59.5-2.8c7,0.3,14.1,0.6,21.1,0.3c3.9-0.2,12.2-0.1,14.7-2.7c4.9-5.1,13.2,2.1,8.3,7.3c-4.4,4.6-11.4,5.6-17.4,6.1C296.8,292.5,288.9,292.3,281.1,292z M345.4,417.7c-10.3,0.1-20.7,1-31,1c-7.1,0-7.9-10.9-0.8-11c10.3,0,20.7-0.9,31-1C351.6,406.6,352.5,417.6,345.4,417.7z M347,399.6c-8.3-2.7-17-0.1-25.5,0.1c-7.1,0.1-7.9-10.8-0.8-11c9.5-0.2,19.2-3,28.5,0.1C355.7,390.9,353.7,401.8,347,399.6z M349.4,382.7h-37c-7.1,0-7.9-11-0.8-11h37C355.6,371.7,356.5,382.7,349.4,382.7z M360.4,335.7h-2c0,0,0,0,0,0c-8.1,0-16.1,0-24.2-0.2c-7.6-0.2-15.2-1.1-22.8-0.8c-5.3,0.2-7.2,4.7-8.9,9.3c-2.3,6.4-3.8,13-7.6,18.6c-2.1,3.2-7.1,4.5-9.5,0.6c-3.8-6.3-4.1-13.4-7-19.9c-1.8-4-4.1-7.6-6.8-10.8c-1.4,6.6-1.6,13.5-2.9,20.1c-1.8,9.8-6.9,19-7.2,29.1c-0.1,4.5-5.3,8.2-9.1,4.6c-8.5-8-10.7-19.8-13.6-30.7c-1.9-7.3-3.4-15-5.6-22.4c-1,4.6-1.9,9.3-2.8,14c-0.4,2.3-2.5,4.4-5,4.4h-52c-7.1,0-7.9-11-0.8-11h47.9c1.7-8.6,3.4-17.2,6.1-25.6c1.3-4.1,7.3-6.7,10-2c6.5,11.3,8.5,24,12,36.4c1.5,5.6,2.6,12.2,4.7,18.1c1.7-5.6,3.6-11.2,4.6-17.1c1.7-10.4,2.1-21,6.2-30.8c1.4-3.3,6-3.9,8.6-1.7c6.1,5.2,11.5,11.4,14.9,18.8c1.2,2.7,2,5.7,2.8,8.6c3.3-9.8,6.7-20.1,17.5-21.6c7.7-1.1,15.9,0.3,23.7,0.5c9.4,0.3,18.7,0.3,28.1,0.3C366.6,324.7,367.5,335.7,360.4,335.7z"/><path fill="#127274" d="M435.2,170.8c3-21.1,6.1-44,1-65C433.9,96.1,430,86.3,423,79c-8.5-8.9-19.6-15.2-31.4-18.6c-25.8-7.4-53.8-6.8-80.6-5.6c0.6,3.7,0.8,7.5,0.9,11.1c0.1,2.9,0.2,6.3,0,9.7c3.9,0.1,7.7,0.3,11.6,0.5c19.4,0.9,38.8,2.6,58.2,2.6c1.4,0,2.6,0.5,3.5,1.2c2.3,0.2,4.4,1.8,4.4,4.9c0,15.3,1,30.5,1.6,45.8c0.6,14.8,0.3,29.5,2,44.2c1.7,14.7,4.1,29.4,5.1,44.2c1,14.9,1.3,29.9,1.9,44.9c1.2,30.1,2.5,60.2,3.7,90.3c0.6,15.1,2.2,29.9,3.7,44.8c0.6,6.1,1.1,12.1,2,18.2c0.6,4.1,1.3,8.6-0.6,12.4c-1.5,3.1-4.7,3.5-7.1,2.4c-0.9,0.8-2.1,1.4-3.4,1.7c-9.8,2-19.8,2.7-29.7,3.7c-10,1-20,2.5-30.1,3.1c-20.5,1.1-41,0.1-61.4-0.2c-20.1-0.3-40.5,0.2-60.5,2.6c-9.4,1.1-18.3,3.4-27.6,5.4c-7.1,1.6-14.7,2.1-21.4,5.1c-2.8,1.3-5,0.1-6.2-1.9c-2.3-0.2-4.3-1.8-4.2-4.8c0.6-14.6-1.4-29-3.1-43.4c-1.7-14.8-2.4-29.6-3.2-44.5c-1.5-30.5-2.5-60.9-4.2-91.4c-1.7-30.1-4.9-60-8-90c-2.9-28.4-6.4-57.2-6.5-85.8c0-4.9,5.2-6.8,8.4-5.2c0.6-0.6,1.3-1.1,2.2-1.4c16-5.5,33.5-4.2,50.3-5c-0.7-5.3-0.4-11,0.1-16.5c-4,1.4-8.7,1.5-12.3,1.7c-8.5,0.4-17.1,0.1-25.6-0.2c-7.3-0.3-14.5-0.2-21.9,0.1c-6.6,0.2-15.4,0.2-19.9,5.5c-2,15.4-3.9,30.7-4.2,46.3c-0.4,19.5,0.5,39,2.3,58.4c5.7,62.2,11.5,124.9,9.2,187.4c-1.5,40.3-8.1,102.7,38.7,120.4c19.9,7.6,42.3,7.6,63.3,6.7c24.4-1,48.9-1.9,73.3-4.3c27.1-2.7,54.6-7.2,79.9-17.7c22.5-9.3,42.9-22.9,50.3-47.3c7.2-23.7,4.5-48.3,3-72.6c-2-32.1-3-64.2-1.9-96.3C428.7,224.3,431.4,197.6,435.2,170.8z"/><path d="M359.6 324.7c-9.4 0-18.7 0-28.1-.3-7.8-.2-15.9-1.6-23.7-.5-10.8 1.5-14.2 11.9-17.5 21.6-.8-3-1.6-5.9-2.8-8.6-3.4-7.4-8.8-13.6-14.9-18.8-2.6-2.2-7.2-1.7-8.6 1.7-4.1 9.8-4.4 20.4-6.2 30.8-1 5.9-3 11.5-4.6 17.1-2.2-5.9-3.2-12.6-4.7-18.1-3.4-12.4-5.5-25.1-12-36.4-2.7-4.7-8.6-2-10 2-2.7 8.4-4.4 17-6.1 25.6h-47.9c-7.1 0-6.2 11 .8 11h52c2.4 0 4.5-2.2 5-4.4.9-4.7 1.8-9.3 2.8-14 2.2 7.4 3.7 15.1 5.6 22.4 2.9 10.8 5 22.6 13.6 30.7 3.8 3.6 9-.1 9.1-4.6.3-10.1 5.4-19.3 7.2-29.1 1.2-6.6 1.5-13.5 2.9-20.1 2.7 3.2 5 6.8 6.8 10.8 3 6.5 3.2 13.7 7 19.9 2.4 3.9 7.4 2.6 9.5-.6 3.8-5.7 5.3-12.3 7.6-18.6 1.7-4.7 3.6-9.1 8.9-9.3 7.6-.3 15.2.6 22.8.8 8.1.2 16.1.2 24.2.2 0 0 0 0 0 0h2C367.5 335.7 366.6 324.7 359.6 324.7zM321.6 296.7h-29c-7.1 0-6.2 11 .8 11h29C329.5 307.7 328.6 296.7 321.6 296.7zM348.6 371.7h-37c-7.1 0-6.2 11 .8 11h37C356.5 382.7 355.6 371.7 348.6 371.7zM349 388.8c-9.3-3-19-.3-28.5-.1-7.1.1-6.2 11.1.8 11 8.5-.2 17.2-2.8 25.5-.1C353.7 401.8 355.7 390.9 349 388.8zM344.6 406.7c-10.3.1-20.7 1-31 1-7.1 0-6.2 11 .8 11 10.3 0 20.7-.9 31-1C352.5 417.6 351.6 406.6 344.6 406.7z"/><path d="M448.4,153.2c2.1-21.2,2.5-43.9-6-63.9c-9.5-22.2-30.6-35.1-53.3-40.9c-26.1-6.7-54.6-5.7-81.6-4.4c-0.6-1.2-1.5-1.9-2.4-2.2c-3.6-5.9-11.1-9.2-18.5-9.3c-3.3-14.7-23.9-14-36.5-13.8c-6.1,0.1-12.7,1.7-18.7,3c-5.1,1.2-11.8,3.4-13.5,8.6c-1.9,0.8-3.4,2.6-3.4,5.2c0,1.3,0,2.5,0.1,3.8c0,0,0,0,0,0c-2,0.2-4,0.5-6,0.8c-2.5,0.5-5.2,1.1-7.3,2.7c-3.1-0.4-6.8,1.6-6.9,5.7c0,0.6,0,1.3,0,2c-1.3,0.1-2.5,0.7-3.6,2c-0.1,0.1-0.1,0.1-0.1,0.2c0,0-0.2,0-0.6,0.2c-1.3,0.5-2.6,0.7-3.9,0.9c-4.2,0.6-8.4,0.7-12.6,0.7c-8.3,0.1-16.7-0.4-25-0.7c-8-0.3-16.4,0-24.4,0.9c-8,0.9-15.9,3.9-20.3,10.5h-0.5l-0.1,1.1c-0.4,0.8-0.9,1.6-1.2,2.5c-0.7,1.8-0.5,3.5,0.3,4.8c-1.2,9.6-2.4,19.2-3,28.9c-1,16.1-0.9,32.1-0.2,48.2c1.6,32.7,5.8,65.2,8,97.9c2.2,32.6,3.3,65.3,3.4,98c0,23.6-2.4,47.1-0.7,70.6c1.6,22.3,7.3,46.1,23.7,62.4c14.9,14.8,37.7,19.3,57.9,20.8c21.7,1.6,43.5-0.3,65.1-1.3c27.3-1.2,54.7-3.2,81.6-8.7c25.4-5.2,52.3-13.4,73.1-29.4c18.4-14.1,27.5-35.5,30.2-58.1c3.2-26.9-1-54.4-2.2-81.3c-1.4-32.1-1.4-64.3,0.8-96.4C441.6,201.1,446,177.3,448.4,153.2z M228.4,34.3c0.6-0.3,1.3-0.6,1.9-0.8c2.4-0.9,5-1.5,7.5-2c3.9-0.8,8.3-1.9,12.3-1.9c6.5,0,25.4-2.4,26,6.9c0.2,2.6-0.7,5.4-1.8,7.8c-1.3,2.9-2.4,3.8-5.4,4.2c-7.1,1-14.5,0.3-21.6-0.2c-3.2-0.2-6.3-0.4-9.5-0.6c-2.8-0.1-5.9,0.2-8.6-0.7c-3.5-1.2-3.9-5.4-3.9-9.1C226.9,37.3,228,36,228.4,34.3z M204.3,68.8c0.1-5.1,0.7-10.1,1-15.2c1.2-0.2,2.3-0.8,3.1-2c0.4-0.1,0.8-0.2,1.1-0.3c1-0.3,2.5-0.4,3.7-0.6c1.3-0.2,2.7-0.3,4-0.5c1.1,2.1,2.7,4,4.9,5.5c6.8,4.5,16.8,3.1,24.6,3.6c9.6,0.7,19.6,1.7,29.1-0.9c5.6-1.5,9-8.5,10.4-14.8c4,0.1,10.6,1.4,10.4,5.5c-0.2,2.7,0.9,5.2,3.4,6.2c0.7,3.8,0.7,8.1,0.9,11.5c0.2,4.6,0.5,13.5-2,16.8c-3.2,4.3-12.5,3.7-17.2,3.9c-7.1,0.2-14.2-0.2-21.3,0.7c-10.2,1.4-20.4,3-30.7,3.5c-6.9,0.4-18.2,1.7-22.7-4.9C203.7,81.9,204.1,74.4,204.3,68.8z M196.7,90.8c0.9,1.6,1.9,3.2,3.2,4.6c6.7,7.5,18,7.4,27.2,7.3c12.5-0.1,24.9-2.5,37.2-4.1c13.7-1.8,35.4,4.2,44.2-10c0.4-0.7,0.8-1.4,1.1-2.1c4.9,0.2,9.7,0.4,14.6,0.6c18.1,0.8,36.2,2.3,54.3,2.5c0.2,12.7,0.8,25.3,1.4,38c0.6,14.7,0.3,29.5,1.8,44.2c1.4,14.1,3.7,28.2,5,42.3c1.4,14.8,1.5,29.9,2.2,44.8c1.2,29.5,2.4,58.9,3.6,88.4c0.6,15,1.5,29.9,3.2,44.9c0.8,6.5,1.3,13.1,1.9,19.6c0.2,2.3,1.6,6.3,1.8,9.6c-2.6-1.2-6,0-7.4,2.4c-8,1.3-16.1,2-24.2,2.7c-10,0.9-20,2.5-30.1,3.1c-21.1,1.3-42.3,0.1-63.4-0.2c-20.1-0.3-40.4,0.4-60.4,2.9c-9.3,1.1-18.2,3.3-27.2,5.5c-6,1.4-12.3,1.9-18.2,3.8c0.1-12.4-1.5-24.7-3-37.1c-1.8-14.8-2.6-29.5-3.3-44.4c-1.5-30.5-2.6-60.9-4.2-91.4c-1.6-30.1-4.8-60-7.9-90c-2.9-27.5-6.2-55.3-6.7-83c1,0.3,2.1,0.3,3.3-0.1c8.3-2.9,17.1-3.4,25.9-3.6C180.7,91.5,188.7,91.3,196.7,90.8z M435.2,170.8c-3.8,26.8-6.5,53.6-7.5,80.7c-1.1,32.1-0.1,64.3,1.9,96.3c1.5,24.3,4.3,48.9-3,72.6c-7.5,24.4-27.9,38-50.3,47.3c-25.3,10.5-52.8,15-79.9,17.7c-24.3,2.4-48.8,3.3-73.3,4.3c-21,0.9-43.4,0.9-63.3-6.7c-46.8-17.8-40.2-80.2-38.7-120.4c2.4-62.5-3.5-125.2-9.2-187.4c-1.8-19.4-2.7-38.9-2.3-58.4c0.3-15.5,2.2-30.9,4.2-46.3c4.5-5.3,13.3-5.2,19.9-5.5c7.3-0.2,14.6-0.4,21.9-0.1c8.5,0.4,17.1,0.7,25.6,0.2c3.6-0.2,8.3-0.3,12.3-1.7c-0.5,5.5-0.7,11.2-0.1,16.5c-16.8,0.8-34.3-0.5-50.3,5c-0.9,0.3-1.7,0.8-2.2,1.4c-3.2-1.6-8.4,0.3-8.4,5.2c0.1,28.6,3.6,57.3,6.5,85.8c3.1,30,6.3,59.9,8,90c1.7,30.5,2.8,60.9,4.2,91.4c0.7,14.9,1.4,29.7,3.2,44.5c1.7,14.4,3.7,28.8,3.1,43.4c-0.1,3,1.8,4.6,4.2,4.8c1.1,2,3.4,3.2,6.2,1.9c6.7-3.1,14.3-3.6,21.4-5.1c9.2-2,18.2-4.2,27.6-5.4c20-2.4,40.4-2.9,60.5-2.6c20.5,0.3,41,1.3,61.4,0.2c10.1-0.5,20-2.1,30.1-3.1c10-1,19.9-1.7,29.7-3.7c1.3-0.3,2.5-0.8,3.4-1.7c2.4,1.1,5.6,0.7,7.1-2.4c1.9-3.9,1.2-8.3,0.6-12.4c-0.9-6-1.3-12.1-2-18.2c-1.6-15-3.1-29.8-3.7-44.8c-1.2-30.1-2.5-60.2-3.7-90.3c-0.6-14.9-1-29.9-1.9-44.9c-0.9-14.8-3.4-29.5-5.1-44.2c-1.7-14.7-1.5-29.4-2-44.2c-0.6-15.3-1.5-30.5-1.6-45.8c0-3.1-2.1-4.6-4.4-4.9c-0.9-0.7-2.1-1.2-3.5-1.2c-19.4,0-38.8-1.7-58.2-2.6c-3.9-0.2-7.7-0.3-11.6-0.5c0.2-3.4,0.1-6.8,0-9.7c-0.1-3.6-0.3-7.4-0.9-11.1c26.8-1.3,54.8-1.8,80.6,5.6c11.8,3.4,22.9,9.7,31.4,18.6c7,7.3,10.9,17.1,13.2,26.7C441.3,126.8,438.2,149.7,435.2,170.8z"/><path d="M339.4 159.9c-5.4-16.7-18.8-32-37.6-25.9-11.8 3.8-21.5 14-28.2 25-5.8-12.1-14.5-22.3-28.6-25.7-16.5-3.9-39.6 4.3-45.5 21.1-2.9 8.3-1.3 17.1 1.7 25.1 3.5 9.4 8.1 18 14 26.2 5.4 7.6 11.8 16.3 19 22.3 6.3 5.1 15.3 10.2 18.6 18 1.2 2.8 3.9 3.7 6.3 3.3 1.6 1.1 3.8 1.5 6 .4 11.8-5.9 22.9-12.9 34-20 8.6-5.5 17-10.5 24.6-17.4C338.7 198.7 345.8 179.7 339.4 159.9zM311.1 208.7c-7.1 5.7-15.2 10-22.9 14.9-8.7 5.5-17.5 10.9-26.6 15.6-2.9-5-7.2-9-11.6-12.8-5.8-4.9-11.2-9.3-16.2-15.1-10.6-12.1-21.1-26.6-24.3-42.7-3.5-17.3 14.3-25.4 29-25.2 16.7.2 24.8 16.9 29.4 30.5 1.5 4.3 8.2 5.1 10.1.6 5-11.7 13.7-24.2 25.6-29.5 15.4-6.9 24.7 11.6 27 24.2C333.5 185.6 323 199.1 311.1 208.7zM313.9 278.5c-2.5 2.6-10.8 2.5-14.7 2.7-7 .3-14.1 0-21.1-.3-19.8-.8-39.7 2.7-59.5 2.8-7.1 0-6.2 11 .8 11 20.6-.1 41.1-3.5 61.6-2.7 7.9.3 15.8.6 23.6-.1 6.1-.5 13-1.5 17.4-6.1C327.1 280.7 318.8 273.4 313.9 278.5zM221.6 76c-1.1-1-2.6-1.5-4.1-1.4-1.4.1-2.8.8-3.7 1.9-.1.1-.1.2-.2.3-.3.2-.6.5-.8.7-1 1.1-1.5 2.6-1.4 4.1.1 1.4.8 2.8 1.9 3.7 1.2 1 2.5 1.4 4.1 1.4 1.7 0 3.5-.6 4.6-2 .7-.8 1.2-1.7 1.4-2.8.1-.7.1-1.4.1-2.1C223.5 78.4 222.6 76.9 221.6 76zM237.6 74.7c-7.1 0-6.2 11 .8 11C245.5 85.7 244.6 74.7 237.6 74.7zM265.6 75c-1.2-1-2.5-1.4-4.1-1.4h-1c-1.4 0-2.8.9-3.7 1.9-1 1.1-1.5 2.6-1.4 4.1.1 1.4.8 2.8 1.9 3.7 1.2 1 2.5 1.4 4.1 1.4h1c1.4 0 2.8-.9 3.7-1.9 1-1.1 1.5-2.6 1.4-4.1C267.4 77.3 266.7 76 265.6 75zM279.6 71.7c-7.1 0-6.2 11 .8 11C287.5 82.7 286.6 71.7 279.6 71.7z"/></svg>