<svg xmlns="http://www.w3.org/2000/svg" viewBox="0 0 48 48" width="48px" height="48px"><path fill="#fcbf95" d="M39.281,6.391c0,0-2.641-0.594-2.926,2.609c0,0-0.923,1.071-0.128,1.656 c0.795,0.585,1.705,1.423,1.705,1.423S39.531,9.641,39.281,6.391z"/><path fill="#4b7bb2" d="M21.796,18.313c0,0,5.098,2.469,7.11,3.925c1.258-1.398,2.553-1.864,4.188-3.27 c1.635-1.405,5.307-6.322,5.307-6.322s-1.388-1.774-2.52-2.543c-1.319,0.273-2.478,0.793-3.732-0.686 c-1.254-1.479-2.983-1.239-4.233,0.688C26.666,12.031,21.796,18.313,21.796,18.313z"/><path fill="#4b7bb2" d="M24.646,36.771c0,0,1.154,1.703,2.286,1.768c-0.598,0.914-0.989,0.735-0.429,3.348 c0.56,2.613,1.657,1.943,0.702,3.559c-0.962-0.76-5.788-5.28-5.788-5.28L24.646,36.771z"/><path fill="#4b7bb2" d="M5.375,38.979c0,0,1.5,0.354,2.396,1.729c-0.758,0.492-1.267,0.221-0.852,2.163 s0.625,2.018,2.468,3.397c-1.469,0.045-2.117,0.608-4.179-1.101c-2.062-1.708-2.881-1.895-2.881-1.895S3.57,41.094,5.375,38.979z"/><path fill="#73a1b2" d="M39.451,6.544c-2.43-0.177-2.988,1.137-3.107,2.581c-0.152,1.854-2.588,1.41-3.515,0.896 c0,0-1.64-1.115-1.599-2.714c0.041-1.599,0.601-3.893,3.425-4.444C37.479,2.313,39.276,4.047,39.451,6.544z"/><path fill="#73a1b2" d="M13.531,32.291l2.625-4.478c0,0,2.982-7.718,5.819-9.234c2.774,1.197,6.848,3.659,6.848,3.659 l-1.087,1.362c0,0,4.452,2.612,6.428,4.288c1.976,1.676,4.117,4.083,1.867,5.739c-2.19-1.696-5.554-2.995-12.324-4.915 c-1.884,1.736-5.598,4.726-7.551,5.961C14.265,32.994,13.531,32.291,13.531,32.291z"/><path fill="#fcbf95" d="M5.678,38.759c0,0,2.884-4.428,7.634-6.468c1.531,0.866,2.656,2.147,2.844,2.491 c-1.018,0.666-8.136,5.69-8.136,5.69L5.678,38.759z"/><path fill="#fcbf95" d="M24.469,36.688c0,0,2.484-2.67,4.829-3.852c2.345-1.182,2.901-1.587,3.903-1.151 c1.002,0.436,2.867,1.4,2.693,2.107c-0.811,0.405-3.747,1.439-5.883,2.605s-3.312,2.362-3.312,2.362L24.469,36.688z"/><path fill="#fcbf95" d="M33.768,18.462c1.418,1.051,2.811,1.419,4.525,1.838c0.633,0.155,1.352,0.296,1.894-0.066 c0.395-0.263,2.556-3.262,3.03-4.453c0.278-0.698,0.679-1.124,0.657-1.875C43.876,13,42.999,12.41,42.166,13l-7.01,2.688 L33.768,18.462z"/><path fill="#fcbf95" d="M28.972,9.171c0.162,0.208,0.186,0.492,0.108,0.744c-0.179,0.578-0.461,1.344-1.075,1.639 c-0.412,0.198-0.896,0.148-1.347,0.078c-0.176-0.027-0.354-0.058-0.517-0.129c-0.243-0.106-2.483-1.604-3.344-1.992 c-1.605,0.633-3.517,2.919-4.772,4.102c-0.274,0.258-0.562,0.515-0.911,0.656c-0.349,0.141-0.775,0.148-1.079-0.074 c-0.376-0.275-0.459-0.825-0.32-1.27c0.139-0.445,1.631-2.083,1.938-2.434c0.914-1.046,1.912-1.935,2.882-2.998 c0.733-0.804,1.844-1.141,2.903-0.892c0.656,0.155,1.378,0.378,2.031,0.692C27.098,8.077,28.297,8.303,28.972,9.171z"/><path fill="#c56528" d="M42.25,12.486c0.083-0.471-0.269-0.903-0.746-0.931c-1.352-0.079-3.371,0.19-4.676,1.092 c-0.843,0.583-1.644,1.936-1.91,2.447c-0.269,0.515-0.536,1.137-0.262,1.65c0.222,0.415,0.722,0.591,1.187,0.674 c1.558,0.277,3.225-0.131,4.477-1.095C41.364,15.517,41.998,13.909,42.25,12.486z"/><path fill="#010101" d="M43.523,12.427c-0.239-0.125-0.502-0.171-0.766-0.153c-0.016-0.261-0.108-0.514-0.273-0.723 c-0.231-0.293-0.578-0.473-0.951-0.495c-0.691-0.042-1.561,0.002-2.439,0.176c0.926-1.901,1.025-4.393,0.676-5.705 c-0.46-1.732-1.842-2.963-3.607-3.212c-1.365-0.191-2.87,0.275-3.919,1.223c-1.192,1.076-1.652,2.484-1.473,4.494 c-0.785-0.084-1.373,0.037-1.864,0.366c-0.497-0.405-1.123-0.661-1.865-0.964c-0.41-0.168-0.864-0.354-1.358-0.591 c-0.607-0.292-1.325-0.537-2.134-0.729c-1.235-0.294-2.535,0.108-3.387,1.042c-0.436,0.478-0.877,0.92-1.315,1.357 c-0.523,0.523-1.064,1.065-1.573,1.648l-0.157,0.178c-1.259,1.416-1.769,2.076-1.881,2.436c-0.218,0.698-0.012,1.447,0.501,1.822 c0.244,0.179,0.552,0.271,0.876,0.271c0.226,0,0.46-0.044,0.686-0.136c0.427-0.173,0.761-0.468,1.066-0.755 c0.311-0.293,0.66-0.651,1.036-1.036c1.034-1.06,2.307-2.365,3.383-2.879c0.577,0.297,1.555,0.914,2.228,1.338 c0.61,0.385,0.816,0.513,0.928,0.562c0.021,0.009,0.041,0.012,0.062,0.02c-0.803,0.863-2.237,2.408-2.651,3.141 c-0.445,0.789-1.291,2.237-1.948,3.067c-0.003,0.003-0.003,0.008-0.005,0.011c-0.003,0.004-0.008,0.006-0.012,0.011 c-0.004,0.007-0.476,0.676-0.893,1.168c-0.135,0.159-0.26,0.341-0.38,0.532c-1.573,1.285-2.403,3.153-3.204,4.961 c-0.203,0.457-0.404,0.912-0.617,1.355c-0.415,0.864-1.001,1.895-1.569,2.891c-0.584,1.026-1.101,1.933-1.351,2.525 c-3.094,0.88-6.263,4.54-9.008,7.929c-0.285,0.367-0.577,0.698-0.87,1.03c-0.306,0.347-0.611,0.694-0.909,1.078 c-0.278,0.359-0.593,0.766-0.736,1.287c-0.02,0.072-0.071,0.266,0.006,0.474c0.123,0.336,0.446,0.432,0.57,0.469 c0.688,0.199,1.216,0.629,1.829,1.126l0.349,0.28c0.135,0.107,0.267,0.22,0.398,0.331c0.365,0.311,0.742,0.631,1.199,0.865 c0.728,0.372,1.534,0.46,2.29,0.46c0.364,0,0.717-0.02,1.043-0.039c0.178-0.01,0.337-0.114,0.417-0.273s0.07-0.349-0.027-0.498 c-0.274-0.421-0.645-0.781-1.072-1.042c-0.103-0.063-0.208-0.119-0.314-0.177c-0.192-0.104-0.375-0.201-0.499-0.323 c-0.105-0.104-0.191-0.247-0.261-0.373c-0.347-0.628-0.384-1.539-0.42-2.422c-0.008-0.197,0.003-0.348,0.223-0.482 c1.396-0.859,3.348-2.265,5.235-3.624c1.705-1.228,3.467-2.496,4.718-3.285c0.03-0.02,0.059-0.041,0.084-0.066 c0.877-0.863,1.732-1.459,2.56-2.035c1.208-0.841,2.35-1.643,3.424-3.135c1.188,0.439,2.664,0.877,4.118,1.302 c1.05,0.308,2.123,0.622,3.075,0.935c-2.752,1.192-6.444,4.702-7.491,5.981c-0.383,0.512-0.82,0.952-1.283,1.419 c-0.207,0.208-0.414,0.417-0.619,0.635c-0.12,0.127-0.437,0.466-0.314,0.914c0.045,0.165,0.139,0.281,0.194,0.351 c0.197,0.245,4.884,4.725,5.688,5.153c0.074,0.039,0.155,0.059,0.235,0.059c0.108,0,0.216-0.035,0.305-0.104 c0.19-0.146,0.432-0.495,0.49-0.996c0.05-0.434-0.026-1.117-0.672-1.908c-0.27-0.38-0.653-2.794-0.567-3.185 c0.18-0.661,0.836-1.373,1.407-1.785c0.96-0.693,2.829-1.478,4.636-2.236c1.433-0.602,2.785-1.169,3.642-1.675 c0.012-0.007,0.018-0.018,0.029-0.026c0.006-0.004,0.013-0.002,0.019-0.006c1.01-0.765,1.439-2.292,0.901-3.204 c-1.775-3.006-5.15-5.059-8.127-6.869c-0.308-0.187-0.608-0.371-0.908-0.555c0.385-0.322,0.742-0.715,1.087-1.109 c0.48-0.548,0.977-1.113,1.469-1.337c0.69-0.313,1.283-0.653,1.812-1.042c0.403-0.296,0.734-0.586,1.009-0.862 c1.35,0.93,2.654,1.303,4.438,1.739c0.375,0.092,0.777,0.177,1.175,0.177c0.386,0,0.769-0.08,1.116-0.312 c0.535-0.357,2.744-3.496,3.217-4.684c0.08-0.199,0.17-0.375,0.256-0.542c0.224-0.435,0.456-0.885,0.437-1.518 C44.375,13.266,44.049,12.698,43.523,12.427z M41.032,12.041c0.153,0,0.301,0.005,0.442,0.013c0.122,0.007,0.193,0.076,0.225,0.117 c0.03,0.038,0.078,0.118,0.059,0.228c-0.217,1.223-0.789,2.792-1.744,3.527c-1.139,0.879-2.667,1.252-4.083,1 c-0.308-0.055-0.703-0.172-0.834-0.419c-0.157-0.293,0.046-0.762,0.265-1.182c0.298-0.571,1.046-1.78,1.75-2.267 C38.149,12.342,39.75,12.041,41.032,12.041z M36.457,10.214c0.193-0.249,0.347-0.584,0.385-1.048 c0.103-1.262,0.535-2.106,2.115-2.128c0.033,1.361-0.277,3.133-1.113,4.362C37.431,10.866,36.892,10.473,36.457,10.214z M32.914,4.279c0.836-0.755,2.027-1.128,3.109-0.975c1.36,0.192,2.425,1.142,2.78,2.479c0.02,0.075,0.032,0.17,0.048,0.254 C37,6.092,36.009,7.093,35.845,9.084c-0.039,0.47-0.26,0.641-0.423,0.728c-0.61,0.328-1.78,0.088-2.351-0.228 c-0.076-0.091-0.148-0.174-0.202-0.234l-0.077-0.084c-0.291-0.318-0.598-0.632-0.975-0.871C31.491,5.953,32.183,4.94,32.914,4.279z M30.722,9.026c0.559,0.067,0.883,0.423,1.332,0.914l0.077,0.084c0.184,0.201,0.511,0.605,0.642,0.807 c0.172,0.263,0.164,0.44,0.106,0.992c-0.04,0.39-0.971,2.199-3.091,2.199c-0.005,0-0.011,0-0.017,0 c-0.986-0.005-2.265-0.833-2.548-1.835c0.331,0.01,0.672-0.025,0.999-0.182c0.761-0.365,1.103-1.188,1.337-1.942 c0.094-0.303,0.081-0.617-0.023-0.89C29.826,9.008,30.189,8.962,30.722,9.026z M25.546,10.554 c-0.826-0.521-1.957-1.234-2.545-1.499c-0.123-0.056-0.263-0.06-0.389-0.009c-1.313,0.518-2.762,2.003-3.926,3.196 c-0.364,0.374-0.704,0.723-1.005,1.006c-0.246,0.231-0.489,0.449-0.755,0.557c-0.223,0.089-0.461,0.084-0.597-0.016 c-0.184-0.134-0.214-0.47-0.139-0.711c0.058-0.151,0.396-0.635,1.675-2.075l0.164-0.184c0.486-0.558,0.992-1.064,1.527-1.6 c0.448-0.448,0.9-0.901,1.347-1.391c0.476-0.522,1.148-0.81,1.842-0.81c0.192,0,0.385,0.021,0.576,0.066 c0.739,0.175,1.388,0.396,1.93,0.656c0.514,0.248,0.986,0.441,1.413,0.616c0.888,0.362,1.529,0.625,1.914,1.119 c0.05,0.064,0.06,0.177,0.025,0.288c-0.161,0.518-0.398,1.138-0.815,1.338c-0.288,0.138-0.695,0.091-1.054,0.034 c-0.153-0.023-0.289-0.047-0.386-0.09C26.249,10.999,25.941,10.803,25.546,10.554z M8.065,45.825 c0.088,0.048,0.177,0.095,0.263,0.147c-0.586-0.012-1.168-0.092-1.671-0.35c-0.354-0.181-0.671-0.451-1.007-0.736 c-0.141-0.119-0.281-0.239-0.426-0.354l-0.34-0.273c-0.583-0.473-1.183-0.96-1.988-1.247c0.115-0.248,0.3-0.486,0.479-0.718 c0.285-0.367,0.577-0.698,0.87-1.03c0.306-0.347,0.611-0.694,0.903-1.07c0.163-0.201,0.328-0.404,0.494-0.606 c0.338,0.193,0.668,0.399,0.973,0.643c0.12,0.096,0.234,0.214,0.351,0.329c-0.634,0.452-0.616,1.093-0.604,1.387 c0.035,0.869,0.08,1.951,0.542,2.787c0.104,0.188,0.238,0.406,0.433,0.599C7.564,45.557,7.83,45.699,8.065,45.825z M12.232,36.908 c-1.548,1.114-3.12,2.241-4.396,3.08c-0.003-0.001-0.006-0.002-0.008-0.003c-0.255-0.163-0.501-0.464-0.738-0.644 c-0.257-0.195-0.529-0.363-0.805-0.528c2.141-2.558,4.47-5.016,6.688-5.96c0.455,0.255,0.939,0.465,1.36,0.772 c0.388,0.282,0.763,0.65,1.078,1.026C14.439,35.323,13.362,36.095,12.232,36.908z M19.606,31.512 c-0.85,0.593-1.728,1.204-2.651,2.105c-0.221,0.14-0.468,0.306-0.711,0.468c-0.359-0.458-0.821-0.885-1.284-1.234 c-0.257-0.194-0.538-0.348-0.823-0.497c0.032-0.043,0.069-0.082,0.086-0.134c0.154-0.469,0.745-1.507,1.371-2.605 c0.576-1.012,1.171-2.057,1.601-2.952c0.217-0.453,0.423-0.918,0.63-1.384c0.36-0.812,0.714-1.6,1.121-2.328 c-0.023,0.105-0.048,0.212-0.067,0.312c-0.217,1.121-0.067,2.215,0.421,3.077c0.744,1.316,2.176,1.995,3.337,2.481 C21.701,30.045,20.682,30.762,19.606,31.512z M27.011,44.685c-1.226-1.008-4.361-3.958-4.903-4.506 c0.007-0.008,0.014-0.016,0.022-0.024c0.198-0.211,0.399-0.414,0.6-0.615c0.466-0.471,0.949-0.957,1.36-1.507 c0.138-0.169,0.312-0.361,0.499-0.563c0.441,0.499,0.96,0.937,1.535,1.275c-0.143,0.246-0.262,0.503-0.335,0.77 c-0.146,0.662,0.265,3.446,0.76,4.053C26.947,44.053,27.027,44.432,27.011,44.685z M32.417,34.81 c-1.859,0.78-3.782,1.587-4.835,2.348c-0.278,0.201-0.573,0.475-0.851,0.78c-0.547-0.31-1.027-0.712-1.444-1.184 c2.116-2.072,5.675-4.869,7.192-4.713c1.1,0.198,1.963,0.775,2.725,1.544C34.436,33.961,33.449,34.376,32.417,34.81z M26.973,22.52 c-0.229-0.15-0.541-0.088-0.692,0.144c-0.152,0.23-0.088,0.54,0.143,0.692c0.73,0.48,1.517,0.959,2.325,1.45 c2.877,1.749,6.138,3.732,7.786,6.522c0.203,0.344,0.061,1.158-0.467,1.706c-0.918-0.978-2.011-1.74-3.359-1.969 C31.453,30.552,29.7,30.038,28,29.541c-1.691-0.495-3.439-1.007-4.647-1.504c-1.389-0.572-2.586-1.131-3.185-2.189 c-0.371-0.656-0.481-1.507-0.31-2.396c0.206-1.063,0.695-2.599,1.397-3.426c0.258-0.304,0.526-0.658,0.711-0.911 c0.125,0.05,0.26,0.103,0.413,0.162c0.725,0.278,1.718,0.66,2.412,1.106c0.41,0.265,0.896,0.55,1.382,0.834 c0.67,0.392,1.396,0.821,1.834,1.154c-0.185,0.183-0.37,0.333-0.556,0.454C27.294,22.724,27.128,22.622,26.973,22.52z M32.136,19.102c-0.473,0.348-1.007,0.654-1.633,0.938c-0.688,0.312-1.257,0.96-1.807,1.588c-0.002,0.002-0.004,0.005-0.006,0.007 c-0.485-0.383-1.221-0.82-2.009-1.281c-0.473-0.277-0.947-0.554-1.346-0.811c-0.78-0.503-1.829-0.906-2.595-1.2 c-0.056-0.021-0.109-0.042-0.161-0.062c0.571-0.815,1.188-1.862,1.644-2.668c0.313-0.555,1.498-1.858,2.239-2.658 c0.62,1.202,2.088,2.06,3.304,2.066c0.007,0,0.015,0,0.022,0c2.649,0,3.997-2.214,4.094-3.172c0.034-0.323,0.054-0.635-0.021-0.965 c0.257,0.048,0.521,0.083,0.787,0.083c0.298,0,0.583-0.053,0.856-0.136c0.382,0.177,1.056,0.575,1.507,1.126 c-0.16,0.087-0.319,0.176-0.466,0.278c-1.063,0.734-1.969,2.435-2.069,2.626c-0.2,0.384-0.59,1.14-0.359,1.868 C33.91,17.211,33.523,18.083,32.136,19.102z M43.049,14.967c-0.1,0.194-0.204,0.398-0.296,0.63 c-0.461,1.157-2.514,3.96-2.843,4.222c-0.366,0.244-0.941,0.134-1.498-0.004c-1.631-0.399-2.829-0.755-4.014-1.543 c0.182-0.253,0.319-0.485,0.422-0.685c0.253,0.148,0.564,0.258,0.935,0.324c0.347,0.062,0.699,0.092,1.052,0.092 c1.366,0,2.737-0.452,3.817-1.283c0.855-0.659,1.553-1.884,1.942-3.359c0.177-0.092,0.351-0.122,0.498-0.045 c0.192,0.1,0.312,0.326,0.312,0.606C43.387,14.312,43.246,14.587,43.049,14.967z"/></svg>