<svg xmlns="http://www.w3.org/2000/svg" viewBox="0 0 512 512" width="48px" height="48px"><path fill="#14B6B9" d="M308.4 155.5c.4.3.6.5.7.5 0 0 0 0 .1 0C308.9 155.8 308.6 155.7 308.4 155.5zM228.6 202c.8-16.5 1.7-33.1.4-49.7-4.2-.2-8.5-.4-12.6.5 0 .1 0 .3 0 .4 0 1.7.1 3.4.3 5.1.4 3.8.9 7.5 1.3 11.3 1.1 9.4.4 19 .9 28.4.9 17.1 3.1 34.3 3.5 51.5.1.1.2.2.2.4.4 0 .8-.1 1.2-.1 1-.1 2-.2 3-.4.5-.1.9-.2 1.4-.3.2-.2.4-.5.6-.7.1-.1.3-.3.4-.4-.4-6.4-1.4-12.8-1.5-19.2C227.8 219.8 228.2 210.9 228.6 202z"/><path fill="#71C598" d="M434.5,290c-13.8,0.5-27.6,1.5-41.5,1.5c-0.9,0-1.7-0.2-2.4-0.5c-18.1,25.3-36.2,50.6-61.9,68.8c-20.9,14.8-45.2,23.6-70.9,24.3c-27.2,0.7-54.3-5.9-78.7-17.9c-45.7-22.6-88.6-65.7-93.6-118.8c-4.9-51.4,29.1-95.3,73.9-116.6c23.8-11.3,50.2-16.6,76.5-13.9c28,2.9,54,14.1,78.4,27.5c2.1,1.2,2.9,3.1,2.9,5c1.6,4.2-3.6,9.2-8.1,6.6c0,0,0,0-0.1,0c-0.1,0-0.4-0.1-0.8-0.1c-1.4,0-2.9,0-4.3,0.2c-3.1,0.3-6.3,0.8-9.4,1.4c-2.3,0.5-4.6,1-6.9,1.7c3.1,1.3,6.2,3.2,9.1,4.8c7.7,4.1,15.3,8.8,22.7,13.6c7.5,4.9,14,10.3,20.3,16.7c6.2,6.2,12.4,12.5,19.4,17.7c12,9,27,14.1,36.6,26.2c3.4,4.2,6.6,8.6,10,12.8c0.6,0.8,1.2,1.5,1.9,2.3c0.5-2,0.9-4,1-6.1c0.4-6.5,0.8-12.7,1.9-19.2c2.4-13.7,2.6-27.1,2.6-41v-40.4c0-6.5-0.7-12.1-2.4-18.4c-0.9-3.4-1.9-6.8-2.5-10.3c-6,1.7-12,3-18.1,4.4c-1.9,1.6-4.7,2.1-7.2,0.3c-16.9-12.3-33.8-24.8-51.9-35.3c-26.5-15.4-55.2-25.9-85.9-28.6c-29.3-2.6-59.5,1.8-87.2,11.7C106.5,88.7,60.9,127,39.4,178.1c-22.3,53.3-18,117.5,12.6,166.7c30,48.2,79.9,80.3,133,98.1c29.9,10,61.7,14,93.1,9.5c28.7-4.1,56.9-13.9,82.1-28.2c23.6-13.4,45.7-30.2,61.6-52.4c7.4-10.3,13.5-21.6,17.8-33.5c4.8-13.2,7.1-27.1,9.6-40.9c0-0.2,0.1-0.3,0.1-0.5c0-0.6,0.1-1.2,0.4-1.9C451.6,289.6,437.5,289.9,434.5,290z"/><path fill="#14B6B9" d="M286.8,212.5c-0.3-1.6-0.7-3.1-1-4.7c-2.4,0.6-4.9,1.9-6.9,2.8c-3.9,1.8-7.6,3.9-11.4,5.8c-8.2,4.3-16.6,8.5-25.2,12c-0.1,0-0.1,0.1-0.2,0.1c-1.1,0.8-2.1,1.3-3.3,1.6c0.1,3.3,0.4,6.7,0.8,10.1c9.5-5.9,20.1-9.8,30.1-15.1c5.1-2.7,11.1-3.7,15.9-6.7C287.8,217,287.4,215.9,286.8,212.5z"/><path d="M309.2 156C309.1 156 309.1 156 309.2 156 309.1 156 309.2 156 309.2 156 309.2 156 309.2 156 309.2 156zM442.4 279.3c-6-.6-11.8-.1-17.8.4-10.7.9-21.5.8-32.3.8-.6 0-1.1.1-1.5.2-2-1.5-4.9-1.7-6.8 1-15.2 21.2-29.8 42.5-49.7 59.9-19.2 16.8-42 28-67.5 30.9-53.6 6-110-22.4-143-63.7-16.3-20.4-27.2-45.1-27.6-71.5-.4-25.1 10.8-48.8 27.5-67.1 16.4-17.9 38.2-30.3 61.2-37.4 26.8-8.3 54.8-6.7 81.3 1.8 9.7 3.1 19.2 7.2 28.4 11.8-6.5 1.2-15.8 2.4-20.6 7.4-1.4 1.5-1.7 3.2-1.3 4.7-1 2.1-.8 4.7 1.3 6.4 1.8 1.4 3.9 2.1 6 3 3.1 1.3 6.1 2.8 9.1 4.4 7.9 4 15.4 8.8 22.9 13.4 16.3 9.9 27.5 25.5 43 36.6 7.5 5.4 16 9.2 23.6 14.6 5.5 3.9 7.6 6.5 11.7 11.7 3.4 4.4 6.8 8.9 10.5 13.1 1.4 1.6 2.8 3.4 4.5 4.9 1.2 2.1 3.5 3.3 5.8 2.4.1 0 .1 0 .2 0 3.4-.1 5-2.7 4.9-5.4 4.2-7.6 3.4-18.6 4.1-26.4.7-7.2 2.6-14.3 3.4-21.5.8-7.3.7-14.7.7-22v-44.3c0-6.9-.1-13.3-1.7-20-1.1-4.8-2.8-9.4-3.4-14.2 1.5-2 1.7-4.9-.7-7.1-.8-1.7-2.5-2.6-4.4-2.6-.9-.2-2-.2-3.1.1-7.9 2.6-15.9 4.4-24 6.2C364 95 341 78.5 315.4 66.3c-27.3-13-57.5-19.4-87.7-19.5-57-.1-113 23.8-154 62.9-41 39.2-61.7 94.1-58.9 150.6 2.8 56.1 30.9 107.4 74.1 142.7 22 18 47.2 32.3 73.5 43.1 28.2 11.6 57.7 18.7 88.3 19.1 56.8.6 116.2-24 157.9-62.2 13.9-12.7 25.5-27.9 34.2-44.7 9.6-18.6 13.6-38.6 17.3-59 .1-.5.1-1 .1-1.4C463.2 286.3 453.3 280.5 442.4 279.3zM449.7 294.9c-.2.6-.3 1.3-.4 1.9 0 .2-.1.3-.1.5-2.5 13.8-4.7 27.7-9.6 40.9-4.4 11.9-10.4 23.2-17.8 33.5-16 22.3-38 39-61.6 52.4-25.2 14.3-53.4 24.1-82.1 28.2-31.3 4.5-63.2.6-93.1-9.5C132 425.1 82 393 52 344.8c-30.6-49.2-34.9-113.4-12.6-166.7C60.9 127 106.5 88.7 158 70.2c27.7-9.9 57.9-14.3 87.2-11.7 30.7 2.7 59.4 13.2 85.9 28.6 18.1 10.5 35 23 51.9 35.3 2.5 1.8 5.3 1.3 7.2-.3 6.1-1.4 12.1-2.7 18.1-4.4.6 3.5 1.5 6.9 2.5 10.3 1.7 6.3 2.4 11.9 2.4 18.4v40.4c0 13.9-.2 27.3-2.6 41-1.1 6.5-1.5 12.6-1.9 19.2-.1 2.1-.5 4.1-1 6.1-.6-.8-1.2-1.5-1.9-2.3-3.4-4.2-6.6-8.5-10-12.8-9.6-12.1-24.6-17.2-36.6-26.2-7-5.2-13.2-11.5-19.4-17.7-6.3-6.4-12.7-11.8-20.3-16.7-7.3-4.7-15-9.4-22.7-13.6-3-1.6-6-3.4-9.1-4.8 2.3-.7 4.6-1.2 6.9-1.7 3.1-.6 6.2-1.1 9.4-1.4 1.4-.1 2.9-.2 4.3-.2.4 0 .7.1.8.1-.1-.1-.3-.2-.7-.5.3.2.5.4.8.5 0 0 0 0 0 0 4.5 2.6 9.8-2.4 8.1-6.6.1-1.9-.7-3.8-2.9-5C290 131 264 119.8 236.1 116.9c-26.3-2.7-52.7 2.6-76.5 13.9-44.9 21.3-78.8 65.2-73.9 116.6 5 53.1 47.9 96.2 93.6 118.8 24.3 12 51.5 18.6 78.7 17.9 25.7-.7 50-9.5 70.9-24.3 25.8-18.2 43.8-43.5 61.9-68.8.7.3 1.5.5 2.4.5 13.9 0 27.6-1.1 41.5-1.5C437.5 289.9 451.6 289.6 449.7 294.9z"/><path d="M295.2,200.2c-0.4-1.7-2.4-3.5-4.1-3.6c-9.2-0.7-17.6,4.2-25.4,8.4c-8.7,4.6-17.6,9.1-26.8,12.9c0.1-5,0.4-10,0.6-15c0.9-18.8,2-37.6,0-56.3c-0.3-3.2-2.8-5-5.9-5.1c-7.6-0.1-15-0.8-22.4,1.3c-1.5,0.4-2.5,1.3-3.1,2.4c-0.1,0.1-0.1,0.1-0.2,0.2c-4.4,4-2.3,13.3-1.7,18.4c1.1,9.3,1.3,18.3,1.5,27.8c0.4,21.7,3.9,43.4,3.9,65.1c0,4.7,4.9,5.9,8.1,4.1c5.5,1.1,12.6-1.3,17.2-2.5c2.4-0.6,3.6-3.1,3.7-5.4c5.7-4.4,12.3-7.6,18.8-10.6c7-3.3,13.9-7.1,21.1-9.8c6.1-2.2,13-4.2,16.6-10C300.7,216.4,296.5,206.4,295.2,200.2z M229.3,248c-0.1,0.1-0.3,0.3-0.4,0.4c-0.2,0.2-0.5,0.5-0.6,0.7c-0.5,0.1-0.9,0.2-1.4,0.3c-1,0.2-2,0.3-3,0.4c-0.4,0-0.8,0.1-1.2,0.1c-0.1-0.1-0.2-0.3-0.2-0.4c-0.5-17.2-2.7-34.4-3.5-51.5c-0.5-9.5,0.3-19-0.9-28.4c-0.4-3.8-1-7.5-1.3-11.3c-0.2-1.7-0.2-3.4-0.3-5.1c0-0.2,0-0.3,0-0.4c4.1-0.9,8.4-0.7,12.6-0.5c1.3,16.5,0.4,33.1-0.4,49.7c-0.4,8.9-0.8,17.9-0.8,26.8C227.8,235.2,228.8,241.6,229.3,248z M285.6,218.4c-4.9,3-10.9,4-15.9,6.7c-9.9,5.3-20.6,9.2-30.1,15.1c-0.4-3.4-0.7-6.7-0.8-10.1c1.1-0.3,2.2-0.8,3.3-1.6c0.1,0,0.1-0.1,0.2-0.1c8.6-3.6,17-7.7,25.2-12c3.8-2,7.5-4,11.4-5.8c2-0.9,4.4-2.2,6.9-2.8c0.4,1.6,0.7,3.1,1,4.7C287.4,215.9,287.8,217,285.6,218.4z"/></svg>