<svg xmlns="http://www.w3.org/2000/svg" viewBox="0 0 48 48" width="144px" height="144px"><path fill="#934e3e" d="M37,42H11c-1.657,0-3-1.343-3-3V18h32v21C40,40.657,38.657,42,37,42z"/><path fill="#934e3e" d="M7.16,15.226L24,4l16.84,11.226C41.565,15.71,42,16.523,42,17.394v0C42,18.833,40.833,20,39.394,20H8.606C7.167,20,6,18.833,6,17.394v0C6,16.523,6.435,15.71,7.16,15.226z"/><path fill="#fffde7" d="M28,40h-8c-1.105,0-2-0.895-2-2v-8c0-3.314,2.686-6,6-6h0c3.314,0,6,2.686,6,6v8C30,39.105,29.105,40,28,40z"/><path fill="#ff3d00" d="M24,26L24,26c-2.209,0-4,1.791-4,4v8h8v-8C28,27.791,26.209,26,24,26z"/><path fill="#8bc34a" d="M24 6A1 1 0 1 0 24 8A1 1 0 1 0 24 6Z"/><path fill="#fffde7" d="M27 8A1 1 0 1 0 27 10A1 1 0 1 0 27 8Z"/><path fill="#8bc34a" d="M30 10A1 1 0 1 0 30 12A1 1 0 1 0 30 10Z"/><path fill="#fffde7" d="M33 12A1 1 0 1 0 33 14A1 1 0 1 0 33 12Z"/><path fill="#8bc34a" d="M36 14A1 1 0 1 0 36 16A1 1 0 1 0 36 14Z"/><path fill="#fffde7" d="M39 16A1 1 0 1 0 39 18A1 1 0 1 0 39 16Z"/><path fill="#8bc34a" d="M37 22A1 1 0 1 0 37 24A1 1 0 1 0 37 22Z"/><path fill="#fffde7" d="M37 26A1 1 0 1 0 37 28A1 1 0 1 0 37 26Z"/><path fill="#8bc34a" d="M37 30A1 1 0 1 0 37 32A1 1 0 1 0 37 30Z"/><path fill="#fffde7" d="M37 34A1 1 0 1 0 37 36A1 1 0 1 0 37 34Z"/><path fill="#8bc34a" d="M37 38A1 1 0 1 0 37 40A1 1 0 1 0 37 38Z"/><path fill="#fffde7" d="M33 38A1 1 0 1 0 33 40 1 1 0 1 0 33 38zM15 38A1 1 0 1 0 15 40 1 1 0 1 0 15 38z"/><path fill="#8bc34a" d="M11 22A1 1 0 1 0 11 24A1 1 0 1 0 11 22Z"/><path fill="#fffde7" d="M11 26A1 1 0 1 0 11 28 1 1 0 1 0 11 26zM12 18A1 1 0 1 0 12 20 1 1 0 1 0 12 18zM36 18A1 1 0 1 0 36 20 1 1 0 1 0 36 18z"/><path fill="#8bc34a" d="M11 30A1 1 0 1 0 11 32A1 1 0 1 0 11 30Z"/><path fill="#fffde7" d="M11 34A1 1 0 1 0 11 36A1 1 0 1 0 11 34Z"/><path fill="#8bc34a" d="M11 38A1 1 0 1 0 11 40A1 1 0 1 0 11 38Z"/><path fill="#fffde7" d="M21 8A1 1 0 1 0 21 10A1 1 0 1 0 21 8Z"/><path fill="#8bc34a" d="M18 10A1 1 0 1 0 18 12A1 1 0 1 0 18 10Z"/><path fill="#fffde7" d="M15 12A1 1 0 1 0 15 14A1 1 0 1 0 15 12Z"/><path fill="#8bc34a" d="M12 14A1 1 0 1 0 12 16A1 1 0 1 0 12 14Z"/><path fill="#fffde7" d="M9 16A1 1 0 1 0 9 18 1 1 0 1 0 9 16zM25 21h-2c-1.657 0-3-1.343-3-3v-2c0-1.657 1.343-3 3-3h2c1.657 0 3 1.343 3 3v2C28 19.657 26.657 21 25 21z"/><path fill="#ff3d00" d="M25,19h-2c-0.552,0-1-0.448-1-1v-2c0-0.552,0.448-1,1-1h2c0.552,0,1,0.448,1,1v2C26,18.552,25.552,19,25,19z"/></svg>