<svg xmlns="http://www.w3.org/2000/svg" viewBox="0 0 48 48" width="48px" height="48px"><path fill="#513620" d="M3.481,42.646l2.69-0.146c0,0-0.928,0.812,1.752,1.25c0.764,0.229,1.03,1.032,0.657,1.631 c-1.182,0.119-4.914,0-4.914,0L3.481,42.646z"/><path fill="#513620" d="M12.979,42.604l3.042-0.917c0,0,0.29,0.871,1.853,1.269c1.563,0.398,0.918,1.595,0.918,1.595 l-5.611,0.272L12.979,42.604z"/><path fill="#4b7bb2" d="M4.826,26c0,0,0.847,5.885,0.392,7.987s-1.859,7.907-1.844,8.295 c0.921,0.053,2.906-0.064,2.906-0.064l2.734-7.25l0.516-5.537c0,0,2.084,4.059,2.324,5.461s0.779,7.071,0.779,7.071 s0.577,0.586,1.777,0.142s1.457-0.264,1.363-2.092s-0.277-6.618-0.616-7.745c-0.339-1.127-2.153-7.251-2.58-7.385 C11.562,25.078,4.793,25.719,4.826,26z"/><path fill="#a37b57" d="M12.562,24.632c0,0-4.646,1.43-7.896,0.868c-0.004-1.96,0.255-11.88,1.701-13.523 c1.446-1.644,2.679-1.639,3.426-1.533c0.747,0.106,3.817,0.453,3.816,2.492c-0.001,2.039-0.567,5.497-0.567,5.497 s2.319-0.161,2.837,0.036c0.518,0.197,1.874,0.173,1.696,1.081c-0.178,0.908-1.631,1.187-3.239,1.287 c-1.608,0.1-1.794-0.066-1.794-0.066L12.562,24.632z"/><path fill="#c0e6ed" d="M28.511,24.444c0.124-1.078,0.11-1.975-0.042-3.05c-0.108-0.761-0.288-1.523-0.667-2.192 c-0.243-0.429-0.561-0.81-0.832-1.221c-0.328-0.497-0.586-1.036-0.843-1.574c-0.448-0.937-0.896-1.875-1.345-2.812 c-0.211-0.442-0.425-0.891-0.502-1.374c-0.08-0.5-0.009-1.01,0.061-1.511c0.15-1.068,0.3-2.137,0.45-3.205 c0.111-0.794,0.228-1.604,0.587-2.321c0.122-0.245,0.283-0.486,0.526-0.612c0.243-0.125,0.735,0.018,0.888,0.245 c0.08,0.118,0.251,0.492,0.263,0.633c0.195,2.345-1.048,4.433-0.348,6.679c0.228,0.73,0.618,1.397,1.006,2.056 c0.286,0.486,0.606,1.104,0.892,1.591c1.245-0.566,2.673-0.669,4.034-0.54c1.279,0.121,2.595,0.51,3.868,0.678 c1.093-1.016,1.775-2.486,2.339-3.868c0.224-0.548,0.452-1.124,0.385-1.712c-0.045-0.392-0.218-0.756-0.388-1.111 C38.229,7.944,37.615,6.664,37,5.385c-0.159-0.332-0.323-0.696-0.247-1.056c0.126-0.592,0.88-0.872,1.457-0.691 c0.578,0.181,0.996,0.678,1.333,1.181c1.077,1.61,1.654,3.493,2.217,5.346c0.069,0.227,0.139,0.459,0.14,0.696 c0.001,0.279-0.092,0.548-0.186,0.811c-0.621,1.729-1.345,3.421-2.168,5.064c-0.332,0.664-0.684,1.328-0.861,2.049 c-0.145,0.591-0.169,1.203-0.192,1.811c-0.054,1.411-0.107,2.625-0.161,4.037"/><path fill="#fcbf95" d="M37.645,6.198l2.008-1.213c0,0-1.221-1.821-2.284-1.239S37.645,6.198,37.645,6.198z"/><path fill="#fcbf95" d="M27.135,7.124l-2.414-0.273c0,0,0.433-2.526,1.533-2.314C27.354,4.748,27.135,7.124,27.135,7.124z"/><path fill="#a37b57" d="M44.547,24.573c-1.506-0.114-3.016,0.082-4.523,0.172c-5.723,0.342-11.141-0.935-16.816-0.113 c0.167,1.072-0.104,2.558,0.163,3.609c0.467-0.001,0.935,0.008,1.402,0.009c0.095,4.693,0.356,10.565,0.406,14.937 c0.002,0.137,0.01,0.291,0.111,0.383c0.075,0.068,0.181,0.085,0.281,0.098c5.953,0.803,12.008,0.846,17.972,0.125 c0.254-1.526,0.137-3.086,0.019-4.628c-0.218-2.846-0.632-7.089-0.904-10.324c0.242,0.015,0.484,0.026,0.726,0.042 c0.286,0.019,0.603,0.029,0.827-0.15c0.309-0.248,0.285-0.717,0.233-1.11C44.328,26.76,44.662,25.437,44.547,24.573z"/><path fill="#fcbf95" d="M34.221,9.354c-0.692-0.563-1.259-0.837-2.107-0.561c-0.848,0.276-1.493,0.993-1.899,1.787 c-0.219,0.429-0.382,0.896-0.391,1.378c-0.018,0.996,0.705,1.958,1.667,2.218c0.432,0.116,0.887,0.102,1.335,0.082 c0.271-0.012,0.545-0.027,0.804-0.108c0.544-0.171,0.959-0.619,1.251-1.109c0.392-0.657,0.606-1.443,0.474-2.197 C35.223,10.089,34.815,9.837,34.221,9.354z"/><path fill="#010101" d="M45.043,24.507c-0.032-0.234-0.223-0.414-0.458-0.433c-1.156-0.087-2.321,0.004-3.445,0.09 c-0.382,0.029-0.764,0.06-1.146,0.082c-0.383,0.023-0.765,0.027-1.148,0.036L39,20.61c0.02-0.57,0.04-1.16,0.17-1.71 c0.15-0.6,0.44-1.17,0.74-1.77L40,16.96c0.82-1.66,1.56-3.38,2.19-5.12c0.09-0.27,0.21-0.61,0.21-0.98c0-0.31-0.09-0.59-0.16-0.84 c-0.54-1.78-1.15-3.79-2.28-5.48c-0.35-0.52-0.84-1.14-1.6-1.38c-0.47-0.14-1-0.08-1.42,0.16c-0.36,0.21-0.6,0.53-0.68,0.91 c-0.11,0.54,0.13,1.04,0.29,1.37l1.84,3.84c0.15,0.31,0.31,0.64,0.34,0.95c0.06,0.48-0.16,1-0.35,1.47 c-0.52,1.29-1.13,2.6-2.05,3.52c-0.48-0.07-0.97-0.17-1.45-0.27c-0.681-0.142-1.379-0.279-2.069-0.353 c0.012-0.001,0.027-0.001,0.039-0.001c0.285-0.013,0.608-0.028,0.932-0.131c0.594-0.187,1.122-0.646,1.53-1.329 c0.489-0.822,0.68-1.724,0.536-2.54c-0.152-0.863-0.61-1.229-1.141-1.652l-0.17-0.137c-0.783-0.638-1.522-0.994-2.577-0.649 c-0.889,0.289-1.666,1.012-2.189,2.034c-0.291,0.568-0.437,1.091-0.446,1.598c-0.021,1.226,0.854,2.39,2.037,2.708 c0.062,0.017,0.124,0.021,0.187,0.034c-1.005,0.007-1.916,0.159-2.728,0.459c-0.07-0.13-0.14-0.27-0.22-0.4 c-0.15-0.28-0.31-0.57-0.46-0.82c-0.36-0.62-0.74-1.27-0.96-1.95c-0.36-1.16-0.14-2.31,0.09-3.52c0.18-0.97,0.37-1.98,0.28-3.05 c-0.02-0.27-0.25-0.74-0.34-0.87c-0.3-0.44-1.07-0.65-1.53-0.41c-0.4,0.2-0.62,0.57-0.75,0.83c-0.4,0.8-0.52,1.69-0.63,2.47 l-0.45,3.21c-0.08,0.51-0.16,1.08-0.06,1.66c0.09,0.56,0.33,1.06,0.54,1.51l1.35,2.81c0.26,0.55,0.53,1.11,0.87,1.64 c0.11,0.16,0.23,0.32,0.34,0.48c0.17,0.23,0.34,0.46,0.48,0.71c0.29,0.52,0.48,1.16,0.6,2.01c0.126,0.867,0.148,1.59,0.088,2.398 c-1.623-0.022-3.266,0.04-4.921,0.279c-0.133,0.02-0.252,0.091-0.331,0.198s-0.112,0.242-0.092,0.374 c0.068,0.436,0.056,0.965,0.043,1.524c-0.018,0.729-0.035,1.484,0.13,2.132c0.057,0.222,0.256,0.377,0.484,0.377h0.001 c0.38,0,0.761,0.007,1.141,0.009l0.166,14.441c0.001,0.15,0.004,0.504,0.272,0.747c0.192,0.177,0.426,0.209,0.553,0.226 c3.166,0.428,6.355,0.641,9.545,0.641c2.857,0,5.715-0.171,8.553-0.515c0.221-0.026,0.397-0.195,0.434-0.414 c0.266-1.595,0.143-3.198,0.024-4.748l-0.745-9.747c0.012,0.001,0.024,0.001,0.035,0.002c0.079,0.005,0.174,0.011,0.275,0.011 c0.276,0,0.614-0.044,0.896-0.27c0.565-0.453,0.461-1.234,0.416-1.567c-0.05-0.373,0.004-0.899,0.055-1.408 C45.049,25.582,45.107,24.997,45.043,24.507z M37.24,4.43c0.03-0.12,0.13-0.2,0.2-0.24c0.18-0.11,0.43-0.14,0.62-0.07 c0.435,0.132,0.769,0.541,1.024,0.915c-0.122,0.086-0.241,0.177-0.36,0.244c-0.319,0.179-0.659,0.323-0.998,0.466L37.45,5.17 C37.32,4.89,37.2,4.63,37.24,4.43z M30.324,11.967c0.006-0.35,0.116-0.729,0.337-1.159c0.232-0.455,0.751-1.261,1.608-1.539 c0.169-0.056,0.322-0.085,0.471-0.085c0.356,0,0.688,0.17,1.166,0.559l0.177,0.143c0.477,0.38,0.693,0.554,0.78,1.045 c0.102,0.58-0.044,1.238-0.411,1.854c-0.194,0.326-0.521,0.746-0.973,0.888c-0.199,0.063-0.442,0.074-0.675,0.085 c-0.381,0.018-0.812,0.036-1.183-0.064C30.881,13.492,30.311,12.734,30.324,11.967z M25.83,5.41c0.1-0.21,0.2-0.34,0.28-0.38 c0.06-0.01,0.23,0.03,0.27,0.07c0.05,0.07,0.16,0.33,0.18,0.39c0.026,0.352,0.012,0.704-0.017,1.054 c-0.35-0.06-0.702-0.106-1.054-0.143C25.569,6.055,25.673,5.718,25.83,5.41z M28.96,21.32c-0.14-0.98-0.37-1.73-0.72-2.36 c-0.16-0.28-0.35-0.55-0.54-0.81c-0.11-0.15-0.21-0.29-0.31-0.44c-0.31-0.47-0.56-0.98-0.81-1.52l-1.35-2.81 c-0.19-0.4-0.39-0.82-0.46-1.24c-0.06-0.43,0-0.9,0.07-1.36l0.45-3.21c0.008-0.06,0.018-0.121,0.026-0.181 c0.194,0.027,0.387,0.054,0.581,0.081c0.131,0.018,0.262,0.036,0.393,0.055c0.044,0.006,0.087,0.012,0.13,0.018 C26.38,7.787,26.335,8.03,26.29,8.27c-0.25,1.28-0.5,2.61-0.06,4.01c0.25,0.79,0.66,1.49,1.05,2.16c0.14,0.24,0.3,0.52,0.45,0.79 c0.15,0.28,0.3,0.56,0.44,0.8c0.13,0.22,0.41,0.31,0.64,0.2c1.03-0.47,2.31-0.64,3.78-0.5c0.68,0.07,1.39,0.22,2.08,0.36 c0.6,0.12,1.19,0.24,1.77,0.32c0.15,0.02,0.3-0.03,0.41-0.13c1.14-1.07,1.86-2.57,2.46-4.04c0.22-0.55,0.5-1.23,0.42-1.96 c-0.06-0.48-0.26-0.9-0.44-1.27l-1.137-2.372c0.256-0.11,0.514-0.217,0.766-0.337c0.24-0.114,0.451-0.264,0.67-0.405 c0.755,1.379,1.24,2.916,1.691,4.414c0.06,0.2,0.12,0.39,0.12,0.55c0,0.19-0.07,0.39-0.15,0.64c-0.62,1.71-1.34,3.39-2.15,5.01 l-0.08,0.17c-0.32,0.62-0.64,1.27-0.82,1.99c-0.16,0.64-0.18,1.32-0.2,1.91l-0.157,3.719c-1.742-0.004-3.47-0.112-5.157-0.221 c-1.199-0.079-2.414-0.157-3.64-0.197C29.103,23.028,29.089,22.221,28.96,21.32z M43.063,39.204 c0.105,1.367,0.213,2.776,0.041,4.139c-5.78,0.665-11.636,0.613-17.424-0.137c0-0.007,0-0.016,0-0.024l-0.166-14.423 c0.524,0.003,1.048,0.006,1.573,0.012c-0.157,3.897-0.036,7.833,0.367,11.706c0.017,0.164,0.049,0.468,0.285,0.7 c0.251,0.244,0.577,0.257,0.753,0.264c2.085,0.078,4.189,0.117,6.296,0.117c1.677,0,3.354-0.024,5.023-0.074 c0.217-0.007,0.545-0.016,0.841-0.203c0.605-0.39,0.574-1.193,0.563-1.496c-0.129-3.505-0.374-7.055-0.716-10.565 c0.603,0.034,1.206,0.066,1.808,0.103L43.063,39.204z M39.492,29.162c0.348,3.539,0.594,7.123,0.723,10.659 c0.018,0.467-0.058,0.588-0.102,0.616c-0.062,0.038-0.224,0.043-0.332,0.046c-3.744,0.112-7.528,0.098-11.252-0.043 c-0.015,0-0.045-0.001-0.074-0.004c-0.004-0.025-0.006-0.051-0.008-0.063c-0.4-3.836-0.518-7.736-0.36-11.595 C31.885,28.833,35.695,28.963,39.492,29.162z M43.997,26.048c-0.057,0.566-0.115,1.151-0.05,1.642 c0.061,0.458,0.006,0.608-0.052,0.654c-0.084,0.066-0.343,0.051-0.479,0.041c-6.459-0.427-13.001-0.644-19.455-0.644 c-0.059,0-0.116,0-0.174,0c-0.055-0.449-0.043-0.974-0.031-1.484c0.01-0.399,0.02-0.808-0.003-1.194 c2.977-0.371,5.844-0.185,8.868,0.014c2.409,0.156,4.901,0.321,7.432,0.168c0.389-0.023,0.776-0.053,1.164-0.083 c0.941-0.073,1.91-0.152,2.854-0.113C44.066,25.354,44.031,25.705,43.997,26.048z"/><path fill="#fcbf95" d="M12.975,3.581c-0.762-0.239-1.366-0.428-2.438-0.087s-1.966,1.233-2.255,2.32 C7.993,6.9,8.344,8.147,9.195,8.882c0.252,0.217,0.547,0.393,0.873,0.459c0.351,0.072,1.231,0.254,1.896,0.142 c0.463-0.078,0.836-0.402,1.16-0.741c0.433-0.454,0.87-0.933,1.078-1.525c0.094-0.268,0.139-0.55,0.171-0.833 c0.066-0.582,0.077-1.188-0.139-1.732S13.427,3.723,12.975,3.581z"/><path fill="#010101" d="M11.49,10.019c-0.604,0-1.21-0.123-1.51-0.185C9.585,9.753,9.216,9.561,8.868,9.26 C7.885,8.411,7.455,6.974,7.799,5.685C8.124,4.46,9.14,3.413,10.386,3.017c1.225-0.389,1.961-0.158,2.74,0.088 c0.543,0.171,1.281,0.63,1.574,1.363c0.272,0.688,0.234,1.417,0.171,1.975c-0.032,0.283-0.081,0.616-0.196,0.942 c-0.237,0.672-0.697,1.188-1.188,1.703c-0.343,0.358-0.816,0.784-1.44,0.889C11.867,10.007,11.679,10.019,11.49,10.019z M11.616,3.808c-0.269,0-0.563,0.047-0.928,0.162C9.761,4.265,9.006,5.039,8.766,5.941C8.521,6.855,8.833,7.908,9.522,8.503 c0.217,0.188,0.435,0.306,0.647,0.35c0.319,0.064,1.147,0.235,1.711,0.138c0.332-0.055,0.632-0.331,0.883-0.593 c0.428-0.449,0.796-0.859,0.968-1.346c0.082-0.232,0.12-0.496,0.146-0.723c0.051-0.442,0.084-1.011-0.106-1.491 c-0.145-0.362-0.585-0.667-0.944-0.779c-0.001-0.001-0.001-0.001-0.001-0.001C12.383,3.918,12.031,3.808,11.616,3.808z"/><path fill="#fcbf95" d="M15.609,18.578l-0.438,2.089c0,0,2.328-0.12,2.5-0.979S15.609,18.578,15.609,18.578z"/><path fill="#010101" d="M22.605,16.965c-0.269-0.15-0.551-0.135-0.734-0.12c-1.458,0.094-2.93,0.096-4.376,0.01 c-0.2-0.015-0.4,0.105-0.485,0.294c-0.173,0.384-0.291,0.63-0.473,0.913c-0.009-0.002-0.027-0.006-0.035-0.007 c-0.286-0.049-0.575-0.077-0.864-0.102c-0.005-0.001-0.009-0.005-0.014-0.006c-0.015-0.003-0.029,0.001-0.044-0.001 c-0.398-0.032-0.798-0.048-1.198-0.037c-0.241,0.008-0.51,0.03-0.79,0.054c0.38-1.379,0.597-3.039,0.564-4.426 c-0.013-0.542-0.082-1.338-0.536-1.981c-0.623-0.879-1.748-1.175-2.464-1.361c-0.071-0.024-1.801-0.581-3.422,0.027 c-0.646,0.363-2.085,1.332-2.421,2.778c-0.038,0.056-0.065,0.119-0.077,0.19c-0.699,4.158-0.966,8.126-1.134,11.461 c-0.02,0.39-0.014,0.888,0.2,1.282c0.01,0.019,0.03,0.028,0.043,0.045c0.047,0.961,0.12,1.898,0.199,2.802 c0.095,1.078,0.191,2.193,0.229,3.367c0.015,0.462,0.028,0.898-0.004,1.334c-0.054,0.736-0.238,1.478-0.418,2.194L4.157,36.45 c-0.457,1.813-1.083,4.294-1.252,6.013c-0.068,0.709-0.008,1.498,0.051,2.262C2.979,45.013,3,45.294,3.014,45.558 c0.007,0.145,0.076,0.279,0.189,0.368c0.114,0.09,0.261,0.125,0.403,0.099c0.367-0.072,0.768-0.031,1.191,0.01 c0.28,0.028,0.562,0.055,0.841,0.055c0.027,0,0.056-0.001,0.083-0.001c0.504-0.01,3.029-0.072,3.347-0.394 c0.152-0.155,0.188-0.343,0.204-0.423l0.024-0.115c0.057-0.247,0.142-0.62-0.06-0.994c-0.395-0.735-1.161-0.908-1.721-1.034 c-0.236-0.054-0.481-0.108-0.585-0.184c-0.229-0.163-0.257-0.255-0.261-0.736c0.415-1.086,0.847-2.18,1.279-3.272 c0.442-1.119,0.885-2.238,1.31-3.351c0.115-0.304,0.168-0.81,0.22-1.299c0.027-0.266,0.052-0.514,0.085-0.666l0.038-0.172 c0.15-0.687,0.336-1.537,0.323-2.225c0.398,0.817,0.758,1.657,1.013,2.334c0.656,1.734,0.757,3.486,0.863,5.34 c0.048,0.833,0.097,1.694,0.2,2.568c0.026,0.222,0.076,0.625,0.316,0.947c-0.03,0.775,0.074,1.764,0.187,2.446 c0.03,0.188,0.166,0.342,0.348,0.397c0.396,0.12,0.771,0.147,1.132,0.147c0.146-0.001,0.289-0.005,0.431-0.009l0.386-0.009 c0.377-0.002,0.736-0.062,1.083-0.119l0.282-0.046c0.931-0.142,1.896-0.157,2.829-0.172c0.227-0.004,0.422-0.159,0.478-0.379 c0.015-0.06,0.025-0.137,0.03-0.225c0.033-0.584-0.154-1.629-1.784-2.06c-0.648-0.171-0.857-0.271-0.904-0.297 c-0.102-0.056-0.251-0.184-0.444-0.382c0.002-0.014,0.01-0.025,0.011-0.039c0.005-0.068-0.005-0.134-0.025-0.195 c-0.059-0.991-0.112-2.012-0.164-3.036c-0.059-1.17-0.118-2.341-0.188-3.462c-0.064-1.026-0.131-2.088-0.443-3.119 c-0.132-0.436-0.307-0.997-0.478-1.549l-0.682-2.234c-0.384-1.299-0.669-2.25-1.228-3.333l-0.053-0.371 c-0.123-0.845-0.249-1.718-0.167-2.508c0.01-0.092,0.028-0.189,0.049-0.298c0.008-0.042,0.015-0.096,0.023-0.141 c0.191-0.009,0.379-0.017,0.578-0.029c0.734-0.044,1.467-0.121,2.199-0.198c0.465-0.049,1.044-0.109,1.535-0.431 c0.491-0.322,0.864-0.969,0.695-1.605c0.406-0.332,1.012-0.537,1.832-0.596c0.239-0.018,0.48-0.025,0.722-0.033 c0.671-0.021,1.364-0.044,2.045-0.256c0.097-0.03,0.183-0.089,0.245-0.169c0.127-0.162,0.176-0.375,0.134-0.585 C22.965,17.287,22.813,17.079,22.605,16.965z M7.297,44.104c0.531,0.119,0.893,0.222,1.06,0.532 c0.022,0.041-0.006,0.173-0.029,0.277c-0.535,0.065-1.847,0.16-2.624,0.175c-0.267,0.016-0.538-0.022-0.808-0.049 c-0.299-0.029-0.608-0.064-0.916-0.053c-0.009-0.111-0.018-0.225-0.026-0.339c-0.048-0.618-0.082-1.24-0.057-1.801l1.817-0.051 c0.064,0.343,0.224,0.668,0.636,0.963C6.619,43.95,6.963,44.028,7.297,44.104z M17.464,43.352c0.679,0.18,0.92,0.461,1.002,0.705 c-0.805,0.017-1.629,0.05-2.45,0.175l-0.296,0.048c-0.322,0.054-0.627,0.104-0.924,0.105l-0.411,0.009 c-0.343,0.01-0.645,0.019-0.943-0.027c-0.062-0.447-0.116-0.99-0.128-1.482c0.016,0.001,0.04,0.006,0.055,0.007 c0.024,0.001,0.048,0.002,0.072,0.002c0.373,0,0.849-0.195,1.394-0.419c0.184-0.076,0.443-0.177,0.659-0.252 c0.009,0.012,0.014,0.026,0.024,0.037c0.228,0.245,0.526,0.547,0.817,0.707C16.412,43.008,16.648,43.137,17.464,43.352z M14.129,30.604c0.171,0.549,0.345,1.108,0.476,1.541c0.278,0.921,0.342,1.923,0.402,2.893c0.07,1.117,0.129,2.283,0.188,3.45 c0.046,0.922,0.095,1.838,0.147,2.737c-0.268,0.076-0.562,0.19-0.888,0.324c-0.319,0.132-0.822,0.326-1.014,0.345 c-0.09-0.006-0.239-0.017-0.292-0.049c-0.067-0.042-0.119-0.21-0.154-0.497c-0.099-0.843-0.147-1.689-0.194-2.507 c-0.106-1.849-0.216-3.759-0.926-5.637c-0.439-1.163-1.166-2.802-1.914-4.02c0.002-0.218,0-0.501-0.011-0.915 c-0.007-0.272-0.229-0.487-0.5-0.487c-0.004,0-0.009,0-0.013,0c-0.276,0.008-0.494,0.237-0.487,0.513 c0.022,0.864,0.007,1.143-0.011,1.421c-0.018,0.295-0.036,0.59-0.012,1.507c0.016,0.571-0.168,1.404-0.301,2.013l-0.038,0.174 c-0.039,0.178-0.07,0.465-0.104,0.773c-0.038,0.365-0.091,0.866-0.159,1.048c-0.423,1.107-0.864,2.223-1.305,3.338 c-0.426,1.078-0.851,2.155-1.261,3.226l-1.767,0.049c0.236-1.584,0.746-3.61,1.134-5.147l0.196-0.779 c0.189-0.758,0.385-1.542,0.445-2.364c0.035-0.486,0.021-0.97,0.005-1.465c-0.038-1.175-0.137-2.304-0.232-3.396 c-0.07-0.805-0.134-1.635-0.181-2.479c0.454,0.016,0.912,0.032,1.372,0.032c0.944,0,1.895-0.063,2.822-0.314 c0.72-0.195,1.981-0.473,2.828-0.533c0.452,0.925,0.719,1.797,1.062,2.96L14.129,30.604z M12.118,24.415 c-0.97,0.095-2.212,0.383-2.826,0.55c-1.259,0.341-2.641,0.29-3.978,0.246L5.282,25.21c-0.031-0.1-0.091-0.181-0.176-0.242 c-0.003-0.089-0.011-0.161-0.006-0.27c0.134-2.646,0.333-5.696,0.761-8.913l1.696,4.253c0.143,0.356,0.407,1.021,1.061,1.225 c0.162,0.051,0.423,0.067,0.944,0.087c0.117,0.005,0.216,0.008,0.264,0.013c0.695,0.067,1.319,0.096,1.939,0.096 c0.081,0,0.163-0.004,0.244-0.005c-0.02,0.107-0.039,0.211-0.049,0.305C11.868,22.639,11.991,23.54,12.118,24.415z M13.545,20.395 c-1.273,0.077-2.322,0.099-3.627-0.028c-0.063-0.006-0.18-0.011-0.317-0.016c-0.193-0.007-0.594-0.022-0.685-0.043 c-0.198-0.062-0.354-0.452-0.429-0.641l-1.905-4.776c-0.184-0.458-0.391-0.977-0.346-1.446c0.113-1.209,1.551-2.107,1.917-2.32 c0.396-0.146,0.817-0.196,1.208-0.196c0.809,0,1.482,0.214,1.512,0.223c0.8,0.21,1.55,0.443,1.931,0.981 c0.226,0.318,0.338,0.772,0.353,1.427c0.033,1.412-0.21,3.127-0.627,4.472c-0.546,0.01-1.082-0.031-1.427-0.239 c-0.253-0.152-0.4-0.606-0.544-1.046c-0.1-0.307-0.203-0.624-0.357-0.897c-0.227-0.399-0.339-0.667-0.452-0.934 c-0.125-0.296-0.251-0.591-0.501-1.035c-0.136-0.241-0.443-0.325-0.682-0.189c-0.24,0.136-0.325,0.441-0.189,0.682 c0.227,0.399,0.339,0.667,0.452,0.934c0.125,0.296,0.251,0.591,0.501,1.035c0.105,0.187,0.189,0.443,0.278,0.715 c0.19,0.585,0.406,1.248,0.978,1.593c0.836,0.503,2.01,0.404,3.044,0.313c0.279-0.023,0.545-0.047,0.783-0.054 c0.161-0.006,0.322,0.006,0.483,0.008L14.589,20.3C14.241,20.333,13.894,20.373,13.545,20.395z M16.793,19.926 c-0.29,0.189-0.698,0.232-1.094,0.274c-0.021,0.002-0.043,0.004-0.064,0.006l0.27-1.218c0.142,0.018,0.286,0.028,0.427,0.052 c0.314,0.053,0.53,0.132,0.646,0.233c0.018,0.035,0.048,0.064,0.075,0.094c0.001,0.003,0.005,0.005,0.007,0.008 C17.13,19.526,17.002,19.789,16.793,19.926z M17.606,18.216c0.061-0.113,0.116-0.226,0.172-0.345 c0.152,0.008,0.304,0.015,0.456,0.021C18.004,17.981,17.795,18.09,17.606,18.216z"/></svg>