<svg xmlns="http://www.w3.org/2000/svg" viewBox="0 0 512 512" width="48px" height="48px"><path fill="#FEBF10" d="M291.7 113.4c-6.1.1-18 1.8-17.2 9.9.7 7.2 6.4 13.6 11.9 17.8 4.6 3.6 11.5 7.7 17.5 5.6 3.9-1.4 6.8 1.6 7.1 4.8 0 0 .1 0 .1 0-3.8-10.9 9.8-23.2 17.1-29.2.1-.1.2-.1.2-.2C316.1 119.6 304.3 113.1 291.7 113.4zM230.4 47.5c-6.7-2.4-13.5-2-20.4-1.1-9 1.1-23.9 3.9-29.4 12.7 11.7-1.6 24.2.3 31.9 9.6 2.7-1.3 5.6-2.4 8.5-3.2.2-.4.5-.9.8-1.3 2.5-2.9 10.5-7.2 19.6-10.6C238.1 51.2 234.5 49 230.4 47.5z"/><path fill="#FEBF10" d="M263.5 124.1c-.4-9.7 6-16.5 14.3-19.6-.9-7.4-12-7.4-18.4-5.9-1.4.3-2.7.1-3.8-.4-3 3.2-6.6 5.8-10.6 7.9-.4.9-1.1 1.8-2.3 2.4-5.8 3.1-15.2 10.3-15.6 17.5 0 0 0 0 0 .1 13.3 4.2 25.8 13 26.9 27.1 9.6 0 19.3-.1 29.1-.4C272.5 146.1 264 134.7 263.5 124.1zM406.7 136.6v-2.2c0-.1 0-.2 0-.3 0-9.3-.3-28.8-12.5-22.6-1.4.7-2.9.8-4.1.5.2.3.4.5.5.8 4 6.5 3.3 14-2 19.6-5.8 6.1-13.3 9.7-20.8 12.9 13.1-2.1 26.1-4.8 38.8-8.2C406.7 136.9 406.7 136.7 406.7 136.6zM250.2 76.2c-.6-.4-2.7-1.3-4.1-1.6-2.2-.5-4.3-.7-6.5-.7-5.4.1-10.7.9-15.8 2.5-4.9 1.6-9.8 3.7-13.9 7-.3.2-.6.5-.9.8 3.8 2.1 4.7 8.5-.6 9.9-1.4.4-3.5.8-4.6 1.9.1.1.1.2.2.4 1.7 2.3 4.6 4 7.3 4.6 7.2 1.6 16.3.1 23.1-2.3 7.2-2.5 14.7-6.9 17-14.7C252.8 79.9 252.8 78.1 250.2 76.2zM165.9 118.5c-2.4.2-4.6.7-6.6 1.4-.9 1.1-2.2 1.8-3.6 1.7-8 4.7-12.5 14-12.6 23.8 0 1.6-.6 2.8-1.4 3.7 8.2.4 16.3 1 24.5 1.3 2.7.1 5.4.2 8.2.3-.1-.5-.2-1-.2-1.6.2-11.1 6.2-18.1 14.4-22.1C189.9 119.9 170.3 118.2 165.9 118.5zM407.4 84.7c-.1-5.8-2.1-12-4-16.2-3.3-7.4-11-19-19.7-12.5-.7.5-1.5.9-2.2 1 2.4 6.1 3.5 12.9 3 19.5-.5 7.1-11.3 4.9-10.8-2.1 1-12.5-7.4-28.2-21.3-28.3-5.9 0-12.1.5-17.8 2.1-2.9.8-9.5 2.4-10.2 5.8-.3 1.3-.9 2.3-1.7 3 6.9 4.6 13.5 9.7 19.7 13.5 2.4 1.5 3.1 3.9 2.6 6.1.2.4.3.9.4 1.4.6 3.3.3 7.1-1.6 10-6.6 10.2-22.3 8.6-32.5 6.3-12.4-2.7-26.3-7.9-34.9-17.9-3.6-4.2-4.7-9.1-3.9-13.7-2.3.4-5.1-.7-6.3-3-.5 0-3 .1-4.2.2-4.1.5-8 1.4-11.9 2.6-1.2.3-2.5.7-3.8 1.1 8.8 1.6 17.2 6.1 16.9 16.1-.1 2.7-.5 5.2-1.2 7.5 12-.9 24.8 3.3 26.6 15.3 16.2-.6 30.5 7.8 46.5 9.5 1.9.2 3.1 1.1 3.8 2.3 10-6.5 21.7-11.7 33-11.1 4.9.2 9.8 1.5 13.7 4.2-.5-1.9.1-3.9 2.5-5.1 3.6-1.8 7.8-3.3 11.9-3.1.4-.5.9-1 1.6-1.4 3-1.8 4.6-4.6 5.4-7.8C406.3 88.3 406.5 86.2 407.4 84.7z"/><path fill="#FEBF10" d="M381.5,118.9c-2.6-3.8-6.6-4.9-11.1-4.7c-12.6,0.8-24.9,8.2-34.5,15.9c-4.3,3.5-8.9,7.5-11.9,12.2c-1.1,1.8-2.1,3.5-2.3,4.7c-0.1,0.6-0.2,0.7-0.2,0.7c0,0,0,0.1,0.1,0.2c0,0,0,0,0.1,0c0,0,0,0,0,0.1c0.6,0.8,1,1.7,1.2,2.5c6.5-0.5,12.9-1.1,19.4-1.9c-0.1-1.6,0.6-3.3,2.4-4.4c10.2-6.5,22.6-9,32.4-16.3C380.2,125.6,384,122.4,381.5,118.9z"/><path fill="#127274" d="M460.8,106.7c-3.6-7.8-14.8-8.9-22.2-9.6c-7.1-0.7-14.6-0.7-21.7-1.9c-1.3,3.8-3.4,7.2-6.4,9.8c2.1,2.2,3.6,4.8,4.7,7.7c2.5,7,2.4,14.1,2.4,21.3c3.5-1,6.9-2.1,10.3-3.2c7.9-2.6,15.9-5.7,23-10.3C454.9,118,463.6,112.6,460.8,106.7z"/><path fill="#FEBF10" d="M334.7 78.8c0-.2 0-.3-.1-.5-7-4.6-13.6-9.7-20.8-13.9-6.5-3.8-16.1-9.5-24-6.2-2.1.9-5 3.2-5.8 4.4-.7 1.1-.9 1.8-.9 2-.1.4-.2 0 0 1.4-.2-1.3.9 2 .4 1.1.5.8.9 1.6 1.5 2.3.8 1.1 2.9 2.9 4.6 4.1 8.7 6.3 20.2 10 30.9 11.1 4.2.4 8.8.5 12.3-1 .2-.1.7-.3 1.7-1.1-.5.4.1-.3.1-.3.3-.5.3-.8.3-.8C334.9 80.6 334.8 79.7 334.7 78.8zM321.5 148c0 0-.1-.1-.2-.2C321.4 147.9 321.4 148 321.5 148 321.5 148 321.5 148 321.5 148zM321.6 148.1C321.5 148.1 321.5 148.1 321.6 148.1c0 0 0 .2 0 .3C321.6 148.3 321.6 148.2 321.6 148.1zM214.7 134.5c-5.3-.7-12.7-.7-18.8 1.3-.4.2-.9.4-1.4.5-5.3 2.1-9.3 5.8-9.4 12.2 0 1.1-.3 2-.8 2.8 19.6.8 39.2 1.6 58.9 1.8C242.1 141.2 224.3 135.7 214.7 134.5z"/><path fill="#3AB37C" d="M282.2 332.3c0-1.1.2-2 .6-2.8-1.5.4-3.2.1-4.7-1-2.3-1.8-3.6-3.9-4.2-6.2-.2 0-.5 0-.7 0-6.1.1-8.3-8.6-2.2-10.7.8-.3 1.6-.5 2.4-.8.1-1.3.7-2.5 1.5-3.6-2.9-3.1-5.3-6.5-7.5-10.2-8.1-3.9-14-10.8-20.5-16.9-6.3-6-14.1-12-23.4-10.2-5.6 1.1-9.7 6.1-10.4 11.7-.4 3.4.7 6.4 3.2 7.8 1.8.2 3.5.6 5.1 1.1 5.6 1.6 6 11.1-.6 10.9-.5 0-1 0-1.5-.1v0c0 0 0 0 0 0-1.8-.2-3.5-.5-5-1-5-.6-11.1-.3-12.9 4.2-2.3 5.7 7.5 11.6 11.7 13.4 11.5 4.7 27.9 7.1 40 2.9 6.7-2.4 10.2 7.7 3.6 10.4-14.4 5.8-33 17.5-27.1 35.9 1.9 5.9 5.7 6.2 11.3 4.4 6.2-2 12-5.1 18.2-7.2 3.2-1.1 7.2 1.2 7.3 4.8.2 6.3 3.6 15.6 10.7 17.2 7.4 1.7 11.7-5.3 12.3-11.8C290.3 360 282.5 346.6 282.2 332.3zM347.2 307.7c-6.7-4-13.4-3.5-20.9-2.8-7.3.7-16 1.5-22.1 6-5 3.7-10.4-2.9-7.7-7.4-.2-.4-.4-.8-.6-1.3-2-5.5 4.7-8.9 8.5-6.2.4-.2.8-.5 1.2-.7 1.7-1.1 3.4-2.3 5-3.6 2.6-2.1 5-4.5 7.7-6.6 7.6-6 18.6-13.1 18.5-24.1-.1-10.3-7.7-13.6-17.1-11.7-8.1 1.7-11.7 12.7-15.9 18.8-2.4 3.4-8.2 1.8-9.3-1.8-2.1-6.7-7.2-14.6-14.6-15.9-6.6-1.2-13.3 1.3-13.1 8.7.2 9.5 3.1 20.4 8 29.6 1.2.9 1.8 2 1.9 3.3 2.5 4 5.4 7.5 8.6 10.4 2 1.8 2.2 4.1 1.4 6 .6.1 1.3.1 2 .1 3 0 5.7 1.9 5.9 5.1.2 2.3-1.3 5-3.7 5.6-1.1.3-2.2.6-3.2.8-.1.2-.3.4-.5.6-.3.3-.6.6-.9.8 1.3 1.7 1.2 3.7.2 5.3 2.3-.4 5 .7 6.3 3.4 5.5 11.1 13.5 33.2 29.1 32.4 5.7-.3 11.2-2.8 12.9-8.9 1.7-6.2-.1-11.1-6.1-13.8-4.8-2.2-3.5-10.4 2-10.4 6.5 0 16.1 1.5 21.7-2.8C358.9 321.4 352.7 311 347.2 307.7z"/><path fill="#3AB37C" d="M223.6,334.4c-20.8,0.1-42.3,2.8-62.4-2.7c3.5,5.9,7,11.8,8.4,18.6c18.9-0.8,39.4-5.3,55.2-16C224.4,334.3,224,334.4,223.6,334.4z"/><path fill="#FEBF10" d="M221,112.3c-9.2,0.4-19.6-0.8-25.4-9.1c-2.7-3.8-3.1-7.5-1.9-10.6c0-0.1,0-0.2,0-0.3c0.1-4.7,1.6-9,4.6-12.7c1.4-1.8,3.1-3.5,4.9-5c-7.1-7-19.8-5.9-28.6-2.9c-9.9,3.4-21.4,10.9-21,22.7c0.2,7.1-10.7,7.9-11,0.8c-0.2-7.3,2.3-13.8,6.4-19.1c-5.5-8.3-18.7-10.8-27.7-7.6c-4.3,1.5-8.2,4.4-8.2,9.4c0,8.5-0.3,17.6,2.7,25.7c0.1,0.2,0.1,0.4,0.2,0.6c13.8-2.2,29.3,0.1,39.7,5.5c3.9-1.5,8-2.3,12.2-2.2c10.9,0.2,29.4,4.8,31.7,16.4c5.4-0.9,11.1-1,16.3-0.3c0.2,0,0.5,0.1,0.7,0.1c0.8-4.1,2.6-7.9,5.1-11.4C221.4,112.3,221.2,112.3,221,112.3z"/><path fill="#127274" d="M494.5 291.6c-3.3-25.9-6.9-52.3-24.1-73.2-10.6-12.9-24.2-31.9-20.4-49.1-16 7.5-33.8 11-51.3 13.1-12.5 1.5-25.1 2.3-37.6 3.2-13.1 1-26.1 2.9-39.1 4.5-32.6 4.1-65.5 6.6-98.4 6.8-32.8.2-65.4-2.5-98.1-5.1-11-.9-22.1-1.3-33.1-2.3 2.9 12.9-9.7 23.8-19.1 32-9 7.8-15.7 19.5-21 30.1-5.8 11.8-9.9 24.3-11.8 37.3-3.5 23.9-.4 49.2 9.2 71.4 9.4 21.9 25.1 41.2 45.1 54.3 24.5 15.9 53 19.5 81.1 24.4.1 0 .3 0 .4 0 19.4.1 38.8 1.8 58.1 3.8 18.8 1.9 37.7 3.2 56.5 4.6 16.7 1.3 33.1 1 49.8.6 5.7-.2 11.6-.4 17.2-1.5 3-.6 8.7-1.4 10.4-4.4 2.3-4.1 7.5-3.3 9.6-.5 24.8-7.2 49.1-16.8 70.3-31.8 18.1-12.8 32.3-30.3 40.1-51.2C496.1 337.2 497.3 314 494.5 291.6zM360.5 334.1c-4.5 4.2-10.3 5.7-16.4 6.1 5.8 12.6-1.1 30.2-17 32.9-12 2-20.8-3.1-27.7-10.8 1.8 9.3 1.8 18.3-4 26.4-5.9 8.2-17.3 11.9-26.2 6.1-6.4-4.2-11-10.4-13-17.6-5.8 2.5-11.6 5.2-17.9 6.1-9 1.2-16.9-3.5-19.4-12.5-1.9-7-2-14.1 0-20.7-16.7 7.9-35.9 11.3-54 11.5-2.9 0-5.8-1.9-5.9-5.1-.4-12.5-10.3-21.9-14.7-33.1-1.8-4.5 3.4-8.9 7.6-6.7 15.4 7.9 32.4 8.2 49.4 7.6-.5-.4-1-.8-1.6-1.2-7.5-6.2-14.3-17-6.9-26.1 2.7-3.3 6.2-5.4 10-6.5-.6-1.4-.9-3-1.1-4.7-.9-8.7 3.4-18.5 11-23.1 10.2-6.2 22.7-4.1 32.3 2.3 4.8 3.3 9 7.6 13.2 11.8-2.5-8.4-4.9-19.1-1-27 4.7-9.7 17.2-12.7 26.9-9.5 6.6 2.2 12 6.9 15.9 12.7 1.9-3.2 3.9-6.4 6.6-8.9 5.1-4.8 12.2-6.5 19-6.2 14.4.6 23.7 12 21.6 26.4-2.1 14-12.9 21.4-22.9 29.8 2-.2 3.9-.3 5.8-.4 10.9-.6 20.9 1.5 28.6 10C366.5 311.7 369.3 325.8 360.5 334.1zM105.4 106.9c-.2-.7-.5-1.4-.7-2-12.3 2.3-26.4 9-34.2 18-8 9.1-1.6 15.8 7.2 19.9.4-.2.7-.4 1.2-.6 2.8-1 5.2-2.5 7.9-3.5-.6-.7-.9-1.7-1-2.9C84.5 120.8 93.2 111.5 105.4 106.9z"/><path fill="#127274" d="M481,92.9c-12.7-19.2-40.8-29.8-62.9-23.4c-0.8,0.2-1.5,0.3-2.1,0.2c1.6,4.8,2.4,9.8,2.5,14.5c6.5,1.1,13.3,1.2,19.8,1.8c9.1,0.9,20.1,2.2,27.1,8.7c5.8,5.5,9.2,13.8,5.3,21.4c-7.2,14.3-27,21.5-41.4,25.8c-58.3,17.4-119.4,22.5-180,22.2c-31.9-0.1-63.7-1.9-95.6-3.1c-13.7-0.5-27.3-1-41-1.2c-11.9-0.2-24.1-0.8-35.4-4.9c-8.4-3.1-18.9-9.3-21.2-18.7c-1.9-7.9,1-15.4,6.6-21.1c10.1-10.3,25.3-18.1,39.9-20.9c-0.1-1.5-0.2-2.9-0.3-4.3c0-0.8-0.1-1.5-0.1-2.3C92,90.3,81.8,93.6,72,97.8c-11.1,4.8-22.9,10.7-31.1,19.9c-4.7,5.3-8.3,11.9-8,19.2c0.4,9.7,5.2,19.6,12.4,26.1c18.1,16.4,45.5,15.2,68.3,16.9c33,2.4,66,5.8,99.2,6c32.9,0.2,65.8-1.7,98.4-5.6c13.9-1.6,27.8-3.9,41.7-5.1c12.4-1.1,24.9-1.8,37.3-3c24.1-2.4,50.1-6.5,69.8-21.6C476.2,138.2,494.7,113.5,481,92.9z"/><path fill="#FEBF10" d="M143.8,117c-18.6-5.3-48.9-3.8-47.2,18c0.1,1.4-0.2,2.6-0.9,3.5c3,2.3,3.1,7.5-0.3,9.3c9.9,1.2,19.9,1,29.9,1c2.5,0,4.9,0,7.4,0.1c-0.4-0.7-0.6-1.5-0.6-2.5c0.1-10.7,2.8-21,10.8-28.6C143.3,117.5,143.6,117.2,143.8,117z"/><path fill="#127274" d="M346.9,458.6c-15.5,0.8-31.1,1.2-46.6,0.3c-20.8-1.2-41.5-2.8-62.2-4.8c-20.3-2-40.6-4.1-61-4.2c-0.3,0-0.6,0-0.9-0.1c-0.6,0.1-1.3,0.1-2,0c-0.7-0.1-1.4-0.2-2.1-0.4c0,0-0.1,0.1-0.1,0.1c0.5,0.5,0.9,1,1.5,1.4c2.2,1.8,4.4,3.4,6.9,4.8c6,3.4,12.4,5.1,19.1,6.6c10.7,2.4,21.6,3.1,32.3,5.1c10.4,1.9,21,3,31.6,3.2c22.5,0.5,44.9-1.5,67.1-4.5c8.2-1.1,16.8-2.1,24.5-5.2c2.9-1.2,5.6-2.6,8.1-4.4C357.6,458,351.8,458.3,346.9,458.6z"/><path d="M321.5,148C321.5,148,321.5,148,321.5,148c0,0.1,0,0.1,0.1,0.1C321.5,148.1,321.6,148,321.5,148C321.5,148,321.5,148,321.5,148z"/><path d="M506.7,305.1c-0.5-12.6-2.3-25.4-4.4-37.8c-2.2-12.7-5.6-25.1-11.2-36.7c-5.9-12.1-15.1-21.3-22.2-32.5c-6.1-9.5-13-23.5-4.5-33.6c1.2-1.4,1.5-3,1.2-4.4c0.6-0.4,1.2-0.9,1.8-1.3c21.2-16.3,38.1-44.8,23.5-70.9c-6.9-12.3-20.6-21.3-33.4-26.2c-13.6-5.2-28.9-6.8-43-2.6c-1,0.3-1.8,0.8-2.4,1.4c-7.7-14.2-21.2-23.5-34.4-13.6c-0.4,0.3-0.8,0.7-1.1,1c-5.4-7.2-13.2-12.3-23.2-12.7c-12.1-0.5-36.3,1.6-39.5,16.5c-8.4-4.3-17.2-6.7-26.6-4.1c-4.6,1.3-8.4,3.9-10.9,7.3c-1.8-6.6-11.1-7.1-21.6-4.9c-6.4-4.9-12.9-9.8-20.5-12.6c-8.9-3.2-18-2.8-27.3-1.5c-15.2,2.1-34.4,8.5-38.7,25.1c-0.1,0.6-0.2,1.1-0.2,1.6c-3.9,1.5-7.6,3.5-11,6c-8.8-11.7-27.1-14.6-40.3-9.9c-7.2,2.5-12.6,8.1-14.3,15.5c-0.2,0.7-0.3,1.3-0.4,2C86,80.5,70,85.9,55.1,93.7c-14.5,7.6-29.1,19.2-32.6,36.1c-4.2,20.4,10.5,40.7,27.7,49.9c9.1,4.9,19.6,7.2,29.8,8.5c0.1,0.4,0.3,0.9,0.6,1.3c5,8.3-7.4,17.5-12.8,22.1c-9.1,7.9-15.8,17.8-21.8,28.2c-13.1,22.5-18.7,48.3-17.8,74.2c1.7,48.6,29.1,94.6,72.7,116.9c18.3,9.3,38.6,13.1,58.7,16.5c-1.2,8.4,15.2,18.5,21.2,21.1c10.3,4.5,22.6,6.2,33.6,7.9c12.4,1.9,25,3.8,37.5,4.7c25.9,1.9,51.9-0.4,77.6-3.7c9.7-1.3,19.8-2.6,29.1-6c9.3-3.4,16.8-9.8,23.1-17.3c0.7-0.9,1.1-1.8,1.3-2.6c45.3-13.4,91.4-36.2,112.1-80.9C504.6,350.1,507.6,327.4,506.7,305.1z M416.9,95.1c7.1,1.2,14.6,1.2,21.7,1.9c7.4,0.8,18.6,1.8,22.2,9.6c2.7,5.9-5.9,11.3-9.9,13.9c-7.1,4.5-15,7.6-23,10.3c-3.4,1.1-6.9,2.2-10.3,3.2c0-7.2,0.1-14.4-2.4-21.3c-1.1-2.9-2.7-5.5-4.7-7.7C413.5,102.3,415.6,98.9,416.9,95.1z M283.2,64.6c0-0.2,0.2-0.8,0.9-2c0.7-1.2,3.7-3.5,5.8-4.4c7.8-3.3,17.4,2.4,24,6.2c7.2,4.2,13.8,9.4,20.8,13.9c0,0.2,0,0.3,0.1,0.5c0.2,0.9,0.3,1.8,0.3,2.7c0,0-0.1,0.3-0.3,0.8c0-0.1-0.6,0.7-0.1,0.3c-0.9,0.8-1.4,1-1.7,1.1c-3.5,1.5-8.1,1.4-12.3,1c-10.7-1.1-22.2-4.8-30.9-11.1c-1.6-1.2-3.7-3.1-4.6-4.1c-0.6-0.7-1.1-1.5-1.5-2.3c0.5,0.9-0.6-2.4-0.4-1.1C283,64.6,283.1,65,283.2,64.6z M250.3,62.5c3.9-1.2,7.9-2.1,11.9-2.6c1.2-0.1,3.7-0.2,4.2-0.2c1.3,2.3,4,3.4,6.3,3c-0.8,4.6,0.3,9.5,3.9,13.7c8.5,10,22.4,15.1,34.9,17.9c10.2,2.2,25.9,3.9,32.5-6.3c1.9-2.9,2.2-6.7,1.6-10c-0.1-0.5-0.2-0.9-0.4-1.4c0.5-2.2-0.2-4.7-2.6-6.1c-6.3-3.8-12.8-9-19.7-13.5c0.8-0.7,1.4-1.7,1.7-3c0.7-3.4,7.3-5,10.2-5.8c5.7-1.6,11.8-2.2,17.8-2.1c13.8,0.1,22.2,15.8,21.3,28.3c-0.5,7,10.3,9.2,10.8,2.1c0.5-6.6-0.6-13.3-3-19.5c0.7-0.1,1.4-0.5,2.2-1c8.6-6.4,16.4,5.1,19.7,12.5c1.9,4.2,3.9,10.4,4,16.2c-0.9,1.5-1.1,3.6-0.5,5.4c-0.8,3.2-2.4,6-5.4,7.8c-0.7,0.4-1.2,0.9-1.6,1.4c-4.1-0.3-8.3,1.2-11.9,3.1c-2.3,1.2-3,3.2-2.5,5.1c-3.9-2.7-8.8-3.9-13.7-4.2c-11.2-0.5-23,4.6-33,11.1c-0.7-1.2-1.9-2.1-3.8-2.3c-16-1.7-30.3-10.1-46.5-9.5c-1.7-11.9-14.5-16.2-26.6-15.3c0.7-2.3,1.2-4.8,1.2-7.5c0.3-10.1-8.1-14.6-16.9-16.1C247.8,63.2,249.1,62.9,250.3,62.5z M321.6,148.4c0-0.1,0-0.3-0.1-0.3c-0.1-0.1-0.2-0.2-0.2-0.3c0.1,0.1,0.2,0.2,0.2,0.2c0-0.1-0.1-0.2-0.1-0.2c0,0,0.1-0.1,0.2-0.7c0.2-1.2,1.2-3,2.3-4.7c3-4.7,7.6-8.7,11.9-12.2c9.7-7.7,21.9-15.1,34.5-15.9c4.5-0.3,8.5,0.9,11.1,4.7c2.5,3.5-1.2,6.7-4.5,9.1c-9.8,7.4-22.2,9.8-32.4,16.3c-1.8,1.2-2.5,2.8-2.4,4.4c-6.5,0.7-12.9,1.3-19.4,1.9c-0.2-0.9-0.5-1.7-1.2-2.5C321.6,148.2,321.6,148.3,321.6,148.4z M311.1,151.5c0,0-0.1,0-0.1,0c-0.4-3.2-3.2-6.1-7.1-4.8c-6,2.1-12.9-2-17.5-5.6c-5.5-4.2-11.2-10.6-11.9-17.8c-0.7-8.2,11.1-9.8,17.2-9.9c12.6-0.2,24.4,6.2,36.7,8.7c-0.1,0.1-0.2,0.1-0.2,0.2C320.9,128.2,307.3,140.5,311.1,151.5z M174.3,150.9c-2.7-0.1-5.4-0.2-8.2-0.3c-8.1-0.3-16.3-0.9-24.5-1.3c0.8-0.9,1.4-2.2,1.4-3.7c0.1-9.8,4.6-19.1,12.6-23.8c1.4,0,2.7-0.6,3.6-1.7c2-0.8,4.2-1.2,6.6-1.4c4.4-0.3,24,1.4,22.7,8.7c-8.2,4-14.2,11-14.4,22.1C174.2,149.9,174.2,150.4,174.3,150.9z M185.1,148.5c0.1-6.4,4.1-10.1,9.4-12.2c0.5-0.1,1-0.3,1.4-0.5c6.1-2,13.5-2,18.8-1.3c9.6,1.2,27.4,6.7,28.6,18.6c-19.6-0.2-39.2-1-58.9-1.8C184.8,150.5,185.1,149.6,185.1,148.5z M227.1,126.1C227.1,126,227.1,126,227.1,126.1c0.4-7.3,9.8-14.5,15.6-17.6c1.2-0.6,1.9-1.5,2.3-2.4c4-2.1,7.7-4.7,10.6-7.9c1.1,0.5,2.4,0.7,3.8,0.4c6.3-1.5,17.4-1.5,18.4,5.9c-8.3,3.1-14.7,9.8-14.3,19.6c0.5,10.5,9,22,19.6,28.6c-9.7,0.3-19.4,0.4-29.1,0.4C252.9,139,240.4,130.2,227.1,126.1z M388.6,132.3c5.3-5.6,6-13.1,2-19.6c-0.2-0.3-0.4-0.5-0.5-0.8c1.3,0.3,2.7,0.3,4.1-0.5c12.2-6.2,12.5,13.3,12.5,22.6c0,0.1,0,0.2,0,0.3v2.2c0,0.2,0,0.3,0,0.5c-12.8,3.3-25.8,6-38.8,8.2C375.4,142,382.9,138.5,388.6,132.3z M250.2,76.2c2.6,1.8,2.6,3.7,1.4,7.8c-2.3,7.8-9.8,12.2-17,14.7c-6.9,2.4-16,3.9-23.1,2.3c-2.8-0.6-5.7-2.3-7.3-4.6c-0.1-0.1-0.2-0.3-0.2-0.4c1-1.2,3.2-1.5,4.6-1.9c5.2-1.5,4.3-7.9,0.6-9.9c0.3-0.3,0.6-0.5,0.9-0.8c4.1-3.3,8.9-5.4,13.9-7c5.1-1.7,10.4-2.5,15.8-2.5c2.2,0,4.4,0.2,6.5,0.7C247.6,74.9,249.6,75.8,250.2,76.2z M210.1,46.4c6.9-0.8,13.7-1.3,20.4,1.1c4,1.5,7.7,3.7,11.2,6.2c-9.1,3.4-17.1,7.7-19.6,10.6c-0.4,0.4-0.6,0.8-0.8,1.3c-2.9,0.8-5.8,1.9-8.5,3.2c-7.7-9.3-20.3-11.3-31.9-9.6C186.2,50.3,201,47.5,210.1,46.4z M113.1,77.9c0-5,3.9-7.8,8.2-9.4c9.1-3.2,22.2-0.7,27.7,7.6c-4.1,5.4-6.6,11.8-6.4,19.1c0.2,7.1,11.2,6.2,11-0.8c-0.4-11.8,11.1-19.3,21-22.7c8.7-3,21.5-4.1,28.6,2.9c-1.8,1.5-3.5,3.2-4.9,5c-3,3.7-4.4,8-4.6,12.7c0,0.1,0,0.2,0,0.3c-1.2,3.1-0.9,6.8,1.9,10.6c5.9,8.2,16.2,9.5,25.4,9.1c0.2,0,0.5,0,0.7,0c-2.5,3.5-4.3,7.4-5.1,11.4c-0.2,0-0.5-0.1-0.7-0.1c-5.3-0.7-10.9-0.6-16.3,0.3c-2.2-11.6-20.7-16.2-31.7-16.4c-4.2-0.1-8.3,0.7-12.2,2.2c-10.4-5.4-25.9-7.7-39.7-5.5c0-0.2-0.1-0.4-0.2-0.6C112.9,95.5,113.2,86.4,113.1,77.9z M143.8,117c-0.3,0.3-0.6,0.5-0.8,0.8c-8,7.6-10.7,17.9-10.8,28.6c0,1,0.2,1.9,0.6,2.5c-2.5-0.1-4.9-0.1-7.4-0.1c-10,0-20,0.2-29.9-1c3.3-1.8,3.3-7.1,0.3-9.3c0.6-0.9,1-2.1,0.9-3.5C95,113.2,125.3,111.6,143.8,117z M105.4,106.9c-12.1,4.6-20.9,13.8-19.7,28.9c0.1,1.2,0.5,2.1,1,2.9c-2.6,1.1-5.1,2.5-7.9,3.5c-0.4,0.2-0.8,0.4-1.2,0.6c-8.8-4.1-15.2-10.7-7.2-19.9c7.9-9,21.9-15.7,34.2-18C104.9,105.6,105.1,106.2,105.4,106.9z M45.3,163c-7.2-6.5-12-16.4-12.4-26.1c-0.3-7.3,3.3-13.9,8-19.2c8.1-9.2,19.9-15.1,31.1-19.9c9.8-4.2,20-7.5,30.3-10.4c0.1,0.8,0.1,1.6,0.1,2.3c0.1,1.4,0.2,2.9,0.3,4.3c-14.6,2.7-29.8,10.6-39.9,20.9c-5.6,5.8-8.5,13.2-6.6,21.1c2.3,9.5,12.7,15.7,21.2,18.7c11.3,4.1,23.5,4.7,35.4,4.9c13.7,0.2,27.3,0.7,41,1.2c31.9,1.2,63.7,3,95.6,3.1c60.6,0.3,121.7-4.8,180-22.2c14.4-4.3,34.1-11.5,41.4-25.8c3.9-7.7,0.5-15.9-5.3-21.4c-7-6.6-18-7.9-27.1-8.7c-6.5-0.6-13.3-0.6-19.8-1.8c-0.1-4.8-1-9.7-2.5-14.5c0.7,0.1,1.4,0,2.1-0.2c22.1-6.4,50.3,4.3,62.9,23.4c13.7,20.7-4.8,45.3-21,57.7c-19.7,15.2-45.7,19.2-69.8,21.6c-12.4,1.2-24.9,1.9-37.3,3c-14,1.2-27.8,3.5-41.7,5.1c-32.7,3.8-65.5,5.8-98.4,5.6c-33.2-0.2-66.1-3.6-99.2-6C90.8,178.2,63.5,179.4,45.3,163z M355,461c-7.7,3.1-16.4,4.1-24.5,5.2c-22.2,3-44.7,5-67.1,4.5c-10.6-0.2-21.2-1.3-31.6-3.2c-10.7-2-21.6-2.7-32.3-5.1c-6.7-1.5-13.1-3.1-19.1-6.6c-2.4-1.4-4.7-3-6.9-4.8c-0.5-0.4-1-0.9-1.5-1.4c0,0,0.1-0.1,0.1-0.1c0.7,0.1,1.4,0.2,2.1,0.4c0.7,0.1,1.4,0.1,2,0c0.3,0,0.6,0.1,0.9,0.1c20.4,0.1,40.7,2.2,61,4.2c20.7,2.1,41.5,3.6,62.2,4.8c15.5,0.9,31.1,0.5,46.6-0.3c4.9-0.3,10.7-0.6,16.2-2C360.6,458.3,358,459.8,355,461z M488.2,358.4c-7.7,20.9-21.9,38.4-40.1,51.2c-21.2,15.1-45.5,24.7-70.3,31.8c-2.1-2.8-7.3-3.6-9.6,0.5c-1.7,3-7.4,3.8-10.4,4.4c-5.7,1.1-11.5,1.4-17.2,1.5c-16.7,0.5-33.1,0.7-49.8-0.6c-18.9-1.5-37.7-2.7-56.5-4.6c-19.3-1.9-38.7-3.7-58.1-3.8c-0.1,0-0.3,0-0.4,0c-28.1-4.9-56.7-8.5-81.1-24.4c-20-13-35.7-32.4-45.1-54.3c-9.5-22.2-12.6-47.5-9.2-71.4c1.9-13,5.9-25.5,11.8-37.3c5.2-10.6,12-22.3,21-30.1c9.4-8.2,22.1-19.1,19.1-32c11,0.9,22.1,1.4,33.1,2.3c32.7,2.6,65.3,5.3,98.1,5.1c32.9-0.2,65.8-2.6,98.4-6.8c13.1-1.7,26-3.5,39.1-4.5c12.5-1,25.1-1.8,37.6-3.2c17.5-2,35.3-5.6,51.3-13.1c-3.8,17.2,9.8,36.2,20.4,49.1c17.2,20.9,20.8,47.3,24.1,73.2C497.3,314,496.1,337.2,488.2,358.4z"/><path d="M359.1,303.6c-7.7-8.4-17.7-10.5-28.6-10c-1.9,0.1-3.8,0.2-5.8,0.4c10-8.4,20.8-15.7,22.9-29.8c2.1-14.4-7.2-25.8-21.6-26.4c-6.9-0.3-14,1.4-19,6.2c-2.7,2.6-4.7,5.7-6.6,8.9c-3.8-5.8-9.2-10.5-15.9-12.7c-9.7-3.2-22.2-0.2-26.9,9.5c-3.9,7.9-1.5,18.6,1,27c-4.2-4.2-8.3-8.6-13.2-11.8c-9.6-6.5-22.1-8.5-32.3-2.3c-7.7,4.6-12,14.3-11,23.1c0.2,1.7,0.6,3.3,1.1,4.7c-3.9,1.2-7.4,3.2-10,6.5c-7.3,9.1-0.6,19.9,6.9,26.1c0.5,0.4,1,0.8,1.6,1.2c-17,0.6-34,0.3-49.4-7.6c-4.2-2.2-9.4,2.2-7.6,6.7c4.4,11.2,14.3,20.6,14.7,33.1c0.1,3.2,3,5.1,5.9,5.1c18-0.1,37.3-3.5,54-11.5c-2.1,6.5-1.9,13.6,0,20.7c2.4,9,10.3,13.8,19.4,12.5c6.3-0.8,12-3.6,17.9-6.1c2,7.2,6.5,13.4,13,17.6c8.9,5.9,20.3,2.1,26.2-6.1c5.8-8,5.7-17.1,4-26.4c6.9,7.8,15.7,12.8,27.7,10.8c15.8-2.6,22.8-20.3,17-32.9c6-0.5,11.8-1.9,16.4-6.1C369.3,325.8,366.5,311.7,359.1,303.6z M169.5,350.3c-1.4-6.8-4.9-12.7-8.4-18.6c20.1,5.5,41.6,2.8,62.4,2.7c0.4,0,0.8,0,1.2-0.1C208.9,345,188.5,349.5,169.5,350.3z M289.1,374.4c-0.5,6.5-4.9,13.5-12.3,11.8c-7.1-1.7-10.5-10.9-10.7-17.2c-0.1-3.6-4.1-5.9-7.3-4.8c-6.2,2.1-11.9,5.2-18.2,7.2c-5.5,1.8-9.3,1.5-11.3-4.4c-5.9-18.3,12.7-30,27.1-35.9c6.5-2.7,3.1-12.7-3.6-10.4c-12,4.2-28.4,1.9-40-2.9c-4.2-1.7-14-7.7-11.7-13.4c1.8-4.5,7.9-4.8,12.9-4.2c1.6,0.5,3.3,0.9,5,1c0,0,0,0,0,0v0c0.5,0,1,0.1,1.5,0.1c6.6,0.2,6.2-9.3,0.6-10.9c-1.6-0.5-3.4-0.8-5.1-1.1c-2.5-1.5-3.6-4.4-3.2-7.8c0.7-5.6,4.8-10.6,10.4-11.7c9.3-1.8,17.1,4.2,23.4,10.2c6.4,6.1,12.4,13,20.5,16.9c2.2,3.7,4.7,7.1,7.5,10.2c-0.8,1-1.4,2.3-1.5,3.6c-0.8,0.3-1.6,0.5-2.4,0.8c-6.1,2.1-3.8,10.8,2.2,10.7c0.2,0,0.5,0,0.7,0c0.7,2.3,1.9,4.4,4.2,6.2c1.5,1.2,3.2,1.4,4.7,1c-0.4,0.8-0.6,1.7-0.6,2.8C282.5,346.6,290.3,360,289.1,374.4z M352.4,326.6c-5.5,4.4-15.1,2.9-21.7,2.8c-5.5,0-6.8,8.2-2,10.4c6,2.7,7.8,7.6,6.1,13.8c-1.7,6-7.2,8.6-12.9,8.9c-15.6,0.8-23.6-21.3-29.1-32.4c-1.3-2.7-4-3.8-6.3-3.4c1-1.6,1.1-3.7-0.2-5.3c0.3-0.2,0.6-0.5,0.9-0.8c0.2-0.2,0.3-0.4,0.5-0.6c1.1-0.3,2.2-0.6,3.2-0.8c2.4-0.6,3.8-3.3,3.7-5.6c-0.2-3.2-2.9-5.1-5.9-5.1c-0.8,0-1.4,0-2-0.1c0.8-1.9,0.7-4.2-1.4-6c-3.3-2.9-6.2-6.4-8.6-10.4c-0.1-1.2-0.7-2.4-1.9-3.3c-5-9.2-7.8-20.1-8-29.6c-0.2-7.4,6.5-9.9,13.1-8.7c7.5,1.4,12.6,9.3,14.6,15.9c1.1,3.7,7,5.2,9.3,1.8c4.2-6.1,7.8-17.1,15.9-18.8c9.5-2,17,1.4,17.1,11.7c0.1,11-10.9,18.1-18.5,24.1c-2.7,2.1-5.1,4.5-7.7,6.6c-1.6,1.3-3.3,2.5-5,3.6c-0.4,0.3-0.8,0.5-1.2,0.7c-3.8-2.7-10.4,0.7-8.5,6.2c0.2,0.5,0.4,0.9,0.6,1.3c-2.7,4.5,2.7,11.1,7.7,7.4c6.1-4.5,14.8-5.3,22.1-6c7.5-0.8,14.2-1.2,20.9,2.8C352.7,311,358.9,321.4,352.4,326.6z"/></svg>