<svg xmlns="http://www.w3.org/2000/svg" viewBox="0 0 512 512" width="48px" height="48px"><path fill="#74CCCF" d="M264.5,303.1c-10.6,4.5-20,10.9-31.1,14.3c-7.9,2.4-13.8,5.5-17.9,12.8c-3.2,5.5-7.4,11.9-10.1,18.4c2.5-0.8,5-1.6,7.2-2.5c14.7-5.9,29.3-13,41.4-23.4c0.5-0.4,1.1-0.7,1.6-0.9c2.4-6.8,5.8-13.3,10.2-19.2C265.4,302.7,265,302.9,264.5,303.1z"/><path fill="#1E4384" d="M435.3,37.2c-11.6,7.6-27.5,9.2-40.8,10.6c-9.6,1-19.2,1.7-28.7,2.1c0.1,0.6,0.2,1.1,0.1,1.7c1.1,1.1,2.3,2.1,3.6,3c1.4,1.1,2.9,2.1,4.3,3.2c0.7,0.5,1.3,0.9,2,1.4c0,0,0,0,0,0c11.8,0.3,23.6,1.3,35.3-0.1c10-1.2,19.9-3.2,29.8-4.9C438.6,48.9,436.4,43,435.3,37.2z"/><path fill="#74CCCF" d="M288.9,300.3c2,2.6,3.8,5.5,5.5,8.2c0.1-0.7,0.2-1.4,0.3-2.1c0.3-2.1,0.6-4.2,1-6.3C293.4,300.2,291.1,300.2,288.9,300.3z"/><path fill="#F6851F" d="M248.7 252.9c-11.3 2.4-22.2 3.6-33.6 4.2-10.7.6-21.8 1.1-32.3 3.7-4.2 1.1-8.8 2.2-12.4 4.9-1.7 1.3-2.3 2.2-2.4 3.6 26.4 12.8 55.8 18.5 85 19.9 14 .7 28.1.6 42.1-.1.7 0 1.5-.1 2.2-.1 2.2-14.9 4.2-29.9 5.8-44.9C284.6 243.6 266.7 249 248.7 252.9zM191.7 359.6c.4-7.1 2.8-13.7 6.2-20 2.9-5.4 5.6-11.1 8.9-16.3 6-9.3 13.9-13.7 24.4-16.7 5.5-1.6 10.6-4.3 15.7-7.1-30.1-2-59.5-7.9-86.7-21.8-.6 22.2.5 44.5 1.8 66.7 1.4 23.8 7.3 47.1 9.1 70.9 0 .2 0 .3 0 .5 8.2 5.7 19.1 8.2 28.5 10.1 9.3 1.8 18.7 3.1 28.2 3.6-2.1-3.7-4.5-7.3-6.8-10.7-4.7-7.1-9.2-14.5-13.6-21.9-4.1-7-9.1-14-12.5-21.4-2-4.5-4.6-10.4-3.4-15.4C191.6 359.9 191.7 359.7 191.7 359.6z"/><path fill="#74CCCF" d="M432.3 133c-5.1-4-12.8-5.1-19-6.2-19.7-3.6-39.5-4.1-59.5-4.2 0 .5-.1 1-.1 1.6-.5 6.1-1.1 12.3-1.6 18.4-.4 5.1-.1 11-1.4 16-.4 1.4-.8 2.8-1.4 4.2 10-1.7 20-4.1 29.9-6.8 15.1-4.2 31.4-7.1 45.3-15.3.9-.5 1.7-1 2.6-1.6.4-2.9 2.9-4.6 5.3-4.7.1-.2.2-.5.3-.8C432.7 133.4 432.5 133.1 432.3 133zM285.6 315.2c-2.2-3.6-4.3-7.7-7.3-10.8-5.8 6.3-10.4 14.5-12.8 22.2-.3 1.1-.9 2-1.6 2.6 5.2 13.3 10.8 27.5 21.1 37.5 2.7-16.7 5.4-33.5 8.1-50.2C290.8 318.2 287.5 318.4 285.6 315.2z"/><path fill="#D6E5E5" d="M279,376.3c-11.8-10.7-18.4-25.6-24.2-40.3c-10.2,7.5-21.6,13-33.2,18.1c-4.8,2.1-9.8,3.8-14.7,5.6c-1.7,0.6-4.5,1.8-4.5,2.4c0.2,5.9,4,11.2,6.9,16.1c4,6.8,7.9,13.6,12,20.4c4.1,6.7,9,13.1,12.8,20c2.2,4.1,4.8,8,6.7,12.3c1.5,1.2,2.3,3.2,2.2,5c0.5-0.1,1.1-0.2,1.7-0.1c10.7,0.9,26.6-5.3,29.5-16.6c0.4-1.6,1.4-2.8,2.5-3.4c1-4.6,2-9.2,2.9-13.9c1.5-8,2.5-16.1,3.7-24.2C281.9,377.9,280.4,377.5,279,376.3z"/><path fill="#1E4384" d="M317.5,299.3c-3.5,0.2-7.1,0.3-10.7,0.4c-0.3,2.3-0.7,4.6-1.1,6.9c-3.4,22.3-7.2,44.5-10.7,66.7c-1.7,10.8-2.9,21.6-5,32.3c-1.7,8.4-3.6,16.8-5.4,25.2c2.3,0.4,4.6,0.8,6.8,1c3.4,0.4,8,1.3,11.4,0.3c5.2-1.5,4.6-15.1,5.6-19.9c3.1-13.6,6.6-27,9.1-40.8c2.6-14.1,4.6-28.2,6.9-42.3c1.6-10.2,3-20.4,4.2-30.7C325,298.9,321.2,299.1,317.5,299.3z"/><path fill="#F6851F" d="M436.2,387.9c-0.5-16.9-5.3-32.9-10-48.9c-0.3-0.5-0.4-1.1-0.5-1.8c-1.8-6-3.5-12-4.9-18.1c-6.8-0.3-7.6-11-0.6-11h1.4c-0.7-3.4-1.4-6.7-2-10.1c-1.4-8.3-1.6-16.5-1.6-24.9c-7.6,6.7-18.3,11.2-26.2,14.2c-8.8,3.3-17.7,5.2-27,6.7c-8.3,1.3-16.6,2.5-24.9,3.4c-1.4,12.3-3,24.6-5.1,36.8c9.7-2.3,19.6-4.3,29.6-5c10.1-0.7,22.4-0.7,29.8,7.2c3.3,0.5,6.2,2,8.8,5c4.8,5.3,8.3,11.8,11.5,18.2c6.6,13.1,12.1,26.8,17.3,40.6c0.9,2.4-0.1,4.9-2.1,6.4c-2.1,1.5-4.1,3.1-6.1,4.8c0.7-0.3,1.4-0.7,2.1-1.1C434.8,405.5,436.5,397.8,436.2,387.9z"/><path fill="#74CCCF" d="M451.9,388.1c-2.6-25.4-5.4-50.8-8.6-76.1c-6.7-53.2-13.9-106.5-15.8-160.2c-13.2,7.1-28.5,10.2-42.8,14.1c-11.6,3.2-23.2,6-34.9,7.9c1.1,10.4-0.5,21.3-1.6,31.7c-1.1,10.1-2,20.1-2.7,30.2c15.8-3.8,32.9-5.1,49-3.8c13.6,1.1,33.9,5.9,33.3,23.4c0,0.6-0.1,1.2-0.1,1.8c0.9,0.8,1.5,2,1.5,3.6c0,12.9-0.6,25.6,1.9,38.3c2.3,12.2,5.4,24.2,5.6,36.7v0c5.6,19.1,11.3,38.1,10.5,58.5c-0.4,10.2-5.1,19.8-14.3,24.8c-8.9,4.9-19,7-28.4,10.8c-1,0.4-1.9,0.5-2.7,0.4c-2.8,2.1-5.7,4.1-8.5,6.2c-5,3.7-10,7.7-15.6,10.6c-4.1,2.2-10.1,5.5-15.1,4c-3.3-1-6-2.7-8.4-4.9c-12.6,4.1-29.2-2.9-39.2-11.6c-2.1,4.5-5.6,8-11.5,8.6c-8.6,0.9-18-0.6-26.4-2.7c-1.6-0.4-2.9-1.4-3.7-2.6c-8.7,6.5-20.5,9.6-30.8,8.6c-2.3-0.2-3.6-1.5-4.1-3.1c-2.3,0.5-4.7-0.2-5.8-2.9c-12.2-0.3-24.6-1.7-36.5-4.3c-12.8-2.7-27.9-6.6-37.2-16.5c-2.7-2.9-1.6-6.7,0.7-8.7c-2.2-22.7-7.4-44.9-8.8-67.8c-1.4-24.7-2.6-49.5-1.3-74.3c0.2-3.8,3.9-7.7,7.9-5.4c0,0,0.1,0.1,0.1,0.1c5.8-15.4,38.6-16.7,50.8-17.4c11.7-0.7,23-1.1,34.5-3.5c20.1-4.2,40.3-10.7,61.1-9.8c1.8-19,2.9-38,2.9-57.1c0-0.1,0-0.3,0-0.4c0,0,0,0-0.1,0c-0.8,0.6-1.8,0.9-3.1,0.9c-19.4,0-38.8,0-58.2-1.4c-19.8-1.4-39.1-5.1-58.5-8.8c-8.7-1.7-18.3-2.4-26.7-5.1c-4.6-1.5-9.3-3-13.8-4.6c-1.3-0.5-2.7-0.9-4-1.4c-4.6,22.6-6.8,45.6-7.4,68.6c-0.7,24.8-0.9,49.6,0.6,74.3c1.4,22.9,3.2,45.8,3.9,68.7c0.5,14.7,0.8,30,5.2,44.2c2.7,8.5,6.8,16.7,13.4,22.8c8.3,7.6,18.7,12,29.5,14.6c30,7.1,60.8,6.2,91.4,5.4c29.3-0.8,58.9,1.5,88.1-2.1c25.1-3.1,49-10.2,71.9-20.6c0.4-2.1,2-4.1,4.6-4.7c6.3-1.3,7.6-10.4,8.2-15.5C453.2,403.5,452.6,395.7,451.9,388.1z"/><path fill="#F6851F" d="M402.8,244.1c-18.1-3.6-39-2-56.9,2.7c-0.5,0.1-0.9,0.2-1.4,0.2c0,0.2,0,0.5-0.1,0.7c-1,12.9-2.1,25.7-3.4,38.6c0.1,0,0.1,0,0.2,0c21.3-2.4,42.4-4.8,61.1-15.9c5.3-3.1,13.7-8,14.4-14.9C417.5,248.2,408.3,245.2,402.8,244.1z"/><path fill="#1E4384" d="M338.9,175.2c-0.1,0-0.3,0-0.4,0c-0.3,0.1-0.5,0.2-0.8,0.3c-3.9,1.3-7.8,1.4-11.7,0.6c-2.6,0.1-5.3,0.1-7.9,0.1c-0.1,37.6-4.3,75-9.6,112.2c7.2-0.3,14.3-0.6,21.5-1.1c1.7-15.8,3-31.7,4.2-47.6c0.9-12.7,2.1-25.2,3.4-37.9C338.5,193.1,339.7,184.1,338.9,175.2z"/><path fill="#74CCCF" d="M376.3,340.3c-5.2-0.5-10.6-0.1-15.8,0.5c-9,1.1-17.8,2.9-26.6,5.1c-0.4,0.1-0.8,0.2-1.1,0.2c-2.4,13.9-4.2,27.9-7.1,41.7c0,0,0,0,0-0.1c6.5-11,17.3-20.1,26.8-28.4c7.5-6.5,16.2-14.2,25.7-18.9C377.5,340.4,376.9,340.3,376.3,340.3z"/><path fill="#D6E5E5" d="M406.4,367.9c-2.9-5.9-5.9-12-10-17.2c-0.7-0.8-1.3-1.7-2.1-2.4c-0.6-0.5-1.2-0.9-0.9-0.9c-1.1-0.2-2.1-0.1-3.7,0.4c-11.9,3.8-22.6,13.1-31.7,21.3c-5,4.5-9.9,9.1-14.5,14.1c-1.6,1.8-3.7,4.1-5.4,6.1c2.1,6.2,6.1,11.5,9.2,17.3c2,3.9,3.3,8,4.8,12.1c1.6,4.6,3.2,9.4,5.6,13.7c3.2-0.1,5.9,3.6,5.2,7c0.9,0.6,1.8,0.9,2.8,0.8c4.8-0.7,9.5-4.3,13.3-7c4.3-3,8.4-6.2,12.6-9.2c10.1-7.2,18.8-16.1,28.6-23.7C415.9,389.3,411.5,378.4,406.4,367.9z"/><path fill="#74CCCF" d="M342.7,425.6c-1.7-4.6-2.9-9.8-5.3-14.1c-3.1-5.5-6.8-10.7-9.1-16.6c-1.7-0.7-3.1-2.1-3.4-3.9c-2.4,10.7-5.1,21.2-6.9,32c0.7,0.3,1.5,0.8,2.1,1.5c5.2,5.9,17.4,12.4,27,11.7C345.4,432.8,344,429.1,342.7,425.6z"/><path fill="#F6851F" d="M205.6,94.2c-9.5-15.5-23.9-28.1-39.9-36.6c-15.1-8-32.1-13.3-49.3-10.9c-13.6,1.8-26.2,7.8-36.7,16.5c-28.5,23.5-44,66.6-33,102.5c2.5,8.1,6,16.3,11.4,22.9c5,6,11.3,11.2,17.6,15.7c9.9,7.2,31.9,21.7,42.3,8.2c1.9-2.5,4.7-2.4,6.7-1.1c1.2-21.4,3.8-42.8,8.5-63.8c0.2-0.8,0.5-1.5,0.9-2.1c0.9-2.1,3.1-3.8,5.6-3.9c2.3-0.1,3.9,1,4.8,2.5c0.4,0.2,0.8,0.3,1.2,0.5c2,0.8,4,1.5,6.1,2.2c3.5,1.2,7,2.3,10.5,3.5c6.3,2.1,13.4,2.7,19.9,3.9c5.9,1.1,11.8,2.3,17.7,3.4c0.2-0.6,0.5-1.1,0.7-1.7c0.1-1.1,0.6-2.1,1.2-2.8C210,134,217.4,113.5,205.6,94.2z M130,140.1c-0.8,0.3-1.7,0.4-2.5,0.3c1.4,3.7-2.7,9.1-7.8,7.2c-0.3-0.1-0.6-0.2-0.9-0.4c0.2,1.7-0.5,3.4-2.5,4.5c-2.5,1.4-4.9,2.6-7.5,3.7c2.8-0.4,5.6-0.4,8.4-0.2c0.1,0,0.1,0,0.2,0c3.1,0.1,6.2,2.5,5.7,6.4c-1.9,12.9-6.5,24.7-16.4,33.6c-6.4,5.8-19.5,14.1-26.1,3.6c-6.5-10.4-3.6-25,5.4-33c2.2-2,4.6-3.7,7.1-5.1c-0.9,0.2-1.8,0.4-2.8,0.6c-7.8,1.6-15.5,2.7-23.1-0.3C55,156.5,46.1,142,53.9,129.6c17.9-28.6,47.2-1.9,68.6,7.3c-6.6-8-15.2-14.2-22.2-21.8c-5.9-6.3-14-15.5-13.6-24.9c0.9-17.2,20.6-18.6,33.6-21.8c2.4-0.6,5-0.1,6.4,2.1c5.8,9.1,8,20.3,9.4,30.9c1.5,11,2,22.1,2.1,33.3C138.1,139.5,133.2,141.4,130,140.1z M196.4,138c-2.6,9.9-14.2,11.8-23,11.6c-8.6-0.3-19.7-1.2-26.4-7.3c-0.1-0.1-0.2-0.2-0.3-0.3c-2.5-0.8-4.8-3.2-4.4-6.3c-1.8-0.6-3.2-2.1-3.2-4.6c0-3.4-0.2-6.7-0.4-10.1c-0.7-14.1-2.2-29.7,2.2-43.3c1.8-5.7,5.2-11.7,11.3-13.8c7-2.3,14.4,0.4,20.3,4.3c7.7,5,15.5,12,17.1,21.5c1.3,7.4-2,14.5-6.7,20.1c-1.2,1.4-2.5,2.8-3.8,4.1c2.9-0.2,5.7-0.1,8.5,0.6C198,117.2,198.7,129.4,196.4,138z"/><path fill="#F6851F" d="M186.1 126.3c-.4-1.4-2.8-1.6-5.2-1.3-7.3.8-14.2 3.7-20.9 6.4-.7.3-1.3.4-1.9.4-1 1-2 2-2.9 3 4.2 3 11.4 3.7 16.2 3.8 3.3.1 13 .8 14.4-3.2C186.7 132.9 186.8 128.8 186.1 126.3zM178.9 91.2c-2.1-7.4-9.7-13.2-16.5-16-2.1-.9-4.9-1.4-5.9-1-1.4.5-2.4 1.2-3.2 2.7-2.7 4.9-3.4 10.8-3.8 16.4-.7 10.4.2 20.7.6 31.1 1.8-1.7 3.6-3.2 5.4-4.6 5.5-4.5 11.4-8.7 16.4-13.9C175.2 102.4 180.5 96.7 178.9 91.2zM94.2 173.3c-2.5 2.4-5 5.3-5.7 8.8-.7 3.1-1 8.1 1.2 10.8 2.1 2.6 12-8 13.1-9.5 4.3-5.6 6.7-11 8.2-17.3C104.9 166.6 98.4 169.3 94.2 173.3zM125.5 105.1c-1.1-8.4-2.3-17.7-6.2-25.4-9.2 1.5-24.5 4-20.9 13.5 5.2 13.6 18.4 22.2 28.6 32.5C126.8 118.8 126.3 111.9 125.5 105.1zM92.2 132.9c-7-3.5-19-9.2-25.7-2-3.3 3.5-5.9 8-3.7 12.9 1.8 4 6.1 6.9 10.3 7.8 11.7 2.5 26.3-3.2 36.5-8.8C103.8 139.6 98.2 135.9 92.2 132.9z"/><path fill="#1E4384" d="M336.3 90.5c0 .2.1.3.1.5 1.5 8.3-.6 16.9-2.5 25-3.6 15-4.9 31-9.7 45.7.9.9 1.5 1.9 1.6 3.1.4.2.8.3 1.2.4 2.8-.1 5.5-.3 8.3-.6.2-.2.4-.3.6-.5 5.2-5.3 4.6-13.1 5.2-20 1.5-17.4 3.2-34.7 3.5-52.1C341.8 91.7 339 91.2 336.3 90.5zM365.7 65.5c-2.4-1.7-4.8-3.5-6.9-5.5-2.1-2-3.9-4.1-4.4-7.1-.2-.9-.1-1.8.2-2.6-2.1.1-4.3.1-6.5.2.4 1.9-.2 4-2.3 5.2-.3.2-.7.4-1 .6 6.6 4.7 13.8 8.6 21 12.3C365.7 67.5 365.7 66.5 365.7 65.5z"/><path fill="#74CCCF" d="M199 60.2c-.1-.7-.1-.8-.1-.4-.2-.6-.3-1.1-.5-1.7-.1-.3-.2-.4-.2-.5-.2-.3-.3-.6-.5-.8-.1 0-.3-.3-.5-.5 0 0-.1 0-.1-.1 0 0 0 0 0 0-1.4.2-2.7 1.1-4.3 2.4-1 .9-2.4 1.1-3.7.9 3.1 2.4 6.1 5 8.9 7.7.1-.2.2-.4.3-.6.6-1.3 1-3.1.9-4.7C199.1 61.4 199.1 60.8 199 60.2zM226 122.4c-1.2.3-2.3.2-3.3-.1-1.3 12.9-6.3 25.1-11.4 36.9 0 .1-.1.3-.1.4 29.1 4.9 58.1 6 87.5 6 1.1-1 2.6-1.7 4.5-1.4 2.9.4 5.7.6 8.6.8 0-.7.1-1.5.4-2.4 3.1-7.6 4.3-15.9 5.8-24 1.4-7.6 2.8-15.2 4.6-22.6C291 110.5 256.8 114.7 226 122.4z"/><path fill="#1E4384" d="M335.7,63.4c0.5,2.6,0.6,5.1-0.5,7.4c-1.1,2.5-3.3,4.1-5.7,5.2c0.2,0.1,0.4,0.2,0.5,0.3c6.3,3.5,13.4,4.9,20.5,5.3c0.6-0.1,1.2-0.2,1.8-0.4c0.5-2.3,1.6-4.3,3.3-5.5C348.7,72,342,68,335.7,63.4z"/><path fill="#EF4823" d="M245.9,85.7c-0.3-6.7-5.4-13.5-11.3-14.7c-3.5,2.7-7.9,4.6-13,5.2c-4.7,0.5-7.9-5.7-4.6-9.1c3.6-3.8,8.3-6.3,13.2-7.1c2.3-3.4,2.7-7.9,0.1-12.5c-6.1-10.9-17.7-9.7-27.1-3.7c-4.3,2.7-11.2-2.1-8-7c1.3-2.1,2.8-4.9,2.7-6.6c-0.1-1.4-0.3-2.2-1.3-3.1c-2.8-2.5-7.3-3.6-11.7-3.4c-10.6,0.5-19.8,6.5-18.4,18.1c0.2,1.5-0.2,2.7-0.8,3.6c6.5,3.1,12.9,6.8,18.8,11c-1.1-2.4-0.1-5,2-6.8c6.1-5.2,15.4-6.3,20.3,1.2c4,6.1,4.3,14.3,1.2,20.8c-0.8,1.6-2,2.5-3.3,2.9c2.5,2.9,4.9,5.9,7,9c3.6,5.2,6.4,10.7,8.4,16.4c1.5,0.1,2.9,0.7,4.1,2.2c2.7,3.6,11-1.5,13.5-3.3C241.9,95.8,246.2,91.3,245.9,85.7z"/><path d="M463.6,397.5c-1-24.3-4.8-48.7-7.7-72.7c-7.4-60-16-119.9-17.6-180.4c4.7-4.4,7.6-10.3,4.1-16.6c-3.9-6.8-14.5-9-21.4-10.6c-21.7-5.1-44.1-5.4-66.3-5.5c0.4-6.3,0.7-12.7,0.8-19c1.5-0.1,2.6-0.7,3.3-1.6c2.4-0.6,4.2-2.7,4.3-5.2c0.1,0,0.1,0,0.2,0c3.5,0.2,5.8-0.9,8.2-3.3c3.5-3.6,4.6-7.8,4.9-12.3c11.9,0.3,23.7,1.1,35.6-0.1c12.6-1.3,24.9-4.4,37.5-6c3.2-0.4,6.4-3.9,4.8-7.3c-2.3-4.7-4.1-9.5-5.8-14.4c-1.2-3.5-2.8-7.4-3-11.2c-0.2-3.7-3.3-5.3-6.2-4.8c-1.6-2-4.3-2.9-6.9-0.8c-10.7,8.9-27,10-40.2,11.4c-19.2,2-38.3,2.7-57.7,2.7c-4.5,0-6.3,5.9-3.9,9c-1.2,0-2.4,0-3.6,0c-2.7,0-5.6,3.1-5.1,5.9c0.8,3.7,2.2,7.8,2.8,11.3c-2.6,1.1-5.4,1.8-8.1,2.5c-2.7,0.7-4.6,4.4-3.4,7c1.6,3.5,3.6,6.2,6.3,8.9c2.5,2.5,4.8,4.1,5.7,7.6c1.1,4.3,0.7,8.9-0.3,13.4c-26.1-4.7-53.7-3.1-80.1,1.7c6.8-5,11.7-12.6,11.8-21.2c0.1-9.7-5.3-18.1-13.3-23.2c-0.7-0.4-1.4-0.8-2-1.1c2-5.3,1.9-11.4-0.8-17.7c-3.2-7.4-9.2-12.4-16.7-14.9c-5-1.6-10.2-1.3-15.2,0.2c-0.1-2.8-1-5.6-2.8-8.1c-4.5-6.1-12.4-8-19.6-8.3c-16.7-0.8-31.9,11.2-30.8,28.4c-1-0.3-1.9-0.7-2.9-1c-20.2-6.8-41.6-6.4-61,2.6C74.1,50.9,60.3,64.8,50,81c-11.3,17.8-17.6,39.1-17.6,60.2v0c0,16.4,3.9,32.7,12.2,47.1c8.1,14,22.7,24.7,36.5,32.5c12.8,7.2,31.5,12.9,43.1,1.3c-1.5,40,1.4,80.4,3.7,120.2c1.3,22.3,0.3,45.1,5.4,67c4.5,19.4,16.3,35.1,34.3,43.8c20.8,10,46,11.5,68.6,12.2c25.5,0.8,51.1-1.1,76.6-1c24.3,0.1,48,0.4,72-4.1c23.5-4.4,46.1-12.4,67.5-23c2.3-1.2,3.3-3.3,3.3-5.4C463.6,423.6,464.1,408.7,463.6,397.5z M413.4,126.8c6.1,1.1,13.9,2.2,19,6.2c0.2,0.1,0.3,0.4,0.5,0.6c-0.1,0.2-0.2,0.6-0.3,0.8c-2.5,0.2-4.9,1.8-5.3,4.7c-0.9,0.6-1.8,1.1-2.6,1.6c-13.9,8.2-30.2,11.1-45.3,15.3c-9.9,2.8-19.9,5.1-29.9,6.8c0.5-1.4,1-2.8,1.4-4.2c1.3-5,1-10.8,1.4-16c0.5-6.1,1.1-12.3,1.6-18.4c0-0.5,0.1-1,0.1-1.6C373.9,122.7,393.6,123.2,413.4,126.8z M394.5,47.8c13.3-1.4,29.2-3,40.8-10.6c1.1,5.7,3.3,11.7,5.8,17.1c-9.9,1.6-19.8,3.7-29.8,4.9c-11.7,1.4-23.6,0.4-35.3,0.1c0,0,0,0,0,0c-0.7-0.5-1.4-0.9-2-1.4c-1.5-1-2.9-2.1-4.3-3.2c-1.2-1-2.4-2-3.6-3c0-0.6,0-1.2-0.1-1.7C375.4,49.5,384.9,48.8,394.5,47.8z M345.7,55.7c2.1-1.2,2.7-3.2,2.3-5.2c2.2,0,4.3-0.1,6.5-0.2c-0.3,0.8-0.3,1.7-0.2,2.6c0.5,3,2.3,5,4.4,7.1c2.1,2,4.5,3.8,6.9,5.5c0,1,0.1,2,0,3c-7.2-3.7-14.4-7.6-21-12.3C345,56.1,345.4,55.9,345.7,55.7z M335.2,70.7c1-2.3,1-4.8,0.5-7.4c6.3,4.6,13,8.7,19.9,12.3c-1.7,1.2-2.8,3.2-3.3,5.5c-0.6,0.1-1.2,0.3-1.8,0.4c-7.1-0.4-14.2-1.8-20.5-5.3c-0.2-0.1-0.4-0.2-0.5-0.3C332,74.8,334.1,73.2,335.2,70.7z M333.9,116c2-8.1,4-16.7,2.5-25c0-0.2-0.1-0.3-0.1-0.5c2.7,0.7,5.5,1.2,8.3,1.5c-0.3,17.4-2.1,34.8-3.5,52.1c-0.6,6.9,0,14.7-5.2,20c-0.2,0.2-0.4,0.4-0.6,0.5c-2.7,0.3-5.5,0.5-8.3,0.6c-0.4-0.1-0.8-0.3-1.2-0.4c-0.1-1.2-0.7-2.2-1.6-3.1C329,147,330.3,131,333.9,116z M420.8,319.1c1.4,6.1,3.2,12.1,4.9,18.1c0.1,0.7,0.3,1.3,0.5,1.8c4.7,16,9.6,32,10,48.9c0.3,9.9-1.5,17.6-10.5,22.6c-0.7,0.4-1.4,0.7-2.1,1.1c2-1.7,4-3.3,6.1-4.8c2-1.4,3-4,2.1-6.4c-5.2-13.8-10.6-27.5-17.3-40.6c-3.2-6.4-6.6-12.9-11.5-18.2c-2.6-2.9-5.5-4.5-8.8-5c-7.4-7.9-19.7-7.9-29.8-7.2c-10,0.7-19.9,2.7-29.6,5c2-12.2,3.7-24.5,5.1-36.8c8.3-0.9,16.7-2.1,24.9-3.4c9.3-1.5,18.2-3.3,27-6.7c7.9-3,18.5-7.6,26.2-14.2c0,8.3,0.2,16.6,1.6,24.9c0.6,3.4,1.3,6.7,2,10.1h-1.4C413.2,308.2,414,318.8,420.8,319.1z M357.6,432.4c-2.4-4.3-4-9.1-5.6-13.7c-1.4-4.1-2.8-8.3-4.8-12.1c-3-5.8-7.1-11.1-9.2-17.3c1.7-2.1,3.8-4.4,5.4-6.1c4.6-4.9,9.5-9.6,14.5-14.1c9.1-8.2,19.8-17.5,31.7-21.3c1.6-0.5,2.6-0.6,3.7-0.4c-0.3,0,0.3,0.3,0.9,0.9c0.8,0.7,1.4,1.5,2.1,2.4c4.1,5.2,7.1,11.3,10,17.2c5.1,10.6,9.5,21.5,13.7,32.4c-9.7,7.7-18.4,16.5-28.6,23.7c-4.2,3-8.3,6.2-12.6,9.2c-3.9,2.7-8.5,6.2-13.3,7c-1,0.2-1.9-0.2-2.8-0.8C363.4,436,360.8,432.4,357.6,432.4z M295.1,289c-14,0.7-28.1,0.8-42.1,0.1c-29.2-1.4-58.6-7.1-85-19.9c0.1-1.4,0.7-2.3,2.4-3.6c3.5-2.7,8.2-3.8,12.4-4.9c10.5-2.6,21.6-3.1,32.3-3.7c11.5-0.6,22.3-1.7,33.6-4.2c18-3.8,35.9-9.2,54.4-8.8c-1.6,15-3.6,29.9-5.8,44.9C296.6,289,295.8,289,295.1,289z M295.6,300.1c-0.3,2.1-0.6,4.2-1,6.3c-0.1,0.7-0.2,1.4-0.3,2.1c-1.7-2.8-3.5-5.6-5.5-8.2C291.1,300.2,293.4,300.2,295.6,300.1z M265.9,302.5c-4.3,5.9-7.8,12.4-10.2,19.2c-0.6,0.2-1.1,0.4-1.6,0.9c-12.1,10.4-26.7,17.5-41.4,23.4c-2.2,0.9-4.7,1.7-7.2,2.5c2.7-6.5,6.9-12.8,10.1-18.4c4.2-7.3,10.1-10.4,17.9-12.8c11.1-3.4,20.5-9.8,31.1-14.3C265,302.9,265.4,302.7,265.9,302.5z M246.9,299.5c-5.1,2.8-10.2,5.5-15.7,7.1c-10.5,3-18.4,7.4-24.4,16.7c-3.3,5.1-6,10.9-8.9,16.3c-3.3,6.3-5.7,12.9-6.2,20c0,0.2-0.1,0.3-0.2,0.5c-1.3,5.1,1.3,10.9,3.4,15.4c3.3,7.4,8.3,14.4,12.5,21.4c4.4,7.4,8.8,14.7,13.6,21.9c2.3,3.4,4.7,7,6.8,10.7c-9.5-0.5-18.9-1.8-28.2-3.6c-9.4-1.9-20.3-4.3-28.5-10.1c0-0.2,0-0.3,0-0.5c-1.8-23.8-7.7-47-9.1-70.9c-1.3-22.2-2.4-44.4-1.8-66.7C187.4,291.6,216.9,297.5,246.9,299.5z M221.2,398.5c-4.1-6.7-8-13.6-12-20.4c-2.9-4.9-6.7-10.2-6.9-16.1c0-0.5,2.9-1.8,4.5-2.4c4.9-1.8,9.9-3.5,14.7-5.6c11.6-5.2,23-10.6,33.2-18.1c5.9,14.6,12.5,29.6,24.2,40.3c1.4,1.3,2.9,1.6,4.3,1.4c-1.2,8.1-2.2,16.1-3.7,24.2c-0.8,4.6-1.8,9.3-2.9,13.9c-1.2,0.7-2.1,1.8-2.5,3.4c-2.9,11.4-18.9,17.6-29.5,16.6c-0.6-0.1-1.2,0-1.7,0.1c0.1-1.9-0.7-3.8-2.2-5c-2-4.2-4.5-8.2-6.7-12.3C230.2,411.7,225.3,405.3,221.2,398.5z M263.9,329.3c0.7-0.6,1.3-1.5,1.6-2.6c2.4-7.8,7-16,12.8-22.2c3,3.1,5.1,7.2,7.3,10.8c1.9,3.1,5.2,3,7.5,1.3c-2.6,16.8-5.4,33.5-8.1,50.2C274.7,356.8,269.1,342.6,263.9,329.3z M290.1,405.7c2.1-10.7,3.3-21.5,5-32.3c3.5-22.2,7.3-44.5,10.7-66.7c0.4-2.3,0.7-4.6,1.1-6.9c3.6-0.1,7.1-0.3,10.7-0.4c3.8-0.2,7.5-0.4,11.3-0.7c-1.2,10.3-2.6,20.5-4.2,30.7c-2.2,14.1-4.3,28.3-6.9,42.3c-2.5,13.7-6,27.2-9.1,40.8c-1.1,4.7-0.4,18.3-5.6,19.9c-3.4,1-8,0.1-11.4-0.3c-2.3-0.3-4.6-0.6-6.8-1C286.5,422.5,288.4,414.1,290.1,405.7z M330,287.3c-7.2,0.5-14.3,0.8-21.5,1.1c5.4-37.2,9.5-74.6,9.6-112.2c2.7,0,5.3,0,7.9-0.1c3.8,0.8,7.8,0.8,11.7-0.6c0.3-0.1,0.5-0.2,0.8-0.3c0.1,0,0.3,0,0.4,0c0.8,8.8-0.4,17.9-1.3,26.7c-1.3,12.6-2.5,25.2-3.4,37.9C333,255.6,331.7,271.5,330,287.3z M360.5,340.8c5.2-0.6,10.5-1,15.8-0.5c0.6,0.1,1.2,0.1,1.8,0.2c-9.5,4.7-18.2,12.4-25.7,18.9c-9.5,8.3-20.3,17.4-26.8,28.4c0,0,0,0,0,0.1c2.9-13.8,4.7-27.8,7.1-41.7c0.4,0,0.7-0.1,1.1-0.2C342.7,343.7,351.5,341.8,360.5,340.8z M325,391c0.3,1.8,1.7,3.2,3.4,3.9c2.3,5.9,6,11.1,9.1,16.6c2.4,4.3,3.6,9.5,5.3,14.1c1.3,3.5,2.7,7.2,4.4,10.6c-9.5,0.7-21.8-5.8-27-11.7c-0.6-0.7-1.3-1.2-2.1-1.5C319.9,412.2,322.6,401.7,325,391z M416.8,255.4c-0.7,6.9-9.1,11.8-14.4,14.9c-18.8,11.1-39.9,13.5-61.1,15.9c-0.1,0-0.1,0-0.2,0c1.3-12.8,2.4-25.7,3.4-38.6c0-0.2,0-0.5,0.1-0.7c0.4,0,0.9-0.1,1.4-0.2c17.8-4.7,38.7-6.4,56.9-2.7C408.3,245.2,417.5,248.2,416.8,255.4z M322.6,116.1c-1.8,7.5-3.3,15.1-4.6,22.6c-1.5,8-2.7,16.4-5.8,24c-0.3,0.8-0.5,1.6-0.4,2.4c-2.9-0.2-5.7-0.4-8.6-0.8c-1.9-0.2-3.4,0.4-4.5,1.4c-29.5-0.1-58.4-1.1-87.5-6c0-0.1,0.1-0.3,0.1-0.4c5.1-11.9,10.1-24,11.4-36.9c1,0.3,2.1,0.4,3.3,0.1C256.8,114.7,291,110.5,322.6,116.1z M166.6,41.7c-1.4-11.6,7.8-17.6,18.4-18.1c4.4-0.2,8.9,0.9,11.7,3.4c0.9,0.8,1.2,1.6,1.3,3.1c0.1,1.7-1.4,4.6-2.7,6.6c-3.2,4.9,3.7,9.7,8,7c9.4-6,21.1-7.1,27.1,3.7c2.6,4.6,2.2,9.1-0.1,12.5c-4.9,0.8-9.6,3.3-13.2,7.1c-3.3,3.5-0.2,9.6,4.6,9.1c5.1-0.6,9.5-2.4,13-5.2c5.9,1.2,11,8,11.3,14.7c0.3,5.7-4,10.1-8.2,13.2c-2.5,1.8-10.7,6.9-13.5,3.3c-1.1-1.5-2.6-2.2-4.1-2.2c-1.9-5.7-4.8-11.2-8.4-16.4c-2.1-3.1-4.5-6.1-7-9c1.3-0.3,2.5-1.2,3.3-2.9c3.1-6.5,2.8-14.7-1.2-20.8c-4.9-7.5-14.1-6.4-20.3-1.2c-2,1.7-3.1,4.3-2,6.8c-6-4.2-12.3-7.9-18.8-11C166.4,44.4,166.8,43.2,166.6,41.7z M197.1,56.4c0.2,0.2,0.4,0.4,0.5,0.5c0.2,0.3,0.4,0.5,0.5,0.8c0,0.1,0.1,0.2,0.2,0.5c0.2,0.5,0.4,1.1,0.5,1.7c-0.1-0.4,0-0.3,0.1,0.4c0.1,0.6,0.1,1.2,0.2,1.8c0.1,1.6-0.3,3.4-0.9,4.7c-0.1,0.2-0.2,0.4-0.3,0.6c-2.8-2.7-5.8-5.3-8.9-7.7c1.3,0.2,2.7,0,3.7-0.9C194.3,57.4,195.6,56.5,197.1,56.4C197.1,56.3,197.1,56.3,197.1,56.4C197,56.4,197.1,56.4,197.1,56.4z M133.2,147.6c-4.7,21.1-7.3,42.4-8.5,63.8c-2-1.4-4.8-1.4-6.7,1.1c-10.4,13.5-32.4-1-42.3-8.2c-6.3-4.5-12.6-9.7-17.6-15.7c-5.5-6.6-9-14.8-11.4-22.9c-11-35.9,4.5-79,33-102.5c10.5-8.7,23.1-14.6,36.7-16.5c17.2-2.3,34.2,2.9,49.3,10.9c16,8.5,30.4,21.1,39.9,36.6c11.8,19.3,4.4,39.8-3.7,58.8c-0.6,0.8-1.1,1.7-1.2,2.8c-0.2,0.6-0.5,1.1-0.7,1.7c-5.9-1.1-11.8-2.2-17.7-3.4c-6.5-1.2-13.6-1.9-19.9-3.9c-3.5-1.1-7-2.3-10.5-3.5c-2-0.7-4.1-1.4-6.1-2.2c-0.4-0.2-0.8-0.3-1.2-0.5c-0.9-1.5-2.6-2.5-4.8-2.5c-2.5,0.1-4.6,1.8-5.6,3.9C133.7,146.1,133.4,146.8,133.2,147.6z M452.4,411.2c-0.5,5.1-1.9,14.2-8.2,15.5c-2.7,0.5-4.2,2.5-4.6,4.7c-22.9,10.4-46.9,17.5-71.9,20.6c-29.1,3.6-58.8,1.3-88.1,2.1c-30.6,0.9-61.4,1.7-91.4-5.4c-10.9-2.6-21.2-7-29.5-14.6c-6.7-6.1-10.8-14.3-13.4-22.8c-4.5-14.1-4.7-29.5-5.2-44.2c-0.8-22.9-2.5-45.8-3.9-68.7c-1.5-24.8-1.3-49.5-0.6-74.3c0.6-23,2.8-46,7.4-68.6c1.4,0.5,2.7,0.9,4,1.4c4.6,1.6,9.2,3.1,13.8,4.6c8.4,2.7,18,3.5,26.7,5.1c19.4,3.7,38.7,7.4,58.5,8.8c19.3,1.4,38.8,1.4,58.2,1.4c1.3,0,2.3-0.4,3.1-0.9c0,0,0,0,0.1,0c0,0.1,0,0.2,0,0.4c0,19.1-1.2,38.1-2.9,57.1c-20.8-0.9-41,5.6-61.1,9.8c-11.5,2.4-22.8,2.7-34.5,3.5c-12.2,0.8-45,2-50.8,17.4c0,0-0.1-0.1-0.1-0.1c-4-2.3-7.7,1.6-7.9,5.4c-1.3,24.8-0.2,49.5,1.3,74.3c1.3,22.8,6.6,45.1,8.8,67.8c-2.3,1.9-3.4,5.8-0.7,8.7c9.3,9.9,24.4,13.8,37.2,16.5c11.9,2.5,24.3,3.9,36.5,4.3c1.1,2.6,3.5,3.4,5.8,2.9c0.5,1.6,1.8,2.9,4.1,3.1c10.3,0.9,22.1-2.1,30.8-8.6c0.8,1.3,2.1,2.3,3.7,2.6c8.4,2,17.8,3.6,26.4,2.7c5.9-0.6,9.4-4.1,11.5-8.6c10,8.7,26.6,15.7,39.2,11.6c2.3,2.2,5.1,3.9,8.4,4.9c4.9,1.5,10.9-1.8,15.1-4c5.5-3,10.6-6.9,15.6-10.6c2.8-2.1,5.7-4.1,8.5-6.2c0.8,0.1,1.8,0,2.7-0.4c9.4-3.8,19.4-5.9,28.4-10.8c9.2-5.1,13.9-14.6,14.3-24.8c0.8-20.3-4.9-39.3-10.5-58.5v0c-0.2-12.5-3.3-24.5-5.6-36.7c-2.5-12.7-1.9-25.5-1.9-38.3c0-1.6-0.6-2.8-1.5-3.6c0.1-0.6,0.1-1.2,0.1-1.8c0.6-17.5-19.8-22.3-33.3-23.4c-16.1-1.3-33.2-0.1-49,3.8c0.8-10.1,1.6-20.1,2.7-30.2c1.1-10.3,2.6-21.2,1.6-31.7c11.7-1.9,23.3-4.7,34.9-7.9c14.2-3.9,29.6-7,42.8-14.1c1.9,53.7,9.1,107,15.8,160.2c3.2,25.3,6,50.7,8.6,76.1C452.6,395.7,453.2,403.5,452.4,411.2z"/><path d="M136.1 101.5c-1.4-10.5-3.6-21.8-9.4-30.9-1.4-2.2-4-2.7-6.4-2.1-13 3.2-32.7 4.6-33.6 21.8-.5 9.4 7.7 18.6 13.6 24.9 7 7.6 15.6 13.8 22.2 21.8-21.4-9.2-50.8-35.9-68.6-7.3-7.8 12.5 1.1 26.9 13.4 31.7 7.6 2.9 15.3 1.9 23.1.3.9-.2 1.8-.4 2.8-.6-2.5 1.5-4.9 3.2-7.1 5.1-9 7.9-11.9 22.6-5.4 33 6.6 10.5 19.7 2.2 26.1-3.6 9.9-9 14.5-20.7 16.4-33.6.6-3.9-2.6-6.3-5.7-6.4-.1 0-.1 0-.2 0-2.9-.2-5.7-.2-8.4.2 2.5-1.1 5-2.4 7.5-3.7 2-1.1 2.7-2.8 2.5-4.5.3.1.6.3.9.4 5.1 1.9 9.1-3.4 7.8-7.2.9.1 1.7-.1 2.5-.3 3.3 1.3 8.1-.6 8.1-5.3C138.1 123.6 137.5 112.5 136.1 101.5zM111 166.1c-1.5 6.3-3.9 11.7-8.2 17.3-1.1 1.5-11 12.1-13.1 9.5-2.1-2.7-1.8-7.7-1.2-10.8.7-3.5 3.2-6.4 5.7-8.8C98.4 169.3 104.9 166.6 111 166.1zM73.2 151.6c-4.2-.9-8.5-3.9-10.3-7.8-2.2-4.8.4-9.3 3.7-12.9 6.7-7.2 18.6-1.5 25.7 2 6 3 11.6 6.7 17.4 9.9C99.5 148.4 84.9 154.2 73.2 151.6zM98.4 93.2c-3.6-9.4 11.7-11.9 20.9-13.5 3.9 7.7 5.1 17 6.2 25.4.9 6.8 1.3 13.7 1.5 20.6C116.7 115.4 103.6 106.8 98.4 93.2zM187.7 114.5c-2.7-.7-5.6-.8-8.5-.6 1.3-1.3 2.6-2.7 3.8-4.1 4.7-5.5 8-12.7 6.7-20.1-1.7-9.5-9.4-16.5-17.1-21.5-5.9-3.8-13.3-6.6-20.3-4.3-6.1 2-9.4 8-11.3 13.8-4.4 13.7-2.9 29.2-2.2 43.3.2 3.4.3 6.7.4 10.1 0 2.5 1.4 4 3.2 4.6-.4 3.1 1.8 5.5 4.4 6.3.1.1.2.2.3.3 6.7 6.1 17.8 7 26.4 7.3 8.8.3 20.4-1.7 23-11.6C198.7 129.4 198 117.2 187.7 114.5zM149.4 93.3c.4-5.6 1.1-11.5 3.8-16.4.8-1.5 1.9-2.3 3.2-2.7 1-.3 3.8.2 5.9 1 6.9 2.9 14.4 8.6 16.5 16 1.6 5.5-3.7 11.1-7.1 14.7-5 5.1-10.9 9.3-16.4 13.9-1.8 1.5-3.6 3-5.4 4.6C149.7 114 148.7 103.7 149.4 93.3zM185.8 135.3c-1.4 4-11 3.3-14.4 3.2-4.8-.1-12-.8-16.2-3.8.9-1 1.8-2.1 2.9-3 .6 0 1.2-.2 1.9-.4 6.7-2.7 13.7-5.6 20.9-6.4 2.4-.3 4.7-.1 5.2 1.3C186.8 128.8 186.7 132.9 185.8 135.3z"/></svg>