<svg xmlns="http://www.w3.org/2000/svg" viewBox="0 0 48 48" width="48px" height="48px"><path fill="#a37b57" d="M43.393,13.63c-0.053-1.606-0.107-3.212-0.16-4.818c-0.019-0.584-0.053-1.21-0.411-1.672 c-0.494-0.639-1.407-0.731-2.214-0.763c-7.703-0.31-15.417,0.018-23.119,0.347c-1.233,0.053-2.467,0.105-3.7,0.158 c-2.548,0.109-4.083-0.164-6.588,0.312c-1.368,0.26-1.311,2.374-1.307,3.766c0.004,1.296,0.007,2.592,0.011,3.889 c0.001,0.258,0.004,0.527,0.118,0.759c0.251,0.511,0.909,0.638,1.475,0.694c0.464,0.046,0.929,0.077,1.394,0.11 c0.114,4.9,0.021,11.566-0.071,15.908c-0.048,2.262-0.097,4.524-0.145,6.785c-0.011,0.52-0.019,1.057,0.179,1.537 c0.576,1.4,2.448,1.591,3.962,1.561c7.593-0.148,17.186-0.296,24.779-0.443c0.593-0.012,1.221-0.034,1.717-0.359 c0.803-0.528,0.954-1.623,1.018-2.582c0.427-6.437,0.343-15.369-0.246-22.25c0.392,0.022,0.784,0.018,1.171-0.05 c0.852-0.15,1.697-0.654,2-1.464C43.423,14.604,43.409,14.11,43.393,13.63z M31,23.687c-1.024,0.858-2.474,0.922-3.81,0.946 c-2.503,0.045-5.019,0.089-7.499-0.261c-0.606-0.086-1.298-0.26-1.556-0.815c-0.132-0.285-0.116-0.623-0.009-0.918 c0.376-1.035,1.637-1.394,2.727-1.556c2.527-0.377,5.154-0.858,7.644-0.287c1.238,0.284,1.305,0.636,2.398,1.281 c0.225,0.133,0.46,0.29,0.553,0.534C31.596,22.999,31.318,23.42,31,23.687z"/><path fill="#010101" d="M31.15,21.65c-0.34-0.21-0.58-0.38-0.78-0.53c-0.47-0.33-0.83-0.6-1.76-0.81 c-2.38-0.55-4.85-0.17-7.23,0.19l-0.6,0.09c-0.64,0.09-2.58,0.38-3.12,1.88c-0.16,0.44-0.16,0.91,0.02,1.3 c0.41,0.88,1.52,1.04,1.94,1.1c1.68,0.23,3.38,0.29,5.05,0.29c0.85,0,1.7-0.01,2.53-0.03c1.54-0.02,3.01-0.13,4.12-1.06 c0.57-0.48,0.8-1.1,0.6-1.64C31.77,22.05,31.46,21.83,31.15,21.65z M30.68,23.3c-0.87,0.73-2.15,0.81-3.5,0.83 c-2.44,0.05-4.97,0.09-7.42-0.25c-0.67-0.1-1.05-0.27-1.17-0.53c-0.07-0.14-0.06-0.35,0.01-0.54c0.23-0.63,0.99-1.03,2.33-1.23 l0.6-0.09c1.48-0.23,2.98-0.46,4.45-0.46c0.82,0,1.62,0.07,2.41,0.25c0.73,0.17,0.96,0.34,1.39,0.65c0.22,0.16,0.48,0.35,0.86,0.58 c0.09,0.05,0.3,0.17,0.34,0.28C31.02,22.9,30.89,23.13,30.68,23.3z"/><path fill="#010101" d="M43.89,13.61l-0.16-4.82c-0.02-0.57-0.04-1.35-0.51-1.96c-0.68-0.88-1.93-0.93-2.59-0.95 C32.9,5.57,25.05,5.9,17.47,6.22l-3.7,0.16c-0.86,0.04-1.6,0.03-2.31,0.02C10.1,6.39,8.81,6.38,7.11,6.7 c-1.73,0.33-1.72,2.61-1.72,4.11l0.02,4.04c0,0.28,0,0.64,0.16,0.98c0.41,0.82,1.44,0.92,1.88,0.97c0.3,0.03,0.59,0.06,0.89,0.08 c0.19,4.78,0.09,10.46-0.02,15.43l-0.14,6.78c-0.02,0.52-0.03,1.16,0.21,1.74c0.71,1.73,2.95,1.88,4.07,1.88 c0.14,0,0.27,0,0.37-0.01c3.85-0.07,8.21-0.15,12.56-0.22c4.24-0.07,8.47-0.15,12.21-0.22c0.57-0.01,1.36-0.03,1.99-0.44 c1.09-0.72,1.19-2.24,1.24-2.97c0.47-6.99,0.32-14.89-0.38-21.77h0.01c0.29,0,0.58-0.02,0.88-0.07c1.14-0.2,2.05-0.88,2.38-1.78 C43.93,14.68,43.91,14.11,43.89,13.61z M39.83,38.78c-0.06,0.91-0.2,1.81-0.79,2.2c-0.36,0.24-0.85,0.27-1.46,0.28 c-3.74,0.07-7.97,0.15-12.2,0.22c-4.36,0.07-8.72,0.15-12.57,0.22c-1.98,0.05-3.13-0.37-3.49-1.25c-0.17-0.39-0.15-0.87-0.14-1.34 l0.14-6.78c0.11-4.94,0.2-10.58,0.03-15.38c4.33,0.26,8.71,0.04,12.97-0.19c5.36-0.28,10.91-0.57,16.29,0.15l0.19,0.02 c0.21,0.03,0.42,0.06,0.64,0.09C40.15,23.88,40.3,31.79,39.83,38.78z M42.79,14.88c-0.21,0.56-0.85,1.01-1.62,1.15 c-0.35,0.06-0.71,0.06-1.07,0.04h-0.01c-0.37-0.03-0.76-0.08-1.16-0.13l-0.19-0.02c-2.55-0.34-5.13-0.46-7.71-0.46 c-0.17,0-0.35,0-0.52,0.01c-2.77,0.01-5.53,0.15-8.24,0.29c-2.41,0.13-4.87,0.26-7.32,0.29c-1.9,0.04-3.81,0.01-5.7-0.11 c-0.57-0.04-1.14-0.08-1.7-0.14c-0.4-0.04-0.93-0.12-1.08-0.41c-0.06-0.14-0.06-0.34-0.06-0.55l-0.02-4.03 c0-1.18-0.01-2.95,0.9-3.13c1.61-0.3,2.79-0.29,4.16-0.28c0.72,0.01,1.48,0.02,2.36-0.02l3.7-0.16C25.08,6.9,32.9,6.57,40.59,6.88 c0.7,0.02,1.47,0.09,1.84,0.56c0.25,0.33,0.28,0.82,0.3,1.39l0.16,4.82C42.91,14.07,42.92,14.52,42.79,14.88z"/></svg>