<svg xmlns="http://www.w3.org/2000/svg" viewBox="0 0 512 512" width="48px" height="48px"><path fill="#FEBF10" d="M335.2 146.7c-5.8 1.4-11.1 4.1-16.7 6.1-5.9 2.2-12 3.2-18.2 4.3-13.7 2.6-27.4 3.8-41.3 3.9-13.6.1-27.4.8-41-.7-5.9-.6-11.5-1.9-17.2-3.5-5.2-1.5-10.5-3.2-16-2.8-1 .1-1.9-.1-2.6-.4-.3 2.2-.6 4.4-1 6.7 1.5.4 2.8 1.5 3.3 3.4 1.6 5.3 10.1 6.5 14.7 7.2 6.3 1.1 12.7 1.4 19.1 2 10.7.9 21.4 1 32.1 1.4 6.5.2 13 .8 19.5.7 12.1-.1 24.2-.5 36.2-1.9 5.6-.7 11.4-1.4 16.8-3.1 2.1-.7 3.8-1.2 5.4-2.3.2-.2.4-.3.4-.4.2-3 2.5-4.7 5-5 .3-3.9.9-7.8 1.2-11.7C335.2 149.2 335.2 147.9 335.2 146.7 335.2 146.6 335.2 146.7 335.2 146.7zM320.2 64.6c-15.6-7.7-35.3-8-52.2-5.7-15.6 2.1-31.3 5.3-47 6.4-11.1.8-24.7.6-34.2 7.3-5.2 3.7-10 9.6-10.4 16.2-.1 1.8.5 3.3 2 4 3.3 1.5 7.2.8 10.6.2 2.7-.5 4.5.9 5.2 2.8 26.2 2 52.2 6.4 78.6 6.2 15.4-.1 32.3-.7 46.7-6.9 5.9-2.6 12-6.7 12.4-13.8C332.4 73.7 326.5 67.7 320.2 64.6zM336.4 175.4c-5.6 5.4-16.8 6.9-23.2 7.8-13.7 2-27.7 2.6-41.6 2.7-19.1.2-38.5-1-57.6-2.4-9.6-.7-25.2-1.1-34-7.9.2 3.4.7 6.8 1.3 10.1.3.2.5.4.8.6 16.1 15.5 43.1 14.8 63.9 14.6 15.7-.1 31.1-2.6 46.4-5.9 15.1-3.2 30.5-6 45.2-10.8 1.4-.5 2.6-.4 3.6 0C339.6 181.3 337.8 178.4 336.4 175.4z"/><path fill="#FEBF10" d="M336.5,96.5c-3.9,4.2-8.9,7.2-14.3,9.3c-15.2,6-32.3,7-48.5,7.1c-14.6,0.1-29-0.6-43.5-2.3c-16.1-1.8-32.1-4.1-48.3-4.7c-2-0.1-3.4-1-4.4-2.2c-2-0.5-3.9-1.3-5.5-2.3c0.4,1.9,1.3,3.8,2,5.5c1.5,0,3,0.8,4.1,2.5c13.8,22.5,44.2,22.3,67.5,21.9c15.8-0.3,31.6-1.4,47.2-4.4c13.4-2.5,28.2-5.3,39.7-13c2-1.4,4.1-1.2,5.7-0.2c0.1-0.7,0.2-1.4,0.4-2.1C339.2,106.6,338,101.5,336.5,96.5z"/><path fill="#F6851F" d="M175.7,248.9c-8.8,4.1-18.7,5.9-28.4,6.6c-13,0.8-26,0-39,1.2c-14,1.3-28.2,3.4-42.2,1.8c-7.5-0.9-16.4-2.9-23.2-7.5c0.2,3.2,1.4,6.6,2.7,9.6c1.1,0,2.3,0.5,3.4,1.7c7.5,8.2,19.7,9.1,30.1,11c12.8,2.3,25.1,4.7,38.2,4.7c12.6-0.1,25.3-0.6,37.5-4c8.2-2.3,16.2-5.8,24.6-7.6C178,260.6,176.7,254.8,175.7,248.9z"/><path fill="#FEBF10" d="M173.1,222.7c-0.1-3.8-0.1-7.7-0.2-11.5c-0.7-0.1-1.5-0.2-2.2-0.2c-1-0.1-0.5,0.1-0.1,0.2c0.9,0.2,0.5,0.1,0,0c-0.3-0.1-0.7-0.1-1.3-0.3c-7.4-1.5-14.8-2.7-22.3-3.3c-15-1.2-30.3-1.4-45.3-0.3c-7.7,0.6-15.4,1.4-23.1,2.8c-6.3,1.1-13,2.2-18.9,5c-6.6,3.1-15.3,9-16.2,16.9c-1.2,10.1,14.1,14.3,21.4,15.3c13.6,1.9,27.3-0.1,40.9-1.4c21.9-2,48.4,2.9,68.2-8.5C173.5,232.5,173.2,227.6,173.1,222.7z"/><path fill="#F6851F" d="M187.3,313.1c0-3-0.1-6-0.2-9c-0.3,0.2-0.6,0.3-1,0.5c-17.2,6.4-36.2,6.4-54.3,6.9c-11,0.3-22.1,1.3-33.1,1.3c-11.8,0-35.2-0.1-46.5-9.7c0.2,0.9,0.4,1.8,0.7,2.7c1.3,3.9,2.2,7.7,3,11.6c1.1,0.3,2.1,0.9,3,2c6,7.5,17.5,9.2,26.4,10.2c10.6,1.1,21.2,0.8,31.8,0.6c14.4-0.4,28.8-0.4,43.2-2c5.7-0.6,11.1-1.6,16.7-2.9c3.6-0.8,7.3-2,10.9-2.3h0C187.6,319.7,187.4,316.5,187.3,313.1z"/><path fill="#FEBF10" d="M185.2 288.3c-1-3.8-2.1-7.6-3.1-11.4-.1 0-.2 0-.3.1-10.2 1.9-19.8 6.7-29.9 9-12.8 2.9-26.1 3.1-39.1 3-14.1-.2-27.7-3.7-41.6-5.8-6.6-1-13.7-2.6-20-5.6.4 1.9.6 3.7.7 5.6 2.6 0 4.9 1.6 4.9 4.9-.1 7.9 9.3 10.5 16 11.8 10.1 2 20.5 2.3 30.8 2 10.2-.3 20.3-1 30.5-1.3 16.1-.4 33.1-.5 48.3-6.2 1.4-.5 2.7-.5 3.8 0C186.1 292.2 185.7 290.3 185.2 288.3zM450.5 346c-15.2 5.8-30.8 7-46.7 9-32.2 4-64.5 7.9-97 7-.4 0-.8-.1-1.2-.1.5.4.9.9 1.3 1.6 4.7 8.3 19.5 6 27.5 6.7 8 .7 16.1 2 24.2 1.8 8-.3 16.1-1.4 24.1-2.3 16.3-1.9 32.5-4.6 48.1-9.7 8-2.6 23.2-2.1 27.6-10.8 1.3-2.7 3.9-3.3 6.1-2.8.1-2.8.2-5.5.2-8.3C460.6 341.3 455.6 344 450.5 346z"/><path fill="#FEBF10" d="M436.2,369.7c-17.1,5.6-34.8,8.8-52.6,10.8c-9.7,1.1-19.7,2.7-29.6,2.2c-8.1-0.4-16.1-1.7-24.2-2c-7.3-0.3-16.1-0.2-23.1-3.3c0.2,1.4,0.3,2.7,0.2,4.2c0,0.2,0,0.4,0,0.6c0.4,0.3,0.7,0.7,1,1.2c6.8,10.3,19.2,12.3,30.6,12.5c14.9,0.3,30,0.2,44.9-0.9c8.5-0.6,17.1-1.5,25.5-3c7.6-1.4,15-3.8,22.5-5.2c4.5-0.8,9-2,13.3-3.4c2.4-0.8,4.9-1.6,7.2-2.7c1.6-0.8,2.7-2.8,1.9-0.3c1.4-4.5,6.9-5,9.6-2.8c0.2-1.2,0.3-2.4,0.4-3.6c0-4.8,0.1-9.7,0.3-14.5C456.9,366.3,445.6,366.6,436.2,369.7z"/><path fill="#FEBF10" d="M462.4 401.5c-1.2-3.9-2.1-8.3-1.5-12.4 0-.4.1-.7.2-1.1-6.1 5.5-17.4 7.4-24.2 8.9-16.9 3.6-33.3 7.7-50.6 9-17.2 1.2-34.9 1.9-52.2.7-10.4-.7-20.5-3.2-28.3-9.5 0 .4 0 .8 0 1.2.1 3.1.5 6.3.8 9.4 1.6-.1 3.3.6 4.4 2.6 4.4 8 17.3 9.6 25.4 10.8 13.7 2 28 2.5 41.8 2.1 15.6-.5 31.7-.2 46.9-4.1 7.4-1.9 15.1-3.9 22-7.2 1.8-.8 3.5-2 5.1-3 .6-.4 1.2-.7 1.8-1.1.8-3 4-5.8 7.9-4.3.6.2 1.1.5 1.5.8C463 403.4 462.7 402.5 462.4 401.5zM347.6 267.5c-.2-5.1-.7-10.2-.9-15.3-4.7 3.6-11.2 5.9-15.6 7.5-13.4 4.9-28 7.2-42 9.8-17.3 3.2-34.5 4.5-52 2.2-16-2.1-31.6-6.1-47.3-10 .5 2.1 1 4.2 1.5 6.3 7.8 13.6 23.7 17.3 38.3 18.4 15.9 1.1 31.5-1.4 47.3-1.4 11.4 0 22.9-1.1 34.1-2.8 6.4-1 12.9-2.1 19-4.3 2.2-.8 4.4-1.6 6.3-3 .9-.7.9-.5 1.5-1.3 0 0 0 0 0 0-.1.2-.1 0 0 0 0 0 0 0 .1-.1 0 0 0 .1-.1.1 0 0 .1.1.1.4.3-5.5 7-7.2 9.8-4.4C347.6 268.8 347.6 268.2 347.6 267.5z"/><path fill="#FEBF10" d="M349.6 221.7c-4.8 5.1-14.3 7.3-20.8 8.3-20.6 3.2-41.2 6.8-62 8.3-16.5 1.2-33.4 1.4-49.9 0-11-.9-22.8-2.8-32.6-8.3.1 1.1.2 2.3.3 3.4 2.9 1.6 4.5 6.3 1.4 9.3.4 2.4.9 4.9 1.4 7.3.4 0 .7.1 1.1.2 15 3.6 30 7.8 45.3 10.1 15.7 2.4 31.2 2.3 46.9-.2 8.4-1.4 16.8-3.1 25.1-4.9 5.6-1.2 11.3-2.1 16.7-3.9 4.3-1.4 8.6-2.9 12.6-4.9 1.8-.9 3.7-1.9 5.3-3.2.5-.4 1.5-1.9 1.5-1.1-.2-3.9 3-5.9 6-5.7C348.8 231.4 349.8 226.5 349.6 221.7zM352.9 293.9c-.1-4.7-1.8-8.4-3.2-12.8-.5-1.7-1-3.5-1.3-5.3-2.9 11.6-20.3 14.4-30.3 16.3-13.1 2.4-26.7 3.8-40 3.9-17.8.1-35.3 2.9-53.1 1.1-10-1-20.3-3.5-28.8-8.6.6 3.2.9 6.5 1.1 9.7.5.3 1.1.7 1.6 1.2 12.3 13.4 32 13.1 48.8 13.4 20.1.3 41.5 3.9 60.7-3.4 2.4-.9 4.5-.1 5.7 1.4 4.4-2.6 9.1-4.7 14.1-6.6 8.2-3 16.7-5.5 25.2-7.5C353.2 295.9 352.9 295 352.9 293.9z"/><path fill="#FEBF10" d="M345.4 206.3c-.5-1.9-.9-3.8-1.1-5.8-.2-2.3-.3-4.9-.5-7.5-.6.7-1.4 1.4-2.5 1.7-16.3 5.4-33.4 8.5-50.2 11.9-15.8 3.2-31.5 5.4-47.6 5.4-19.5-.1-42.8-.3-60.1-10.8.1 1.2.2 2.4.2 3.7.3.9.3 1.8.1 2.8.1 2.8.1 5.7.2 8.5.1.1.2.1.3.2 9.3 8.3 23.1 10.1 35 11 13 1 26.3 1 39.3.3 18.4-.9 36.7-3.6 54.9-6.4 6.6-1 13.4-1.6 19.9-3.3 2.2-.6 4.7-1.1 6.6-2.3 1.8-1.2 1.9-1.1 1.4-2.4C339.8 209.6 342.4 206.9 345.4 206.3zM335.7 124.8c-12.6 7.5-28 10.6-42.2 13.1-16.8 3-33.9 4.4-51 4.4-20.8 0-44.9-.9-61.8-13.6 1.2 4.8 2 9.7 2.1 14.5.3-.1.7-.2 1.1-.2 11.2-.8 21.5 4.7 32.5 6.1 13.2 1.7 26.5 1.1 39.8.9 13.9-.1 27.6-1 41.4-3.6 6.4-1.2 12.7-2.2 18.8-4.7 5-2 9.9-4.2 15.2-5.5 1.2-.3 2.2-.2 3.2.1 0-.1 0-.2 0-.3C334.5 132.1 335 128.4 335.7 124.8zM246 323.6c-16.2-.3-34.5-.9-48-10.5.1 3.6.3 7.3.8 10.9 1.9-.4 3.9.2 5.2 2.4 7 11.5 25 13.6 37.2 14.9 8.5.9 16.9.6 25.3-1.1 4.3-.9 8.3-1.7 12.6-2.1 2.4-.2 6.1 0 8.2-1.2.9-.5 1.8-.7 2.7-.7.7-1.7 1.6-3.4 2.6-4.9 1.9-2.9 3.9-5.5 6.1-7.9C281.4 326.3 263.3 323.9 246 323.6zM437.2 301.1c-15.8-2.3-32.1-1.7-47.8.5-13.5 1.9-27.1 4.1-40.3 7.6-10.3 2.8-22.1 5.7-31.1 11.7-6.4 4.2-12.8 10-16.5 16.9-1.2 2.2-2.7 5.3-1.9 7.1.7 1.5 5.4 2 7.4 2.1 2.7.1 4.5 1.8 5.3 3.8 2.9-.7 5.8-.8 8.7-.8 1.3 0 2.5.3 3.5 1 29.2-.7 58.1-4.6 87.1-7.7 10.2-1.1 20.5-2.7 30.4-6 7.4-2.4 17.9-6 21.3-13.8C469.8 308.3 447.3 302.6 437.2 301.1zM295 431.5c-25.7 2.8-57.6 6-80.6-6.9 0 .1-.1.2-.1.3-.1.2-.2.5-.4.7 5.5 5.9 12.2 10.7 19.4 14.2 19 9.1 42.2 12.2 62.9 7C294.5 441.6 294.6 436.6 295 431.5zM301.2 357.2c-.3-.1-.7-.1-1-.2.3 1.4.6 2.8 1.1 4.1.7-.2 1.5-.3 2.3-.2C302.3 360 301.5 358.6 301.2 357.2z"/><path fill="#F6851F" d="M465.1,416.3c-0.1-1.5,0-3.2-0.1-4.8c-0.8,1.9-2.4,3.7-4,4.8c-5.7,3.9-11.8,7-18.4,9.2c-9.1,3-18.4,5.5-27.9,6.8c-9.3,1.2-18.5,1.1-27.9,1.7c-17.3,1.1-35.4,0.7-52.6-2c-8.9-1.4-20.3-3.5-27.7-9.8c-0.4,3-0.8,6.1-1.1,9.1c2.1,0.4,4,2,4.4,4.7c1.4,10.6,16.1,13.4,24.7,14.6c13,1.9,26.4,1.6,39.6,0.7c20.2-1.4,39.9-5.3,59.9-8.4c4.9-0.8,9.8-1,14.7-1.6c2.7-0.3,5.4-0.6,8-1.2c1.1-0.3,2.2-0.5,3.2-0.9c0,0,0,0,0.1,0c1.6-2.7,4.7-2.9,7-1.5C467.1,430.6,465.6,423.6,465.1,416.3z"/><path fill="#FEBF10" d="M295.2 401.2c-9.7 1.7-19.4 1.4-29.3 1-9.1-.4-18.2-.1-27.3-.9-14-1.2-27.5-5-38.1-13.9.5 3 .9 5.9 1.3 8.9.2 1.2.3 2.5.5 3.7 1.3.2 2.6.9 3.6 2.3 9.8 14.3 27.3 19 43.8 20.2 15.5 1.1 30.9-.6 46.3-2.2 0-.6 0-1.2.1-1.8C296.1 412.7 295.5 407 295.2 401.2zM454.9 451.6c-6.3 1-12.7 1.3-19 2.2-11 1.5-21.8 4-32.8 5.5-11.3 1.6-22.6 2.8-33.9 3.3-14.3.6-29.3 1-43.3-2.4-4.5-1.1-9-2.6-13-4.7 2.1 3.2 4.4 6.3 7.1 8.9 1.1-.4 2.5-.4 3.8.1 7.9 3 15.4 7.4 23.9 8.3 9.8 1.1 20.4.5 30.2.3 11.5-.2 23.2-1.4 34.7-2.7 11-1.3 22.3-3 32.8-6.9 6-2.2 15.4-6.1 15.5-13.1C458.8 451 456.6 451.3 454.9 451.6zM293.6 372.1c-.7.5-1.7.8-2.8.9-28.9 1.3-70.2 12.5-92.6-11.4-.2 3.5-.3 7.1.1 10.6 1.6-.1 3.3.5 4.6 2.2 9.6 12.1 25.7 15.7 40.5 16.4 8.4.4 16.8.4 25.2.7 8.6.3 17.5.7 25.9-1.2.2 0 .3-.1.5-.1.1-2 .3-4 .7-6.1C296.4 379.9 295.1 375.9 293.6 372.1zM189.3 335.6c-.1-.6-.1-1.1-.2-1.6-.1 0-.2 0-.3 0-4.2.4-8.4 1.8-12.5 2.7-6.9 1.6-13.8 2.4-20.9 3-14 1.2-27.9 1.2-41.9 1.6-17.1.4-40.1 1.6-55.5-8.4.3 3.1.5 6.1.6 9.2 3.2-.1 6.7 2.3 6.2 6.4-.1.6 0 .9.5 1.6.5.6 1.6 1.5 2.7 2.2 3.6 1.9 7.4 3.1 11.4 4 9.9 2.2 20.1 3.1 30.2 3.5 10.1.4 20.2.5 30.3-.4 9.7-.9 19.2-2.8 28.8-3.9 4-.5 8.2-1.4 12.1-1.4.3 0 .7 0 1 0 1.1-1 2.6-1.5 4.6-.9.6.2 1.2.4 1.7.6C189 347.7 189.9 341.6 189.3 335.6zM187.1 364.6c-1.7.4-3.8.3-5.4.3-4.5 0-9.6.9-14 1.7-10.1 1.8-20.4 3.3-30.6 3.9-10.7.7-21.5.5-32.3-.2-11.6-.7-23.4-1.6-34.5-5.3-3.6-1.2-7.3-2.9-10.3-5.1.6 4.5 1.5 8.9 2.8 13.4 9.3 3.8 17.7 8.1 27.8 9.8 10.7 1.8 21.5 2 32.4 1.9 21.9-.1 43.4-4.5 64.8-8.6C187.3 372.5 187.1 368.6 187.1 364.6zM189.3 387.2c-22.9 4.4-45.7 8.8-69.2 8.7-11.1 0-22.5-.2-33.4-2.4-7.3-1.5-13.9-4.1-20.5-6.9.5 2.2.9 4.3 1.3 6.5 1.2 0 2.4.3 3.6 1.2 14.4 11.1 35.7 11.5 53 11.6 11.6.1 23.5.3 35-1.4 10.7-1.6 21.4-4.7 32.3-3.5C190.8 396.4 190 391.8 189.3 387.2z"/><path fill="#FEBF10" d="M288.9 352.9c.1-1.1.4-2.1.9-2.9-.2-.5-.5-1-.7-1.5-.1-.2-.1-.5-.2-.7-2.5.7-5.1.9-7.7 1.2-4.8.5-9.3 1.4-14 2.2-9.9 1.8-19.5 2-29.4.8-12.4-1.5-27.8-4.2-37.6-13 0 2.5-.2 4.9-.5 7.4.8.4 1.5 1 2.1 2 8.8 14.1 25.8 17.3 41.3 17.2 15.7 0 31.1-3 46.7-3.7h0C289.2 359 288.7 356 288.9 352.9zM193.2 410.9c-1 .7-2.3 1.1-3.9 1-12.1-1.3-24.5 3.6-36.5 4.5-11.1.8-22.3.8-33.3.5-16.9-.5-35.4-1.9-50.2-10.6.5 2 1.1 4 2.2 5.7 2.4 3.9 5.8 6.4 9.9 8.4 23 11.3 49.8 15.4 75.2 14.5 9.5-.3 19.2-.9 28.4-3.2 4.9-1.2 10.7-2.9 15-6.1C196.9 421 194.7 416.2 193.2 410.9z"/><path d="M170.6 211.1C171 211.2 171.5 211.3 170.6 211.1L170.6 211.1zM337.8 273.5C337.8 273.5 337.8 273.5 337.8 273.5 337.9 273.5 337.9 273.5 337.8 273.5 337.9 273.5 337.8 273.5 337.8 273.5zM337.8 273.5C337.8 273.5 337.7 273.7 337.8 273.5L337.8 273.5z"/><path d="M476.4,418.9c-0.5-4.4-0.1-9.1-1.2-13.4c-1.2-4.8-3-9.1-3.5-14.1c-0.4-4.2,2.3-9.1,3-13.3c0.8-5.3,0.2-11.2,0.4-16.5c0.3-11.5,0.8-23,0.8-34.6c0-1.6-0.6-2.8-1.4-3.6c0.8-3.6,0.7-7.6-0.5-12c-4.6-16.1-25.8-20.3-40-21.8c-13.2-1.4-26.7-1.2-39.8,0.2c-10.1,1.1-20.3,2.6-30.4,4.6c0.1-0.4,0.1-0.9,0.1-1.4c-0.2-8.7-4.7-16.2-5.2-24.8c-0.5-8.6-1.7-17.9-0.5-26.4c1.1-8,3.2-15.7,2.1-23.9c-0.7-5.2-3.4-9.7-4.5-14.8c-1.1-5.1-1-10.3-1.9-15.4c-1.4-7.6-7.5-13.1-8.9-20.5c-0.9-4.7,0.5-9.8,0.9-14.5c0.5-5.2,0.5-10.3,0-15.5c-0.9-8.8,2.2-16.4,3.6-24.9c1.6-10.1-3.6-19.4-5.6-29.1c-0.2-0.9-0.5-1.7-1-2.3c-0.1-4.7-1.6-9.5-3.8-13.6c-8.4-15.4-30.5-18.9-46.2-20c-17.1-1.1-33.6,2-50.5,4.5c-10.7,1.6-21.4,2.6-32.2,3.5c-8.9,0.8-18.2,2.3-26.2,6.5c-9.8,5.1-18.3,15.9-18.4,27.3c0,0.1,0,0.2,0,0.4c-1.2,0.4-2.3,1.3-3,2.7c-2.9,5.9-1.7,11.6,0.6,17.5c2.9,7.5,5.4,15.2,7.3,23c3.7,15.3-2.2,29.7-1.3,45c0.4,7.1,2.2,14.1,3.1,21.2c0.1,0.5,0.1,0.9,0.1,1.4c-0.2,0-0.4,0-0.5,0c-7.5-0.5-15.1-2.6-22.6-3.3c-14.8-1.3-29.9-1.4-44.7-0.7c-14.6,0.8-29.1,2.9-43.2,6.7c-9.3,2.5-18.6,8.8-24,16.8c-4.6,6.6-5.9,14.2-2.8,21.4c-4.8,9.7-0.4,19.8,3.5,29.6c5.4,13.8,1.2,28.6,6,42.5c5,14.5,3.4,30.4,4.8,45.4c1.4,14.5,7.1,28.2,8.9,42.7c1.3,11,4.7,20.3,14.5,26.4c11.6,7.3,26.1,11.2,39.4,14.2c21.3,4.7,43.8,5.3,65.3,2.4c9.8-1.3,21.7-3.8,30-10.2c0.6,0.6,1.1,1.2,1.7,1.7c22.9,22.4,61.6,29.7,92.5,21.2c3.4,6.2,7.6,12.1,12.7,16.6c1.8,1.6,3.9,1.7,5.5,0.9c8.2,3.2,15.9,7.2,24.7,8.9c5.2,1,10.8,0.6,16,0.6c5.6,0.1,11.3,0.2,16.9,0.1c13.1-0.1,26.4-1.5,39.4-3.1c12.6-1.6,25.5-3.8,37.2-8.9c9.2-4,18.1-10.8,18.4-21.4c2.3-0.2,4.3-1.6,4.9-4.3C478.9,437.2,477.4,428.2,476.4,418.9z M462.4,401.5c0.3,0.9,0.6,1.9,0.9,2.8c-0.4-0.3-0.9-0.5-1.5-0.8c-3.8-1.5-7.1,1.3-7.9,4.3c-0.6,0.4-1.2,0.8-1.8,1.1c-1.7,1-3.4,2.2-5.1,3c-6.9,3.3-14.6,5.3-22,7.2c-15.2,3.9-31.3,3.7-46.9,4.1c-13.8,0.4-28.1-0.1-41.8-2.1c-8.1-1.2-21-2.8-25.4-10.8c-1.1-2-2.8-2.7-4.4-2.6c-0.3-3.1-0.6-6.3-0.8-9.4c0-0.4,0-0.8,0-1.2c7.8,6.3,17.9,8.8,28.3,9.5c17.3,1.1,35,0.5,52.2-0.7c17.4-1.2,33.7-5.4,50.6-9c6.9-1.5,18.1-3.4,24.2-8.9c-0.1,0.4-0.1,0.7-0.2,1.1C460.3,393.3,461.2,397.6,462.4,401.5z M454,380.4c0.8-2.5-0.3-0.5-1.9,0.3c-2.3,1.1-4.8,1.9-7.2,2.7c-4.4,1.4-8.8,2.6-13.3,3.4c-7.6,1.4-14.9,3.9-22.5,5.2c-8.4,1.5-17,2.4-25.5,3c-14.9,1.1-30,1.2-44.9,0.9c-11.5-0.3-23.9-2.3-30.6-12.5c-0.3-0.5-0.7-0.9-1-1.2c0-0.2,0-0.4,0-0.6c0.1-1.4,0-2.8-0.2-4.2c7,3.1,15.8,3,23.1,3.3c8.1,0.3,16.1,1.6,24.2,2c9.8,0.5,19.8-1.2,29.6-2.2c17.8-2,35.6-5.2,52.6-10.8c9.4-3.1,20.7-3.4,28-10.2c-0.1,4.8-0.2,9.7-0.3,14.5c0,1.2-0.1,2.4-0.4,3.6C460.9,375.4,455.4,375.9,454,380.4z M458.4,349c-4.4,8.7-19.6,8.2-27.6,10.8c-15.6,5.1-31.9,7.8-48.1,9.7c-8,0.9-16.1,2-24.1,2.3c-8.1,0.3-16.2-1-24.2-1.8c-8-0.7-22.8,1.6-27.5-6.7c-0.4-0.7-0.8-1.2-1.3-1.6c0.4,0.1,0.8,0.1,1.2,0.1c32.5,0.9,64.8-3,97-7c15.9-2,31.5-3.2,46.7-9c5.2-2,10.1-4.6,14.3-8c-0.1,2.8-0.1,5.5-0.2,8.3C462.3,345.7,459.8,346.4,458.4,349z M352.9,293.9c0,1.1,0.3,2,0.8,2.7c-8.6,2-17.1,4.5-25.2,7.5c-5,1.8-9.7,4-14.1,6.6c-1.3-1.5-3.3-2.3-5.7-1.4c-19.3,7.3-40.7,3.7-60.7,3.4c-16.8-0.3-36.5,0-48.8-13.4c-0.5-0.6-1-0.9-1.6-1.2c-0.2-3.2-0.5-6.5-1.1-9.7c8.5,5.1,18.8,7.6,28.8,8.6c17.8,1.8,35.3-1,53.1-1.1c13.3,0,26.9-1.5,40-3.9c9.9-1.8,27.3-4.7,30.3-16.3c0.3,1.8,0.7,3.5,1.3,5.3C351.1,285.5,352.8,289.2,352.9,293.9z M337.8,273.5c-0.6,0.8-0.5,0.6-1.5,1.3c-1.9,1.4-4.1,2.2-6.3,3c-6.1,2.2-12.6,3.4-19,4.3c-11.2,1.7-22.7,2.8-34.1,2.8c-15.8,0.1-31.4,2.6-47.3,1.4c-14.7-1-30.6-4.8-38.3-18.4c-0.5-2.1-1-4.2-1.5-6.3c15.6,3.8,31.3,7.9,47.3,10c17.6,2.3,34.7,1,52-2.2c14-2.6,28.6-4.9,42-9.8c4.4-1.6,10.9-4,15.6-7.5c0.2,5.1,0.7,10.2,0.9,15.3c0,0.7,0.1,1.4,0.1,2c-2.8-2.9-9.5-1.1-9.8,4.4C337.9,273.6,337.9,273.5,337.8,273.5z M347.9,236.1c-3-0.1-6.2,1.9-6,5.7c0-0.9-1,0.7-1.5,1.1c-1.6,1.3-3.5,2.3-5.3,3.2c-4.1,2-8.3,3.5-12.6,4.9c-5.4,1.8-11.1,2.7-16.7,3.9c-8.3,1.8-16.7,3.5-25.1,4.9c-15.7,2.6-31.1,2.6-46.9,0.2c-15.3-2.3-30.3-6.4-45.3-10.1c-0.4-0.1-0.8-0.1-1.1-0.2c-0.5-2.4-0.9-4.9-1.4-7.3c3.1-3,1.6-7.6-1.4-9.3c-0.1-1.1-0.2-2.3-0.3-3.4c9.8,5.5,21.6,7.3,32.6,8.3c16.5,1.4,33.4,1.2,49.9,0c20.8-1.5,41.4-5.1,62-8.3c6.4-1,16-3.2,20.8-8.3C349.8,226.5,348.8,231.4,347.9,236.1z M343.7,192.9c0.2,2.6,0.3,5.2,0.5,7.5c0.2,2,0.6,3.9,1.1,5.8c-3,0.6-5.6,3.3-4.2,7c0.5,1.3,0.4,1.3-1.4,2.4c-1.9,1.2-4.4,1.8-6.6,2.3c-6.5,1.7-13.3,2.2-19.9,3.3c-18.2,2.9-36.5,5.5-54.9,6.4c-13,0.7-26.3,0.7-39.3-0.3c-11.9-0.9-25.7-2.8-35-11c-0.1-0.1-0.2-0.1-0.3-0.2c0-2.8-0.1-5.7-0.2-8.5c0.2-1,0.2-1.9-0.1-2.8c-0.1-1.2-0.1-2.4-0.2-3.7c17.4,10.5,40.6,10.8,60.1,10.8c16.1,0.1,31.9-2.2,47.6-5.4c16.8-3.4,33.9-6.5,50.2-11.9C342.3,194.3,343.2,193.7,343.7,192.9z M341.2,184.3c-1-0.4-2.3-0.5-3.6,0c-14.7,4.9-30,7.6-45.2,10.8c-15.3,3.3-30.8,5.8-46.4,5.9c-20.8,0.1-47.9,0.8-63.9-14.6c-0.3-0.2-0.5-0.4-0.8-0.6c-0.6-3.4-1.1-6.7-1.3-10.1c8.8,6.9,24.4,7.2,34,7.9c19.1,1.4,38.5,2.6,57.6,2.4c13.9-0.1,27.9-0.7,41.6-2.7c6.5-1,17.6-2.5,23.2-7.8C337.8,178.4,339.6,181.3,341.2,184.3z M334.7,136.1c0,0.1,0,0.2,0,0.3c-0.9-0.3-2-0.4-3.2-0.1c-5.3,1.3-10.2,3.5-15.2,5.5c-6.1,2.4-12.4,3.5-18.8,4.7c-13.7,2.6-27.4,3.4-41.4,3.6c-13.3,0.1-26.6,0.7-39.8-0.9c-10.9-1.4-21.3-6.9-32.5-6.1c-0.4,0-0.8,0.1-1.1,0.2c-0.1-4.9-1-9.7-2.1-14.5c16.9,12.7,41,13.7,61.8,13.6c17.1,0,34.2-1.4,51-4.4c14.3-2.6,29.6-5.6,42.2-13.1C335,128.4,334.5,132.1,334.7,136.1z M335.2,146.6c0,1.3,0,2.5-0.1,3.8c-0.3,3.9-0.9,7.8-1.2,11.7c-2.4,0.3-4.8,2-5,5c-0.1,0.1-0.2,0.2-0.4,0.4c-1.6,1.1-3.3,1.7-5.4,2.3c-5.4,1.7-11.2,2.5-16.8,3.1c-12,1.4-24.1,1.8-36.2,1.9c-6.5,0.1-13-0.4-19.5-0.7c-10.7-0.4-21.4-0.5-32.1-1.4c-6.4-0.5-12.8-0.9-19.1-2c-4.6-0.8-13.1-2-14.7-7.2c-0.6-2-1.9-3-3.3-3.4c0.3-2.2,0.7-4.4,1-6.7c0.7,0.3,1.6,0.5,2.6,0.4c5.4-0.4,10.8,1.3,16,2.8c5.7,1.6,11.3,2.9,17.2,3.5c13.6,1.5,27.4,0.8,41,0.7c13.9-0.1,27.6-1.3,41.3-3.9c6.2-1.2,12.3-2.2,18.2-4.3C324.1,150.7,329.4,148.1,335.2,146.6C335.2,146.7,335.2,146.6,335.2,146.6z M176.4,88.8c0.4-6.6,5.2-12.5,10.4-16.2c9.5-6.7,23.1-6.5,34.2-7.3c15.8-1.1,31.4-4.3,47-6.4c16.9-2.3,36.6-2.1,52.2,5.7c6.3,3.1,12.2,9.1,11.7,16.7c-0.4,7-6.5,11.2-12.4,13.8c-14.4,6.3-31.2,6.8-46.7,6.9c-26.4,0.2-52.4-4.2-78.6-6.2c-0.7-1.9-2.5-3.3-5.2-2.8c-3.4,0.6-7.3,1.4-10.6-0.2C176.9,92.1,176.3,90.6,176.4,88.8z M171.9,101.4c1.7,1,3.5,1.8,5.5,2.3c1,1.3,2.4,2.2,4.4,2.2c16.2,0.6,32.2,2.9,48.3,4.7c14.5,1.6,28.9,2.3,43.5,2.3c16.2-0.1,33.3-1.2,48.5-7.1c5.4-2.1,10.4-5.1,14.3-9.3c1.5,5,2.6,10.1,1.8,15.2c-0.1,0.7-0.2,1.4-0.4,2.1c-1.6-1-3.7-1.2-5.7,0.2c-11.5,7.7-26.3,10.5-39.7,13c-15.5,2.9-31.4,4.1-47.2,4.4c-23.3,0.4-53.7,0.6-67.5-21.9c-1.1-1.7-2.6-2.5-4.1-2.5C173.1,105.2,172.2,103.3,171.9,101.4z M43.5,232c0.9-7.9,9.6-13.9,16.2-16.9c5.8-2.7,12.6-3.8,18.9-5c7.6-1.4,15.3-2.2,23.1-2.8c15-1.1,30.3-0.9,45.3,0.3c7.5,0.6,15,1.7,22.3,3.3c0.6,0.1,1,0.2,1.3,0.3c-0.4-0.1-0.9-0.3,0.1-0.2c0.7,0.1,1.5,0.1,2.2,0.2c0.1,3.8,0.1,7.7,0.2,11.5c0.1,4.9,0.5,9.8,1,14.7c-19.9,11.4-46.3,6.5-68.2,8.5c-13.6,1.3-27.3,3.3-40.9,1.4C57.6,246.3,42.3,242.2,43.5,232z M45.6,260.7c-1.3-3-2.6-6.4-2.7-9.6c6.8,4.6,15.7,6.6,23.2,7.5c14.1,1.6,28.2-0.5,42.2-1.8c13-1.2,26-0.4,39-1.2c9.7-0.6,19.6-2.5,28.4-6.6c1,5.8,2.2,11.6,3.6,17.4c-8.4,1.8-16.3,5.3-24.6,7.6c-12.2,3.5-24.9,3.9-37.5,4c-13,0.1-25.4-2.3-38.2-4.7c-10.3-1.9-22.5-2.8-30.1-11C47.9,261.2,46.8,260.7,45.6,260.7z M51.3,277.5c6.2,3.1,13.4,4.7,20,5.6c13.9,2.1,27.4,5.6,41.6,5.8c13,0.2,26.3-0.1,39.1-3c10.1-2.3,19.7-7.1,29.9-9c0.1,0,0.2,0,0.3-0.1c1,3.8,2.1,7.6,3.1,11.4c0.5,2,0.9,4,1.2,6c-1.1-0.5-2.4-0.5-3.8,0c-15.3,5.7-32.2,5.8-48.3,6.2c-10.2,0.3-20.3,1-30.5,1.3c-10.3,0.3-20.7,0-30.8-2c-6.7-1.3-16.1-3.9-16-11.8c0.1-3.3-2.3-4.9-4.9-4.9C51.9,281.3,51.6,279.4,51.3,277.5z M55.9,317.4c-0.7-3.9-1.7-7.7-3-11.6c-0.3-0.9-0.5-1.8-0.7-2.7c11.3,9.6,34.6,9.7,46.5,9.7c11.1,0,22.1-1,33.1-1.3c18.1-0.5,37.1-0.4,54.3-6.9c0.4-0.1,0.7-0.3,1-0.5c0.1,3,0.1,6,0.2,9c0.1,3.3,0.3,6.6,0.6,9.8h0c-3.7,0.3-7.4,1.5-10.9,2.3c-5.6,1.3-11,2.2-16.7,2.9c-14.4,1.6-28.7,1.6-43.2,2c-10.6,0.3-21.2,0.6-31.8-0.6c-8.9-0.9-20.5-2.7-26.4-10.2C58.1,318.3,57,317.7,55.9,317.4z M58,332.8c15.4,10,38.4,8.8,55.5,8.4c14-0.3,28-0.3,41.9-1.6c7-0.6,14-1.4,20.9-3c4.1-1,8.3-2.3,12.5-2.7c0.1,0,0.2,0,0.3,0c0.1,0.5,0.1,1.1,0.2,1.6c0.6,6-0.3,12.1-1.2,18.1c-0.5-0.2-1.1-0.4-1.7-0.6c-1.9-0.6-3.5-0.1-4.6,0.9c-0.3,0-0.7,0-1,0c-4,0-8.2,1-12.1,1.4c-9.6,1.1-19.2,3-28.8,3.9c-10.1,0.9-20.2,0.8-30.3,0.4c-10.1-0.4-20.3-1.3-30.2-3.5c-4-0.9-7.8-2-11.4-4c-1.2-0.6-2.2-1.5-2.7-2.2c-0.6-0.7-0.6-1-0.5-1.6c0.5-4.1-3-6.6-6.2-6.4C58.4,339,58.2,335.9,58,332.8z M60,359.9c3,2.3,6.7,3.9,10.3,5.1c11,3.7,22.9,4.6,34.5,5.3c10.7,0.6,21.5,0.8,32.3,0.2c10.2-0.7,20.5-2.1,30.6-3.9c4.4-0.8,9.5-1.6,14-1.7c1.6,0,3.7,0.1,5.4-0.3c-0.1,3.9,0.2,7.9,0.6,11.8c-21.4,4.1-42.9,8.4-64.8,8.6c-10.8,0.1-21.7-0.1-32.4-1.9c-10.1-1.7-18.5-6-27.8-9.8C61.6,368.9,60.6,364.4,60,359.9z M66.2,386.6c6.6,2.8,13.2,5.4,20.5,6.9c11,2.2,22.3,2.4,33.4,2.4c23.5,0.1,46.2-4.3,69.2-8.7c0.7,4.6,1.5,9.2,2.1,13.8c-10.9-1.2-21.6,2-32.3,3.5c-11.5,1.7-23.4,1.5-35,1.4c-17.3-0.1-38.7-0.6-53-11.6c-1.2-0.9-2.4-1.2-3.6-1.2C67.1,391,66.7,388.8,66.2,386.6z M184.9,431.6c-9.2,2.3-19,2.9-28.4,3.2c-25.5,0.9-52.2-3.2-75.2-14.5c-4.1-2-7.5-4.5-9.9-8.4c-1.1-1.7-1.7-3.7-2.2-5.7c14.9,8.7,33.3,10.1,50.2,10.6c11.1,0.3,22.3,0.3,33.3-0.5c12-0.9,24.5-5.8,36.5-4.5c1.6,0.2,2.9-0.2,3.9-1c1.5,5.3,3.7,10.1,6.7,14.6C195.7,428.7,189.9,430.4,184.9,431.6z M290,362L290,362c-15.6,0.7-31,3.6-46.7,3.7c-15.5,0-32.5-3.1-41.3-17.2c-0.6-1-1.3-1.6-2.1-2c0.2-2.5,0.4-4.9,0.5-7.4c9.8,8.8,25.2,11.5,37.6,13c9.9,1.2,19.5,1,29.4-0.8c4.7-0.9,9.2-1.8,14-2.2c2.6-0.3,5.2-0.5,7.7-1.2c0.1,0.2,0.1,0.5,0.2,0.7c0.2,0.5,0.4,1,0.7,1.5c-0.5,0.8-0.9,1.8-0.9,2.9C288.7,356,289.2,359,290,362z M290.8,373c1.1-0.1,2.1-0.4,2.8-0.9c1.5,3.9,2.8,7.8,2.1,12.1c-0.3,2-0.6,4.1-0.7,6.1c-0.2,0-0.3,0-0.5,0.1c-8.5,1.8-17.3,1.5-25.9,1.2c-8.4-0.3-16.8-0.3-25.2-0.7c-14.7-0.7-30.9-4.3-40.5-16.4c-1.3-1.6-3-2.2-4.6-2.2c-0.4-3.6-0.3-7.1-0.1-10.6C220.6,385.4,261.9,374.2,290.8,373z M205.9,402.4c-1-1.4-2.3-2.1-3.6-2.3c-0.1-1.2-0.3-2.5-0.5-3.7c-0.4-3-0.9-5.9-1.3-8.9c10.5,8.9,24.1,12.7,38.1,13.9c9.1,0.8,18.2,0.5,27.3,0.9c9.9,0.4,19.6,0.6,29.3-1c0.4,5.7,0.9,11.5,0.8,17.3c0,0.6,0,1.2-0.1,1.8c-15.4,1.7-30.8,3.4-46.3,2.2C233.2,421.3,215.8,416.7,205.9,402.4z M233.3,439.8c-7.2-3.4-13.9-8.3-19.4-14.2c0.1-0.2,0.3-0.5,0.4-0.7c0.1-0.1,0.1-0.2,0.1-0.3c23,12.9,54.9,9.7,80.6,6.9c-0.4,5.1-0.5,10.2,1.2,15.4C275.5,452,252.3,448.9,233.3,439.8z M292.6,331.2c-1,1.5-1.9,3.2-2.6,4.9c-0.9,0-1.8,0.2-2.7,0.7c-2.2,1.2-5.8,1-8.2,1.2c-4.3,0.4-8.4,1.2-12.6,2.1c-8.4,1.7-16.8,2-25.3,1.1c-12.2-1.3-30.1-3.4-37.2-14.9c-1.3-2.2-3.3-2.8-5.2-2.4c-0.4-3.6-0.6-7.3-0.8-10.9c13.5,9.6,31.8,10.3,48,10.5c17.3,0.3,35.4,2.6,52.6-0.3C296.5,325.7,294.4,328.3,292.6,331.2z M299.5,344.8c-0.8-1.8,0.7-4.9,1.9-7.1c3.7-6.8,10.1-12.6,16.5-16.9c9-5.9,20.8-8.9,31.1-11.7c13.2-3.5,26.7-5.8,40.3-7.6c15.8-2.2,32.1-2.8,47.8-0.5c10.2,1.5,32.6,7.2,26,22.4c-3.4,7.8-13.9,11.4-21.3,13.8c-9.8,3.2-20.1,4.9-30.4,6c-29,3.1-58,7-87.1,7.7c-1-0.6-2.2-1-3.5-1c-3,0-5.9,0.2-8.7,0.8c-0.8-2-2.6-3.7-5.3-3.8C305,346.9,300.2,346.4,299.5,344.8z M301.3,361.1c-0.4-1.4-0.8-2.7-1.1-4.1c0.3,0.1,0.6,0.1,1,0.2c0.3,1.4,1.1,2.8,2.4,3.7C302.8,360.8,302,360.9,301.3,361.1z M445.4,463.6c-10.5,3.9-21.7,5.6-32.8,6.9c-11.5,1.4-23.2,2.5-34.7,2.7c-9.9,0.2-20.4,0.8-30.2-0.3c-8.5-0.9-16-5.3-23.9-8.3c-1.4-0.5-2.7-0.5-3.8-0.1c-2.7-2.5-5-5.6-7.1-8.9c4,2.1,8.5,3.6,13,4.7c14,3.3,29,3,43.3,2.4c11.4-0.5,22.7-1.7,33.9-3.3c11-1.5,21.8-4,32.8-5.5c6.3-0.9,12.7-1.2,19-2.2c1.7-0.3,3.9-0.6,6-1.1C460.8,457.4,451.4,461.4,445.4,463.6z M466.8,437.8c-2.3-1.4-5.4-1.3-7,1.5c0,0,0,0-0.1,0c-1,0.4-2.1,0.6-3.2,0.9c-2.6,0.6-5.3,0.9-8,1.2c-4.9,0.6-9.8,0.8-14.7,1.6c-20,3.1-39.6,7-59.9,8.4c-13.1,0.9-26.5,1.2-39.6-0.7c-8.6-1.2-23.3-4-24.7-14.6c-0.4-2.7-2.3-4.3-4.4-4.7c0.2-3,0.7-6.1,1.1-9.1c7.3,6.3,18.8,8.4,27.7,9.8c17.1,2.7,35.3,3,52.6,2c9.3-0.6,18.6-0.4,27.9-1.7c9.5-1.3,18.8-3.8,27.9-6.8c6.6-2.1,12.7-5.3,18.4-9.2c1.7-1.1,3.2-2.9,4-4.8c0.1,1.6,0,3.2,0.1,4.8C465.6,423.6,467.1,430.6,466.8,437.8z"/></svg>