<svg xmlns="http://www.w3.org/2000/svg" viewBox="0 0 48 48" width="48px" height="48px"><path fill="#2b8c5e" d="M43.503,30.401c0.614,0.01,1.225,0.02,1.815,0.038c0.376-6.47,0.322-12.711,0.12-19.189 c-0.003-0.092-0.055-0.653-0.14-0.688c-8.305,0.172-17.283,0.39-25.588,0.562c-5.841,0.121-11.366,0.47-17.147,0.454 c-0.596,5.993-0.777,12.6-0.108,18.586c0.022,0.198,0.055,0.416,0.208,0.545c0.113,0.095,0.268,0.119,0.414,0.137 c0.682,0.083,1.366,0.104,2.051,0.094c9.275,1.271,19.152,2.374,28.397,3.255c3.333,0.318,6.666,0.636,9.998,0.954 c-0.009-0.145-0.214-1.266-0.159-2.143C43.407,32.321,43.471,31.277,43.503,30.401z"/><path fill="#f58420" d="M17.179,35.885c-0.318-0.89-0.964-1.665-1.766-2.156c0.126-1.233-0.328-2.555-1.211-3.228 c0,0-1.251-0.794-2.143-0.918c-1.252-0.173-2.54,0.28-3.572,1.137c-0.233,0.194-0.459,0.414-0.608,0.701 c-0.167,0.323-0.224,0.706-0.271,1.08c-0.12,0.971-0.178,2.005,0.175,2.893c0.332,0.833,0.983,1.401,1.722,1.736 c0.09,2.048,1.309,3.675,2.466,4.121c0.538,0.207,1.114,0.281,1.684,0.296c0.574,0.015,1.163-0.032,1.677-0.274 c0.515-0.242,0.924-0.666,1.245-1.136C17.406,38.924,17.685,37.303,17.179,35.885z"/><path fill="#71c598" d="M42.745,16.447c-0.06,2.546-0.121,5.091-0.181,7.637c-0.007,0.297-0.017,0.604-0.147,0.871 c-0.119,0.244-0.285,0.498-0.532,0.61c-1.167,0.529-1.651,1.398-2.865,1.811c-1.594,0.016-2.88,0.237-4.28,0.108 c-6.097-0.559-12.435-0.359-18.555-0.178c-2.691,0.079-5.217,0.039-7.811,0.195c-0.951-0.266-1.973-1.464-2.82-2.006 c0.651-1.718,0.255-6.066,0.019-7.888c1.2-1.188,1.864-1.804,2.989-2.96c10.196-0.748,19.42-0.845,29.643-0.903 C39.181,15.17,41.053,16.096,42.745,16.447z M24.92,16.685c-0.989-0.311-1.63-0.107-2.642,0.021 c-1.013,0.128-2.025,0.828-2.485,2.01c-0.653,1.678,0.037,3.873,1.263,4.868c1.226,0.994,2.813,0.965,4.189,0.391 c0.78-0.325,1.575-0.887,1.902-1.864c0.365-1.092,0.61-2.622-0.072-3.417C26.394,17.898,25.809,16.964,24.92,16.685z M34.207,18.668c-0.753,0.332-1.511,0.939-1.626,1.822c-0.115,0.877,0.517,1.747,1.3,1.956c0.783,0.209,1.634-0.165,2.184-0.813 c0.167-0.197,0.314-0.424,0.382-0.684c0.134-0.512-0.08-1.103-0.239-1.607C35.936,18.486,34.715,18.443,34.207,18.668z M14.181,19.352c-0.498-0.575-0.864-0.787-1.587-0.798c-0.392-0.006-0.796,0.021-1.152,0.202c-0.833,0.421-1.165,1.683-0.737,2.573 c0.427,0.89,1.479,1.314,2.36,1.033c0.582-0.186,1.099-0.667,1.286-1.3C14.537,20.428,14.599,19.835,14.181,19.352z"/><path fill="#010101" d="M35.667,28.023c-0.32,0-0.642-0.012-0.973-0.042c-5.955-0.547-12.159-0.364-18.158-0.186 l-0.336,0.01c-1.013,0.029-2.002,0.042-2.98,0.055c-1.649,0.021-3.207,0.042-4.815,0.139c-0.058,0.006-0.111-0.002-0.165-0.018 c-0.708-0.198-1.374-0.771-2.018-1.323c-0.337-0.289-0.655-0.563-0.937-0.743c-0.199-0.127-0.282-0.377-0.198-0.598 c0.577-1.523,0.266-5.524-0.009-7.647c-0.02-0.155,0.034-0.311,0.145-0.42c0.417-0.413,0.77-0.757,1.1-1.079 c0.616-0.601,1.151-1.123,1.882-1.874c0.085-0.088,0.2-0.141,0.322-0.15c10.072-0.738,19.022-0.843,29.677-0.903 c0.001,0,0.002,0,0.003,0c0.165,0,0.32,0.081,0.413,0.218c0.951,1.391,2.808,2.202,4.229,2.497c0.236,0.049,0.404,0.26,0.398,0.501 l-0.181,7.637c-0.007,0.314-0.017,0.707-0.197,1.077c-0.209,0.428-0.462,0.705-0.775,0.847c-0.479,0.218-0.833,0.502-1.208,0.803 c-0.474,0.381-0.964,0.775-1.703,1.026c-0.05,0.017-0.103,0.025-0.156,0.026c-0.607,0.006-1.168,0.042-1.709,0.077 C36.757,27.988,36.216,28.023,35.667,28.023z M25.62,26.617c3.075,0,6.148,0.091,9.167,0.368c0.82,0.075,1.62,0.023,2.466-0.031 c0.533-0.034,1.085-0.069,1.68-0.078c0.532-0.195,0.901-0.491,1.326-0.833c0.406-0.326,0.827-0.664,1.421-0.934 c0.063-0.028,0.164-0.116,0.29-0.375c0.084-0.174,0.09-0.422,0.096-0.662l0.171-7.229c-1.805-0.456-3.367-1.403-4.284-2.599 c-10.456,0.061-19.281,0.168-29.164,0.886c-0.671,0.688-1.184,1.188-1.768,1.757c-0.281,0.274-0.579,0.565-0.92,0.901 c0.141,1.166,0.593,5.4,0.041,7.507c0.238,0.18,0.48,0.388,0.732,0.604c0.509,0.438,1.083,0.93,1.563,1.096 c1.599-0.094,3.141-0.113,4.771-0.135c0.973-0.012,1.957-0.024,2.964-0.055l0.335-0.01C19.511,26.707,22.566,26.617,25.62,26.617z"/><path fill="#010101" d="M23.353,24.878c-0.97,0-1.871-0.306-2.612-0.906c-1.479-1.199-2.114-3.639-1.414-5.438 c0.494-1.271,1.601-2.162,2.888-2.324c0.187-0.023,0.361-0.05,0.527-0.075c0.759-0.115,1.416-0.214,2.328,0.073c0,0,0,0,0,0 c0.855,0.27,1.433,0.987,1.992,1.683c0.129,0.16,0.259,0.321,0.392,0.478c0.954,1.112,0.434,3.099,0.166,3.9 c-0.319,0.955-1.074,1.705-2.184,2.168C24.729,24.731,24.024,24.878,23.353,24.878z M23.884,17.021 c-0.309,0-0.617,0.047-0.992,0.104c-0.173,0.025-0.356,0.054-0.552,0.078c-0.922,0.116-1.72,0.766-2.081,1.695 c-0.592,1.521,0.111,3.485,1.112,4.297c0.958,0.779,2.3,0.896,3.681,0.318c0.847-0.353,1.392-0.878,1.62-1.561 c0.344-1.03,0.53-2.342,0.023-2.934c-0.14-0.163-0.276-0.333-0.412-0.501c-0.487-0.605-0.947-1.178-1.514-1.356 C24.441,17.059,24.163,17.021,23.884,17.021z"/><path fill="#010101" d="M34.326,23.003c-0.194,0-0.387-0.024-0.574-0.074c-1.062-0.284-1.81-1.407-1.667-2.504 c0.121-0.923,0.821-1.729,1.92-2.214l0,0l0,0h0c0.435-0.192,1.198-0.241,1.813,0.037c0.433,0.195,0.732,0.521,0.865,0.943 l0.038,0.117c0.165,0.515,0.37,1.154,0.208,1.767c-0.079,0.302-0.238,0.59-0.484,0.88C35.879,22.624,35.091,23.003,34.326,23.003z M34.854,19.053c-0.184,0-0.349,0.03-0.444,0.072h0c-0.365,0.161-1.227,0.623-1.333,1.43c-0.078,0.596,0.358,1.254,0.934,1.407 c0.546,0.151,1.219-0.115,1.673-0.653c0.147-0.174,0.239-0.333,0.28-0.487c0.086-0.331-0.063-0.797-0.194-1.208l-0.039-0.121 c-0.046-0.146-0.152-0.256-0.324-0.333C35.236,19.082,35.036,19.053,34.854,19.053z"/><path fill="#010101" d="M12.507,22.947c-0.929,0-1.838-0.537-2.253-1.402c-0.556-1.157-0.097-2.699,0.962-3.236 c0.468-0.236,0.967-0.252,1.385-0.255c0.948,0.016,1.436,0.368,1.958,0.972l0,0c0.604,0.697,0.462,1.53,0.271,2.178 c-0.225,0.762-0.843,1.388-1.613,1.635C12.984,22.911,12.745,22.947,12.507,22.947z M12.499,19.053 c-0.278,0-0.584,0.023-0.832,0.148c-0.569,0.288-0.828,1.253-0.512,1.91c0.306,0.637,1.095,0.983,1.757,0.773 c0.452-0.145,0.828-0.523,0.958-0.965c0.184-0.624,0.165-0.972-0.068-1.24c0,0,0,0,0,0c-0.427-0.494-0.666-0.617-1.217-0.626 C12.557,19.053,12.528,19.053,12.499,19.053z"/><path fill="#010101" d="M45.94,11.23c-0.03-0.95-0.32-1.08-0.45-1.13c-0.06-0.03-0.13-0.04-0.2-0.04 c-4.09,0.09-8.34,0.18-12.59,0.28c-4.39,0.1-8.78,0.2-13,0.28c-2.28,0.05-4.52,0.13-6.74,0.21c-3.38,0.13-6.89,0.24-10.4,0.25 c-0.21,0.02-0.47,0.19-0.5,0.45c-0.47,4.74-0.87,11.83-0.1,18.69c0.02,0.21,0.06,0.61,0.38,0.87c0.23,0.2,0.51,0.23,0.68,0.25 c0.32,0.04,0.64,0.07,0.97,0.08c0.03,0.02,0.05,0.03,0.08,0.03c1.046,0.147,2.087,0.283,3.137,0.415 c-0.041,0.193-0.071,0.387-0.095,0.576c-0.123,0.988-0.193,2.134,0.207,3.139c0.321,0.806,0.932,1.457,1.722,1.882 c0.054,1.876,1.202,3.66,2.749,4.259c0.53,0.2,1.14,0.31,1.85,0.33h0.2c0.69,0,1.24-0.1,1.71-0.32c0.54-0.26,1.02-0.7,1.44-1.31 c0.95-1.39,1.2-3.19,0.66-4.7c-0.326-0.912-0.955-1.689-1.722-2.24c0.007-0.19,0.002-0.379-0.014-0.566 c5.901,0.664,11.791,1.223,17.566,1.777l10,0.96h0.04c0.13,0,0.26-0.05,0.35-0.14c0.11-0.11,0.16-0.25,0.15-0.39 c0-0.04-0.01-0.12-0.03-0.24c-0.05-0.36-0.17-1.19-0.13-1.84c0.06-0.95,0.07-1.09,0.07-2.04c0-0.03,0-0.06-0.01-0.09 c0.47,0,0.93,0.02,1.38,0.03c0.24-0.02,0.5-0.2,0.52-0.47C46.15,24.8,46.18,19.05,45.94,11.23z M8.248,35.21 c-0.316-0.796-0.25-1.784-0.144-2.646c0.042-0.339,0.09-0.664,0.219-0.912c0.116-0.224,0.309-0.401,0.483-0.546 c0.825-0.686,1.796-1.059,2.725-1.059c0.154,0,0.308,0.011,0.459,0.031c1.126,0.156,2.171,0.927,2.729,2.011 c0.004,0.007,0.008,0.015,0.012,0.021c0.178,0.499,0.249,1.068,0.182,1.624c-0.125,1.053-0.726,2.067-1.566,2.647 c-0.767,0.529-1.74,0.733-2.736,0.57C9.494,36.771,8.61,36.119,8.248,35.21z M16.17,39.85c-0.32,0.47-0.67,0.79-1.05,0.97 c-0.37,0.17-0.83,0.24-1.45,0.23c-0.6-0.02-1.1-0.1-1.52-0.27c-1.053-0.405-1.882-1.614-2.067-2.923 c0.121,0.03,0.242,0.061,0.368,0.082c0.278,0.046,0.555,0.067,0.828,0.067c0.958,0,1.873-0.274,2.636-0.801 c0.88-0.608,1.518-1.553,1.82-2.606c0.43,0.397,0.775,0.896,0.975,1.451C17.14,37.27,16.93,38.73,16.17,39.85z M42.94,34.59 l-9.37-0.89c-5.872-0.563-11.867-1.139-17.866-1.812c-0.137-0.419-0.331-0.807-0.577-1.141c3.77-0.107,7.551-0.001,11.243,0.113 c2.93,0.08,6.26,0.06,9.47,0.04c2.38-0.02,4.82-0.04,7.1-0.01c-0.01,0.03-0.01,0.07-0.01,0.11c0,0.92-0.01,1.06-0.06,1.97 C42.83,33.52,42.89,34.13,42.94,34.59z M44.85,29.93c-2.83-0.08-5.97-0.05-9.02-0.03c-3.2,0.02-6.52,0.04-9.43-0.04 c-4.078-0.13-8.267-0.238-12.449-0.072c-0.551-0.362-1.169-0.609-1.823-0.7c-1.278-0.18-2.642,0.233-3.785,1.116 c-1.728,0.187-3.5,0.353-5.203,0.146c-0.03-0.01-0.1-0.01-0.13-0.01c-0.01,0-0.01,0-0.01,0c-0.02-0.03-0.03-0.1-0.05-0.23 c-0.73-6.56-0.38-13.35,0.07-18.03c3.38,0,6.73-0.13,9.98-0.25c2.21-0.08,4.44-0.16,6.72-0.21c4.22-0.08,8.61-0.18,13-0.28 c4.12-0.09,8.23-0.19,12.2-0.27c0.01,0.08,0.02,0.15,0.02,0.2C45.17,18.83,45.15,24.45,44.85,29.93z"/></svg>