<svg xmlns="http://www.w3.org/2000/svg" viewBox="0 0 48 48" width="48px" height="48px"><path fill="#373837" d="M43.821,39.547c-0.019-0.463-0.089-0.994-0.475-1.25c-0.242-0.16-0.55-0.17-0.84-0.174 c-1.14-0.016-2.888-0.149-4.027-0.165L9.427,37.801c-1.405-0.313-2.861-0.398-4.294-0.25c-0.481,0.05-0.985,0.136-1.359,0.442 c-0.606,0.495-0.677,1.38-0.692,2.162c-0.012,0.627-0.009,1.292,0.316,1.829c0.516,0.851,1.634,1.074,2.624,1.174 c1.957,0.197,3.864,0.458,5.831,0.467c8.376,0.039,16.831-0.784,25.19-0.247c1.869,0.12,3.767,0.32,5.598-0.071 c0.299-0.064,0.611-0.153,0.822-0.374c0.26-0.273,0.307-0.68,0.33-1.056C43.844,41.101,43.853,40.324,43.821,39.547z"/><path fill="#d6e5e5" d="M39.5,5.609c-0.842,1.071-1.815,2.558-2.656,3.628c-0.804-0.811-1.396-1.83-1.703-2.929 c-1.178,0.758-2.207,1.746-3.01,2.893c-1.236-1.104-2.498-1.869-3.943-2.681c-1.109,0.92-2.312,1.635-3.42,2.555 c-1.32-0.844-2.641-1.689-3.961-2.533c-1.377,0.681-2.753,1.361-4.13,2.042c-0.445,0.22-0.914,0.446-1.411,0.427 c-0.548-0.02-1.036-0.333-1.493-0.635c-0.989-0.654-2.04-1.016-3.029-1.67c0.93,6.909,1.165,16.195,0.827,23.158 c-0.056,1.161-0.131,2.329-0.407,3.459c-0.21,0.862-0.534,1.691-0.8,2.537c-0.754,2.405-1.03,4.959-0.807,7.47h28.151 c0.349-2.883,0.7-6.178,0.964-9.07c0.131-1.433,0.262-2.866,0.393-4.299C39.732,22.661,40.529,12.866,39.5,5.609z"/><path fill="#010101" d="M43.624,37.882c-0.37-0.246-0.798-0.254-1.111-0.259c-0.596-0.004-1.374,0.09-2.119,0.185 c-0.548,0.07-1.111,0.135-1.583,0.162c0.13-1.251,0.254-2.494,0.361-3.664l0.393-4.3c0.128-1.406,0.295-2.876,0.468-4.391 c0.721-6.349,1.539-13.545-0.045-20.123c-0.045-0.187-0.192-0.33-0.38-0.371C39.42,5.078,39.226,5.15,39.107,5.3 c-0.426,0.542-0.885,1.188-1.344,1.834c-0.323,0.456-0.646,0.912-0.957,1.329c-0.562-0.65-0.896-1.275-1.114-2.057 c-0.042-0.152-0.155-0.276-0.304-0.333c-0.149-0.055-0.313-0.037-0.448,0.047c-1.059,0.682-2.076,1.379-2.886,2.356 c-1.209-1.007-2.448-1.732-3.622-2.392c-0.183-0.103-0.406-0.082-0.564,0.051c-0.54,0.448-1.121,0.859-1.683,1.257 c-0.479,0.339-0.973,0.688-1.452,1.067l-3.657-2.339c-0.147-0.095-0.334-0.104-0.491-0.027l-4.131,2.042 c-0.369,0.183-0.779,0.425-1.171,0.375c-0.393-0.014-0.775-0.247-1.235-0.552c-0.516-0.342-1.089-0.639-1.643-0.926 c-0.53-0.275-1.079-0.561-1.552-0.872c-0.162-0.11-0.376-0.111-0.541-0.007c-0.166,0.104-0.256,0.296-0.229,0.49 c0.93,6.909,1.327,16.23,0.989,23.195c-0.057,1.153-0.129,2.278-0.394,3.365c-0.134,0.548-0.313,1.077-0.504,1.637 c-0.099,0.289-0.196,0.577-0.288,0.868c-0.164,0.521-0.294,1.056-0.413,1.592c-1.442-0.314-2.917-0.399-4.392-0.249 c-0.563,0.059-1.149,0.165-1.623,0.553c-0.839,0.686-0.863,1.892-0.876,2.54c-0.011,0.597-0.026,1.413,0.389,2.098 c0.637,1.048,1.939,1.305,3.003,1.411l1.25,0.132c1.503,0.163,3.058,0.331,4.629,0.338c0.193,0.001,0.387,0.001,0.581,0.001 c3.071,0,6.188-0.109,9.208-0.215c5.054-0.178,10.279-0.362,15.371-0.034l0.657,0.044c1.667,0.116,3.392,0.234,5.076-0.125 c0.364-0.077,0.776-0.199,1.088-0.526c0.303-0.315,1.01-1.054,1.01-2.821C44.844,39.166,44.095,38.193,43.624,37.882z M6.073,42.661c-0.832-0.084-1.841-0.267-2.247-0.937c-0.245-0.403-0.256-0.944-0.244-1.559c0.014-0.674,0.064-1.423,0.509-1.786 c0.27-0.22,0.685-0.289,1.093-0.332c1.379-0.139,2.759-0.062,4.107,0.237c-0.264,1.546-0.352,3.123-0.247,4.678 c-0.566-0.053-1.13-0.107-1.713-0.17L6.073,42.661z M21.606,42.911c-3.201,0.113-6.502,0.233-9.75,0.214 c-0.611-0.003-1.21-0.043-1.81-0.085c-0.178-2.355,0.089-4.781,0.795-7.031c0.09-0.282,0.185-0.563,0.28-0.845 c0.189-0.557,0.385-1.132,0.528-1.723c0.286-1.173,0.362-2.35,0.421-3.553c0.324-6.683-0.022-15.518-0.865-22.358 c0.246,0.134,0.495,0.264,0.74,0.391c0.53,0.275,1.079,0.561,1.551,0.872c0.441,0.292,1.046,0.692,1.751,0.718 c0.632,0.039,1.197-0.255,1.65-0.479l3.878-1.917l3.723,2.381C24.682,9.612,24.92,9.6,25.087,9.46 c0.538-0.446,1.117-0.855,1.676-1.251c0.487-0.345,0.988-0.699,1.476-1.086c1.394,0.793,2.494,1.5,3.559,2.451 c0.105,0.094,0.239,0.134,0.391,0.124c0.142-0.017,0.27-0.093,0.352-0.21c0.632-0.9,1.46-1.545,2.403-2.174 c0.322,0.822,0.808,1.529,1.546,2.275c0.102,0.102,0.251,0.156,0.384,0.146c0.144-0.008,0.276-0.077,0.364-0.189 c0.426-0.542,0.885-1.188,1.344-1.834c0.223-0.315,0.446-0.63,0.666-0.933c1.223,6.125,0.465,12.798-0.209,18.723 c-0.173,1.521-0.341,2.998-0.47,4.411l-0.393,4.3c-0.252,2.761-0.586,5.896-0.919,8.677l-0.179-0.012 C31.936,42.55,26.685,42.733,21.606,42.911z M43.103,42.588c-0.115,0.121-0.339,0.182-0.564,0.229 c-1.383,0.296-2.847,0.234-4.283,0.139c0.154-1.282,0.307-2.629,0.452-3.989c0.559-0.021,1.181-0.086,1.813-0.168 c0.711-0.091,1.459-0.175,1.978-0.177c0.21,0.004,0.447,0.008,0.573,0.092c0.27,0.179,0.773,0.87,0.773,1.733 C43.844,41.814,43.35,42.33,43.103,42.588z"/><path fill="#010101" d="M21.026,16.164c-2.036,0-4.067-0.149-6.054-0.296c-0.275-0.021-0.481-0.261-0.462-0.536 c0.021-0.276,0.265-0.492,0.536-0.462c2.986,0.221,6.073,0.449,9.089,0.152c0.818-0.08,1.632-0.198,2.446-0.317 c0.461-0.067,0.922-0.135,1.385-0.195c2.668-0.349,5.387-0.475,8.078-0.378c0.275,0.011,0.491,0.242,0.481,0.519 c-0.01,0.275-0.201,0.462-0.519,0.481c-2.633-0.097-5.299,0.028-7.912,0.37c-0.457,0.06-0.913,0.126-1.369,0.192 c-0.83,0.121-1.659,0.242-2.493,0.324C23.167,16.123,22.096,16.164,21.026,16.164z"/><path fill="#010101" d="M17.807,18.869c-0.795,0-1.598-0.015-2.41-0.048c-0.276-0.012-0.49-0.245-0.479-0.521 c0.012-0.276,0.24-0.495,0.521-0.479c4.908,0.205,9.3-0.253,13.948-0.735c0.269-0.029,0.521,0.17,0.549,0.445 c0.028,0.274-0.171,0.521-0.445,0.549C25.74,18.47,21.884,18.869,17.807,18.869z"/><path fill="#010101" d="M15.92,22.076c-0.087,0-0.173-0.001-0.259-0.002c-0.276-0.004-0.497-0.23-0.494-0.506 c0.004-0.274,0.227-0.494,0.5-0.494c0.072,0,0.168,0.002,0.252,0.002c0.925,0,1.903-0.062,2.852-0.121 c1.051-0.067,2.138-0.139,3.172-0.122c0.158,0.003,0.394,0.006,0.618,0.146c0.233,0.146,0.305,0.455,0.158,0.689 s-0.454,0.306-0.689,0.158c0.006,0.007-0.063,0.006-0.101,0.006c-0.996-0.013-2.062,0.055-3.096,0.119 C17.869,22.014,16.875,22.076,15.92,22.076z"/><path fill="#010101" d="M15.75,28.091c-0.276,0-0.5-0.224-0.5-0.5c0-0.275,0.224-0.5,0.5-0.5l11.416-0.01 c0.001,0,0.001,0,0.001,0c0.276,0,0.5,0.224,0.5,0.499c0,0.276-0.224,0.501-0.499,0.501L15.75,28.091L15.75,28.091z"/><path fill="#010101" d="M21.106,31.387c-1.356,0-2.696-0.086-4.005-0.169c-0.457-0.029-0.917-0.059-1.38-0.085 c-0.275-0.016-0.486-0.251-0.471-0.527c0.016-0.274,0.23-0.501,0.527-0.471c0.465,0.026,0.927,0.056,1.388,0.085 c1.849,0.117,3.596,0.227,5.412,0.128l3.556-0.199c0.308-0.013,0.513,0.196,0.527,0.471c0.016,0.276-0.195,0.512-0.471,0.527 l-3.556,0.199C22.124,31.374,21.614,31.387,21.106,31.387z"/><path fill="#010101" d="M24.897,34.627c-1.475,0-2.875-0.132-4.237-0.261c-1.594-0.151-3.239-0.31-4.975-0.241 c-0.275-0.006-0.507-0.206-0.519-0.481c-0.01-0.275,0.205-0.508,0.481-0.519c1.792-0.066,3.479,0.091,5.106,0.245 c1.593,0.151,3.236,0.309,4.975,0.241c0.276,0.007,0.508,0.207,0.519,0.481c0.01,0.275-0.205,0.508-0.481,0.519 C25.475,34.622,25.185,34.627,24.897,34.627z"/><path fill="#010101" d="M34.006,25.016c-0.051-0.003-0.096,0.008-0.147,0.007c0.036-0.439,0.069-0.892,0.108-1.322 c0.024-0.275-0.178-0.518-0.453-0.543c-0.274-0.026-0.519,0.178-0.543,0.453c-0.045,0.497-0.083,1.019-0.125,1.529 c-0.674,0.167-1.249,0.503-1.663,1.028c-0.336,0.425-0.57,0.97-0.698,1.617c-0.133,0.67-0.097,1.225,0.11,1.695 c0.283,0.643,0.888,1.119,1.818,1.464c-0.101,1.431-0.207,2.842-0.32,4.226c-0.158-0.027-0.312-0.065-0.457-0.121 c-0.665-0.259-1.151-0.874-1.184-1.496c-0.014-0.276-0.225-0.496-0.524-0.474c-0.275,0.014-0.488,0.249-0.474,0.524 c0.052,1.02,0.783,1.975,1.819,2.377c0.235,0.091,0.483,0.147,0.738,0.184c-0.016,0.179-0.028,0.368-0.044,0.545 c-0.024,0.275,0.178,0.519,0.453,0.543c0.016,0.001,0.03,0.002,0.046,0.002c0.256,0,0.474-0.195,0.497-0.455 c0.019-0.206,0.034-0.426,0.052-0.634c0.382-0.044,0.768-0.122,1.153-0.274c0.315-0.124,0.577-0.262,0.8-0.423 c0.695-0.502,1.141-1.347,1.162-2.203c0.022-0.855-0.379-1.722-1.047-2.26c-0.491-0.395-1.059-0.587-1.618-0.76 c0-0.001,0-0.003,0-0.004c0.1-1.422,0.203-2.83,0.311-4.218c0.064,0,0.12-0.011,0.186-0.008c0.949,0.04,1.866,0.859,1.95,1.502 c0.036,0.274,0.292,0.467,0.562,0.431c0.273-0.036,0.467-0.287,0.431-0.562C36.749,26.205,35.367,25.075,34.006,25.016z M34.457,31.785c0.431,0.346,0.688,0.903,0.674,1.455c-0.014,0.552-0.3,1.095-0.748,1.418c-0.153,0.111-0.343,0.21-0.58,0.303 c-0.237,0.093-0.472,0.151-0.705,0.192c0.103-1.274,0.201-2.568,0.294-3.882C33.792,31.401,34.161,31.548,34.457,31.785z M32.488,29.902c-0.506-0.225-0.832-0.496-0.976-0.824c-0.122-0.277-0.137-0.637-0.046-1.1c0.097-0.49,0.267-0.892,0.503-1.191 c0.209-0.265,0.475-0.459,0.791-0.589C32.666,27.42,32.575,28.656,32.488,29.902z"/></svg>