<svg xmlns="http://www.w3.org/2000/svg" viewBox="0 0 512 512" width="48px" height="48px"><path fill="#EF4823" d="M414,215.7c-0.9-23,0.7-46.3-1.4-69.2c-1.8-18.5-7.1-39-24.6-48.9c-22.8-12.9-50.9-12.9-76.3-11c-27.8,2.1-55.5,6.2-83.5,5.7c-30-0.5-59.7-5.3-89.5-8.5c-21.7-2.4-45.3-5.9-66.3,2.2c-9.5,3.7-18,9.6-24.1,17.9c-7,9.4-10.2,20.4-13.9,31.3c5.4,27.2,7.5,54.9,6.8,82.6c-0.6,23.9-5.2,48.2-2.4,72.1c2.2,18.6,10.1,35.7,27.4,44.6c22.5,11.7,49.8,12.1,74.6,10.8c28.9-1.5,57.7-5.3,86.6-5.1c15.8,0.1,31.6,1.1,47.4,2.2c0.7-4,1.6-8,2.9-12c0.9-2.9,2-5.7,3.1-8.4c0,0-0.1,0-0.1,0c-6-1.9-11.5-5.2-16-9.4c-12.2,7.4-31.4,5.6-43.2-1.8c-10.9-6.8-19.2-18.7-19.2-31.8c0-14.3,8.4-26.7,21.8-32c8.6-3.4,18.1-4.3,27.2-3.2c3.6,0.4,6.5,1.1,9.7,2.8c1.3,0.7,2.5,1.4,3.8,2c0.6,0.3,2.5,0.6,1.1,0.8c2-0.3,3.4,0.4,4.3,1.5c7.8-4,16.5-6,25.3-5.5c4.5,0.2,9.3,0.4,13.5,2.1c3.7,1.4,7,3.8,10.6,5.6c0.3-0.2,0.5-0.4,0.8-0.6c8.6-6.3,19.5-7.4,29.9-6.3c8.3,0.9,16.8,3.5,22.9,9.1c2-0.4,4-0.7,6-0.9c12.4-1.6,24.7-1,36.3,1.6C415.3,242.6,414.5,229.1,414,215.7z M129.1,134.8c-10.6-5.1-24.2-6.3-34.7-0.3c-9.3,5.2-16.4,14.5-16.5,25.5c-0.1,9.4,3.3,18.9,11.1,24.6c11.7,8.4,26.4,3.8,38.8-0.3c6.4-2.1,9.9,7.8,3.5,9.9c-16.1,5.4-34.5,9.6-49.2-1.7c-10.4-8.1-15.5-21.2-14.6-34.2c1.1-14.6,10.1-27.4,23.3-33.7c13.6-6.5,29.5-5.7,42.9,0.8C139.9,128.3,135.2,137.7,129.1,134.8z M204.1,185.9c-1.8-7.7-4.9-14.5-8.5-21.3h-35.5c-2.2,8-3.4,16.2-4.4,24.4c-0.9,6.7-11.1,4.7-10.3-2c1.7-13.2,3.9-26.7,9.5-39c3.6-8.1,9.8-22.2,20.5-22.4c11.8-0.2,18.4,12.9,23.1,21.9c6,11.4,12.6,22.2,15.5,34.9C215.5,188.9,205.6,192.4,204.1,185.9z M269.8,181.7c-6.6-4.9-13.3-9.4-20.3-13.7c-3.6-2.2-7.2-4.4-10.6-6.8c-1.7-1.2-3.4-2.5-5.2-3.7c0.3,7.9,0.3,15.7,0.4,23.6c0,0,0,0,0,0v1.2c0,6.7-10.5,7.6-10.5,0.8V182c0,0,0,0,0,0c0-9.7,0.1-19.5-0.6-29.2c-0.7-10.2-2.4-20.3-1.9-30.5c0.2-3.8,3.6-5.7,6.5-5.4c0.5-0.1,0.9-0.2,1.5-0.2c11.9-0.1,32.5-2.6,37.2,12.3c2.5,8,1.1,18-6.2,23.2c-3.3,2.3-6.6,3.4-10,3.9c1.8,1.3,3.6,2.5,5.5,3.5c7.4,4.1,14.3,9.3,21.2,14.4C282.2,177.9,275.2,185.7,269.8,181.7z M300.3,188c-1.6-0.5-2.7-1.5-3.3-2.7c-2.7,0.3-5.4-1.2-5.4-4.6v-2.5c0-0.2,0-0.4,0-0.6c0.1-9.4,0.4-18.7-0.6-28c-1-10-2.4-19.9-2-29.9c0.2-4.1,4.1-6,7.1-5.3c0.5-0.2,0.9-0.3,1.5-0.3c20-1.4,48.4,10,50.6,32.7C350.7,172.3,325.8,195.5,300.3,188z"/><path fill="#FEBF10" d="M349.6,256.7c-7.3-0.8-16.1-0.7-22.3,3.8c-0.6,0.5-1.2,1-1.8,1.5c0.9,3.1,1.9,6.3,3,9.3c9.5-5.3,19.6-9.5,30-12.5C355.7,257.7,352.7,257,349.6,256.7z"/><path fill="#D6E5E5" d="M358,323.6c-5.7,5.9-7.2,15.4-1.4,21.9c4.2,4.7,10.3,6.8,16.4,8.1c0.1-13.1,0.3-26.1,0.4-39.2C367.6,316.3,362.1,319.2,358,323.6z"/><path fill="#FEBF10" d="M260.5,258.5c-2.4-1.2-4.6-2.8-6.7-3.7c-5.2-2.2-14.8-1.3-20.4,0.2c-10.4,2.8-20.6,10.4-20.6,22.2c0,9.6,4.9,19.3,13.4,24.2c8.6,5,22.2,7.7,31.6,3c-2.7-4.1-4.6-8.6-5.7-13.4C249.5,279.7,252.7,267.2,260.5,258.5z"/><path fill="#EF4823" d="M337.6 146.3c-2.9-15.4-24.2-22.4-38.2-21.8.2 8.7 1.5 17.4 2.2 26.1.8 9.1.5 18.1.4 27.1.1 0 .1 0 .2 0C321 183.2 341.4 166 337.6 146.3zM255.6 130.9c-4.7-6.1-16.9-4.3-24.2-4 .1 6.3.9 12.5 1.5 18.8 5.9-.2 13.8 2 19-1C256.3 142.3 259.1 135.5 255.6 130.9zM184.5 144.2c-1.5-2.2-5.1-8.6-8.4-8.1-3.5.6-6.3 5.3-7.8 8.1-1.7 3.3-3.4 6.5-4.8 9.9h26.5C188.4 150.7 186.6 147.3 184.5 144.2z"/><path fill="#FEBF10" d="M314.4,263.1h-3.3c0.4-0.7,0.8-1.4,1.2-2.1c-2.2-1.3-4.3-2.7-6.6-3.6c-3.3-1.3-7.3-1.6-10.8-1.6c-6.8,0-14.2,0.8-20.1,4.4c-10,6.1-15.8,17.8-12.4,29.4c3.1,10.6,11.5,20,22.5,22.7c0.2,0.1,0.4,0.1,0.6,0.1c8.1-14.3,19.8-26.2,33.4-35.5C317.1,272.6,315.7,267.9,314.4,263.1z"/><path fill="#D6E5E5" d="M417.3,267c-42.2-10.6-94.1,8.4-118.8,44.4c-13.4,19.4-17.8,45-11.5,67.8c6.7,24.2,22.4,44.5,39.9,62c1.1,1.1,1.6,2.4,1.6,3.7c19.9,8.6,41.8,12.9,63.5,10.8c47.2-4.5,91.8-38.5,96-87.9C491.7,323.2,461.1,278,417.3,267z M288.9,354c-0.1,0-0.1,0-0.2,0c0.2-1,0.4-2,0.6-3C289.1,351.9,289,352.9,288.9,354z M417.4,402.9c-4.2,3.2-8.9,5.6-14,7.5c0.4,6.6,0.6,13.4-1.5,19.7c-2.1,6.3-12.5,4.4-10.3-2c1.6-4.8,1.7-9.8,1.5-14.9c-3.3,0.6-6.7,1-10.2,1.2c0,2.5,0,5.1,0,7.6c0,6.7-10.5,7.6-10.5,0.8v-3.8c0-0.1,0-0.1,0-0.2c0-1.5,0-3,0-4.5c-7.2-0.5-14.3-1.8-20.6-3.8c-6.5-2-2.9-11.9,3.5-9.9c5.4,1.7,11.3,2.7,17.2,3.1c0.1-13.1,0.2-26.2,0.3-39.3c-9.3-1.7-18.1-4.4-24.2-11.9c-5.8-7.1-8.3-17.5-4.7-26.2c3.5-8.4,10.6-14.6,18.7-18.6c3.5-1.7,7.1-3,10.7-4c0-4.8,0-9.6,0-14.4c0-6.7,9.6-7.6,10.5-0.8c0.2,1.3,0.8,2.5,1,3.8c0.2,1.6-0.2,2.8-1,3.7c0,1.9,0,3.7,0,5.6c1.5-0.2,2.9-0.4,4.4-0.5c1.7-0.2,3.4-0.3,5.1-0.5c0-3.8,0.1-7.5,0.1-11.3c0-6.7,10.5-7.6,10.5-0.8c0,3.9,0,7.7-0.1,11.6c5.1,0.1,10.1,0.7,14.7,2.7c6.2,2.7,2.7,12.6-3.5,9.9c-3.5-1.5-7.4-1.9-11.3-2c-0.2,16.5-0.6,33-0.7,49.5c1,0.4,2.1,0.8,3.1,1.3c8.3,3.9,16.3,9.7,19.4,18.8C428.4,388.6,424.4,397.6,417.4,402.9z"/><path fill="#D6E5E5" d="M416.1 385.5c-1-6.9-7-11.2-13.1-14.1-.1 9.3-.3 18.6 0 27.9C409.6 396.7 417 392.1 416.1 385.5zM383.8 311.9c-.1 14.5-.2 29-.4 43.5 3.1.5 6.1 1 9.2 1.6.1-15.4.5-30.8.7-46.1C390.1 311.1 387 311.4 383.8 311.9zM392.5 400.8c0-11 0-22.1 0-33.1-3-.7-6.1-1.3-9.2-1.8-.1 12.5-.2 25.1-.3 37.6 3.2-.2 6.4-.6 9.5-1.3C392.5 401.8 392.5 401.3 392.5 400.8z"/><path d="M288.7,353.9c0.1,0,0.1,0,0.2,0c0.1-1,0.2-2,0.4-3C289,351.9,288.8,352.9,288.7,353.9z"/><path d="M488.3,315c-12.6-27-35.5-46.9-62.4-56c-0.1-6.5-0.2-13-0.5-19.4c-0.5-13.8-1.3-27.6-1.6-41.4c-0.3-11.5,0.1-23.1,0-34.6c-0.3-19.6-1.9-40-12.3-57.1c-11.9-19.8-36.1-27.2-57.7-30c-26.9-3.4-54.1,0.8-80.8,3.3c-29.4,2.8-58.3,2.3-87.6-1c-27-3-54.2-8-81.4-8.2c-20.4-0.2-41.7,4.6-56.9,19c-11.4,10.8-16.4,24.5-21.3,38.8c-0.6,0.3-1.1,0.7-1.5,1.1c-0.1,2.2-0.3,4.5-0.6,6.7c0.1,0.6,0.3,1.2,0.6,1.7c5.4,28.2,7.4,56.8,6.4,85.5c-0.8,24-5.2,48.4-1.6,72.4c3.1,20,13.2,36.6,30.6,47c22.5,13.4,51.9,14,77.3,13.1c28.8-1,57.3-5,86.1-5.3c16.9-0.2,33.8,0.8,50.7,2.1c-0.7,14.4,2,28.9,7.5,42.3c7.7,18.9,20.5,35.3,34.6,49.9c-1.1,2.3-0.7,5.3,2.3,6.8c47.4,22.9,105.9,19.7,146.3-16.2C498.7,405.2,507.6,356.2,488.3,315z M277.8,330.6c-1.2,3.9-2.2,7.9-2.9,12c-15.8-1.1-31.5-2.1-47.4-2.2c-29-0.2-57.7,3.6-86.6,5.1c-24.8,1.3-52,0.9-74.6-10.8c-17.3-8.9-25.2-26-27.4-44.6c-2.8-23.8,1.8-48.2,2.4-72.1c0.6-27.8-1.5-55.4-6.8-82.6c3.7-10.9,6.9-21.9,13.9-31.3c6.1-8.3,14.5-14.2,24.1-17.9c21-8.1,44.6-4.6,66.3-2.2c29.8,3.2,59.5,8,89.5,8.5c28,0.5,55.6-3.6,83.5-5.7c25.4-1.9,53.4-1.9,76.3,11c17.5,9.8,22.8,30.3,24.6,48.9c2.2,22.9,0.5,46.2,1.4,69.2c0.6,13.4,1.3,26.9,1.5,40.3c-11.7-2.6-23.9-3.2-36.3-1.6c-2,0.3-4,0.6-6,0.9c-6.2-5.6-14.7-8.3-22.9-9.1c-10.4-1.1-21.2,0-29.9,6.3c-0.3,0.2-0.5,0.4-0.8,0.6c-3.6-1.8-6.8-4.1-10.6-5.6c-4.3-1.6-9-1.8-13.5-2.1c-8.8-0.4-17.5,1.5-25.3,5.5c-0.9-1.1-2.4-1.8-4.3-1.5c1.4-0.2-0.5-0.5-1.1-0.8c-1.3-0.6-2.5-1.3-3.8-2c-3.2-1.7-6.1-2.4-9.7-2.8c-9.2-1.1-18.6-0.2-27.2,3.2c-13.4,5.3-21.8,17.7-21.8,32c0,13.2,8.3,25.1,19.2,31.8c11.8,7.3,31,9.2,43.2,1.8c4.6,4.2,10,7.5,16,9.4c0,0,0.1,0,0.1,0C279.7,324.9,278.7,327.7,277.8,330.6z M358.5,258.8c-10.4,3-20.6,7.2-30,12.5c-1.2-3-2.2-6.2-3-9.3c0.6-0.5,1.2-1,1.8-1.5c6.2-4.5,15-4.5,22.3-3.8C352.7,257,355.7,257.7,358.5,258.8z M252.1,291.1c1.1,4.8,3.1,9.3,5.7,13.4c-9.4,4.7-23,2-31.6-3c-8.5-4.9-13.4-14.6-13.4-24.2c0-11.8,10.2-19.4,20.6-22.2c5.6-1.5,15.1-2.4,20.4-0.2c2.1,0.9,4.4,2.5,6.7,3.7C252.7,267.2,249.5,279.7,252.1,291.1z M262.5,289.7c-3.4-11.6,2.4-23.3,12.4-29.4c5.9-3.6,13.3-4.4,20.1-4.4c3.5,0,7.5,0.3,10.8,1.6c2.3,0.9,4.4,2.3,6.6,3.6c-0.4,0.7-0.8,1.4-1.2,2.1h3.3c1.2,4.7,2.7,9.5,4.6,14c-13.6,9.3-25.3,21.2-33.4,35.5c-0.2,0-0.4-0.1-0.6-0.1C274,309.7,265.6,300.4,262.5,289.7z M487.9,367.9c-4.2,49.4-48.8,83.5-96,87.9c-21.7,2-43.6-2.2-63.5-10.8c0-1.3-0.5-2.6-1.6-3.7c-17.5-17.6-33.1-37.8-39.9-62c-6.3-22.8-1.9-48.4,11.5-67.8c24.8-36,76.6-55.1,118.8-44.4C461.1,278,491.7,323.2,487.9,367.9z"/><path d="M94.4 134.4c10.6-6 24.2-4.8 34.7.3 6.1 2.9 10.8-6.5 4.7-9.4-13.4-6.5-29.3-7.4-42.9-.8-13.2 6.3-22.2 19.1-23.3 33.7-1 13 4.2 26.1 14.6 34.2 14.7 11.4 33.1 7.1 49.2 1.7 6.4-2.1 3-12-3.5-9.9-12.4 4.1-27.1 8.7-38.8.3-7.9-5.7-11.3-15.2-11.1-24.6C78 148.9 85.1 139.7 94.4 134.4zM214 182.4c-2.9-12.7-9.6-23.5-15.5-34.9-4.7-9.1-11.3-22.1-23.1-21.9-10.7.2-16.9 14.3-20.5 22.4-5.5 12.3-7.8 25.7-9.5 39-.8 6.7 9.4 8.7 10.3 2 1-8.2 2.3-16.4 4.4-24.4h35.5c3.5 6.8 6.7 13.6 8.5 21.3C205.6 192.4 215.5 188.9 214 182.4zM163.6 154.1c1.4-3.4 3.1-6.6 4.8-9.9 1.5-2.9 4.2-7.6 7.8-8.1 3.3-.5 6.9 5.9 8.4 8.1 2.1 3.2 3.9 6.5 5.6 9.9H163.6zM276.7 173.8c-6.8-5.1-13.7-10.2-21.2-14.4-1.9-1-3.7-2.3-5.5-3.5 3.4-.5 6.8-1.5 10-3.9 7.2-5.1 8.7-15.2 6.2-23.2-4.7-14.9-25.3-12.3-37.2-12.3-.6 0-1 .1-1.5.2-2.9-.3-6.3 1.7-6.5 5.4-.5 10.2 1.2 20.4 1.9 30.5.7 9.7.6 19.5.6 29.2 0 0 0 0 0 0v1.2c0 6.8 10.5 5.9 10.5-.8v-1.2c0 0 0 0 0 0 0-7.9 0-15.8-.4-23.6 1.8 1.1 3.4 2.5 5.2 3.7 3.4 2.4 7.1 4.6 10.6 6.8 7 4.3 13.7 8.8 20.3 13.7C275.2 185.7 282.2 177.9 276.7 173.8zM232.8 145.8c-.6-6.3-1.4-12.5-1.5-18.8 7.4-.3 19.6-2.1 24.2 4 3.5 4.6.7 11.3-3.7 13.8C246.6 147.8 238.8 145.6 232.8 145.8zM348.3 146.7c-2.2-22.7-30.6-34.1-50.6-32.7-.6 0-1 .2-1.5.3-3-.7-7 1.2-7.1 5.3-.4 10 1 20 2 29.9.9 9.4.7 18.7.6 28 0 .2 0 .4 0 .6v2.5c0 3.5 2.7 4.9 5.4 4.6.6 1.2 1.7 2.2 3.3 2.7C325.8 195.5 350.7 172.3 348.3 146.7zM302.3 177.7c-.1 0-.1 0-.2 0 .1-9.1.4-18.1-.4-27.1-.7-8.7-2-17.4-2.2-26.1 14-.6 35.2 6.5 38.2 21.8C341.4 166 321 183.2 302.3 177.7zM425.5 380.1c-3.1-9.1-11.1-14.9-19.4-18.8-1-.5-2-.9-3.1-1.3.1-16.5.5-33 .7-49.5 3.9 0 7.8.5 11.3 2 6.2 2.7 9.7-7.2 3.5-9.9-4.5-1.9-9.6-2.6-14.7-2.7 0-3.9.1-7.7.1-11.6 0-6.8-10.5-5.9-10.5.8 0 3.8 0 7.5-.1 11.3-1.8.2-3.5.3-5.1.5-1.5.1-2.9.3-4.4.5 0-1.9 0-3.7 0-5.6.8-.9 1.2-2.1 1-3.7-.2-1.3-.8-2.6-1-3.8-.9-6.7-10.5-5.9-10.5.8 0 4.8 0 9.6 0 14.4-3.6 1-7.2 2.3-10.7 4-8.1 4-15.2 10.2-18.7 18.6-3.7 8.7-1.1 19.1 4.7 26.2 6.1 7.5 14.9 10.2 24.2 11.9-.1 13.1-.3 26.2-.3 39.3-5.9-.4-11.7-1.4-17.2-3.1-6.5-2-10 7.9-3.5 9.9 6.4 2 13.4 3.3 20.6 3.8 0 1.5 0 3 0 4.5 0 .1 0 .1 0 .2v3.8c0 6.8 10.5 5.9 10.5-.8 0-2.5 0-5.1 0-7.6 3.4-.2 6.8-.6 10.2-1.2.2 5.1.1 10.1-1.5 14.9-2.2 6.4 8.2 8.3 10.3 2 2.1-6.2 1.9-13 1.5-19.7 5.1-1.8 9.8-4.3 14-7.5C424.4 397.6 428.4 388.6 425.5 380.1zM373 353.6c-6.1-1.3-12.2-3.5-16.4-8.1-5.8-6.5-4.4-16 1.4-21.9 4.2-4.3 9.6-7.2 15.4-9.2C373.3 327.5 373.1 340.5 373 353.6zM383 403.6c.1-12.5.2-25.1.3-37.6 3.1.5 6.2 1 9.2 1.8 0 11 0 22.1 0 33.1 0 .5 0 1 0 1.5C389.4 402.9 386.2 403.3 383 403.6zM392.6 357c-3-.6-6.1-1.1-9.2-1.6.2-14.5.3-29 .4-43.5 3.1-.5 6.3-.8 9.5-1C393.1 326.3 392.7 341.6 392.6 357zM402.9 399.3c-.2-9.3-.1-18.6 0-27.9 6.1 2.9 12.1 7.2 13.1 14.1C417 392.1 409.6 396.7 402.9 399.3z"/></svg>