<svg xmlns="http://www.w3.org/2000/svg" viewBox="0 0 512 512" width="48px" height="48px"><path fill="#FCBF95" d="M109.4 97.5c-8.8 3.9-15.3 12.6-17.4 22.1 7.7-4.8 16-8.7 24.6-11.8.5-.2 1.1-.4 1.6-.5C115.3 104.1 112.6 100.5 109.4 97.5zM25.9 300.8c1.7 0 3 .7 3.9 1.8 0-1.3-.1-2.7-.2-4-.5-6.4-1.3-12.8-3.2-18.9-.5-1.7-1.1-3.5-1.9-5.2-.2.2-.3.5-.5.7-1.4 1.6-3.1 2-4.7 1.6-.8 2.2-1.4 4.7-1.9 6.7-1 4.4-1.8 8.9-2.2 13.5.2 0 .4 0 .6 0 6.4 0 7.2 10 .8 10-.6 0-1.1-.1-1.6-.2.1 4.9.7 9.9 2.7 14.3.9 2 3.2 4.8 5.2 5.7.8-.9 2-1.6 3.5-1.7.1-.2.3-.4.4-.7 1-2.1 1.6-4.4 2.1-6.7.5-2.6.8-5.2.9-7.8-.7.7-1.7 1.1-3.1 1.1C20.3 310.8 19.5 300.8 25.9 300.8zM462.8 256.4c-3.2-27-7.8-55.1-18.8-80.1-3.8-8.8-8.7-17.1-14.6-24.6-.1.1-.2.1-.3.2-5.3 3.1-10.6-4.3-6.3-7.8-5-5.1-10.5-9.7-16.7-13.6-10.4-6.5-21.6-10.9-33.2-14.9-14.8-5.1-30.1-9.1-45.5-11.9-60-10.9-121.6-5-181 6.5-20.1 3.9-40.4 10.4-56.9 23-8 6.1-14.9 13.5-20.7 21.8-5.8 8.4-12.2 18.7-14.6 28.7-1.2 5-1.9 10.9-2.5 17 1.8-.1 3.8.6 4.6 2.2 0 .1.1.2.1.2.2.1.3.2.5.4 1.2.8 2.3 2.3 2.3 3.8 0 .3 0 .5-.1.8.3 2.3-.4 4.7-2.4 6-.2.3-.5.6-.8.9-1.4 1.5-3.5 2-5.4 1.4-1.6 19.7-4.6 39.7-19.4 49.3 2.5 3.6 4.1 8.2 5.1 12.2 2.1 7.8 3.2 15.8 3.4 23.9.1 6.3.2 16.2-2.6 23.9 25.5 2.7 56.1 6.8 70.6-18.3.4-.7 1-1.3 1.6-1.7-1.3-1.5-2.6-3.1-2.8-5.3-.3-3.1 2.4-5.6 5.3-5.8 3.3-.2 5.1 2.3 5.2 4.9.1.1.2.3.5.5 1.5 1.6 2.9 3.1 4.3 4.8 2.5 3 5.1 6.4 5.3 10.4.4 6.4-9.6 7.2-10 .8 0-.2 0-.3 0-.3 0-.1-.1-.1-.1-.2-.1-.3-.2-.4-.2-.5-.1-.1-.1-.2-.3-.4-.3-.4-.6-.9-.9-1.3-11 17.7-27.8 23-46 23.9-7.8 10.4 1.3 20.4 9.7 26.7 6.5 4.8 13.6 9.8 18.1 16.7 9.7 15 4.6 32.3 3.1 48.7-.7 8 1.9 13.3 9.2 17 8.5 4.3 18.3 6.8 27.5 9 8.5 2 20.1 5.5 28.9 2.6 8.4-2.7 10-13.1 11.1-20.5 1.2-8.1 2.3-17.7 8.5-23.8 8.5-8.3 21.9-10 33.2-10.7 13.8-.9 27.6.1 41.4-.2 14.1-.3 28.2-1.4 42.2-.5 9.9.7 21.7 2.2 28.6 10 7.1 8 7.4 17.6 8.2 27.6.4 5 1 9.2 6.7 10.3 5 .9 10.1.1 15-1.3 10.3-3.1 19.8-8.2 29.6-12.6 8.8-3.9 20-8.4 24.2-17.8 2.8-6.2 2.5-12.3.5-18.7-1.9-6-3.7-12.1-1.9-18.4 3.2-11.7 12.6-17.4 21-25.2 4.7-4.4 8.1-11.1 11.7-16.4 1.8-2.6 3.6-5.3 5.2-8-.5-.4-.9-.9-1.3-1.4 1.7-2.5 3.1-5.3 4.2-8.2 7.4-4.1 8.9-16.2 9.6-23.7C465.5 284.6 464.4 270.4 462.8 256.4z"/><path fill="#010101" d="M471.1,243.3c-5-34.2-12.4-70.4-34.1-98.1c7.6-8.9,11-22.1,11.1-33.2c0.1-10.6-5.5-22.1-14.8-27c-0.3-4.1-1.3-8.1-2.9-11.8c-6.3-14.3-21-24.1-36.5-24.5c-6.4-0.2-5.6,9.8,0.8,10c9.8,0.2,18.5,6.3,24,14.1c2.2,3.1,3.5,6.4,4.2,9.9c-1.1,0-2.2,0.2-3.4,0.4c-7.8,1.4-18.1,7.5-19.9,15.8c-1.9,8.9,8,17.6,16.5,17.4c8.7-0.2,13-8.6,15.4-15.9c0.4-1.2,0.7-2.4,1-3.7c0.2,0.2,0.5,0.4,0.7,0.6c4.1,3.9,4.9,10.2,4.9,15.5c0.1,8-2.6,17.7-7.9,24.7c-15.4-16.1-35.6-24.9-56.4-32c-28.9-9.8-59.1-15.1-89.6-16.8c-30.7-1.7-61.4,0.1-91.9,4c-20.9,2.7-42.5,5.5-63,11.2c-5.7-4.2-9.2-10.5-14.6-15c-5.3-4.4-12.3,0.3-16.9,3.8c-10.4,7.8-16.3,20.7-16.5,33.5c0,0.3,0,0.7,0.1,0.9c-3.1,2.5-6.1,5.2-9,8.1c-12.4,12.5-23.9,30.3-28.1,47.5c-3.6,14.7-2.9,30.4-5.1,45.3c-1.9,13.1-6.2,29.8-21.3,32.8c-2.8,0.5-4.2,2.8-4.3,5.1c-7.4,10.9-8.6,27.3-8.5,39.9c0.1,7.5,1.3,15.1,4.9,21.7c2.9,5.4,9.8,10.5,16.3,9.1c1.5-0.3,2.8-0.8,3.9-1.5c9.2,0.8,18.9,1.9,28.5,2.2c-3.2,8.4-1.4,17.3,4.5,25.1c6.5,8.5,16.7,13.2,24,21c13.5,14.3,2.1,35.6,3.5,52.4c1.7,19.3,25.8,24.3,41.1,28.3c10,2.6,20.5,4.8,30.9,4.4c9.3-0.4,16.5-5.7,20.6-14c3.9-7.9,3.8-17,5.8-25.4c2.6-11.3,12.2-13.7,22.5-15.4c13.9-2.2,28-1.2,42-1c14,0.2,28-1,42.1-0.8c9.3,0.1,23.8,0.1,29.8,8.8c5.8,8.4,3.1,19,5.7,28.3c2.9,10.4,15.2,12.4,24.4,11.3c10.8-1.3,21-6.1,30.6-10.9c10.7-5.3,21.9-9,31-17c9.7-8.6,12-22.3,8.5-34.3c-2.2-7.5-4.1-13.8,0.8-20.7c3.7-5.1,9.1-8.8,13.9-12.8c5.4-4.6,8.7-11,12.7-16.8c4.4-6.3,8.9-12.7,11.9-19.8c0.3-0.6,0.4-1.3,0.4-1.9c6.4-7.6,8.2-19.4,9-28.7C475.6,279.5,473.7,261.2,471.1,243.3z M422.5,95.8c-0.7,3.2-3.2,12.1-8,10.1c-2-0.8-6-2.9-4.8-5.5c1.4-3,5.3-5.2,8.2-6.5c1.7-0.7,3.4-1.1,5.1-1C422.8,93.9,422.7,94.9,422.5,95.8z M26.7,310.8c1.3,0,2.3-0.4,3.1-1.1c-0.2,2.6-0.4,5.2-0.9,7.8c-0.4,2.3-1,4.6-2.1,6.7c-0.1,0.2-0.2,0.5-0.4,0.7c-1.4,0.1-2.6,0.8-3.5,1.7c-2-0.9-4.3-3.7-5.2-5.7c-2-4.5-2.6-9.5-2.7-14.3c0.5,0.2,1,0.2,1.6,0.2c6.4,0,5.6-10-0.8-10c-0.2,0-0.4,0-0.6,0c0.4-4.5,1.2-9.1,2.2-13.5c0.5-2,1.1-4.4,1.9-6.7c1.6,0.4,3.3,0,4.7-1.6c0.2-0.2,0.4-0.5,0.5-0.7c0.8,1.7,1.3,3.5,1.9,5.2c1.9,6.1,2.7,12.6,3.2,18.9c0.1,1.3,0.2,2.7,0.2,4c-0.9-1.1-2.2-1.8-3.9-1.8C19.5,300.8,20.3,310.8,26.7,310.8z M109.4,97.5c3.3,3,5.9,6.5,8.9,9.8c-0.5,0.2-1.1,0.4-1.6,0.5c-8.7,3-16.9,6.9-24.6,11.8C94.1,110.1,100.5,101.4,109.4,97.5z M464.1,298.6c-0.7,7.5-2.2,19.5-9.6,23.7c-1.1,3-2.5,5.7-4.2,8.2c0.3,0.5,0.8,1,1.3,1.4c-1.6,2.7-3.4,5.4-5.2,8c-3.6,5.3-7,12.1-11.7,16.4c-8.4,7.8-17.8,13.5-21,25.2c-1.7,6.3,0,12.4,1.9,18.4c2,6.4,2.3,12.5-0.5,18.7c-4.2,9.4-15.4,13.9-24.2,17.8c-9.8,4.3-19.3,9.5-29.6,12.6c-4.8,1.4-10,2.3-15,1.3c-5.7-1.1-6.3-5.3-6.7-10.3c-0.8-10.1-1-19.6-8.2-27.6c-7-7.8-18.8-9.3-28.6-10c-14.1-1-28.2,0.1-42.2,0.5c-13.8,0.3-27.6-0.8-41.4,0.2c-11.4,0.8-24.7,2.4-33.2,10.7c-6.2,6.1-7.3,15.7-8.5,23.8c-1.1,7.5-2.8,17.8-11.1,20.5c-8.7,2.8-20.3-0.6-28.9-2.6c-9.3-2.2-19-4.6-27.5-9c-7.3-3.7-10-9-9.2-17c1.5-16.4,6.7-33.7-3.1-48.7c-4.5-6.9-11.6-11.8-18.1-16.7c-8.4-6.3-17.5-16.3-9.7-26.7c18.2-0.8,35.1-6.2,46-23.9c0.3,0.4,0.6,0.9,0.9,1.3c0.1,0.2,0.2,0.3,0.3,0.4c0,0,0,0.2,0.2,0.5c0,0.1,0.1,0.2,0.1,0.2c0,0.1,0,0.2,0,0.3c0.4,6.4,10.3,5.7,10-0.8c-0.2-4-2.8-7.5-5.3-10.4c-1.4-1.6-2.9-3.2-4.3-4.8c-0.3-0.3-0.4-0.4-0.5-0.5c-0.1-2.6-1.9-5.1-5.2-4.9c-3,0.2-5.6,2.6-5.3,5.8c0.2,2.1,1.4,3.7,2.8,5.3c-0.6,0.4-1.1,1-1.6,1.7c-14.6,25.1-45.1,21-70.6,18.3c2.8-7.7,2.8-17.6,2.6-23.9c-0.2-8-1.3-16.1-3.4-23.9c-1.1-4-2.6-8.6-5.1-12.2c14.7-9.6,17.8-29.7,19.4-49.3c1.9,0.6,4,0.1,5.4-1.4c0.3-0.3,0.5-0.6,0.8-0.9c2-1.3,2.7-3.7,2.4-6c0-0.2,0.1-0.5,0.1-0.8c0.1-1.5-1-3-2.3-3.8c-0.1-0.1-0.3-0.3-0.5-0.4c0-0.1-0.1-0.2-0.1-0.2c-0.8-1.6-2.8-2.3-4.6-2.2c0.5-6.2,1.2-12,2.5-17c2.4-10,8.8-20.3,14.6-28.7c5.7-8.3,12.7-15.7,20.7-21.8c16.4-12.7,36.7-19.1,56.9-23c59.5-11.5,121-17.3,181-6.5c15.4,2.8,30.7,6.8,45.5,11.9c11.5,4,22.8,8.4,33.2,14.9c6.2,3.8,11.7,8.4,16.7,13.6c-4.3,3.5,1.1,10.8,6.3,7.8c0.1-0.1,0.2-0.1,0.3-0.2c5.9,7.5,10.7,15.8,14.6,24.6c11,25,15.6,53.1,18.8,80.1C464.4,270.4,465.5,284.6,464.1,298.6z"/><path fill="#010101" d="M225.3 141.4c0-2.7-2.8-4.9-5.4-4.6-20.6 2.2-40.7 8-58.4 18.8-5.5 3.4.1 11.7 5.6 8.3 14.7-9 31.4-14.2 48.5-16.5.7 8 2.4 15.9 3.2 23.8 1 9.3 1.1 20.5-7.3 26.4-5.3 3.7.3 12 5.6 8.3C238.2 191.1 225.5 162.2 225.3 141.4zM128.4 221.9c-.3-1.4-.9-2.7-1.7-4-.6-1.5-1.6-2.8-3-3.7-.8-.7-1.6-1.4-2.4-1.9-2.8-1.8-6.4-.5-8 2.2-1.3.8-2.5 1.8-3.2 2.9-1.5 2.2-2.4 4.8-1.3 7.5 1.3 3 3.8 4.4 6.8 5.2 1.2.4 2.5.5 3.7.6 1.7.1 3.8.4 5.5-.3C128.4 228.9 129.3 225.4 128.4 221.9zM307 131.6C306.9 131.8 306.9 131.8 307 131.6L307 131.6z"/><path fill="#010101" d="M317.3,114.9c-12.2-3.1-24.5-5.9-37.1-7.4c-11.5-1.4-25.7-2.7-36,3.8c-2.5,0.2-4.9,2-4.9,5.2v17.7c0,3.2,3.8,5.5,6.6,4.3c8.5-3.4,18.6-3.1,27.6-2.2c8.1,0.7,17.4,1.9,24.6,6c5,2.9,9.1-4.1,5.8-7.8c1.6-0.4,2.9-1.6,3.3-3.7c-0.1,0.4-0.2,0.7-0.2,0.8c0.1-0.1,0.2-0.3,0.3-0.5c0.9-1.2,1.4-2.5,1.3-4c-0.2-2.5-2.1-4-4.1-5c2.2,0.5,4.4,1,6.6,1.6c-0.5,4-1.8,7.9-4.5,10.9c-4.3,4.8,3.2,11.4,7.5,6.6c5.3-5.9,7.1-14,7.2-21.7C321.3,117.2,319.3,115.4,317.3,114.9z M249.3,119.9c0.3-0.2,0.6-0.3,0.8-0.5c-0.4,0.5-0.7,1-0.8,1.5V119.9z M249.3,127.1v-3.5c0.3,0.7,0.8,1.4,1.7,2c0.5,0.4,1.1,0.7,1.6,0.9C251.5,126.7,250.4,126.8,249.3,127.1z M261.4,116.8c-1.1,0.3-2.2,0.6-3.4,0.8c-0.8-0.1-1.1,0-1.1,0.1c-0.5-0.2-0.9-0.4-1.4-0.5c2.4-0.6,5-0.9,7.6-1C262.6,116.4,262,116.6,261.4,116.8z M272.8,117.9c-0.2-0.5-0.5-1-0.8-1.4c0.8,0.1,1.5,0.2,2.2,0.2C273.7,117.2,273.3,117.6,272.8,117.9z M284.2,118.5c-0.4-0.1-0.7-0.1-1.1-0.2c0-0.1-0.1-0.3-0.1-0.4c2.5,0.4,4.9,0.8,7.4,1.2C288.5,119.7,286.2,118.9,284.2,118.5z M296.5,121.3c-0.3-0.4-0.6-0.8-0.9-1.2c1.3,0.3,2.7,0.6,4,0.8C298.6,121,297.6,121.1,296.5,121.3z"/></svg>