<svg xmlns="http://www.w3.org/2000/svg" viewBox="0 0 48 48" width="48px" height="48px"><path fill="#f26322" d="M16.344,24.422c0,0,2.673-0.781,3.844-0.922s3.547,0.063,3.547,0.063s4.984,0.875,5,1.625 S28,28.969,28,28.969l-6.703,0.594c0,0,0.281,5.063-2.219,6.547c-2.281-0.234-3.547-0.234-3.859-0.813s0.281-1.359,0.484-2.188 S16.344,24.422,16.344,24.422z"/><path fill="#f3ad20" d="M23.445,12.256c0.81-0.23,1.676-0.415,2.415-0.01c0.366,0.201,0.736,0.324,1.047,0.603 c0.527,0.474,1.153,0.822,1.783,1.146c0.729,0.375,1.473,0.724,2.227,1.046c-0.671,0.533-1.042,1.422-0.948,2.274 c0.017,0.158,0.033,0.355-0.101,0.44c-0.067,0.042-0.152,0.041-0.232,0.037c-0.29-0.012-0.601-0.048-0.892-0.059 c-0.54,0.165-1.101,0.306-1.642,0.471c-0.411,0.125-0.833,0.257-1.162,0.533c-0.548,0.46-1.724,1.213-1.908,1.905 c-0.157,0.59-0.344,1.173-0.558,1.745c-0.098,0.262-0.208,0.531-0.416,0.718c-0.438,0.394-1.11,0.283-1.699,0.254 c-1.921-0.096-3.206,0.938-5.129,0.94c-0.205,0-0.439-0.027-0.559-0.193c-0.102-0.142-0.082-0.336-0.055-0.509 c0.355-2.319,1.54-4.594,2.763-6.595S21.338,13.286,23.445,12.256"/><path fill="#d6e5e5" d="M5.313,36.438l0.396,1.958c0,0-1.938,0.458-2.313,1.833s-0.167,3.104-1.375,3.104 s-0.083-6.979-0.083-6.979L5.313,36.438z"/><path fill="#d6e5e5" d="M40.938,29.625c0,0,1.563,0.172,2.547-0.75s2.922-2.172,2.922-2.172s0.391,1.047-0.422,2.797 s-1.828,3.344-1.828,3.344s-0.563,0.516-1.734-0.016s-2.172-1.453-2.172-1.453L40.938,29.625z"/><path fill="#fcbf95" d="M5.396,36.625l5.229-1.521l4.542,0.354l3.479,0.583c0,0-0.875,2.646-2.625,2.646 s-4.958-0.5-6.854-0.396c-1.896,0.104-3.458,0.271-3.458,0.271L5.396,36.625z"/><path fill="#fcbf95" d="M28.792,25.521c0,0,2.021-0.438,3.708,0.646c1.688,1.083,8.208,3.417,8.208,3.417 s0.479,1.542-0.875,2.021c-1.708-0.125-3.896-0.229-11.5-2.813C28.563,27.104,28.792,25.521,28.792,25.521z"/><path fill="#fcbf95" d="M30.875,15.156c0,0-1.25,1.219-0.672,2.766c1.594,0.219,3.938,1.094,6.422,0.438 s5.575-1.795,6.222-2.453c0.647-0.659,1.176-2.212-0.329-2.353s-3.894,1.4-3.894,1.4s-2.659,1.259-4.471,1.118 C32.341,15.929,30.875,15.156,30.875,15.156z"/><path fill="#fcbf95" d="M8.438,21.938c-0.646,0.979-0.979,2.479,0.708,2.229s1.417-1.708,2.396-2.729 s1.979-2.375,3.938-3.458c1.958-1.083,3.125-1.063,3.125-1.063s3.208-4.271,4.083-4.479c0,0-2.708-0.229-5.75,1.292 S12.208,16.417,8.438,21.938z"/><path fill="#fcbf95" d="M25.547,12.172c0,0,1.156-0.828,1.313-1.75s0.391-4.047,2.875-3.953s2.734,2.734,2.703,3.625 s-0.609,2.641-1.609,3.156s-1.516,0.75-1.734,1.141C28.188,13.797,25.547,12.172,25.547,12.172z"/><path fill="#010101" d="M46.819,26.299c-0.06-0.156-0.195-0.272-0.358-0.309c-0.165-0.035-0.334,0.013-0.455,0.129 c-0.273,0.264-0.562,0.517-0.85,0.77c-0.3,0.264-0.601,0.528-0.885,0.803c-1.134,1.095-2.189,1.535-3.433,1.438 c-0.424-0.036-0.867-0.197-1.257-0.341c-0.667-0.244-1.567-0.666-2.608-1.155c-1.322-0.621-2.817-1.322-4.31-1.883 c-1.054-0.995-2.471-0.849-3.368-0.737c-0.005-0.011-0.004-0.027-0.01-0.037c-0.43-0.793-4.512-1.72-4.553-1.729 c-0.09-0.019-0.271-0.04-0.489-0.063c-0.135-0.015-0.357-0.039-0.57-0.069c0.11-0.179,0.198-0.366,0.268-0.552 c0.219-0.584,0.412-1.188,0.573-1.792c0.101-0.381,0.858-0.961,1.311-1.309c0.164-0.125,0.313-0.24,0.435-0.342 c0.256-0.216,0.627-0.328,0.987-0.438c0.267-0.082,0.539-0.157,0.81-0.232c0.25-0.069,0.501-0.14,0.748-0.213 c0.113,0.006,0.228,0.015,0.344,0.024c0.157,0.013,0.313,0.024,0.467,0.031c0.062,0,0.155-0.003,0.257-0.021 c0.615,0.077,1.186,0.211,1.836,0.372c0.265,0.065,0.538,0.133,0.825,0.198c0.567,0.13,1.27,0.184,1.966,0.184 c0.703,0,1.399-0.055,1.941-0.145c0.704-0.117,4.474-1.208,5.965-2.084c0.453-0.267,0.923-0.566,1.257-1.035 c0.423-0.594,0.493-1.333,0.176-1.886c-0.548-0.956-1.819-0.912-2.739-0.583c-0.82,0.292-1.419,0.582-1.999,0.863 c-0.502,0.243-1.022,0.495-1.7,0.755c-1.953,0.747-4.203,0.683-6.019-0.17c-0.031-0.014-0.063-0.015-0.095-0.023 c-0.049-0.056-0.105-0.107-0.176-0.137c-0.32-0.136-0.637-0.301-0.957-0.449c0.087-0.032,0.182-0.063,0.283-0.093 c0.161-0.047,0.321-0.096,0.47-0.16c0.63-0.271,1.126-0.832,1.518-1.716c0.63-1.426,0.702-2.915,0.196-4.087 c-0.629-1.46-2.218-2.339-3.611-2.003c-0.961,0.23-1.82,1.019-2.296,2.106c-0.413,0.946-0.53,1.973-0.608,2.859 c-0.021,0.246-0.277,0.355-0.978,0.418l-0.153,0.015c-0.044,0.005-0.082,0.023-0.122,0.039c-0.531,0.001-1.059,0.127-1.545,0.265 c-0.029,0.008-0.056,0.019-0.083,0.031c-0.101,0.05-0.198,0.108-0.298,0.16c-0.018-0.001-0.034-0.009-0.052-0.009 c-2.799,0.122-5.479,0.863-7.965,2.203c-0.859,0.463-1.514,0.906-2.063,1.397c-0.668,0.599-1.213,1.305-1.746,1.995 c-0.435,0.564-0.829,1.086-1.222,1.607c-0.391,0.52-0.782,1.038-1.215,1.6c-0.426,0.553-0.867,1.125-1.158,1.811 c-0.105,0.247-0.22,0.578-0.169,0.945c0.054,0.393,0.286,0.729,0.652,0.947c0.27,0.16,0.587,0.243,0.903,0.243 c0.207,0,0.414-0.036,0.604-0.108c0.73-0.274,1.183-0.892,1.582-1.438c0.963-1.315,1.863-2.493,3.133-3.588 c1.016-0.875,2.101-1.521,3.19-1.904c-0.967,1.68-1.955,3.721-2.282,5.853c-0.028,0.181-0.085,0.556,0.144,0.876 c0.12,0.167,0.278,0.254,0.434,0.311c-0.023,0.109-0.05,0.217-0.063,0.332c-0.034,0.066-0.057,0.137-0.058,0.216 c-0.007,0.455,0.013,1.039,0.035,1.698c0.076,2.235,0.181,5.298-0.651,6.889c-0.198,0.38-0.289,0.691-0.322,0.956 c-1.405-0.318-3.576-0.486-4.823-0.09c-3.035,0.963-5.337,1.443-6.506,1.384c-0.099-0.006-0.219-0.028-0.345-0.05 c-0.515-0.089-1.291-0.222-1.619,0.396c-0.255,0.479-0.259,1.002-0.264,1.554l-0.011,0.765c-0.025,1.627-0.047,3.032,0.268,4.827 c0.024,0.135,0.101,0.253,0.213,0.329C1.638,43.971,1.735,44,1.833,44c0.035,0,0.07-0.004,0.105-0.012 c0.942-0.203,1.542-0.919,1.653-2.047c0.096-0.975,0.144-1.464,0.534-1.928c0.754-0.895,1.537-0.965,2.723-1.072 c0.286-0.025,0.586-0.053,0.903-0.093c1.901-0.239,4.578,0.076,6.729,0.33l0.958,0.111c0.846,0.095,1.724-0.214,2.35-0.826 c0.568-0.557,0.921-1.267,1.231-1.901c0.011-0.003,0.021-0.001,0.033-0.004c0.421-0.106,0.734-0.384,1.011-0.668 c1.306-1.346,1.693-3.661,1.872-5.826c0.222-0.009,0.442-0.019,0.651-0.032c1.401-0.081,2.808-0.257,4.169-0.427 c0.453-0.057,0.906-0.113,1.36-0.166c0.014,0.002,0.025,0.01,0.04,0.012c0.015,0.001,0.03,0.002,0.045,0.002 c0.043,0,0.082-0.013,0.122-0.023c0.535-0.025,1.148,0.177,1.747,0.378c0.25,0.084,0.495,0.166,0.731,0.231 c0.457,0.127,0.896,0.305,1.361,0.492c0.251,0.102,0.503,0.203,0.757,0.297c2.508,0.922,4.9,1.12,7.331,1.244 c0.255,0.132,0.504,0.284,0.754,0.44c0.713,0.448,1.517,0.955,2.546,0.955c0.039,0,0.077-0.001,0.116-0.002 c0.148-0.006,0.397-0.015,0.628-0.15c0.278-0.164,0.404-0.427,0.499-0.626c0.245-0.51,0.53-1.026,0.815-1.543 c0.293-0.531,0.586-1.063,0.839-1.588C46.959,28.492,47.312,27.574,46.819,26.299z M31.004,15.664 c2.08,0.962,4.539,1.03,6.755,0.18c0.718-0.275,1.257-0.536,1.779-0.789c0.581-0.281,1.129-0.547,1.898-0.821 c0.603-0.213,1.321-0.235,1.536,0.14c0.119,0.207,0.068,0.539-0.124,0.808c-0.22,0.309-0.575,0.533-0.95,0.754 c-1.37,0.805-4.977,1.852-5.622,1.959c-0.971,0.158-2.553,0.192-3.521-0.027c-0.281-0.064-0.549-0.131-0.808-0.194 c-0.496-0.123-0.981-0.229-1.477-0.315c-0.003-0.033-0.005-0.073-0.007-0.097C30.402,16.684,30.616,16.095,31.004,15.664z M27.102,11.127c0.071-0.809,0.177-1.739,0.529-2.547c0.351-0.803,0.954-1.376,1.613-1.534c0.921-0.225,2.024,0.417,2.459,1.427 c0.396,0.917,0.325,2.114-0.192,3.286c-0.285,0.642-0.611,1.035-0.999,1.202c-0.113,0.049-0.236,0.083-0.358,0.12 c-0.336,0.099-0.738,0.233-1.021,0.571c-0.071-0.036-0.145-0.065-0.216-0.101c-0.547-0.282-1.173-0.62-1.677-1.074 c-0.212-0.19-0.434-0.311-0.654-0.422C26.856,11.862,27.063,11.572,27.102,11.127z M13.559,18.815 c-1.35,1.164-2.287,2.39-3.287,3.755c-0.332,0.454-0.676,0.923-1.128,1.093c-0.197,0.073-0.461,0.051-0.644-0.059 c-0.103-0.062-0.161-0.137-0.173-0.224c-0.018-0.127,0.048-0.3,0.099-0.419c0.241-0.567,0.642-1.088,1.029-1.591 c0.435-0.564,0.829-1.086,1.222-1.607c0.391-0.52,0.782-1.038,1.22-1.606c0.499-0.646,1.016-1.316,1.616-1.854 c0.488-0.437,1.082-0.838,1.87-1.262c1.815-0.979,3.741-1.611,5.74-1.906c-1.133,0.891-2.135,2.004-2.971,3.297 C16.586,16.76,15,17.575,13.559,18.815z M16.109,23.674c0.362-2.365,1.631-4.669,2.696-6.411c1.236-2.021,2.902-3.59,4.82-4.538 c0.845-0.237,1.477-0.324,1.994-0.041c0.118,0.064,0.236,0.122,0.353,0.179c0.234,0.112,0.436,0.21,0.6,0.358 c0.593,0.533,1.286,0.909,1.889,1.219c0.529,0.272,1.066,0.531,1.604,0.774c-0.434,0.59-0.659,1.339-0.603,2.068 c-0.077-0.005-0.155-0.012-0.234-0.018c-0.157-0.013-0.313-0.024-0.465-0.031c-0.051,0.005-0.112,0.006-0.166,0.021 c-0.266,0.081-0.536,0.156-0.807,0.231c-0.28,0.078-0.561,0.155-0.834,0.239c-0.413,0.126-0.925,0.282-1.338,0.629 c-0.111,0.093-0.25,0.199-0.4,0.314c-0.66,0.505-1.481,1.135-1.669,1.844c-0.153,0.573-0.336,1.145-0.543,1.698 c-0.08,0.214-0.162,0.414-0.282,0.522c-0.222,0.2-0.643,0.171-1.088,0.142l-0.251-0.015c-1.086-0.058-1.971,0.218-2.827,0.483 c-0.76,0.233-1.478,0.455-2.327,0.456c-0.049,0-0.086-0.002-0.112-0.002c-0.009,0-0.017,0-0.022,0.001 C16.096,23.771,16.1,23.73,16.109,23.674z M3.361,39.369c-0.591,0.702-0.664,1.445-0.773,2.558 c-0.037,0.371-0.158,0.651-0.363,0.839c-0.192-1.412-0.173-2.62-0.152-3.991l0.012-0.862c0.003-0.38,0.006-0.739,0.078-0.936 c0.102-0.039,0.448,0.021,0.634,0.054c0.167,0.029,0.325,0.055,0.455,0.063c0.477,0.028,1.077-0.028,1.733-0.129 c0.006,0.208,0.022,0.404,0.039,0.595c0.02,0.221,0.031,0.439,0.031,0.663C4.458,38.408,3.897,38.733,3.361,39.369z M17.09,37.749 c-0.415,0.406-0.99,0.611-1.539,0.547l-0.953-0.11c-2.204-0.261-4.949-0.587-6.972-0.329c-0.305,0.039-0.593,0.064-0.867,0.089 c-0.24,0.022-0.473,0.045-0.702,0.073c-0.007-0.192-0.023-0.374-0.04-0.552c-0.021-0.229-0.032-0.455-0.03-0.688 c1.369-0.286,2.871-0.716,4.131-1.115c1.131-0.359,3.633-0.151,4.888,0.268c0.039,0.014,0.077,0.012,0.116,0.016 c0.208,0.129,0.429,0.175,0.593,0.202l2.207,0.371C17.693,36.973,17.435,37.41,17.09,37.749z M19.346,35.193 c-0.162,0.167-0.351,0.349-0.541,0.396c-0.153,0.04-0.364,0.004-0.567-0.03l-2.356-0.396c-0.079-0.013-0.197-0.033-0.234-0.059 c-0.054-0.037-0.05-0.317,0.2-0.798c0.759-1.452,0.842-3.782,0.805-5.857c0.653,0.692,1.574,1.207,2.67,1.444 c0.533,0.115,1.076,0.163,1.607,0.178C20.771,31.944,20.423,34.084,19.346,35.193z M26.632,28.614 c-1.345,0.168-2.735,0.341-4.104,0.421c-0.975,0.057-2.006,0.095-2.993-0.117c-1.019-0.221-1.859-0.707-2.364-1.368 c-0.499-0.652-0.702-1.993-0.464-2.779c0.789-0.065,1.479-0.266,2.143-0.472c0.809-0.25,1.571-0.487,2.483-0.44l0.233,0.015 c0.321,0.02,0.685,0.034,1.039-0.033c0.257,0.168,0.691,0.246,1.53,0.338c0.175,0.019,0.32,0.033,0.391,0.048 c1.359,0.285,3.181,0.889,3.769,1.194c-0.06,0.275-0.103,0.622-0.147,0.981c-0.041,0.327-0.087,0.698-0.132,0.854 c-0.117,0.399-0.195,0.808-0.254,1.22C27.386,28.521,27.009,28.567,26.632,28.614z M32.536,29.605 c-0.47-0.19-0.957-0.387-1.467-0.528c-0.22-0.062-0.448-0.139-0.682-0.217c-0.505-0.169-1.057-0.346-1.613-0.41 c0.05-0.308,0.113-0.614,0.201-0.913c0.069-0.234,0.114-0.595,0.166-1.013c0.019-0.153,0.042-0.328,0.066-0.495 c0.046-0.005,0.082-0.008,0.131-0.015c0.821-0.105,1.949-0.246,2.694,0.517c0.052,0.053,0.114,0.094,0.184,0.119 c1.486,0.551,2.999,1.261,4.333,1.888c1.063,0.499,1.981,0.93,2.689,1.189c0.298,0.109,0.656,0.219,1.03,0.302 c-0.077,0.347-0.194,0.688-0.376,0.992c-0.006,0.01-0.006,0.021-0.011,0.031c-2.206-0.124-4.381-0.34-6.616-1.163 C33.02,29.8,32.778,29.702,32.536,29.605z M45.545,29.126c-0.245,0.509-0.529,1.023-0.813,1.538 c-0.294,0.533-0.588,1.067-0.845,1.603c-0.03,0.063-0.081,0.168-0.094,0.185c-0.029,0.011-0.123,0.015-0.164,0.016 c-0.791,0.024-1.417-0.374-2.093-0.799c-0.22-0.139-0.444-0.264-0.667-0.388c0.184-0.36,0.317-0.743,0.395-1.139 c1.326-0.02,2.511-0.58,3.701-1.73c0.273-0.264,0.562-0.517,0.85-0.77c0.08-0.07,0.159-0.14,0.239-0.21 C46.067,27.93,45.884,28.421,45.545,29.126z"/></svg>