<svg xmlns="http://www.w3.org/2000/svg" viewBox="0 0 512 512" width="48px" height="48px"><path fill="#FEBF10" d="M444.8 282.2c-1.6 1.3-3.8 1.6-6-.1-.5-.4-.9-.8-1.3-1.3-1.4 2.1-2.8 4.2-3.1 6.9 0 0 0 .1 0 .1.2-.1.4-.2.6-.3 1.2-2.7 4.2-4.5 7.1-2.7.7-.9 1.6-1.6 2.7-2C444.9 282.7 444.9 282.5 444.8 282.2zM259 218v2.2c2-.7 4-1.5 6-2.2H259z"/><path fill="#D6E5E5" d="M435.8,146.6c-5.3-8.7-17-11.7-26.3-13.7c-11.9-2.6-23.9-4.3-35.7-7.5c-58.6-15.6-112.9-43.2-170-63c-0.1,0-0.2-0.1-0.3-0.1c-8.3,27.7-15.4,56-27.9,82.2c-12.2,25.8-23.3,52.8-28.7,81c1.9,2.1,6.5,3,9.3,3.8c4.7,1.3,9.5,2.4,14.2,3.7c8.5,2.2,16.8,5,25.2,7.7c7.9-2.1,15.8-4.3,23.7-6.7c12.5-3.9,24.9-8.3,37.2-12.9c-1.2-0.5-2.4-1.1-3.5-1.8c-5.1-3.1-9.5-7.6-10.9-13.6c-3.2-14.3,5.7-29.1,10.5-42c4.3-11.4,6.2-25.7,16.7-33.5c10.9-8.1,25.9-0.8,29.6,11.3c2.1,6.8-8.8,8.8-10.8,2c-1-3.4-6.3-6.8-9.8-5.7c-4.2,1.2-6.9,5.9-8.5,9.7c-3.7,8.6-5.9,17.8-9.5,26.4c-2.2,5.4-4.5,10.8-6.1,16.4c-1.3,4.7-3.2,10.9-0.3,15.4c4,6.2,12.1,6.6,18.4,9.3c0,0,0.1,0,0.1,0c5.5-2,10.9-4.1,16.4-6.1c0.9-2.9,1.8-5.7,2.8-8.5c2.5-7.4,5.4-14.7,7.8-22.2c3.2-10,5.3-21.1,10.9-30.1c0.2-0.5,0.5-1,0.8-1.5l1.8-2.4c0,0,0,0,0,0c0.3-0.4,0.6-0.8,0.9-1.1c4.1-4.6,12,2.3,8.2,7.2l-1.8,2.4c-0.2,0.2-0.4,0.5-0.6,0.7c-2.9,4.3-4.4,10.1-5.8,14.9c-1.2,3.9-2.3,7.7-3.5,11.6c11.8-4.8,19.7-16.8,27.2-26.5c4.3-5.6,13.5,0.5,9.2,6.1c-8.4,10.8-16.8,22.3-28.9,28.8c1.7,2.9,2.7,6.2,3.1,9.7c7.6-2.3,15.2-4.5,22.9-6.4c2.6-10.1,3.7-20.6,8.1-30.1c1.9-4.1,6.9-4.1,9.5-1.9c7.5-3,16.2,0.6,22.9,3.9c3.2,1.6,3.1,6.7,0.6,8.7c-1.8,1.5-3.7,2.1-6,2.4c-3.3,0.4-5.5-1.7-6.2-4.2c-2.6-0.9-5.3-1.5-6.6-0.9c-2,0.8-3.9,0.4-5.3-0.6c-2,5.5-3.1,11.3-4.3,17.1c1.6,0.9,3.4,1.8,5.2,2.7c2.7-0.4,5.7,0.9,6.3,4.1c1.9,1.9,2.9,4.3,2.2,7.6c-0.1,0.5-0.3,0.9-0.6,1.3c2.7,9.1,8.6,16.9,16.7,22.3c1-2.6,2-5.3,2.9-8c3.8-11.4,9.1-22.8,10.2-34.8c0-0.4,0.1-0.7,0.2-1c-0.1,0-0.3-0.1-0.4-0.1c-1.4,0.5-3,0.4-4.6-0.9l-1.6-1.2c-4.8-3.8-1.4-11.7,4.8-9.8c8.8,2.7,17.8,5.1,25.9,9.7c6.2,3.5,0,12.6-6.1,9.2c-2.4-1.4-4.9-2.5-7.4-3.4c-1.5,12-6.4,23.2-10.2,34.6c-1.2,3.7-2.6,7.4-4,11c3.6,1.6,7.4,2.8,11.3,3.6c0.6,0.1,1.2,0.2,1.8,0.4c2.4-6.6,5-13.2,8.1-19.5c5.5-11.2,11.9-22.1,16.3-33.8C437.5,170.2,441.6,156.3,435.8,146.6z M188.6,192.8c-2.2,6-10.9,4.1-10.7-2.1c0-1.2,0.2-2.4,0.3-3.6c0.1-2,1-3.4,2.3-4.2c8.2-23.8,14.2-48.3,22.3-72.2c0,0,0,0-0.1,0c-2.9,3.2-9.5,0.3-9.4-4.9c-1.7-3.9,1.8-8.5,6.7-7.3c11.3,2.5,21.1,9,32.2,12.4c6.8,2.1,3.2,12.5-3.5,10.4c-5.4-1.7-10.6-4.1-15.8-6.4C204.2,140.7,197.9,167.3,188.6,192.8z M241.3,156.3c-5.5,14.4-9.1,29.7-13.2,44.5c-1.9,6.9-12.3,3.3-10.4-3.5c4.1-14.8,7.7-30.2,13.2-44.5c4.2-11,9.2-22.5,8.7-34.5c-0.3-7.1,10.6-6.2,11,0.8C251.1,132,245.8,144.5,241.3,156.3z"/><path fill="#D6E5E5" d="M393.2,369.7c-3.6-14.2-7.3-28.4-11.4-42.4c-4.1-13.9-9.4-27.4-12.4-41.6c-2.6-12.2-4.2-24.7-8-36.7c-3.1-9.9-8.4-23.4-18.9-27.4c-9.5-3.6-20.6,1.3-29.2,5.4c-11,5.3-21.5,11.3-32.7,16.1c-55.8,23.8-115.6,35.4-172.8,55c-0.1,0-0.2,0.1-0.3,0.1c10.5,27,22.3,53.6,28.6,81.9c6.2,27.9,14.2,56,27.2,81.5c2.8,0.4,7-1.6,9.7-2.7c4.5-1.8,9-3.9,13.5-5.8c10.7-4.6,21.9-8.3,32.8-12.6c13.4-5.2,26.8-10.6,40.5-15c12.5-4,25.2-7.4,37.8-10.9c13.2-3.7,26.4-7.5,39.1-12.4c8.9-3.4,17.4-7.7,26-11.7c6.8-3.1,13.6-6.2,20.4-9.3c3.1-1.5,6.3-2.9,9.4-4.4c0.6-0.3,1-0.5,1.5-0.7C392.3,374.1,392.2,371.6,393.2,369.7z M166.3,415c-0.7-1-1.3-2-2-3c-1.2-1.6-1.3-3.3-0.8-4.7c-8.2-23.8-18.6-46.8-26.8-70.6c0,0,0,0-0.1,0c-0.3,4.3-7.3,6.1-10.4,2c-3.7-2-3.8-7.8,0.8-9.9c10.5-5,22.2-5.9,33-10c6.6-2.5,10.2,7.9,3.6,10.4c-5.3,2-10.9,3.3-16.4,4.6c8.9,25.7,20.3,50.5,28.8,76.4C178,416.2,170,420,166.3,415z M201.7,395.8c-5.9-14.2-12.5-28.5-17-43.2c-3.4-11.3-6.6-23.4-14.4-32.5c-4.6-5.4,4.5-11.5,9.1-6.2c8.4,9.8,12,22.9,15.7,35c4.5,14.7,11.1,29,17,43.2C214.8,398.7,204.4,402.3,201.7,395.8z M261.1,386.4c-2.9,0-6.3,1.9-9.1,2.8c-2.9,0.9-5.9,1.8-8.9,2.1c-5.9,0.7-12.2-0.1-16.9-4c-11.3-9.3-13.4-26.4-17.5-39.6c-3.7-11.7-10.9-24-7.5-36.6c3.6-13.1,19.9-16.6,30.3-9.3c5.8,4.1-1.5,12.3-7.3,8.3c-2.9-2-9.1-1.5-11.2,1.5c-2.6,3.6-1.8,8.9-0.7,12.9c2.4,9.1,6.3,17.6,8.8,26.7c1.6,5.6,3.1,11.3,5.3,16.7c1.9,4.6,4.2,10.6,9.3,12.4c7,2.4,13.6-2.2,20.2-4c0.7-0.4,1.6-0.6,2.6-0.6h1.8C267.3,375.5,268.2,386.4,261.1,386.4z M297.3,376.1c-2.7-2-4.1-6.2-5.5-9.2c-1.8-3.9-3.2-8.2-5.5-11.9c-4.1-6.6-9.2-18.2-18.2-18.6c2,5.9,3.9,11.9,6.1,17.7c1.5,4,3,8,4.7,11.9c0.3,0.7,0.7,1.4,1.1,2.2c1.4,0.7,2.4,2.1,2.4,4.3v2.1c0,7.1-11,7.9-11,0.8c0-1.1-2.3-4.6-2.9-5.8c-0.7-1.7-1.4-3.4-2.1-5.2c-1.5-3.9-3-7.8-4.4-11.8c-2.6-7.4-4.8-14.9-7.5-22.3c-3.6-9.8-8.8-19.9-9.9-30.4c-0.2-0.5-0.2-1.1-0.2-1.7v-3c0,0,0,0,0,0c0-0.5,0-1,0-1.5c0.4-6.2,10.9-5.5,10.9,0.6v3c0,0.3,0,0.6-0.1,0.9c0.4,5.2,2.8,10.7,4.6,15.3c1.5,3.8,3,7.5,4.4,11.3c6.3-11,5.2-25.4,5.2-37.6c0-7.1,11-7.9,11-0.8c0,13.7,0.5,27.9-5,40.5c7.5,3,12.9,10,17.2,17.2c2.7,4.4,5.1,8.8,7.2,13.6c1.1,2.5,2.2,5.1,3.4,7.6c0.5,1,1.4,2.5,1.4,2.5C310.2,372,302.9,380.2,297.3,376.1z M334.7,365.2c-5.1,1.1-10.1,3.2-15.4,3.3c-3.3,0.1-5.3-2.3-5.7-4.9c-4.6-13.9-8.4-28-12.7-42c-3.9-12.8-12.1-23.7-15.2-36.8c-1-4.4,2.9-7.5,6.3-7.3c4-6.9,13.1-9.5,20.5-11c3.5-0.7,6.5,3.4,5.8,6.5c-0.5,2.3-1.6,3.9-3.3,5.6c-2.3,2.4-5.4,2-7.4,0.5c-2.6,0.9-5.1,2.1-5.8,3.3c-1.1,1.9-2.8,2.8-4.6,2.8c1.8,5.6,4.5,10.8,7.1,16.1c6.9-0.9,15.9-5.1,19.7,2.8c1.3,2.7-0.8,6.1-3.4,7c-1.9,0.7-3.6,0.3-4.9-0.8c-0.3,0-0.5,0-0.8,0.1c-1,0.1-2,0.3-3.1,0.5c-0.9,0.2-1.8,0.4-2.8,0.6c0.8,2.1,1.6,4.2,2.1,6.3c3.6,13,7.5,26,11.7,38.9c2.7-0.6,5.3-1.5,8.1-2.1c2.9-0.6,5.9,0.3,7,3.4C339,360.7,337.6,364.5,334.7,365.2z M361.7,346.8c-5.2-13.7-8-28.2-13-42c-4-11.3-6.8-23.6-13.4-33.7c-0.2-0.3-0.3-0.6-0.5-0.9c-0.1,0.1-0.3,0.1-0.4,0.2c-0.8,1.3-2.1,2.2-4.2,2.2h-2c-6.1,0-8.3-8.4-2.2-10.7c8.7-3.3,17.2-6.9,26.4-8.3c7-1,7.8,9.9,0.8,11c-2.7,0.4-5.4,1.1-8,1.9c6.2,10.3,9.2,22.2,13.3,33.5c5.1,14.3,8.1,29.2,13.5,43.3C374.6,349.8,364.2,353.4,361.7,346.8z"/><path fill="#FEBF10" d="M433 322.8c-.5 2-2 3.6-4.7 3.6-7.1 0-7.9-11-.8-11 .8 0 1.4.1 2.1.4-.1-.6-.2-1.2-.3-1.9-.3-3.2.9-6.1 2.9-8.4-9.2-6.8-11-19.8-4.7-30-8-4.1-14.4-11.4-14.1-20.9.1-2.9.8-6.4 2.2-9.6-26.5-2.5-52.4-18.2-57.5-45.4-1.8.3-3.5.7-5.3 1.1-.1.4-.3.8-.4 1.2h-4.8c-43.3 10.3-84 30-126.5 43-44.7 13.7-91.2 20.2-135.8 34 0 .3 0 .6 0 1-.5 8.2.7 16.4.5 24.6-.2 7.1-1.3 13.7-3.5 20.5-3.3 10.1-7.6 22.2-16.6 28.8 9.5 7.3 10.7 22.7 7.2 34.3 11.8 7.2 15 23.1 11.2 36.5 10 4.7 17 15.1 14.5 26 1.9.8 3.9 1.3 5.8 1.9 1.2-.4 2.6-.3 4.1.5 8.2 4.6 17.7 5.6 26.1 9.8 8.5 4.2 14.4 11.1 20.8 17.7 11.7.1 21.8-5.3 32.8-8.8 12.9-4.1 25.9-7.8 38.8-11.8 12.3-3.8 24.4-8.1 36.8-11.6 12-3.5 24.2-6.6 36.2-10.1 11.9-3.4 23.8-7.1 35.3-11.8 8.5-3.4 16.5-7.8 24.8-11.4 6.3-2.8 12.6-5.6 18.8-8.5 2.8-1.3 5.6-2.6 8.3-4 .7-.4 1.4-.7 2.1-1.1.2-.1.4-.2.6-.3.3-.4.5-.5.4-.4 1.2-1.1 2.7-1.4 4.2-1.1 5.1-3.4 10.4-6.1 16.3-7.9 1.7-20.8 7.2-40.8 18.1-58.6-.7-2.9.5-6.1 3.9-6.5 0-1.1.3-2.3.9-3.3C433.4 323.1 433.2 323 433 322.8zM404.5 249.5c7.1 0 7.9 11 .8 11C398.2 260.4 397.4 249.5 404.5 249.5zM80.5 349.5c7.1 0 7.9 11 .8 11C74.2 360.4 73.4 349.5 80.5 349.5zM92.4 382.5c0 1.5-.3 2.9-1.4 4.1-.9 1.1-2.3 1.7-3.7 1.9-1.5.1-3-.4-4.1-1.4-1-.9-1.9-2.3-1.9-3.7v-1c0-1.5.3-2.9 1.4-4.1.9-1.1 2.3-1.7 3.7-1.9 1.5-.1 3 .4 4.1 1.4 1 .9 1.9 2.3 1.9 3.7V382.5zM99.3 417.4c-1.5.1-3-.4-4.1-1.4-1-.9-1.9-2.3-1.9-3.7v-1c0-1.5.3-2.9 1.4-4.1.9-1.1 2.3-1.7 3.7-1.9 1.5-.1 3 .4 4.1 1.4 1 .9 1.9 2.3 1.9 3.7v1c0 1.5-.3 2.9-1.4 4.1C102.1 416.7 100.7 417.3 99.3 417.4zM111.3 450.4c-1.4.1-2.8-.4-3.8-1.2-.8-.2-1.5-.5-2.2-1.1-1.1-.9-1.7-2.3-1.9-3.7-.1-1.5.4-3 1.4-4.1.9-1 2.3-1.9 3.7-1.9 1.5 0 2.9.1 4.3.7 2 1 3.5 3.1 3.6 5.3C116.5 447.5 114.4 450.2 111.3 450.4zM404.8 381.4c-2.1 4.4-10.2 6.5-14.2 8.4-7.5 3.5-15.1 6.9-22.6 10.4-9.2 4.2-18.1 8.8-27.5 12.4-12.8 4.8-25.9 8.7-39.1 12.4-13.8 3.8-27.7 7.5-41.3 12-13.7 4.6-27.2 10-40.6 15.2-11.4 4.4-23 8.4-34.2 13.4-6.9 3.1-16.6 8.8-24.4 6.8-1.3-.3-2.3-1-3-1.8-1.3-.2-2.6-.9-3.5-2.5-.9-1.5-2.1-2.5-2.6-4.3-.1-.5-.2-1-.2-1.5-12-24.9-19.6-51.6-25.8-78.5-7-30.5-19.9-58.9-31-88-1.9-5 3.5-8.2 7.3-6.8.5-.5 1.2-.9 2.1-1.2 36.6-12.5 74.2-21.7 111.2-33.1 27.6-8.4 55.7-17.7 81.2-31.3 17.1-9.1 42.2-22.9 59.3-6.1 18 17.6 19.3 44.5 24.5 67.6 3.1 13.8 8.4 27 12.3 40.6 4.5 15.5 8.5 31 12.4 46.6.4 1.4.1 2.9-.5 4.1C405.5 377.6 405.8 379.4 404.8 381.4zM413.5 272.5c7.1 0 7.9 11 .8 11C407.2 283.4 406.4 272.5 413.5 272.5zM416.3 308.1c-1-.9-1.9-2.3-1.9-3.7v-1c0-1.5.3-2.9 1.4-4.1.9-1.1 2.3-1.7 3.7-1.9 1.5-.1 3 .4 4.1 1.4 1 .9 1.9 2.3 1.9 3.7v1c0 1.5-.3 2.9-1.4 4.1-.9 1.1-2.3 1.7-3.7 1.9C418.8 309.6 417.4 309.1 416.3 308.1zM306.5 191.5c-1.5 4.3-3.1 8.6-4.6 13 2.9-1 5.9-2 8.8-3C310.5 197.5 309.4 193.9 306.5 191.5z"/><path fill="#FEBF10" d="M389.8 401.1c-.2.3-.5.7-.9 1.4.3-.6.7-1.1 1.1-1.6C390 401 389.9 401.1 389.8 401.1zM461.6 139.1c-43.1-21.7-91-31.4-135.9-48.7-43.6-16.7-84.3-40.2-128-56.8-.2.3-.4.5-.6.8-5.4 6.2-9.5 13.3-14.8 19.6-4.5 5.5-9.5 10-15.4 14-8.8 5.9-19.7 12.8-30.8 12.5 3 11.6-5.5 24.4-15.5 31.5 4.9 13-2.4 27.4-13.6 35.6 5 9.9 4.1 22.4-4.6 29.4 1 1.8 2.3 3.4 3.4 5.1 1.2.4 2.2 1.3 2.9 2.9 3.6 8.7 10.5 15.3 14.6 23.8 4.1 8.5 4.5 17.6 5.5 26.8 7.7 6.2 17 8.5 26.1 11.5v3.4c6.6-1.5 13.2-3 19.8-4.5-4.4-1.3-8.7-2.6-13.1-3.7-7.3-1.8-18.5-3.3-23.4-9.7-.8-1.1-1.2-2.2-1.2-3.3-.9-.9-1.4-2.3-1.3-4.2.2-1.7-.1-3.3.5-5 .2-.5.5-.9.7-1.3 5.9-27 16.3-52.7 28-77.7 13.2-28.3 20.6-58.7 29.7-88.4 1.6-5.1 7.8-4.4 10-.9.7-.1 1.5 0 2.4.3 36.6 12.7 71.9 28.6 108 42.4 27 10.4 54.7 20.4 83.3 25.3 19.1 3.3 47.3 7.9 50.5 31.7 3.3 25-12.2 46.9-22.3 68.4-2.2 4.8-4.2 9.7-6.1 14.6 2 .1 3.7.5 5.7 1.9.4.3.7.6.9.9.7.2 1.3.4 2.1.7 5.8 2.7 2.3 11.1-3.2 10.4-.1.3-.3.6-.4.8-.3.8-.6 1.6-.8 2.5-.4 1.7-.8 3.5-.3 5.3 1.8 5.7 6.7 9.1 12.3 10.5 2.1.5 4 2.1 4.4 4.3 1.2-.2 2.4.1 3.7 1.1.6.5 1.1 1 1.4 1.6.3-.6.6-1.1.9-1.7 1.7-2.8 4.5-4.2 7.5-4.8-3.1-11 3.6-22.4 14.7-26.5-3.8-8.1-4.3-17.8 1.8-25.1 1.9-2.2 4.6-4.6 7.7-6.2C459.6 192 448.9 163.6 461.6 139.1zM120.4 183.2c-1.7 2.4-5.1 3.2-7.6 1.5-1.2-.8-2-2-2.3-3.3-.5-.6-.9-1.4-1-2.3-.3-1.4 0-2.9.8-4.1.8-1.2 2.1-2.1 3.6-2.4 1.3-.2 3 0 4.1.8 1.2.9 2.3 1.9 3 3.2C121.9 178.8 121.7 181.3 120.4 183.2zM131.8 149l-.6.8c-.9 1.2-2 2.1-3.6 2.4-1.4.3-2.9 0-4.1-.8-1.2-.8-2.1-2.1-2.4-3.6-.2-1.3 0-3 .8-4.1l.6-.8c.9-1.2 2-2.1 3.6-2.4 1.4-.3 2.9 0 4.1.8 1.2.8 2.1 2.1 2.4 3.6C132.9 146.3 132.7 147.9 131.8 149zM140.2 118.8l-.6.8c-.9 1.2-2 2.1-3.6 2.4-1.4.3-2.9 0-4.1-.8-1.2-.8-2.1-2.1-2.4-3.6-.2-1.3 0-3 .8-4.1l.6-.8c.9-1.2 2-2.1 3.6-2.4 1.4-.3 2.9 0 4.1.8 1.2.8 2.1 2.1 2.4 3.6C141.3 116 141.1 117.7 140.2 118.8zM144.5 95.3c-5.6-4.3.5-13.5 6.1-9.2C156.2 90.5 150.1 99.7 144.5 95.3zM451.3 261.5l-.6.8c-.9 1.2-2 2.1-3.6 2.4-1.4.3-2.9 0-4.1-.8-1.2-.8-2.1-2.1-2.4-3.6-.2-1.3 0-3 .8-4.1l.6-.8c.9-1.2 2-2.1 3.6-2.4 1.4-.3 2.9 0 4.1.8 1.2.8 2.1 2.1 2.4 3.6C452.4 258.8 452.1 260.4 451.3 261.5zM454.3 239.7c-5.6-4.3.5-13.5 6.1-9.2C466 234.8 459.9 244 454.3 239.7zM461.4 216c-5.6-4.3.5-13.5 6.1-9.2C473 211.2 467 220.4 461.4 216zM390 401c.1-.1.2-.2.2-.2C390.2 400.8 390.1 400.9 390 401z"/><path fill="#010101" d="M389.8 401.1c.1-.1.1-.1.2-.1.1-.1.2-.1.2-.2C390.3 400.6 390.1 400.7 389.8 401.1zM404.6 376.2c.6-1.2.9-2.7.5-4.1-3.9-15.6-7.9-31.2-12.4-46.6-3.9-13.6-9.2-26.8-12.3-40.6-5.3-23.1-6.5-50-24.5-67.6-17.1-16.8-42.2-3-59.3 6.1-25.5 13.7-53.6 22.9-81.2 31.3-37 11.3-74.6 20.5-111.2 33.1-.8.3-1.5.7-2.1 1.2-3.9-1.4-9.2 1.8-7.3 6.8 11.1 29.1 24 57.5 31 88 6.2 26.9 13.8 53.6 25.8 78.5 0 .5.1 1 .2 1.5.5 1.7 1.7 2.8 2.6 4.3 1 1.6 2.2 2.3 3.5 2.5.7.8 1.7 1.5 3 1.8 7.9 2 17.5-3.7 24.4-6.8 11.2-5 22.8-8.9 34.2-13.4 13.5-5.2 26.9-10.6 40.6-15.2 13.6-4.5 27.5-8.2 41.3-12 13.2-3.7 26.3-7.6 39.1-12.4 9.4-3.6 18.4-8.1 27.5-12.4 7.5-3.5 15.1-6.9 22.6-10.4 4-1.9 12.1-4 14.2-8.4C405.8 379.4 405.5 377.6 404.6 376.2zM392.7 376.7c-3.1 1.5-6.3 3-9.4 4.4-6.8 3.1-13.6 6.2-20.4 9.3-8.7 4-17.1 8.2-26 11.7-12.8 4.9-26 8.7-39.1 12.4-12.6 3.5-25.3 7-37.8 10.9-13.7 4.4-27.1 9.7-40.5 15-10.9 4.3-22.1 8-32.8 12.6-4.5 1.9-8.9 4-13.5 5.8-2.7 1.1-6.9 3.2-9.7 2.7-13.1-25.5-21-53.6-27.2-81.5-6.3-28.3-18.1-55-28.6-81.9.1 0 .2 0 .3-.1 57.2-19.6 117-31.2 172.8-55 11.2-4.8 21.8-10.8 32.7-16.1 8.6-4.2 19.6-9 29.2-5.4 10.6 4 15.8 17.5 18.9 27.4 3.8 11.9 5.4 24.5 8 36.7 3 14.2 8.3 27.7 12.4 41.6 4.2 14 7.8 28.2 11.4 42.4-.9 1.9-.9 4.4 1 6.3C393.7 376.2 393.3 376.4 392.7 376.7z"/><path fill="#010101" d="M176.1 410.1c-8.4-25.9-19.8-50.7-28.8-76.4 5.5-1.3 11.1-2.6 16.4-4.6 6.6-2.5 3-12.9-3.6-10.4-10.8 4.1-22.5 5-33 10-4.6 2.2-4.5 7.9-.8 9.9 3.1 4.1 10.1 2.3 10.4-2 0 0 0 0 .1 0 8.2 23.8 18.6 46.8 26.8 70.6-.5 1.4-.4 3.1.8 4.7.7 1 1.3 2 2 3C170 420 178 416.2 176.1 410.1zM212.1 392.1c-5.9-14.2-12.5-28.5-17-43.2-3.7-12.1-7.2-25.2-15.7-35-4.6-5.3-13.7.8-9.1 6.2 7.9 9.1 11 21.3 14.4 32.5 4.5 14.7 11.1 29 17 43.2C204.4 402.3 214.8 398.7 212.1 392.1zM260.3 375.5h-1.8c-1 0-1.9.2-2.6.6-6.7 1.8-13.3 6.5-20.2 4-5.1-1.8-7.4-7.8-9.3-12.4-2.2-5.4-3.7-11.1-5.3-16.7-2.5-9-6.4-17.6-8.8-26.7-1.1-4-1.9-9.3.7-12.9 2.2-3 8.3-3.5 11.2-1.5 5.8 4 13.1-4.2 7.3-8.3-10.4-7.3-26.7-3.7-30.3 9.3-3.5 12.6 3.8 25 7.5 36.6 4.1 13.2 6.3 30.3 17.5 39.6 4.7 3.9 11 4.8 16.9 4 3-.4 6-1.2 8.9-2.1 2.7-.8 6.2-2.8 9.1-2.8C268.2 386.4 267.3 375.5 260.3 375.5zM304.5 367.8c0 0-.9-1.5-1.4-2.5-1.2-2.5-2.3-5.1-3.4-7.6-2.1-4.7-4.5-9.1-7.2-13.6-4.3-7.1-9.7-14.1-17.2-17.2 5.5-12.5 5.1-26.8 5-40.5 0-7.1-11-6.2-11 .8 0 12.2 1.2 26.6-5.2 37.6-1.4-3.8-2.9-7.5-4.4-11.3-1.8-4.6-4.2-10.1-4.6-15.3 0-.3.1-.6.1-.9v-3c0-6.2-10.5-6.8-10.9-.6 0 .5 0 1 0 1.5 0 0 0 0 0 0v3c0 .6.1 1.2.2 1.7 1.1 10.5 6.3 20.6 9.9 30.4 2.7 7.3 4.9 14.9 7.5 22.3 1.4 4 2.8 7.9 4.4 11.8.7 1.7 1.4 3.4 2.1 5.2.5 1.3 2.9 4.7 2.9 5.8 0 7.1 11 6.2 11-.8v-2.1c0-2.1-1-3.5-2.4-4.3-.4-.8-.8-1.5-1.1-2.2-1.7-3.9-3.2-7.9-4.7-11.9-2.2-5.9-4.1-11.8-6.1-17.7 9 .4 14.1 12 18.2 18.6 2.3 3.7 3.7 7.9 5.5 11.9 1.3 3 2.7 7.2 5.5 9.2C302.9 380.2 310.2 372 304.5 367.8zM338.1 358.1c-1.1-3.1-4.1-4-7-3.4-2.7.6-5.4 1.5-8.1 2.1-4.2-12.9-8.2-25.9-11.7-38.9-.6-2.2-1.3-4.3-2.1-6.3.9-.2 1.9-.4 2.8-.6 1-.2 2-.4 3.1-.5.3 0 .5-.1.8-.1 1.3 1 3 1.4 4.9.8 2.6-.9 4.7-4.3 3.4-7-3.9-7.9-12.8-3.8-19.7-2.8-2.6-5.3-5.3-10.5-7.1-16.1 1.7-.1 3.5-.9 4.6-2.8.7-1.2 3.2-2.4 5.8-3.3 2.1 1.5 5.1 1.9 7.4-.5 1.6-1.7 2.7-3.3 3.3-5.6.7-3.2-2.3-7.3-5.8-6.5-7.4 1.5-16.4 4.1-20.5 11-3.4-.2-7.3 2.9-6.3 7.3 3.1 13.1 11.3 24.1 15.2 36.8 4.3 14 8.2 28.1 12.7 42 .4 2.6 2.3 5 5.7 4.9 5.3-.1 10.2-2.2 15.4-3.3C337.6 364.5 339 360.7 338.1 358.1zM372.1 343.1c-5.3-14.2-8.4-29.1-13.5-43.3-4-11.3-7.1-23.2-13.3-33.5 2.6-.8 5.3-1.5 8-1.9 7-1 6.2-12-.8-11-9.2 1.4-17.7 5-26.4 8.3-6 2.3-3.9 10.7 2.2 10.7h2c2 0 3.4-.9 4.2-2.2.1-.1.3-.1.4-.2.1.3.3.6.5.9 6.5 10.2 9.3 22.5 13.4 33.7 5 13.8 7.8 28.3 13 42C364.2 353.4 374.6 349.8 372.1 343.1zM80.5 349.5c-7.1 0-6.2 11 .8 11C88.4 360.4 87.5 349.5 80.5 349.5zM90.5 377.8c-1.1-1-2.6-1.5-4.1-1.4-1.4.1-2.8.8-3.7 1.9-1 1.2-1.4 2.5-1.4 4.1v1c0 1.4.9 2.8 1.9 3.7 1.1 1 2.6 1.5 4.1 1.4 1.4-.1 2.8-.8 3.7-1.9 1-1.2 1.4-2.5 1.4-4.1v-1C92.4 380.2 91.5 378.7 90.5 377.8zM102.5 406.8c-1.1-1-2.6-1.5-4.1-1.4-1.4.1-2.8.8-3.7 1.9-1 1.2-1.4 2.5-1.4 4.1v1c0 1.4.9 2.8 1.9 3.7 1.1 1 2.6 1.5 4.1 1.4 1.4-.1 2.8-.8 3.7-1.9 1-1.2 1.4-2.5 1.4-4.1v-1C104.4 409.2 103.5 407.7 102.5 406.8zM112.8 439.2c-1.4-.7-2.8-.7-4.3-.7-1.4 0-2.8.9-3.7 1.9-1 1.1-1.5 2.6-1.4 4.1.1 1.4.8 2.8 1.9 3.7.7.6 1.4.9 2.2 1.1 1.1.8 2.4 1.3 3.8 1.2 3.1-.2 5.2-2.9 5.1-5.9C116.3 442.3 114.8 440.2 112.8 439.2zM404.5 249.5c-7.1 0-6.2 11 .8 11C412.4 260.4 411.5 249.5 404.5 249.5zM413.5 272.5c-7.1 0-6.2 11 .8 11C421.4 283.4 420.5 272.5 413.5 272.5zM423.5 298.8c-1.1-1-2.6-1.5-4.1-1.4-1.4.1-2.8.8-3.7 1.9-1 1.2-1.4 2.5-1.4 4.1v1c0 1.4.9 2.8 1.9 3.7 1.1 1 2.6 1.5 4.1 1.4 1.4-.1 2.8-.8 3.7-1.9 1-1.2 1.4-2.5 1.4-4.1v-1C425.4 301.2 424.5 299.7 423.5 298.8z"/><path fill="#010101" d="M494.1,213.1c-0.4-0.7-0.7-1.3-1.2-1.8c0-0.4-0.1-0.8-0.2-1.3c-1-3.3-2.9-4.6-5.4-6.8c-2.6-2.3-4.9-4.8-7.1-7.5c-4.4-5.3-7.8-11.2-10.3-17.6c-4.9-12.5-3.8-26.3,3.6-37.6c2.3-3.5,0-7.1-3-8.2c-0.4-0.7-0.9-1.3-1.7-1.9l-1.6-1.2c-1.1-0.8-2.2-1.2-3.2-1.1c-42.4-20.6-88.9-30.8-133-47.4c-45.5-17.1-87.7-42-133.3-58.8c-2.4-0.9-4.8,0.2-6.3,2.2l-1.2,1.6c-0.2,0.2-0.3,0.5-0.5,0.7c-9.1,10.4-15.5,23-26.8,31.1c-7.9,5.7-18.8,13.4-29.1,11.7c-2.6-0.4-4.4,0.9-5.2,2.7c-2.1,0.2-4.3,1.7-5.1,3.7c-0.8,2.1-0.7,4.1-0.5,6.4c0.2,2.2,1.5,3.6,3,4.1c-0.4,7.5-9.8,16.2-15,18.8c-3.4,1.7-3.8,5.6-1.8,8.6c6.9,9.8-3.7,23-12.3,27.4c-3.2,1.6-4.1,5.8-1.8,8.6c5,6,6.3,16.4-1.8,20.4c-2.2,1.1-3.5,3.6-3,6c0.6,2.9,1.8,5.3,3.5,7.6c1.3,1.9,3.8,4.1,3.4,6.5c-0.6,3.5,1.8,5.4,4.5,5.6c3.3,5.7,7.6,10.8,10.9,16.6c4.7,8.3,4.5,18,5.5,27.3c0.3,2.2,1.5,3.5,3,4.1c0,0,0.1,0.1,0.1,0.1c5.4,4.7,11.7,7.8,18.4,10.2c-20.8,4.6-41.4,9.5-61.7,16c-2.5,0.8-3.7,3.2-3.7,5.6v2c0,0.3,0,0.6,0.1,0.9c-0.8,13.7,2,27.6-1.9,41c-2.7,9.3-6.6,22.1-15.7,27.1c-2.3,1.3-2.9,3.4-2.4,5.3c-1.6,1.5-2.3,3.9-1.7,6.1c0.7,2.2,2,3.7,3.6,5.3c1.6,1.6,3.3,1.9,4.9,1.4c4.3,6.1,2.3,18.8-0.2,24.1c-1.6,3.5,0.5,6.8,3.9,7.8c11.5,3.5,11.3,20.4,7.1,29.2c-1.6,3.3,0.3,7.1,3.9,7.8c7.6,1.7,15,9.1,11.1,17.2c-1.1,2.2-0.6,5,1.3,6.6c2.2,1.9,4.7,3,7.4,3.9c2.2,0.7,5.5,0.9,6.6,3.1c1.6,3.1,4.7,3.2,7,1.6c6.1,2.4,12.7,3.8,18.8,6.4c8.8,3.6,14.6,11.5,21.1,18.1c1.6,1.6,3.3,1.9,4.9,1.3c0,0,0.1,0,0.1,0c12,0.7,23.4-4,34.3-8.2c13-4.9,26.7-8.3,40-12.4c12.9-3.9,25.6-8.4,38.6-12.2c12.6-3.7,25.3-6.9,37.9-10.6c12.5-3.6,24.9-7.6,36.9-12.6c8.1-3.3,15.8-7.5,23.7-11c6.8-3,13.5-6.1,20.2-9.3c2.1-1,5.5-2.1,8.3-3.7c1.1,0.1,2.4-0.1,3.6-1c6.2-4.4,12.3-7.6,19.7-9.4c2.6-0.6,3.5-3.3,3.7-5.6c1.1-21,6.8-42.3,18.6-59.9c1.1-1.6,1.4-3.4,1-5c2.6-1.2,4.2-3.2,5.8-6.2c1-2,0.7-5.2-1.3-6.6c-1.7-1.2-3.7-2-5.3-3.2c-1.9-1.5,4-4.7,4.7-5.1c1.8-0.9,2.4-3.1,2.4-5v-1c0-2.5-2.2-4.5-4.4-5c-1.1-0.2-2.2-0.6-3.1-1.1c0.9-0.3,1.8-0.6,2.6-0.9c1.9-0.6,3.2-1.9,3.9-3.3c2.8,0.7,5.3,0.1,8.3-1.3c2-0.9,3.7-3.7,3-6c-0.6-1.9-1.7-3.9-2.1-5.8c-0.6-2.4,6-1.2,6.8-1.1c2,0.4,3.8-1,5-2.4l0.6-0.8c1.5-1.9,1-4.9-0.4-6.7c-3.6-4.3-4-9.4,0-13.6c4.3-4.5,11.1-3.2,14.8-7.8c1.5-2,1-4.8-0.4-6.7c-3.6-4.6-5.3-10.3-3.3-15.9c0.6-1.7,2.1-2.9,3.5-4c0.7-0.6,1.4-1,2.2-1.5c0.3-0.1,0.6-0.3,0.8-0.4C489.1,223.3,497.1,218.9,494.1,213.1z M432.7,326.5c-3.4,0.4-4.7,3.7-3.9,6.5c-10.8,17.9-16.4,37.8-18.1,58.6c-5.9,1.8-11.1,4.5-16.3,7.9c-1.5-0.2-3,0.1-4.2,1.1c0,0-0.1,0.1-0.2,0.2c-0.4,0.4-0.8,0.9-1.1,1.6c0.3-0.7,0.6-1.1,0.9-1.4c-0.1,0.1-0.3,0.2-0.6,0.3c-0.7,0.4-1.4,0.8-2.1,1.1c-2.8,1.4-5.5,2.7-8.3,4c-6.2,2.9-12.5,5.8-18.8,8.5c-8.4,3.7-16.4,8-24.8,11.4c-11.5,4.7-23.4,8.3-35.3,11.8c-12,3.5-24.2,6.6-36.2,10.1c-12.4,3.6-24.5,7.8-36.8,11.6c-12.9,4-25.9,7.8-38.8,11.8c-11,3.5-21.1,8.9-32.8,8.8c-6.4-6.7-12.3-13.5-20.8-17.7c-8.4-4.1-17.9-5.1-26.1-9.8c-1.5-0.8-2.9-0.9-4.1-0.5c-1.9-0.6-3.9-1.1-5.8-1.9c2.5-10.9-4.5-21.3-14.5-26c3.8-13.3,0.7-29.3-11.2-36.5c3.5-11.7,2.3-27.1-7.2-34.3c9-6.5,13.3-18.7,16.6-28.8c2.2-6.7,3.3-13.4,3.5-20.5c0.2-8.2-0.9-16.4-0.5-24.6c0-0.3,0-0.6,0-1c44.6-13.9,91.1-20.4,135.8-34c42.5-13,83.2-32.7,126.5-43h4.8c0.2-0.4,0.3-0.8,0.4-1.2c1.7-0.4,3.5-0.8,5.3-1.1c5.1,27.2,31,42.9,57.5,45.4c-1.4,3.2-2.1,6.7-2.2,9.6c-0.3,9.5,6.1,16.8,14.1,20.9c-6.3,10.1-4.5,23.2,4.7,30c-2,2.3-3.3,5.2-2.9,8.4c0.1,0.6,0.2,1.3,0.3,1.9c-0.6-0.2-1.3-0.4-2.1-0.4c-7.1,0-6.2,11,0.8,11c2.7,0,4.3-1.6,4.7-3.6c0.2,0.1,0.3,0.3,0.5,0.4C433,324.3,432.7,325.4,432.7,326.5z M424,178c-8.1-4.6-17.1-7-25.9-9.7c-6.2-1.9-9.6,6-4.8,9.8l1.6,1.2c1.6,1.2,3.2,1.4,4.6,0.9c0.1,0,0.3,0.1,0.4,0.1c-0.1,0.3-0.1,0.6-0.2,1c-1.1,12-6.5,23.4-10.2,34.8c-0.9,2.7-1.9,5.3-2.9,8c-8.1-5.4-14-13.2-16.7-22.3c0.3-0.4,0.5-0.8,0.6-1.3c0.7-3.4-0.3-5.8-2.2-7.6c-0.7-3.2-3.6-4.5-6.3-4.1c-1.8-0.9-3.7-1.7-5.2-2.7c1.2-5.8,2.3-11.5,4.3-17.1c1.4,1,3.3,1.4,5.3,0.6c1.3-0.5,4,0.1,6.6,0.9c0.7,2.5,2.9,4.6,6.2,4.2c2.3-0.3,4.2-0.9,6-2.4c2.5-2,2.6-7.2-0.6-8.7c-6.8-3.3-15.4-6.9-22.9-3.9c-2.5-2.2-7.6-2.2-9.5,1.9c-4.4,9.6-5.6,20-8.1,30.1c-7.7,1.9-15.3,4.1-22.9,6.4c-0.5-3.4-1.4-6.7-3.1-9.7c12.1-6.5,20.5-18,28.9-28.8c4.4-5.6-4.8-11.7-9.2-6.1c-7.5,9.6-15.4,21.7-27.2,26.5c1.2-3.8,2.3-7.7,3.5-11.6c1.4-4.8,2.9-10.5,5.8-14.9c0.2-0.2,0.4-0.4,0.6-0.7l1.8-2.4c3.8-4.9-4.1-11.8-8.2-7.2c-0.3,0.4-0.6,0.8-0.9,1.1c0,0,0,0,0,0l-1.8,2.4c-0.4,0.5-0.7,1-0.8,1.5c-5.6,9-7.7,20.1-10.9,30.1c-2.4,7.5-5.3,14.8-7.8,22.2c-1,2.8-1.9,5.7-2.8,8.5c-5.5,2-10.9,4-16.4,6.1c0,0-0.1,0-0.1,0c-6.4-2.7-14.4-3.1-18.4-9.3c-2.9-4.5-1-10.7,0.3-15.4c1.6-5.6,3.9-11,6.1-16.4c3.6-8.7,5.8-17.8,9.5-26.4c1.6-3.8,4.3-8.5,8.5-9.7c3.5-1,8.7,2.3,9.8,5.7c2,6.7,12.9,4.7,10.8-2c-3.7-12.1-18.7-19.4-29.6-11.3c-10.5,7.8-12.4,22-16.7,33.5c-4.8,12.9-13.7,27.7-10.5,42c1.3,6,5.8,10.5,10.9,13.6c1.1,0.7,2.3,1.2,3.5,1.8c-12.3,4.6-24.7,9-37.2,12.9c-7.8,2.4-15.7,4.7-23.7,6.7c-8.4-2.7-16.7-5.4-25.2-7.7c-4.7-1.3-9.5-2.4-14.2-3.7c-2.8-0.8-7.4-1.8-9.3-3.8c5.4-28.2,16.5-55.2,28.7-81c12.4-26.2,19.5-54.5,27.9-82.2c0.1,0,0.2,0.1,0.3,0.1c57.1,19.8,111.4,47.4,170,63c11.8,3.1,23.8,4.9,35.7,7.5c9.3,2,21,5,26.3,13.7c5.9,9.7,1.7,23.5-1.9,33.3c-4.4,11.7-10.8,22.6-16.3,33.8c-3.1,6.3-5.7,12.9-8.1,19.5c-0.6-0.1-1.2-0.2-1.8-0.4c-3.9-0.8-7.7-2.1-11.3-3.6c1.4-3.6,2.8-7.3,4-11c3.8-11.4,8.7-22.6,10.2-34.6c2.6,1,5.1,2.1,7.4,3.4C424.1,190.6,430.2,181.5,424,178z M310.8,201.4c-2.9,1-5.9,2-8.8,3c1.5-4.3,3-8.6,4.6-13C309.4,193.9,310.5,197.5,310.8,201.4z M265,218c-2,0.7-4,1.5-6,2.2V218H265z M442.3,284.9c-3-1.8-5.9,0-7.1,2.7c-0.2,0.1-0.4,0.2-0.6,0.3c0,0,0-0.1,0-0.1c0.3-2.7,1.6-4.9,3.1-6.9c0.3,0.5,0.7,0.9,1.3,1.3c2.1,1.7,4.4,1.3,6,0.1c0,0.2,0.1,0.4,0.1,0.7C443.9,283.3,443,284.1,442.3,284.9z M471.3,216.5c-6.1,7.3-5.5,17-1.8,25.1c-11.2,4.1-17.9,15.5-14.7,26.5c-3,0.6-5.8,2.1-7.5,4.8c-0.3,0.6-0.7,1.1-0.9,1.7c-0.3-0.6-0.8-1.1-1.4-1.6c-1.2-1-2.5-1.3-3.7-1.1c-0.3-2.2-2.3-3.8-4.4-4.3c-5.6-1.4-10.5-4.8-12.3-10.5c-0.5-1.7-0.1-3.6,0.3-5.3c0.2-0.9,0.5-1.7,0.8-2.5c0.1-0.3,0.3-0.6,0.4-0.8c5.5,0.8,9-7.6,3.2-10.4c-0.7-0.3-1.4-0.6-2.1-0.7c-0.3-0.3-0.6-0.6-0.9-0.9c-2-1.4-3.7-1.7-5.7-1.9c1.9-4.9,3.8-9.9,6.1-14.6c10.1-21.5,25.6-43.4,22.3-68.4c-3.2-23.8-31.4-28.4-50.5-31.7c-28.6-4.9-56.3-14.9-83.3-25.3c-36.1-13.9-71.4-29.8-108-42.4c-0.8-0.3-1.6-0.4-2.4-0.3c-2.2-3.5-8.4-4.2-10,0.9c-9.2,29.7-16.5,60.1-29.7,88.4c-11.7,25-22.1,50.7-28,77.7c-0.3,0.4-0.5,0.8-0.7,1.3c-0.7,1.7-0.4,3.3-0.5,5c-0.2,1.8,0.3,3.2,1.3,4.2c0,1.1,0.4,2.2,1.2,3.3c5,6.4,16.1,7.9,23.4,9.7c4.4,1.1,8.8,2.4,13.1,3.7c-6.6,1.5-13.2,3-19.8,4.5V247c-9.2-3-18.4-5.4-26.1-11.5c-1-9.2-1.4-18.2-5.5-26.8c-4.1-8.4-11-15.1-14.6-23.8c-0.6-1.6-1.7-2.5-2.9-2.9c-1.1-1.7-2.4-3.3-3.4-5.1c8.7-7.1,9.6-19.5,4.6-29.4c11.2-8.2,18.5-22.6,13.6-35.6c9.9-7.1,18.5-19.9,15.5-31.5c11.1,0.4,22-6.6,30.8-12.5c5.9-3.9,10.9-8.5,15.4-14c5.2-6.3,9.3-13.5,14.8-19.6c0.2-0.2,0.4-0.5,0.6-0.8c43.7,16.5,84.4,40.1,128,56.8c44.9,17.2,92.8,27,135.9,48.7c-12.7,24.6-2,52.9,17.4,71.2C476,211.9,473.2,214.3,471.3,216.5z"/><path fill="#010101" d="M232.2 111c-11-3.4-20.8-9.9-32.2-12.4-5-1.1-8.4 3.5-6.7 7.3-.1 5.2 6.5 8 9.4 4.9 0 0 0 0 .1 0-8.2 23.8-14.1 48.3-22.3 72.2-1.3.8-2.2 2.2-2.3 4.2 0 1.2-.2 2.4-.3 3.6-.2 6.2 8.5 8.1 10.7 2.1 9.3-25.6 15.6-52.1 24.4-77.9 5.2 2.3 10.3 4.8 15.8 6.4C235.5 123.5 239 113.1 232.2 111zM250.5 119.1c-.3-7-11.3-7.8-11-.8.6 12-4.4 23.5-8.7 34.5-5.5 14.3-9.1 29.7-13.2 44.5-1.9 6.8 8.5 10.4 10.4 3.5 4.1-14.8 7.7-30.1 13.2-44.5C245.8 144.5 251.1 132 250.5 119.1zM150.6 86.2c-5.6-4.4-11.6 4.8-6.1 9.2C150.1 99.7 156.2 90.5 150.6 86.2zM141.1 114.7c-.3-1.4-1.1-2.7-2.4-3.6-1.2-.8-2.7-1.1-4.1-.8-1.5.3-2.6 1.2-3.6 2.4l-.6.8c-.8 1.1-1.1 2.8-.8 4.1.3 1.4 1.1 2.7 2.4 3.6 1.2.8 2.7 1.1 4.1.8 1.5-.3 2.6-1.2 3.6-2.4l.6-.8C141.1 117.7 141.3 116 141.1 114.7zM132.7 144.9c-.3-1.4-1.1-2.7-2.4-3.6-1.2-.8-2.7-1.1-4.1-.8-1.5.3-2.6 1.2-3.6 2.4l-.6.8c-.8 1.1-1.1 2.8-.8 4.1.3 1.4 1.1 2.7 2.4 3.6 1.2.8 2.7 1.1 4.1.8 1.5-.3 2.6-1.2 3.6-2.4l.6-.8C132.7 147.9 132.9 146.3 132.7 144.9zM120.8 176.8c-.7-1.4-1.8-2.3-3-3.2-1.1-.8-2.8-1.1-4.1-.8-1.4.3-2.7 1.1-3.6 2.4-.8 1.2-1.1 2.7-.8 4.1.2.9.5 1.6 1 2.3.3 1.3 1.1 2.5 2.3 3.3 2.5 1.7 5.9.9 7.6-1.5C121.7 181.3 121.9 178.8 120.8 176.8zM467.5 206.8c-5.6-4.4-11.6 4.8-6.1 9.2C467 220.4 473 211.2 467.5 206.8zM460.4 230.5c-5.6-4.4-11.6 4.8-6.1 9.2C459.9 244 466 234.8 460.4 230.5zM452.1 257.5c-.3-1.4-1.1-2.7-2.4-3.6-1.2-.8-2.7-1.1-4.1-.8-1.5.3-2.6 1.2-3.6 2.4l-.6.8c-.8 1.1-1.1 2.8-.8 4.1.3 1.4 1.1 2.7 2.4 3.6 1.2.8 2.7 1.1 4.1.8 1.5-.3 2.6-1.2 3.6-2.4l.6-.8C452.1 260.4 452.4 258.8 452.1 257.5z"/></svg>