<svg xmlns="http://www.w3.org/2000/svg" viewBox="0 0 512 512" width="48px" height="48px"><path fill="#74CCCF" d="M338.5,289.5C338.5,289.5,338.5,289.4,338.5,289.5c0-23.4-1-46.7-1-70.1c0-0.3,0-0.6,0.1-0.9c-6.4,0.6-12.7,1.1-19.1,1.5c0.1,14,1,27.9,1.6,41.9c0.2,5.2,0.3,10.5,0.5,15.7c0.1,2.2,0.2,4.5,0.3,6.7c0.1,0.7,0.1,1.4,0.2,2.1c0.2,1-0.2-0.4-0.2-0.5c-0.2-0.2-0.3-0.4-0.5-0.6c0.6,1.4,0.7,2.9,0.3,4.3C326.7,289.6,332.6,289.5,338.5,289.5z"/><path fill="#C56528" d="M331.6,139.6c-1.9,6.3-3.9,12.3-6.7,18.3c-2.3,4.9-4.2,9.5-4.4,14.9c5.6,0,11.3,0,17-0.3v-50.8C335.5,127.5,333.5,133.4,331.6,139.6z"/><path fill="#3AB37C" d="M373.4 216.1c-.6.2-1.2.4-2 .4-7.7 0-15.4.5-23 1.1.1.3.1.6.1 1 0 23.3 1 46.7 1 70 0 .3 0 .7-.1 1 7.1.2 14.1.9 21.2 1 .9 0 1.7.2 2.4.5-.3-19.3-.2-38.6.1-58C373.2 227.4 373.3 221.8 373.4 216.1zM333.5 98.3c-4.8-2-10.5-2-15.8-2.3-4.7 13.1-8.3 26.9-14.1 39.6-2.9 6.5-5.3 13.7-8.7 19.9-2.6 5-7.9 10.2-7.4 16.1 0 .2 0 .4 0 .6 7.3.3 14.7.5 22 .6v-.4c0-.6.1-1.1.2-1.7 1.1-10.1 6.5-18.3 9.6-28.1 2.9-9.6 5.4-19.4 9.1-28.7 1.5-3.6 3.1-7.3 4.1-11.1C332.9 101.5 333.5 99.7 333.5 98.3z"/><path fill="#C56528" d="M368.5 460.5C368.5 460.5 368.4 460.5 368.5 460.5c-6.1 0-12.1.3-18.2.6 1 3.1 1.9 6.4 3.9 8.8 3.3 3.8 9.8 2.7 13.7.6 3.5-1.9 4.3-1.4 4.5-5.1.1-1.5.2-2.9.5-4.2C371.4 460.9 369.9 460.7 368.5 460.5zM158.5 458.4c0-.3 0-.6.1-.9-7-.3-14.1-.6-21.1-.7.1 2.7.4 5.5 1.8 7.4 1.8 2.6 5.1 3.4 8.1 3.9 3.4.6 9.2 3.3 10.7-.6C158.9 465.3 158.5 461.1 158.5 458.4z"/><path fill="#EF4823" d="M374.4,136.5c-0.1-13.7-0.7-27.5-1.1-41.2c-7.9,2.1-16.7,2.2-24.8,2.2v73.9c7.7-1,15.4-1.8,23.1-1.9c1,0,1.9,0.2,2.7,0.6C374.4,158.9,374.5,147.7,374.4,136.5z"/><path fill="#C56528" d="M372.5 65.5c-9 .2-18 1-27.1 1.5-11.7.6-23.5.6-35.2 1.7-24.4 2.3-49 .8-73.4 3.2-12.7 1.2-25.3.8-38 .2-9.2-.4-18.4-.3-27.5-.8-6.7-.4-13.5-.8-20.2-.9-3.2 0-6.5-.1-9.7.2-.1 0-.3 0-.4 0 0 0-.1.1-.1.1-1.8 7.9.2 16.6.5 24.6.3 7.5-.9 15.1-.9 22.6-.1 7.6 0 15.1-.2 22.7-.3 11.2.1 22 1.2 33 .3-.1.7-.1 1.1-.1 38.7 1 77.2-4.2 115.9-2.6 6 .2 12 .5 18 .8-.3-7.2 3.6-12.5 7.1-18.5 3.8-6.5 6.3-14.1 9.4-20.9 6.5-14.4 10.4-29.9 16-44.6.9-2.3 3.7-3.3 6-3 7.9 1.4 17 .2 24.2 4.3.4.2.7.4 1 .7.3-.2.7-.3 1-.5.7-1.5 2.1-2.6 4.4-2.6h.9c0 0 0 0 0 0 8.5 0 18.3.1 26.3-2.6C372.7 77.8 372.6 71.6 372.5 65.5zM372.4 180.5c-8.8.1-17.3 1.5-26 2.2-.4 0-.9.1-1.3.1-1.4.6-3 .7-4.4.3-8 .5-16 .8-24 .7-19.8-.1-39.6-1.3-59.4-2-38-1.4-75.9 3.7-113.9 2.7-.3 0-.5 0-.8-.1.1.6.1 1.2.2 1.8 2.1 15.9 1.6 31.9 1.5 47.9-.1 18.8-.3 37.6-.5 56.4 19.5-.9 39 1.9 58.5 2 14 .1 28.1.6 42.1.3-.1-10.9-.9-21.7-1.8-32.6-.6-6.9-2-13.8-2.6-20.7-1.1-12.6-.8-29.4 14.6-32.1 14.4-2.5 29.3 2.2 43.8 2.2 24.1 0 48-4 72.1-4.1 1.2 0 2.2.3 3.1.8.2-8.7.4-17.4.5-26.1C373.6 180.4 373.1 180.5 372.4 180.5zM374.4 353.8c-.7 2.7-1.3 5.5-2.2 7.7-3.2 8.5-8.5 16.3-12.1 24.7-3.6 8.1-7.1 15.7-11.7 23.3-3.5 5.8-7 11.6-9 18h23.5c3.5 0 7.2-.2 10.7.1-.3-2.3-.4-4.6-.6-6.9-.8-15.1.3-30.3 1-45.4C374.3 368.1 374.5 361 374.4 353.8z"/><path fill="#FEBF10" d="M309.8,282.2c-0.3-5.8-0.4-11.6-0.6-17.4c-0.6-14.8-1.7-29.4-1.7-44.3c-1.5,0-2.9,0.1-4.4,0.1c-6.3,0.1-12.5-0.2-18.7-0.8c-0.2,23.3-1.8,46.9,3,69.8c0.1,0.4,0.1,0.8,0.1,1.2c7.8-0.3,15.6-0.6,23.4-0.8C309.9,287.7,310,284.9,309.8,282.2z"/><path fill="#C56528" d="M400.6,408.6c-0.7-32.6-0.1-65.2-0.4-97.8c-0.4-32.8-1.7-65.6-2.7-98.4c-1-32.2-2.8-64.5-1.9-96.7c0.7-22.9,5.6-50.7-6-71.7c-0.3-0.1-0.5-0.1-0.8-0.2c-1.2-0.2-2.5-0.3-3.7-0.4c-3.7-0.1-7.3-0.1-11,0c-7,0.2-14,0.7-21,0.9c-27,1-54.3-0.3-81.3-0.1c-29.3,0.2-58.6,1.7-87.9,2.9c-14,0.6-28.2,1.8-42.2,1.8c-5.7,0-11.4,0.2-17.1,0.5c-1.8,0.1-3.5,0.2-5.3,0.4c-0.1,0-0.2,0-0.3,0c-0.1,0.1-0.3,0.1-0.5,0.2c-0.1,4.8-0.2,9.6,0,14.4c0.4,16.1,1.8,32.1,2.1,48.2c0.3,16.3-0.6,32.6-1.4,48.8c-1.7,32.5-1.5,64.9-0.7,97.5c0.8,32.6,1.8,65.2,1.1,97.9c-0.6,29.6-1.7,59-1.9,88.6c42.5,0.3,84.9,3.8,127.4,5.7c21.4,1,42.8,1.6,64.3,1.1c19.5-0.5,38.9-2.7,58.4-2.8c0.3,0,0.6,0,0.8,0.1c0.5-0.1,1.1-0.1,1.6,0c7.6,1.2,19.4,4.1,24.7-3.6C401.9,435.6,400.9,420.6,400.6,408.6z M376.4,439.1c-2.4-1.7-8.1-0.6-10.7-0.6h-15.3c-9.6,0-19.3,0-28.9,0c-19.8-0.1-39.6-0.6-59.3-1.3c-39.6-1.5-79.1-3.6-118.7-3.7c-0.2,0-0.5,0-0.7,0c-3.2,1.9-8.2,0.8-8.2-4c0-5.7-0.1-11.5-0.3-17.2c-1-32.5-1.8-64.9-1.5-97.4c0.3-32.5,0.7-65,0.8-97.5c0-8.3,0-16.5-0.9-24.8c-0.8-7.2-2-14.3-2.7-21.5c-1.5-15.4-0.4-30.9-0.3-46.4c0-12.4,1.2-24.6,0.4-37c-0.4-5.1-1.7-13.4,0.2-19.5c-0.4-1.5-0.3-3.2,0.8-4.8c2.9-4.2,10.9-3.9,15.3-3.9c7-0.1,14.1,0.3,21.1,0.7c9,0.5,18,0.5,27,0.8c12.6,0.5,25.6,1.6,38.2,0.3c25.6-2.7,51.4-1.2,77.1-3.6c11.7-1.1,23.4-1,35.2-1.7c9.6-0.5,19.3-1.5,28.9-1.5c1.5,0,2.8,0.5,3.7,1.3c3-0.6,6.2,0.9,6.2,4.8c0,2.9,0,5.8,0,8.7c0.1,27.3,2.2,54.5,1.8,81.8c-0.5,32.1-0.9,64.2-1.5,96.3c-0.5,32,0.9,63.8,1.5,95.8c0.6,29.8-4.5,60.2,0.1,89.8C387.2,437.2,381.2,442.6,376.4,439.1z"/><path fill="#16B7B8" d="M354.7,336c-5.2-2.9-7.8-3.5-10.8,2.2c-3.5,6.6-7.3,12.8-11,19.2c-4,6.9-7.1,14.1-10.6,21.3c-3.8,7.6-8.1,14.9-12.8,21.9c-2.2,3.3-5,6.4-6.9,9.9c-0.7,1.3-1.9,3-1.6,4.5c0.4,2.2,8.1,3.8,9.7,4.3c6.3,1.7,12,4.2,18.3,5c2.3-7,5.8-13.3,9.7-19.6c4.6-7.6,8.1-15.2,11.7-23.3c3.9-8.7,9.9-17.3,12.7-26.5c1-3.4,1.9-7.4,3.5-10.9C362.5,341.3,358.8,338.3,354.7,336z"/><path fill="#74CCCF" d="M276.5,290.4c-4.9-23.6-3.2-47.9-3-71.9c-4.3-0.5-8.6-0.9-12.9-0.7c-4.9,0.2-8.3,0.6-9.3,6c-1.2,6.5-0.5,13.2,0.3,19.7c2.1,16.3,3.7,32.5,3.9,48.9c1-0.1,2-0.1,3-0.2c6.1-0.4,12.2-0.7,18.3-1C276.7,291,276.6,290.7,276.5,290.4z"/><path fill="#C56528" d="M373.9,328.6c-0.3-9.1-0.6-18.2-0.7-27.3c-0.5,0.2-1.1,0.2-1.7,0.2c-8-0.1-16-1-24-1c-9.9,0-19.8,0.1-29.6,0.3c-19.5,0.4-39,1.2-58.5,2.4c-19.3,1.2-38.6,0.3-58,0.3c-19-0.1-37.9-2.9-56.9-2c-0.2,0-0.4,0-0.6,0c-0.1,10-0.2,19.9-0.2,29.9c-0.2,30.4,1.6,60.8,1.9,91.2c41.3,0.1,82.5,2.5,123.7,3.9c10.4,0.4,20.7,0.6,31.1,0.8c-3.9-1.6-7.5-4-9.4-8c-2.7-6,0.6-12.5,4.1-17.3c6.1-8.5,11.9-17.2,16.6-26.6c4.7-9.4,8.8-19,14.5-27.8c4.3-6.7,7-15.4,12.6-21c11.2-11.3,25.7,3.6,35.4,9.4C374.1,333.5,374,331,373.9,328.6z"/><path d="M411.3,321.8c-0.6-65.8-4.6-131.5-4.8-197.2c-0.1-29,7.2-62.4-8.9-88.6c-1.2-2-3.1-2.7-4.8-2.4c-3-0.9-6.6-0.9-9.4-1c-8.2-0.3-16.5,0.2-24.7,0.7c-25.9,1.3-52,0.1-77.9,0.1c-31.3,0.1-62.6,1.5-93.9,2.8c-14.8,0.6-29.6,1.8-44.3,2c-9.2,0.1-20-0.8-29.1,1.7c-1.9,0.5-3.3,2.4-3.7,4.4c-1.2,1-2.1,2.4-2.2,4.3c-0.6,15.9,0.5,31.8,1.3,47.7c0.8,16.3,0.8,32.5,0.1,48.8c-0.7,16.2-1.8,32.4-2.2,48.7c-0.4,16.2-0.1,32.5,0.3,48.8c0.6,32.6,1.8,65.1,1.7,97.7c-0.1,31.7-2,63.3-2.1,95c0,5.5,0,10.9,0,16.4c0,3.8,3.2,5.3,6.1,4.8c0.5,0.2,1.1,0.3,1.8,0.3c4.1,0,8.1,0,12.2,0.1c0.2,5.1,1.1,10.2,4.1,14.5c3.9,5.5,10.9,7.3,17.3,8.3c6.6,1,13.2,2.5,17.9-3.4c4-5,3.6-11.9,3.6-17.9c24.8,1.2,49.5,2.9,74.3,4c21.4,1,42.9,1.6,64.3,1.2c10.2-0.2,20.5-0.9,30.7-1.5c0,0,0,0.1,0,0.1c2.5,5.5,3.6,12,8.2,16.3c5.3,5,13.3,6.3,20.3,4.3c5-1.4,12.1-4.1,14.5-9.1c1.8-3.7,0.9-7.8,2.4-11.4c5.4-0.2,10.6-1.4,15.1-4.9c10.9-8.4,12.2-25.9,12.4-38.4C412.3,386.4,411.5,354,411.3,321.8z M158.1,467.6c-1.5,3.9-7.3,1.2-10.7,0.6c-2.9-0.5-6.2-1.4-8.1-3.9c-1.4-2-1.8-4.8-1.8-7.4c7,0.2,14.1,0.4,21.1,0.7c0,0.3-0.1,0.6-0.1,0.9C158.5,461.1,158.9,465.3,158.1,467.6z M372.4,465.4c-0.1,3.7-0.9,3.2-4.5,5.1c-3.9,2.1-10.4,3.2-13.7-0.6c-2-2.4-2.9-5.7-3.9-8.8c6-0.3,12.1-0.6,18.1-0.6c0,0,0,0,0.1,0c1.4,0.2,2.9,0.4,4.4,0.6C372.6,462.5,372.4,463.9,372.4,465.4z M394.7,446c-5.2,7.6-17.1,4.7-24.7,3.6c-0.6-0.1-1.1-0.1-1.6,0c-0.3,0-0.5-0.1-0.8-0.1c-19.5,0.1-38.9,2.3-58.4,2.8c-21.4,0.5-42.9-0.1-64.3-1.1c-42.5-1.9-84.9-5.4-127.4-5.7c0.1-29.6,1.2-59.1,1.9-88.6c0.7-32.6-0.3-65.2-1.1-97.9c-0.8-32.6-1-65,0.7-97.5c0.9-16.3,1.7-32.5,1.4-48.8c-0.2-16.1-1.7-32.1-2.1-48.2c-0.1-4.8-0.1-9.6,0-14.4c0.2-0.1,0.3-0.1,0.5-0.2c0.1,0,0.2,0,0.3,0c1.8-0.2,3.5-0.3,5.3-0.4c5.7-0.3,11.4-0.5,17.1-0.5c14,0,28.2-1.2,42.2-1.8c29.3-1.2,58.6-2.7,87.9-2.9c27.1-0.2,54.3,1.1,81.3,0.1c7-0.3,14-0.7,21-0.9c3.7-0.1,7.3-0.1,11,0c1.3,0,2.5,0.2,3.7,0.4c0.3,0,0.5,0.1,0.8,0.2c11.6,21.1,6.7,48.8,6,71.7c-0.9,32.2,0.8,64.6,1.9,96.7c1.1,32.8,2.3,65.6,2.7,98.4c0.4,32.6-0.3,65.2,0.4,97.8C400.9,420.6,401.9,435.6,394.7,446z"/><path d="M385.4,432.9c-4.5-29.5,0.5-60-0.1-89.8c-0.6-32-2.1-63.8-1.5-95.8c0.5-32.1,0.9-64.2,1.5-96.3c0.5-27.3-1.7-54.5-1.8-81.8c0-2.9,0-5.8,0-8.7c0-3.9-3.3-5.4-6.2-4.8c-0.9-0.8-2.2-1.3-3.7-1.3c-9.7,0.1-19.3,1-28.9,1.5c-11.7,0.7-23.5,0.6-35.2,1.7c-25.7,2.3-51.4,0.9-77.1,3.6c-12.6,1.3-25.6,0.2-38.2-0.3c-9-0.4-18-0.3-27-0.8c-7-0.4-14.1-0.8-21.1-0.7c-4.4,0-12.4-0.3-15.3,3.9c-1.1,1.6-1.2,3.3-0.8,4.8c-1.8,6-0.5,14.4-0.2,19.5c0.9,12.3-0.3,24.6-0.4,37c-0.1,15.4-1.2,31,0.3,46.4c0.7,7.2,1.9,14.3,2.7,21.5c1,8.3,1,16.5,0.9,24.8c-0.1,32.5-0.5,65-0.8,97.5c-0.3,32.5,0.5,64.9,1.5,97.4c0.2,5.7,0.3,11.5,0.3,17.2c0,4.8,5,5.9,8.2,4c0.2,0,0.4,0,0.7,0c39.6,0,79.1,2.2,118.7,3.7c19.8,0.7,39.6,1.3,59.3,1.3c9.6,0,19.3,0,28.9,0h15.3c2.7,0,8.3-1.1,10.7,0.6C381.2,442.6,387.2,437.2,385.4,432.9z M374.4,136.5c0.1,11.2,0,22.4-0.1,33.7c-0.8-0.4-1.7-0.6-2.7-0.6c-7.7,0.1-15.4,0.8-23.1,1.9V97.5c8.1,0,16.9-0.2,24.8-2.2C373.7,109,374.3,122.7,374.4,136.5z M141.5,173.6c-1-11-1.5-21.8-1.2-33c0.2-7.6,0.2-15.1,0.2-22.7c0.1-7.5,1.2-15.1,0.9-22.6c-0.3-8-2.3-16.6-0.5-24.6c0,0,0.1-0.1,0.1-0.1c0.1,0,0.3,0,0.4,0c3.2-0.3,6.5-0.3,9.7-0.2c6.8,0.1,13.5,0.5,20.2,0.9c9.2,0.5,18.3,0.4,27.5,0.8c12.7,0.5,25.3,1,38-0.2c24.4-2.4,48.9-0.9,73.4-3.2c11.7-1.1,23.4-1.1,35.2-1.7c9-0.5,18-1.3,27.1-1.5c0,6.1,0.2,12.3,0.4,18.4c-8,2.8-17.8,2.6-26.3,2.6c0,0,0,0,0,0h-0.9c-2.2,0-3.7,1.1-4.4,2.6c-0.3,0.1-0.7,0.3-1,0.5c-0.3-0.2-0.7-0.5-1-0.7c-7.2-4-16.3-2.9-24.2-4.3c-2.2-0.4-5.1,0.7-6,3c-5.6,14.7-9.6,30.2-16,44.6c-3.1,6.9-5.6,14.5-9.4,20.9c-3.5,6-7.4,11.3-7.1,18.5c-6-0.3-12-0.6-18-0.8c-38.7-1.6-77.2,3.6-115.9,2.6C142.2,173.5,141.8,173.5,141.5,173.6z M324.9,157.9c2.8-6,4.8-11.9,6.7-18.3c1.8-6.2,3.8-12.1,5.9-17.9v50.8c-5.7,0.3-11.4,0.3-17,0.3C320.7,167.4,322.7,162.8,324.9,157.9z M319.3,142.7c-3,9.9-8.4,18-9.6,28.1c-0.1,0.5-0.2,1.1-0.2,1.7v0.4c-7.3-0.1-14.7-0.3-22-0.6c0-0.2,0-0.4,0-0.6c-0.4-5.9,4.8-11.2,7.4-16.1c3.3-6.3,5.7-13.4,8.7-19.9c5.7-12.7,9.3-26.4,14.1-39.6c5.4,0.4,11,0.3,15.8,2.3c0.1,1.5-0.6,3.2-0.9,4.6c-1,3.8-2.6,7.4-4.1,11.1C324.7,123.3,322.2,133.1,319.3,142.7z M142.9,186.2c-0.1-0.6-0.1-1.2-0.2-1.8c0.3,0,0.5,0.1,0.8,0.1c38,1,75.9-4.2,113.9-2.7c19.8,0.7,39.6,2,59.4,2c8,0,16-0.2,24-0.7c1.4,0.4,3,0.3,4.4-0.3c0.4,0,0.9-0.1,1.3-0.1c8.7-0.7,17.2-2.1,26-2.2c0.6,0,1.2-0.1,1.7-0.3c-0.1,8.7-0.3,17.4-0.5,26.1c-0.8-0.5-1.9-0.8-3.1-0.8c-24.1,0.1-48,4.2-72.1,4.1c-14.5,0-29.4-4.7-43.8-2.2c-15.5,2.7-15.7,19.5-14.6,32.1c0.6,6.9,2,13.8,2.6,20.7c0.9,10.8,1.7,21.7,1.8,32.6c-14,0.3-28.1-0.2-42.1-0.3c-19.5-0.2-39-2.9-58.5-2c0.2-18.8,0.4-37.6,0.5-56.4C144.5,218.1,144.9,202.1,142.9,186.2z M373,291c-0.7-0.3-1.5-0.5-2.4-0.5c-7.1-0.1-14.1-0.7-21.2-1c0-0.3,0.1-0.6,0.1-1c0-23.3-1-46.7-1-70c0-0.4,0-0.7-0.1-1c7.7-0.6,15.3-1.1,23-1.1c0.8,0,1.4-0.1,2-0.4c-0.1,5.6-0.2,11.3-0.3,16.9C372.8,252.4,372.7,271.7,373,291z M320.5,285.5c0.2,0.2,0.3,0.4,0.5,0.6c-0.1,0.1,0.3,1.5,0.2,0.5c-0.1-0.7-0.1-1.4-0.2-2.1c-0.2-2.2-0.2-4.5-0.3-6.7c-0.2-5.2-0.3-10.5-0.5-15.7c-0.6-14-1.6-27.9-1.6-41.9c6.4-0.4,12.7-1,19.1-1.5c0,0.3-0.1,0.6-0.1,0.9c0,23.3,1,46.7,1,70c0,0,0,0,0,0.1c-5.9,0-11.8,0.2-17.7,0.3C321.2,288.4,321.2,286.8,320.5,285.5z M311,290c-7.8,0.2-15.6,0.4-23.4,0.8c0-0.4,0-0.8-0.1-1.2c-4.8-22.9-3.3-46.5-3-69.8c6.2,0.6,12.4,0.9,18.7,0.8c1.5,0,2.9,0,4.4-0.1c0.1,14.8,1.1,29.5,1.7,44.3c0.2,5.8,0.3,11.6,0.6,17.4C310,284.9,309.9,287.7,311,290z M276.5,290.4c0.1,0.3,0.1,0.6,0.2,0.8c-6.1,0.3-12.2,0.6-18.3,1c-1,0.1-2,0.1-3,0.2c-0.2-16.4-1.8-32.6-3.9-48.9c-0.8-6.5-1.6-13.2-0.3-19.7c1-5.3,4.4-5.7,9.3-6c4.3-0.2,8.6,0.2,12.9,0.7C273.4,242.5,271.6,266.8,276.5,290.4z M269.2,426.5c-41.2-1.4-82.5-3.8-123.7-3.9c-0.3-30.4-2-60.7-1.9-91.2c0.1-10,0.1-19.9,0.2-29.9c0.2,0,0.4,0,0.6,0c19-0.9,37.9,1.9,56.9,2c19.3,0.1,38.7,1,58-0.3c19.5-1.3,39-2,58.5-2.4c9.9-0.2,19.8-0.3,29.6-0.3c8,0,16,0.9,24,1c0.6,0,1.2-0.1,1.7-0.2c0.2,9.1,0.4,18.2,0.7,27.3c0.1,2.4,0.2,4.9,0.2,7.3c-9.7-5.8-24.2-20.6-35.4-9.4c-5.6,5.7-8.3,14.4-12.6,21c-5.8,8.8-9.8,18.4-14.5,27.8c-4.7,9.4-10.5,18.1-16.6,26.6c-3.5,4.8-6.8,11.3-4.1,17.3c1.9,4,5.5,6.3,9.4,8C289.9,427.1,279.5,426.8,269.2,426.5z M328.9,424.2c-6.3-0.8-12-3.3-18.3-5c-1.7-0.5-9.3-2.1-9.7-4.3c-0.3-1.6,0.9-3.2,1.6-4.5c1.9-3.5,4.7-6.6,6.9-9.9c4.8-7,9.1-14.3,12.8-21.9c3.5-7.1,6.6-14.4,10.6-21.3c3.7-6.4,7.5-12.6,11-19.2c3-5.6,5.6-5.1,10.8-2.2c4.1,2.3,7.8,5.3,11.7,7.9c-1.5,3.6-2.4,7.5-3.5,10.9c-2.7,9.2-8.7,17.7-12.7,26.5c-3.6,8.1-7.1,15.7-11.7,23.3C334.7,410.9,331.2,417.3,328.9,424.2z M374,375.3c-0.7,15.1-1.8,30.2-1,45.4c0.1,2.3,0.3,4.6,0.6,6.9c-3.5-0.3-7.2-0.1-10.7-0.1h-23.5c2-6.4,5.5-12.2,9-18c4.6-7.6,8.2-15.2,11.7-23.3c3.7-8.3,8.9-16.2,12.1-24.7c0.9-2.3,1.4-5,2.2-7.7C374.5,361,374.3,368.1,374,375.3z"/></svg>