<svg xmlns="http://www.w3.org/2000/svg" viewBox="0 0 512 512" width="48px" height="48px"><path fill="#BCBCBC" d="M416.3,395.8c-1.9-1.6-3.5-3.2-5-5.1c-3.8-5-6.9-10.2-9.9-15.6c-4.8-8.7-8.6-19.1-16.1-25.9c-2.8-2.6-2-6.1,0.1-8.1c0.1-0.2,0.2-0.4,0.4-0.6c3.5-5,9.6-6.5,15-8.6c5.8-2.2,10.2-7.8,13-13.3c2.9-5.6,4.9-11.5,2.3-17.6c-1.8-4.3-5.1-8.1-9-10.5c-8.6-5.4-19.5-8.3-29.7-6.9c-5.2,0.7-9.1,4.9-13.1,8c-4.1,3.2-8.5,5.7-13.9,6c-2.8,0.1-4.7-1.5-5.4-3.6c-0.8-0.8-1.4-1.9-1.5-3.4c-0.2-3.7-3.2-6.6-4.9-9.8c-1.6-3-2.9-6.2-4.3-9.3c-1.4-3-3.7-9.7-7-12.6c-0.7,0.4-1.6,0.6-2.6,0.6c-14.8,0-29.5,0.5-44.3,0.8c-0.1,17-1.8,34.8-18.4,44.2c-15.2,8.6-32.2,5.1-48.3,1.4c-0.3,0.2-0.6,0.4-1,0.6c-18.5,8.9-36.1,19.5-54.7,28.2c0.2,0.7,0.4,1.3,0.6,2c1,2.9,2.2,5.7,3.4,8.5c3.3,7.7,6.8,15.2,10.5,22.7c3.5,7,7,14.1,10.7,21c0.9,1.6,1.8,3.2,2.7,4.8c6.2-6.1,16.5-8.9,24.5-10.6c12.8-2.8,28.8-6.2,40.8,1c13.2,8,19.2,23.8,13.9,38.5c-2.8,7.7-8.3,14-15.1,18.4c-5.9,3.9-12.7,7.5-19.9,8.1c1.4,2.2,3.2,4.3,4.7,6.2c2.7,3.5,5.2,7.1,7.4,10.9c4.4,7.3,8.4,14.9,11.8,22.8c0.8,0.2,1.6,0.5,2.3,1.1c0.4-0.1,0.8-0.2,1.2-0.2c11-0.4,21.1-7.9,30.6-12.8c7.7-3.9,16.2-6.7,23.5-11.3c-10.5-15.4-16.1-40.7,0.3-53.1c9.6-7.2,23.9-8.2,35.3-5.6c6.2,1.5,12.3,4.1,16.9,8.5c3.9,3.7,7,8,10.3,12.2c3.5-4,10.4-7.1,13.7-9c10.7-6,21.8-11.9,31.9-19.1C419.4,397.9,417.4,396.7,416.3,395.8z"/><path fill="#74CCCF" d="M462,88.1c-0.3-2.5-0.6-5-1.4-7.3c-0.4-1.1-0.6-1.6-0.9-2c-0.1-0.1-0.1-0.2-0.2-0.2c-0.6-0.4-1-0.8-1.4-1.2h-40.4c-1.1,0-2-0.3-2.8-0.7c-3.1,1.4-7.6,0-8.1-4.4c-1.8-15.5-10.1-29.1-27.4-29c-14.6,0.1-30.4,10.3-31.6,25.4c1.3,0.7,2.3,1.8,2.7,3.3c1.3,5.7-5.7,9.2-9,6.2c-0.7-0.1-1.3-0.2-2-0.3c-2.9-0.4-5.9-0.6-8.8-0.8c-8.2-0.6-16.5-0.8-24.7-0.9c-8.6-0.1-17.3-0.1-25.9,0.3c-3.2,0.2-6.5,0.3-9.7,0.7c-0.2,0-0.4,0.1-0.6,0.1v68.2c0,3.6-2.8,5.6-5.6,5.7c-0.4,0.1-0.9,0.2-1.4,0.2c-12.1,0-25,0-36.4,4.7c-10,4.1-18.7,14.1-16.5,25.7c0.1,0.7,0.3,1.4,0.6,2.1h199.5c-2.2-4.5-3.3-9.5-3.1-14.7c0.4-10.1,5.7-19.8,14.2-25.4c12.2-8,26.2-6,39.9-5.5c0.3-10,1.4-20,1.6-30C462.7,101.5,462.7,94.8,462,88.1z"/><path fill="#74CCCF" d="M452.9,204.3c-11.9-1.8-25-2.5-34.6-10.2c-3.5-2.8-6.4-6.4-8.3-10.3H210.4c2.8,7.7,12.6,11.3,19.9,13c9.7,2.3,19.6,3,29.6,2.5c3-0.1,4.8,1.7,5.5,4c0.3,0.6,0.4,1.3,0.4,2.1c0.1,14.6,2.4,29.3,1.4,43.9c17.1-0.2,34.2-0.8,51.4-0.9c-0.2-4.8-0.4-9.6,1.3-14.1c2-5.3,5.8-10.5,10.7-13.6c8.7-5.7,19.6-7.8,30-7.2c19.3,1.1,33.2,16.1,35,34.4c8.1-2.1,16.8-1.4,25.2-1.3c5.7,0.1,11.5-0.1,17.2-0.7c3.6-0.4,7.3-1,10.9-1.5c0.5-0.1,1.2,0,1.9,0c0.8-1,2.1-1.6,3.5-1.8C455.5,230,453.2,217,452.9,204.3z"/><path fill="#14B6B9" d="M224,77.3c-3.9-0.1-7.7-0.2-11.6-0.2c-1.8,0-3.7,0-5.5,0.1c-0.6,0-1.1,0.1-1.7,0.1c-0.5,0.3-0.9,0.5-1.5,0.7c-0.4,11.5-3.2,23.1-10.3,32.5c-7.5,9.8-19.7,16.5-32.1,17c-14,0.5-29.7-3.1-40.6-12.5c-11.3-9.8-8.6-22.4-8.8-35.4c-17.4,0.8-34.6,3.6-52.1,3.1c0.6,25,4.8,49.8,4.9,74.8c0,1.5-0.5,2.6-1.2,3.6c-0.2,2.3-1.8,4.4-4.9,4.4c-10.4-0.1-20.6-0.1-28.3,8c-4.5,4.8-7.3,11-6.1,17.6c2.5,14,17.3,17.3,31.1,18.5c3.2-2,8.3-0.9,8.4,4c0.1,11.5,2.3,22.8,2.9,34.3c2.7,0.3,5.7-0.1,8.1-0.3c4.1-0.3,8.2-0.9,12.2-1c6.9-0.3,13.9-0.1,20.8-0.1c3.5,0,5.5,2.7,5.7,5.4c0.1,0.6,0.2,1.3,0.1,2.1c-1.1,8.8-1.6,17.8,5.7,24.2c4.8,4.2,10.4,7.6,16.5,9.7v-104h63.2c-0.1-0.4-0.2-0.8-0.2-1.2c-2.1-15.1,7.4-29.2,20.7-35.5c12.1-5.8,26-6.6,39.2-6.7V78C247.2,77.3,235.6,77.6,224,77.3z"/><path fill="#14B6B9" d="M254.9,210.5c-20.6,0.1-51.6-3.8-55.8-26.7h-63.2v104c5.1,1.8,10.5,2.8,15.9,2.7c10.4-0.1,21.4-3.1,27.9-11.8c3.3-4.5,4-8.7,3.8-14.1c-0.2-4.6-0.2-9.1,1.9-13.2c0.9-1.8,2.3-2.7,3.9-2.9c1.4-3.9,6.6-3.8,9.1-1c0.2,0,0.3,0,0.5,0c0.6,0,1.1,0,1.7,0c1.6,0,3.2-0.1,4.7-0.1c6-0.1,12,0.4,18,0.7c11,0.5,22.1,0.3,33.1,0.3C257.3,235.8,255.4,223.1,254.9,210.5z"/><path d="M464.8,68.9c-0.1,0-0.1-0.1-0.2-0.1c-1-1.4-2.5-2.5-4.7-2.5h-42.8c-1.4-7.9-4.1-15.6-9.4-21.8c-7-8.2-17.2-11.9-27.7-12.2c-20.1-0.6-40.4,14.2-42.9,34.3c-8.8-0.8-17.7-1.1-26.6-1.3c-9.8-0.2-19.6-0.3-29.4,0.1c-5.5,0.2-12.2,0-17.6,1.9c-14.7-1-29.4-0.7-44.1-1.1c-4.9-0.1-9.9-0.3-14.8,0.1c-3.1,0.2-6.5,1.9-7.6,4.5c-2.2,0.7-4.1,2.5-4.1,5.4c-0.2,19.8-10.8,38.8-32.3,40.2c-11.3,0.7-23.6-2.7-32.4-9.8c-8.6-6.9-5.1-19.6-5.2-29.5c2-3.2,0.1-8.9-5-8.8c-21.2,0.1-42.3,4.9-63.5,3.1c-5.4-0.5-7.9,5.9-5.5,9.1c0.3,24.7,4.4,49.1,4.9,73.8c-5,0-9.8,0.1-14.8,1.4c-5.4,1.4-11,5.1-15.1,8.8c-7.2,6.5-11.2,15.6-10.7,25.3c0.5,9.9,6.7,18,14.7,23.3c7.3,4.8,16.3,6.3,25.2,7.1c0.7,10.7,2.6,21.3,2.8,32.1c0,1.9,1.4,3.7,3,4.5c7.5,3.8,17.8,1.6,25.8,0.8c5.9-0.5,11.8-0.4,17.7-0.3c-0.7,9.5,0.3,18.7,7.1,26.3c6.8,7.7,16.4,12.9,26.4,15.7v-11.4c-6-2.1-11.7-5.5-16.5-9.7c-7.2-6.4-6.8-15.4-5.7-24.2c0.1-0.8,0.1-1.5-0.1-2.1c-0.2-2.7-2.2-5.4-5.7-5.4c-6.9,0-13.9-0.2-20.8,0.1c-4.1,0.2-8.2,0.7-12.2,1c-2.4,0.2-5.4,0.6-8.1,0.3c-0.5-11.5-2.8-22.8-2.9-34.3c-0.1-4.8-5.2-6-8.4-4c-13.8-1.2-28.6-4.4-31.1-18.5c-1.2-6.7,1.6-12.9,6.1-17.6c7.7-8.1,17.9-8.1,28.3-8c3.1,0,4.6-2,4.9-4.4c0.7-0.9,1.2-2.1,1.2-3.6c-0.1-25-4.3-49.8-4.9-74.8c17.4,0.4,34.7-2.4,52.1-3.1c0.2,13.1-2.5,25.6,8.8,35.4c10.9,9.4,26.5,13,40.6,12.5c12.5-0.4,24.7-7.1,32.1-17c7.1-9.3,9.8-20.9,10.3-32.5c0.5-0.2,1-0.4,1.5-0.7c0.6-0.1,1.1-0.1,1.7-0.1c1.8-0.1,3.7-0.1,5.5-0.1c3.9,0,7.7,0.1,11.6,0.2c11.6,0.3,23.3,0,34.9,0.7v62.4c-13.3,0.1-27.1,0.9-39.2,6.7c-13.3,6.3-22.8,20.4-20.7,35.5c0.1,0.4,0.1,0.8,0.2,1.2h11.3c-0.2-0.7-0.5-1.4-0.6-2.1c-2.2-11.6,6.5-21.5,16.5-25.7c11.3-4.7,24.3-4.7,36.4-4.7c0.5,0,1-0.1,1.4-0.2c2.8-0.2,5.6-2.1,5.6-5.7V77.2c0.2,0,0.4-0.1,0.6-0.1c3.2-0.4,6.5-0.6,9.7-0.7c8.6-0.4,17.3-0.4,25.9-0.3c8.2,0.1,16.5,0.4,24.7,0.9c2.9,0.2,5.9,0.5,8.8,0.8c0.7,0.1,1.3,0.2,2,0.3c3.2,3,10.2-0.5,9-6.2c-0.3-1.5-1.3-2.6-2.7-3.3c1.3-15.1,17.1-25.3,31.6-25.4c17.3-0.1,25.6,13.5,27.4,29c0.5,4.4,5,5.7,8.1,4.4c0.8,0.4,1.7,0.7,2.8,0.7h40.4c0.4,0.5,0.8,0.9,1.4,1.2c0,0,0.1,0.1,0.2,0.2c0.3,0.4,0.5,0.9,0.9,2c0.8,2.4,1.1,4.9,1.4,7.3c0.8,6.7,0.7,13.4,0.6,20.1c-0.2,10-1.3,20-1.6,30c-13.7-0.5-27.7-2.5-39.9,5.5c-8.5,5.6-13.8,15.3-14.2,25.4c-0.2,5.1,0.9,10.2,3.1,14.7h13.6c-3.6-3.3-5.8-7.9-5.8-14.5c0-7.1,4.7-13.4,10.4-17.1c10.5-6.9,25.9-3,37.6-2.8c2.5,0,4-1.3,4.6-3.1c0.9-0.9,1.4-2.2,1.5-3.8c0.1-12.8,1.6-25.6,1.8-38.4C473.7,93.9,475.2,74.9,464.8,68.9z"/><path d="M463.8,202.8c1.7-2.9,0.9-7.5-3.5-8.4c-11.5-2.4-28.2-2.6-36.9-10.6h-13.6c2,4,4.8,7.5,8.3,10.3c9.6,7.7,22.7,8.3,34.6,10.2c0.3,12.7,2.7,25.7,1.4,38.3c-1.4,0.2-2.7,0.8-3.5,1.8c-0.7-0.1-1.4-0.1-1.9,0c-3.6,0.5-7.2,1.1-10.9,1.5c-5.7,0.7-11.5,0.8-17.2,0.7c-8.4-0.1-17.1-0.8-25.2,1.3c-1.8-18.4-15.8-33.3-35-34.4c-10.3-0.6-21.2,1.5-30,7.2c-4.8,3.1-8.7,8.2-10.7,13.6c-1.7,4.6-1.6,9.4-1.3,14.1c-17.1,0.1-34.2,0.7-51.4,0.9c1-14.6-1.3-29.3-1.4-43.9c0-0.8-0.2-1.5-0.4-2.1c-0.6-2.2-2.5-4.1-5.5-4c-9.9,0.4-19.9-0.2-29.6-2.5c-7.3-1.7-17.1-5.3-19.9-13h-11.3c4.2,22.9,35.2,26.8,55.8,26.7c0.5,12.6,2.3,25.3,1.4,37.9c-11,0-22.1,0.2-33.1-0.3c-6-0.3-12-0.8-18-0.7c-1.6,0-3.2,0.1-4.7,0.1c-0.6,0-1.1,0-1.7,0c-0.2,0-0.3,0-0.5,0c-2.5-2.8-7.7-2.9-9.1,1c-1.5,0.2-3,1.1-3.9,2.9c-2.1,4.2-2.1,8.7-1.9,13.2c0.2,5.4-0.5,9.6-3.8,14.1c-6.5,8.7-17.5,11.7-27.9,11.8c-5.5,0-10.8-0.9-15.9-2.7v11.4c3.9,1.1,8,1.8,11.9,2.1c13.1,1,26.6-2.2,36.4-11.3c4.4-4.1,7.9-9.3,9.5-15.1c1.4-5.3-0.6-11.9,0.9-17c5,1.4,12,0.4,16,0.5c15.3,0.3,30.5,0.9,45.8,0.9c0.9,0.6,2,1,3.3,1c2.7,0,5.4,0,8.1,0c0.3,1.1,0.9,2.1,1.7,2.9c-0.1,12.7-1.5,24.4-13.6,32c-11.8,7.5-28.5,2.4-40.9-0.5c-1.7-0.4-3-0.1-4.1,0.7c-0.6,0.1-1.2,0.2-1.8,0.5c-20.6,9.9-40,21.9-61,31c-4.7,2-4.1,8-1,10.1c1.1,4.3,3.3,8.6,4.9,12.4c3.7,8.7,7.8,17.2,12,25.6c3.8,7.7,7.7,15.4,11.9,23c1.2,2.2,2.6,5.3,4.5,7.4c0,0,0,0.1,0,0.1c-0.3,7.1,10.7,6.2,11-0.8c0.1-3.1,4.5-5.3,6.8-6.5c4.7-2.5,10.4-3.9,15.6-4.9c9.1-1.9,20.7-4.6,29.7-1.1c9.9,3.9,14.2,14.5,11.9,24.5c-1.3,5.4-5.1,10-9.4,13.3c-5.2,4-13.1,9-20,7.7c-1.3-0.2-2.4-0.1-3.3,0.3c-3.4-0.7-7.1,1.2-6.3,5.5c1.8,9,7.9,15.3,12.9,22.7c6.2,8.9,11.3,18.7,15.4,28.7c0.8,2,2.4,3.1,4.1,3.4c0.3,0.4,0.6,0.8,1.1,1.3c0.5,0.5,1.2,1,1.9,1.3c1.3,0.6,2.1,0.6,3.5,0.7c0.9,0,1.9-0.4,2.8-1c0.1,0,0.2,0,0.2,0c12-0.4,21.8-7.7,32.2-12.7c10.4-5.1,22.4-8.8,31.4-16.2c1.8-1.5,2.4-3.6,2-5.4c0.1-1.4-0.3-3-1.5-4.3c-8.4-9.5-15.8-31.8-3.5-41.1c7-5.3,18-4.8,26.1-3.2c10.6,2.1,15.8,10.8,22.2,18.5c2,2.4,5,2.5,7.2,1.4c2.9,2.4,7.2,0.4,8.4-2.8c0.2-0.2,0.7-0.5,1.6-1.2c1.7-1.2,3.5-2.2,5.3-3.3c3.2-1.8,6.3-3.6,9.5-5.5c6-3.6,12.2-6.9,18.2-10.5c4.6-2.8,13.3-6.5,13.7-12.5c0.5-5.6-2.9-9.8-6.9-13.3c-5.2-4.6-8.9-10.2-12.3-16.2c-5.1-8.9-9-19-15.6-27c3.8-2.6,9.5-3.5,13.4-5.6c6.7-3.7,12-12.4,15.1-19.1c6.2-13.3,2.6-26.9-8.2-36.4c-9.4-8.3-22.6-11.6-34.9-11.8c-6.3-0.1-11.9,1.3-17.1,4.8c-3.7,2.4-7.1,6.5-11.3,8.4c-1.1-3.4-3.2-6.2-5.1-9.5c-1.9-3.4-3.3-7-4.9-10.5c-3-6.5-7-15.1-14.1-18c-0.1-2.7-0.2-5.3,0.3-8c0.8-4.4,4.5-8,8.1-10.3c6.3-4.1,14.9-4.8,22.2-4.7c15.4,0.3,24.4,13.9,24.7,28v2c0,3.3,2.3,4.9,4.8,4.9c1.6,1,3.7,1.3,5.8,0.2c4.7-2.4,10.8-2.1,15.8-2.1c6.2,0,12.3,0.5,18.5,0c3.6-0.3,7.3-0.3,10.9-0.7c3.5-0.4,7.2-1.5,10.8-1c3.8,0.6,7.2-0.6,8.7-3.4c2.2-0.1,4.2-1.5,4.7-4.3C466.9,233,464.1,217.8,463.8,202.8z M334.3,271.3c1.4,3.1,2.8,6.2,4.3,9.3c1.7,3.2,4.6,6.2,4.9,9.8c0.1,1.5,0.7,2.6,1.5,3.4c0.7,2.1,2.6,3.8,5.4,3.6c5.3-0.3,9.8-2.8,13.9-6c4-3.1,7.9-7.3,13.1-8c10.2-1.4,21.1,1.5,29.7,6.9c3.9,2.5,7.2,6.3,9,10.5c2.6,6.1,0.6,12-2.3,17.6c-2.8,5.4-7.2,11-13,13.3c-5.4,2.1-11.5,3.6-15,8.6c-0.1,0.2-0.3,0.4-0.4,0.6c-2.1,2-2.9,5.6-0.1,8.1c7.5,6.8,11.3,17.2,16.1,25.9c3,5.5,6.1,10.6,9.9,15.6c1.5,1.9,3.1,3.5,5,5.1c1,0.9,3,2.2,3.9,3.6c-10,7.2-21.1,13.1-31.9,19.1c-3.4,1.9-10.2,4.9-13.7,9c-3.3-4.2-6.4-8.5-10.3-12.2c-4.7-4.4-10.8-7.1-16.9-8.5c-11.4-2.7-25.7-1.7-35.3,5.6c-16.5,12.4-10.9,37.7-0.3,53.1c-7.3,4.6-15.9,7.4-23.5,11.3c-9.5,4.9-19.6,12.4-30.6,12.8c-0.4,0-0.8,0.1-1.2,0.2c-0.7-0.5-1.4-0.9-2.3-1.1c-3.4-7.9-7.4-15.4-11.8-22.8c-2.3-3.8-4.8-7.4-7.4-10.9c-1.5-2-3.2-4-4.7-6.2c7.1-0.6,14-4.3,19.9-8.1c6.8-4.5,12.3-10.8,15.1-18.4c5.3-14.7-0.6-30.5-13.9-38.5c-11.9-7.2-28-3.8-40.8-1c-8.1,1.8-18.3,4.6-24.5,10.6c-0.9-1.6-1.8-3.2-2.7-4.8c-3.7-6.9-7.3-13.9-10.7-21c-3.7-7.5-7.2-15-10.5-22.7c-1.2-2.8-2.3-5.6-3.4-8.5c-0.2-0.7-0.4-1.3-0.6-2c18.6-8.7,36.2-19.3,54.7-28.2c0.4-0.2,0.7-0.4,1-0.6c16.1,3.8,33.1,7.2,48.3-1.4c16.6-9.4,18.3-27.2,18.4-44.2c14.8-0.3,29.5-0.7,44.3-0.8c1,0,1.9-0.2,2.6-0.6C330.6,261.6,333,268.3,334.3,271.3z"/></svg>