<svg xmlns="http://www.w3.org/2000/svg" viewBox="0 0 48 48" width="192px" height="192px"><path fill="#73a1b2" d="M8.802,24.761l11.259-0.511l20.349,0.542L40.282,39.4c0,0-0.019,5.864-5.401,5.934 c-5.382,0.071-18.329,0.15-18.329,0.15s-7.918,0.89-7.894-5.953S8.802,24.761,8.802,24.761z"/><path fill="#bcbcbc" d="M35.5,20.169l-0.012,0c-0.02-3.229,0.012-6.873,0.012-9.815c0-2.559-0.739-5.175-2.856-6.614 c-1.377-0.936-3.117-1.111-4.777-1.242c-2.28-0.181-4.555,0.096-6.836,0.121c-2.287,0.025-4.437,1.58-5.707,3.482 c-1.364,2.042-1.488,4.641-1.568,7.095c-0.072,2.197-0.143,4.134-0.214,6.285l-0.387-0.012c-2.773,0-4.498,2.249-4.498,5.022H40.41 C40.41,21.717,38.273,20.169,35.5,20.169z M18.547,12.521c0.014-1.066,0.037-2.169,0.489-3.134 c0.611-1.303,1.936-2.159,3.323-2.542c1.387-0.383,2.851-0.356,4.289-0.318c1.311,0.034,2.756,0.131,3.686,1.054 c0.957,0.95,1.041,2.445,1.065,3.793c0.043,2.414,0.052,6.039,0.089,8.67l-12.916-0.405C18.59,17.579,18.521,14.474,18.547,12.521z"/><path fill="#010101" d="M40.906,23.791c-0.024-2.23-1.931-4.306-3.999-4.353c-0.324-0.007-0.636-0.018-0.958-0.026 c-0.016-1.867,0.001-3.491,0.021-5.189C35.985,12.979,36,11.723,36,10.354c0-3.185-1.092-5.68-3.074-7.027 C31.378,2.275,29.372,2.116,27.907,2c-1.501-0.122-3.015-0.043-4.476,0.029c-0.802,0.041-1.603,0.081-2.404,0.09 c-2.707,0.029-4.936,1.933-6.118,3.704c-1.485,2.225-1.577,5.07-1.651,7.356c-0.039,1.2-0.078,2.15-0.117,3.101 c-0.035,0.858-0.07,1.726-0.106,2.767c-0.238,0.008-0.471,0.007-0.71,0.016c-2.006,0.075-3.992,2.249-4.01,4.388 c-0.013,1.598-0.042,3.352-0.071,5.143c-0.052,3.151-0.105,6.41-0.079,9.143c0.023,2.339,0.165,4.572,1.625,6.193 c1.665,1.849,4.354,2.056,6.807,2.056c0.102,0,0.204,0,0.305-0.001l16.423-0.102c1.475-0.009,3.31-0.021,4.779-0.969 c2.463-1.588,2.772-4.961,2.768-7.722c-0.002-1.632,0.01-3.463,0.023-5.337C40.913,29.097,40.933,26.245,40.906,23.791z M14.141,16.321c0.039-0.952,0.078-1.905,0.117-3.109c0.069-2.159,0.156-4.846,1.483-6.834c1.309-1.959,3.387-3.238,5.297-3.259 c0.814-0.009,1.629-0.05,2.443-0.091c1.43-0.071,2.908-0.145,4.347-0.032c1.755,0.14,3.307,0.323,4.535,1.157 C34.657,5.713,35,8.708,35,10.354c0,1.364-0.015,2.616-0.029,3.857c-0.019,1.62-0.037,3.299-0.021,5.173 c-0.982-0.027-1.956-0.055-2.915-0.086L31.9,11.365c-0.027-1.514-0.144-3.079-1.213-4.139c-1.045-1.038-2.563-1.162-4.025-1.2 c-1.377-0.037-2.936-0.078-4.436,0.336c-1.697,0.469-3.025,1.493-3.644,2.813c-0.505,1.078-0.521,2.279-0.536,3.339 c-0.014,1.026-0.009,2.253-0.003,3.48c0.004,1.037,0.008,2.065,0.001,2.978c-1.325-0.001-2.664,0.019-4.008,0.052 C14.071,18.012,14.106,17.161,14.141,16.321z M19.044,15.989c-0.005-1.221-0.011-2.441,0.003-3.462 c0.013-0.959,0.028-2.045,0.442-2.929c0.493-1.054,1.588-1.882,3.003-2.271c1.356-0.374,2.835-0.337,4.144-0.301 c1.263,0.033,2.562,0.13,3.348,0.91c0.804,0.797,0.893,2.085,0.917,3.446l0.133,7.885c-0.438-0.014-0.883-0.028-1.318-0.043 c-3.629-0.122-7.139-0.227-10.67-0.248C19.052,18.06,19.049,17.029,19.044,15.989z M9.315,23.458 c0.013-1.596,1.579-3.341,3.047-3.396c1.889-0.071,3.744-0.101,5.592-0.101c3.889,0,7.734,0.129,11.729,0.262 c2.341,0.078,4.729,0.158,7.201,0.215c1.535,0.035,3.004,1.67,3.022,3.363c0.001,0.116,0.001,0.243,0.002,0.36 c-1.424-0.042-2.929-0.068-4.444-0.092c-1.662-0.027-3.324-0.054-4.868-0.104l-7.03-0.223c-2.312-0.076-4.694,0.039-6.996,0.148 c-2.533,0.121-4.93,0.228-7.26,0.117C9.312,23.826,9.314,23.638,9.315,23.458z M39.895,31.848 c-0.014,1.877-0.025,3.711-0.023,5.346c0.005,2.662-0.266,5.562-2.311,6.88c-1.225,0.79-2.897,0.8-4.242,0.809l-16.423,0.102 c-2.422,0.015-4.906-0.106-6.363-1.725c-1.226-1.36-1.346-3.394-1.367-5.533c-0.026-2.72,0.027-5.972,0.079-9.116 c0.02-1.232,0.04-2.442,0.055-3.6c2.378,0.109,4.886-0.003,7.318-0.117c2.282-0.107,4.64-0.222,6.918-0.147l7.03,0.223 c1.549,0.05,3.216,0.076,4.883,0.104c1.523,0.024,3.036,0.051,4.467,0.093C39.924,27.276,39.91,29.587,39.895,31.848z"/><path fill="#010101" d="M16.97,35.082c-0.585-0.331-1-0.864-1.505-1.294c0.102-0.073,0.2-0.153,0.303-0.225 c0.185-0.128,0.701-0.532,0.784-0.539c0.636-0.056,0.642-1.056,0-1c-0.548,0.048-1.101,0.451-1.59,0.849 c-0.002-0.223-0.004-0.446-0.021-0.671c-0.049-0.638-1.049-0.643-1,0c0.017,0.224,0.019,0.447,0.023,0.67 c-0.46-0.239-0.917-0.482-1.342-0.809c-0.51-0.392-1.009,0.476-0.505,0.863c0.5,0.384,1.051,0.651,1.594,0.934 c-0.614,0.477-1.236,1.005-1.63,1.629c-0.344,0.546,0.521,1.048,0.864,0.505c0.256-0.407,0.664-0.77,1.078-1.103 c0.033,0.355,0.084,0.71,0.186,1.065c0.044,0.153,0.182,0.323,0.349,0.349c0.033,0.005,0.067,0.01,0.1,0.015 c0.548,0.085,0.823-0.634,0.467-0.886c-0.055-0.248-0.101-0.497-0.122-0.744c0.481,0.425,0.887,0.929,1.462,1.255 C17.026,36.262,17.531,35.399,16.97,35.082z"/><path fill="#010101" d="M23.835,35.278c-0.298-0.173-0.464-0.49-0.711-0.722c-0.259-0.242-0.565-0.429-0.862-0.624 c0.493-0.347,0.997-0.68,1.514-0.987c0.553-0.328,0.051-1.193-0.505-0.863c-0.451,0.267-0.894,0.555-1.331,0.853 c0.006-0.159,0.005-0.318,0.013-0.477c0.032-0.643-0.968-0.642-1,0c-0.008,0.166-0.005,0.332-0.011,0.498 c-0.341-0.277-0.674-0.564-0.999-0.862c-0.473-0.435-1.182,0.27-0.707,0.707c0.437,0.402,0.893,0.779,1.36,1.144 c-0.524,0.429-1.03,0.878-1.488,1.372c-0.438,0.471,0.268,1.18,0.707,0.707c0.339-0.365,0.705-0.704,1.081-1.031 c-0.007,0.332,0.003,0.671,0.106,0.939c0.073,0.189,0.252,0.391,0.482,0.367c0.013-0.001,0.026-0.003,0.038-0.004 c0.217-0.022,0.425-0.139,0.482-0.367c0.003-0.01,0.005-0.021,0.008-0.031c0.042-0.169-0.002-0.309-0.086-0.415 c-0.038-0.185-0.054-0.391-0.049-0.609c0.252,0.167,0.499,0.342,0.706,0.562c0.255,0.271,0.416,0.516,0.745,0.707 C23.888,36.465,24.392,35.601,23.835,35.278z"/><path fill="#010101" d="M30.368,32.101c-0.505,0.26-0.985,0.558-1.452,0.872c0.001-0.214-0.013-0.426-0.004-0.64 c0.026-0.643-0.974-0.642-1,0c-0.008,0.204,0.008,0.406,0.007,0.609c-0.355-0.265-0.699-0.545-1.01-0.866 c-0.449-0.463-1.156,0.245-0.707,0.707c0.428,0.44,0.93,0.801,1.442,1.152c-0.503,0.423-0.987,0.87-1.433,1.361 c-0.432,0.475,0.273,1.185,0.707,0.707c0.349-0.385,0.722-0.739,1.106-1.078c0.036,0.332,0.059,0.663,0.112,0.995 c0.101,0.634,1.065,0.365,0.964-0.266c-0.038-0.24-0.05-0.482-0.077-0.723c0.364,0.299,0.702,0.626,0.976,1.019 c0.366,0.524,1.233,0.025,0.863-0.505c-0.43-0.616-0.981-1.084-1.564-1.515c0.503-0.35,1.023-0.678,1.576-0.964 C31.445,32.669,30.94,31.806,30.368,32.101z"/><path fill="#010101" d="M36.276,34.034c0.427-0.347,0.848-0.701,1.275-1.048c0.5-0.406-0.211-1.109-0.707-0.707 c-0.356,0.289-0.706,0.584-1.062,0.873c0.007-0.161,0.004-0.323,0.015-0.484c0.046-0.642-0.954-0.639-1,0 c-0.005,0.076-0.003,0.153-0.007,0.229c-0.32-0.245-0.64-0.49-0.961-0.736c-0.511-0.391-1.009,0.477-0.505,0.864 c0.451,0.345,0.902,0.691,1.352,1.036c-0.502,0.412-1.011,0.816-1.505,1.237c-0.49,0.418,0.22,1.123,0.707,0.707 c0.312-0.266,0.634-0.519,0.949-0.78c0.002,0.022,0.001,0.044,0.004,0.065c0.058,0.524,0.302,1,0.916,0.846 c0.504-0.127,0.423-0.771,0.046-0.935c0.011-0.067,0.009-0.189,0.002-0.297c0.377,0.285,0.735,0.592,0.973,0.997 c0.326,0.554,1.191,0.052,0.863-0.505C37.295,34.82,36.794,34.429,36.276,34.034z"/></svg>