<svg xmlns="http://www.w3.org/2000/svg" viewBox="0 0 48 48" width="48px" height="48px"><path fill="#4b7bb2" d="M7.03,4.354c0.116-0.956,0.904-1.7,1.866-1.753c1.005-0.055,1.054,0.012,1.995,0.024 C20.91,2.756,29.711,3.29,39.73,3.504c0.597,0.013,1.192,0.283,1.498,0.796c0.361,0.606,0.308,1.348,0.241,2.042 c-0.214,2.205-0.486,4.419-0.078,6.631c0.209,1.133,0.14,2.305-0.156,3.419c-0.072,0.27-0.166,0.541-0.339,0.76 c-0.378,0.481-1.036,0.619-1.638,0.725C34,18.805,29.773,19.572,24.516,20.5c-4.019-1.296-8.272-2.255-12.342-3.379L7.923,15.67 c-0.838-0.231-1.447-0.978-1.471-1.847C6.37,10.75,6.66,7.411,7.03,4.354z"/><polygon fill="#d6e5e5" points="33.58,19.012 30.469,19.508 30.469,3.346 33.58,3.346"/><path fill="#f3ad20" d="M25.313,22.873c1.414,1.835,2.616,3.833,3.576,5.941c0.064,0.14,0.129,0.285,0.239,0.393 c0.199,0.197,0.501,0.238,0.78,0.268c2.805,0.302,5.61,0.603,8.414,0.905c0.076,0.008,0.159,0.02,0.213,0.075 c0.127,0.131-0.024,0.34-0.166,0.455c-2.478,2.023-5.558,4.426-7.854,6.653c0.59,2.671,1.521,5.163,1.976,7.861 c-2.684-1.421-5.19-2.93-7.515-4.882c-2.374,2.035-5.761,3.377-8.476,4.928c0.944-2.784,2.014-6.156,2.959-8.939 c-1.798-1.638-2.703-2.312-4.869-3.418c-0.586-0.299-2.945-1.822-3.516-2.34c2.71-0.433,5.714-1.366,8.456-1.242 c1.398-2.367,2.787-4.051,4.185-6.418"/><polygon fill="#d03827" points="30.594,19.508 24.516,20.5 18.531,18.688 18.451,2.579 30.469,3.346"/><polygon fill="#d6e5e5" points="18.451,18.583 14.406,17.708 14.406,2.579 18.34,2.579"/><path fill="#010101" d="M41.915,6.908l0.052-0.519c0.064-0.663,0.152-1.571-0.31-2.346c-0.377-0.634-1.094-1.022-1.917-1.04 c-4.495-0.096-8.806-0.259-12.974-0.416c-5.085-0.192-10.344-0.391-15.869-0.463c-0.34-0.005-0.561-0.017-0.753-0.026 c-0.344-0.02-0.616-0.033-1.277,0.003C7.66,2.169,6.679,3.091,6.534,4.293c-0.461,3.81-0.651,6.931-0.582,9.544 c0.029,1.072,0.784,2.024,1.81,2.307l4.279,1.46c1.42,0.392,2.863,0.765,4.312,1.138c1.929,0.498,3.89,1.027,5.825,1.59 c-0.002,0.007-0.007,0.012-0.009,0.019c-0.014,0.059-0.032,0.115-0.051,0.172l-0.056,0.185c-0.249,0.934,0.178,1.998,0.995,2.51 c-0.618,1.016-1.242,1.941-1.849,2.823c-0.64,0.93-1.3,1.89-1.957,2.98c-1.879-0.052-3.838,0.374-5.735,0.771 c-0.856,0.179-1.702,0.356-2.521,0.486c-0.189,0.03-0.346,0.167-0.4,0.352s0.001,0.384,0.144,0.513 c0.613,0.557,3.033,2.113,3.625,2.416c2.039,1.04,2.937,1.695,4.518,3.122c-0.441,1.31-0.908,2.736-1.376,4.164 c-0.503,1.537-1.006,3.074-1.478,4.464c-0.066,0.197-0.005,0.415,0.155,0.547c0.092,0.075,0.205,0.114,0.318,0.114 c0.085,0,0.171-0.021,0.248-0.065c0.839-0.479,1.729-0.932,2.672-1.41c1.936-0.983,3.934-1.997,5.557-3.303 c2.528,2.063,5.207,3.576,7.282,4.675c0.168,0.087,0.372,0.074,0.526-0.037s0.231-0.301,0.2-0.488 c-0.268-1.582-0.7-3.109-1.117-4.587c-0.279-0.984-0.566-2.001-0.803-3.025c1.815-1.735,4.117-3.595,6.156-5.243l1.466-1.188 c0.112-0.093,0.376-0.344,0.396-0.686c0.011-0.189-0.057-0.368-0.188-0.504c-0.179-0.186-0.406-0.212-0.519-0.225l-8.415-0.905 c-0.158-0.018-0.398-0.043-0.482-0.126c-0.044-0.043-0.09-0.146-0.135-0.245c-0.93-2.041-2.09-3.976-3.437-5.766 c0.53-0.572,0.719-1.422,0.516-2.17c1.34-0.238,2.624-0.467,3.891-0.693c0.049,0.016,0.1,0.031,0.155,0.031 c0.002,0,0.005,0,0.007,0c0.113-0.002,0.212-0.048,0.295-0.112c0.35-0.063,0.701-0.125,1.051-0.188 c2.422-0.433,4.838-0.865,7.523-1.339c0.568-0.101,1.428-0.252,1.943-0.908c0.24-0.305,0.356-0.663,0.431-0.942 c0.322-1.214,0.379-2.472,0.163-3.637C41.519,10.913,41.721,8.877,41.915,6.908z M29.963,3.708 c-0.165,4.569-0.095,9.248-0.024,13.775l0.023,1.541c-1.736,0.31-3.506,0.625-5.411,0.962c-1.834-0.588-3.723-1.101-5.605-1.596 c-0.022-0.818-0.048-1.651-0.075-2.501c-0.135-4.213-0.273-8.57,0.078-12.498c0.003-0.028-0.007-0.053-0.009-0.08 c2.647,0.083,5.24,0.18,7.788,0.276C27.797,3.627,28.875,3.668,29.963,3.708z M8.056,15.188c-0.633-0.175-1.087-0.741-1.104-1.378 c-0.068-2.563,0.119-5.636,0.574-9.396c0-0.001,0-0.001,0-0.001C7.613,3.692,8.201,3.141,8.923,3.1 c0.273-0.015,0.473-0.021,0.639-0.021c0.201,0,0.354,0.009,0.529,0.018c0.203,0.011,0.436,0.023,0.793,0.028 c1.077,0.014,2.136,0.036,3.193,0.059c-0.003,0.024-0.014,0.046-0.013,0.071l0.129,13.891c-0.625-0.165-1.247-0.33-1.857-0.498 L8.056,15.188z M15.195,17.408L15.063,3.245c0-0.015-0.007-0.027-0.008-0.042c0.978,0.023,1.94,0.052,2.903,0.08 c-0.001,0.006-0.005,0.011-0.005,0.017c-0.356,3.989-0.217,8.377-0.082,12.619c0.024,0.75,0.046,1.48,0.066,2.205 c-0.444-0.115-0.894-0.238-1.335-0.351C16.131,17.652,15.663,17.53,15.195,17.408z M28.777,29.563 c0.332,0.327,0.78,0.376,1.077,0.408l7.838,0.844l-1.099,0.892c-2.132,1.723-4.549,3.676-6.426,5.496 c-0.125,0.121-0.178,0.298-0.141,0.467c0.253,1.146,0.571,2.27,0.878,3.355c0.319,1.127,0.646,2.283,0.897,3.46 c-1.963-1.073-4.313-2.486-6.505-4.327c-0.187-0.157-0.46-0.156-0.646,0.003c-1.587,1.359-3.67,2.418-5.685,3.44 c-0.545,0.277-1.073,0.545-1.586,0.815c0.351-1.051,0.712-2.156,1.074-3.263c0.503-1.537,1.006-3.074,1.478-4.464 c0.063-0.188,0.01-0.396-0.137-0.531c-1.813-1.65-2.735-2.348-4.979-3.492c-0.407-0.208-1.637-0.99-2.524-1.605 c0.471-0.092,0.947-0.191,1.428-0.292c1.938-0.404,3.942-0.817,5.786-0.741c0.188,0.025,0.358-0.084,0.453-0.245 c0.689-1.167,1.393-2.188,2.071-3.177c0.659-0.957,1.339-1.949,2.015-3.08c0.063,0.005,0.125,0.024,0.188,0.024 c0.287,0,0.573-0.053,0.841-0.154c1.319,1.745,2.452,3.633,3.358,5.623C28.508,29.184,28.601,29.389,28.777,29.563z M25.143,22.202 c-0.39,0.381-1.06,0.463-1.529,0.188c-0.468-0.274-0.725-0.899-0.585-1.424l0.043-0.141c0.023-0.07,0.044-0.141,0.063-0.213 c0.407,0.124,0.827,0.233,1.228,0.362C24.412,20.992,24.464,21,24.516,21c0.029,0,0.059-0.003,0.087-0.008 c0.279-0.049,0.545-0.097,0.819-0.145C25.587,21.303,25.488,21.864,25.143,22.202z M31.646,18.724 c-0.228,0.041-0.458,0.082-0.687,0.123l-0.021-1.378c-0.069-4.516-0.139-9.181,0.026-13.725c0.734,0.026,1.467,0.053,2.21,0.078 c-0.221,4.864-0.251,9.789-0.09,14.646C32.603,18.552,32.124,18.638,31.646,18.724z M40.898,13.063 c0.188,1.021,0.138,2.127-0.146,3.198c-0.053,0.197-0.123,0.42-0.249,0.58c-0.259,0.329-0.778,0.444-1.332,0.543 c-1.791,0.316-3.458,0.612-5.092,0.904c-0.156-4.79-0.125-9.643,0.092-14.437c1.821,0.058,3.664,0.112,5.547,0.152 c0.469,0.01,0.883,0.222,1.079,0.552c0.272,0.455,0.239,1.057,0.173,1.738L40.92,6.81C40.719,8.848,40.51,10.955,40.898,13.063z"/></svg>