<svg xmlns="http://www.w3.org/2000/svg" viewBox="0 0 48 48" width="48px" height="48px"><polygon fill="#127272" points="3.736,21.917 1.289,22.883 2.512,24.231 0.59,25.384 2.163,27.358 0.745,28.348 1.812,29.343 0.352,30.422 3.736,33.329 13.591,44.143 25.858,38.05 33.701,32.939 47.436,23.625 45.97,21.74 46.913,20.598 45.386,19.278 46.603,18.173 44.711,16.696 46.654,14.701"/><path fill="#2b8c5e" d="M47.436,14.405c-3.566-2.864-5.7-4.302-9.266-7.166c-0.64-0.514-3.745-2.48-4.565-2.527 c-0.639-0.037-1.251,0.234-1.834,0.498c-10.628,4.822-20.135,9.913-30.763,14.734c3.159,3.248,6.359,6.766,9.518,10.014 c0.764,0.785,2.88,2.797,3.909,3.174c2.158-1.079,2.506-1.387,4.229-2.282C28.448,25.766,37.288,18.72,47.436,14.405z"/><path fill="#010101" d="M46.341,21.941c0.284-0.192,0.567-0.388,0.851-0.579c0.111-0.074,0.188-0.19,0.212-0.322 s-0.004-0.268-0.081-0.378c-0.208-0.3-0.7-0.772-1.193-1.127l0.516-0.361c0.117-0.082,0.391-0.273,0.447-0.617 c0.058-0.354-0.121-0.668-0.529-0.93l-1.06-0.678c0.406-0.381,0.816-0.756,1.21-1.151c0.153-0.153,0.181-0.378,0.094-0.564 c0.275-0.122,0.547-0.252,0.823-0.369c0.162-0.068,0.275-0.218,0.299-0.392c0.024-0.174-0.045-0.348-0.182-0.458 c-1.787-1.436-3.238-2.531-4.641-3.59c-1.399-1.056-2.846-2.148-4.625-3.577c-0.479-0.384-3.793-2.575-4.849-2.636 c-0.771-0.047-1.494,0.28-2.07,0.542C26.24,7.17,21.116,9.692,16.16,12.133c-4.943,2.434-10.055,4.95-15.358,7.356 c-0.148,0.067-0.254,0.202-0.285,0.362s0.019,0.324,0.133,0.441c0.492,0.506,0.987,1.028,1.481,1.545 c-0.144,0.08-0.285,0.16-0.424,0.24c-0.304,0.175-0.607,0.35-0.967,0.523c-0.164,0.079-0.272,0.241-0.282,0.424 c-0.009,0.183,0.081,0.355,0.236,0.451c0.261,0.162,0.505,0.361,0.742,0.573c-0.347,0.338-0.716,0.652-1.118,0.916 c-0.117,0.077-0.196,0.198-0.22,0.336c-0.023,0.138,0.012,0.278,0.098,0.389c0.401,0.519,0.831,1.015,1.244,1.525l-0.902,0.558 c-0.114,0.071-0.189,0.193-0.219,0.325c-0.029,0.131,0.001,0.277,0.075,0.39c0.189,0.29,0.385,0.584,0.58,0.877 c-0.655,0.272-1.009,0.744-0.882,1.269c0.059,0.245,0.211,0.421,0.294,0.517c0.577,0.663,1.269,1.188,1.939,1.696 c0.54,0.409,1.05,0.796,1.502,1.247c0.382,0.382,0.717,0.805,1.072,1.252l0.099,0.124c2.525,3.186,5.301,6.226,8.25,9.036 c0.097,0.092,0.221,0.138,0.345,0.138c0.126,0,0.253-0.048,0.35-0.144c0.172-0.168,0.883-0.564,1.278-0.749 c0.884-0.414,1.737-0.81,2.564-1.192c4.561-2.111,8.499-3.936,12.689-6.692c2.531-1.665,5.081-3.474,7.547-5.223 c3.154-2.236,6.416-4.549,9.681-6.595c0.118-0.074,0.2-0.195,0.226-0.332c0.025-0.138-0.008-0.279-0.092-0.392 C47.539,22.929,46.871,22.357,46.341,21.941z M16.602,13.03c4.949-2.437,10.066-4.956,15.376-7.365 c0.501-0.228,1.066-0.491,1.6-0.454c0.591,0.034,3.5,1.791,4.28,2.417c1.79,1.438,3.243,2.535,4.648,3.596 c1.223,0.924,2.482,1.874,3.968,3.054c-5.654,2.495-10.976,5.842-16.13,9.084c-3.853,2.423-7.836,4.929-11.911,7.046 c-0.745,0.387-1.235,0.665-1.723,0.942c-0.618,0.351-1.204,0.683-2.291,1.23c-0.878-0.445-2.55-1.958-3.536-2.971 c-1.577-1.622-3.165-3.312-4.753-5.001c-0.947-1.007-1.892-2.008-2.837-3.002c-0.005-0.004-0.009-0.01-0.013-0.014 c-0.474-0.498-0.948-0.998-1.42-1.487C6.948,17.782,11.852,15.368,16.602,13.03z M2.205,22.944c0.207-0.119,0.42-0.238,0.645-0.356 c0.85,0.896,1.701,1.8,2.553,2.706c1.592,1.693,3.183,3.387,4.765,5.013c0.027,0.028,2.729,2.795,4.095,3.295 c0.056,0.021,0.114,0.03,0.172,0.03c0.077,0,0.153-0.018,0.224-0.053c1.246-0.622,1.907-0.997,2.546-1.36 c0.479-0.271,0.959-0.545,1.69-0.925c4.111-2.136,8.112-4.652,11.982-7.086c4.535-2.853,9.204-5.781,14.091-8.128 c-4.702,4.444-10.253,7.967-15.645,11.37c-1.289,0.813-2.622,1.654-3.979,2.404c-1.708,0.943-3.505,1.769-5.34,2.451l-0.766,0.28 c-1.861,0.675-3.78,1.371-5.185,2.789c-3.892-3.081-7.426-6.612-10.51-10.501c-0.465-0.586-1.008-1.227-1.644-1.755 C2.002,23.062,2.104,23.003,2.205,22.944z M2.143,24.763c0.218,0.245,0.427,0.492,0.617,0.732 c3.229,4.071,6.943,7.756,11.04,10.953c0.091,0.071,0.2,0.105,0.307,0.105c0.142,0,0.281-0.06,0.38-0.175 c1.253-1.46,3.205-2.168,5.092-2.853l0.774-0.283c1.882-0.7,3.724-1.546,5.476-2.514c1.381-0.764,2.727-1.612,4.028-2.434 c5.092-3.214,10.334-6.524,14.9-10.639l1.208,0.774L29.88,29.684c-0.923,0.646-1.877,1.313-2.836,1.928 c-2.941,1.89-6.151,3.284-9.183,4.511c-0.851,0.345-1.644,0.771-2.411,1.185c-0.499,0.269-0.999,0.538-1.52,0.787 c-0.087,0.042-0.266,0.138-0.335,0.114c-0.047-0.01-0.152-0.099-0.214-0.151c-4.431-3.763-8.492-7.987-12.075-12.565 C1.602,25.27,1.878,25.022,2.143,24.763z M12.735,38.819c0.152,0.129,0.361,0.306,0.653,0.367c0.077,0.016,0.152,0.023,0.224,0.023 c0.304,0,0.565-0.125,0.75-0.214c0.535-0.257,1.049-0.533,1.562-0.81c0.777-0.418,1.511-0.813,2.312-1.137 c3.076-1.245,6.338-2.663,9.348-4.597c0.976-0.627,1.938-1.299,2.917-1.984L45.25,20.151c0.269,0.155,0.629,0.44,0.906,0.703 c-0.311,0.209-0.62,0.424-0.931,0.634c-0.014,0.008-0.027,0.018-0.04,0.027c-5.273,3.571-10.522,7.278-15.623,11.043l-0.186,0.138 c-0.672,0.495-1.343,0.991-2.028,1.469c-2.739,1.912-5.725,3.277-8.885,4.722c-1.261,0.577-2.529,1.157-3.786,1.776 c-0.261,0.128-0.543,0.143-0.778,0.04c-0.293-0.13-0.557-0.375-0.847-0.658c-0.493-0.48-0.978-0.969-1.463-1.457 c-0.799-0.806-1.626-1.639-2.481-2.423c-0.642-0.59-1.307-1.157-1.971-1.726c-1.507-1.288-3.065-2.619-4.296-4.179 c-0.475-0.601-0.914-1.252-1.343-1.906l0.578-0.357C5.312,31.898,8.874,35.54,12.735,38.819z M1.14,30.495 c-0.029-0.033-0.05-0.06-0.064-0.063c0.051-0.051,0.188-0.144,0.422-0.213c0.021-0.006,0.036-0.021,0.056-0.029 c0.166,0.231,0.327,0.466,0.504,0.69c0.464,0.587,0.974,1.13,1.5,1.658c-0.21-0.166-0.42-0.33-0.629-0.488 C2.27,31.551,1.648,31.079,1.14,30.495z M37.443,29.828c-2.459,1.743-5.003,3.547-7.519,5.202 c-4.128,2.717-7.849,4.439-12.56,6.621c-0.829,0.384-1.683,0.779-2.567,1.193c-0.176,0.082-0.739,0.365-1.166,0.645 c-2.802-2.696-5.442-5.602-7.852-8.641l-0.098-0.124c-0.215-0.271-0.439-0.545-0.672-0.814c0.492,0.437,0.987,0.867,1.479,1.288 c0.656,0.561,1.312,1.121,1.945,1.702c0.837,0.769,1.656,1.594,2.447,2.391c0.489,0.493,0.978,0.985,1.474,1.469 c0.278,0.271,0.659,0.644,1.142,0.857c0.231,0.102,0.481,0.152,0.735,0.152c0.299,0,0.603-0.07,0.888-0.211 c1.249-0.614,2.508-1.19,3.761-1.763c3.062-1.4,6.228-2.849,9.042-4.812c0.692-0.483,1.371-0.983,2.049-1.484l0.186-0.138 c5.001-3.692,10.146-7.324,15.314-10.83c0.373,0.28,0.844,0.667,1.188,0.992C43.542,25.503,40.444,27.7,37.443,29.828z"/><path fill="#71c598" d="M16.342,28.348c8.03-3.17,14.935-8.704,22.715-12.446c1.139-0.548,2.302-1.404,2.732-2.592 c-1.359-1.461-2.951-3.035-4.544-4.238c-0.356-0.269-0.723-0.534-1.142-0.687c-0.584-0.213-1.223-0.192-1.843-0.232 c-0.789-0.051-1.576-0.206-2.364-0.138c-1.143,0.098-2.19,0.653-3.2,1.197c-1.256,0.676-2.512,1.352-3.767,2.027 c-4.275,2.301-8.474,4.62-13.032,6.292c-1.624,0.69-3.154,1.391-4.779,2.082c-0.107,0.046-0.221,0.097-0.283,0.196 c-0.091,0.147-0.034,0.336,0.004,0.504c0.12,0.533,0.002,1.115-0.316,1.56c2.111,0.437,3.45,2.46,4.554,4.312 c0.274,0.459,0.558,0.929,0.984,1.251c0.568,0.429,1.308,0.536,2.013,0.63C14.822,28.165,15.594,28.248,16.342,28.348z"/><path fill="#010101" d="M16.342,28.848c-0.022,0-0.044-0.001-0.066-0.004c-0.372-0.05-0.75-0.096-1.127-0.141 c-0.382-0.046-0.764-0.092-1.14-0.142c-0.695-0.093-1.561-0.208-2.248-0.727c-0.511-0.387-0.831-0.923-1.112-1.396 c-1.103-1.849-2.338-3.688-4.226-4.078c-0.166-0.034-0.303-0.149-0.365-0.307c-0.062-0.158-0.039-0.336,0.059-0.474 c0.236-0.329,0.324-0.763,0.235-1.159c-0.056-0.243-0.132-0.569,0.059-0.878c0.147-0.236,0.375-0.333,0.512-0.392 c0.811-0.345,1.597-0.691,2.384-1.038c0.791-0.35,1.582-0.698,2.396-1.044c4.245-1.558,8.079-3.625,12.139-5.813l4.619-2.486 c0.998-0.537,2.128-1.146,3.395-1.254c0.586-0.049,1.155,0.01,1.705,0.069c0.244,0.025,0.488,0.052,0.733,0.067l0.384,0.02 c0.524,0.023,1.065,0.048,1.598,0.242c0.479,0.174,0.875,0.457,1.272,0.757c1.387,1.048,2.894,2.454,4.608,4.297 c0.127,0.138,0.167,0.335,0.104,0.511c-0.52,1.438-1.91,2.355-2.985,2.872c-3.343,1.608-6.587,3.588-9.724,5.503 c-4.144,2.528-8.428,5.144-13.024,6.958C16.467,28.836,16.404,28.848,16.342,28.848z M7.242,21.557 c1.933,0.692,3.209,2.602,4.265,4.371c0.247,0.413,0.501,0.841,0.856,1.109c0.477,0.359,1.167,0.452,1.777,0.532 c0.372,0.05,0.75,0.096,1.127,0.141c0.338,0.041,0.677,0.081,1.011,0.125c4.471-1.781,8.68-4.35,12.75-6.834 c3.158-1.928,6.423-3.921,9.811-5.55c0.831-0.4,1.88-1.067,2.361-2.038c-1.583-1.684-2.977-2.976-4.257-3.943 c-0.334-0.251-0.663-0.488-1.012-0.615c-0.389-0.142-0.832-0.161-1.3-0.183l-0.405-0.021c-0.257-0.017-0.515-0.044-0.773-0.071 c-0.528-0.057-1.026-0.112-1.515-0.067c-1.06,0.091-2.094,0.647-3.006,1.139l-4.618,2.486c-3.912,2.108-7.957,4.289-12.245,5.862 c-0.787,0.335-1.573,0.682-2.36,1.028c-0.791,0.35-1.582,0.698-2.396,1.044c-0.004,0.002-0.009,0.004-0.015,0.007 c0.005,0.023,0.011,0.049,0.016,0.069C7.423,20.632,7.393,21.12,7.242,21.557z"/><path fill="#2b8c5e" d="M16.694,21.197c-0.442-0.215-0.593-0.412-1.079-0.482c-0.486-0.07-1.023,0.03-1.37,0.378 c-0.206,0.207-0.328,0.481-0.446,0.748c-0.102,0.232-0.207,0.479-0.176,0.73c0.068,0.551,0.71,0.812,1.258,0.901 c0.317,0.052,0.637,0.084,0.958,0.095c0.538,0.019,1.158-0.061,1.459-0.507c0.223-0.33,0.196-0.788,0-1.135 S17.059,21.355,16.694,21.197z"/><path fill="#010101" d="M15.979,24.07c-0.052,0-0.105-0.001-0.159-0.003c-0.342-0.013-0.683-0.046-1.021-0.102 c-0.979-0.16-1.589-0.646-1.673-1.333c-0.049-0.394,0.103-0.74,0.214-0.993c0.123-0.278,0.274-0.623,0.55-0.9 c0.425-0.426,1.093-0.621,1.795-0.52c0.429,0.063,0.672,0.208,0.908,0.35c0.09,0.054,0.188,0.113,0.311,0.174 c0.446,0.198,0.599,0.495,0.733,0.758l0.095,0.179c0.305,0.537,0.297,1.189-0.02,1.66C17.385,23.825,16.802,24.07,15.979,24.07z M15.324,21.193c-0.297,0-0.563,0.091-0.725,0.253c-0.144,0.144-0.245,0.374-0.343,0.596c-0.071,0.162-0.152,0.347-0.137,0.468 c0.029,0.233,0.444,0.404,0.843,0.47c0.296,0.048,0.595,0.077,0.895,0.088c0.373,0.02,0.851-0.025,1.027-0.287 c0.102-0.15,0.093-0.406-0.021-0.607l-0.114-0.215c-0.113-0.22-0.132-0.25-0.254-0.304c-0.006-0.003-0.013-0.006-0.019-0.009 c-0.157-0.076-0.282-0.15-0.396-0.219c-0.198-0.118-0.307-0.184-0.537-0.217C15.469,21.199,15.396,21.193,15.324,21.193z"/><path fill="#2b8c5e" d="M34.187,11.79c-0.344-0.364-0.603-0.332-1.1-0.27c-0.497,0.061-0.958,0.37-1.203,0.807 c-0.287,0.51-0.237,1.23,0.216,1.601c0.156,0.128,0.345,0.207,0.534,0.279c0.484,0.185,1.009,0.333,1.516,0.226 c0.507-0.107,0.978-0.545,0.957-1.063c-0.012-0.306-0.186-0.58-0.366-0.828C34.491,12.2,34.481,12.095,34.187,11.79z"/><path fill="#010101" d="M33.789,14.97c-0.48,0-0.936-0.144-1.334-0.296c-0.212-0.081-0.457-0.183-0.672-0.359 c-0.609-0.5-0.756-1.48-0.335-2.232c0.322-0.573,0.927-0.979,1.578-1.059c0.519-0.064,1.007-0.125,1.523,0.421 c0.223,0.23,0.315,0.378,0.414,0.533c0.047,0.075,0.101,0.159,0.182,0.271c0.218,0.299,0.443,0.664,0.461,1.101 c0.034,0.83-0.672,1.43-1.354,1.572C34.096,14.955,33.941,14.97,33.789,14.97z M33.523,11.98c-0.083,0-0.199,0.014-0.374,0.035 c-0.343,0.042-0.661,0.255-0.83,0.556c-0.185,0.33-0.141,0.774,0.098,0.97c0.1,0.082,0.25,0.144,0.396,0.199 c0.387,0.147,0.836,0.287,1.234,0.203c0.308-0.064,0.57-0.323,0.561-0.553c-0.007-0.169-0.134-0.366-0.271-0.554 c-0.098-0.134-0.162-0.234-0.218-0.324c-0.086-0.136-0.138-0.217-0.291-0.376c-0.001-0.001-0.002-0.002-0.004-0.004 C33.719,12.022,33.671,11.98,33.523,11.98z"/><path fill="#2b8c5e" d="M26.877,14.797c-0.764-0.191-1.408-0.306-2.195-0.327c-0.787-0.02-1.603,0.145-2.238,0.61 c-0.453,0.331-0.79,0.795-1.087,1.271c-0.5,0.801-0.893,1.88-0.333,2.641c0.203,0.277,0.506,0.463,0.808,0.626 c1.102,0.594,2.349,0.983,3.596,0.877s2.485-0.765,3.084-1.864c0.599-1.099,0.414-2.629-0.564-3.41 C27.606,14.947,27.313,14.849,26.877,14.797z"/><path fill="#010101" d="M25.01,21.013c-1.091,0-2.238-0.32-3.415-0.954c-0.351-0.189-0.712-0.413-0.974-0.771 c-0.588-0.799-0.477-1.937,0.312-3.202c0.276-0.443,0.665-1.005,1.215-1.409c0.844-0.616,1.849-0.715,2.547-0.706 c0.734,0.02,1.395,0.116,2.273,0.334c0.454,0.058,0.849,0.172,1.292,0.525c1.13,0.902,1.434,2.677,0.691,4.04 c-0.644,1.183-1.978,1.996-3.481,2.123C25.318,21.006,25.165,21.013,25.01,21.013z M24.554,14.969 c-0.532,0-1.242,0.097-1.814,0.515c-0.409,0.301-0.713,0.741-0.957,1.132c-0.26,0.417-0.815,1.455-0.355,2.081 c0.145,0.197,0.395,0.348,0.643,0.481c1.169,0.631,2.287,0.91,3.317,0.819c1.172-0.1,2.202-0.715,2.687-1.605 c0.509-0.934,0.313-2.182-0.437-2.78c-0.248-0.197-0.439-0.272-0.819-0.318c-0.021-0.002-0.041-0.006-0.061-0.011 c-0.691-0.173-1.311-0.291-2.087-0.312C24.632,14.97,24.593,14.969,24.554,14.969z"/></svg>