<svg xmlns="http://www.w3.org/2000/svg" viewBox="0 0 48 48" width="48px" height="48px"><polygon fill="#c56528" points="25.348,45.521 20.001,42.748 13.575,38.728 6.236,35.521 6.212,18.588 1.686,15.827 3.969,14.471 26.333,4.583 46.074,13.031 42.5,17.965 25.229,27.021"/><path fill="#f58420" d="M6.073,18.938l18.497,7.918c0,0-1.862,3.29-3.716,4.103c-1.448-0.702-8.849-4.993-11.176-5.75 c-2.327-0.757-7.912-2.667-7.912-2.667L6.073,18.938z"/><path fill="#c56528" d="M25.057,27.265l0.31,18.141l1.317-0.32l7.311-3.314l8.292-5.115c0,0-0.833-4.093-0.31-7.624 s0.184-10.365,0.184-10.365L25.057,27.265z"/><polygon fill="#f58420" points="25.348,26.995 30.75,32.313 46.617,21.259 42.287,18.334"/><path fill="#74cccf" d="M8.445,19.748c-0.762-4.4,1.192-9.036,4.534-11.999s7.901-4.344,12.367-4.324 c2.248,0.01,4.559,0.377,6.478,1.547c2.192,1.337,4.191,2.926,5.468,5.154c1.492,2.603,3.214,5.568,3.568,8.547l-15.688,8.182 C25.171,26.854,9.796,21.245,8.445,19.748z"/><path fill="#38b47b" d="M11.604,21.292c-0.397-0.775-0.716-1.796-0.883-2.651c0.492,0.046,0.811-0.539,1.286-0.674 c0.377-0.107,0.766,0.088,1.109,0.276c0.864,0.475,1.728,0.95,2.591,1.425c-0.524-0.589-0.532-1.569-0.018-2.166 c0.883-1.026,2.927-0.932,3.206-2.256c0.167-0.792-0.495-1.634-0.188-2.382c0.296-0.721,1.367-0.982,1.468-1.754 c0.094-0.721-0.709-1.179-1.316-1.578c-0.754-0.496-1.382-1.229-1.602-2.104c-0.22-0.875-0.047-2.088,0.653-2.657 c0,0-6.082,2.381-7.924,6.712s-1.919,6.846-1.391,8.536C10.416,20.835,11.604,21.292,11.604,21.292z"/><path fill="#38b47b" d="M28.063,3.729c-0.795,1.181-0.403,3.592,1.002,3.818c0.248,0.04,0.525,0.045,0.71,0.214 c0.157,0.144,0.205,0.37,0.23,0.582c0.088,0.756-0.051,1.601-0.62,2.106c-0.906,0.805-2.431,0.405-3.408,1.124 c-1.003,0.738-0.76,2.587,0.4,3.041c0.35,0.137,0.737,0.159,1.085,0.299c0.348,0.14,0.674,0.466,0.626,0.838 c-0.06,0.46-0.613,0.669-0.857,1.064c-0.377,0.611,0.194,1.471,0.903,1.58s1.4-0.322,1.875-0.86s0.804-1.19,1.263-1.742 c0.543-0.653,1.292-1.165,2.132-1.293s1.766,0.179,2.261,0.869c0.809,1.125-0.656,2.917-1.614,3.919 c-0.836,0.802-1.795,1.476-2.832,1.992c-1.292,0.643-2.723,1.052-3.849,1.955c-0.205,0.165-0.4,0.346-0.551,0.563 c-0.396,0.568-0.324,1.703,0.015,2.306l14.049-7.111c0,0-1.123-6.121-3.857-9.307S30.958,4.034,28.063,3.729z"/><path fill="#38b47b" d="M24.749,6.875l-0.205,0.208c-0.498,0.347-1.062,0.866-0.885,1.446 c0.078,0.256,0.291,0.449,0.518,0.592c0.367,0.231,0.818,0.367,1.238,0.258c0.419-0.109,0.775-0.514,0.728-0.945 C26.065,7.725,25.116,7.488,24.749,6.875z"/><path d="M42.779,24.657c1.371-0.964,2.743-1.929,4.123-2.89c0.135-0.094,0.215-0.248,0.214-0.413 c-0.001-0.164-0.083-0.317-0.218-0.41c-0.555-0.378-1.153-0.791-1.75-1.204c-0.57-0.394-1.139-0.786-1.668-1.147 c-0.237-0.161-0.34-0.301-0.361-0.356c0.058-0.142,0.04-0.293-0.026-0.42c0.416-0.536,0.949-1.18,1.472-1.812 c0.721-0.87,1.467-1.77,1.961-2.464c0.11-0.192,0.128-0.413,0.051-0.62c-0.154-0.413-0.616-0.604-0.753-0.653 c-3.454-1.22-6.17-2.452-9.171-3.925c-1.434-1.753-3.225-2.978-4.568-3.796c-1.766-1.078-3.97-1.607-6.736-1.621 c-2.671-0.009-5.225,0.47-7.532,1.362c-0.056,0.011-0.107,0.033-0.158,0.064c-1.864,0.74-3.567,1.746-5.01,3.025 c-1.403,1.244-2.535,2.745-3.355,4.369c-0.074,0.01-0.147,0.032-0.214,0.077c-1.025,0.693-2.213,1.069-3.472,1.468 c-1.205,0.381-2.451,0.774-3.555,1.476c-0.645,0.408-0.732,0.853-0.691,1.152c0.058,0.436,0.408,0.693,0.577,0.817 c1.089,0.801,2.393,1.607,3.508,2.185c-1.475,1-2.837,2.163-4.046,3.472c-0.121,0.131-0.163,0.316-0.11,0.486 c0.053,0.17,0.192,0.3,0.365,0.34c1.318,0.305,2.625,0.677,3.923,1.084c-0.011,2.161,0.034,3.831,0.08,5.431 c0.048,1.69,0.098,3.439,0.079,5.784c-0.001,0.205,0.122,0.39,0.312,0.467l0.916,0.372c3.381,1.369,6.878,2.784,9.732,4.841 l0.519,0.381c0.643,0.477,1.308,0.969,2.055,1.341c0.357,0.177,1.104,0.627,1.895,1.104c2.129,1.283,3.192,1.884,3.805,2.107 c0.037,0.047,0.071,0.097,0.125,0.129c0.078,0.046,0.166,0.069,0.253,0.069c0.092,0,0.183-0.025,0.264-0.075 c1.335-0.829,3.22-1.63,5.042-2.405c1.066-0.453,2.074-0.881,2.925-1.296c0.848-0.414,1.645-0.906,2.415-1.383 c0.999-0.617,2.108-1.284,3.218-1.951c1.114-0.669,2.227-1.338,3.229-1.958c0.172-0.105,0.263-0.306,0.23-0.505 c-0.526-3.236-0.295-6.41-0.05-9.771C42.677,26.209,42.732,25.434,42.779,24.657z M44.58,20.563 c0.39,0.269,0.779,0.538,1.157,0.798c-1.248,0.871-2.49,1.744-3.731,2.617c-3.664,2.577-7.448,5.238-11.276,7.75l-4.562-4.615 c0.217-0.09,0.422-0.191,0.603-0.286l15.537-8.006c0.122,0.191,0.308,0.392,0.609,0.597C43.444,19.777,44.012,20.17,44.58,20.563z M41.277,18.155c0.026,0.007,0.06,0.019,0.088,0.027l-0.077,0.04C41.285,18.199,41.281,18.177,41.277,18.155z M45.522,13.223 c-0.45,0.602-1.099,1.384-1.728,2.144c-0.597,0.721-1.203,1.454-1.649,2.044c-0.275-0.127-0.466-0.182-0.608-0.22 c-0.188-0.051-0.269-0.083-0.562-0.399c-0.668-2.388-1.979-4.698-3.176-6.784c2.439,1.16,4.81,2.186,7.69,3.204 C45.501,13.214,45.512,13.218,45.522,13.223z M36.858,10.374l0.068,0.118c1.449,2.525,3.088,5.385,3.432,8.209l-13.216,6.81 c-0.139-0.498-0.119-1.132,0.087-1.427c0.102-0.146,0.246-0.292,0.454-0.459c0.712-0.571,1.564-0.934,2.466-1.317 c0.435-0.185,0.871-0.37,1.292-0.58c1.087-0.541,2.082-1.24,2.971-2.094c1.869-1.954,2.427-3.487,1.659-4.557 c-0.586-0.815-1.662-1.236-2.743-1.071c-0.901,0.137-1.768,0.658-2.441,1.468c-0.227,0.272-0.424,0.568-0.621,0.864 c-0.208,0.312-0.403,0.605-0.633,0.866c-0.445,0.505-0.98,0.757-1.423,0.696c-0.217-0.033-0.441-0.214-0.545-0.438 c-0.048-0.104-0.088-0.254-0.008-0.384c0.058-0.094,0.172-0.193,0.293-0.299c0.255-0.223,0.573-0.499,0.634-0.963 c0.085-0.646-0.425-1.161-0.934-1.367c-0.204-0.082-0.417-0.131-0.632-0.178c-0.155-0.033-0.311-0.065-0.458-0.123 c-0.438-0.172-0.648-0.636-0.697-1.014c-0.049-0.377,0.033-0.88,0.412-1.159c0.369-0.271,0.886-0.347,1.434-0.427 c0.669-0.098,1.427-0.208,2.009-0.726c0.622-0.552,0.908-1.477,0.785-2.538c-0.033-0.28-0.107-0.635-0.388-0.892 c-0.268-0.246-0.602-0.29-0.846-0.323l-0.123-0.018c-0.409-0.065-0.648-0.433-0.777-0.729c-0.284-0.654-0.26-1.516,0.014-2.099 c1.206,0.241,2.272,0.619,3.183,1.174C34.125,6.959,35.807,8.54,36.858,10.374z M27.367,4.054 c-0.288,0.816-0.277,1.839,0.083,2.669c0.322,0.742,0.868,1.211,1.536,1.317l0.15,0.021c0.1,0.014,0.266,0.036,0.303,0.069 c0.004,0.004,0.044,0.046,0.07,0.271c0.083,0.721-0.086,1.347-0.456,1.674c-0.358,0.319-0.908,0.399-1.489,0.484 c-0.615,0.09-1.313,0.191-1.882,0.611c-0.611,0.449-0.921,1.252-0.811,2.095c0.111,0.843,0.618,1.538,1.325,1.814 c0.196,0.077,0.403,0.124,0.609,0.169c0.16,0.034,0.32,0.066,0.47,0.128c0.191,0.077,0.328,0.23,0.317,0.31 c-0.012,0.088-0.158,0.216-0.299,0.339c-0.164,0.143-0.351,0.305-0.488,0.527c-0.241,0.391-0.259,0.875-0.049,1.329 c0.244,0.528,0.755,0.924,1.301,1.007c0.8,0.125,1.645-0.251,2.326-1.023c0.274-0.312,0.498-0.648,0.715-0.975 c0.177-0.266,0.354-0.532,0.557-0.778c0.517-0.62,1.164-1.018,1.823-1.118c0.702-0.109,1.417,0.161,1.78,0.667 c0.428,0.595-0.144,1.791-1.554,3.266c-0.801,0.769-1.712,1.41-2.708,1.906c-0.403,0.2-0.821,0.377-1.238,0.555 c-0.924,0.394-1.88,0.8-2.701,1.458c-0.284,0.228-0.49,0.439-0.648,0.666c-0.445,0.638-0.438,1.705-0.172,2.465 c-0.275,0.142-0.573,0.283-0.866,0.344c-0.18-0.146-0.431-0.15-0.615-0.007c-0.231-0.048-0.459-0.13-0.675-0.21 c-3.751-1.371-7.888-3.115-12.04-5.057c-0.281-0.553-0.546-1.302-0.726-2.039c0.178-0.091,0.329-0.212,0.457-0.314 c0.137-0.11,0.267-0.215,0.372-0.244c0.189-0.056,0.477,0.092,0.733,0.233l2.592,1.425c0.212,0.115,0.48,0.063,0.632-0.127 c0.151-0.19,0.144-0.462-0.018-0.644c-0.355-0.399-0.361-1.104-0.013-1.508c0.297-0.346,0.806-0.548,1.345-0.762 c0.823-0.327,1.756-0.697,1.971-1.719c0.102-0.483-0.021-0.943-0.129-1.35c-0.1-0.375-0.187-0.699-0.085-0.945 c0.085-0.207,0.321-0.392,0.57-0.588c0.378-0.298,0.85-0.668,0.931-1.291c0.128-0.979-0.755-1.553-1.4-1.971l-0.137-0.09 c-0.724-0.477-1.218-1.118-1.392-1.809c-0.168-0.671-0.042-1.622,0.43-2.077c2.201-0.853,4.645-1.32,7.171-1.304 C26.063,3.927,26.73,3.977,27.367,4.054z M13.311,8.123c1.009-0.895,2.179-1.65,3.446-2.275c-0.128,0.573-0.113,1.185,0.017,1.701 c0.235,0.934,0.878,1.786,1.812,2.4l0.142,0.093c0.566,0.367,0.996,0.675,0.954,1.002c-0.027,0.204-0.229,0.376-0.558,0.635 c-0.324,0.255-0.691,0.544-0.876,0.994c-0.229,0.558-0.084,1.103,0.043,1.583c0.087,0.327,0.17,0.636,0.117,0.887 c-0.099,0.472-0.582,0.685-1.361,0.994c-0.599,0.238-1.277,0.507-1.734,1.039c-0.34,0.395-0.507,0.913-0.5,1.429l-1.455-0.8 c-0.333-0.182-0.891-0.489-1.487-0.318c-0.3,0.085-0.525,0.267-0.725,0.426c-0.139,0.111-0.288,0.271-0.376,0.23 c-0.156-0.01-0.312,0.046-0.418,0.162c-0.106,0.117-0.15,0.277-0.12,0.432c0.111,0.564,0.275,1.141,0.466,1.678 c-0.591-0.282-1.18-0.57-1.769-0.86C8.277,15.547,9.985,11.072,13.311,8.123z M2.354,15.81c0.014-0.023,0.067-0.095,0.234-0.201 c0.994-0.63,2.124-0.987,3.32-1.366c0.917-0.29,1.855-0.592,2.737-1.026c-0.543,1.457-0.834,2.977-0.853,4.48L6.33,18.253 c-0.021-0.011-0.042-0.021-0.063-0.032c-0.002-0.001-0.003-0.001-0.005-0.001C6.26,18.22,6.26,18.218,6.258,18.218 c-1.134-0.556-2.563-1.433-3.729-2.289C2.413,15.843,2.368,15.8,2.354,15.81z M6.281,19.554c0.056-0.037,0.101-0.083,0.137-0.135 c5.844,2.968,11.969,5.668,17.318,7.625c0.104,0.038,0.216,0.078,0.332,0.117c-0.91,1.294-2.016,2.472-3.265,3.434 c-4.415-3.042-9.353-5.45-14.486-7.107c-0.054-0.03-0.113-0.049-0.177-0.057c-1.13-0.36-2.265-0.697-3.411-0.982 C3.811,21.364,5.002,20.394,6.281,19.554z M19.715,42.023c-0.667-0.333-1.269-0.777-1.905-1.249l-0.529-0.388 c-2.952-2.128-6.505-3.566-9.942-4.957l-0.6-0.244c0.012-2.193-0.036-3.863-0.082-5.48c-0.043-1.514-0.085-3.099-0.08-5.094 c4.952,1.658,9.704,4.038,13.953,7.009c0.086,0.06,0.187,0.09,0.287,0.09c0.104,0,0.208-0.032,0.295-0.097 c1.335-0.979,2.53-2.187,3.525-3.526c0.489,5.175,0.45,12.081,0.247,16.916c-0.849-0.419-2.314-1.302-3.202-1.837 C20.837,42.657,20.108,42.219,19.715,42.023z M38.696,38.36c-1.114,0.669-2.227,1.338-3.229,1.958 c-0.749,0.463-1.524,0.942-2.327,1.334c-0.828,0.403-1.823,0.826-2.877,1.274c-1.523,0.647-3.088,1.313-4.375,2.011 c0.2-4.869,0.23-11.763-0.263-16.951l4.681,4.735c0.097,0.098,0.226,0.148,0.355,0.148c0.095,0,0.19-0.026,0.273-0.081 c3.662-2.394,7.277-4.923,10.791-7.394c-0.034,0.505-0.067,1.011-0.103,1.515c-0.23,3.163-0.468,6.43,0.009,9.673 C40.708,37.15,39.703,37.755,38.696,38.36z"/><path d="M23.91,9.545c0.391,0.246,0.803,0.374,1.196,0.374c0.148,0,0.293-0.019,0.434-0.055c0.688-0.178,1.171-0.829,1.1-1.482 c-0.068-0.629-0.546-0.985-0.931-1.272c-0.22-0.164-0.428-0.319-0.531-0.491c-0.142-0.236-0.449-0.316-0.686-0.172 c-0.083,0.049-0.146,0.118-0.187,0.198c-0.016,0.009-0.032,0.019-0.047,0.029c-0.923,0.643-1.286,1.316-1.078,2.003 C23.283,9.013,23.529,9.305,23.91,9.545z M24.703,7.586c0.134,0.121,0.275,0.227,0.408,0.325c0.319,0.238,0.514,0.396,0.534,0.578 c0.017,0.157-0.156,0.354-0.357,0.407c-0.239,0.061-0.547-0.01-0.846-0.197c-0.167-0.105-0.276-0.218-0.306-0.314 C24.078,8.189,24.283,7.901,24.703,7.586z"/></svg>