<svg xmlns="http://www.w3.org/2000/svg" viewBox="0 0 512 512" width="192px" height="192px"><path fill="#BCBCBC" d="M331.8 446.5c-.2-3.9-1.8-9-4.2-12.1-3.4-4.2-7.6-7.4-11.3-11-7.7 7.6-16.1 14.4-25.1 20.2.6.6 1 1.4 1.2 2.4 1.7 7.8 5.2 18.9 11.5 24.3 7.2 6.2 17.7-8.9 22.1-13.3C328.6 454.2 332 450.7 331.8 446.5zM234.1 476.7c-.9-3.2-2.1-7.4-3.8-10.7-7.5.9-15.2 1.2-22.9.9-1.1-.1-2.3-.1-3.4-.2-.2 9.9-.9 19.9-.3 29.8 4.7.2 9.4.6 14.1.4 5.1-.2 12.2-.3 15.8-4.6C237.3 487.9 235.6 481.8 234.1 476.7zM123.2 437.6c-3.3 7.5-9.8 13.2-12.5 21-3.2 9.6 8.9 14.9 15.8 17.4 4.1 1.5 9 3.1 13.5 2.7 3.3-.3 3.2-1.1 4.3-4.5 2.4-7.1 3-14.6 5-21.7C140.2 448.4 131.5 443.4 123.2 437.6zM372.8 348.3c-3-3.6-11.9-1.6-16.1-1.5-1.1 9.6-3.6 19-7.3 27.9.1.2.1.4.1.7.8 5.7 6.7 7.4 11.8 6.7 5.7-.8 9.6-5.1 11.9-10.2C376.1 365.4 377.8 354.3 372.8 348.3zM344.2 320.2c-5.9-23-20.4-42.6-37.8-58.3-17.6-16-38.2-29.3-59.9-39-22.2-9.9-46.9-15-71.1-11.3-24.6 3.8-46.8 16.6-63.4 34.9-17.9 19.7-31.1 43.8-34.1 70.6-2.9 26.2 3.5 52.1 13.4 76.2 22 26.9 51.4 49 85.4 57.9 16.7 4.4 34 5.8 50.8 4 1.7-2.7 5.1-4 7.8-1.1h0c14.8-2.5 29.1-7.4 42.4-15.2 11.5-6.7 22.3-14.9 31.8-24.3-.2-.3-.4-.7-.5-1-2.3-5 3.5-8.3 7.6-6.5 5.1-5.9 9.8-12.2 13.8-18.9C342.5 367.7 350.3 344 344.2 320.2zM306 341.5c-2.8 48.7-53 72.9-96.1 77.4-20.1 2.1-41-3-58.5-13.1-15.8-9.1-30-22.9-33.4-41.1-.4-.7-.7-1.6-.7-2.7 0-11.1-.3-22.3.3-33.4 1.2-23.9 7.8-48 27.6-63.1 19.2-14.7 44.6-20.1 68.4-18 24 2.1 45.9 12.7 63 29.7C293.3 293.9 307.4 317 306 341.5z"/><path fill="#BCBCBC" d="M216.5 326.5c-4.7-15.1-32.4-10.7-31.9 5.3 0 .7-.1 1.4-.3 2 .1 8.5 11 13.3 18.6 13.1 4.1-.1 9.3-1.2 11.5-5.2C216.7 337.5 217.9 331.2 216.5 326.5zM88.3 406.7c-2.8-3.2-5.6-6.4-8.2-9.8-1.2-1.5-1.4-3-1-4.3-1.8-4.6-3.4-9.2-4.9-13.9-7.2 1.1-17.3 1.9-22.1 7.3-5.8 6.6-1.7 18.1 2.2 24.6 2 3.3 5 8.2 9.2 9.1 3 .6 4.2-.1 7.2-1.7 3.7-2 7.3-4.1 10.8-6.4 1.5-1 3-2 4.5-3.1 2-1.5 1.5-1.9.7.8C87.1 408.2 87.6 407.3 88.3 406.7zM181 177.3c-1.1-3.1-2-4.5-5.3-5.1-4-.7-8-.8-12.1-.4-3.2.3-7.9.4-10.6 2.3-2.2 1.5-2 6.2-1.5 9.1 1.3 7.3 4.5 14 6.4 21.1 8-2.4 16.3-3.9 24.6-4.6C183 192.3 183.5 184.2 181 177.3zM351.7 252c-3.6-4.7-7.2-14.3-14.1-9.4-3.3 2.3-5.9 5.1-8.8 7.8-2.7 2.5-6.7 4.3-8.2 7.8-.2.5-.4.9-.7 1.2 4.4 4.4 8.6 9.1 12.5 14.1 2 2.5 3.9 5.1 5.7 7.8 5.9-2.4 13.4-3.9 17.8-8.5C362 266.3 356.2 257.9 351.7 252zM267.4 186.1c-7.3-3.8-13.8-5.9-18.7 2.2-3.9 6.4-6 13.8-5.6 21.2 8.4 3.3 16.5 7.1 24.4 11.5C276.3 210.6 282.8 194.2 267.4 186.1zM112.1 230.7c-1.3-8.6-9.6-18.5-17.2-22.4-3.1-1.6-6-2.4-9-.2-3.3 2.5-6.1 5.7-8.6 9-3.6 4.9-11.6 15.5-7.2 21.5 5.3 7.3 13.4 11.9 19.4 18.6.1-.1.2-.3.3-.4 6.5-9.4 14-18.2 22.4-26C112.2 230.8 112.2 230.8 112.1 230.7zM51.1 283.7c-6.9.9-7.8 9.3-8.4 14.9-.8 6.5-2.1 15.4.2 21.7 1.4 3.9 4.3 4.1 8 4 4.1-.1 8.3-.2 12.3 1 1.3.4 2.3 1.1 3 2 0-1.2.1-2.4.1-3.6.6-12.4 3.2-24.5 7.4-36C66.3 286.3 58.5 282.8 51.1 283.7zM329.3 85.7c-5.7-3.1-10.2-8.9-16.3-11.3-4-1.6-10.1 2.7-10.7 6.8-1 6 4.4 7.6 9 9.4 3.6 1.4 7.4 2.9 10.5 5.2.5-.8 1-1.6 1.6-2.3 1.9-2.7 3.9-5.3 6-7.7C329.4 85.7 329.3 85.7 329.3 85.7zM348.9 176c-2.5 5-5.7 9.7-8.8 14.4 7.7 2.6 15.6 5 23.3 7.8 1.9-5.4 2.3-11.1 3.3-16.8C360.4 180.4 354.5 178.6 348.9 176zM403.3 109.6c-5.1-10.3-20.1-13.7-30.5-12.6-12.6 1.3-21.8 9-20.6 22.3.1 1.5-.2 2.7-.9 3.6 0 0 0 0 0 0 4 14.5 20.3 20.3 34 16.5C397.6 136 409.9 123 403.3 109.6zM420.9 167.3c-3.6 3-7.5 5.6-11.6 7.7.7 2 .9 4.3 1.1 6.1.5 4.1 1.2 8.1 2.5 12 2.2 6.8 14.5-3.3 19.6-7.9C431 178.4 425.2 172.7 420.9 167.3zM428.5 64.6c-3.4-2-7.5-4.8-11.5-5.4-.5 0-1.3 0-1.7.2-.9.4-1.6 1.1-2.2 1.9-.6.8-1.1 1.6-1.6 2.4 1.3 2.9.4 6.6-2.9 7.5 6.5 3.2 12.5 7.4 17.7 12.5.4-.2.7-.4 1.2-.5 3.3-1.1 5-8.2 5.3-11.3C433.2 67.5 431.9 66.6 428.5 64.6zM315.2 139.4c-.9-.6-1.7-1.5-2.2-2.8-1.6-4.4-2-8.9-1.7-13.4-3.9 1.5-7.9 2.3-12.3 2.9-3.2.4-11.5.7-11.3 5.6.2 7.2 3.9 14 6.1 21 2.7-.6 5.4-1.7 7.9-2.7 2-.9 4.1-1.7 6-2.8.6-.3 3.4-2.7 2.5-1.3 1.6-2.4 4.2-3 6.4-2.5C316.2 142 315.7 140.7 315.2 139.4zM370.3 54.7c-1-4.7-2.1-4.9-6.8-4.5-2.4.2-4.9.5-7.1 1.6-1 .5-4.1 1.7-4.6 2.8-1.3 3 3.9 9.7 5.3 12.4 4.9-1.6 10.1-2.6 15.3-3C371.3 61.1 370.9 57.8 370.3 54.7zM442.7 117.9c.8 8.4-.5 17-3.7 25 3.9-1.2 8.8-.7 12.9-.4 1.8-7.3 4.7-14.6 5-22.1C452.1 119.9 447.4 119 442.7 117.9z"/><path fill="#BCBCBC" d="M404.8,81.6c-17.3-8.9-38.7-9.6-55.5,1.1c-8.5,5.4-15.6,13.7-20.5,22.5c-3.3,6-6.5,13.1-6.6,20.1c0.7,0.8,1.3,1.8,1.5,3.1c5.2,34,44.2,51.2,74.9,39.5c17.6-6.7,31.7-22.9,33.3-42.1C433.6,106.9,421.1,89.9,404.8,81.6z M412.3,131.5c-16.2,30.5-68.8,25-72.6-11.4c-0.2-1.8,0.4-3.2,1.4-4.2c0.4-13.5,8.9-24.8,22.5-28.4c13.4-3.6,28.6-1.7,40,6.5C415.7,102.6,419.3,118.4,412.3,131.5z"/><path fill="#010101" d="M383,343.9c-5.4-9.7-16.2-8.3-25.8-8.1c-0.3-15.9-5.4-31.2-13.3-45c8.2-3.3,17.3-5.9,22.4-13.6c7.3-11,0.6-23.1-6.4-32.4c-6.2-8.2-12.7-18.5-24.7-13.5c-4.9,2.1-8.9,6.1-12.7,9.7c-3.7,3.6-8.4,6.2-11.1,10.6c-10.3-9.2-21.6-17.2-33.4-24.4c-0.4-0.2-0.7-0.4-1.1-0.6c5.9-7.3,10.6-16.1,10.8-25.7c0.3-11.1-6.4-19.5-15.7-24.7c-10.5-6-21.4-6.9-30,2.4c-6.4,6.9-9.8,17.3-10.2,27c-7.2-2.2-14.6-4-22.1-5.1c-5.4-0.8-10.8-1.2-16.3-1.3c0.2-9.6,0.7-19.9-3.4-28.7c-5-10.5-17.2-10.6-27.3-9.9c-10.2,0.7-20.2,3.7-22.3,14.9c-2.1,11.3,4.9,21.5,7.2,32.2c-1,0.4-2,0.8-3,1.3c-8.4,3.7-16.2,8.4-23.4,13.9c-3.6-9.6-11.3-18-19.6-23.5c-5-3.3-10.7-4.5-16.6-3.3c-5.3,1.2-9.8,6.1-13.2,9.9c-6.7,7.6-15.9,20.5-14,31.3c2.2,12.7,16.3,18.1,23.6,27.3c0.6,0.8,1.3,1.3,2,1.6c-2,3.5-3.9,7.2-5.6,10.9c-10.1-1.3-20.8-6.8-31.1-4c-10.1,2.7-13.5,12.8-14.8,22.1c-1.3,9.1-2.5,20.3,0.7,29.2c2,5.5,6.3,9.1,12,10.4c5.4,1.2,11-0.3,16.4,1.2c2.3,0.7,4.1-0.1,5.1-1.6c0.4,11.3,2.1,22.5,4.9,33.4c-10.3,1.7-22,3.6-28.6,12.1c-8.4,11-3.2,27.1,3.3,37.7c6.2,10.1,16.8,16.1,28.1,10.8c5.1-2.4,9.9-5.3,14.6-8.4c2.4-1.6,5.3-3.3,7.2-5.6c5.8,5.8,11.9,11.3,18.3,16.3c-0.1,0.3-0.2,0.6-0.3,0.9c-2.8,11-14.5,17.6-14.4,29.8c0.1,13.5,12.3,20.7,23.5,24.7c9.6,3.4,23.2,6.9,29.7-3.3c4.8-7.5,5.1-17.4,7.1-26.2c10.7,4.1,21.9,7,33.5,8.7c-0.2,12.2-1.2,24.5,0.1,36.7c0.3,3.2,2.9,5,5.9,5.1c14.7,0.1,35.6,4.4,44.9-10.5c4.3-6.9,2.8-15,0.8-22.5c-0.9-3.3-1.9-6.8-3.4-10.1c14.2-2.9,27.8-8.1,40.4-15.1c0,0.2,0.1,0.4,0.1,0.5c2.3,10.4,7.4,22.8,15.7,29.8c10.8,9.3,24-1.8,31.4-9.8c4.1-4.5,8.6-8.5,11.6-13.9c2.7-5,2.5-10.6,1.2-16c-1.5-6.1-4.9-11.9-9.4-16.2c-2.7-2.6-6.1-5.1-9-7.9c3.3-3.7,6.4-7.6,9.4-11.6c4-5.4,7.6-11.1,10.8-17.1c3.6,3.8,8.8,5.9,14.7,6.2c10.7,0.4,18.1-5.5,23.6-14.1C388,369.2,388.7,354,383,343.9z M320.5,258.3c1.5-3.5,5.5-5.3,8.2-7.8c2.9-2.7,5.6-5.5,8.8-7.8c6.9-4.9,10.6,4.7,14.1,9.4c4.5,5.9,10.3,14.2,4.2,20.8c-4.4,4.7-11.9,6.1-17.8,8.5c-1.8-2.7-3.7-5.3-5.7-7.8c-3.9-4.9-8.1-9.6-12.5-14.1C320.1,259.1,320.3,258.7,320.5,258.3z M248.7,188.4c4.9-8.1,11.4-6,18.7-2.2c15.5,8,8.9,24.4,0.1,34.9c-7.9-4.3-16-8.2-24.4-11.5C242.6,202.2,244.8,194.8,248.7,188.4z M153.1,174.1c2.7-1.9,7.4-2,10.6-2.3c4-0.4,8.1-0.3,12.1,0.4c3.2,0.6,4.2,2,5.3,5.1c2.4,7,1.9,15,1.7,22.5c-8.3,0.7-16.6,2.2-24.6,4.6c-1.9-7.1-5.2-13.8-6.4-21.1C151.1,180.3,151,175.7,153.1,174.1z M70.1,238.7c-4.4-6,3.6-16.6,7.2-21.5c2.5-3.3,5.2-6.6,8.6-9c3-2.2,5.9-1.4,9,0.2c7.6,3.9,15.9,13.8,17.2,22.4c0,0,0,0.1,0,0.1c-8.4,7.7-15.9,16.5-22.4,26c-0.1,0.1-0.2,0.3-0.3,0.4C83.5,250.6,75.4,246,70.1,238.7z M66.3,323.8c-0.1,1.2-0.1,2.4-0.1,3.6c-0.7-0.9-1.7-1.6-3-2c-4-1.2-8.1-1.1-12.3-1c-3.7,0.1-6.6-0.1-8-4c-2.3-6.4-1-15.2-0.2-21.7c0.7-5.6,1.5-14.1,8.4-14.9c7.4-0.9,15.2,2.6,22.5,4.1C69.5,299.3,66.9,311.4,66.3,323.8z M86.7,409.3c0.8-2.7,1.3-2.3-0.7-0.8c-1.5,1.1-3,2.1-4.5,3.1c-3.5,2.3-7.1,4.4-10.8,6.4c-3.1,1.6-4.2,2.3-7.2,1.7c-4.1-0.8-7.2-5.8-9.2-9.1c-4-6.6-8-18.1-2.2-24.6c4.8-5.5,14.9-6.3,22.1-7.3c1.5,4.7,3.1,9.3,4.9,13.9c-0.4,1.3-0.2,2.9,1,4.3c2.7,3.4,5.4,6.6,8.2,9.8C87.6,407.3,87.1,408.2,86.7,409.3z M144.4,474.3c-1.1,3.3-1,4.2-4.3,4.5c-4.4,0.3-9.4-1.3-13.5-2.7c-6.9-2.5-19.1-7.8-15.8-17.4c2.7-7.8,9.2-13.5,12.5-21c8.3,5.7,17,10.7,26.2,14.9C147.4,459.7,146.8,467.2,144.4,474.3z M233.6,492.3c-3.6,4.2-10.7,4.4-15.8,4.6c-4.7,0.2-9.4-0.2-14.1-0.4c-0.6-9.9,0-19.9,0.3-29.8c1.1,0.1,2.3,0.1,3.4,0.2c7.7,0.4,15.4,0.1,22.9-0.9c1.7,3.3,2.8,7.5,3.8,10.7C235.6,481.8,237.3,487.9,233.6,492.3z M327.6,434.4c2.5,3.1,4,8.2,4.2,12.1c0.2,4.2-3.2,7.8-5.9,10.5c-4.4,4.4-14.9,19.5-22.1,13.3c-6.3-5.4-9.8-16.5-11.5-24.3c-0.2-1-0.7-1.8-1.2-2.4c9-5.8,17.4-12.6,25.1-20.2C320,427,324.2,430.2,327.6,434.4z M330.3,388.2c-4,6.7-8.6,13-13.8,18.9c-4.1-1.8-9.9,1.5-7.6,6.5c0.2,0.4,0.3,0.7,0.5,1c-9.5,9.5-20.3,17.6-31.8,24.3c-13.3,7.7-27.6,12.7-42.4,15.2h0c-2.7-2.9-6.2-1.6-7.8,1.1c-16.9,1.8-34.1,0.3-50.8-4c-34-8.9-63.4-31-85.4-57.9c-9.9-24.1-16.3-50-13.4-76.2c3-26.8,16.2-50.8,34.1-70.6c16.6-18.4,38.9-31.1,63.4-34.9c24.2-3.8,48.9,1.3,71.1,11.3c21.7,9.7,42.3,23,59.9,39c17.4,15.8,31.9,35.3,37.8,58.3C350.3,344,342.5,367.7,330.3,388.2z M373.2,371.8c-2.2,5.1-6.2,9.4-11.9,10.2c-5,0.7-11-1-11.8-6.7c0-0.2-0.1-0.4-0.1-0.7c3.7-9,6.2-18.3,7.3-27.9c4.1-0.1,13.1-2.1,16.1,1.5C377.8,354.3,376.1,365.4,373.2,371.8z"/><path fill="#010101" d="M276.7,277.3c-17-17-39-27.6-63-29.7c-23.8-2.1-49.1,3.3-68.4,18c-19.9,15.1-26.4,39.2-27.6,63.1c-0.6,11.1-0.3,22.3-0.3,33.4c0,1.1,0.3,2,0.7,2.7c3.4,18.2,17.6,32,33.4,41.1c17.5,10.1,38.4,15.2,58.5,13.1c43.1-4.5,93.3-28.7,96.1-77.4C307.4,317,293.3,293.9,276.7,277.3z M294.9,343.7c-3.4,41.4-50.2,60.2-85.9,64.2c-17.6,2-35-2.6-50.5-10.8c-15-7.9-29.2-21.1-30.2-39c0,0,0-0.1,0-0.1c-0.2-22.4-1.5-46.3,9.1-66.6c11.5-22.1,37.5-31.6,61-33.1c24.4-1.5,47,6.5,65.5,22.3C281.9,295.8,297,319.2,294.9,343.7z"/><path fill="#010101" d="M227.5 325.9c-5.3-29.1-51.9-23.4-53.8 4.2-2.9 16.5 13.4 27.4 28.3 27.8 7.5.2 14.9-2.3 20-8C227.3 343.9 228.9 333.6 227.5 325.9zM214.4 341.7c-2.2 4-7.4 5.1-11.5 5.2-7.6.3-18.5-4.6-18.6-13.1.2-.6.3-1.3.3-2-.6-16 27.1-20.4 31.9-5.3C217.9 331.2 216.7 337.5 214.4 341.7zM467.7 114.8c-.3-3.2-2.8-5-5.9-5.1-6.1-.1-12.1-1.5-18-2.9-1.3-.3-2.4-.2-3.3.2-1.5-4.9-3.7-9.7-6.7-14.2-.1-.2-.3-.4-.4-.6 5.8-3.4 8.7-11.1 9.9-17.3 1.5-7.6-.7-14.1-7-18.4-5.6-3.8-12.7-8.2-19.7-8.5-9.3-.3-13.5 8.5-17.8 15.2-.8 1.3-.9 2.5-.5 3.7-4.2-1.3-8.6-2.2-13-2.7-.2-.5-.5-1.1-1-1.6-4.5-5.2-2.2-13.6-6.9-19-4.7-5.5-12.9-5.1-19.4-3.8-6.4 1.3-15.2 5.1-16.9 12.1-1.7 6.9 2.7 13.5 6 19.4-3.7 2.1-7.2 4.5-10.4 7.2-.4-1.1-1.2-2.1-2.5-2.8-7.1-3.8-12.3-11.2-20.6-12.6-8-1.3-16.2 4.2-20.2 10.7-3.9 6.5-2.4 15.3 2.5 20.7 2.7 2.9 6.9 4.4 10.6 5.8 3.2 1.3 7.7 2.4 9.8 5.3-.9 2-1.8 4-2.5 6.1-1.4-.5-3-.5-4.6.4-10.2 5.6-26.2.7-31.3 14.2-4.2 11.1 4.9 22 6.4 32.7.4 3.1 2.8 5.2 5.9 5.1 6-.2 12-2.5 17.5-4.9 4.6-2 9.7-4.3 12.5-8.6 0-.1.1-.1.1-.2 4.7 8.1 11.3 14.9 19 20.1-3.4 7.1-8.3 13.5-12.4 20.2-1.4 2.4-.2 6.4 2.5 7.4 11.4 4.2 23.3 7.3 34.5 12 2.9 1.2 5.8.3 7.4-2.5 4.4-7.9 4.8-16.6 6.5-25.3 4.7 0 9.5-.4 14.3-1.3 2.2-.4 4.3-1 6.4-1.6.1 1.1.5 2 1.1 2.6.1 1.2.2 2.3.3 3.5.2 3.8 1.8 8.4 3 12.1 2.9 9 12.9 9.9 20.6 7 4.3-1.7 8.2-4.4 11.8-7.3 3.1-2.4 8.8-6.1 8.6-10.5-.5-10.7-8.3-18.6-14.4-26.7-.2-.2-.4-.5-.6-.6 1.9-2.2 3.6-4.5 5.2-7 1.8 2.8 5.7 4.2 8.3 1 .2 0 .5-.1.8-.1 1.6-.2 3.3-.1 4.9-.1 2.9.1 5.8.3 8.8.3 2.4 0 4.6-2.2 5-4.4C463.5 137.7 469 126.8 467.7 114.8zM351.9 54.6c.4-1.1 3.6-2.3 4.6-2.8 2.2-1.1 4.7-1.4 7.1-1.6 4.7-.4 5.8-.2 6.8 4.5.6 3.1 1.1 6.4 2.2 9.4-5.2.4-10.3 1.3-15.3 3C355.7 64.3 350.6 57.6 351.9 54.6zM310.3 145.8c.9-1.4-2 1-2.5 1.3-1.9 1.1-3.9 2-6 2.8-2.5 1.1-5.2 2.1-7.9 2.7-2.2-7-5.9-13.8-6.1-21-.1-5 8.1-5.2 11.3-5.6 4.3-.6 8.3-1.3 12.3-2.9-.3 4.5.1 9 1.7 13.4.5 1.3 1.2 2.2 2.2 2.8.5 1.3 1 2.7 1.5 3.9C314.5 142.8 311.9 143.4 310.3 145.8zM311.3 90.6c-4.6-1.8-10-3.4-9-9.4.7-4.1 6.7-8.4 10.7-6.8 6.1 2.4 10.5 8.2 16.3 11.3 0 0 .1 0 .1.1-2.2 2.4-4.2 5-6 7.7-.5.8-1.1 1.6-1.6 2.3C318.7 93.4 314.9 92 311.3 90.6zM363.3 198.2c-7.7-2.9-15.5-5.2-23.3-7.8 3.1-4.7 6.3-9.3 8.8-14.4 5.6 2.6 11.6 4.4 17.8 5.4C365.6 187.1 365.2 192.9 363.3 198.2zM432.4 185.2c-5 4.6-17.4 14.7-19.6 7.9-1.3-3.9-2-8-2.5-12-.2-1.8-.4-4.1-1.1-6.1 4.2-2.1 8.1-4.7 11.6-7.7C425.2 172.7 431 178.4 432.4 185.2zM432 125.7c-1.6 19.2-15.8 35.4-33.3 42.1-30.7 11.7-69.7-5.5-74.9-39.5-.2-1.3-.7-2.3-1.5-3.1.2-7 3.3-14.1 6.6-20.1 4.9-8.8 11.9-17.1 20.5-22.5 16.8-10.7 38.2-10 55.5-1.1C421.1 89.9 433.6 106.9 432 125.7zM432.7 71.8c-.3 3.1-2 10.2-5.3 11.3-.4.2-.8.3-1.2.5-5.1-5.1-11.1-9.4-17.7-12.5 3.3-.8 4.2-4.6 2.9-7.5.5-.8 1-1.6 1.6-2.4.6-.8 1.3-1.5 2.2-1.9.4-.2 1.2-.2 1.7-.2 4 .7 8.1 3.4 11.5 5.4C431.9 66.6 433.2 67.5 432.7 71.8zM451.8 142.5c-4.1-.3-9-.8-12.9.4 3.3-8.1 4.5-16.6 3.7-25 4.7 1.1 9.4 2 14.2 2.5C456.5 127.9 453.6 135.2 451.8 142.5z"/><path fill="#010101" d="M403.7,94c-11.4-8.1-26.6-10-40-6.5c-13.6,3.7-22.2,14.9-22.5,28.4c-1,1-1.6,2.4-1.4,4.2c3.8,36.4,56.4,41.8,72.6,11.4C419.3,118.4,415.7,102.6,403.7,94z M385.3,139.5c-13.7,3.9-30-2-34-16.5c0,0,0,0,0,0c0.7-0.9,1.1-2.1,0.9-3.6c-1.2-13.3,8-21,20.6-22.3c10.4-1.1,25.4,2.2,30.5,12.6C409.9,123,397.6,136,385.3,139.5z"/></svg>