<svg xmlns="http://www.w3.org/2000/svg"  viewBox="0 0 100 100" width="100px" height="100px"><path fill="#c8ede6" d="M87.214,55.674c0.3-0.616,0.566-1.264,0.796-1.943c2.633-7.77-1.349-17.078-9.733-19.325C77.37,23.023,69.37,15.214,60.335,13.881c-10.341-1.525-19.814,5.044-22.966,15.485c-3.799-1.346-7.501-1.182-10.99,0.857c-1.583,0.732-3.031,1.812-4.33,3.233c-1.907,2.086-3.147,4.719-3.652,7.495c-0.748,0.118-1.483,0.236-2.176,0.484c-4.04,1.449-6.589,4.431-7.288,8.923c-0.435,2.797,0.443,5.587,0.933,6.714c1.935,4.455,6.422,6.98,10.981,6.312c0.227-0.033,0.557,0.069,0.752,0.233c0.241,7.12,3.698,13.417,8.884,17.014c8.321,5.772,19.027,3.994,25.781-3.921c2.894,2.96,6.338,4.398,10.384,3.876c4.023-0.519,7.147-2.739,9.426-6.349c1.053,0.283,2.051,0.691,3.083,0.804c4.042,0.442,7.205-1.751,9.732-4.8c1.794-2.165,1.779-5.145,1.793-6.354C90.722,60.631,89.39,57.664,87.214,55.674z"/><path fill="#fdfcef" d="M43.856,67.166c0,0,11.691,0,11.762,0c2.7,0,4.888-2.189,4.888-4.889c0-2.355-1.666-4.321-3.884-4.784c0.026-0.206,0.043-0.415,0.043-0.628c0-2.796-2.267-5.063-5.063-5.063c-1.651,0-3.113,0.794-4.037,2.017c-0.236-3.113-3.017-5.514-6.27-5.116c-2.379,0.291-4.346,2.13-4.784,4.486c-0.14,0.756-0.126,1.489,0.014,2.177c-0.638-0.687-1.546-1.119-2.557-1.119c-1.85,0-3.361,1.441-3.48,3.261c-0.84-0.186-1.754-0.174-2.717,0.188c-1.84,0.691-3.15,2.423-3.227,4.387c-0.109,2.789,2.12,5.085,4.885,5.085c0.21,0,0.948,0,1.118,0h10.151"/><path fill="#472b29" d="M55.618,67.667H43.855c-0.276,0-0.5-0.224-0.5-0.5s0.224-0.5,0.5-0.5h11.763c2.419,0,4.388-1.969,4.388-4.389c0-2.067-1.466-3.873-3.486-4.295c-0.255-0.053-0.427-0.294-0.394-0.553c0.023-0.186,0.039-0.373,0.039-0.564c0-2.517-2.047-4.563-4.562-4.563c-1.438,0-2.765,0.663-3.639,1.818c-0.125,0.166-0.343,0.235-0.539,0.178c-0.2-0.059-0.342-0.234-0.358-0.441c-0.104-1.378-0.778-2.672-1.851-3.55c-1.081-0.888-2.449-1.278-3.859-1.108c-2.165,0.265-3.955,1.943-4.354,4.081c-0.123,0.667-0.118,1.336,0.014,1.986c0.044,0.22-0.062,0.442-0.262,0.545c-0.197,0.103-0.442,0.06-0.595-0.105c-0.574-0.618-1.352-0.959-2.19-0.959c-1.568,0-2.878,1.228-2.981,2.794c-0.01,0.146-0.082,0.279-0.199,0.367c-0.116,0.087-0.268,0.119-0.407,0.088c-0.844-0.186-1.64-0.132-2.434,0.167c-1.668,0.626-2.835,2.209-2.902,3.938c-0.048,1.207,0.386,2.35,1.221,3.218c0.836,0.869,1.959,1.348,3.164,1.348h11.269c0.276,0,0.5,0.224,0.5,0.5s-0.224,0.5-0.5,0.5H29.43c-1.479,0-2.859-0.588-3.885-1.654s-1.558-2.469-1.5-3.95c0.084-2.127,1.511-4.069,3.551-4.835c0.801-0.3,1.627-0.399,2.468-0.299c0.378-1.822,1.998-3.182,3.905-3.182c0.685,0,1.354,0.18,1.944,0.51c-0.001-0.386,0.034-0.772,0.106-1.159c0.477-2.562,2.621-4.573,5.215-4.891c1.678-0.212,3.318,0.266,4.614,1.327c1.005,0.823,1.718,1.951,2.039,3.194c1.013-0.916,2.319-1.426,3.714-1.426c3.067,0,5.562,2.496,5.562,5.563c0,0.083-0.002,0.166-0.007,0.248c2.255,0.673,3.848,2.776,3.848,5.164C61.006,65.25,58.589,67.667,55.618,67.667z"/><path fill="#fdfcef" d="M41.023,56.397c-1.808-0.119-3.365,1.13-3.476,2.789c-0.014,0.206-0.005,0.409,0.025,0.606c-0.349-0.394-0.865-0.661-1.458-0.7c-1.085-0.071-2.022,0.645-2.158,1.62c-0.197-0.054-0.403-0.09-0.616-0.104c-1.582-0.104-2.944,0.989-3.042,2.441"/><path fill="#472b29" d="M30.298,63.298c-0.006,0-0.011,0-0.017-0.001c-0.138-0.009-0.242-0.128-0.232-0.266c0.106-1.586,1.577-2.787,3.308-2.673c0.134,0.008,0.271,0.025,0.408,0.053c0.274-0.967,1.242-1.646,2.366-1.568c0.425,0.027,0.823,0.16,1.163,0.382c0.001-0.019,0.002-0.037,0.004-0.056c0.119-1.793,1.769-3.165,3.741-3.021c0.138,0.009,0.242,0.128,0.232,0.266c-0.008,0.132-0.118,0.233-0.249,0.233c-0.005,0-0.011,0-0.017-0.001c-1.659-0.086-3.107,1.039-3.21,2.558c-0.013,0.182-0.005,0.367,0.023,0.551c0.017,0.109-0.04,0.217-0.141,0.265c-0.1,0.045-0.22,0.022-0.293-0.061c-0.324-0.364-0.781-0.583-1.288-0.617c-0.928-0.039-1.775,0.557-1.894,1.405c-0.011,0.071-0.051,0.135-0.11,0.175s-0.135,0.052-0.203,0.032c-0.194-0.053-0.379-0.084-0.566-0.097c-1.463-0.086-2.688,0.896-2.777,2.208C30.538,63.197,30.428,63.298,30.298,63.298z"/><path fill="#fdfcef" d="M57.597,58.066c-1.699-0.801-3.664-0.234-4.389,1.267c-0.09,0.186-0.157,0.379-0.201,0.574"/><path fill="#472b29" d="M53.007,60.157c-0.018,0-0.036-0.002-0.055-0.006c-0.135-0.03-0.22-0.164-0.189-0.299c0.049-0.216,0.122-0.428,0.219-0.628c0.784-1.62,2.903-2.238,4.722-1.385c0.125,0.06,0.179,0.208,0.12,0.333c-0.06,0.126-0.211,0.176-0.333,0.12c-1.572-0.744-3.394-0.226-4.059,1.148c-0.079,0.167-0.141,0.342-0.181,0.521C53.225,60.078,53.122,60.157,53.007,60.157z"/><path fill="#fff" d="M16.879 47.711H6.848c-.276 0-.5-.224-.5-.5s.224-.5.5-.5h10.03c.276 0 .5.224.5.5S17.155 47.711 16.879 47.711zM19.76 47.711h-1.446c-.276 0-.5-.224-.5-.5s.224-.5.5-.5h1.446c.276 0 .5.224.5.5S20.037 47.711 19.76 47.711zM23.814 47.711h-2.546c-.276 0-.5-.224-.5-.5s.224-.5.5-.5h2.546c.276 0 .5.224.5.5S24.09 47.711 23.814 47.711zM23.814 49.575h-9.616c-.276 0-.5-.224-.5-.5s.224-.5.5-.5h9.616c.276 0 .5.224.5.5S24.09 49.575 23.814 49.575zM12.466 49.575h-.58c-.276 0-.5-.224-.5-.5s.224-.5.5-.5h.58c.276 0 .5.224.5.5S12.743 49.575 12.466 49.575zM10.09 49.575H8.633c-.276 0-.5-.224-.5-.5s.224-.5.5-.5h1.456c.276 0 .5.224.5.5S10.366 49.575 10.09 49.575zM19.225 45.845h-5.027c-.276 0-.5-.224-.5-.5s.224-.5.5-.5h5.027c.276 0 .5.224.5.5S19.502 45.845 19.225 45.845zM19.225 43.98h-1.257c-.276 0-.5-.224-.5-.5s.224-.5.5-.5h1.257c.276 0 .5.224.5.5S19.502 43.98 19.225 43.98zM15.957 51.44h-1.759c-.276 0-.5-.224-.5-.5s.224-.5.5-.5h1.759c.276 0 .5.224.5.5S16.233 51.44 15.957 51.44z"/><path fill="#fdfcef" d="M41.627,74.411c1.883,0,3.517,0,3.54,0c2.11,0,3.821-1.674,3.821-3.739c0-1.802-1.302-3.305-3.035-3.66c0.02-0.158,0.034-0.317,0.034-0.48c0-2.139-1.772-3.873-3.957-3.873c-1.29,0-2.433,0.607-3.155,1.543c-0.185-2.381-2.358-4.218-4.9-3.913c-1.859,0.223-3.397,1.629-3.739,3.431c-0.11,0.578-0.098,1.139,0.011,1.665c-0.498-0.525-1.208-0.856-1.998-0.856c-1.446,0-2.627,1.102-2.72,2.494c-0.657-0.142-1.371-0.133-2.123,0.143c-1.438,0.528-2.462,1.853-2.522,3.356c-0.085,2.133,1.657,3.889,3.818,3.889c0.164,0,0.741,0,0.874,0h7.934 M35.149,74.411h0.36"/><path fill="#472b29" d="M45.167,74.911h-3.54c-0.276,0-0.5-0.224-0.5-0.5s0.224-0.5,0.5-0.5h3.54c1.831,0,3.32-1.453,3.32-3.239c0-1.524-1.108-2.858-2.636-3.17c-0.257-0.053-0.429-0.295-0.396-0.555c0.018-0.137,0.03-0.274,0.03-0.415c0-1.86-1.551-3.373-3.457-3.373c-1.093,0-2.099,0.491-2.76,1.348c-0.126,0.164-0.342,0.231-0.538,0.174c-0.198-0.06-0.34-0.234-0.355-0.44c-0.079-1.02-0.565-1.944-1.37-2.604c-0.827-0.68-1.876-0.979-2.973-0.853c-1.646,0.197-3.006,1.442-3.308,3.028c-0.094,0.493-0.09,0.988,0.01,1.471c0.046,0.219-0.06,0.441-0.258,0.545c-0.197,0.103-0.439,0.062-0.594-0.099c-0.43-0.452-1.011-0.701-1.636-0.701c-1.169,0-2.146,0.891-2.222,2.027c-0.01,0.146-0.082,0.279-0.198,0.366s-0.264,0.122-0.406,0.089c-0.639-0.137-1.242-0.098-1.846,0.125c-1.262,0.464-2.144,1.631-2.193,2.905c-0.035,0.876,0.282,1.708,0.894,2.345c0.635,0.661,1.496,1.025,2.424,1.025h8.808c0.276,0,0.5,0.224,0.5,0.5s-0.224,0.5-0.5,0.5H24.7c-1.186,0-2.332-0.485-3.145-1.332c-0.803-0.835-1.219-1.928-1.173-3.078c0.066-1.674,1.212-3.202,2.849-3.805c0.611-0.225,1.241-0.303,1.881-0.244c0.345-1.396,1.63-2.424,3.136-2.424c0.492,0,0.976,0.113,1.413,0.323c0.009-0.241,0.036-0.483,0.082-0.726c0.382-2.01,2.098-3.586,4.171-3.834c1.363-0.166,2.686,0.218,3.727,1.071c0.747,0.613,1.278,1.409,1.546,2.302c0.791-0.647,1.785-1.006,2.843-1.006c2.458,0,4.457,1.962,4.457,4.373c0,0.034-0.001,0.067-0.002,0.102c1.765,0.555,3.003,2.188,3.003,4.038C49.487,73.009,47.548,74.911,45.167,74.911z M35.508,74.911h-0.359c-0.276,0-0.5-0.224-0.5-0.5s0.224-0.5,0.5-0.5h0.359c0.276,0,0.5,0.224,0.5,0.5S35.785,74.911,35.508,74.911z"/><path fill="#472b29" d="M43.46 69.108c-.018 0-.036-.002-.055-.006-.135-.03-.22-.164-.189-.299.037-.167.095-.329.17-.48.604-1.223 2.274-1.676 3.721-1.005.126.058.181.206.122.331-.058.125-.208.18-.331.122-1.207-.558-2.578-.21-3.063.773-.058.116-.102.239-.13.368C43.677 69.029 43.575 69.108 43.46 69.108zM38.3 74.911h-1.107c-.276 0-.5-.224-.5-.5s.224-.5.5-.5H38.3c.276 0 .5.224.5.5S38.577 74.911 38.3 74.911z"/><path fill="#fff" d="M70.056 21.433h-10.03c-.276 0-.5-.224-.5-.5s.224-.5.5-.5h10.03c.276 0 .5.224.5.5S70.333 21.433 70.056 21.433zM72.938 21.433h-1.446c-.276 0-.5-.224-.5-.5s.224-.5.5-.5h1.446c.276 0 .5.224.5.5S73.215 21.433 72.938 21.433zM76.993 21.433h-2.546c-.276 0-.5-.224-.5-.5s.224-.5.5-.5h2.546c.276 0 .5.224.5.5S77.269 21.433 76.993 21.433zM74.966 17.704H65.35c-.276 0-.5-.224-.5-.5s.224-.5.5-.5h9.616c.276 0 .5.224.5.5S75.243 17.704 74.966 17.704zM63.619 17.704h-.58c-.276 0-.5-.224-.5-.5s.224-.5.5-.5h.58c.276 0 .5.224.5.5S63.895 17.704 63.619 17.704zM61.242 17.704h-1.456c-.276 0-.5-.224-.5-.5s.224-.5.5-.5h1.456c.276 0 .5.224.5.5S61.518 17.704 61.242 17.704zM72.404 19.568h-5.027c-.276 0-.5-.224-.5-.5s.224-.5.5-.5h5.027c.276 0 .5.224.5.5S72.68 19.568 72.404 19.568z"/><path fill="#fff" d="M72.404 17.704h-1.258c-.276 0-.5-.224-.5-.5s.224-.5.5-.5h1.258c.276 0 .5.224.5.5S72.68 17.704 72.404 17.704zM65.921 19.568h-1.759c-.276 0-.5-.224-.5-.5s.224-.5.5-.5h1.759c.276 0 .5.224.5.5S66.197 19.568 65.921 19.568z"/><path fill="#ef9922" d="M56.924,71.721l2.269,0.135c1.561,0.093,2.917-1.244,3.014-2.971l0.828-20.794"/><path fill="#472b29" d="M59.344,72.56c-0.064,0-0.129-0.002-0.194-0.005l-2.269-0.135c-0.386-0.023-0.68-0.354-0.657-0.741c0.022-0.386,0.351-0.664,0.741-0.657l2.269,0.135c0.497,0.039,1.023-0.154,1.437-0.522c0.492-0.438,0.798-1.091,0.837-1.789l0.828-20.783c0.015-0.376,0.325-0.672,0.699-0.672c0.009,0,0.019,0,0.028,0.001c0.386,0.016,0.687,0.341,0.671,0.728l-0.828,20.794c-0.061,1.079-0.536,2.083-1.305,2.768C60.96,72.252,60.165,72.56,59.344,72.56z"/><path fill="#fbcd59" d="M63.589,43.348l-3.976-10.69c-0.835-2.245-3.69-2.95-5.475-1.352l-8.495,7.61c-0.509,0.456-0.869,1.054-1.032,1.716L38.445,65.6c-0.43,1.743,0.786,3.556,2.702,4.029l12.125,2.994c1.917,0.473,3.837-0.565,4.267-2.308l6.166-24.968C63.867,44.685,63.827,43.989,63.589,43.348z M54.832,40.257c-1.23-0.304-1.981-1.547-1.678-2.778c0.304-1.23,1.547-1.981,2.778-1.677c1.23,0.304,1.981,1.547,1.677,2.778C57.306,39.81,56.062,40.561,54.832,40.257z"/><path fill="#472b29" d="M54.21,73.438c-0.363,0-0.735-0.044-1.106-0.136l-12.124-2.994c-2.296-0.567-3.738-2.755-3.214-4.877l6.165-24.967c0.198-0.802,0.629-1.517,1.244-2.069l8.496-7.61c1.011-0.905,2.403-1.25,3.729-0.924c1.323,0.327,2.396,1.281,2.87,2.553l3.976,10.689c0.289,0.776,0.337,1.61,0.139,2.412l-6.165,24.968C57.779,72.261,56.095,73.438,54.21,73.438z M56.392,31.137c-0.655,0-1.283,0.238-1.788,0.69l-8.495,7.609c-0.405,0.364-0.688,0.836-0.819,1.363l-6.165,24.967c-0.339,1.372,0.644,2.8,2.19,3.182l12.124,2.994c1.55,0.383,3.081-0.425,3.42-1.796l6.165-24.968c0.131-0.527,0.1-1.076-0.092-1.588l0,0l-3.976-10.689c-0.316-0.85-1.007-1.463-1.894-1.682C56.84,31.165,56.614,31.137,56.392,31.137z"/><path fill="#472b29" d="M57.076,38.001c-1.826,0-3.539-0.698-4.845-1.981c-1.31-1.287-2.036-3.002-2.044-4.83c-0.009-1.823,0.699-3.539,1.992-4.833c2.668-2.67,7.036-2.688,9.735-0.036c2.219,2.18,2.686,5.574,1.135,8.254c-0.14,0.239-0.449,0.319-0.683,0.183c-0.239-0.138-0.321-0.444-0.183-0.683c1.322-2.285,0.923-5.181-0.971-7.041c-2.309-2.268-6.043-2.253-8.327,0.03c-1.103,1.104-1.706,2.567-1.699,4.121c0.007,1.56,0.627,3.023,1.745,4.122c1.162,1.142,2.739,1.741,4.333,1.691c0.006,0,0.011,0,0.016,0c0.27,0,0.491,0.214,0.5,0.484c0.008,0.276-0.209,0.507-0.484,0.516C57.223,38,57.149,38.001,57.076,38.001z"/><path fill="#fdfcef" d="M56.448 52.811L58.049 53.207 54.591 67.209 41.862 64.065 45.32 50.063 52.1 51.738"/><path fill="#472b29" d="M54.591,67.584c-0.029,0-0.06-0.004-0.09-0.011l-12.729-3.144c-0.097-0.024-0.18-0.085-0.231-0.17c-0.051-0.086-0.066-0.188-0.043-0.284l3.458-14.002c0.024-0.097,0.085-0.18,0.17-0.231c0.087-0.051,0.19-0.065,0.284-0.043l6.78,1.675c0.201,0.05,0.324,0.253,0.274,0.454c-0.049,0.2-0.247,0.321-0.454,0.274l-6.416-1.585l-3.278,13.273l12.001,2.964l3.278-13.273l-1.237-0.306c-0.201-0.05-0.324-0.253-0.274-0.454c0.05-0.2,0.251-0.318,0.454-0.274l1.602,0.396c0.097,0.024,0.18,0.085,0.231,0.17c0.051,0.086,0.066,0.188,0.043,0.284l-3.458,14.002C54.914,67.469,54.76,67.584,54.591,67.584z"/><path fill="#fdfcef" d="M53.171 52.002L53.657 52.122"/><path fill="#472b29" d="M53.657,52.497c-0.029,0-0.06-0.004-0.09-0.011l-0.485-0.119c-0.201-0.05-0.323-0.253-0.274-0.454c0.049-0.2,0.249-0.319,0.454-0.274l0.485,0.119c0.201,0.05,0.323,0.253,0.274,0.454C53.979,52.382,53.826,52.497,53.657,52.497z"/><path fill="#fdfcef" d="M46.443 53.717L55.354 55.917"/><path fill="#472b29" d="M55.354,56.168c-0.02,0-0.04-0.002-0.06-0.007l-8.911-2.2c-0.135-0.033-0.216-0.169-0.184-0.303c0.033-0.134,0.171-0.214,0.303-0.184l8.911,2.2c0.135,0.033,0.216,0.169,0.184,0.303C55.569,56.091,55.466,56.168,55.354,56.168z"/><path fill="#fdfcef" d="M45.815 56.263L54.725 58.463"/><path fill="#472b29" d="M54.725,58.713c-0.02,0-0.04-0.002-0.06-0.007l-8.91-2.2c-0.135-0.033-0.216-0.169-0.184-0.303c0.033-0.135,0.173-0.216,0.303-0.184l8.91,2.2c0.135,0.033,0.216,0.169,0.184,0.303C54.94,58.637,54.838,58.713,54.725,58.713z"/><path fill="#fdfcef" d="M45.186 58.809L54.096 61.009"/><path fill="#472b29" d="M54.096,61.259c-0.02,0-0.04-0.002-0.06-0.007l-8.91-2.2c-0.135-0.033-0.216-0.169-0.184-0.303c0.033-0.134,0.173-0.217,0.303-0.184l8.91,2.2c0.135,0.033,0.216,0.169,0.184,0.303C54.311,61.183,54.209,61.259,54.096,61.259z"/><path fill="#fdfcef" d="M44.557 61.355L53.468 63.555"/><path fill="#472b29" d="M53.467 63.805c-.02 0-.04-.002-.06-.007l-8.91-2.2c-.135-.033-.216-.169-.184-.303.033-.134.172-.216.303-.184l8.91 2.2c.135.033.216.169.184.303C53.682 63.729 53.58 63.805 53.467 63.805zM57.587 70.65c-.046 0-.09-.025-.112-.069-.03-.062-.005-.137.057-.168l4.151-2.072c.062-.03.137-.005.168.057.03.062.005.137-.057.168l-4.151 2.072C57.625 70.646 57.605 70.65 57.587 70.65zM57.906 69.357c-.046 0-.09-.025-.112-.069-.03-.062-.005-.137.057-.168l4.15-2.072c.062-.03.137-.005.168.057.03.062.005.137-.057.168l-4.15 2.072C57.944 69.353 57.924 69.357 57.906 69.357zM58.225 68.064c-.046 0-.09-.025-.112-.069-.03-.062-.005-.137.057-.168l4.15-2.071c.062-.03.137-.005.168.057.03.062.005.137-.057.168l-4.15 2.071C58.263 68.06 58.244 68.064 58.225 68.064zM58.545 66.772c-.046 0-.09-.025-.112-.069-.03-.062-.005-.137.057-.168l4.15-2.072c.062-.029.137-.005.168.057.03.062.005.137-.057.168l-4.15 2.072C58.583 66.768 58.563 66.772 58.545 66.772z"/><path fill="#fdfcef" d="M60.148,53.119c-0.003,3.157,1.946,6.144,5.297,8.117l0,0c0,1.705-0.497,3.593-1.118,4.795c-0.22,0.426,0.125,0.923,0.602,0.871c3.092-0.34,6.022-1.867,7.579-3.393h1.766c7.802,0,14.126-4.652,14.126-10.39s-6.324-10.39-14.126-10.39S60.148,47.381,60.148,53.119"/><path fill="#472b29" d="M64.863,67.406c-0.362,0-0.703-0.177-0.91-0.479c-0.229-0.334-0.256-0.765-0.07-1.125c0.501-0.97,1.005-2.641,1.058-4.286c-3.37-2.076-5.295-5.122-5.292-8.397c0-6.005,6.562-10.89,14.626-10.89S88.9,47.114,88.9,53.119s-6.562,10.89-14.626,10.89h-1.565c-1.569,1.458-4.509,3.037-7.726,3.391C64.943,67.403,64.902,67.406,64.863,67.406z M74.274,43.229c-7.514,0-13.626,4.437-13.626,9.89l0,0c-0.003,2.992,1.838,5.794,5.051,7.687c0.152,0.09,0.246,0.254,0.246,0.431c0,1.672-0.461,3.645-1.174,5.024c-0.018,0.034-0.016,0.068,0.006,0.101c0.016,0.023,0.038,0.056,0.098,0.044c3.084-0.339,5.881-1.878,7.284-3.254c0.093-0.091,0.219-0.143,0.35-0.143h1.766c7.514,0,13.626-4.437,13.626-9.89S81.788,43.229,74.274,43.229z M60.148,53.119h0.01H60.148z"/><path fill="#472b29" d="M80.82 49.28h-3.89c-.138 0-.25-.112-.25-.25s.112-.25.25-.25h3.89c.138 0 .25.112.25.25S80.958 49.28 80.82 49.28zM75.202 49.28h-8.211c-.138 0-.25-.112-.25-.25s.112-.25.25-.25h8.211c.138 0 .25.112.25.25S75.34 49.28 75.202 49.28zM82.549 51.874H71.745c-.138 0-.25-.112-.25-.25s.112-.25.25-.25h10.805c.138 0 .25.112.25.25S82.687 51.874 82.549 51.874zM70.016 51.874H64.83c-.138 0-.25-.112-.25-.25s.112-.25.25-.25h5.187c.138 0 .25.112.25.25S70.154 51.874 70.016 51.874zM78.227 54.466H64.83c-.138 0-.25-.112-.25-.25s.112-.25.25-.25h13.397c.138 0 .25.112.25.25S78.365 54.466 78.227 54.466zM74.706 57.492h-7.715c-.138 0-.25-.112-.25-.25s.112-.25.25-.25h7.715c.138 0 .25.112.25.25S74.843 57.492 74.706 57.492z"/><path fill="#ee3e54" d="M82.076 55.021A5.388 5.388 0 1 0 82.076 65.797A5.388 5.388 0 1 0 82.076 55.021Z"/><path fill="#472b29" d="M82.077,66.297c-3.247,0-5.889-2.642-5.889-5.888c0-3.247,2.642-5.889,5.889-5.889c3.246,0,5.888,2.642,5.888,5.889C87.965,63.656,85.323,66.297,82.077,66.297z M82.077,55.521c-2.695,0-4.889,2.193-4.889,4.889s2.193,4.888,4.889,4.888s4.888-2.192,4.888-4.888S84.772,55.521,82.077,55.521z"/><path fill="#fdfcef" d="M84.232 60.888c-.219-.217-.48-.327-.779-.327-.303 0-.566.11-.784.328-.219.218-.329.482-.329.784 0 .299.108.561.324.779.216.218.481.328.789.328.305 0 .568-.111.783-.33.216-.219.324-.48.324-.777C84.56 61.372 84.45 61.108 84.232 60.888zM83.854 61.673c0 .109-.039.201-.119.282-.161.163-.415.157-.57 0-.08-.081-.119-.173-.119-.282 0-.112.04-.206.121-.287.079-.08.173-.12.286-.12.108 0 .201.04.281.12C83.815 61.467 83.854 61.561 83.854 61.673zM81.598 59.148c0-.305-.11-.568-.329-.785-.219-.216-.481-.325-.783-.325-.301 0-.563.109-.78.325-.218.217-.328.481-.328.785 0 .299.108.562.324.78.216.22.48.33.784.33.307 0 .572-.11.788-.33C81.49 59.71 81.598 59.447 81.598 59.148zM80.892 59.148c0 .111-.039.204-.118.285-.159.158-.408.162-.571 0-.08-.081-.119-.174-.119-.285 0-.112.039-.206.118-.286.08-.079.173-.118.284-.118.112 0 .206.039.287.118C80.853 58.943 80.892 59.036 80.892 59.148z"/><path fill="#fdfcef" d="M83.789,58.087c-0.018-0.03-0.051-0.049-0.086-0.049h-1.766c-0.056,0-0.1,0.044-0.1,0.1v0.507c0,0.056,0.044,0.1,0.1,0.1h0.838l-2.188,3.889c-0.018,0.03-0.018,0.068,0.001,0.1c0.018,0.03,0.051,0.049,0.086,0.049h0.507c0.036,0,0.069-0.02,0.088-0.051l2.522-4.544C83.807,58.155,83.807,58.117,83.789,58.087z"/><path fill="#472b29" d="M55.385,40.659c-0.215,0-0.431-0.026-0.645-0.079c-0.692-0.171-1.276-0.602-1.646-1.212c-0.368-0.61-0.478-1.328-0.307-2.021s0.602-1.276,1.212-1.646c0.609-0.367,1.328-0.478,2.02-0.306c1.429,0.353,2.305,1.803,1.952,3.231c-0.171,0.692-0.602,1.276-1.212,1.646C56.339,40.528,55.866,40.659,55.385,40.659z M55.376,36.067c-0.346,0-0.685,0.094-0.987,0.277c-0.439,0.265-0.748,0.685-0.871,1.183c-0.254,1.028,0.376,2.07,1.403,2.324l0,0c0.499,0.126,1.015,0.045,1.452-0.221c0.439-0.265,0.748-0.685,0.871-1.183c0.254-1.027-0.376-2.069-1.403-2.323C55.686,36.087,55.53,36.067,55.376,36.067z"/></svg>