<svg xmlns="http://www.w3.org/2000/svg"  viewBox="0 0 100 100" width="100px" height="100px"><path fill="#c7ede6" d="M88.724,55.548c0.3-0.616,0.566-1.264,0.796-1.943c2.633-7.77-1.349-17.078-9.733-19.325c-0.906-11.384-8.906-19.193-17.941-20.526C51.505,12.23,42.032,18.799,38.88,29.24c-3.799-1.346-7.501-1.182-10.99,0.857c-1.583,0.732-3.031,1.812-4.33,3.233c-1.907,2.086-3.147,4.719-3.652,7.495c-0.748,0.118-1.483,0.236-2.176,0.484c-4.04,1.449-6.589,4.431-7.288,8.923c-0.435,2.797,0.443,5.587,0.933,6.714c1.935,4.455,6.422,6.98,10.981,6.312c0.227-0.033,0.557,0.069,0.752,0.233c0.241,7.12,3.698,13.417,8.884,17.014c8.321,5.772,19.027,3.994,25.781-3.921c2.894,2.96,6.338,4.398,10.384,3.876c4.023-0.519,7.147-2.739,9.426-6.349c1.053,0.283,2.051,0.691,3.083,0.804c4.042,0.442,7.324-1.165,9.732-4.8c0.922-1.391,1.793-3.194,1.793-6.354C92.194,60.505,90.901,57.538,88.724,55.548z"/><path fill="#fdfcef" d="M73.988,48.717c0,0,11.691,0,11.762,0c2.7,0,4.888-2.189,4.888-4.889c0-2.355-1.666-4.321-3.884-4.784c0.026-0.206,0.043-0.415,0.043-0.628c0-2.796-2.267-5.063-5.063-5.063c-1.651,0-3.113,0.794-4.037,2.017c-0.236-3.113-3.017-5.514-6.27-5.116c-2.379,0.291-4.346,2.13-4.784,4.486c-0.14,0.756-0.126,1.489,0.014,2.177c-0.638-0.687-1.546-1.119-2.557-1.119c-1.85,0-3.361,1.441-3.48,3.261c-0.84-0.186-1.754-0.174-2.717,0.188c-1.84,0.691-3.15,2.423-3.227,4.387c-0.109,2.789,2.12,5.085,4.885,5.085c0.21,0,0.948,0,1.118,0h10.151"/><path fill="#472b29" d="M85.75,49.217H73.989c-0.276,0-0.5-0.224-0.5-0.5s0.224-0.5,0.5-0.5H85.75c2.42,0,4.389-1.969,4.389-4.389c0-2.066-1.466-3.872-3.486-4.295c-0.254-0.053-0.425-0.292-0.394-0.551c0.023-0.186,0.039-0.374,0.039-0.566c0-2.517-2.047-4.563-4.563-4.563c-1.438,0-2.765,0.663-3.638,1.818c-0.125,0.166-0.338,0.238-0.54,0.178c-0.199-0.059-0.342-0.234-0.357-0.441c-0.104-1.377-0.779-2.671-1.85-3.549c-1.083-0.888-2.456-1.282-3.86-1.109c-2.166,0.266-3.956,1.943-4.353,4.082c-0.124,0.667-0.12,1.335,0.013,1.985c0.044,0.22-0.062,0.442-0.262,0.544c-0.2,0.104-0.443,0.061-0.595-0.104c-0.574-0.618-1.352-0.959-2.19-0.959c-1.569,0-2.878,1.228-2.981,2.794c-0.01,0.146-0.082,0.279-0.199,0.366c-0.117,0.089-0.268,0.118-0.408,0.089c-0.841-0.185-1.637-0.132-2.433,0.167c-1.668,0.627-2.835,2.21-2.903,3.939c-0.047,1.207,0.387,2.35,1.222,3.218s1.958,1.347,3.163,1.347h11.269c0.276,0,0.5,0.224,0.5,0.5s-0.224,0.5-0.5,0.5H59.563c-1.479,0-2.858-0.587-3.884-1.653s-1.558-2.469-1.5-3.95c0.083-2.126,1.51-4.069,3.55-4.836c0.8-0.3,1.626-0.399,2.468-0.299c0.377-1.822,1.998-3.182,3.905-3.182c0.685,0,1.354,0.18,1.944,0.51c-0.001-0.386,0.035-0.772,0.106-1.158c0.477-2.563,2.621-4.574,5.215-4.892c1.68-0.205,3.32,0.266,4.616,1.328c1.003,0.823,1.716,1.951,2.038,3.193c1.012-0.916,2.319-1.426,3.714-1.426c3.067,0,5.563,2.496,5.563,5.563c0,0.083-0.002,0.166-0.007,0.248c2.254,0.674,3.848,2.777,3.848,5.164C91.139,46.8,88.721,49.217,85.75,49.217z"/><path fill="#fdfcef" d="M71.155,37.949c-1.808-0.119-3.365,1.13-3.476,2.789c-0.014,0.206-0.005,0.409,0.025,0.606c-0.349-0.394-0.865-0.661-1.458-0.7c-1.085-0.071-2.022,0.645-2.158,1.62c-0.197-0.054-0.403-0.09-0.616-0.104c-1.582-0.104-2.944,0.989-3.042,2.441"/><path fill="#472b29" d="M60.43,44.85c-0.005,0-0.011,0-0.017-0.001c-0.138-0.009-0.242-0.128-0.233-0.266c0.106-1.587,1.588-2.794,3.308-2.674c0.137,0.009,0.273,0.026,0.409,0.053c0.273-0.969,1.26-1.647,2.365-1.567c0.426,0.027,0.824,0.16,1.164,0.382c0-0.019,0.002-0.037,0.003-0.056c0.121-1.795,1.792-3.152,3.743-3.021c0.138,0.009,0.242,0.128,0.233,0.266c-0.009,0.138-0.125,0.262-0.266,0.232c-1.657-0.106-3.108,1.037-3.21,2.557c-0.012,0.184-0.004,0.37,0.023,0.553c0.017,0.109-0.041,0.217-0.141,0.264c-0.1,0.046-0.219,0.022-0.293-0.061c-0.321-0.364-0.778-0.583-1.287-0.617c-0.935-0.043-1.774,0.556-1.893,1.404c-0.01,0.071-0.05,0.135-0.11,0.175c-0.06,0.039-0.135,0.051-0.203,0.032c-0.188-0.051-0.379-0.083-0.568-0.097c-1.432-0.093-2.687,0.896-2.775,2.209C60.671,44.749,60.561,44.85,60.43,44.85z"/><path fill="#fdfcef" d="M87.73,39.617c-1.699-0.801-3.664-0.234-4.389,1.267c-0.09,0.186-0.157,0.379-0.201,0.574"/><path fill="#472b29" d="M83.14,41.708c-0.018,0-0.037-0.002-0.056-0.006c-0.134-0.031-0.219-0.165-0.188-0.3c0.049-0.216,0.123-0.427,0.22-0.627c0.782-1.62,2.9-2.241,4.72-1.384c0.125,0.06,0.179,0.208,0.12,0.333c-0.059,0.126-0.21,0.176-0.333,0.12c-1.574-0.743-3.394-0.227-4.057,1.148c-0.081,0.166-0.142,0.341-0.183,0.521C83.357,41.629,83.254,41.708,83.14,41.708z"/><path fill="#fff" d="M18.389 47.584H8.359c-.276 0-.5-.224-.5-.5s.224-.5.5-.5h10.03c.276 0 .5.224.5.5S18.665 47.584 18.389 47.584zM21.27 47.584h-1.446c-.276 0-.5-.224-.5-.5s.224-.5.5-.5h1.446c.276 0 .5.224.5.5S21.547 47.584 21.27 47.584zM25.325 47.584h-2.546c-.276 0-.5-.224-.5-.5s.224-.5.5-.5h2.546c.276 0 .5.224.5.5S25.601 47.584 25.325 47.584zM25.325 49.449h-9.616c-.276 0-.5-.224-.5-.5s.224-.5.5-.5h9.616c.276 0 .5.224.5.5S25.601 49.449 25.325 49.449zM13.977 49.449h-.58c-.276 0-.5-.224-.5-.5s.224-.5.5-.5h.58c.276 0 .5.224.5.5S14.253 49.449 13.977 49.449zM11.6 49.449h-1.457c-.276 0-.5-.224-.5-.5s.224-.5.5-.5H11.6c.276 0 .5.224.5.5S11.877 49.449 11.6 49.449zM20.736 45.719h-5.027c-.276 0-.5-.224-.5-.5s.224-.5.5-.5h5.027c.276 0 .5.224.5.5S21.012 45.719 20.736 45.719zM20.736 43.854h-1.257c-.276 0-.5-.224-.5-.5s.224-.5.5-.5h1.257c.276 0 .5.224.5.5S21.012 43.854 20.736 43.854zM17.467 51.314h-1.758c-.276 0-.5-.224-.5-.5s.224-.5.5-.5h1.758c.276 0 .5.224.5.5S17.743 51.314 17.467 51.314zM71.567 21.307H61.536c-.276 0-.5-.224-.5-.5s.224-.5.5-.5h10.031c.276 0 .5.224.5.5S71.843 21.307 71.567 21.307zM74.448 21.307h-1.446c-.276 0-.5-.224-.5-.5s.224-.5.5-.5h1.446c.276 0 .5.224.5.5S74.724 21.307 74.448 21.307zM78.503 21.307h-2.546c-.276 0-.5-.224-.5-.5s.224-.5.5-.5h2.546c.276 0 .5.224.5.5S78.779 21.307 78.503 21.307zM76.477 17.578h-9.616c-.276 0-.5-.224-.5-.5s.224-.5.5-.5h9.616c.276 0 .5.224.5.5S76.753 17.578 76.477 17.578zM65.129 17.578h-.58c-.276 0-.5-.224-.5-.5s.224-.5.5-.5h.58c.276 0 .5.224.5.5S65.405 17.578 65.129 17.578zM62.752 17.578h-1.456c-.276 0-.5-.224-.5-.5s.224-.5.5-.5h1.456c.276 0 .5.224.5.5S63.029 17.578 62.752 17.578zM73.914 19.442h-5.027c-.276 0-.5-.224-.5-.5s.224-.5.5-.5h5.027c.276 0 .5.224.5.5S74.19 19.442 73.914 19.442z"/><path fill="#fff" d="M73.914 17.578h-1.257c-.276 0-.5-.224-.5-.5s.224-.5.5-.5h1.257c.276 0 .5.224.5.5S74.19 17.578 73.914 17.578zM67.431 19.442h-1.758c-.276 0-.5-.224-.5-.5s.224-.5.5-.5h1.758c.276 0 .5.224.5.5S67.707 19.442 67.431 19.442z"/><path fill="#6f913d" d="M65.811,34.827c1.118-0.343,2.313,0.29,2.513,0.94L73.83,53.69c0.487,1.585-0.146,2.781-1.264,3.124l-35.7,10.967c-0.653,0.201-1.332,0.068-1.852-0.3"/><path fill="#472b29" d="M36.24,68.425c-0.546,0-1.083-0.169-1.544-0.495c-0.248-0.176-0.307-0.519-0.132-0.767c0.176-0.247,0.52-0.308,0.767-0.132c0.405,0.287,0.906,0.365,1.374,0.224l35.7-10.967c0.412-0.127,0.72-0.4,0.892-0.792c0.198-0.449,0.201-1.019,0.008-1.646l-5.506-17.923c-0.096-0.311-0.957-0.84-1.826-0.576c-0.29,0.089-0.598-0.074-0.687-0.364c-0.089-0.29,0.074-0.598,0.365-0.687c1.415-0.435,2.909,0.357,3.2,1.305l5.506,17.923c0.271,0.882,0.252,1.716-0.053,2.41c-0.3,0.684-0.86,1.182-1.576,1.4l-35.7,10.967C36.768,68.386,36.503,68.425,36.24,68.425z"/><path fill="#88ae45" d="M67.2,55.746l-31.412,9.649c-2.284,0.702-4.726-0.593-5.428-2.877l-4.159-13.54c-0.702-2.284,0.593-4.726,2.877-5.428l31.412-9.649c2.284-0.702,4.726,0.593,5.428,2.877l4.159,13.54C70.779,52.602,69.484,55.044,67.2,55.746z"/><path fill="#472b29" d="M34.516,66.187c-2.114,0-4.076-1.369-4.729-3.493l-4.159-13.539c-0.386-1.258-0.258-2.595,0.362-3.765c0.62-1.169,1.654-2.026,2.912-2.412l31.412-9.649c1.258-0.387,2.595-0.258,3.765,0.361c1.17,0.62,2.027,1.654,2.414,2.912l4.159,13.54c0.8,2.605-0.669,5.377-3.274,6.177l-31.412,9.649C35.483,66.117,34.995,66.187,34.516,66.187z M61.761,34.31c-0.367,0-0.735,0.055-1.095,0.165l-31.412,9.649c-0.952,0.292-1.734,0.941-2.204,1.828c-0.47,0.887-0.568,1.898-0.275,2.851l4.159,13.539c0.605,1.973,2.704,3.079,4.678,2.479l31.412-9.649l0,0c1.973-0.606,3.085-2.705,2.479-4.679l-4.159-13.54c-0.292-0.951-0.941-1.733-1.828-2.203C62.965,34.459,62.365,34.31,61.761,34.31z"/><path fill="#6f913d" d="M52.974,39.742l-22.026,6.766c0.419,1.366-0.271,2.788-1.541,3.179l3.208,10.444c1.271-0.39,2.641,0.401,3.061,1.767l29.654-9.109c-0.42-1.366,0.27-2.79,1.541-3.18l-3.208-10.444l0,0c-1.27,0.39-2.64-0.4-3.06-1.766l-2.663,0.818"/><path fill="#472b29" d="M35.676,62.223c-0.053,0-0.105-0.013-0.152-0.038c-0.076-0.04-0.133-0.109-0.158-0.191c-0.179-0.582-0.556-1.063-1.063-1.356c-0.499-0.288-1.064-0.357-1.591-0.195c-0.082,0.027-0.171,0.018-0.248-0.023c-0.076-0.04-0.133-0.109-0.158-0.191l-3.208-10.444c-0.053-0.172,0.043-0.354,0.215-0.406c1.097-0.337,1.691-1.581,1.326-2.772c-0.053-0.172,0.043-0.354,0.215-0.406l22.026-6.767c0.171-0.054,0.353,0.044,0.406,0.215c0.053,0.172-0.043,0.354-0.215,0.406l-21.731,6.677c0.258,1.32-0.38,2.633-1.531,3.153l3.03,9.862c0.606-0.108,1.231,0.007,1.791,0.33c0.558,0.321,0.993,0.819,1.248,1.422l29.065-8.928c-0.127-0.643-0.047-1.299,0.234-1.878c0.282-0.581,0.735-1.025,1.297-1.278l-3.029-9.862c-1.242,0.214-2.51-0.512-3.039-1.75l-2.369,0.727c-0.172,0.052-0.353-0.044-0.406-0.215c-0.053-0.172,0.043-0.354,0.215-0.406l2.664-0.817c0.171-0.054,0.353,0.044,0.406,0.215c0.367,1.191,1.558,1.889,2.654,1.551c0.173-0.055,0.353,0.044,0.406,0.215l3.209,10.444c0.025,0.083,0.017,0.172-0.023,0.248s-0.109,0.133-0.192,0.158c-0.527,0.162-0.956,0.536-1.208,1.055c-0.255,0.526-0.297,1.137-0.118,1.719c0.025,0.083,0.017,0.172-0.023,0.248s-0.109,0.133-0.192,0.158l-29.654,9.109C35.74,62.218,35.708,62.223,35.676,62.223z"/><path fill="#472b29" d="M53.967,39.762c-0.139,0-0.268-0.09-0.311-0.229c-0.053-0.172,0.043-0.354,0.215-0.406l0.497-0.152c0.172-0.055,0.353,0.044,0.406,0.215c0.053,0.172-0.043,0.354-0.215,0.406l-0.497,0.152C54.03,39.757,53.998,39.762,53.967,39.762z"/><path fill="#5b7729" d="M48.139 44.714000000000006A4.934 4.934 0 1 0 48.139 54.582A4.934 4.934 0 1 0 48.139 44.714000000000006Z" transform="rotate(-17.074 48.148 49.655)"/><path fill="#472b29" d="M48.142,54.908c-2.25,0-4.336-1.456-5.03-3.715c-0.413-1.343-0.278-2.766,0.38-4.007c0.658-1.241,1.759-2.152,3.103-2.564c1.343-0.414,2.766-0.278,4.006,0.38c1.241,0.658,2.152,1.76,2.564,3.103s0.277,2.766-0.38,4.007s-1.76,2.152-3.103,2.564C49.171,54.833,48.653,54.908,48.142,54.908z M48.146,45.037c-0.455,0-0.912,0.068-1.359,0.206c-1.177,0.361-2.143,1.159-2.719,2.247s-0.695,2.335-0.333,3.512c0.745,2.429,3.326,3.797,5.759,3.053c1.176-0.361,2.142-1.159,2.719-2.247s0.695-2.335,0.333-3.512l0,0c-0.362-1.178-1.16-2.144-2.248-2.72C49.623,45.218,48.888,45.037,48.146,45.037z"/><path fill="#5b7729" d="M38.879 50.663A1.558 1.558 0 1 0 38.879 53.778999999999996A1.558 1.558 0 1 0 38.879 50.663Z" transform="rotate(-17.074 38.886 52.23)"/><path fill="#472b29" d="M38.876,54.105c-0.303,0-0.604-0.074-0.879-0.22c-0.444-0.235-0.771-0.63-0.918-1.11c-0.305-0.993,0.254-2.049,1.247-2.354c0.482-0.148,0.991-0.099,1.435,0.136c0.444,0.236,0.77,0.631,0.918,1.111c0.148,0.481,0.1,0.99-0.136,1.435c-0.235,0.445-0.63,0.771-1.111,0.918C39.249,54.078,39.062,54.105,38.876,54.105z M38.881,50.988c-0.122,0-0.244,0.018-0.364,0.055c-0.65,0.2-1.017,0.892-0.817,1.541c0.097,0.315,0.31,0.573,0.601,0.728c0.29,0.154,0.625,0.188,0.939,0.089c0.315-0.097,0.573-0.31,0.728-0.601s0.186-0.625,0.089-0.939l0,0c-0.097-0.315-0.31-0.574-0.602-0.729C39.276,51.036,39.079,50.988,38.881,50.988z"/><path fill="#5b7729" d="M57.247 45.021A1.558 1.558 0 1 0 57.247 48.137A1.558 1.558 0 1 0 57.247 45.021Z" transform="rotate(-17.074 57.258 46.585)"/><path fill="#472b29" d="M57.245,48.462c-0.303,0-0.604-0.074-0.879-0.22c-0.444-0.235-0.771-0.63-0.918-1.11c-0.305-0.993,0.255-2.049,1.247-2.354c0.482-0.148,0.991-0.099,1.435,0.136c0.445,0.235,0.771,0.631,0.918,1.111l0,0c0.305,0.992-0.255,2.048-1.247,2.353C57.617,48.435,57.43,48.462,57.245,48.462z M57.249,45.345c-0.122,0-0.244,0.018-0.364,0.055c-0.65,0.2-1.016,0.892-0.817,1.541c0.097,0.314,0.311,0.573,0.602,0.728c0.292,0.154,0.625,0.187,0.939,0.089c0.65-0.2,1.017-0.891,0.817-1.54l0,0c-0.097-0.315-0.311-0.574-0.602-0.729C57.645,45.393,57.447,45.345,57.249,45.345z"/><path fill="#fbcd59" d="M69.041 49.013999999999996A5.658 5.658 0 1 0 69.041 60.33A5.658 5.658 0 1 0 69.041 49.013999999999996Z"/><path fill="#472b29" d="M69.041,60.83c-3.396,0-6.158-2.763-6.158-6.158s2.763-6.157,6.158-6.157s6.158,2.762,6.158,6.157S72.436,60.83,69.041,60.83z M69.041,49.514c-2.844,0-5.158,2.313-5.158,5.157c0,2.845,2.314,5.158,5.158,5.158c2.844,0,5.158-2.313,5.158-5.158C74.198,51.828,71.884,49.514,69.041,49.514z"/><path fill="#f1bc19" d="M69.04 50.973A3.699 3.699 0 1 0 69.04 58.370999999999995A3.699 3.699 0 1 0 69.04 50.973Z"/><path fill="#472b29" d="M69.04,58.621c-2.178,0-3.949-1.771-3.949-3.949s1.771-3.949,3.949-3.949s3.95,1.771,3.95,3.949S71.218,58.621,69.04,58.621z M69.04,51.222c-1.902,0-3.449,1.547-3.449,3.449s1.547,3.449,3.449,3.449c1.902,0,3.45-1.547,3.45-3.449S70.943,51.222,69.04,51.222z"/><path fill="#fbcd59" d="M60.685 55.518A5.658 5.658 0 1 0 60.685 66.834A5.658 5.658 0 1 0 60.685 55.518Z"/><path fill="#472b29" d="M60.685,67.334c-3.396,0-6.158-2.763-6.158-6.158s2.762-6.157,6.158-6.157c3.396,0,6.158,2.762,6.158,6.157S64.08,67.334,60.685,67.334z M60.685,56.018c-2.844,0-5.158,2.313-5.158,5.157c0,2.845,2.314,5.158,5.158,5.158s5.158-2.313,5.158-5.158C65.843,58.332,63.529,56.018,60.685,56.018z"/><path fill="#f1bc19" d="M60.685 57.477000000000004A3.699 3.699 0 1 0 60.685 64.875A3.699 3.699 0 1 0 60.685 57.477000000000004Z"/><path fill="#472b29" d="M60.685,65.125c-2.178,0-3.949-1.771-3.949-3.949s1.771-3.949,3.949-3.949s3.949,1.771,3.949,3.949S62.863,65.125,60.685,65.125z M60.685,57.726c-1.902,0-3.449,1.547-3.449,3.449s1.547,3.449,3.449,3.449s3.449-1.547,3.449-3.449S62.587,57.726,60.685,57.726z"/><path fill="#472b29" d="M60.202 62.164c.005 0 .015.005.031.015l-.008-.004c.074.051.141.091.199.121.059.029.121.05.188.063v-1.191l-.069-.038c-.084-.046-.165-.094-.241-.146-.077-.051-.146-.107-.207-.169-.061-.061-.113-.126-.155-.195-.042-.069-.071-.144-.086-.226-.01-.041-.016-.079-.017-.115s-.002-.074-.002-.115c0-.12.02-.225.059-.314.04-.089.094-.166.163-.228.069-.063.151-.113.245-.15.094-.037.198-.062.31-.075v-.107c0-.051.012-.094.035-.13.023-.036.065-.054.126-.054h.016c.132 0 .205.065.218.195l-.004.104c.071.013.145.033.22.06.075.027.16.06.255.101l-.011-.007c.043.015.077.034.101.057.024.023.039.06.044.111v.023c0 .018-.005.041-.013.069-.009.028-.022.055-.04.08-.018.026-.038.048-.061.067-.023.019-.049.029-.077.029-.023 0-.044-.002-.063-.006-.019-.004-.041-.015-.067-.032v.004l-.042-.023c-.074-.038-.156-.069-.245-.092v1.046l.015.008c.207.105.366.221.479.349.112.128.186.26.222.398.015.059.026.112.032.161.006.049.01.098.01.149 0 .118-.019.224-.058.318-.038.094-.09.177-.157.247-.066.07-.146.128-.239.172-.093.045-.195.075-.305.09v.276c0 .051-.01.094-.031.13-.02.036-.062.054-.126.054h-.023c-.064 0-.115-.017-.153-.052s-.058-.085-.058-.151v-.257c-.138-.015-.257-.046-.356-.092-.1-.046-.202-.103-.306-.172-.028-.023-.047-.045-.058-.065-.01-.02-.022-.048-.034-.084v-.023c0-.023.007-.049.021-.078.014-.03.031-.058.052-.084.021-.027.042-.05.065-.069.023-.019.045-.029.065-.029.028 0 .053.008.075.025.022.017.043.034.063.052H60.202c.005.002.009.004.011.004L60.202 62.164zM60.399 60.536c.06.056.131.106.213.149v-.839c-.097.021-.178.06-.243.119-.065.059-.098.138-.098.238 0 .015.001.032.002.05s.004.04.01.065C60.301 60.407 60.34 60.48 60.399 60.536zM61.187 61.545c-.051-.063-.113-.117-.184-.163v.954c.089-.036.164-.091.224-.165.06-.074.09-.161.09-.26 0-.028-.002-.054-.007-.077-.005-.023-.01-.047-.015-.073C61.274 61.68 61.238 61.608 61.187 61.545zM68.445 55.66c.005 0 .015.005.031.015l-.008-.004c.074.051.141.091.199.121.059.029.121.05.188.063v-1.191l-.069-.038c-.084-.046-.165-.094-.241-.146-.077-.051-.146-.107-.207-.169-.061-.061-.113-.126-.155-.195-.042-.069-.071-.144-.086-.226-.01-.041-.016-.079-.017-.115s-.002-.074-.002-.115c0-.12.02-.225.059-.314.04-.089.094-.166.163-.228.069-.063.151-.113.245-.15.094-.037.198-.062.31-.075v-.107c0-.051.012-.094.035-.13.023-.036.065-.054.126-.054h.016c.132 0 .205.065.218.195l-.004.104c.071.013.145.033.22.06.075.027.16.06.255.101l-.011-.007c.043.015.077.034.101.057.024.023.039.06.044.111v.023c0 .018-.005.041-.013.069-.009.028-.022.055-.04.08-.018.026-.038.048-.061.067-.023.019-.049.029-.077.029-.023 0-.044-.002-.063-.006-.019-.004-.041-.015-.067-.032v.004l-.042-.023c-.074-.038-.156-.069-.245-.092v1.046l.015.008c.207.105.366.221.479.349.112.128.186.26.222.398.015.059.026.112.032.161.006.049.01.098.01.149 0 .118-.019.224-.058.318-.038.094-.09.177-.157.247-.066.07-.146.128-.239.172-.093.045-.195.075-.305.09v.276c0 .051-.01.094-.031.13-.02.036-.062.054-.126.054h-.023c-.064 0-.115-.017-.153-.052s-.058-.085-.058-.151v-.257c-.138-.015-.257-.046-.356-.092-.1-.046-.202-.103-.306-.172-.028-.023-.047-.045-.058-.065-.01-.02-.022-.048-.034-.084v-.023c0-.023.007-.049.021-.078.014-.03.031-.058.052-.084s.042-.05.065-.069.045-.029.065-.029c.028 0 .053.008.075.025.022.017.043.034.063.052H68.445c.005.002.009.004.011.004L68.445 55.66zM68.642 54.032c.06.056.131.106.213.149v-.839c-.097.021-.178.06-.243.119-.065.059-.098.138-.098.238 0 .015.001.032.002.05.001.018.004.04.01.065C68.543 53.903 68.582 53.976 68.642 54.032zM69.429 55.041c-.051-.063-.113-.117-.184-.163v.954c.089-.036.164-.091.224-.165.06-.074.09-.161.09-.26 0-.028-.002-.054-.007-.077-.005-.023-.01-.047-.015-.073C69.516 55.176 69.48 55.104 69.429 55.041zM47.807 51.275c.006-.002.022 0 .046.008l-.012-.002c.116.037.218.062.306.077.088.014.177.017.268.007l-.474-1.54-.104-.022c-.127-.026-.25-.057-.37-.092s-.231-.081-.334-.136c-.104-.055-.197-.118-.278-.191-.082-.073-.149-.158-.202-.258-.029-.049-.052-.096-.068-.142s-.032-.095-.048-.148c-.048-.155-.064-.298-.048-.429.016-.131.055-.251.12-.359.064-.108.15-.205.257-.291.107-.085.231-.159.371-.22l-.043-.139c-.02-.066-.023-.127-.007-.182.016-.056.063-.095.142-.12l.02-.006c.171-.053.292.003.36.166l.036.135c.097-.012.2-.015.308-.011.108.005.231.014.37.03l-.017-.005c.062.003.113.014.154.034.041.02.074.062.101.126l.009.03c.007.023.01.055.01.094 0 .04-.007.08-.02.12-.013.04-.03.077-.053.111-.022.034-.051.057-.088.068-.03.009-.058.015-.084.018-.026.003-.059-.002-.1-.015l.001.005-.064-.013c-.111-.02-.229-.027-.353-.021l.416 1.352.023.004c.309.053.561.14.758.26.196.12.345.262.446.427.043.07.078.135.106.195s.052.123.072.189c.047.152.064.297.052.434-.012.137-.047.264-.104.382-.058.117-.138.223-.241.318-.103.095-.222.174-.358.238l.11.357c.02.066.024.126.012.181-.012.054-.059.094-.142.12l-.03.009c-.083.025-.155.023-.218-.006s-.108-.087-.135-.173l-.102-.332c-.184.035-.35.043-.497.023-.147-.02-.302-.053-.465-.101-.046-.018-.079-.039-.1-.061-.021-.022-.047-.054-.078-.095l-.009-.03c-.009-.029-.011-.066-.004-.109.006-.044.017-.087.033-.13.016-.043.035-.081.057-.115.022-.034.046-.055.073-.063.036-.011.072-.01.107.002.034.013.069.027.102.042L47.807 51.275c.007.001.013.001.016 0L47.807 51.275zM47.414 49.091c.1.049.211.085.334.109l-.334-1.085c-.117.065-.206.149-.267.25-.061.102-.071.217-.032.346.006.02.014.041.022.064.009.022.021.049.038.08C47.235 48.964 47.315 49.043 47.414 49.091zM48.834 50.083c-.091-.061-.192-.106-.302-.137l.379 1.233c.101-.082.176-.182.224-.302.048-.119.052-.244.013-.372-.011-.036-.025-.068-.04-.096-.016-.028-.032-.057-.049-.088C48.999 50.223 48.924 50.144 48.834 50.083z"/><path fill="#fdfcef" d="M42.018,72.119c1.883,0,3.517,0,3.54,0c2.11,0,3.821-1.674,3.821-3.739c0-1.802-1.302-3.305-3.035-3.66c0.02-0.158,0.034-0.317,0.034-0.48c0-2.139-1.772-3.873-3.957-3.873c-1.29,0-2.433,0.607-3.155,1.543c-0.185-2.381-2.358-4.218-4.9-3.913c-1.859,0.223-3.397,1.629-3.739,3.431c-0.11,0.578-0.098,1.139,0.011,1.665c-0.498-0.525-1.208-0.856-1.998-0.856c-1.446,0-2.627,1.102-2.72,2.494c-0.657-0.142-1.371-0.133-2.123,0.143c-1.438,0.528-2.462,1.853-2.522,3.356c-0.085,2.133,1.657,3.889,3.818,3.889c0.164,0,0.741,0,0.874,0h7.934 M35.54,72.119h0.36"/><path fill="#472b29" d="M45.558,72.62h-3.54c-0.276,0-0.5-0.224-0.5-0.5s0.224-0.5,0.5-0.5h3.54c1.831,0,3.321-1.453,3.321-3.239c0-1.524-1.108-2.858-2.636-3.17c-0.256-0.053-0.429-0.294-0.396-0.554c0.018-0.137,0.03-0.275,0.03-0.417c0-1.86-1.551-3.373-3.457-3.373c-1.092,0-2.098,0.491-2.76,1.349c-0.126,0.164-0.339,0.231-0.539,0.174c-0.198-0.06-0.339-0.234-0.355-0.44c-0.079-1.02-0.565-1.944-1.369-2.604c-0.829-0.679-1.883-0.979-2.973-0.853c-1.646,0.196-3.006,1.441-3.307,3.027c-0.094,0.495-0.091,0.99,0.009,1.472c0.045,0.219-0.06,0.441-0.258,0.545c-0.196,0.103-0.441,0.063-0.594-0.1c-0.428-0.451-1.009-0.7-1.635-0.7c-1.169,0-2.145,0.891-2.221,2.027c-0.01,0.146-0.082,0.278-0.198,0.366c-0.116,0.087-0.263,0.122-0.406,0.089c-0.639-0.138-1.243-0.098-1.846,0.125c-1.262,0.463-2.144,1.631-2.195,2.905c-0.035,0.876,0.283,1.709,0.895,2.346c0.635,0.66,1.496,1.024,2.423,1.024h8.807c0.276,0,0.5,0.224,0.5,0.5s-0.224,0.5-0.5,0.5h-8.807c-1.185,0-2.331-0.485-3.144-1.331c-0.803-0.836-1.219-1.929-1.173-3.078c0.067-1.675,1.212-3.204,2.849-3.806c0.61-0.225,1.24-0.305,1.88-0.244c0.344-1.396,1.629-2.424,3.135-2.424c0.493,0,0.977,0.113,1.414,0.323c0.009-0.242,0.037-0.484,0.083-0.727c0.381-2.01,2.096-3.586,4.171-3.833c1.36-0.168,2.684,0.217,3.726,1.071c0.748,0.613,1.278,1.409,1.546,2.302c0.791-0.648,1.786-1.007,2.842-1.007c2.458,0,4.457,1.962,4.457,4.373c0,0.034,0,0.068-0.001,0.103c1.764,0.555,3.003,2.188,3.003,4.038C49.879,70.718,47.94,72.62,45.558,72.62z M35.9,72.62h-0.36c-0.276,0-0.5-0.224-0.5-0.5s0.224-0.5,0.5-0.5h0.36c0.276,0,0.5,0.224,0.5,0.5S36.176,72.62,35.9,72.62z"/><path fill="#472b29" d="M43.85 66.816c-.018 0-.036-.002-.055-.006-.135-.03-.22-.164-.189-.299.038-.166.095-.327.17-.479.605-1.224 2.275-1.675 3.722-1.006.125.058.18.206.122.331-.059.126-.206.18-.332.122-1.201-.556-2.578-.208-3.063.774-.058.117-.102.24-.13.367C44.068 66.737 43.965 66.816 43.85 66.816zM38.692 72.62h-1.107c-.276 0-.5-.224-.5-.5s.224-.5.5-.5h1.107c.276 0 .5.224.5.5S38.968 72.62 38.692 72.62z"/></svg>