<svg xmlns="http://www.w3.org/2000/svg"  viewBox="0 0 48 48" width="48px" height="48px"><path fill="#1565c0" d="M39,5h-9l9,9V5z"/><path fill="#1565c0" d="M12.8 21L10 18.2 19.9 8.3 26.9 14.3 34.6 6.6 37.4 9.4 27.1 19.7 20.1 13.7z"/><path fill="#a5d6a7" d="M5,23h38v20H5V23z"/><path fill="#388e3c" d="M14 33c0 1.1-.9 2-2 2s-2-.9-2-2 .9-2 2-2S14 31.9 14 33zM38 33c0 1.1-.9 2-2 2s-2-.9-2-2 .9-2 2-2S38 31.9 38 33zM30 33c0 3.3-2.7 6-6 6s-6-2.7-6-6 2.7-6 6-6S30 29.7 30 33z"/><path fill="#388e3c" d="M41,25v16H7V25H41 M43,23H5v20h38V23z"/><path fill="#388e3c" d="M6 24v3.5C6.4 27.8 6.9 28 7.5 28c1.4 0 2.5-1.1 2.5-2.5 0-.6-.2-1.1-.5-1.5H6zM42 24h-3.5c-.3.4-.5.9-.5 1.5 0 1.4 1.1 2.5 2.5 2.5.6 0 1.1-.2 1.5-.5V24zM42 38.5c-.4-.3-.9-.5-1.5-.5-1.4 0-2.5 1.1-2.5 2.5 0 .6.2 1.1.5 1.5H42V38.5zM9.5 42c.3-.4.5-.9.5-1.5 0-1.4-1.1-2.5-2.5-2.5-.6 0-1.1.2-1.5.5V42H9.5z"/></svg>