<svg xmlns="http://www.w3.org/2000/svg" viewBox="0 0 512 512" width="48px" height="48px"><path fill="#BCBCBC" d="M343.3,283.5c-6.2-16.3-4.4-39.6,6.8-54c-3.1-1.2-6.5-1.5-9.9-1.4c-7.1,0.3-14.3,1-21.4,1.2c-32.8,1.2-65.7,0.5-98.6,1.7c-59.8,2.2-119.5,6.8-179.4,7.7c4.9,10.7,7.2,23.3,3.6,34.3c-1.9,5.6-4.1,11.1-6.2,16.7c-0.9,2.3-1.9,4.7-2.6,7c-0.3,0.8-0.5,1.7-0.7,2.5c0,0.1,0,0.1,0,0.1c0.1,1-0.2,1.9-0.6,2.7c51.5-5.7,103.6-4.8,155.3-7.4c15.1-0.7,30.3-1.1,45.4-0.9c12.6,0.2,25.6,0,38.1,1.8c9.7,1.4,19.3,3.3,29,4c6.9,0.5,14.9,0.9,21.6-1.5c0.4-1.8,1.8-3.2,4.3-3.2h0.2c0.3-2.1,1.7-4.1,4.3-4.5c4.4-0.7,8.4-2.4,12-4.8C344.1,285,343.6,284.3,343.3,283.5z"/><path fill="#D6E5E5" d="M346.7,130.7c-2-6.3-4.5-11.9-8.2-16.4c-0.1,0-0.2,0-0.4-0.1c-4.2-0.9-5.7,0.2-6.5,4.2c-1,5.2-0.3,10.9,0.9,16c1.5,6.1,3.5,12.4,6.6,17.8c1.2,2,2.4,4.2,4.1,5.9c1.5,1.5,1.7,1.6,2.7,1.8c1.6,0.2,2.6,1,3.3,2C352.1,151.7,349.9,140.6,346.7,130.7z"/><path fill="#D6E5E5" d="M344.1,169.7c-6.3-1-10.8-7.4-13.6-12.6c-3.9-7.3-6.7-15.2-8.2-23.4c-1.7-9.3-1.2-22.4,5.9-27.6c-0.6-0.3-1.3-0.6-2-0.9c-13.2-5.7-27.8-6.4-42-6c-15.6,0.5-31.1,2.5-46.6,3.8c-32.3,2.8-64.7,3.4-97.1,5.3c-22.8,1.3-45.4,5.1-68,7.3c1.6,2,2.8,4.4,3.3,7c35.9-9.6,74.6-5.7,111.2-3.4c18.1,1.1,36.3,1.7,54.4,1.8c6.7,0,13.4,0,20-0.7c3.6-0.4,10.2-0.6,12.4-3.7c3.7-5.3,11.1,1.3,7.5,6.6c-2.9,4.2-9,5.5-13.7,6.3c-6.9,1.2-13.9,1.4-20.8,1.5c-17.6,0.1-35.1-0.4-52.7-1.4c-39.4-2.3-81.9-7.9-120.4,4c-0.3,0.1-0.6,0.2-0.9,0.2c-0.8,0.7-1.7,1.2-2.7,1.7c-1.9,1-4.6,1.1-4.4,3.2c0.3,4.4,2.9,8.2,4.5,12.4c0.4-0.1,0.9-0.2,1.5-0.2c42.4,0,84.9-1.1,127.2-4.6c20.3-1.7,40.5-3.4,60.8-5c9.6-0.8,19.2-1.8,28.8-2.9c3.7-0.4,7.1-1,10.9-0.8c1.4,0.1,2.8,0.2,4.1,0.2c0.1,0,0.2,0,0.3,0c2-1.9,5.7-2.5,8,0.3c2.1,2.6,1.6,6.1-0.9,8.1c-2,1.6-5.1,1.6-7.6,1.5c-8.8-0.4-17.5,0.7-26.2,1.9c-21.8,2.9-43.9,3.6-65.8,5.7c-46.1,4.2-92.4,5.6-138.7,5.6c-0.5,0-1-0.1-1.4-0.2c-0.7,2.9-2.2,5.1-3.8,8.4c-0.9,1.8-1.4,4.1-2.5,5.9l0.1,0.3c0.4,0.8,1.3,1.2,2,1.7c2.8,1.7,5.2,3.9,6.8,6.7c0.6-1.5,1.9-2.7,4.1-2.7c43,0,85.8-3.3,128.6-6.3c17-1.2,34.1-0.8,51.1-1.6c16.4-0.7,33.2-2,48.5-8.3c6-2.5,9.2,7,3.3,9.4c-32,13.1-68.5,7.8-102.1,10.4c-42.8,3.3-85.7,6.3-128.6,6.3c-1.3,0-2.3-0.4-3.1-1c0,0.2,0,0.5,0,0.7c0,4.2-3.1,10.6,0,14.1c0.5,0.5,0.8,1.1,1,1.6l0.1,0c13.5,0.6,27.2-0.1,40.7-0.7c15.9-0.7,31.9-1.5,47.8-1.9c16.2-0.4,32.4-0.1,48.6-0.7c28.7-1,57.4-3.7,85.5-9.8c13.9-3,32.2-7.3,42.8-18.3c0.2-0.4,0.5-0.8,0.9-1.2c0.4-0.4,0.8-0.8,1.2-1.3c0.6-0.8,1.2-1.7,1.8-2.5C345.3,169.8,344.7,169.8,344.1,169.7z"/><path fill="#74CCCF" d="M422.4,156.2c-5.2-4.9-10.1-7.7-17.4-8.1c-6.7-0.4-13.9,0.9-19.7,4.4c-2.6,1.5-5.2,0.5-6.7-1.3c-9.5,9.6-18.8,19.4-28.4,29c-0.5,0.5-1,0.8-1.5,1.1c-5.4,5.7-12.4,10.3-20.3,13.6c-21.2,8.8-45.6,12.1-68.2,14.7c-32.1,3.7-64.2,3.2-96.4,4.1c-29.1,0.8-58.4,3.9-87.5,2.5c-9.8-0.5-19.7-1.2-29.6-1.1c-0.9,0-1.9,0-2.9,0c-0.1,1-0.4,2-1.2,2.9c-2.7,3.6-5.7,6.9-9,10c0.5,0.2,0.9,0.5,1.3,0.9c35.7-0.4,71.4-2.2,107.1-4c33.1-1.7,66.1-3.6,99.2-4.4c16.5-0.4,33-0.4,49.4-0.5c15.9-0.1,31.6-1,47.5-1.7c7.2-0.3,14.4,0.6,20.3,4.4c2.2,0,4,1.8,4.6,4c6.6,7.6,9.2,18.6,8.6,28.5c-0.2,2.6-0.6,5.1-1.1,7.6c20.6-21.1,42.6-41.2,57-67.1c0.3-0.5,0.7-1,1.2-1.5C429.5,181.1,432.8,165.9,422.4,156.2z"/><path fill="#D6E5E5" d="M350.2,315.4c-0.8-2.4-2.2-4.7-4-6.6c-1.2,3.9-1.3,8.1-0.8,12.3c0.5-0.9,1.3-1.6,2.5-2c1-0.4,1.9-0.8,2.8-1.3C350.6,317,350.5,316.2,350.2,315.4z"/><path fill="#F6851F" d="M433.5,223.8c-0.7-3.9-5.1-5.3-8.5-6.1c-18.8,25.6-43.8,46.2-64.3,70.4c-1.6,1.9-3.6,2.1-5.4,1.3c-3.1,2.9-6.6,5.3-10.4,7.1c6.5,2.6,12.2,7.8,14.5,14.3c6.9-6.8,12.4-15.7,19.6-21.6c11.9-9.8,24.8-18.6,35.2-30c6.4-7.1,12.6-14.9,16.6-23.6C432.6,232.1,434.3,227.8,433.5,223.8z"/><path fill="#FEBF10" d="M393.1,61.4C376.6,35.5,341.2,30,313,28.3c-18.1-1.1-36.3-0.5-54.4,0.6c-23.8,1.5-47.6,2.3-71.3,4.1c-7.2,0.5-13.8,1.7-20.3,5c-5.4,2.7-10.3,6.1-15.3,9.5c-11.4,7.6-23.7,13.6-35.8,20c-21.8,11.4-44,23.2-62.5,39.6c28.9-1.4,57.5-7,86.4-8.7c32.4-1.8,64.8-2.4,97.1-5.3c28.8-2.6,60.4-8.6,88.5,1.2c11,3.8,21,10.5,26.2,21.2c4.9,10.1,8.3,22,8.9,33.2c0.1,2.4,0.1,4.6-0.1,6.8c3.5-3.6,6.9-7.1,10.4-10.7c4.8-4.9,9.6-9.7,14.6-14.4c4.5-4.2,8.6-8,11.2-13.7C404.2,100.3,402.9,76.9,393.1,61.4z"/><path fill="#D6E5E5" d="M357.8 235.6c-8.8 11-9.7 30.3-5.6 42.9 5.1-6.2 8.4-14 9.3-21.6C362.3 250.8 361.6 241.7 357.8 235.6zM337 331.7c-1.8-9-2.7-18.2.1-27-.9-.2-1.7-.6-2.4-1.1-.1.1-.3.2-.5.3-10.4 6.9-23.7 7-36.7 5.5-.5.5-1.2.9-2 1.1-19.4 5.7-39.8 4.9-59.7 5.9-22.6 1.2-44.9 5.4-67.4 7.1-11.8.9-23.7.7-35.6 1.3-11.2.6-22.4 1.4-33.7 1.4-16.7-.1-33.3-3-49.9-3.7 2.1 4.3 3.4 9 3.1 13.8-.3 6.3-2 12.1-4.1 17.9 4 2.1 7.6 4.4 12.5 3.8 6-.7 11.6-1.7 17.7-1.8 15.4-.2 30.8-1.3 46.2-2.5 15.8-1.3 31.5-2 47.3-3.9 15.2-1.8 30.4-4 45.6-6.1 15.7-2.2 31.4-4.6 47.2-5.4 16.3-.8 32.7-.5 49-1.1 7.6-.3 16.4-.7 23.8-3.9C337.4 332.8 337.2 332.3 337 331.7zM380.3 395.9c-.8-6.4-2.9-13.5-6.9-18.8-2.4 1.7-6.3 1.3-7.5-1.5-2.1 1-3.3 3.4-3.9 6.7-1.4 6.7-.7 13.7.5 20.3 1.2 6.2 2.9 12.9 6.1 18.4.7 1.2 1.3 2.3 2.2 3.3 0 0 .5.4.8.7.9-.9 1.8-1.3 2.8-1.4.9-1 1.9-1.9 2.9-2.9C380.2 412.9 381.4 404.4 380.3 395.9z"/><path fill="#EF4823" d="M452.1,304.4c-0.3-9.6-1.9-17.2-9.3-24c-5.4-5-14.2-11-21.5-6.5c-2.5,1.5-5,0.6-6.5-1.1c-8.3,7.6-17.3,14.4-26.1,21.5c-7.4,6-12.9,12.8-19.1,19.8c-3.1,3.5-6.4,6.8-10.1,9.6c-2.2,7.5-7.7,13.2-15.1,17.1c-11.2,5.9-23.3,6.3-35.7,6.6c-16.3,0.4-32.7,0.1-49,1.3c-15.7,1.2-31.4,3.6-47,5.8c-15.8,2.2-31.7,4.5-47.6,6.2c-15.6,1.6-31.2,2.4-46.9,3.6c-7.9,0.6-15.9,1.2-23.8,1.5c-3.2,0.1-6.5,0.1-9.8,0.1c1.2,1.1,2.1,2.4,2.6,3.9c28.5,0.2,57.1,1.1,85.5-0.7c30.9-1.9,61.7-5.7,92.6-7.4c13.7-0.7,27.6-0.1,41.3-1.4c9.4-0.9,18.6-2.6,28-3.5c17.4-1.6,37.6-0.3,48,16.1c6.6,10.4,8.9,22.8,7.7,35c3.8-3.9,7.4-7.9,11-12.2c8.1-9.8,16.9-19.1,25.2-28.7c8-9.2,16.7-18.5,20.7-30.1C450.9,326.6,452.5,315.3,452.1,304.4z"/><path fill="#D6E5E5" d="M237.8 303.7c-14.5-.2-29 0-43.5.6-52.3 2.4-105 1.7-157.1 7.3-.1.2-.3.4-.4.6 0 .1 0 .2-.1.3 20.7-.9 41.1 3.8 61.8 3.7 11.2 0 22.4-.8 33.7-1.4 11.2-.6 22.5-.3 33.7-1.1 22.7-1.7 45-6 67.8-7.2 11.7-.6 23.6-.4 35.3-1.4C258.6 304 248.2 303.9 237.8 303.7zM361.8 429.2c-5-7.3-7.5-16.3-9.1-24.9-2-10.9-2.6-29.4 6.7-36.4-6.2-1.8-12.8-1.9-19.2-1.4-9.8.7-19.5 2.4-29.3 3.5-12.9 1.4-25.9.8-38.9 1.5-32.3 1.6-64.3 5.5-96.5 7.5-20.5 1.3-41.1 1.2-61.7 1.1 3 3.2 5.1 7.6 6.7 12.2 32.2-.1 64.5-1.4 96.5-4.2 18.9-1.7 37.9-3.1 56.8-4.6 18.2-1.5 35.7-7.5 54.1-6.1 6.4.5 4.4 10.3-1.9 9.8-18.4-1.4-36.8 5-55.1 6.5-18.2 1.5-36.5 2.9-54.8 4.5-31 2.6-62.2 3.9-93.3 4.1.6 3.4 1 6.7 1.2 9.8.5-.1 1-.2 1.5-.2 18.3 0 36.7-.4 55-1.4 18.2-1 36.9-1.9 54.9-5 16.1-2.8 32.3-4.1 48.5-6 5.4-.7 10.8-.9 16.2-1.4 2.9-.3 8.5-.3 10.4-1.9 5-4.1 10.5 4.2 5.6 8.3-3.3 2.7-8.8 2.9-12.9 3.3-5.5.6-11.1.8-16.7 1.4-16.2 1.8-32.5 3.2-48.6 5.9-18.7 3.2-37.9 4.3-56.8 5.3-18.3 1-36.6 1.3-55 1.4-.6 0-1.1-.1-1.6-.2.2 4.2.5 8.4.7 12.6 17.5-.5 35-2.2 52.4-4.2 19.8-2.2 39.6-4 59.3-6.8 19.2-2.8 39-6.8 58.5-6.9 5.6 0 11.3-.1 16.9-.7 2.3-.3 10.4-.8 11.5-2.5 3.3-5.5 12.3-1.1 9 4.4-5.7 9.4-22.6 8.5-32 8.7-18.5.3-36.9 3.1-55.2 5.8-21.7 3.2-43.4 5.2-65.2 7.7-17.4 2-34.8 3.8-52.3 4.4 1 .5 1.9 1.3 2.4 2.2 19 .1 37.9.5 56.9 0 19.9-.5 39.6-2.5 59.4-4.2 10-.9 20.1-1.9 30.1-2.8 8.8-.8 17.7-2.1 26.5-2 5.9.1 11.9.3 17.9-.2 2.7-.2 10.3-.3 11.7-3 2.8-5.8 11.8-1.4 9 4.4-5.1 10.4-23.2 9-32.8 8.9-18-.2-36.1 2.4-54.1 4.1-21.6 2-43.2 4.3-64.9 4.8-20.7.5-41.5 0-62.2 0 .3 1.2.6 2.3 1 3.5.8 2.2 2.1 4.8 3.2 6 53.8.1 107.8 2.9 161.5-2.6 13.9-1.4 27.8-3.3 41.6-6 8.6-1.7 16.4-5.1 23.3-10.5 1.1-5 4.1-9.4 7.3-13.4C364.3 432.3 362.9 430.8 361.8 429.2zM118.8 460.2c-1.4 1.1-2.7 2.2-4 3.4 0 0-.1.1-.1.1-.1 1-.5 2-1.4 2.9l-1.3 1.3c3.2.7 6.6.6 9.9.5C120.5 465.9 119.5 463.1 118.8 460.2z"/><path fill="none" d="M393.1,61.4C376.6,35.5,341.2,30,313,28.3c-18.1-1.1-36.3-0.5-54.4,0.6c-23.8,1.5-47.6,2.3-71.3,4.1c-7.2,0.5-13.8,1.7-20.3,5c-5.4,2.7-10.3,6.1-15.3,9.5c-11.4,7.6-23.7,13.6-35.8,20c-21.8,11.4-44,23.2-62.5,39.6c28.9-1.4,57.5-7,86.4-8.7c32.4-1.8,64.8-2.4,97.1-5.3c28.8-2.6,60.4-8.6,88.5,1.2c11,3.8,21,10.5,26.2,21.2c4.9,10.1,8.3,22,8.9,33.2c0.1,2.4,0.1,4.6-0.1,6.8c3.5-3.6,6.9-7.1,10.4-10.7c4.8-4.9,9.6-9.7,14.6-14.4c4.5-4.2,8.6-8,11.2-13.7C404.2,100.3,402.9,76.9,393.1,61.4z"/><path fill="none" d="M344.1,169.7c-6.3-1-10.8-7.4-13.6-12.6c-3.9-7.3-6.7-15.2-8.2-23.4c-1.7-9.3-1.2-22.4,5.9-27.6c-0.6-0.3-1.3-0.6-2-0.9c-13.2-5.7-27.8-6.4-42-6c-15.6,0.5-31.1,2.5-46.6,3.8c-32.3,2.8-64.7,3.4-97.1,5.3c-22.8,1.3-45.4,5.1-68,7.3c1.6,2,2.8,4.4,3.3,7c35.9-9.6,74.6-5.7,111.2-3.4c18.1,1.1,36.3,1.7,54.4,1.8c6.7,0,13.4,0,20-0.7c3.6-0.4,10.2-0.6,12.4-3.7c3.7-5.3,11.1,1.3,7.5,6.6c-2.9,4.2-9,5.5-13.7,6.3c-6.9,1.2-13.9,1.4-20.8,1.5c-17.6,0.1-35.1-0.4-52.7-1.4c-39.4-2.3-81.9-7.9-120.4,4c-0.3,0.1-0.6,0.2-0.9,0.2c-0.8,0.7-1.7,1.2-2.7,1.7c-1.9,1-4.6,1.1-4.4,3.2c0.3,4.4,2.9,8.2,4.5,12.4c0.4-0.1,0.9-0.2,1.5-0.2c42.4,0,84.9-1.1,127.2-4.6c20.3-1.7,40.5-3.4,60.8-5c9.6-0.8,19.2-1.8,28.8-2.9c3.7-0.4,7.1-1,10.9-0.8c1.4,0.1,2.8,0.2,4.1,0.2c0.1,0,0.2,0,0.3,0c2-1.9,5.7-2.5,8,0.3c2.1,2.6,1.6,6.1-0.9,8.1c-2,1.6-5.1,1.6-7.6,1.5c-8.8-0.4-17.5,0.7-26.2,1.9c-21.8,2.9-43.9,3.6-65.8,5.7c-46.1,4.2-92.4,5.6-138.7,5.6c-0.5,0-1-0.1-1.4-0.2c-0.7,2.9-2.2,5.1-3.8,8.4c-0.9,1.8-1.4,4.1-2.5,5.9l0.1,0.3c0.4,0.8,1.3,1.2,2,1.7c2.8,1.7,5.2,3.9,6.8,6.7c0.6-1.5,1.9-2.7,4.1-2.7c43,0,85.8-3.3,128.6-6.3c17-1.2,34.1-0.8,51.1-1.6c16.4-0.7,33.2-2,48.5-8.3c6-2.5,9.2,7,3.3,9.4c-32,13.1-68.5,7.8-102.1,10.4c-42.8,3.3-85.7,6.3-128.6,6.3c-1.3,0-2.3-0.4-3.1-1c0,0.2,0,0.5,0,0.7c0,4.2-3.1,10.6,0,14.1c0.5,0.5,0.8,1.1,1,1.6l0.1,0c13.5,0.6,27.2-0.1,40.7-0.7c15.9-0.7,31.9-1.5,47.8-1.9c16.2-0.4,32.4-0.1,48.6-0.7c28.7-1,57.4-3.7,85.5-9.8c13.9-3,32.2-7.3,42.8-18.3c0.2-0.4,0.5-0.8,0.9-1.2c0.4-0.4,0.8-0.8,1.2-1.3c0.6-0.8,1.2-1.7,1.8-2.5C345.3,169.8,344.7,169.8,344.1,169.7z"/><path fill="none" d="M346.7,130.7c-2-6.3-4.5-11.9-8.2-16.4c-0.1,0-0.2,0-0.4-0.1c-4.2-0.9-5.7,0.2-6.5,4.2c-1,5.2-0.3,10.9,0.9,16c1.5,6.1,3.5,12.4,6.6,17.8c1.2,2,2.4,4.2,4.1,5.9c1.5,1.5,1.7,1.6,2.7,1.8c1.6,0.2,2.6,1,3.3,2C352.1,151.7,349.9,140.6,346.7,130.7z"/><path fill="none" d="M422.4 156.2c-5.2-4.9-10.1-7.7-17.4-8.1-6.7-.4-13.9.9-19.7 4.4-2.6 1.5-5.2.5-6.7-1.3-9.5 9.6-18.8 19.4-28.4 29-.5.5-1 .8-1.5 1.1-5.4 5.7-12.4 10.3-20.3 13.6-21.2 8.8-45.6 12.1-68.2 14.7-32.1 3.7-64.2 3.2-96.4 4.1-29.1.8-58.4 3.9-87.5 2.5-9.8-.5-19.7-1.2-29.6-1.1-.9 0-1.9 0-2.9 0-.1 1-.4 2-1.2 2.9-2.7 3.6-5.7 6.9-9 10 .5.2.9.5 1.3.9 35.7-.4 71.4-2.2 107.1-4 33.1-1.7 66.1-3.6 99.2-4.4 16.5-.4 33-.4 49.4-.5 15.9-.1 31.6-1 47.5-1.7 7.2-.3 14.4.6 20.3 4.4 2.2 0 4 1.8 4.6 4 6.6 7.6 9.2 18.6 8.6 28.5-.2 2.6-.6 5.1-1.1 7.6 20.6-21.1 42.6-41.2 57-67.1.3-.5.7-1 1.2-1.5C429.5 181.1 432.8 165.9 422.4 156.2zM433.5 223.8c-.7-3.9-5.1-5.3-8.5-6.1-18.8 25.6-43.8 46.2-64.3 70.4-1.6 1.9-3.6 2.1-5.4 1.3-3.1 2.9-6.6 5.3-10.4 7.1 6.5 2.6 12.2 7.8 14.5 14.3 6.9-6.8 12.4-15.7 19.6-21.6 11.9-9.8 24.8-18.6 35.2-30 6.4-7.1 12.6-14.9 16.6-23.6C432.6 232.1 434.3 227.8 433.5 223.8z"/><path fill="none" d="M357.8 235.6c-8.8 11-9.7 30.3-5.6 42.9 5.1-6.2 8.4-14 9.3-21.6C362.3 250.8 361.6 241.7 357.8 235.6zM350.2 315.4c-.8-2.4-2.2-4.7-4-6.6-1.2 3.9-1.3 8.1-.8 12.3.5-.9 1.3-1.6 2.5-2 1-.4 1.9-.8 2.8-1.3C350.6 317 350.5 316.2 350.2 315.4zM343.3 283.5c-6.2-16.3-4.4-39.6 6.8-54-3.1-1.2-6.5-1.5-9.9-1.4-7.1.3-14.3 1-21.4 1.2-32.8 1.2-65.7.5-98.6 1.7-59.8 2.2-119.5 6.8-179.4 7.7 4.9 10.7 7.2 23.3 3.6 34.3-1.9 5.6-4.1 11.1-6.2 16.7-.9 2.3-1.9 4.7-2.6 7-.3.8-.5 1.7-.7 2.5 0 .1 0 .1 0 .1.1 1-.2 1.9-.6 2.7 51.5-5.7 103.6-4.8 155.3-7.4 15.1-.7 30.3-1.1 45.4-.9 12.6.2 25.6 0 38.1 1.8 9.7 1.4 19.3 3.3 29 4 6.9.5 14.9.9 21.6-1.5.4-1.8 1.8-3.2 4.3-3.2h.2c.3-2.1 1.7-4.1 4.3-4.5 4.4-.7 8.4-2.4 12-4.8C344.1 285 343.6 284.3 343.3 283.5zM361.8 429.2c-5-7.3-7.5-16.3-9.1-24.9-2-10.9-2.6-29.4 6.7-36.4-6.2-1.8-12.8-1.9-19.2-1.4-9.8.7-19.5 2.4-29.3 3.5-12.9 1.4-25.9.8-38.9 1.5-32.3 1.6-64.3 5.5-96.5 7.5-20.5 1.3-41.1 1.2-61.7 1.1 3 3.2 5.1 7.6 6.7 12.2 32.2-.1 64.5-1.4 96.5-4.2 18.9-1.7 37.9-3.1 56.8-4.6 18.2-1.5 35.7-7.5 54.1-6.1 6.4.5 4.4 10.3-1.9 9.8-18.4-1.4-36.8 5-55.1 6.5-18.2 1.5-36.5 2.9-54.8 4.5-31 2.6-62.2 3.9-93.3 4.1.6 3.4 1 6.7 1.2 9.8.5-.1 1-.2 1.5-.2 18.3 0 36.7-.4 55-1.4 18.2-1 36.9-1.9 54.9-5 16.1-2.8 32.3-4.1 48.5-6 5.4-.7 10.8-.9 16.2-1.4 2.9-.3 8.5-.3 10.4-1.9 5-4.1 10.5 4.2 5.6 8.3-3.3 2.7-8.8 2.9-12.9 3.3-5.5.6-11.1.8-16.7 1.4-16.2 1.8-32.5 3.2-48.6 5.9-18.7 3.2-37.9 4.3-56.8 5.3-18.3 1-36.6 1.3-55 1.4-.6 0-1.1-.1-1.6-.2.2 4.2.5 8.4.7 12.6 17.5-.5 35-2.2 52.4-4.2 19.8-2.2 39.6-4 59.3-6.8 19.2-2.8 39-6.8 58.5-6.9 5.6 0 11.3-.1 16.9-.7 2.3-.3 10.4-.8 11.5-2.5 3.3-5.5 12.3-1.1 9 4.4-5.7 9.4-22.6 8.5-32 8.7-18.5.3-36.9 3.1-55.2 5.8-21.7 3.2-43.4 5.2-65.2 7.7-17.4 2-34.8 3.8-52.3 4.4 1 .5 1.9 1.3 2.4 2.2 19 .1 37.9.5 56.9 0 19.9-.5 39.6-2.5 59.4-4.2 10-.9 20.1-1.9 30.1-2.8 8.8-.8 17.7-2.1 26.5-2 5.9.1 11.9.3 17.9-.2 2.7-.2 10.3-.3 11.7-3 2.8-5.8 11.8-1.4 9 4.4-5.1 10.4-23.2 9-32.8 8.9-18-.2-36.1 2.4-54.1 4.1-21.6 2-43.2 4.3-64.9 4.8-20.7.5-41.5 0-62.2 0 .3 1.2.6 2.3 1 3.5.8 2.2 2.1 4.8 3.2 6 53.8.1 107.8 2.9 161.5-2.6 13.9-1.4 27.8-3.3 41.6-6 8.6-1.7 16.4-5.1 23.3-10.5 1.1-5 4.1-9.4 7.3-13.4C364.3 432.3 362.9 430.8 361.8 429.2z"/><path fill="none" d="M452.1 304.4c-.3-9.6-1.9-17.2-9.3-24-5.4-5-14.2-11-21.5-6.5-2.5 1.5-5 .6-6.5-1.1-8.3 7.6-17.3 14.4-26.1 21.5-7.4 6-12.9 12.8-19.1 19.8-3.1 3.5-6.4 6.8-10.1 9.6-2.2 7.5-7.7 13.2-15.1 17.1-11.2 5.9-23.3 6.3-35.7 6.6-16.3.4-32.7.1-49 1.3-15.7 1.2-31.4 3.6-47 5.8-15.8 2.2-31.7 4.5-47.6 6.2-15.6 1.6-31.2 2.4-46.9 3.6-7.9.6-15.9 1.2-23.8 1.5-3.2.1-6.5.1-9.8.1 1.2 1.1 2.1 2.4 2.6 3.9 28.5.2 57.1 1.1 85.5-.7 30.9-1.9 61.7-5.7 92.6-7.4 13.7-.7 27.6-.1 41.3-1.4 9.4-.9 18.6-2.6 28-3.5 17.4-1.6 37.6-.3 48 16.1 6.6 10.4 8.9 22.8 7.7 35 3.8-3.9 7.4-7.9 11-12.2 8.1-9.8 16.9-19.1 25.2-28.7 8-9.2 16.7-18.5 20.7-30.1C450.9 326.6 452.5 315.3 452.1 304.4zM237.8 303.7c-14.5-.2-29 0-43.5.6-52.3 2.4-105 1.7-157.1 7.3-.1.2-.3.4-.4.6 0 .1 0 .2-.1.3 20.7-.9 41.1 3.8 61.8 3.7 11.2 0 22.4-.8 33.7-1.4 11.2-.6 22.5-.3 33.7-1.1 22.7-1.7 45-6 67.8-7.2 11.7-.6 23.6-.4 35.3-1.4C258.6 304 248.2 303.9 237.8 303.7z"/><path fill="none" d="M380.3 395.9c-.8-6.4-2.9-13.5-6.9-18.8-2.4 1.7-6.3 1.3-7.5-1.5-2.1 1-3.3 3.4-3.9 6.7-1.4 6.7-.7 13.7.5 20.3 1.2 6.2 2.9 12.9 6.1 18.4.7 1.2 1.3 2.3 2.2 3.3 0 0 .5.4.8.7.9-.9 1.8-1.3 2.8-1.4.9-1 1.9-1.9 2.9-2.9C380.2 412.9 381.4 404.4 380.3 395.9zM337 331.7c-1.8-9-2.7-18.2.1-27-.9-.2-1.7-.6-2.4-1.1-.1.1-.3.2-.5.3-10.4 6.9-23.7 7-36.7 5.5-.5.5-1.2.9-2 1.1-19.4 5.7-39.8 4.9-59.7 5.9-22.6 1.2-44.9 5.4-67.4 7.1-11.8.9-23.7.7-35.6 1.3-11.2.6-22.4 1.4-33.7 1.4-16.7-.1-33.3-3-49.9-3.7 2.1 4.3 3.4 9 3.1 13.8-.3 6.3-2 12.1-4.1 17.9 4 2.1 7.6 4.4 12.5 3.8 6-.7 11.6-1.7 17.7-1.8 15.4-.2 30.8-1.3 46.2-2.5 15.8-1.3 31.5-2 47.3-3.9 15.2-1.8 30.4-4 45.6-6.1 15.7-2.2 31.4-4.6 47.2-5.4 16.3-.8 32.7-.5 49-1.1 7.6-.3 16.4-.7 23.8-3.9C337.4 332.8 337.2 332.3 337 331.7zM118.8 460.2c-1.4 1.1-2.7 2.2-4 3.4 0 0-.1.1-.1.1-.1 1-.5 2-1.4 2.9l-1.3 1.3c3.2.7 6.6.6 9.9.5C120.5 465.9 119.5 463.1 118.8 460.2z"/><path fill="#231F20" d="M460.2,288.7c-4.2-13.7-20.5-27.5-35.5-26c0.1-0.1,0.2-0.3,0.4-0.4c7.6-8.9,14.8-19.1,17.8-30.5c2.8-10.8-2.5-19-11.9-22.6c1.4-2.1,2.7-4.3,4-6.5c2.2-0.6,3.5-3,3.5-5.2c0.1-9.2,1.8-18.3,0.9-27.5c-0.9-9.8-6-16.3-12.4-23.2c-8.7-9.5-24.1-10.5-36.8-7c7.2-6.9,14-14,17.5-23.9c6.9-19.5,4-44.3-7.4-61.6c-20-30.2-62.9-35.1-95.9-36.3c-17.5-0.6-34.9,0.2-52.3,1.3c-9.6,0.6-19.3,1.4-28.9,1.9c-15.4,0.8-31.7,0-46.9,3.1c-12.3,2.5-22.5,9.7-32.7,16.6c-11.4,7.6-24,13.4-36.2,19.8c-24,12.6-48.1,26.1-67.5,45.3c-0.8,0.8-1.3,1.7-1.4,2.6c-2.5,2.7-0.9,8.7,4,8.7c3.1,0,6.2-0.1,9.3-0.2c0.9,1.2,2.3,2,4.2,1.7c4.8-0.6,10.8,1.9,10.1,7.6c0-0.1-0.2,0.2-1.1,0.5c-1,0.4-2,0.8-3,1.3c-2.5,1.2-4.4,3-5.3,5.7c-1.8,5.5-0.3,10.4,2.2,15.4c2.4,4.9,3.6,8.8,0.6,13.4c-1.5,2.2-2.2,4.6-3.2,7c-0.3,0.7-1.4,1.9-1.7,3.1c-1,5.3,2.8,9.8,6.9,12.5c5,3.3,4,7.2,2.9,12.5c-0.6,2.9-0.4,5.5,0.4,7.9c-5.8-0.3-11.7-0.6-17.5-0.6c-5.1,0-11.3-0.2-17.1,0.7c0,0.1,0,0.2,0,0.3c0.6,2.7,1.1,5.5,1.4,8.3c-3.3,3.9-6.9,7.4-11,10.5c-2.1,1.6-2.6,3.9-2,5.9c-1.9,2.9-0.3,8.2,4.4,8.2c2.3,0,4.5,0,6.8,0c6.5,11.3,8,24.3,3.3,36.7c-1.9,5.2-4.1,10.3-5.9,15.5c-1.3,3.6-3.3,7.9-1.2,11.6c0.1,0.1,0.2,0.2,0.2,0.3c-2.3,0.3-4.6,0.6-7,0.9c-6.4,0.9-5.6,10.8,0.8,10c1.9-0.3,3.8-0.5,5.7-0.7c0,0.7-0.1,1.4-0.1,2.1c0,1.9,1.3,3.5,2.9,4.4c0.6,1.9,2.3,3.5,4.9,3.3c1.4-0.1,2.9-0.2,4.3-0.3c3,4.4,4.8,9,4.7,14.6c0,5.9-2.8,12-4.9,17.5c-0.9,2.4-0.4,5.6,2.3,6.7c2.9,1.1,5.4,2.8,8.1,4.3c2.5,1.4,5,1.7,7.6,2.4c5.2,1.3,11.3-0.7,16.6-1.4c-0.2,1.7,0.5,3.5,1.8,4.8c0.4,0.4,0.8,0.7,1.1,1c-1.3,3,0.5,7.5,4.8,7.5c1.2,0,2.5,0,3.7,0c-0.2,0.8-0.2,1.7,0.2,2.6c0.8,2.4,3.9,4.2,6.4,3.1c2.2-1,4.3-1.2,6.6-1.2c0.4,0,0.8,0,1.2,0c0.2,0,0.4,0,0.5,0c6.8-0.5,10,3.5,12.3,10c3.3,9.3,3.6,19.7,4.2,29.4c0.2,3.8,0.4,7.6,0.6,11.4c-2.8,1.8-2.4,6.7,0.6,8.5c0.2,2,0.4,4,0.6,6c-3.2,2.4-6.6,4.7-9.5,7.5c-1,0.9-1.4,2-1.4,3c0,0,0,0-0.1,0c-2,2-4,4-6,6c-1.8,1.8-1.6,5.5,0.5,7.1c4.6,3.5,9.5,4.9,15.2,5.2c5.6,0.3,12-0.9,17.3,1.5c3.6,1.6,6.6-1.1,7.1-4c61,0.3,122.4,3.3,182.9-6.3c12.5-2,24.5-4,35.5-10.5c9.4-5.6,16.9-14,22.7-23.3c1.8-2.9,3.4-6.1,4.7-9.3c4.5-4.4,9.1-8.7,13.6-13.1c7.8-7.6,14.2-16.7,21.5-24.8c9.6-10.8,19.4-21.3,27.9-33c6.8-9.3,10.2-20.5,12.1-31.8C462.6,312.7,463.5,299.5,460.2,288.7z M433.5,223.8c0.8,4.1-1,8.3-2.6,11.9c-4,8.7-10.2,16.5-16.6,23.6c-10.4,11.4-23.4,20.2-35.2,30c-7.2,5.9-12.8,14.8-19.6,21.6c-2.2-6.5-8-11.7-14.5-14.3c3.8-1.9,7.3-4.3,10.4-7.1c1.7,0.7,3.8,0.5,5.4-1.3c20.5-24.2,45.5-44.8,64.3-70.4C428.5,218.5,432.8,219.8,433.5,223.8z M350.6,317.8c-0.9,0.5-1.8,0.9-2.8,1.3c-1.1,0.5-1.9,1.2-2.5,2c-0.4-4.2-0.4-8.4,0.8-12.3c1.8,1.9,3.2,4.2,4,6.6C350.5,316.2,350.6,317,350.6,317.8z M357.8,235.6c3.8,6.1,4.5,15.2,3.7,21.3c-0.9,7.6-4.3,15.4-9.3,21.6C348,265.9,349,246.6,357.8,235.6z M53.4,107c18.5-16.4,40.8-28.2,62.5-39.6c12.1-6.4,24.4-12.3,35.8-20c5-3.3,9.9-6.8,15.3-9.5c6.5-3.2,13.2-4.4,20.3-5c23.7-1.8,47.6-2.6,71.3-4.1c18.1-1.1,36.3-1.7,54.4-0.6c28.2,1.8,63.6,7.2,80.1,33.1c9.8,15.5,11.2,38.9,3.5,55.3c-2.6,5.6-6.7,9.5-11.2,13.7c-5,4.7-9.8,9.5-14.6,14.4c-3.5,3.5-7,7.1-10.4,10.7c0.2-2.2,0.2-4.5,0.1-6.8c-0.7-11.2-4.1-23.1-8.9-33.2c-5.2-10.7-15.2-17.4-26.2-21.2c-28.1-9.8-59.7-3.8-88.5-1.2c-32.3,2.9-64.7,3.5-97.1,5.3C110.8,99.9,82.3,105.6,53.4,107z M349.2,161.9c-0.6-1-1.7-1.8-3.3-2c-1-0.2-1.2-0.3-2.7-1.8c-1.7-1.6-2.9-3.9-4.1-5.9c-3.2-5.5-5.2-11.7-6.6-17.8c-1.2-5.1-1.9-10.8-0.9-16c0.8-4,2.3-5,6.5-4.2c0.1,0,0.2,0,0.4,0.1c3.7,4.5,6.2,10.1,8.2,16.4C349.9,140.6,352.1,151.7,349.2,161.9z M64.8,175.2l-0.1-0.3c1.1-1.8,1.6-4.1,2.5-5.9c1.6-3.2,3.1-5.5,3.8-8.4c0.4,0.1,0.9,0.2,1.4,0.2c46.3,0,92.6-1.4,138.7-5.6c21.9-2,44-2.7,65.8-5.7c8.7-1.2,17.5-2.2,26.2-1.9c2.5,0.1,5.6,0.2,7.6-1.5c2.6-2.1,3-5.5,0.9-8.1c-2.3-2.8-6-2.3-8-0.3c-0.1,0-0.2,0-0.3,0c-1.4,0-2.8-0.1-4.1-0.2c-3.8-0.2-7.2,0.4-10.9,0.8c-9.6,1.1-19.2,2.2-28.8,2.9c-20.3,1.6-40.5,3.3-60.8,5c-42.3,3.5-84.7,4.6-127.2,4.6c-0.6,0-1,0.1-1.5,0.2c-1.6-4.2-4.1-8-4.5-12.4c-0.2-2.1,2.5-2.2,4.4-3.2c1-0.5,1.9-1,2.7-1.7c0.3,0,0.6-0.1,0.9-0.2c38.5-11.8,80.9-6.2,120.4-4c17.5,1,35.1,1.5,52.7,1.4c7,0,14-0.3,20.8-1.5c4.7-0.8,10.8-2.1,13.7-6.3c3.6-5.3-3.9-11.9-7.5-6.6c-2.2,3.2-8.8,3.3-12.4,3.7c-6.6,0.7-13.3,0.7-20,0.7c-18.2-0.1-36.3-0.6-54.4-1.8c-36.6-2.3-75.3-6.2-111.2,3.4c-0.5-2.6-1.7-5-3.3-7c22.7-2.2,45.3-6,68-7.3c32.4-1.9,64.8-2.5,97.1-5.3c15.5-1.3,31-3.3,46.6-3.8c14.2-0.4,28.8,0.4,42,6c0.7,0.3,1.3,0.6,2,0.9c-7.2,5.2-7.7,18.3-5.9,27.6c1.5,8.2,4.3,16,8.2,23.4c2.8,5.2,7.3,11.6,13.6,12.6c0.6,0.1,1.2,0.1,1.7,0c-0.6,0.9-1.2,1.7-1.8,2.5c-0.4,0.4-0.8,0.8-1.2,1.3c-0.4,0.4-0.7,0.8-0.9,1.2c-10.6,11-28.9,15.3-42.8,18.3c-28.1,6-56.8,8.7-85.5,9.8c-16.2,0.6-32.4,0.3-48.6,0.7c-16,0.4-31.9,1.3-47.8,1.9c-13.5,0.6-27.1,1.2-40.7,0.7l-0.1,0c-0.2-0.6-0.6-1.1-1-1.6c-3.1-3.4,0-9.9,0-14.1c0-0.2,0-0.5,0-0.7c0.8,0.6,1.8,1,3.1,1c42.9,0,85.8-3.1,128.6-6.3c33.6-2.6,70.2,2.7,102.1-10.4c5.9-2.4,2.7-11.9-3.3-9.4c-15.3,6.3-32.1,7.5-48.5,8.3c-17,0.8-34.1,0.4-51.1,1.6c-42.8,3-85.6,6.3-128.6,6.3c-2.2,0-3.6,1.2-4.1,2.7c-1.5-2.7-4-5-6.8-6.7C66.1,176.4,65.1,176,64.8,175.2z M35,228.7c-0.4-0.4-0.8-0.7-1.3-0.9c3.3-3.1,6.3-6.4,9-10c0.7-1,1.1-1.9,1.2-2.9c1,0,2,0,2.9,0c9.9,0,19.7,0.7,29.6,1.1c29.1,1.4,58.4-1.7,87.5-2.5c32.3-0.9,64.3-0.4,96.4-4.1c22.6-2.6,47-5.9,68.2-14.7c8-3.3,14.9-7.9,20.3-13.6c0.5-0.2,1-0.6,1.5-1.1c9.5-9.6,18.9-19.4,28.4-29c1.5,1.9,4.1,2.9,6.7,1.3c5.8-3.5,12.9-4.8,19.7-4.4c7.3,0.5,12.2,3.3,17.4,8.1c10.3,9.7,7.1,24.9,6.3,37.9c-0.5,0.4-0.9,0.9-1.2,1.5c-14.4,25.9-36.4,46-57,67.1c0.6-2.5,0.9-5,1.1-7.6c0.6-9.9-2-20.9-8.6-28.5c-0.6-2.2-2.4-4.1-4.6-4c-5.8-3.9-13.1-4.7-20.3-4.4c-15.8,0.7-31.6,1.6-47.5,1.7c-16.5,0.1-33,0.1-49.4,0.5c-33.1,0.8-66.1,2.6-99.2,4.4C106.5,226.6,70.8,228.3,35,228.7z M34.9,299.3c0,0,0-0.1,0-0.1c0.2-0.9,0.4-1.7,0.7-2.5c0.7-2.4,1.7-4.7,2.6-7c2.1-5.5,4.3-11,6.2-16.7c3.6-10.9,1.4-23.6-3.6-34.3c59.8-0.9,119.6-5.5,179.4-7.7c32.9-1.2,65.7-0.5,98.6-1.7c7.1-0.3,14.3-0.9,21.4-1.2c3.4-0.1,6.8,0.2,9.9,1.4c-11.2,14.4-13,37.7-6.8,54c0.3,0.9,0.8,1.5,1.4,2c-3.6,2.4-7.6,4.2-12,4.8c-2.6,0.4-4.1,2.4-4.3,4.5h-0.2c-2.5,0-3.9,1.4-4.3,3.2c-6.8,2.4-14.7,2-21.6,1.5c-9.7-0.8-19.4-2.6-29-4c-12.5-1.8-25.5-1.6-38.1-1.8c-15.2-0.2-30.3,0.1-45.4,0.9c-51.7,2.5-103.8,1.7-155.3,7.4C34.7,301.2,35,300.3,34.9,299.3z M36.7,312.6c0-0.1,0-0.2,0.1-0.3c0.2-0.2,0.3-0.4,0.4-0.6c52.1-5.6,104.9-4.9,157.1-7.3c14.5-0.7,29-0.8,43.5-0.6c10.4,0.1,20.8,0.3,31.2,1.4c-11.7,1-23.7,0.8-35.3,1.4c-22.7,1.2-45.1,5.5-67.8,7.2c-11.2,0.9-22.5,0.6-33.7,1.1c-11.2,0.6-22.4,1.3-33.7,1.4C77.8,316.3,57.4,311.6,36.7,312.6z M78.5,356.3c-6,0.1-11.7,1.1-17.7,1.8c-4.9,0.6-8.6-1.7-12.5-3.8c2.1-5.8,3.8-11.6,4.1-17.9c0.3-4.8-1-9.5-3.1-13.8c16.7,0.6,33.2,3.6,49.9,3.7c11.2,0,22.5-0.8,33.7-1.4c11.9-0.6,23.7-0.4,35.6-1.3c22.6-1.7,44.8-6,67.4-7.1c20-1,40.3-0.2,59.7-5.9c0.8-0.2,1.5-0.6,2-1.1c12.9,1.5,26.3,1.4,36.7-5.5c0.2-0.1,0.3-0.2,0.5-0.3c0.7,0.5,1.5,0.9,2.4,1.1c-2.8,8.8-1.9,18-0.1,27c0.1,0.6,0.3,1.2,0.6,1.6c-7.4,3.2-16.2,3.7-23.8,3.9c-16.3,0.6-32.7,0.3-49,1.1c-15.8,0.8-31.5,3.2-47.2,5.4c-15.2,2.1-30.3,4.3-45.6,6.1c-15.7,1.9-31.5,2.6-47.3,3.9C109.4,355,94,356.1,78.5,356.3z M112,467.9l1.3-1.3c0.9-0.9,1.3-1.9,1.4-2.9c0,0,0.1-0.1,0.1-0.1c1.2-1.2,2.6-2.3,4-3.4c0.8,2.9,1.8,5.7,3.2,8.2C118.7,468.4,115.2,468.6,112,467.9z M358.5,446.7c-6.8,5.4-14.7,8.8-23.3,10.5c-13.8,2.7-27.7,4.6-41.6,6c-53.6,5.5-107.7,2.7-161.5,2.6c-1.1-1.2-2.4-3.8-3.2-6c-0.4-1.1-0.7-2.3-1-3.5c20.7,0,41.5,0.5,62.2,0c21.7-0.5,43.3-2.8,64.9-4.8c18-1.7,36-4.3,54.1-4.1c9.5,0.1,27.7,1.6,32.8-8.9c2.8-5.8-6.1-10.2-9-4.4c-1.4,2.8-9,2.8-11.7,3c-5.9,0.5-11.9,0.3-17.9,0.2c-8.8-0.1-17.8,1.2-26.5,2c-10,0.9-20,2-30.1,2.8c-19.8,1.7-39.5,3.7-59.4,4.2c-19,0.5-37.9,0.1-56.9,0c-0.5-0.9-1.4-1.7-2.4-2.2c17.5-0.6,34.9-2.4,52.3-4.4c21.8-2.5,43.5-4.5,65.2-7.7c18.3-2.7,36.7-5.5,55.2-5.8c9.4-0.2,26.3,0.7,32-8.7c3.4-5.5-5.6-9.9-9-4.4c-1,1.7-9.1,2.2-11.5,2.5c-5.6,0.6-11.2,0.7-16.9,0.7c-19.5,0.1-39.2,4.1-58.5,6.9c-19.7,2.8-39.5,4.6-59.3,6.8c-17.4,2-34.9,3.8-52.4,4.2c-0.3-4.2-0.5-8.4-0.7-12.6c0.5,0.1,1,0.2,1.6,0.2c18.3,0,36.7-0.4,55-1.4c18.9-1,38.1-2.1,56.8-5.3c16.1-2.8,32.4-4.2,48.6-5.9c5.5-0.6,11.1-0.9,16.7-1.4c4-0.4,9.6-0.6,12.9-3.3c5-4.1-0.6-12.4-5.6-8.3c-1.9,1.5-7.5,1.6-10.4,1.9c-5.4,0.5-10.8,0.8-16.2,1.4c-16.2,2-32.4,3.3-48.5,6c-18,3.1-36.7,4-54.9,5c-18.3,1-36.6,1.3-55,1.4c-0.6,0-1.1,0.1-1.5,0.2c-0.3-3.1-0.7-6.4-1.2-9.8c31.1-0.1,62.3-1.5,93.3-4.1c18.2-1.5,36.5-3,54.8-4.5c18.3-1.5,36.7-7.9,55.1-6.5c6.4,0.5,8.3-9.3,1.9-9.8c-18.4-1.4-36,4.6-54.1,6.1c-18.9,1.6-37.9,3-56.8,4.6c-32.1,2.8-64.4,4.1-96.5,4.2c-1.5-4.7-3.7-9-6.7-12.2c20.6,0.2,41.1,0.2,61.7-1.1c32.2-2,64.3-6,96.5-7.5c12.9-0.6,26-0.1,38.9-1.5c9.8-1.1,19.5-2.8,29.3-3.5c6.4-0.4,13-0.3,19.2,1.4c-9.4,6.9-8.8,25.4-6.7,36.4c1.6,8.6,4.2,17.6,9.1,24.9c1.1,1.6,2.5,3.1,4,4.1C362.6,437.3,359.7,441.7,358.5,446.7z M377.2,420.9c-1,1-1.9,1.9-2.9,2.9c-1,0.1-1.9,0.5-2.8,1.4c-0.3-0.3-0.8-0.8-0.8-0.7c-0.8-1-1.5-2.2-2.2-3.3c-3.1-5.5-4.9-12.2-6.1-18.4c-1.2-6.6-1.9-13.7-0.5-20.3c0.7-3.3,1.8-5.7,3.9-6.7c1.2,2.8,5,3.2,7.5,1.5c4,5.4,6.1,12.4,6.9,18.8C381.4,404.4,380.2,412.9,377.2,420.9z M447.3,336.8c-4.1,11.7-12.8,21-20.7,30.1c-8.4,9.6-17.1,18.9-25.2,28.7c-3.6,4.3-7.2,8.3-11,12.2c1.2-12.2-1.1-24.6-7.7-35c-10.3-16.4-30.5-17.7-48-16.1c-9.4,0.9-18.6,2.6-28,3.5c-13.7,1.3-27.6,0.7-41.3,1.4c-30.9,1.7-61.7,5.4-92.6,7.4c-28.5,1.8-57,0.9-85.5,0.7c-0.5-1.5-1.4-2.8-2.6-3.9c3.3,0,6.5,0,9.8-0.1c8-0.3,15.9-0.9,23.8-1.5c15.6-1.2,31.3-2,46.9-3.6c15.9-1.7,31.7-3.9,47.6-6.2c15.6-2.2,31.2-4.7,47-5.8c16.3-1.2,32.7-0.9,49-1.3c12.4-0.3,24.5-0.7,35.7-6.6c7.3-3.9,12.9-9.5,15.1-17.1c3.7-2.7,7-6,10.1-9.6c6.2-7.1,11.7-13.9,19.1-19.8c8.8-7.1,17.8-13.9,26.1-21.5c1.5,1.7,4,2.6,6.5,1.1c7.4-4.5,16.2,1.5,21.5,6.5c7.3,6.7,8.9,14.4,9.3,24C452.5,315.3,450.9,326.6,447.3,336.8z"/></svg>