<svg xmlns="http://www.w3.org/2000/svg" viewBox="0 0 512 512" width="48px" height="48px"><path fill="#EF4823" d="M263.8,56.1c2.7,1.9,5.4,3.9,8,5.9c1,0.8,1.6,1.7,1.8,2.6c5.4-4.7,10.9-9.3,16.7-13.5C281.3,50.8,272.3,52.9,263.8,56.1z"/><path fill="#D6E5E5" d="M351.7,346.8c-2.8-25.7-3-51.5-4.5-77.3c-1.8-32.5-4-65-5-97.5c0-0.1,0-0.2-0.1-0.3c-2.2-15.1-9.6-30.3-17.4-43.3c-6.9-11.4-16.8-27.5-30.6-31.2c-0.7-0.2-1.3-0.5-1.8-0.8c-5.6,4.4-11.2,8.9-16.8,13.4c-5.3,4.3-10.8,8.4-16.9,11.5c-0.3,2.1-1.7,3.5-3.5,4c-0.4,0.5-0.7,1-1.1,1.5c-1,1.3-2,2.6-3.1,3.8c-2.6,2.6-5.3,5.5-8.5,7.4c-7.7,4.4-16.7,6.1-25.2,3c-13.6-5-15.5-20.9-11.8-33.2c3.6-11.9,10.7-20.9,20.9-27.9c9-6.1,22.7-10.1,28,1.4c3.6-2.8,7-5.7,10.3-8.6c0.5-0.4,1-0.9,1.5-1.3c-0.5-0.2-1.1-0.5-1.6-0.9c-7.6-6-16.1-12.3-26.1-13.4c-8.5-1-17.1,1.5-25,4.5c-15.8,5.9-30.4,14.9-43.4,25.5c-24.4,19.6-51.4,50.1-47.8,83.9c0.2,1.9-0.4,3.3-1.5,4.3c0,0.1,0,0.1,0,0.2c-1.9,39.5,2,78.9,4.4,118.2c1.9,31.2,1.2,62.1,1.2,93.3c0,18.1,0.4,37.1,7,54.2c6.6,17,19.8,28.7,37.7,32.7c15.3,3.4,31.3,3,46.8,1.9c16-1.2,32.3-4.1,48.3-3.9c23.7,0.3,51.9,4.7,71.4-12.2c14-12.2,17.6-32.9,18.2-50.4C356.5,388.2,354,367.5,351.7,346.8z"/><path fill="#EF4823" d="M445.8,136.7c-5.3-3-11.2-4.1-17-5.4c-11.8-2.7-23.8-5.6-35-10.5c-12.1-5.4-23.6-13.2-33.5-22c-9.7-8.7-18-18.8-30.1-24.5c-0.5-0.2-0.8-0.5-1.2-0.7c-4.2,1.8-8.2,3.8-12.1,6c7.6,2.1,14.7,5.7,21.3,10.4c20.8,14.4,34.9,36.2,55.7,50.3c9.7,6.5,21.8,11.8,33.8,10.6c6.3-0.6,17.1-3,20.3-9.4C449,139.6,448.3,138.2,445.8,136.7z"/><path fill="#EF4823" d="M400.8,38.8c-17.9-8.8-41.3-4.7-59.5,0.5c-12.2,3.5-24.3,8-35.2,14.4c-9.7,5.7-18.3,12.8-26.7,20.3c-16.3,14.6-35.3,33-58.8,32.2c-1.1,0-2-0.3-2.8-0.8c-0.5,1.2-1,2.5-1.4,3.8c0.1,0,0.1,0.1,0.2,0.1c13.6,6.9,27.2,8.6,40.6,0.2c13.2-8.3,24.3-19.7,37.1-28.6c12.1-8.4,24.9-16.3,39-20.9c14.4-4.6,28.8-5.4,43.9-5.3c8,0.1,17.1,0.7,24.6-2.6C409.4,48.8,407.3,42,400.8,38.8z"/><path d="M457.5,132.9c-5.5-9.4-20.3-11-29.7-13.2c-11.9-2.8-23.5-5.9-34.4-11.4c-11.2-5.6-21.4-13.6-30.4-22.2c-6.5-6.2-12.8-12.5-20.2-17.5c10.5-2.7,21.3-3.3,32.1-3c8.6,0.2,17,0.2,25.5-1.6c8.5-1.8,16.7-7.5,17.4-16.7c0.7-9.3-6.1-15.6-14-19.2c-12.9-5.9-28.2-5.7-42-4.1c-19.2,2.3-38.4,8.4-55.6,17.2c-0.9,0.5-1.8,1-2.7,1.5c-0.7-0.7-1.6-1.2-2.7-1.4c-15.3-3.1-30.8,0.1-44.9,6.2c-1.3,0.6-2.2,1.5-2.8,2.5c-2.7-1.2-5.5-2.3-8.5-3.1c-9.8-2.6-20-0.6-29.4,2.3c-17.8,5.4-34.4,15.5-49.1,26.8c-28.5,21.9-58.9,56.9-54.8,95.6c0,0.2,0.1,0.5,0.1,0.7c-0.9,0.9-1.5,2.2-1.6,3.8c-1.5,32.4,0.7,64.7,3,97c2.1,30,3.4,59.9,2.9,90c-0.5,34.6-4.4,77.1,21.4,104.4c16.4,17.3,41.5,19.9,64,19.8c16.4-0.1,32.6-2.1,48.9-3.5c13.7-1.2,27-0.7,40.7-0.5c23,0.3,47.6-4.4,61.9-24.1c11.6-16,14-36.8,14.3-56c0.5-29.8-5.4-59.2-6.4-88.9c-1.7-48.4-5.8-96.6-7.2-145c0-1-0.3-1.9-0.7-2.6c-3.1-15.7-10.5-30.9-18.6-44.5c-7.4-12.6-17.6-27-31.3-33.5c0.2-0.2,0.4-0.3,0.7-0.5c25.2,0.5,44.5,23,60.6,39.8c16.8,17.6,38.1,34.8,63.8,33.7C440.5,161.2,467.6,150.2,457.5,132.9z M290.3,51.1c-5.8,4.2-11.3,8.8-16.7,13.5c-0.3-0.9-0.8-1.8-1.8-2.6c-2.6-2.1-5.3-4.1-8-5.9C272.3,52.9,281.3,50.8,290.3,51.1z M324.7,128.3c7.8,12.9,15.3,28.2,17.4,43.3c0,0.1,0,0.2,0.1,0.3c1,32.5,3.2,65,5,97.5c1.5,25.8,1.7,51.6,4.5,77.3c2.3,20.7,4.8,41.4,4,62.3c-0.6,17.6-4.2,38.3-18.2,50.4c-19.5,16.9-47.7,12.5-71.4,12.2c-16.1-0.2-32.3,2.7-48.3,3.9c-15.5,1.1-31.6,1.6-46.8-1.9c-17.9-4-31.1-15.8-37.7-32.7c-6.6-17.1-7-36.1-7-54.2c0-31.2,0.8-62.1-1.2-93.3c-2.4-39.4-6.3-78.7-4.4-118.2c0-0.1,0-0.1,0-0.2c1.1-1,1.7-2.4,1.5-4.3c-3.6-33.7,23.4-64.3,47.8-83.9c13.1-10.5,27.7-19.5,43.4-25.5c7.9-3,16.5-5.5,25-4.5c10,1.1,18.5,7.4,26.1,13.4c0.5,0.4,1,0.7,1.6,0.9c-0.5,0.4-1,0.9-1.5,1.3c-3.3,2.9-6.7,5.8-10.3,8.6c-5.2-11.5-19-7.5-28-1.4c-10.3,7-17.4,16-20.9,27.9c-3.7,12.3-1.7,28.1,11.8,33.2c8.5,3.2,17.5,1.5,25.2-3c3.2-1.9,5.9-4.8,8.5-7.4c1.2-1.2,2.1-2.4,3.1-3.8c0.4-0.5,0.7-1,1.1-1.5c1.8-0.5,3.2-1.9,3.5-4c6-3.1,11.6-7.3,16.9-11.5c5.6-4.5,11.1-9,16.8-13.4c0.5,0.4,1.1,0.6,1.8,0.8C308,100.9,317.9,116.9,324.7,128.3z M245,87.7c-6.2,3.7-12.8,6.5-19.9,7.3c1-1,2.1-2,3.3-3c3.4-2.9,7.2-5.6,11.4-7.1c3.2-1.2,4.2-0.7,5.1,2.6C245,87.6,245,87.6,245,87.7z M215,120.7c7.6,3.5,15.6,5.8,23.8,5.7c-3.7,2.9-7.2,5-12.9,5.1C218.4,131.6,215.5,126.6,215,120.7z M294.3,80.8c-12.8,9-23.9,20.3-37.1,28.6c-13.3,8.4-26.9,6.7-40.6-0.2c-0.1,0-0.1-0.1-0.2-0.1c0.4-1.3,0.9-2.6,1.4-3.8c0.8,0.5,1.7,0.8,2.8,0.8c23.6,0.8,42.5-17.6,58.8-32.2c8.4-7.5,17-14.6,26.7-20.3c10.9-6.4,23-10.9,35.2-14.4c18.2-5.2,41.6-9.3,59.5-0.5c6.5,3.2,8.6,10,0.9,13.3c-7.5,3.3-16.6,2.7-24.6,2.6c-15-0.2-29.4,0.7-43.9,5.3C319.2,64.5,306.3,72.4,294.3,80.8z M448.1,141.3c-3.2,6.3-14,8.8-20.3,9.4c-11.9,1.2-24.1-4-33.8-10.6c-20.9-14.1-35-35.9-55.7-50.3c-6.7-4.6-13.8-8.2-21.3-10.4c3.9-2.2,7.9-4.2,12.1-6c0.3,0.3,0.7,0.5,1.2,0.7c12,5.7,20.3,15.8,30.1,24.5c9.9,8.9,21.4,16.6,33.5,22c11.1,5,23.1,7.8,35,10.5c5.9,1.4,11.7,2.5,17,5.4C448.3,138.2,449,139.6,448.1,141.3z"/></svg>