<svg xmlns="http://www.w3.org/2000/svg" viewBox="0 0 512 512" width="48px" height="48px"><path fill="#14B6B9" d="M327.6 164.6c-6.4-1.1-13.2-.6-19.7-.5-5.5.2-11 .1-16.5.4-12.5.8-29.5 2.6-33.7 15 10.6-4.1 21.6-6.9 32.9-8.2 14.9-1.7 29.9-.6 44.3 2.9C334.7 169.7 333.5 165.6 327.6 164.6zM262.1 298.8C262.1 298.8 262.1 298.7 262.1 298.8 262.1 298.7 262.1 298.7 262.1 298.8zM261.3 299.5c.4-.4.7-.6.8-.7 0 0 0 0 0 0C261.8 299 261.6 299.3 261.3 299.5zM500.6 93.6c-5.7-4-13-6.1-19.6-7.9-9.2-2.5-18.2-2.9-27.7-2.7-15.5.4-30.9 2.3-46.2 4.8-12.1 2-24.1 4.3-36.1 6.5 14.1 1 28.3 1.9 42.4 3.5 25.3 2.9 53.7 9 78.6 1 2.7-.9 7.6-2 10.1-4C501.6 94.4 501.1 93.9 500.6 93.6zM260.1 98.7c-15.6-2.3-31.5-4-47.2-4.7-16.1-.7-31.9-1.7-47.8-4.4-8.1-1.4-16.3-2.9-24.5-3-4.4 0-9.7-.1-13.6 2.5-5.7 3.8-5.2 10.6-1.3 15.7 6.7 8.9 19.6 12.4 30.3 12.7 14.2.4 28.1-2.6 41.9-5.4 25.9-5.2 52.1-8.1 78.3-10.5C270.8 100.5 265.4 99.5 260.1 98.7zM300.9 98.1c-3.1-.2-5.2 3.1-6.4 6.3 2.4 1.1 4.2 2.9 5.6 5.1 2.7-.7 5.3-2.3 6.2-4.3C307.6 102.2 303.8 98.3 300.9 98.1zM294.7 128.9c-.2-.6-.3-1.3-.5-1.9-.2 1.6-.3 3.2-.5 4.6-.8 8.3-2.7 15.7-7.4 22.3 1.4-.1 2.8-.2 4.2-.3 5.7-.3 11.4-.5 17.1-.5C305.8 144 297.2 137.6 294.7 128.9z"/><path fill="#D6E5E5" d="M424,280.6c-0.1-1-0.5-2.2-1-3.3c-1.4-3.2-3.7-6-5.9-8.7c-5.4-6.5-11.7-12.4-18.1-17.9c-7.1-6.2-14.7-11.6-22-17.5c-6-4.8-11.8-9.7-17.5-14.8c-3.6-3.3-7.1-7.8-11.9-9.5c-0.6,0.3-1.3,0.6-2.1,0.6c-15.3,1.8-16.6,23.7-15.5,35.4c1.5,17.1,8.8,35.2,27.5,38c6,0.9,11.7,0.4,17.8,0.2c7.5-0.2,15,0.3,22.5,0.4c4.8,0,9.7,0.5,14.5,0.4c2.9,0,8.9,0.5,11.1-2C424.2,281.2,424.1,281.5,424,280.6z"/><path fill="#BCBCBC" d="M464.5,301.8c-12.5-26-30.8-49-51.8-68.7c-20.6-19.4-45-37.5-72.4-46c-52.8-16.3-106.9,7.5-142,47.7c-0.9,1-1.9,1.5-2.9,1.8c-5,4.4-8.8,9.9-14.8,13.2c-5.1,2.9-11,4.4-16.8,5.4c-7.6,1.3-15.1,3.8-22.8,5c-7.2,1.1-14.4,2-21.7,2.6c-6.9,0.5-13.6,1.6-20.5,2.3c-5.9,0.6-12.4,0.8-17.9-1.6c-10.9-4.8-17.6-17-24.2-26.3c-2-2.8-7.1-10.4-11.3-9.8c-4.8,0.7-10,6.6-13,9.9c-3.4,3.9-3.6,4.7,0.4,8.1c4.7,3.8,9.3,7.3,13.4,11.8c14.5,16.1,15.7,36.5,14.6,57c2.6-0.2,5.3-0.5,8-0.6c0.3-2.3,1.8-4.6,4.8-5c5.1-0.8,9.6,1.4,14.3,2.8c6.4,1.8,12.9,1.5,19.4,1.3c9-0.2,17.9-0.9,26.8-2c18.2-2.2,38.7-5.7,56.5,0.9c6.8,2.5,12.9,6.8,16.4,13.3c3.3,6.3,5.5,13,7.8,19.7c3.8,10.9,8.5,26.8,22.8,25c1-0.1,1.8,0,2.6,0.3c31.8,0.6,63.6-0.6,95.4-1.4c15.2-0.4,30.6-1.4,45.8-0.5c9.1,0.5,18.1,1.4,27.2,1.9c18,1.1,41,2.6,56.8-7.8C488.2,347.1,473.5,320.5,464.5,301.8z M319,348.2c-6.2,5.3-16.4,5.4-24.1,5.7c-9.2,0.3-17.9,1.2-27,2.6c-10.2,1.6-21.5,3.1-31.1-1.7c-2.7-1.4-3.4-3.9-2.7-6.2c-1.6-0.7-2.9-2.1-3.3-4.3c-1.7-10-1-20.1-1.8-30.2c-0.4-4.1-1.4-8.3-2-12.5c-0.8-5.8-4.5-22.3,5.4-22.2c-1.2-2.7-0.5-5.9,3.2-6.7c14.4-3.1,28.9-4,43.5-4.6c9.7-0.4,23.8-3.5,31.7,4.2c6.6,6.5,7.6,15.8,8.6,24.5c1.1,8.8,4.1,17.3,5.3,26.2C325.5,331.3,326.1,342.1,319,348.2z M432.2,288.7c-6.5,7-17.3,6.4-26.1,5.9c-6.2-0.3-12.4-0.4-18.6-0.5c-7-0.2-13.9,0.5-20.9,0.4c-9.3-0.1-18.8-1.4-26.8-6.7c-15.2-9.9-21.1-31.1-20.9-48.3c0.1-17,5.5-38,24.9-40.9c1.1-0.9,2.6-1.4,4.4-1.1c5.8,1.2,10.3,4.6,14.5,8.6c4.3,4.1,8.7,8,13.3,11.8c8.2,6.9,17,12.9,25.1,19.8c10.8,9.1,23.1,19.1,30.1,31.6C434.5,275.1,437.4,283.1,432.2,288.7z"/><path fill="#14B6B9" d="M313.3,322.4c-1.2-7.5-3.8-14.9-4.8-22.4c-0.7-5.6-0.4-15.5-5.2-19.6c-3-2.5-6.9-2.2-10.5-2c-6.2,0.3-12.4,0.5-18.6,0.8c-11.8,0.6-23.6,1.3-35.1,3.8c-0.5,0.1-1.1,0.1-1.5,0.1c0.3,1.5,0,3.1-0.9,4.5c0,0.7,0,1.4,0,2.1c0.1,1.9,0.3,3.8,0.5,5.7c0.5,3.9,1,7.9,1.7,11.8c0.7,3.9,1.2,8.1,1.3,13.2c0.2,7.7,0.2,15.3,1.5,22.9c0.1,0.6,0.1,1.1,0.1,1.5c8,3.9,18.3,1.7,26.6,0.3c7.4-1.2,14.6-2.1,22.1-2.3c6.1-0.1,15.8,0.8,21.1-2.9C316,336.9,314,326.9,313.3,322.4z M286.7,328.4c0-2.7-0.2-5.3-0.5-7.9c-6.9,0.1-13.8,0.6-20.7,0.9c0.6,2.2,1.2,4.4,1.8,6.7c0.8,0.8,1.4,2,1.4,3.5v3c0,7.1-9.9,7.8-11,0.8c-1.2-7.3-4.2-16-5.7-23.9c-1.3-6.8-3.1-16.1,3.1-21.1c5.2-4.2,10.9,3.7,7,8.3c0,0,0,0-0.1,0.1c-0.1,0.2-0.3,0.6-0.3,1.2c0,1.5,0.1,3,0.2,4.4c0.2,2,0.6,4,0.9,5.9c7.1-0.2,14.3-0.8,21.4-0.9c-1.1-5-2.6-9.9-4.4-14.7c-2.4-6.7,8-10.3,10.4-3.6c4.2,11.7,7.1,23.9,7.3,36.4C297.8,334.6,286.8,335.5,286.7,328.4z"/><path fill="#FEBF10" d="M504.7,408.8c-0.7,6.9-2.8,13.8-7.3,17.8c-7.9,7-17.6,7.3-27.4,9.6c-14.4,3.4-29.8,4.5-44.5,5.8c-14.3,1.2-28.6,1.9-43,2.2c-56.5,1.2-112.9-3.1-169.4-2.8c-0.8,1-2,1.8-3.5,2c-7.8,1.3-15.3-1.7-23-1.4c-4,0.2-12.4,3.8-8.3,9c3.3,4.2,9.7,6.3,14.8,7.1c4.1,0.6,8.3,0.1,12.4,0.1c5.2,0,10.4,0,15.6,0.2c32.4,1,64.8,2.8,97.2,2.1c16.2-0.4,32.5-1.1,48.7-1.9c15.8-0.8,31.7-1.1,47.5-2.1c15.5-1,31-1.9,46.5-2.7c11.4-0.6,26.1-1.6,34.5-10.5C503,435.4,509.6,419.4,504.7,408.8z"/><path d="M501.6,391.1c-3.7-1.7-8.4,1.1-7.9,5.4c0.6,5.1,0.7,12.1-1.4,17.6c-1.3-2.7-3.1-5.2-4.4-7.8c-5.7-11.4-15.2-21-19.5-33c0,0,0-0.1-0.1-0.1c0.9-0.4,1.7-0.9,2.5-1.4c9-5.2,15.3-13.9,17.4-24c2.6-12.5-2.2-25.8-7.3-37.1c-23.4-51.2-62.2-96.5-112.3-123.2c-7.4-4-15.1-7.3-23-9.9c-0.1-8.7-0.9-17.4-9.9-21.8c-5.1-2.5-11.3-2.7-17.1-2.7c0-0.2,0-0.3-0.1-0.5c-1.1-5.8-3.8-10.8-6.7-15.8c-2.9-4.9-6.7-9.4-7.8-15.1c-0.1-0.6-0.2-1.3-0.4-1.9c6.4-1.7,11.9-6.3,13.6-13.3c0.2-0.7,0.2-1.3,0.3-2c0.3,0,0.6,0,0.9,0c30.1-2.2,61.1,0.8,91.1,4c25.9,2.8,52.8,8.1,78.7,2.5c7.9-1.7,20.2-4.3,24.4-12.2c3.5-6.7-2.9-12.4-7.9-15.5C490.5,74.4,472.5,72,456,72c-48.1-0.1-94.4,16.5-142.3,18.5c-1,0-1.8,0.3-2.5,0.7c-3.1-2.7-7.1-4.3-10.9-4.1c-5,0.3-9,2.8-11.9,6.2c-29.9-8.2-61.3-9.5-92.2-11.2c-16.1-0.9-31.8-4.6-47.8-6.2c-10.5-1-22.8-1.4-31,6.4c-14.7,13.9-0.2,33.9,14.2,40.5c26.1,11.9,54.9,1.7,81.6-2.6c23-3.7,46.2-6.2,69.4-8.2c0.4,0.7,0.9,1.4,1.4,2c-0.7,3.4-0.3,7.8-0.7,10.7c-1.2,9.6-1.4,18-8.3,25.5c-1.6,1.7-1.8,3.7-1.1,5.4c-4.8,1-9.4,2.6-13.8,4.8c-9.5,4.8-14,14.2-14.4,24.3c-9.5,4.6-18.6,10.1-27.1,16.3c-9.8,7.2-18.8,15.5-26.9,24.5c-5.2,3.6-8.9,8.7-13.7,12.8c-5.1,4.3-11.7,4.6-17.7,6.4c-14.8,4.2-30,6.2-45.3,7.4c-6.2,0.5-12.3,1.5-18.5,2.2c-7,0.7-11.9-0.5-17-5.4c-8.9-8.6-13.6-20.6-23.4-28.5c-9.6-7.7-18.8-2.5-26.7,4.7c-7.5,6.8-15.3,16.1-6.8,25.4c3.7,4.1,8.5,6.9,12.5,10.6c4.3,4,8,8.8,10.5,14.1c4.7,9.9,5.1,21.1,4.9,31.9c-0.1,3.9-0.4,7.9-0.7,11.8c-0.3,3.7,1.9,6.6,5.8,6.5c5-0.1,10-0.9,15-1c3.3-0.1,4.9-2.5,4.9-5.1c3.9-0.2,7.9,2,11.6,3c6.2,1.7,13.1,1.4,19.4,1.2c9.2-0.2,18.2-0.8,27.3-1.9c17.3-2.1,38.4-6.5,55,0.8c12.4,5.5,14.2,22.9,18.7,34.1c3.4,8.5,8.4,16.5,15.7,20.8c-2.9,10.8-5.1,22-9.1,32.4c-1.4,3.5-2.5,7.1-3.8,10.6c-0.6,1.6-1.3,3.2-2,4.7c-1.3,2.8-1.8,1.8,1.3,1.2c-2.7,0.5-4.2,2.5-4.6,4.7c-0.7,0.4-1.2,1-1.6,1.6c-8.8-0.2-17.6-3.5-26.3,0.1c-9.3,3.9-13.5,14.9-8.6,23.6c4.2,7.4,14.5,11,22.3,12.5c5.7,1,11.6,0.3,17.3,0.3c8.5,0,16.9,0.3,25.4,0.6c32.4,1.3,64.7,2.3,97.1,1.3c31.9-1,64-2.3,95.8-4.4c16.9-1.2,34.5-0.6,51.2-3.7c12.3-2.3,23.4-7.7,30.5-18.2C519.4,428.6,522.8,400.9,501.6,391.1z M407,87.8c15.3-2.5,30.7-4.4,46.2-4.8c9.5-0.2,18.5,0.2,27.7,2.7c6.6,1.8,14,3.9,19.6,7.9c0.6,0.4,1,0.8,1.4,1.2c-2.5,2-7.4,3.1-10.1,4c-24.9,8-53.3,1.9-78.6-1c-14.1-1.6-28.3-2.5-42.4-3.5C382.9,92.1,394.9,89.8,407,87.8z M197.7,112.1c-13.8,2.8-27.7,5.7-41.9,5.4c-10.7-0.3-23.6-3.8-30.3-12.7c-3.8-5.1-4.4-11.9,1.3-15.7c3.9-2.6,9.1-2.6,13.6-2.5c8.2,0.1,16.4,1.6,24.5,3c15.9,2.7,31.7,3.7,47.8,4.4c15.8,0.7,31.6,2.4,47.2,4.7c5.4,0.8,10.7,1.8,16,2.9C249.8,104,223.6,106.9,197.7,112.1z M300.9,98.1c2.8,0.2,6.7,4.1,5.4,7.1c-0.9,2-3.4,3.6-6.2,4.3c-1.4-2.3-3.2-4.1-5.6-5.1C295.7,101.2,297.8,97.9,300.9,98.1z M293.7,131.6c0.1-1.5,0.3-3,0.5-4.6c0.1,0.6,0.3,1.3,0.5,1.9c2.6,8.7,11.1,15.1,12.9,24.2c-5.7,0.1-11.5,0.2-17.1,0.5c-1.4,0.1-2.8,0.2-4.2,0.3C291,147.3,292.9,139.9,293.7,131.6z M291.3,164.6c5.5-0.4,11-0.3,16.5-0.4c6.5-0.2,13.3-0.6,19.7,0.5c5.9,1,7.1,5,7.2,9.7c-14.4-3.5-29.3-4.6-44.3-2.9c-11.3,1.3-22.3,4.1-32.9,8.2C261.9,167.2,278.8,165.4,291.3,164.6z M214.9,344.5c-2.3-6.7-4.5-13.4-7.8-19.7c-3.4-6.5-9.5-10.8-16.4-13.3c-17.7-6.5-38.2-3.1-56.5-0.9c-9,1.1-17.8,1.7-26.8,2c-6.5,0.2-13,0.4-19.4-1.3c-4.8-1.3-9.2-3.6-14.3-2.8c-2.9,0.5-4.5,2.7-4.8,5c-2.7,0.1-5.3,0.3-8,0.6c1.1-20.4-0.1-40.9-14.6-57c-4-4.5-8.7-8-13.4-11.8c-4.1-3.3-3.9-4.2-0.4-8.1c3-3.4,8.2-9.3,13-9.9c4.1-0.6,9.3,7,11.3,9.8c6.6,9.3,13.3,21.5,24.2,26.3c5.5,2.5,12.1,2.2,17.9,1.6c6.9-0.7,13.6-1.7,20.5-2.3c7.2-0.6,14.5-1.4,21.7-2.6c7.7-1.2,15.1-3.7,22.8-5c5.8-1,11.6-2.5,16.8-5.4c5.9-3.3,9.8-8.8,14.8-13.2c1-0.2,2-0.8,2.9-1.8c35.1-40.2,89.2-64,142-47.7c27.4,8.4,51.8,26.5,72.4,46c20.9,19.7,39.3,42.7,51.8,68.7c9,18.6,23.7,45.3,1.1,60.1c-15.8,10.4-38.8,8.9-56.8,7.8c-9.1-0.5-18.1-1.4-27.2-1.9c-15.2-0.8-30.6,0.1-45.8,0.5c-31.8,0.8-63.6,1.9-95.4,1.4c-0.7-0.3-1.6-0.4-2.6-0.3C223.4,371.3,218.7,355.4,214.9,344.5z M223.2,417.3c4.2-12,7.4-24.4,10.7-36.7c1.4,0.1,2.8,0,4.3-0.1c0.4,0.1,0.9,0.2,1.4,0.2c33,0.7,66-0.6,98.9-1.4c14.9-0.4,30-1.2,44.8-0.4c9.5,0.5,19,1.5,28.5,2c15.2,0.8,31.5,1,46.2-3.7c3.2,8.5,8.7,15.7,13.8,23.2c2.7,4,5,8.1,7.1,12.4c0.6,1.1,1.2,2.2,1.8,3.3c0.4,0.6,0.7,1.2,1.1,1.8c0,0.1,0.1,0.1,0.1,0.2c-0.3,1.6-0.1,3.2,0.9,4.5c-3.3,1-6.8,1.5-10.1,2c-6.2,1-12.4,2.2-18.7,3.1c-27.2,3.9-54.7,5.4-82.1,5.7c-51.2,0.6-102.3-2.9-153.4-2.9C220.7,426.2,221.9,420.9,223.2,417.3z M495.6,443.3c-8.4,8.9-23.1,9.9-34.5,10.5c-15.5,0.8-31,1.7-46.5,2.7c-15.8,1-31.7,1.3-47.5,2.1c-16.2,0.8-32.4,1.5-48.7,1.9c-32.5,0.7-64.8-1.1-97.2-2.1c-5.2-0.2-10.4-0.2-15.6-0.2c-4.1,0-8.3,0.5-12.4-0.1c-5.1-0.8-11.5-2.9-14.8-7.1c-4.1-5.2,4.3-8.8,8.3-9c7.7-0.4,15.3,2.6,23,1.4c1.6-0.3,2.7-1,3.5-2c56.5-0.3,112.9,4,169.4,2.8c14.3-0.3,28.7-1,43-2.2c14.7-1.2,30.1-2.4,44.5-5.8c9.8-2.3,19.5-2.6,27.4-9.6c4.6-4.1,6.6-10.9,7.3-17.8C509.6,419.4,503,435.4,495.6,443.3z"/><path d="M431.3 269.4c-7.1-12.5-19.3-22.4-30.1-31.6-8.1-6.9-17-12.9-25.1-19.8-4.5-3.8-9-7.7-13.3-11.8-4.2-4-8.7-7.4-14.5-8.6-1.8-.4-3.3.1-4.4 1.1-19.4 2.9-24.8 23.9-24.9 40.9-.1 17.3 5.8 38.4 20.9 48.3 8 5.2 17.5 6.5 26.8 6.7 7 .1 13.9-.6 20.9-.4 6.2.2 12.4.2 18.6.5 8.8.4 19.6 1.1 26.1-5.9C437.4 283.1 434.5 275.1 431.3 269.4zM423.5 281.9c-2.3 2.4-8.2 1.9-11.1 2-4.8.1-9.7-.4-14.5-.4-7.5 0-15-.6-22.5-.4-6 .2-11.8.7-17.8-.2-18.8-2.8-26-21-27.5-38-1.1-11.7.2-33.6 15.5-35.4.8-.1 1.5-.3 2.1-.6 4.7 1.7 8.2 6.2 11.9 9.5 5.7 5.1 11.6 10.1 17.5 14.8 7.3 5.9 15 11.3 22 17.5 6.4 5.6 12.7 11.4 18.1 17.9 2.2 2.7 4.4 5.6 5.9 8.7.5 1.1.9 2.3 1 3.3C424.1 281.5 424.2 281.2 423.5 281.9zM324.5 322.9c-1.1-8.9-4.2-17.3-5.3-26.2-1.1-8.7-2-18.1-8.6-24.5-7.9-7.7-22-4.6-31.7-4.2-14.6.6-29.2 1.6-43.5 4.6-3.6.8-4.3 4-3.2 6.7-9.8-.1-6.2 16.4-5.4 22.2.6 4.1 1.7 8.3 2 12.5.9 10.1.2 20.2 1.8 30.2.4 2.2 1.7 3.6 3.3 4.3-.6 2.3 0 4.9 2.7 6.2 9.6 4.8 20.9 3.3 31.1 1.7 9.1-1.4 17.8-2.3 27-2.6 7.7-.2 17.9-.4 24.1-5.7C326.1 342.1 325.5 331.3 324.5 322.9zM311.6 340c-5.3 3.7-15 2.8-21.1 2.9-7.5.2-14.7 1.1-22.1 2.3-8.4 1.4-18.7 3.6-26.6-.3 0-.5 0-1-.1-1.5-1.3-7.6-1.3-15.3-1.5-22.9-.1-5-.6-9.3-1.3-13.2-.7-3.9-1.3-7.8-1.7-11.8-.2-1.9-.4-3.8-.5-5.7 0-.7 0-1.4 0-2.1.8-1.3 1.2-3 .9-4.5.5 0 1 0 1.5-.1 11.5-2.5 23.4-3.2 35.1-3.8 6.2-.3 12.4-.5 18.6-.8 3.7-.2 7.5-.5 10.5 2 4.8 4 4.5 14 5.2 19.6.9 7.5 3.6 14.9 4.8 22.4C314 326.9 316 336.9 311.6 340z"/><path d="M290.4,291.2c-2.4-6.7-12.8-3.1-10.4,3.6c1.7,4.9,3.2,9.8,4.4,14.7c-7.1,0.1-14.3,0.7-21.4,0.9c-0.4-2-0.7-3.9-0.9-5.9c-0.2-1.5-0.2-3-0.2-4.4c0-0.7,0.2-1.1,0.3-1.2c-0.1,0.1-0.3,0.4-0.8,0.7c0.3-0.2,0.6-0.5,0.8-0.8c0-0.1,0.1-0.1,0,0c3.9-4.6-1.8-12.5-7-8.3c-6.2,5-4.4,14.3-3.1,21.1c1.5,7.9,4.5,16.5,5.7,23.9c1.1,7,11,6.3,11-0.8v-3c0-1.6-0.5-2.7-1.4-3.5c-0.5-2.2-1.2-4.5-1.8-6.7c6.9-0.2,13.8-0.8,20.7-0.9c0.3,2.6,0.5,5.3,0.5,7.9c0.1,7.1,11.1,6.2,11-0.8C297.5,315.1,294.6,302.9,290.4,291.2z"/><path d="M262.1,298.8C262,298.8,262,298.8,262.1,298.8C262.1,298.8,262.1,298.7,262.1,298.8C262.1,298.7,262.1,298.8,262.1,298.8z"/></svg>