<svg xmlns="http://www.w3.org/2000/svg" viewBox="0 0 512 512" width="192px" height="192px"><path fill="#C56528" d="M372,48.8c-4.7-16.4-16.5-30.3-33.4-35c-16.7-4.6-35.1-2-51.3,3.6c-16.6,5.8-33.4,15.2-43.5,30c-9.9,14.4-9.4,33.9,1.8,47.6c12.4,15.2,34.7,17.8,52,10.1c8.7-3.9,20.9-11.4,21.6-22.1c0.5-7.1-5.4-12-11.7-15.1c-1.7,0.8-3.7,0.6-5.4-1.1c-0.6-0.6-1.2-1.2-1.9-1.7c-6.7-2-4.9-12.4,2.1-10.8c0.5,0.1,1,0.3,1.5,0.5c8,2.5,15.9,6.3,21.1,13c15.4,19.7-5.8,40.2-23.6,47.7c-18.3,7.7-40.6,6.5-56.5-6.1c-14.6-11.5-22.5-32.2-18-50.5c0-0.1,0-0.2,0-0.3v-1.2c-0.9-0.2-1.9-0.7-2.5-1.3c0,0-0.1-0.1-0.1-0.1c-0.6,0.1-1.3,0.2-2,0.1c-8.7-1.2-17.7,1.7-25.6,5.3c-9.9,4.4-19.1,10.3-27.7,16.7c-16.6,12.4-32.4,26.9-43.2,44.8c-13.5,22.4-20.7,48.6-17.9,74.7c1.2,11.6,2.9,23.9,11.7,32.4c5.7,5.5,12.4,9.5,19.5,12.9c-5-13.5-8.1-27.6-6.6-41.7c0.5-4.5,5.1-5.3,8.1-3.3c2.7-2,6-3.6,7.7-4.8c1.2-0.8,2.4-1.6,3.6-2.5c1.6-1.2,1.2-0.8,2.1-2c2.5-3.3,4.6-6.9,6.6-10.5c3.7-6.6,7.5-13.8,13.7-18.5c7.2-5.5,15.2-5.3,23.8-4.4c11.3,1.2,22.3,3.9,33.6,5.4c11.5,1.5,22.4,0.4,33.8-1.5c21.1-3.4,42.6-7.7,62.2-16.7c9.7-4.5,18.5-9.9,25.5-18.1c0.9-1.1,1.9-2.2,2.7-3.4c0-0.2,0-0.5,0-0.7c0.2-2.6,1.7-3.9,3.6-4.2c3.1-4.6,5.7-9.5,7.8-14.7C374,85.1,376.9,65.9,372,48.8z"/><path fill="#FCBF95" d="M152.4,272c-2.5-4.8-5-9.7-7.3-14.8c-5.1,0.1-12,0.7-15.7,4.5c-4.3,4.5-1.6,9.2,1,13.9c5.1,9.3,18.1,8,27.1,5.7C155.7,278.2,154,275.1,152.4,272z"/><path fill="#C56528" d="M434.4,137c-4.1-28.1-22.1-54.3-49.4-63.2c-1,14.3-5.3,28.4-11.8,40.4c-2,3.7-4.2,7.3-6.6,10.7c0.3,9.8,5.1,20.2,10.4,28c5.5,8,13.7,16.5,24.3,15.4c2-0.2,3.5,0.5,4.5,1.7c2.3,0.2,4.4,1.8,4.4,4.9c0,10.8,0.5,21.9,0.8,33.1C434.4,195.2,437.8,160.5,434.4,137z"/><path fill="#FCBF95" d="M431 231.8c-1.2-8.6-12.1-12.7-19.7-12.1.1 7.9-.1 15.8-.7 23.5 4.4.1 9.5.8 13.6-.7S431.6 236.4 431 231.8zM399.3 179.4c-13.2 0-24.3-9.8-31.3-20.4-4.7-7-8.5-15-10.6-23.3-.1.1-.3.3-.4.4-8.3 7.9-18.2 13.5-28.7 17.9-12.8 5.3-26.1 9-39.6 11.8-13.2 2.8-27.2 6.1-40.8 6.5-14.1.4-27.6-2.8-41.4-5-10.6-1.7-22-4.8-29.4 5-5.8 7.6-8.9 18.3-15.9 24.9-2.7 2.6-6 4.5-9.1 6.6-1.1.7-2.2 1.4-3.3 2.2-.5 1.3-1.5 2.4-3.1 3-.8.3-1.7.7-2.7.8.3 13.1 5 26.2 10 38 5.9 13.8 12.8 27.6 21 40.2 16.6 25.6 42.1 45.3 71.5 53.9 39.6 11.6 86.8 2.9 118.5-23.9 15.8-13.4 27.5-31.6 32.1-51.9C402.6 237.6 399.6 208.3 399.3 179.4zM233.2 203.3c-1.9 6.1-11.1 4.9-11.1-.4-.5-.2-1-.4-1.7-.6-3.1-.7-6.1-1-9.3-.8-5.7.5-12.6 2.4-12.3 9.3.3 7.1-10.7 7.9-11 .8-.6-13.4 11-20.6 23.3-21.1C217.6 190.3 236.8 192.1 233.2 203.3zM308.2 272.3c-1 16.7-13.9 30-30.6 31.9-13.9 1.6-28.5-5.4-29.8-20.6-.6-7.1 10.4-7.9 11-.8.8 9.7 11.7 11.8 19.7 10.2 11.4-2.3 18.2-11.5 18.9-22.8C297.8 263.1 308.6 265.3 308.2 272.3zM343.8 195.1c-.2-5.4-9.1-4.7-13.5-3.7-5.3 1.3-13.8 4-14.6 10.3-1 7-11.8 4.9-10.8-2.1 2.8-20.1 49-30.3 49.9-5.4C355 201.4 344.1 202.2 343.8 195.1z"/><path fill="#FCBF95" d="M365.8,353.2c-3.7-5.1-6.8-10.6-9.5-16.3c-9.5,6-19.9,10.7-30.7,14c-31.5,9.7-65.2,8.9-95.2-2.9c0.9,5.1,0.9,10.3-0.3,15.2c0.3,0.3,0.5,0.6,0.8,1c17.4,26.8,53.6,30.6,82.7,27.5c11.5-1.2,23.4-4.7,33.6-10.3c9.2-5,19.5-12.5,17.7-24.3C364.5,355.4,365,354.1,365.8,353.2z"/><path fill="#3AB37C" d="M442,403.9c-1.4-7.7-8.9-12.5-15.4-15.6c-8.2-3.9-16.9-6.5-25.4-9.5c-9.2-3.2-18.1-7.8-25.4-14.3c-3.5,24.1-40.1,36-60.6,38.1c-31.8,3.3-69.7-1.3-90.4-28c-1,1.4-2.2,2.7-3.5,4c-10.5,10-25.1,16.2-39.1,19.6c-13.5,3.3-41.3,11.3-37.6,30.2c4.2,21.4,29,32.1,47.3,38.4c25.5,8.7,52.5,15.2,79.3,17.7c14.4,1.3,29.1,1.6,43.5-0.3c10.9-1.4,21.5-4.3,31.9-7.5c21.4-6.6,42.7-14.9,61.5-27.1c8.8-5.7,17.2-12.2,23.9-20.3C437.5,422.3,443.7,413.2,442,403.9z M305.4,412.7c7.1,0,7.9,11,0.8,11C299.2,423.7,298.3,412.7,305.4,412.7z M314.3,449.3c0,1.5-0.3,2.9-1.4,4.1c-0.9,1.1-2.3,1.7-3.7,1.9c-1.5,0.1-2.9-0.4-4.1-1.4c-1-0.9-1.9-2.3-1.9-3.7v-1.5c0-1.5,0.3-2.9,1.4-4.1c0.9-1.1,2.3-1.7,3.7-1.9c1.5-0.1,2.9,0.4,4.1,1.4c1,0.9,1.9,2.3,1.9,3.7V449.3z"/><path d="M452.1,398.9c-4.8-17.2-26.7-23.5-41.5-28.4c-9.5-3.2-18.6-6.8-26.4-13.4c-8.4-7-14.2-16.6-18.7-26.5c12.4-9.4,23-21,30.7-34.7c7.4-13.1,11.4-27.3,13.3-41.9c0.5,0.1,1.1,0.2,1.7,0.2c6.8,0,13.9,0.6,20.1-2.8c7-3.8,10.5-11.7,10.7-19.4c0.3-10-7.7-17.4-17-21c19.4-17.6,23.6-48.7,20.5-73.8c-2-16.6-8.9-32.8-18.6-46.2c-10.3-14.3-25-24-41.8-28.7c-1-18.6-8-36.4-23.1-48.5c-29.2-23.3-73.9-13.1-103,4.9c-11.2,6.9-21.3,16.4-27.4,28c0,0-0.1-0.1-0.1-0.1c-1.1-1-2.6-1.5-4.1-1.4c-0.6,0-1.2,0.2-1.7,0.4c-0.4-0.2-0.8-0.3-1.3-0.3c-20.5-2.9-40.9,9.2-57.1,20.4c-17.4,12.1-33.8,26.8-46.1,44.2c-15.6,22.1-24.3,48.4-24.8,75.5c-0.2,12.5,1.1,27,6,38.6c4.5,10.6,13.5,18.2,23.1,24.1c0.9,0.5,1.8,1.1,2.7,1.6c-2.3,1.1-4.4,2.4-6.2,4.1c-6.6,6-7.1,14.7-3.6,22.5c3.8,8.7,9.8,14.5,19.2,16.7c8,1.9,16.9,0.5,24.7-1.6c0.4-0.1,0.8-0.3,1.1-0.4c9.1,14.3,19.7,27.2,33.5,37.9c6.5,5,13.3,9.4,20.5,13.1c3.6,8.7,4.7,18.1-1.4,26.1c-5.7,7.6-15.1,11.9-23.7,15.2c-17.8,6.9-38,8.8-51.7,23.6c-15.3,16.4-3.4,39.4,11.2,51.4c17.6,14.4,40.9,20.6,62.4,26.5c28,7.6,57,12.4,86.1,11.4c23.2-0.8,45.7-7.2,67.3-15.1c21-7.7,42-17.5,59.4-31.8C441.2,437.7,457.6,418.8,452.1,398.9z M365.8,353.2c-0.8,0.9-1.3,2.3-1,4c1.8,11.8-8.5,19.2-17.7,24.3c-10.1,5.5-22.1,9.1-33.6,10.3c-29.1,3-65.3-0.7-82.7-27.5c-0.2-0.4-0.5-0.7-0.8-1c1.2-4.9,1.2-10.1,0.3-15.2c30,11.7,63.7,12.6,95.2,2.9c10.8-3.3,21.2-8,30.7-14C359,342.6,362.1,348.1,365.8,353.2z M431,231.8c0.6,4.5-2.5,9.2-6.7,10.7s-9.3,0.8-13.6,0.7c0.6-7.8,0.7-15.7,0.7-23.5C418.9,219.1,429.8,223.2,431,231.8z M434.4,137c3.4,23.5-0.1,58.2-23.3,70.9c-0.3-11.2-0.8-22.3-0.8-33.1c0-3.1-2.1-4.7-4.4-4.9c-1-1.2-2.5-1.9-4.5-1.7c-10.6,1.1-18.7-7.4-24.3-15.4c-5.4-7.7-10.2-18.2-10.4-28c2.4-3.4,4.6-7,6.6-10.7c6.5-12,10.7-26.1,11.8-40.4C412.3,82.7,430.4,108.9,434.4,137z M119.5,230c-8.8-8.4-10.4-20.8-11.7-32.4c-2.8-26.2,4.4-52.4,17.9-74.7c10.8-17.9,26.6-32.4,43.2-44.8c8.7-6.4,17.9-12.3,27.7-16.7c7.9-3.5,16.8-6.5,25.6-5.3c0.7,0.1,1.4,0.1,2-0.1c0,0,0.1,0.1,0.1,0.1c0.5,0.6,1.6,1.1,2.5,1.3v1.2c0,0.1,0,0.2,0,0.3c-4.5,18.3,3.4,39,18,50.5c15.9,12.6,38.2,13.7,56.5,6.1c17.8-7.5,39-28,23.6-47.7c-5.3-6.7-13.1-10.5-21.1-13c-0.5-0.2-1-0.3-1.5-0.5c-7-1.6-8.8,8.8-2.1,10.8c0.7,0.5,1.3,1.1,1.9,1.7c1.8,1.7,3.8,1.9,5.4,1.1c6.3,3.1,12.2,8,11.7,15.1c-0.7,10.7-12.9,18.2-21.6,22.1c-17.3,7.7-39.6,5.1-52-10.1c-11.2-13.7-11.7-33.2-1.8-47.6c10.1-14.8,26.9-24.2,43.5-30c16.2-5.6,34.5-8.2,51.3-3.6c16.9,4.6,28.7,18.5,33.4,35c4.9,17.1,1.9,36.3-4.8,52.4c-2.1,5.1-4.7,10.1-7.8,14.7c-1.9,0.3-3.4,1.7-3.6,4.2c0,0.2,0,0.5,0,0.7c-0.9,1.1-1.8,2.3-2.7,3.4c-7,8.2-15.8,13.6-25.5,18.1c-19.6,9-41.1,13.2-62.2,16.7c-11.4,1.9-22.3,3-33.8,1.5c-11.3-1.5-22.3-4.2-33.6-5.4c-8.6-0.9-16.6-1.1-23.8,4.4c-6.1,4.7-9.9,11.9-13.7,18.5c-2,3.6-4.1,7.2-6.6,10.5c-0.9,1.2-0.5,0.8-2.1,2c-1.2,0.9-2.4,1.7-3.6,2.5c-1.7,1.2-5,2.8-7.7,4.8c-3.1-1.9-7.7-1.2-8.1,3.3c-1.5,14.2,1.6,28.3,6.6,41.7C132,239.5,125.3,235.5,119.5,230z M130.4,275.6c-2.6-4.7-5.3-9.4-1-13.9c3.7-3.8,10.6-4.4,15.7-4.5c2.4,5.1,4.8,10,7.3,14.8c1.6,3.2,3.3,6.3,5,9.3C148.5,283.6,135.4,284.9,130.4,275.6z M173.9,287.9c-8.1-12.6-15.1-26.4-21-40.2c-5-11.8-9.7-24.9-10-38c0.9-0.1,1.9-0.5,2.7-0.8c1.6-0.6,2.6-1.7,3.1-3c1.1-0.7,2.2-1.5,3.3-2.2c3.1-2.1,6.4-4,9.1-6.6c7.1-6.6,10.1-17.2,15.9-24.9c7.4-9.7,18.8-6.7,29.4-5c13.8,2.2,27.3,5.4,41.4,5c13.5-0.4,27.6-3.7,40.8-6.5c13.5-2.9,26.8-6.5,39.6-11.8c10.6-4.4,20.4-10,28.7-17.9c0.1-0.1,0.3-0.3,0.4-0.4c2,8.3,5.9,16.2,10.6,23.3c7,10.6,18.2,20.3,31.3,20.4c0.3,28.9,3.3,58.2-3.2,86.7c-4.7,20.3-16.3,38.5-32.1,51.9c-31.7,26.8-78.9,35.5-118.5,23.9C216,333.2,190.5,313.5,173.9,287.9z M432,429.1c-6.7,8.1-15.1,14.6-23.9,20.3c-18.8,12.2-40.1,20.5-61.5,27.1c-10.5,3.2-21.1,6.1-31.9,7.5c-14.4,1.9-29.1,1.7-43.5,0.3c-26.9-2.5-53.8-8.9-79.3-17.7c-18.4-6.3-43.1-17-47.3-38.4c-3.7-18.9,24.1-26.9,37.6-30.2c14-3.4,28.6-9.6,39.1-19.6c1.3-1.3,2.5-2.6,3.5-4c20.7,26.7,58.7,31.3,90.4,28c20.5-2.1,57.1-13.9,60.6-38.1c7.3,6.5,16.2,11.1,25.4,14.3c8.5,3,17.2,5.6,25.4,9.5c6.5,3.1,14.1,7.9,15.4,15.6C443.7,413.2,437.5,422.3,432,429.1z"/><path d="M211.1 190.5c-12.3.5-23.9 7.7-23.3 21.1.3 7.1 11.3 6.2 11-.8-.3-6.9 6.7-8.8 12.3-9.3 3.1-.3 6.2 0 9.3.8.8.2 1.2.3 1.7.6 0 5.4 9.1 6.5 11.1.4C236.8 192.1 217.6 190.3 211.1 190.5zM304.9 199.7c-1 7 9.8 9.1 10.8 2.1.9-6.3 9.3-9 14.6-10.3 4.3-1.1 13.3-1.7 13.5 3.7.3 7.1 11.2 6.2 11-.8C353.8 169.4 307.7 179.6 304.9 199.7zM297.4 270.2c-.7 11.3-7.5 20.5-18.9 22.8-8 1.6-18.9-.5-19.7-10.2-.6-7.1-11.6-6.2-11 .8 1.3 15.2 16 22.2 29.8 20.6 16.6-1.9 29.5-15.2 30.6-31.9C308.6 265.3 297.8 263.1 297.4 270.2zM305.4 412.7c-7.1 0-6.2 11 .8 11C313.3 423.7 312.4 412.7 305.4 412.7zM312.4 444.1c-1.1-1-2.6-1.5-4.1-1.4-1.4.1-2.8.8-3.7 1.9-1 1.2-1.4 2.5-1.4 4.1v1.5c0 1.4.9 2.8 1.9 3.7 1.1 1 2.6 1.5 4.1 1.4 1.4-.1 2.8-.8 3.7-1.9 1-1.2 1.4-2.5 1.4-4.1v-1.5C314.3 446.4 313.4 445 312.4 444.1z"/></svg>