<svg xmlns="http://www.w3.org/2000/svg" viewBox="0 0 512 512" width="192px" height="192px"><path fill="#EF4823" d="M366.5,146.8c-1.7-5.5-3.6-10.8-5.5-16.2c-10.3-0.1-20.5,1.7-30.6,3.4c-11.6,2-23.3,3.2-34.8,5.9c-23,5.4-46,10.8-69.1,15.8c-17.6,3.8-35.3,7.7-53,11.2c-6.7,1.3-13.4,2.8-19.9,5.1c-2.5,0.9-5.2,1.8-7.4,3.3c-0.3,0.2-0.6,0.4-0.9,0.6c7.1,0,14.2,0,21.4-0.1c31.7-0.3,63.4,0.4,95-1.8c36.1-2.6,72-7.8,108-11.4C370.5,157.9,367.7,150.7,366.5,146.8z"/><path fill="#F6851F" d="M386,275.7c14.8-2.2,29.6-4.5,43.8-9.1c6.1-2,12.7-4,18.4-7.1c0.5-0.3,1-0.6,1.4-0.8c0-18.3-0.4-36.6-1.8-54.8c-0.6-8.1-1.3-16.5-3.7-24.3c-1.5-4.6-3.5-11-9.1-9.9c-1.6,0.3-2.9-0.1-3.7-0.9c-16.3,0.2-32.6,1.4-48.9,2.8c-29.7,2.7-59.3,6.4-88.9,9.6c-31.3,3.3-62.5,4.5-94,4.6c-31.6,0-63.2,1.1-94.7-0.8c-10.7-0.6-21.4-3.2-30.6-9c-2.3-1.4-4.6-3.1-6.8-5c0,0.9,0,1.7,0.1,2.5c0.5,9.7,2.5,19.4,3.7,29.1c2.6,22.3,8.3,44.1,10.8,66.4c2.6,22.5,3.5,45.1,5.9,67.6c2.2,21.4,5.7,42.4,9.1,63.6c1.2,7,1.5,15.4,4.5,21.9c2.2,4.9,6.6,8.1,11.4,10.2c12,5.4,25.1,8.7,38.1,10.7c31,4.9,63.4,5,94.6,1.7c32-3.4,63.6-9.1,95.7-11.7c16.3-1.3,32.7-2.2,49.1-2.3c15-0.1,30,2,45,1c0.1,0,0.3,0,0.4,0c0.7-0.5,1.5-0.9,2.6-1c10.9-1.1,8.5-20.5,7.8-27.9c-1.8-19-3.2-38.3-3.3-57.3c-18.9,3.6-37.7,8-56.8,10.6c-12,1.6-24.4,2.8-36.5,1.2c-10.7-1.5-18.7-5.7-26.9-12.6c-6.9-5.9-15.6-13.4-15.1-23.3c0.5-11,9.6-20.8,16.2-29C338.2,274.3,365.6,278.8,386,275.7z"/><path fill="#EF4823" d="M413.7,157.8c0.6-5.8-0.1-14.2-0.8-21c-1-10.3-2.6-20.6-4.9-30.6c-2.2-9.3-4.6-19-9.2-27.4c-1.6-3-3.4-6.1-6.1-8.3c-1.3-1-2.3-1.6-3.4-1.8c-0.5,0-1.1,0-1.6,0c-0.7,0.5-1.4,0.8-2.1,0.9c-3.4,2.3-6.6,4.8-10.4,6.7c-6,3.1-12.2,5.8-18.4,8.5c-13.4,5.9-27.9,10.4-41.9,14.8c-14.2,4.5-28.5,8.1-43.3,10.4c-15.1,2.3-30.3,4-45.5,5.9c-16,2-31.7,4.5-47.3,8.7c-14.1,3.8-27.8,8.6-41.8,12.6c-9.8,2.8-21.9,3.6-30.1,10.2c-11.1,8.9-3.3,20.7,7.7,24.4c2,0.7,3.1,2.2,3.5,3.8c0.3,0,0.6,0,0.9,0c5,0.1,10,0.2,15,0.3c2.6-11.7,20.4-15,30.2-17.2c18-4,35-7.3,53.3-11.2c25-5.4,49.9-11.3,74.8-17c11.8-2.7,23.7-4.1,35.6-6.1c12-2.1,24.1-4.3,36.4-3.6c2.3,0.1,4.3,1,5.1,3.3c2.6,7.7,5.5,15.2,7.6,23.1c1.2,4.4,2.7,9.6,2.7,14.6c11.4-1,22.7-1.9,34.1-2.4C413.7,158.8,413.7,158.3,413.7,157.8z"/><path fill="#127274" d="M351.7,75.4c-7.6,1.3-15.3,2.4-22.9,3.8c-15.8,2.8-31.5,5.9-47.3,9c-31.4,6.3-62.5,13.7-93.8,20.3c-15.6,3.3-31.2,6.3-47,8.5c-14.4,2-28.5,4.7-41.9,10.4c-6.8,2.9-13.5,6.4-19.6,10.6c-4.2,2.9-10.2,6.8-11.4,12.2c-2,9.1,8.1,15.9,15.2,19.3c5.2,2.5,10.5,4,16,4.8c-1.9-1.7-3.5-3.6-4.7-5.8c-5.6-10.3-2.5-22.4,7-29.3c9.2-6.7,20.5-8,31.2-11c14.4-4.1,28.5-9.1,43-12.9c15.2-4,30.5-6.8,46.1-8.8c15.8-2,31.7-3.7,47.4-6.1C284.7,97.9,300,94,315.2,89c13.1-4.3,26.3-8.7,39.1-14C353.4,75.1,352.6,75.3,351.7,75.4z"/><path fill="#74CCCF" d="M470.7,281c0-9.6,3.4-21,0.7-30.4c-1.2-4-5.1-6-8.2-8.3c-1.4-1-2.6-2-3.6-3.2c0,1.6,0.1,3.3,0.1,4.9c2.8-0.9,6.2,0.4,6.1,4.2c-0.2,6.8-2.3,12.9-7.9,17c-5.2,3.9-11.7,6.2-17.7,8.4c-25.6,9.3-52.7,12.3-79.7,14.2c-10.2,0.7-22.6,2-29.1,11c-4.3,5.9-18,18.7-12.8,26.8c2.8,4.4,6.8,8.1,10.8,11.4c3.3,2.7,6.8,6,10.8,7.6c10.9,4.4,23.6,3.7,35,2.6c26.2-2.5,51.8-9.4,77.7-13.7c0.9-1.5,2.6-2.4,4.9-1.8c0.5,0.1,1,0.3,1.4,0.4c0.6-0.3,1.4-0.5,2.3-0.5c0.1,0,0.3,0,0.4,0c8.1-2.8,9-8.7,9-16.9C470.6,303.6,470.7,292.3,470.7,281z"/><path fill="#010101" d="M480.6,287.8c0-11.6,2.1-23.4,1.1-35c-0.4-5.1-2.1-9.1-5.6-12.9c-2.5-2.8-8.2-4.5-9.8-7.9c-1.5-3-4.7-3.5-7.1-2.6c-0.3-10.7-0.9-21.5-1.9-32.2c-1.1-11.2-3.8-35.9-18.2-37.8c-0.8-0.5-1.7-0.8-2.9-0.8c-4.2,0-8.4,0.1-12.6,0.2c0.7-7.9,0-16-0.8-23.8c-1.2-11.9-3.3-23.7-6.1-35.3c-3.3-13.4-10.9-43-29.8-41.1c-0.2,0-0.4,0-0.7,0c-0.5-0.1-1-0.1-1.4,0c-13.3,0.4-26.4,5.6-39.5,7.6c-16,2.5-31.8,5.5-47.7,8.6c-31.2,6.1-62.3,12.9-93.3,19.8c-15.7,3.5-31.5,6.8-47.4,9.6c-14.7,2.5-29.5,3.9-44,7.7c-13.4,3.5-26.3,9.2-38,16.7c-8.4,5.4-17,12.9-17.5,23.4c-1.7,1.5-2.6,4-1,6.5c2.1,3.3,0.9,9.7,0.8,13.5c-0.1,6.7,1.2,13.6,2.2,20.2c2.3,15.9,4.8,31.7,7.7,47.5c5.7,31.7,7.1,63.7,10.3,95.7c1.6,15.9,3.6,31.7,6.1,47.5c2.3,14.1,3.9,28.9,8.2,42.5c3.4,10.7,15.5,15.9,25.1,19.3c13.4,4.7,27,7.7,41.1,9.5c22.1,2.8,44.9,3.2,67.1,2.2c23.7-1.1,47.3-4.9,70.8-8.2c23.7-3.3,47.5-5.7,71.4-6.8c11.5-0.6,23.1-0.9,34.6-0.5c11.4,0.4,22.7,1.6,34.1,0.8c1.1-0.1,2-0.4,2.7-1c0.1,0,0.2,0,0.3,0c1.7-0.2,3.2-0.5,4.6-1c0.1,0,0.3,0,0.4,0c2.1,0,3.4-1.1,4-2.5c7.7-6.1,8.7-18.7,8.4-28.5c-0.7-21.7-3.6-43.2-3.8-65c2.1-0.4,4.3-0.7,6.4-1c0.9-0.1,1.7-0.5,2.4-1c0.2,0,0.4,0,0.6,0c0.1,0,0.3,0,0.4,0c0.6,0,1.2,0,1.8-0.2c8.8-2.8,14.5-8.6,15.9-17.9c0.7-4.4,0.4-8.9,0.4-13.2C480.6,302.8,480.6,295.3,480.6,287.8z M375.2,76.3c3.8-1.9,7-4.4,10.4-6.7c0.7-0.1,1.5-0.4,2.1-0.9c0.5,0,1.1,0,1.6,0c1.1,0.2,2.1,0.7,3.4,1.8c2.7,2.2,4.5,5.3,6.1,8.3c4.6,8.4,7.1,18.2,9.2,27.4c2.3,10.1,3.9,20.4,4.9,30.6c0.7,6.7,1.4,15.2,0.8,21c-0.1,0.5,0,1,0.1,1.5c-11.4,0.5-22.8,1.4-34.1,2.4c0-4.9-1.5-10.2-2.7-14.6c-2.1-7.8-5-15.4-7.6-23.1c-0.8-2.3-2.8-3.2-5.1-3.3c-12.3-0.7-24.3,1.5-36.4,3.6c-11.9,2.1-23.8,3.4-35.6,6.1c-24.9,5.8-49.8,11.6-74.8,17c-18.3,4-35.3,7.2-53.3,11.2c-9.8,2.2-27.6,5.5-30.2,17.2c-5,0-10-0.1-15-0.3c-0.3,0-0.6,0-0.9,0c-0.4-1.6-1.5-3.1-3.5-3.8c-11.1-3.7-18.8-15.5-7.7-24.4c8.2-6.6,20.3-7.5,30.1-10.2c14-3.9,27.7-8.8,41.8-12.6c15.6-4.2,31.3-6.7,47.3-8.7c15.2-1.9,30.4-3.6,45.5-5.9c14.8-2.3,29.1-5.9,43.3-10.4c14-4.4,28.5-8.9,41.9-14.8C363,82,369.1,79.3,375.2,76.3z M369.7,162.6c-36,3.6-71.9,8.8-108,11.4c-31.6,2.2-63.3,1.6-95,1.8c-7.1,0.1-14.2,0.1-21.4,0.1c0.3-0.2,0.6-0.4,0.9-0.6c2.3-1.5,4.9-2.4,7.4-3.3c6.4-2.3,13.2-3.8,19.9-5.1c17.7-3.5,35.3-7.4,53-11.2c23.1-5,46.1-10.3,69.1-15.8c11.5-2.7,23.2-3.9,34.8-5.9c10.2-1.8,20.3-3.5,30.6-3.4c1.9,5.4,3.8,10.8,5.5,16.2C367.7,150.7,370.5,157.9,369.7,162.6z M67.8,150.1c1.2-5.4,7.2-9.3,11.4-12.2c6.1-4.2,12.8-7.7,19.6-10.6c13.4-5.7,27.5-8.4,41.9-10.4c15.8-2.2,31.4-5.2,47-8.5c31.3-6.6,62.4-14,93.8-20.3c15.7-3.1,31.5-6.2,47.3-9c7.6-1.3,15.3-2.5,22.9-3.8c0.8-0.1,1.7-0.3,2.5-0.5c-12.7,5.3-26,9.7-39.1,14c-15.2,5-30.4,8.9-46.3,11.3c-15.8,2.4-31.6,4.1-47.4,6.1c-15.6,2-30.8,4.8-46.1,8.8c-14.5,3.8-28.6,8.9-43,12.9c-10.7,3-22,4.4-31.2,11c-9.6,6.9-12.6,19-7,29.3c1.2,2.2,2.8,4.2,4.7,5.8c-5.4-0.9-10.7-2.3-16-4.8C75.9,166,65.8,159.3,67.8,150.1z M438.3,430.7c-1.1,0.1-1.9,0.5-2.6,1c-0.1,0-0.3,0-0.4,0c-15,1-30-1.1-45-1c-16.4,0.1-32.8,1-49.1,2.3c-32.1,2.6-63.7,8.4-95.7,11.7c-31.2,3.3-63.6,3.2-94.6-1.7c-13-2-26.1-5.3-38.1-10.7c-4.8-2.2-9.2-5.3-11.4-10.2c-3-6.6-3.4-14.9-4.5-21.9c-3.5-21.2-6.9-42.2-9.1-63.6c-2.3-22.5-3.3-45.1-5.9-67.6c-2.6-22.3-8.2-44.1-10.8-66.4c-1.1-9.7-3.2-19.3-3.7-29.1c0-0.8-0.1-1.7-0.1-2.5c2.2,1.9,4.6,3.5,6.8,5c9.2,5.8,19.9,8.4,30.6,9c31.5,1.8,63.2,0.8,94.7,0.8c31.5,0,62.7-1.3,94-4.6c29.6-3.1,59.2-6.9,88.9-9.6c16.3-1.5,32.6-2.6,48.9-2.8c0.9,0.8,2.1,1.2,3.7,0.9c5.7-1.1,7.7,5.3,9.1,9.9c2.5,7.8,3.1,16.2,3.7,24.3c1.3,18.3,1.8,36.5,1.8,54.8c-0.5,0.3-0.9,0.6-1.4,0.8c-5.7,3.1-12.3,5.1-18.4,7.1c-14.2,4.6-29.1,6.9-43.8,9.1c-20.4,3.1-47.8-1.4-62.3,16.6c-6.6,8.2-15.6,17.9-16.2,29c-0.5,10,8.1,17.4,15.1,23.3c8.1,6.9,16.2,11.2,26.9,12.6c12.1,1.6,24.5,0.5,36.5-1.2c19.1-2.6,37.9-7,56.8-10.6c0.2,19.1,1.6,38.4,3.3,57.3C446.7,410.2,449.2,429.7,438.3,430.7z M470.7,314.9c0,8.1-0.9,14-9,16.9c-0.1,0-0.3,0-0.4,0c-0.9,0-1.6,0.2-2.3,0.5c-0.4-0.2-0.9-0.3-1.4-0.4c-2.3-0.6-4,0.3-4.9,1.8c-25.9,4.3-51.5,11.2-77.7,13.7c-11.4,1.1-24.2,1.8-35-2.6c-4-1.6-7.5-4.9-10.8-7.6c-4-3.3-8-7-10.8-11.4c-5.2-8.1,8.6-20.9,12.8-26.8c6.5-9,18.9-10.3,29.1-11c26.9-2,54.1-5,79.7-14.2c6-2.2,12.5-4.5,17.7-8.4c5.6-4.2,7.7-10.3,7.9-17c0.1-3.8-3.2-5-6.1-4.2c0-1.6,0-3.3-0.1-4.9c1,1.2,2.2,2.2,3.6,3.2c3.2,2.3,7,4.3,8.2,8.3c2.8,9.4-0.7,20.7-0.7,30.4C470.7,292.3,470.6,303.6,470.7,314.9z"/><path fill="#010101" d="M369.7,313.1c-0.3-3.7-2.3-7.7-5.7-9.6c-4.2-2.3-8.8-1.8-13.4-2.7c-0.9-0.2-1.7-0.1-2.4,0.1c-1.6-3.4-7-4.8-9-0.4c-3.8,8.4-10.7,15.7-4,24.9c5.1,7.1,15,8.8,23,7C366.8,330.4,370.4,321.1,369.7,313.1z M353.8,323.1c-4,0.6-8.6-0.9-11.1-4.2c-1.9-2.6,0.7-6.7,2.9-10.1c0.6,0.9,1.6,1.5,3,1.8c2.9,0.6,10.4-0.5,11,3.2C360.5,318.4,358.4,322.4,353.8,323.1z"/></svg>