<svg xmlns="http://www.w3.org/2000/svg" viewBox="0 0 48 48" width="48px" height="48px"><path fill="#c0e6ed" d="M44.306,9.453c-0.496-0.38-1.124-0.539-1.739-0.644c-2.423-0.413-4.903-0.12-7.35,0.117 C26.22,9.798,16.86,8.941,7.828,8.583C6.744,8.54,5.182,8.698,4.147,9.025s-2.006,1.044-2.358,2.071 c-0.257,0.748-0.162,1.564-0.073,2.35c0.658,5.805,0.012,13.425-0.227,19.262c-0.024,0.579-0.048,1.18,0.171,1.717 c0.199,0.489,0.587,0.882,1.026,1.174c1.41,0.94,3.236,0.89,4.929,0.806c7.018-0.35,15.388,0.413,22.406,0.063l15.096-18.574 c-0.196-1.215,0.169-3.848,0.272-5.074S45.283,10.202,44.306,9.453z"/><polygon fill="#bcbcbc" points="32.292,40.309 31.813,40.315 31.813,36.468 17.604,36.468 17.604,40.5 15.488,40.528 13.932,41.301 13.614,42.417 33.12,42.832"/><path fill="#2b8c5e" d="M37.332,31.23c-0.159-0.707-0.318-1.416-0.572-2.094c-0.82-2.191-2.554-3.892-4.236-5.517 c-1.028-0.993-1.981-2.081-3.399-1.902c-0.129,0.016-0.269,0.051-0.343,0.158c-0.052,0.075-0.06,0.17-0.065,0.261 c-0.142,2.411,0.374,4.786,1.164,7.067c0.467,1.35,1.2,2.97,2.539,3.466l5.127,0.175C37.365,32.035,37.514,32.039,37.332,31.23z"/><path fill="#f58420" d="M30.672,32.531c4.328,0.384,8.754,0.468,13.081,0.077c0.75-0.068,1.525-0.127,2.114,0.342 c0.534,0.424,0.704,1.177,0.63,1.855s-0.352,1.313-0.566,1.961c-1.139,3.44-0.414,2.401-1.353,5.901 c-0.098,0.364-0.227,0.746-0.522,0.981c-0.304,0.241-0.717,0.276-1.105,0.298c-2.607,0.152-6.23,0.442-8.841,0.414 c-0.321-0.004-0.653-0.011-0.945-0.145c-0.551-0.253-0.811-0.878-1.015-1.449c-1.51-4.23-1.742-4.057-2.516-8.482 c-0.074-0.422-0.138-0.884,0.074-1.256C29.919,32.655,30.303,32.468,30.672,32.531z"/><path fill="#71c598" d="M36.938,19.031l4.719-3.688c0,0,1.625,2.406,0.75,4.813C40.031,21.563,39.094,21.969,36.938,19.031z"/><path fill="#38b47b" d="M36.115,18.554c-0.836-0.482-1.825-0.722-2.661-1.205c-0.542-0.313-1.101-0.632-1.72-0.724 c-0.2,2.823,0.647,5.266,1.781,7.859l2.136,2.582l3.619-5.525C38.812,20.232,37.317,19.248,36.115,18.554z"/><path fill="#2b8c5e" d="M46.407,17.563c-4.623,1.411-9.19,4.931-10.755,9.504l1.66,5.85l6.28-0.308 C46.27,29.47,46.875,22.953,46.407,17.563z"/><path fill="#010101" d="M37.546,33.344c-0.229,0-0.435-0.158-0.487-0.391c-0.101-0.448-0.11-0.687-0.119-0.896 c-0.008-0.191-0.015-0.356-0.095-0.717c-0.152-0.678-0.31-1.379-0.553-2.027c-0.796-2.128-2.56-3.831-4.115-5.334l-0.275-0.269 c-0.883-0.866-1.639-1.631-2.686-1.5c-0.108,2.098,0.266,4.313,1.138,6.831c0.397,1.146,1.062,2.723,2.241,3.159 c0.259,0.096,0.391,0.384,0.295,0.643c-0.096,0.258-0.382,0.392-0.643,0.295c-1.575-0.583-2.374-2.431-2.838-3.77 c-0.93-2.688-1.319-5.063-1.19-7.261c0.005-0.102,0.017-0.317,0.151-0.514c0.217-0.312,0.575-0.357,0.692-0.373 c1.534-0.195,2.554,0.808,3.541,1.775l0.27,0.264c1.631,1.576,3.481,3.363,4.357,5.701c0.267,0.714,0.432,1.449,0.592,2.16 c0.101,0.448,0.11,0.686,0.119,0.896c0.008,0.191,0.015,0.357,0.096,0.718c0.061,0.27-0.109,0.537-0.378,0.598 C37.62,33.34,37.583,33.344,37.546,33.344z"/><path fill="#010101" d="M43.592,33.108c-0.115,0-0.23-0.039-0.325-0.119c-0.21-0.18-0.235-0.495-0.056-0.705 c2.549-2.988,3.093-9.098,2.746-14.051c-4.673,1.608-8.497,5.087-9.833,8.995c-0.09,0.261-0.375,0.399-0.635,0.311 c-0.261-0.089-0.401-0.373-0.312-0.635c1.493-4.366,5.843-8.221,11.082-9.82c0.145-0.044,0.302-0.021,0.426,0.064 c0.125,0.084,0.205,0.221,0.218,0.371c0.457,5.255-0.074,12.063-2.932,15.413C43.874,33.049,43.733,33.108,43.592,33.108z"/><path fill="#010101" d="M33.516,24.984c-0.193,0-0.376-0.112-0.458-0.3c-1.237-2.828-2.021-5.287-1.822-8.095 c0.01-0.14,0.077-0.268,0.186-0.354c0.108-0.088,0.248-0.129,0.387-0.104c0.721,0.107,1.345,0.468,1.895,0.784 c0.387,0.224,0.813,0.393,1.265,0.571c0.466,0.185,0.947,0.375,1.396,0.635c1.306,0.754,2.871,1.806,3.378,3.256 c0.091,0.261-0.046,0.546-0.307,0.637c-0.26,0.096-0.546-0.046-0.637-0.307c-0.398-1.14-1.777-2.053-2.934-2.721 c-0.386-0.223-0.813-0.392-1.264-0.57c-0.466-0.185-0.947-0.375-1.397-0.635c-0.325-0.187-0.657-0.378-0.998-0.511 c-0.038,2.362,0.682,4.533,1.767,7.014c0.111,0.253-0.004,0.548-0.258,0.658C33.651,24.971,33.583,24.984,33.516,24.984z"/><path fill="#010101" d="M42.566,19.689c-0.026,0-0.052-0.002-0.079-0.006c-0.273-0.044-0.459-0.3-0.416-0.572 c0.144-0.909,0.002-1.848-0.459-3.044c-0.004-0.01-0.008-0.02-0.011-0.027c-0.029,0.014-0.067,0.035-0.114,0.067 c-1.068,0.711-1.976,1.568-2.853,2.397c-0.393,0.371-0.773,0.73-1.151,1.061c-0.208,0.181-0.524,0.161-0.706-0.047 c-0.182-0.208-0.161-0.523,0.047-0.705c0.369-0.322,0.739-0.674,1.122-1.035c0.908-0.858,1.846-1.745,2.985-2.503 c0.561-0.376,0.957-0.281,1.189-0.139c0.268,0.164,0.374,0.439,0.424,0.572c0.355,0.921,0.736,2.158,0.514,3.559 C43.021,19.514,42.808,19.689,42.566,19.689z"/><path fill="#010101" d="M25.77,37.062c-2.291,0-4.652-0.063-6.965-0.125c-3.772-0.102-7.673-0.205-11.165-0.032 c-1.531,0.08-3.627,0.181-5.231-0.889c-0.576-0.385-0.995-0.869-1.212-1.402c-0.26-0.639-0.232-1.322-0.207-1.926 c0.049-1.204,0.116-2.483,0.185-3.807c0.264-5.067,0.563-10.81,0.045-15.379c-0.092-0.813-0.195-1.718,0.097-2.568 c0.371-1.08,1.373-1.972,2.68-2.385c1.193-0.377,2.832-0.503,3.852-0.466c1.985,0.079,3.986,0.182,5.996,0.285 c7.05,0.363,14.341,0.738,21.325,0.06l0.52-0.051c2.283-0.225,4.644-0.456,6.962-0.061c0.631,0.107,1.358,0.279,1.959,0.74 c1.305,0.999,1.36,2.813,1.277,3.806c-0.022,0.271-0.058,0.611-0.097,0.988c-0.136,1.3-0.321,3.08-0.179,3.964 c0.044,0.273-0.141,0.529-0.414,0.573c-0.275,0.051-0.53-0.142-0.573-0.413c-0.164-1.016,0.03-2.872,0.171-4.228 c0.039-0.37,0.073-0.702,0.096-0.969c0.066-0.789,0.039-2.218-0.889-2.928c-0.428-0.328-1.008-0.461-1.519-0.548 c-2.186-0.373-4.479-0.148-6.697,0.07l-0.521,0.051c-7.059,0.684-14.386,0.307-21.472-0.057C11.787,9.264,9.79,9.161,7.808,9.083 c-0.962-0.046-2.48,0.094-3.51,0.419C3.291,9.82,2.53,10.477,2.262,11.258c-0.219,0.638-0.133,1.391-0.051,2.119 c0.528,4.663,0.228,10.45-0.038,15.556c-0.069,1.32-0.135,2.596-0.185,3.796c-0.021,0.526-0.044,1.07,0.134,1.508 c0.179,0.438,0.556,0.757,0.841,0.947c1.229,0.818,2.822,0.811,4.627,0.723c3.527-0.177,7.449-0.07,11.241,0.03 c3.773,0.103,7.675,0.206,11.165,0.032c0.261-0.027,0.51,0.198,0.524,0.474c0.014,0.276-0.199,0.511-0.475,0.524 C28.67,37.036,27.234,37.062,25.77,37.062z"/><path fill="#010101" d="M17.604,40.809c-0.267,0-0.489-0.211-0.499-0.48c-0.027-0.698-0.014-1.324,0-1.95 c0.013-0.607,0.026-1.214,0-1.891c-0.011-0.276,0.205-0.509,0.48-0.52c0.255,0.022,0.508,0.204,0.519,0.48 c0.027,0.698,0.014,1.324,0,1.95c-0.013,0.607-0.026,1.214,0,1.891c0.011,0.276-0.205,0.509-0.48,0.52 C17.617,40.809,17.61,40.809,17.604,40.809z"/><path fill="#010101" d="M30.936,43.202c-0.539,0-1.081-0.026-1.612-0.053l-0.533-0.024 c-3.724-0.159-6.937-0.136-10.334-0.111c-1.377,0.01-2.787,0.023-4.258,0.019c-0.171,0-0.427-0.017-0.658-0.164 c-0.504-0.321-0.518-0.983-0.27-1.473c0.714-1.404,2.54-1.434,3.851-1.331c4.452,0.344,8.792,0.258,13.938,0.02 c0.267-0.028,0.509,0.2,0.522,0.476c0.013,0.276-0.201,0.51-0.477,0.522c-5.183,0.24-9.559,0.33-14.062-0.021 c-1.63-0.12-2.545,0.124-2.882,0.788c-0.035,0.067-0.047,0.139-0.048,0.184c0.016-0.002,0.044,0.001,0.084,0 c1.476,0.001,2.876-0.01,4.25-0.019c3.412-0.025,6.637-0.048,10.385,0.111l0.539,0.025c0.899,0.045,1.829,0.09,2.682-0.001 c0.282-0.023,0.521,0.17,0.55,0.444c0.029,0.274-0.17,0.521-0.444,0.55C31.757,43.187,31.347,43.202,30.936,43.202z"/><path fill="#f26322" d="M46.5,34.8c-0.02,0.18-0.06,0.36-0.1,0.54H29.83c-0.07-0.32-0.13-0.67-0.2-1.06 c-0.07-0.42-0.13-0.88,0.08-1.25c0.21-0.37,0.59-0.56,0.96-0.5C35,32.92,39.43,33,43.75,32.61c0.75-0.07,1.53-0.13,2.12,0.34 C46.4,33.37,46.57,34.13,46.5,34.8z"/><path fill="#010101" d="M29.938,35.836c2.741,0.233,5.477,0.268,8.224,0.152c2.699-0.113,5.44,0.156,8.125-0.113 c0.634-0.063,0.641-1.064,0-1c-2.685,0.269-5.425,0-8.125,0.113c-2.748,0.115-5.483,0.08-8.224-0.152 C29.296,34.781,29.3,35.782,29.938,35.836L29.938,35.836z"/><path fill="#010101" d="M34.478,44.861c-0.126,0-0.251-0.001-0.374-0.002c-0.336-0.004-0.754-0.009-1.148-0.19 c-0.726-0.334-1.04-1.071-1.277-1.735c-0.372-1.04-0.665-1.813-0.909-2.453c-0.755-1.988-1.038-2.731-1.629-6.111 c-0.068-0.388-0.181-1.038,0.132-1.589c0.31-0.543,0.882-0.836,1.46-0.745c4.628,0.409,8.995,0.435,12.975,0.075 c0.76-0.07,1.71-0.155,2.47,0.448c0.615,0.488,0.919,1.349,0.815,2.301c-0.063,0.576-0.251,1.105-0.434,1.617 c-0.053,0.148-0.106,0.297-0.155,0.446c-0.603,1.821-0.668,2.338-0.75,2.991c-0.073,0.586-0.157,1.25-0.595,2.883 c-0.122,0.456-0.291,0.922-0.695,1.242c-0.441,0.351-1.01,0.384-1.386,0.405c-0.576,0.034-1.203,0.074-1.857,0.116 C38.933,44.702,36.469,44.861,34.478,44.861z M30.53,33.02c-0.149,0-0.297,0.096-0.388,0.255c-0.125,0.22-0.079,0.563-0.016,0.923 c0.574,3.285,0.848,4.005,1.578,5.928c0.246,0.646,0.542,1.424,0.916,2.473c0.169,0.473,0.38,0.991,0.753,1.163 c0.201,0.092,0.476,0.096,0.742,0.099c2.01,0.016,4.631-0.147,6.942-0.297c0.656-0.042,1.285-0.082,1.863-0.116 c0.344-0.021,0.644-0.048,0.823-0.19c0.176-0.14,0.272-0.428,0.351-0.719c0.42-1.565,0.499-2.193,0.568-2.747 c0.085-0.68,0.159-1.267,0.793-3.182c0.052-0.156,0.107-0.312,0.162-0.467c0.17-0.479,0.331-0.932,0.382-1.392 c0.051-0.47-0.038-1.086-0.443-1.408c-0.415-0.329-0.99-0.305-1.758-0.235c-4.045,0.366-8.478,0.339-13.17-0.077 c-0.013-0.001-0.026-0.003-0.04-0.005C30.569,33.021,30.55,33.02,30.53,33.02z"/></svg>